<?xml version="1.0" encoding="UTF-8" standalone="no"?>
<!DOCTYPE svg PUBLIC "-//W3C//DTD SVG 1.1//EN" "http://www.w3.org/Graphics/SVG/1.1/DTD/svg11.dtd">
<svg width="100%" height="100%" viewBox="0 0 205 196" version="1.1" xmlns="http://www.w3.org/2000/svg" xmlns:xlink="http://www.w3.org/1999/xlink" xml:space="preserve" xmlns:serif="http://www.serif.com/" style="fill-rule:evenodd;clip-rule:evenodd;stroke-linecap:round;stroke-linejoin:round;stroke-miterlimit:1.5;">
    <g transform="matrix(1,0,0,1,-3104.52,-13162.8)">
        <g transform="matrix(0.150206,0,0,0.150206,2679.79,11571.8)">
            <path d="M3429,10818.7C3430.59,10708.3 3465.32,10619.9 3507.87,10619.9C3550.43,10619.9 3585.16,10708.3 3586.75,10818.7C3676.37,10831 3746.45,10858.4 3801.26,10893.5C3823.3,10821 3893.79,10767.9 3977.25,10767.9C4078.32,10767.9 4160.37,10845.8 4160.37,10941.7C4160.37,11037.6 4078.32,11115.5 3977.25,11115.5C3976.08,11115.5 3974.91,11115.5 3973.74,11115.5C3995.81,11178.8 3997.53,11226.8 3997.53,11226.8C4087.89,11285.7 4072.21,11348 4049.3,11385.1C4054.48,11393.9 4124.26,11516.2 4047.22,11636.9C4047.22,11636.9 4005.67,11667 3949.85,11675.1L3949.85,11730.1C3949.85,11730.1 3913.51,11718.7 3881.32,11703.9C3881.45,11723.6 3871.69,11746.8 3853.03,11767.5C3817.91,11806.4 3784.11,11763.4 3775.3,11750.5L3774.98,11750.6C3781.21,11763.3 3797.95,11806.7 3748.22,11827C3697.16,11847.9 3646.1,11787.9 3633.77,11772.1L3633.59,11772.1C3644.37,11788.4 3680.62,11852.7 3589.23,11864.3C3541.05,11870.4 3518.35,11853.9 3507.87,11834.2C3497.4,11853.9 3474.69,11870.4 3426.52,11864.3C3335.6,11852.8 3371.01,11789.1 3381.99,11772.4L3381.78,11772.4C3369.12,11788.5 3318.33,11847.8 3267.53,11827C3217.8,11806.7 3234.54,11763.3 3240.76,11750.6L3240.45,11750.5C3231.64,11763.4 3197.83,11806.4 3162.72,11767.5C3144.06,11746.8 3134.3,11723.6 3134.43,11703.9C3102.24,11718.7 3065.9,11730.1 3065.9,11730.1L3065.9,11674.6C3011.84,11665.7 2972.03,11636.9 2972.03,11636.9C2899.78,11523.7 2956.68,11409.1 2968.29,11388C2944.45,11351.3 2925.45,11287.3 3018.22,11226.8C3018.22,11226.8 3019.94,11178.8 3042.01,11115.5C3040.84,11115.5 3039.67,11115.5 3038.5,11115.5C2937.43,11115.5 2855.37,11037.6 2855.37,10941.7C2855.37,10845.8 2937.43,10767.9 3038.5,10767.9C3121.95,10767.9 3192.45,10821 3214.48,10893.5C3269.29,10858.4 3339.37,10831 3429,10818.7Z" style="stroke:black;stroke-width:55.48px;"/>
            <g>
                <ellipse cx="3038.5" cy="10941.7" rx="183.127" ry="173.781" style="fill:rgb(245,175,60);"/>
                <g transform="matrix(1,0,0,1,938.747,0)">
                    <ellipse cx="3038.5" cy="10941.7" rx="183.127" ry="173.781" style="fill:rgb(245,175,60);"/>
                </g>
                <path d="M3077.64,11368.2L2994.36,11418.8C2994.36,11418.8 2877.26,11318.7 3018.22,11226.8C3018.22,11226.8 3032.52,10827.8 3507.87,10812.2L3509.26,10812.2C3983.25,10828.6 3997.53,11226.8 3997.53,11226.8C4138.49,11318.7 4021.39,11418.8 4021.39,11418.8L3938.11,11368.2L3507.87,11276.2L3077.64,11368.2Z" style="fill:rgb(237,223,26);"/>
                <g transform="matrix(1,0,0,1,1298.57,-23.8542)">
                    <path d="M1871.54,11378.3C1871.54,11378.3 1772.06,11349.9 1671.69,11408.5C1671.69,11408.5 1593.52,11535.5 1673.46,11660.7C1673.46,11660.7 1812.03,11761.1 1923.06,11644.8L1871.54,11378.3Z" style="fill:rgb(155,145,155);"/>
                </g>
                <g transform="matrix(-1,0,0,1,5720.69,-23.8542)">
                    <path d="M1871.54,11378.3C1871.54,11378.3 1772.06,11349.9 1671.69,11408.5C1671.69,11408.5 1593.52,11535.5 1673.46,11660.7C1673.46,11660.7 1812.03,11761.1 1923.06,11644.8L1871.54,11378.3Z" style="fill:rgb(155,145,155);"/>
                </g>
                <g transform="matrix(1,0,0,1,-7.72027,-1.38791)">
                    <path d="M3507.87,11784.9C3507.87,11784.9 3492.13,11879 3596.95,11865.7C3701.76,11852.4 3638.69,11769.8 3638.69,11769.8C3638.69,11769.8 3697.32,11852.4 3755.94,11828.4C3814.57,11804.4 3780.81,11748.5 3780.81,11748.5C3780.81,11748.5 3819.89,11814.2 3860.75,11768.9C3901.61,11723.6 3899.84,11665.9 3844.76,11661.4" style="fill:rgb(156,129,48);"/>
                </g>
                <g transform="matrix(-1,0,0,1,7023.47,-1.38791)">
                    <path d="M3507.87,11784.9C3507.87,11784.9 3492.13,11879 3596.95,11865.7C3701.76,11852.4 3638.69,11769.8 3638.69,11769.8C3638.69,11769.8 3697.32,11852.4 3755.94,11828.4C3814.57,11804.4 3780.81,11748.5 3780.81,11748.5C3780.81,11748.5 3819.89,11814.2 3860.75,11768.9C3901.61,11723.6 3899.84,11665.9 3844.76,11661.4" style="fill:rgb(156,129,48);"/>
                </g>
                <g transform="matrix(1,0,0,1,-7.72027,-1.38791)">
                    <path d="M3916.36,11340.7L3932.7,11524L4029.34,11578L3957.57,11638.4L3957.57,11731.5C3957.57,11731.5 3867.33,11703.1 3845.3,11678.2L3723.08,11499.1L3828.78,11304.3L3916.36,11340.7Z" style="fill:rgb(172,140,42);"/>
                </g>
                <g transform="matrix(-1,0,0,1,7023.47,-1.38791)">
                    <path d="M3916.36,11340.7L3932.7,11524L4029.34,11578L3957.57,11638.4L3957.57,11731.5C3957.57,11731.5 3867.33,11703.1 3845.3,11678.2L3723.08,11499.1L3828.78,11304.3L3916.36,11340.7Z" style="fill:rgb(172,140,42);"/>
                </g>
                <path d="M3608.45,11779.1C3578.3,11795.9 3439.15,11796 3407.29,11779.1C3377.79,11763.6 3287.94,11775 3247.69,11754.2C3207.44,11733.3 3147.76,11709.8 3165.8,11637.6C3183.85,11565.4 3129.72,11435 3150.54,11365.6L3507.87,11261.5L3865.21,11365.6C3886.03,11435 3831.9,11565.4 3849.95,11637.6C3867.99,11709.8 3808.31,11733.3 3768.06,11754.2C3727.81,11775 3637.6,11762.9 3608.45,11779.1Z" style="fill:rgb(251,227,196);"/>
                <clipPath id="_clip1">
                    <path d="M3608.45,11779.1C3578.3,11795.9 3439.15,11796 3407.29,11779.1C3377.79,11763.6 3287.94,11775 3247.69,11754.2C3207.44,11733.3 3147.76,11709.8 3165.8,11637.6C3183.85,11565.4 3129.72,11435 3150.54,11365.6L3507.87,11261.5L3865.21,11365.6C3886.03,11435 3831.9,11565.4 3849.95,11637.6C3867.99,11709.8 3808.31,11733.3 3768.06,11754.2C3727.81,11775 3637.6,11762.9 3608.45,11779.1Z"/>
                </clipPath>
                <g clip-path="url(#_clip1)">
                    <g transform="matrix(1,0,0,1,1244.75,-14.9053)">
                        <path d="M2262.72,11583.9C2229.12,11584.1 2205.04,11610.7 2103.29,11646C2001.14,11681.6 1879.46,11563.4 1879.46,11563.4L1855.47,11338.6L2263.12,11289.4L2670.77,11338.6L2646.79,11563.4C2646.79,11563.4 2525.1,11681.6 2422.95,11646C2320.8,11610.5 2296.93,11583.9 2263.12,11583.9L2262.72,11583.9Z" style="fill:rgb(180,193,97);"/>
                    </g>
                </g>
                <g transform="matrix(1,0,0,1,1235.95,-5.20453)">
                    <path d="M2350.41,11452.2C2350.41,11452.2 2412.94,11474.9 2472.06,11448.8C2531.18,11422.6 2580.07,11397.1 2548.81,11352.7C2517.54,11308.4 2299.25,11444.2 2350.41,11452.2Z"/>
                </g>
                <g transform="matrix(-1,0,0,1,5779.8,-5.20453)">
                    <path d="M2350.41,11452.2C2350.41,11452.2 2412.94,11474.9 2472.06,11448.8C2531.18,11422.6 2580.07,11397.1 2548.81,11352.7C2517.54,11308.4 2299.25,11444.2 2350.41,11452.2Z"/>
                </g>
                <path d="M3506.98,11343C3488.72,11343.6 3194.07,11353.4 3071.88,11418.8C3071.88,11418.8 2972.39,11365.5 3044.34,11281.1C3116.29,11196.8 3319.44,11132.3 3507.87,11133.7L3508.98,11133.7C3697.12,11132.6 3899.61,11196.9 3971.41,11281.1C4043.36,11365.5 3943.87,11418.8 3943.87,11418.8C3817.74,11351.3 3507.87,11343 3507.87,11343L3506.98,11343Z" style="fill:rgb(246,233,44);"/>
                <g transform="matrix(1,0,0,1,-6.07482,0)">
                    <ellipse cx="3513.95" cy="10826.6" rx="78.936" ry="206.736" style="fill:rgb(246,233,44);"/>
                </g>
            </g>
        </g>
    </g>
</svg>
