<?xml version="1.0" encoding="UTF-8" standalone="no"?>
<!DOCTYPE svg PUBLIC "-//W3C//DTD SVG 1.1//EN" "http://www.w3.org/Graphics/SVG/1.1/DTD/svg11.dtd">
<svg width="100%" height="100%" viewBox="0 0 201 201" version="1.1" xmlns="http://www.w3.org/2000/svg" xmlns:xlink="http://www.w3.org/1999/xlink" xml:space="preserve" xmlns:serif="http://www.serif.com/" style="fill-rule:evenodd;clip-rule:evenodd;stroke-linecap:round;stroke-linejoin:round;stroke-miterlimit:1.5;">
    <g transform="matrix(1,0,0,1,-2303.12,-13160.1)">
        <g transform="matrix(0.393116,0,0,0.393116,375.024,8973.5)">
            <g transform="matrix(1.01315,0,0,1.01315,413.947,-375.869)">
                <path d="M4926.23,10967.2C4926.23,10926.3 4892.97,10893 4852.02,10893L4517.06,10893C4476.11,10893 4442.86,10926.3 4442.86,10967.2L4442.86,11302.2C4442.86,11343.2 4476.11,11376.4 4517.06,11376.4L4852.02,11376.4C4892.97,11376.4 4926.23,11343.2 4926.23,11302.2L4926.23,10967.2Z" style="stroke:black;stroke-width:20.92px;"/>
            </g>
            <g transform="matrix(1.01315,0,0,1.01315,413.947,-375.869)">
                <path d="M4926.23,10967.2C4926.23,10926.3 4892.97,10893 4852.02,10893L4517.06,10893C4476.11,10893 4442.86,10926.3 4442.86,10967.2L4442.86,11302.2C4442.86,11343.2 4476.11,11376.4 4517.06,11376.4L4852.02,11376.4C4892.97,11376.4 4926.23,11343.2 4926.23,11302.2L4926.23,10967.2Z" style="fill:rgb(156,186,167);"/>
                <clipPath id="_clip1">
                    <path d="M4926.23,10967.2C4926.23,10926.3 4892.97,10893 4852.02,10893L4517.06,10893C4476.11,10893 4442.86,10926.3 4442.86,10967.2L4442.86,11302.2C4442.86,11343.2 4476.11,11376.4 4517.06,11376.4L4852.02,11376.4C4892.97,11376.4 4926.23,11343.2 4926.23,11302.2L4926.23,10967.2Z"/>
                </clipPath>
                <g clip-path="url(#_clip1)">
                    <g transform="matrix(0.987018,0,0,0.987018,-408.573,370.989)">
                        <path d="M5404.97,10843.9L5404.97,10660.4L4915.24,10660.4L4915.24,10783.3L4976.66,10783.3L4976.66,10721.9L5037.27,10721.9L5037.27,10783.3L5098.69,10783.3L5098.69,10721.9L5220.71,10721.9L5220.71,10783.3L5282.13,10783.3L5282.13,10721.9L5343.55,10721.9L5343.55,10843.9L5404.97,10843.9Z" style="fill:rgb(171,197,169);"/>
                    </g>
                    <g transform="matrix(0.987018,0,0,0.987018,-408.573,370.989)">
                        <rect x="5098.69" y="10782.5" width="122.835" height="122.835" style="fill:rgb(133,165,149);"/>
                    </g>
                    <g transform="matrix(0.987018,0,0,0.987018,-408.573,370.989)">
                        <path d="M4915.24,11150.2L5404.97,11150.2L5404.97,10966.7L5282.13,10966.7L5282.13,11027.3L5221.52,11027.3L5221.52,10966.7L5098.69,10966.7L5098.69,11027.3L5037.27,11027.3L5037.27,10966.7L4915.24,10966.7L4915.24,11150.2Z" style="fill:rgb(133,165,149);"/>
                    </g>
                </g>
            </g>
        </g>
    </g>
</svg>
