<?xml version="1.0" encoding="UTF-8" standalone="no"?>
<!DOCTYPE svg PUBLIC "-//W3C//DTD SVG 1.1//EN" "http://www.w3.org/Graphics/SVG/1.1/DTD/svg11.dtd">
<svg width="100%" height="100%" viewBox="0 0 205 205" version="1.1" xmlns="http://www.w3.org/2000/svg" xmlns:xlink="http://www.w3.org/1999/xlink" xml:space="preserve" xmlns:serif="http://www.serif.com/" style="fill-rule:evenodd;clip-rule:evenodd;stroke-linecap:round;stroke-linejoin:round;stroke-miterlimit:1.5;">
    <g transform="matrix(1,0,0,1,-9730.34,-13439)">
        <g transform="matrix(1.15188,0,0,1.15188,-307.66,-1233.53)">
            <path d="M8808.39,12745.9C8812.49,12736.8 8821.51,12743.2 8838.73,12754.3C8856.2,12765.6 8863.83,12775.6 8872.67,12799.3C8881.51,12823 8879.67,12840 8879.67,12840C8882.89,12850.6 8888.54,12857.9 8888.54,12857.9C8881.86,12855.2 8877.62,12848.5 8877.62,12848.5C8877.62,12851.9 8875.82,12853 8875.82,12853C8876.2,12876.1 8863.09,12882.8 8863.09,12882.8C8867.47,12876.4 8867.72,12868.8 8867.72,12868.8C8864.64,12875 8854.61,12881.4 8854.61,12881.4C8858.06,12875.3 8859.41,12864.1 8859.94,12855.9C8854.27,12862.9 8847.1,12874.5 8847.47,12888C8847.47,12888 8844.48,12883.3 8844.4,12878.1C8844.4,12878.1 8841.93,12888.7 8845.6,12894.1C8845.6,12894.1 8841.78,12892.4 8840.43,12888.7C8839.08,12885 8836.24,12892.1 8835.12,12896.2C8834.26,12899.3 8832.7,12894.7 8830.05,12892.4C8824.89,12898.1 8819.78,12901.2 8816.72,12904.4C8810.58,12910.7 8804.31,12911.4 8801.89,12911.4L8801.89,12911.4C8801.89,12911.4 8793.85,12912.4 8786.04,12904.4C8784.56,12902.8 8782.59,12901.3 8780.37,12899.5C8778.57,12904.7 8775.03,12907.2 8775.03,12907.2C8776.2,12905.1 8775.74,12903.9 8775.74,12903.9C8769.89,12909.6 8760.88,12912 8760.88,12912C8766.61,12903.9 8765.09,12900.1 8765.09,12900.1C8762.87,12903.2 8757.26,12903.9 8757.26,12903.9C8768.49,12891.6 8761.82,12879.7 8759.36,12888.6C8756.9,12897.5 8749.42,12899.1 8749.42,12899.1C8757.08,12886.7 8748.02,12862.6 8744.06,12853.4C8743.26,12852.2 8742.72,12851.4 8742.72,12851.4C8739.5,12866.4 8751.46,12877.7 8751.46,12877.7C8740.75,12874.6 8736.65,12857.7 8736.65,12857.7C8735.93,12874.3 8743.43,12880.3 8743.43,12880.3C8719.51,12867.1 8733.08,12824.1 8733.08,12824.1C8727.9,12835.2 8718.08,12842.4 8718.08,12842.4C8728.26,12830.9 8729.86,12819.3 8741.29,12790C8752.71,12760.8 8757.35,12763.3 8764.31,12757.2C8771.27,12751.1 8793.23,12744.1 8799.35,12742.5C8804.41,12741.2 8807.47,12744.7 8808.39,12745.9ZM8803.14,12763C8803.41,12763.1 8803.65,12763.2 8803.84,12763.3C8803.91,12763.2 8803.94,12763.2 8803.94,12763.2C8803.67,12763.1 8803.41,12763.1 8803.14,12763Z" style="stroke:black;stroke-width:7.23px;"/>
            <g>
                <path d="M8742.4,12849.7C8742.4,12849.7 8759.01,12883.6 8749.42,12899.1C8749.42,12899.1 8756.9,12897.5 8759.36,12888.6C8761.82,12879.7 8768.49,12891.6 8757.26,12903.9C8757.26,12903.9 8762.87,12903.2 8765.09,12900.1C8765.09,12900.1 8766.61,12903.9 8760.88,12912C8760.88,12912 8769.89,12909.6 8775.74,12903.9C8775.74,12903.9 8776.2,12905.1 8775.03,12907.2C8775.03,12907.2 8779.6,12904 8781,12897.2L8765.68,12835.9L8742.4,12849.7Z" style="fill:rgb(28,49,85);"/>
                <path d="M8866.6,12848.7C8866.6,12848.7 8846.87,12865.9 8847.47,12888C8847.47,12888 8844.48,12883.3 8844.4,12878.1C8844.4,12878.1 8841.93,12888.7 8845.6,12894.1C8845.6,12894.1 8841.78,12892.4 8840.43,12888.7C8839.08,12885 8836.24,12892.1 8835.12,12896.2C8833.99,12900.3 8831.65,12891 8827.21,12891.3L8829.31,12829L8861.25,12825.3L8866.6,12848.7Z" style="fill:rgb(148,46,52);"/>
                <g transform="matrix(1,0,0,1,-0.520081,1.54311)">
                    <path d="M8762.85,12872.9C8762.85,12872.9 8755.76,12873.3 8750.97,12854.2C8746.17,12835.1 8761.13,12847.7 8762.73,12852.1L8762.85,12872.9Z" style="fill:rgb(244,199,174);"/>
                </g>
                <g transform="matrix(-1,0,0,1,17603.3,1.54311)">
                    <path d="M8762.85,12872.9C8762.85,12872.9 8755.76,12873.3 8750.97,12854.2C8746.17,12835.1 8761.13,12847.7 8762.73,12852.1L8762.85,12872.9Z" style="fill:rgb(244,199,174);"/>
                </g>
                <g transform="matrix(1.02943,0,0,1,-260.414,0)">
                    <path d="M8803.2,12779.9L8847.47,12794.5L8847.01,12837.5C8845.63,12888.7 8825.18,12896.3 8817.59,12904.4C8811.64,12910.7 8805.54,12911.4 8803.2,12911.4L8803.2,12911.4C8803.2,12911.4 8795.38,12912.4 8787.8,12904.4C8780.22,12896.3 8759.76,12888.7 8758.38,12837.5L8757.93,12794.5L8802.2,12779.9L8802.2,12779.6L8802.7,12779.7L8803.2,12779.6L8803.2,12779.9Z" style="fill:rgb(255,214,191);"/>
                </g>
                <path d="M8800.47,12801C8800.47,12801 8802.88,12798.9 8805.77,12798.2C8805.77,12798.2 8809.14,12799.7 8810.47,12801.3C8810.47,12801.3 8818.94,12824.6 8789.42,12862.1C8789.42,12862.1 8816.53,12846.4 8822.76,12817.1C8822.76,12817.1 8826.29,12839.1 8814.34,12854.9C8814.34,12854.9 8830.02,12850.8 8833.62,12825.1C8833.62,12825.1 8834.52,12834.6 8833.62,12840.5C8833.62,12840.5 8841.84,12832.3 8842.36,12822.2C8842.36,12822.2 8845.96,12836 8851.23,12843C8851.23,12843 8851.74,12858.7 8837.47,12868.2C8837.47,12868.2 8855.9,12867.8 8860.27,12845.6C8860.27,12845.6 8860.52,12870.9 8854.61,12881.4C8854.61,12881.4 8864.64,12875 8867.72,12868.8C8867.72,12868.8 8867.47,12876.4 8863.09,12882.8C8863.09,12882.8 8876.2,12876.1 8875.82,12853C8875.82,12853 8877.62,12851.9 8877.62,12848.5C8877.62,12848.5 8881.86,12855.2 8888.54,12857.9C8888.54,12857.9 8882.89,12850.6 8879.67,12840C8879.67,12840 8881.51,12823 8872.67,12799.3C8863.83,12775.6 8856.2,12765.6 8838.73,12754.3C8821.26,12743.1 8812.23,12736.7 8808.21,12746.3L8810.79,12749.1C8810.79,12749.1 8797.09,12756.4 8793.12,12762.2C8793.12,12762.2 8798.91,12761.7 8803.94,12763.2C8803.94,12763.2 8795.69,12765.9 8796.01,12773.3C8796.34,12780.7 8796.89,12791.9 8800.47,12801Z" style="fill:rgb(181,34,43);"/>
                <clipPath id="_clip1">
                    <path d="M8800.47,12801C8800.47,12801 8802.88,12798.9 8805.77,12798.2C8805.77,12798.2 8809.14,12799.7 8810.47,12801.3C8810.47,12801.3 8818.94,12824.6 8789.42,12862.1C8789.42,12862.1 8816.53,12846.4 8822.76,12817.1C8822.76,12817.1 8826.29,12839.1 8814.34,12854.9C8814.34,12854.9 8830.02,12850.8 8833.62,12825.1C8833.62,12825.1 8834.52,12834.6 8833.62,12840.5C8833.62,12840.5 8841.84,12832.3 8842.36,12822.2C8842.36,12822.2 8845.96,12836 8851.23,12843C8851.23,12843 8851.74,12858.7 8837.47,12868.2C8837.47,12868.2 8855.9,12867.8 8860.27,12845.6C8860.27,12845.6 8860.52,12870.9 8854.61,12881.4C8854.61,12881.4 8864.64,12875 8867.72,12868.8C8867.72,12868.8 8867.47,12876.4 8863.09,12882.8C8863.09,12882.8 8876.2,12876.1 8875.82,12853C8875.82,12853 8877.62,12851.9 8877.62,12848.5C8877.62,12848.5 8881.86,12855.2 8888.54,12857.9C8888.54,12857.9 8882.89,12850.6 8879.67,12840C8879.67,12840 8881.51,12823 8872.67,12799.3C8863.83,12775.6 8856.2,12765.6 8838.73,12754.3C8821.26,12743.1 8812.23,12736.7 8808.21,12746.3L8810.79,12749.1C8810.79,12749.1 8797.09,12756.4 8793.12,12762.2C8793.12,12762.2 8798.91,12761.7 8803.94,12763.2C8803.94,12763.2 8795.69,12765.9 8796.01,12773.3C8796.34,12780.7 8796.89,12791.9 8800.47,12801Z"/>
                </clipPath>
                <g clip-path="url(#_clip1)">
                    <path d="M8834.6,12777.9C8834.6,12777.9 8856.57,12816.7 8851.04,12842.4C8845.16,12840.5 8842.28,12834.4 8842.11,12824.4L8842.49,12823.5C8842.49,12823.5 8842.44,12810.7 8834.6,12777.9Z" style="fill:rgb(37,62,106);"/>
                    <path d="M8860.26,12834.9C8860.26,12834.9 8875.55,12853.9 8857.04,12874.5C8857.04,12874.5 8861.29,12852.7 8860.26,12834.9Z" style="fill:rgb(37,62,106);"/>
                </g>
                <path d="M8808.68,12746.3C8808.68,12746.3 8805.48,12741 8799.35,12742.5C8793.23,12744.1 8771.27,12751.1 8764.31,12757.2C8757.35,12763.3 8752.71,12760.8 8741.29,12790C8729.86,12819.3 8728.26,12830.9 8718.08,12842.4C8718.08,12842.4 8727.9,12835.2 8733.08,12824.1C8733.08,12824.1 8719.51,12867.1 8743.43,12880.3C8743.43,12880.3 8735.93,12874.3 8736.65,12857.7C8736.65,12857.7 8740.75,12874.6 8751.46,12877.7C8751.46,12877.7 8739.5,12866.4 8742.72,12851.4C8742.72,12851.4 8748.84,12859.9 8750.33,12866.3C8750.33,12866.3 8751.58,12860.3 8752.16,12853C8752.16,12853 8756.84,12866.6 8765.29,12870.2C8765.29,12870.2 8757.07,12846.4 8760.04,12829.1C8760.04,12829.1 8766.55,12841.7 8777.17,12838.9C8777.17,12838.9 8767.46,12833.2 8767.35,12818.9C8767.35,12818.9 8777.17,12836.1 8791.45,12839.4C8791.45,12839.4 8776.37,12823.6 8778.77,12804.7C8778.77,12804.7 8799.82,12853.3 8822.1,12868.1C8822.1,12868.1 8790.74,12816.7 8789.42,12796.6C8789.42,12796.6 8795.25,12798.7 8797.25,12800.6C8797.25,12800.6 8797.39,12798.9 8795.97,12796.2C8795.97,12796.2 8797.96,12797.5 8800.39,12800.5C8800.39,12800.5 8796.82,12785.9 8797.25,12777.9C8797.68,12769.9 8794.82,12766.8 8804.39,12763.5C8804.39,12763.5 8798.39,12760.9 8794.11,12762C8794.11,12762 8800.82,12755 8811.1,12749.1L8808.68,12746.3Z" style="fill:rgb(37,62,106);"/>
                <clipPath id="_clip2">
                    <path d="M8808.68,12746.3C8808.68,12746.3 8805.48,12741 8799.35,12742.5C8793.23,12744.1 8771.27,12751.1 8764.31,12757.2C8757.35,12763.3 8752.71,12760.8 8741.29,12790C8729.86,12819.3 8728.26,12830.9 8718.08,12842.4C8718.08,12842.4 8727.9,12835.2 8733.08,12824.1C8733.08,12824.1 8719.51,12867.1 8743.43,12880.3C8743.43,12880.3 8735.93,12874.3 8736.65,12857.7C8736.65,12857.7 8740.75,12874.6 8751.46,12877.7C8751.46,12877.7 8739.5,12866.4 8742.72,12851.4C8742.72,12851.4 8748.84,12859.9 8750.33,12866.3C8750.33,12866.3 8751.58,12860.3 8752.16,12853C8752.16,12853 8756.84,12866.6 8765.29,12870.2C8765.29,12870.2 8757.07,12846.4 8760.04,12829.1C8760.04,12829.1 8766.55,12841.7 8777.17,12838.9C8777.17,12838.9 8767.46,12833.2 8767.35,12818.9C8767.35,12818.9 8777.17,12836.1 8791.45,12839.4C8791.45,12839.4 8776.37,12823.6 8778.77,12804.7C8778.77,12804.7 8799.82,12853.3 8822.1,12868.1C8822.1,12868.1 8790.74,12816.7 8789.42,12796.6C8789.42,12796.6 8795.25,12798.7 8797.25,12800.6C8797.25,12800.6 8797.39,12798.9 8795.97,12796.2C8795.97,12796.2 8797.96,12797.5 8800.39,12800.5C8800.39,12800.5 8796.82,12785.9 8797.25,12777.9C8797.68,12769.9 8794.82,12766.8 8804.39,12763.5C8804.39,12763.5 8798.39,12760.9 8794.11,12762C8794.11,12762 8800.82,12755 8811.1,12749.1L8808.68,12746.3Z"/>
                </clipPath>
                <g clip-path="url(#_clip2)">
                    <path d="M8771.27,12769.6C8771.27,12769.6 8751.32,12784.5 8760.6,12834.9L8772.2,12871.4L8759.29,12872.9L8752.56,12854.8C8752.56,12854.8 8739.82,12783.2 8771.27,12769.6Z" style="fill:rgb(181,34,43);"/>
                    <path d="M8736.68,12870.3C8736.68,12870.3 8730.97,12848.2 8736.5,12824.4C8736.5,12824.4 8724.18,12852.6 8736.68,12870.3Z" style="fill:rgb(181,34,43);"/>
                </g>
                <g transform="matrix(1,0,0,1,174.342,5.00192)">
                    <path d="M8621.46,12838.1C8621.46,12838.1 8601.8,12829.9 8582.62,12831.9C8582.62,12831.9 8606.01,12825.3 8621.46,12838.1Z" style="fill:rgb(29,29,29);"/>
                </g>
                <g transform="matrix(-1,0,0,1,17428.4,5.00192)">
                    <path d="M8621.46,12838.1C8621.46,12838.1 8601.8,12829.9 8582.62,12831.9C8582.62,12831.9 8606.01,12825.3 8621.46,12838.1Z" style="fill:rgb(29,29,29);"/>
                </g>
            </g>
        </g>
    </g>
</svg>
