<?xml version="1.0" encoding="UTF-8" standalone="no"?>
<!DOCTYPE svg PUBLIC "-//W3C//DTD SVG 1.1//EN" "http://www.w3.org/Graphics/SVG/1.1/DTD/svg11.dtd">
<svg width="100%" height="100%" viewBox="0 0 212 238" version="1.1" xmlns="http://www.w3.org/2000/svg" xmlns:xlink="http://www.w3.org/1999/xlink" xml:space="preserve" xmlns:serif="http://www.serif.com/" style="fill-rule:evenodd;clip-rule:evenodd;stroke-linecap:round;stroke-linejoin:round;stroke-miterlimit:1.5;">
    <g transform="matrix(1,0,0,1,-491.896,-13159.9)">
        <g transform="matrix(0.813778,0,0,0.813778,-377.887,4611.37)">
            <path d="M1134.08,10534.9C1145.32,10522.9 1158.62,10514.1 1171.33,10511.2C1184.59,10508 1191.5,10511 1195.1,10515.1C1195.51,10515.1 1195.94,10515.1 1196.37,10515.2L1199.23,10515.2C1201.5,10515.1 1203.49,10514.8 1205.22,10514.5C1206.96,10513.3 1209.15,10512.4 1211.92,10512C1213.55,10511 1214.31,10510.3 1214.31,10510.3C1214.73,10510.7 1215.27,10511.2 1215.91,10511.7C1218.82,10511.6 1222.22,10512 1226.19,10513C1238.83,10515.9 1252.06,10524.6 1263.26,10536.5C1264.76,10538 1266.08,10539.5 1267.24,10541C1279.6,10555.7 1288.78,10574.2 1290.69,10592.9C1291.11,10597.1 1291.52,10601.5 1291.92,10606C1295.38,10616.7 1298.18,10626.5 1298.38,10632.3C1298.66,10640.6 1308.75,10675.9 1304.48,10708.3C1310.25,10726.5 1318.42,10756.7 1323.58,10765C1323.58,10765 1313.38,10760.8 1306.17,10750C1306.17,10750 1293.27,10767.6 1297.77,10776.1C1297.77,10776.1 1285.77,10768.3 1286.97,10762.7C1286.97,10762.7 1285.47,10769.6 1281.87,10775.1C1281.87,10775.1 1265.59,10779.4 1269.98,10788.2C1269.98,10788.2 1262.66,10778.1 1265.06,10770.6C1265.06,10770.6 1257.52,10779.8 1258.94,10785.1C1259.54,10786.2 1259.96,10786.9 1259.96,10786.9C1259.45,10786.4 1259.12,10785.8 1258.94,10785.1C1257.22,10781.9 1254.01,10775.3 1254.66,10771.6C1255.03,10770.7 1255.16,10770.2 1255.16,10770.2C1254.91,10770.6 1254.75,10771.1 1254.66,10771.6C1253.78,10773.7 1251.53,10778.1 1246.46,10783.6C1246.46,10783.6 1249.46,10779.4 1246.16,10771.5C1246.16,10771.5 1232.65,10780.4 1236.26,10790.8C1236.26,10790.8 1225.45,10773.8 1228.15,10766C1228.15,10766 1214.65,10778.7 1218.85,10791.5C1218.85,10791.5 1209.25,10764.7 1215.25,10757.8C1215.25,10757.8 1204.15,10766.6 1205.65,10776.1C1205.65,10776.1 1201.05,10767 1198.52,10757.1C1195.93,10766.3 1191.87,10774.3 1191.87,10774.3C1193.37,10764.8 1182.27,10756 1182.27,10756C1188.27,10762.9 1178.67,10789.7 1178.67,10789.7C1182.87,10776.9 1169.37,10764.2 1169.37,10764.2C1172.07,10772 1161.26,10789 1161.26,10789C1164.87,10778.6 1151.36,10769.7 1151.36,10769.7C1148.06,10777.6 1151.06,10781.8 1151.06,10781.8C1145.99,10776.3 1143.74,10771.9 1142.86,10769.8C1142.77,10769.3 1142.61,10768.8 1142.36,10768.4C1142.36,10768.4 1142.49,10768.9 1142.86,10769.8C1143.05,10770.9 1142.91,10772.3 1142.56,10773.7C1144.48,10775.8 1145.81,10777.1 1145.81,10777.1C1144.37,10777 1142.97,10776.9 1141.63,10776.7C1140.69,10779.2 1139.45,10781.7 1138.58,10783.3C1138.4,10784 1138.07,10784.6 1137.56,10785.1C1137.56,10785.1 1137.98,10784.4 1138.58,10783.3C1139.17,10781.1 1138.23,10778.2 1136.92,10775.6C1135.44,10775.2 1134.05,10774.7 1132.77,10774.2C1131.87,10780.4 1127.54,10786.4 1127.54,10786.4C1131.93,10777.6 1115.65,10773.3 1115.65,10773.3C1112.05,10767.8 1110.55,10760.9 1110.55,10760.9C1111.75,10766.5 1099.75,10774.3 1099.75,10774.3C1104.25,10765.8 1091.35,10748.2 1091.35,10748.2C1084.14,10759 1073.94,10763.2 1073.94,10763.2C1078.45,10756 1085.25,10732 1090.75,10713.9C1087.75,10689 1095.37,10665 1098.75,10644.2C1100.42,10634 1102.5,10623.7 1104.77,10614C1105.44,10605.9 1106.11,10598.2 1106.83,10591.1C1108.57,10574.1 1116.32,10557.2 1127,10543.3C1128.7,10540.5 1130.96,10537.6 1133.99,10535C1134.02,10535 1134.05,10534.9 1134.08,10534.9Z" style="stroke:black;stroke-width:10.24px;"/>
            <g>
                <g transform="matrix(0.836255,0,0,0.909839,198.874,966.808)">
                    <path d="M1195.41,10508.8C1195.41,10508.8 1194.03,10484.7 1228.48,10492.1C1262.93,10499.6 1301.11,10539.6 1305.6,10580C1310.08,10620.4 1313.14,10682.3 1320.03,10701C1326.92,10719.6 1338.11,10759.1 1344.93,10769.2C1344.93,10769.2 1332.73,10764.5 1324.12,10752.7C1324.12,10752.7 1308.69,10772 1314.07,10781.4C1314.07,10781.4 1299.72,10772.8 1301.15,10766.7C1301.15,10766.7 1299.36,10774.2 1295.05,10780.3C1295.05,10780.3 1275.59,10785 1280.84,10794.6C1280.84,10794.6 1272.09,10783.5 1274.96,10775.3C1274.96,10775.3 1263.48,10788.2 1268.86,10793.2C1268.86,10793.2 1259.89,10779.6 1263.12,10774.9C1263.12,10774.9 1261.32,10781 1252.71,10789.6C1252.71,10789.6 1256.3,10785 1252.35,10776.3C1252.35,10776.3 1236.2,10786 1240.51,10797.5C1240.51,10797.5 1227.59,10778.9 1230.82,10770.2C1230.82,10770.2 1214.67,10784.2 1219.7,10798.2C1219.7,10798.2 1208.21,10768.8 1215.39,10761.3C1215.39,10761.3 1202.11,10771 1203.91,10781.4C1203.91,10781.4 1187.98,10752.3 1195.41,10739.4L1195.41,10508.8Z" style="fill:rgb(28,49,85);"/>
                </g>
                <g transform="matrix(-0.836255,0,0,0.909839,2198.65,965.003)">
                    <path d="M1195.41,10508.8C1195.41,10508.8 1194.03,10484.7 1228.48,10492.1C1262.93,10499.6 1301.11,10539.6 1305.6,10580C1310.08,10620.4 1313.14,10682.3 1320.03,10701C1326.92,10719.6 1338.11,10759.1 1344.93,10769.2C1344.93,10769.2 1332.73,10764.5 1324.12,10752.7C1324.12,10752.7 1308.69,10772 1314.07,10781.4C1314.07,10781.4 1299.72,10772.8 1301.15,10766.7C1301.15,10766.7 1299.36,10774.2 1295.05,10780.3C1295.05,10780.3 1275.59,10785 1280.84,10794.6C1280.84,10794.6 1272.09,10783.5 1274.96,10775.3C1274.96,10775.3 1263.48,10788.2 1268.86,10793.2C1268.86,10793.2 1259.89,10779.6 1263.12,10774.9C1263.12,10774.9 1261.32,10781 1252.71,10789.6C1252.71,10789.6 1256.3,10785 1252.35,10776.3C1252.35,10776.3 1236.2,10786 1240.51,10797.5C1240.51,10797.5 1227.59,10778.9 1230.82,10770.2C1230.82,10770.2 1214.67,10784.2 1219.7,10798.2C1219.7,10798.2 1208.21,10768.8 1215.39,10761.3C1215.39,10761.3 1202.11,10771 1203.91,10781.4C1203.91,10781.4 1187.98,10752.3 1195.41,10739.4L1195.41,10508.8Z" style="fill:rgb(148,46,52);"/>
                </g>
                <g transform="matrix(0.894913,0,0,0.894913,323.249,1112.42)">
                    <path d="M902.379,10694C902.379,10694 887.24,10685.8 883.125,10666.8L882.096,10644.5L901.938,10641.2L902.379,10694" style="fill:rgb(244,199,174);"/>
                </g>
                <g transform="matrix(0.932488,0,0,1,83.6973,0)">
                    <path d="M1200.08,10588.4L1270.56,10607.9L1272.03,10665.5C1270.56,10677.9 1257.51,10706 1251.93,10714C1246.34,10721.9 1217.83,10737.6 1207.83,10743.8C1199.58,10748.9 1195.93,10749.7 1194.92,10749.8L1194.92,10749.8C1194.92,10749.8 1194.87,10749.8 1194.76,10749.8C1194.65,10749.8 1194.6,10749.8 1194.6,10749.8L1194.6,10749.8C1193.58,10749.7 1189.94,10748.9 1181.69,10743.8C1171.69,10737.6 1143.18,10721.9 1137.59,10714C1132.01,10706 1118.96,10677.9 1117.49,10665.5L1118.96,10607.9L1189.44,10588.4L1189.35,10585.4L1194.76,10586.9L1200.17,10585.4L1200.08,10588.4Z" style="fill:rgb(255,214,191);"/>
                </g>
                <g transform="matrix(0.962089,0,0,0.962089,43.6752,403.291)">
                    <path d="M1165.65,10677.5C1165.65,10677.5 1190.4,10627.2 1192.93,10588.6C1195.46,10550 1196.14,10528.2 1196.14,10528.2L1200.28,10513.3L1223.47,10511.2L1264.18,10533.1C1264.18,10533.1 1279.8,10549.2 1284.85,10566.8C1289.9,10584.5 1303.68,10618.7 1304.14,10632.1C1304.6,10645.4 1329.45,10726 1285.67,10758.3C1285.67,10758.3 1274.96,10772.3 1260.85,10775.6C1260.85,10775.6 1266.96,10771.6 1269.14,10768C1269.14,10768 1253.34,10777.2 1239.52,10777.1C1239.52,10777.1 1245.77,10772.4 1247.46,10770.8C1247.46,10770.8 1241.16,10772.6 1236.17,10772.2C1236.17,10772.2 1266.65,10769.1 1266.42,10720.1C1266.42,10720.1 1262.71,10746.5 1239.31,10748.9C1239.31,10748.9 1263.62,10737 1267.44,10691.2C1271.27,10645.3 1265.56,10643.1 1265.56,10643.1C1265.56,10643.1 1264.4,10645.8 1264.78,10647.7C1264.78,10647.7 1261.96,10639.9 1258.95,10635C1258.95,10635 1256.31,10640.4 1253.02,10643.2C1253.02,10643.2 1255.68,10629.3 1245.9,10619.6C1245.9,10619.6 1236.87,10633.2 1230.17,10638.7C1230.17,10638.7 1234.61,10620.1 1226.56,10607C1226.56,10607 1206.39,10650.8 1175.7,10674.9C1175.7,10674.9 1184.22,10663.6 1189.49,10654.7C1189.49,10654.7 1172.52,10673.8 1165.65,10677.5Z" style="fill:rgb(37,62,106);"/>
                    <clipPath id="_clip1">
                        <path d="M1165.65,10677.5C1165.65,10677.5 1190.4,10627.2 1192.93,10588.6C1195.46,10550 1196.14,10528.2 1196.14,10528.2L1200.28,10513.3L1223.47,10511.2L1264.18,10533.1C1264.18,10533.1 1279.8,10549.2 1284.85,10566.8C1289.9,10584.5 1303.68,10618.7 1304.14,10632.1C1304.6,10645.4 1329.45,10726 1285.67,10758.3C1285.67,10758.3 1274.96,10772.3 1260.85,10775.6C1260.85,10775.6 1266.96,10771.6 1269.14,10768C1269.14,10768 1253.34,10777.2 1239.52,10777.1C1239.52,10777.1 1245.77,10772.4 1247.46,10770.8C1247.46,10770.8 1241.16,10772.6 1236.17,10772.2C1236.17,10772.2 1266.65,10769.1 1266.42,10720.1C1266.42,10720.1 1262.71,10746.5 1239.31,10748.9C1239.31,10748.9 1263.62,10737 1267.44,10691.2C1271.27,10645.3 1265.56,10643.1 1265.56,10643.1C1265.56,10643.1 1264.4,10645.8 1264.78,10647.7C1264.78,10647.7 1261.96,10639.9 1258.95,10635C1258.95,10635 1256.31,10640.4 1253.02,10643.2C1253.02,10643.2 1255.68,10629.3 1245.9,10619.6C1245.9,10619.6 1236.87,10633.2 1230.17,10638.7C1230.17,10638.7 1234.61,10620.1 1226.56,10607C1226.56,10607 1206.39,10650.8 1175.7,10674.9C1175.7,10674.9 1184.22,10663.6 1189.49,10654.7C1189.49,10654.7 1172.52,10673.8 1165.65,10677.5Z"/>
                    </clipPath>
                    <g clip-path="url(#_clip1)">
                        <path d="M1239.92,10560.6C1239.92,10560.6 1253.92,10618.7 1227.06,10640.1L1252.09,10643.2C1252.09,10643.2 1254.84,10586.1 1239.92,10560.6Z" style="fill:rgb(181,34,43);"/>
                        <path d="M1238.22,10519.8C1238.22,10519.8 1263.94,10544.8 1268.53,10564.1C1273.13,10583.4 1286.62,10635.3 1285.47,10680.4C1284.32,10725.5 1280.26,10764.3 1235.43,10778.6L1249.76,10782.5C1253.22,10782.9 1289.01,10754.5 1293.31,10734.9C1297.73,10714.8 1307.67,10689.3 1301.92,10639C1296.18,10588.8 1289.01,10522.2 1289.01,10522.2L1238.22,10519.8Z" style="fill:rgb(181,34,43);"/>
                        <path d="M1229.43,10744.9L1240.61,10757L1262.24,10741.8C1266.87,10724.3 1268.51,10708.1 1267.64,10688.3L1229.43,10744.9" style="fill:rgb(181,34,43);"/>
                    </g>
                </g>
                <g transform="matrix(0.962089,0,0,0.962089,48.6752,403.291)">
                    <path d="M1215.76,10668.6C1215.76,10668.6 1206.41,10650.7 1204.62,10643.6C1204.62,10643.6 1209.8,10653.2 1214.69,10654.9C1214.69,10654.9 1200.89,10638.4 1191.63,10603.1C1191.63,10603.1 1198.99,10549.7 1196.97,10530.4L1181.54,10509.8L1148.41,10519.1L1134.63,10529.4C1134.63,10529.4 1124.3,10539.8 1116.95,10553.5C1109.6,10567.3 1097.77,10605.7 1091.45,10644.5C1085.14,10683.2 1064.58,10733 1119.47,10779C1119.47,10779 1117.94,10775.9 1117.52,10774.5C1117.52,10774.5 1127.06,10782 1140.36,10782.6C1140.36,10782.6 1124.78,10767.4 1122.49,10755.5C1120.19,10743.5 1118.8,10737.3 1119.39,10720.2C1119.98,10703.2 1124.68,10648.5 1124.39,10634.4C1124.39,10634.4 1131.67,10619.4 1133.27,10611.7C1133.27,10611.7 1140.7,10632.2 1146.81,10636.7C1146.81,10636.7 1144.65,10623.5 1145.5,10617C1145.5,10617 1151.14,10636.1 1156.6,10641.3C1156.6,10641.3 1152.83,10631.3 1152.83,10625.4C1152.83,10625.4 1163.09,10639.3 1171.36,10644.4C1171.36,10644.4 1166.47,10628.4 1164.03,10622.4C1164.03,10622.4 1166.66,10614.2 1166.57,10609.3C1166.57,10609.3 1170.2,10638.2 1191.88,10649C1191.88,10649 1203.43,10665.4 1215.76,10668.6Z" style="fill:rgb(181,34,43);"/>
                    <clipPath id="_clip2">
                        <path d="M1215.76,10668.6C1215.76,10668.6 1206.41,10650.7 1204.62,10643.6C1204.62,10643.6 1209.8,10653.2 1214.69,10654.9C1214.69,10654.9 1200.89,10638.4 1191.63,10603.1C1191.63,10603.1 1198.99,10549.7 1196.97,10530.4L1181.54,10509.8L1148.41,10519.1L1134.63,10529.4C1134.63,10529.4 1124.3,10539.8 1116.95,10553.5C1109.6,10567.3 1097.77,10605.7 1091.45,10644.5C1085.14,10683.2 1064.58,10733 1119.47,10779C1119.47,10779 1117.94,10775.9 1117.52,10774.5C1117.52,10774.5 1127.06,10782 1140.36,10782.6C1140.36,10782.6 1124.78,10767.4 1122.49,10755.5C1120.19,10743.5 1118.8,10737.3 1119.39,10720.2C1119.98,10703.2 1124.68,10648.5 1124.39,10634.4C1124.39,10634.4 1131.67,10619.4 1133.27,10611.7C1133.27,10611.7 1140.7,10632.2 1146.81,10636.7C1146.81,10636.7 1144.65,10623.5 1145.5,10617C1145.5,10617 1151.14,10636.1 1156.6,10641.3C1156.6,10641.3 1152.83,10631.3 1152.83,10625.4C1152.83,10625.4 1163.09,10639.3 1171.36,10644.4C1171.36,10644.4 1166.47,10628.4 1164.03,10622.4C1164.03,10622.4 1166.66,10614.2 1166.57,10609.3C1166.57,10609.3 1170.2,10638.2 1191.88,10649C1191.88,10649 1203.43,10665.4 1215.76,10668.6Z"/>
                    </clipPath>
                    <g clip-path="url(#_clip2)">
                        <path d="M1158.51,10540.5C1158.51,10540.5 1145.58,10561.9 1152.78,10593.2C1159.98,10624.6 1156.02,10623.5 1176.3,10650.4L1152.05,10649.4L1145.43,10618.1C1145.43,10618.1 1136.32,10563.8 1158.51,10540.5Z" style="fill:rgb(37,62,106);"/>
                        <path d="M1169.06,10519.2C1169.06,10519.2 1146.47,10534.2 1138.89,10551.4C1131.31,10568.7 1124.65,10590.9 1123.73,10640.8C1122.81,10690.6 1149.58,10746.7 1149.58,10746.7L1152.09,10791.7L1133.43,10791.7L1137.52,10782.5C1137.52,10782.5 1121.42,10779.1 1110.74,10751.6C1100.07,10724.2 1105.65,10696 1106.11,10672.1C1106.57,10648.2 1104.28,10556.7 1155.95,10517.5L1169.06,10519.2Z" style="fill:rgb(37,62,106);"/>
                        <path d="M1099.61,10595.5C1099.61,10595.5 1093.43,10652.4 1092.35,10671.5C1091.28,10690.5 1078.98,10740.1 1122.89,10779.5L1091.65,10791.7L1043.02,10664L1072.17,10595.5L1099.61,10595.5Z" style="fill:rgb(37,62,106);"/>
                    </g>
                </g>
                <g transform="matrix(0.887714,0,0,0.882799,136.617,1241.42)">
                    <path d="M1197.02,10504.9C1208.94,10504.6 1214.01,10499.4 1214.01,10499.4C1220.67,10506.7 1253.51,10515.2 1267.29,10527.4C1281.07,10539.6 1283.01,10555.2 1283.01,10555.2C1268.54,10523.1 1232.1,10522.7 1232.1,10522.7C1232.54,10519.7 1231.81,10517.9 1231.81,10517.9C1230.34,10519.4 1228.72,10521.7 1228.72,10521.7C1217.55,10518.5 1200.06,10527 1197.71,10529.2C1197.32,10529.6 1196.22,10527.9 1195.41,10527.7C1194.59,10527.9 1193.49,10529.6 1193.1,10529.2C1190.75,10527 1173.26,10518.5 1162.09,10521.7C1162.09,10521.7 1160.48,10519.4 1159.01,10517.9C1159.01,10517.9 1158.27,10519.7 1158.71,10522.7C1158.71,10522.7 1124.45,10523 1109.98,10555.2C1109.98,10555.2 1109.75,10539.6 1123.53,10527.4C1137.31,10515.2 1170.15,10506.7 1176.81,10499.4C1176.81,10499.4 1181.87,10504.6 1193.8,10504.9L1197.02,10504.9Z" style="fill:rgb(151,152,156);"/>
                </g>
                <g transform="matrix(0.876866,0,0,0.876866,350.919,1317.13)">
                    <path d="M1030.03,10620.7C1030.03,10620.7 998.803,10618.9 976.205,10624.8C976.205,10624.8 994.187,10613 1030.03,10620.7Z" style="fill:rgb(29,29,29);"/>
                </g>
                <g transform="matrix(-0.876866,0,0,0.876866,2033.99,1317.13)">
                    <path d="M1030.03,10620.7C1030.03,10620.7 998.803,10618.9 976.205,10624.8C976.205,10624.8 994.187,10613 1030.03,10620.7Z" style="fill:rgb(29,29,29);"/>
                </g>
            </g>
        </g>
    </g>
</svg>
