<?xml version="1.0" encoding="UTF-8" standalone="no"?>
<!DOCTYPE svg PUBLIC "-//W3C//DTD SVG 1.1//EN" "http://www.w3.org/Graphics/SVG/1.1/DTD/svg11.dtd">
<svg width="100%" height="100%" viewBox="0 0 194 240" version="1.1" xmlns="http://www.w3.org/2000/svg" xmlns:xlink="http://www.w3.org/1999/xlink" xml:space="preserve" xmlns:serif="http://www.serif.com/" style="fill-rule:evenodd;clip-rule:evenodd;stroke-linecap:round;stroke-linejoin:round;stroke-miterlimit:1.5;">
    <g transform="matrix(1,0,0,1,-6322.75,-13439.8)">
        <g transform="matrix(0.452578,0,0,0.452578,4414.37,8363.12)">
            <path d="M4283.5,11492.6C4280.07,11487.6 4276.92,11481.4 4275.67,11474.6C4272.36,11456.6 4278.98,11435.4 4281.82,11424.5C4284.65,11413.6 4288.91,11392.8 4286.07,11357.8C4283.23,11322.8 4318.9,11249.1 4363.17,11235.8C4407.15,11222.5 4430,11227.2 4430,11227.2L4430.07,11227.2C4431.45,11227 4454.22,11222.9 4496.83,11235.8C4541.11,11249.1 4576.77,11322.8 4573.93,11357.8C4571.09,11392.8 4575.35,11413.6 4578.18,11424.5C4581.02,11435.4 4587.64,11456.6 4584.33,11474.6C4583.08,11481.4 4579.93,11487.6 4576.5,11492.6C4581.21,11503.2 4583.14,11508.7 4597.07,11529.1C4624.86,11569.7 4618.99,11607.1 4622.12,11628.4C4625.25,11649.7 4631.51,11671.9 4631.51,11671.9C4635.82,11692.7 4633.47,11698.9 4633.47,11698.9C4624.08,11672.4 4595.89,11653 4595.89,11653C4599.02,11672.8 4611.55,11686.9 4611.55,11686.9C4585.96,11677.2 4576.28,11651.3 4572.64,11634.6L4572.63,11634.6C4577.27,11676 4576.36,11736.2 4576.36,11736.2C4575.15,11711.1 4562.07,11685.8 4556.07,11675.4C4555.4,11676.8 4554.73,11678.1 4554.08,11679.3C4556.91,11701.8 4561.48,11717.9 4561.48,11717.9C4556.53,11709.2 4552.52,11698.4 4549.26,11686.8C4549.12,11687 4548.99,11687.1 4548.86,11687.3C4538.93,11698.1 4530.41,11724.1 4530.41,11724.1C4530.41,11724.1 4533.72,11699.5 4540.82,11670.7C4541.98,11666 4542.46,11660.9 4542.44,11655.7C4540.79,11646 4539.51,11636.4 4538.53,11627.3C4534.71,11611.8 4529.47,11599.9 4529.47,11599.9C4527.63,11604.7 4526.3,11609.6 4525.34,11614.1L4525.71,11621.9C4525.32,11656.9 4514.36,11697.1 4514.36,11697.1C4514.75,11679.2 4506.53,11675.4 4506.53,11675.4C4506.14,11685.3 4497.72,11691.1 4497.72,11691.1L4497.72,11691.1C4497.89,11693.7 4497.97,11696.3 4497.92,11699C4497.53,11722.5 4497.72,11691.6 4497.72,11691.1C4496.39,11671.1 4489.31,11655.5 4489.31,11655.5C4489.31,11667.8 4484.22,11685.3 4484.22,11685.3C4480.31,11654.1 4464.65,11642.7 4464.65,11642.7C4461.91,11661.2 4476,11701.4 4476,11701.4C4454.47,11685.3 4450.56,11673 4450.56,11673C4450.17,11692.9 4443.12,11721.7 4443.12,11721.7C4446.6,11703.8 4433.03,11670.5 4427.65,11658.3C4427.1,11658.1 4426.45,11657.9 4425.71,11657.6C4426.84,11673.4 4433.73,11691.1 4433.73,11691.1C4416.89,11673.8 4406.72,11649.8 4406.72,11649.8C4405.54,11662.1 4395.36,11691.1 4395.36,11691.1C4400.84,11669.1 4383.23,11630 4383.23,11630C4384.4,11639 4383.24,11642.7 4383.24,11642.7C4365.25,11622.9 4330.12,11647 4330.12,11647L4334.39,11612.9C4333.46,11608.7 4332.21,11604.3 4330.53,11599.9C4330.53,11599.9 4325.29,11611.8 4321.47,11627.3C4320.49,11636.4 4319.21,11646 4317.56,11655.7C4317.54,11660.9 4318.02,11666 4319.18,11670.7C4326.28,11699.5 4329.59,11724.1 4329.59,11724.1C4329.59,11724.1 4321.07,11698.1 4311.14,11687.3C4311.01,11687.1 4310.88,11687 4310.74,11686.8C4307.48,11698.4 4303.47,11709.2 4298.52,11717.9C4298.52,11717.9 4303.09,11701.8 4305.92,11679.3C4305.27,11678.1 4304.6,11676.8 4303.93,11675.4C4297.93,11685.8 4284.85,11711.1 4283.64,11736.2C4283.64,11736.2 4282.73,11676 4287.37,11634.6L4287.36,11634.6C4283.72,11651.3 4274.04,11677.2 4248.45,11686.9C4248.45,11686.9 4260.98,11672.8 4264.11,11653C4264.11,11653 4235.92,11672.4 4226.53,11698.9C4226.53,11698.9 4224.18,11692.7 4228.49,11671.9C4228.49,11671.9 4234.75,11649.7 4237.88,11628.4C4241.01,11607.1 4235.14,11569.7 4262.93,11529.1C4276.86,11508.7 4278.79,11503.2 4283.5,11492.6Z" style="stroke:black;stroke-width:18.41px;"/>
            <g>
                <g transform="matrix(0.700189,0,0,0.84603,1328.16,1782.83)">
                    <path d="M4436.35,11531.5L4436.35,11184L4533.13,11203.8C4533.13,11203.8 4588.09,11277.9 4597.5,11321.9C4604.47,11354.5 4615.97,11410.5 4627.68,11457C4646.55,11487.1 4640.63,11486.1 4668.6,11520C4708.29,11568 4699.91,11612.2 4704.38,11637.4C4708.85,11662.5 4717.8,11688.8 4717.8,11688.8C4723.95,11713.4 4720.59,11720.6 4720.59,11720.6C4707.18,11689.3 4666.93,11666.4 4666.93,11666.4C4671.4,11689.9 4689.29,11706.5 4689.29,11706.5C4633.38,11689 4630.64,11626.7 4630.64,11626.7C4640.7,11673.7 4639.02,11764.8 4639.02,11764.8C4636.79,11726.2 4605.82,11687.1 4605.82,11687.1C4609.5,11719 4617.78,11743.2 4617.78,11743.2C4582,11690.9 4580.32,11577.5 4580.32,11577.5L4580.59,11575.5C4575.49,11575.8 4569.85,11575.1 4563.56,11573.4L4563.46,11573.4L4566.7,11629.7C4566.14,11671.1 4550.48,11718.6 4550.48,11718.6C4551.04,11697.4 4539.3,11692.9 4539.3,11692.9C4538.74,11704.7 4526.72,11711.5 4526.72,11711.5L4526.72,11711.5C4526.96,11714.6 4527.07,11717.7 4527.01,11720.9C4526.45,11748.6 4526.71,11712.1 4526.72,11711.5C4524.81,11687.9 4514.71,11669.4 4514.71,11669.4C4514.71,11684 4507.44,11704.7 4507.44,11704.7C4501.85,11667.8 4479.49,11654.3 4479.49,11654.3C4475.57,11676.1 4495.7,11723.7 4495.7,11723.7C4464.95,11704.7 4459.36,11690.1 4459.36,11690.1C4458.8,11713.6 4448.74,11747.7 4448.74,11747.7C4454.89,11721.4 4423.65,11667.2 4423.65,11667.2C4423.72,11686.8 4435.32,11711.5 4435.32,11711.5C4411.28,11691 4396.75,11662.7 4396.75,11662.7C4395.07,11677.3 4380.53,11711.5 4380.53,11711.5C4388.36,11685.4 4363.2,11639.2 4363.2,11639.2C4364.88,11649.9 4363.23,11654.3 4363.23,11654.3C4337.53,11630.9 4287.35,11659.4 4287.35,11659.4L4300.49,11572.5C4297.89,11573.1 4296.44,11573.4 4296.44,11573.4C4290.15,11575.1 4284.51,11575.8 4279.41,11575.5L4279.68,11577.5C4279.68,11577.5 4278,11690.9 4242.22,11743.2C4242.22,11743.2 4250.5,11719 4254.19,11687.1C4254.19,11687.1 4223.21,11726.2 4220.98,11764.8C4220.98,11764.8 4219.3,11673.7 4229.36,11626.7C4229.36,11626.7 4226.62,11689 4170.71,11706.5C4170.71,11706.5 4188.6,11689.9 4193.07,11666.4C4193.07,11666.4 4152.82,11689.3 4139.41,11720.6C4139.41,11720.6 4136.05,11713.4 4142.2,11688.8C4142.2,11688.8 4151.15,11662.5 4155.62,11637.4C4160.09,11612.2 4151.71,11568 4191.4,11520C4219.37,11486.1 4213.45,11487.1 4232.32,11457C4244.03,11410.5 4255.53,11354.5 4262.5,11321.9C4271.91,11277.9 4326.87,11203.8 4326.87,11203.8L4423.65,11184L4423.65,11531.4L4436.35,11531.5Z" style="fill:rgb(228,208,188);"/>
                </g>
                <path d="M4429.95,11658.8C4428.94,11658.7 4412.44,11655.3 4388.07,11633C4362.91,11609.9 4278.35,11547.7 4288.14,11410.8L4293.73,11331.1L4430,11235.4L4566.27,11331.1L4571.86,11410.8C4581.65,11547.7 4497.09,11609.9 4471.93,11633C4446.78,11656.1 4430,11658.9 4430,11658.9L4429.95,11658.8Z" style="fill:rgb(216,205,204);"/>
                <g transform="matrix(0.84603,0,0,0.84603,682.087,1784.78)">
                    <path d="M4428.62,11347.7C4422.41,11346.8 4396.91,11342.9 4386.65,11341.6C4374.91,11340.2 4352.01,11335.3 4352.01,11335.3C4352.01,11335.3 4353.16,11356.2 4352.87,11365.1C4352.58,11374 4351.73,11397.7 4346.86,11408C4341.99,11418.3 4323.74,11420.1 4314.09,11445.5C4314.09,11445.5 4317.66,11461.6 4330.54,11480.2C4343.42,11498.8 4351.65,11538.5 4349.15,11552.5C4346.64,11566.4 4332.56,11626.2 4320.26,11643C4320.26,11643 4320.26,11622 4312.43,11601.3C4312.43,11601.3 4290.63,11651 4299.01,11685.1C4307.4,11719.2 4311.31,11748.2 4311.31,11748.2C4311.31,11748.2 4301.25,11717.5 4289.51,11704.6C4277.77,11691.8 4255.41,11626.9 4252.05,11613.5C4248.7,11600.1 4254.29,11577.7 4261,11549.8C4267.71,11521.8 4271.06,11490.5 4271.06,11490.5C4271.06,11490.5 4251.49,11474.5 4247.58,11453.3C4243.67,11432.1 4251.49,11406.9 4254.85,11394C4258.2,11381.2 4263.23,11356.6 4259.88,11315.2C4256.52,11273.8 4298.68,11186.7 4351.01,11171C4403,11155.3 4430,11160.9 4430,11160.9L4430.08,11160.9C4431.71,11160.6 4458.63,11155.8 4508.99,11171C4561.32,11186.7 4603.48,11273.8 4600.12,11315.2C4596.77,11356.6 4601.8,11381.2 4605.15,11394C4608.51,11406.9 4616.33,11432.1 4612.42,11453.3C4608.51,11474.5 4588.94,11490.5 4588.94,11490.5C4588.94,11490.5 4592.29,11521.8 4599,11549.8C4605.71,11577.7 4611.3,11600.1 4607.95,11613.5C4604.59,11626.9 4582.23,11691.8 4570.49,11704.6C4558.75,11717.5 4548.69,11748.2 4548.69,11748.2C4548.69,11748.2 4552.6,11719.2 4560.99,11685.1C4569.37,11651 4547.57,11601.3 4547.57,11601.3C4539.74,11622 4539.74,11643 4539.74,11643C4527.44,11626.2 4513.36,11566.4 4510.85,11552.5C4508.35,11538.5 4516.58,11498.8 4529.46,11480.2C4542.34,11461.6 4545.91,11445.5 4545.91,11445.5C4536.26,11420.1 4518.01,11418.3 4513.14,11408C4508.28,11397.7 4507.42,11374 4507.13,11365.1C4506.84,11356.2 4507.99,11335.3 4507.99,11335.3C4507.99,11335.3 4485.09,11340.2 4473.36,11341.6C4461.62,11343.1 4430,11347.9 4430,11347.9L4428.62,11347.7Z" style="fill:rgb(233,216,198);"/>
                </g>
                <g transform="matrix(1,0,0,1,5.90408,49.1354)">
                    <path d="M4423.52,11333.2C4423.52,11333.2 4424.1,11310.1 4418.09,11302.6C4412.07,11295.2 4402.06,11286.9 4388.89,11294.3C4375.72,11301.8 4361.41,11327.5 4363.41,11341.5C4365.42,11355.6 4359.69,11379.6 4377.44,11391.9C4395.19,11404.2 4404.06,11393.9 4404.63,11383C4405.2,11372.2 4401.48,11366.4 4401.48,11366.4C4401.48,11366.4 4406.06,11391.9 4392.61,11392.2C4379.16,11392.5 4374.58,11387.6 4373.15,11358.4C4371.72,11329.2 4383.45,11303.2 4401.48,11297.8C4419.52,11292.3 4420.09,11329.8 4424.1,11336.1" style="fill:rgb(228,208,188);"/>
                </g>
            </g>
        </g>
    </g>
</svg>
