<?xml version="1.0" encoding="UTF-8" standalone="no"?>
<!DOCTYPE svg PUBLIC "-//W3C//DTD SVG 1.1//EN" "http://www.w3.org/Graphics/SVG/1.1/DTD/svg11.dtd">
<svg width="100%" height="100%" viewBox="0 0 206 200" version="1.1" xmlns="http://www.w3.org/2000/svg" xmlns:xlink="http://www.w3.org/1999/xlink" xml:space="preserve" xmlns:serif="http://www.serif.com/" style="fill-rule:evenodd;clip-rule:evenodd;stroke-linecap:round;stroke-linejoin:round;stroke-miterlimit:1.5;">
    <g transform="matrix(1,0,0,1,-2501.77,-13563.4)">
        <g transform="matrix(0.97283,0,0,0.97283,-1935.58,2163.16)">
            <path d="M4603.2,11789C4601.82,11780.3 4601.2,11767.7 4606.95,11756.6C4615.47,11740.1 4632.91,11723.6 4665.8,11722.9L4665.8,11722.9C4666.22,11722.9 4666.65,11722.9 4667.07,11722.9C4667.5,11722.9 4667.92,11722.9 4668.35,11722.9L4668.35,11722.9C4701.23,11723.6 4718.68,11740.1 4727.2,11756.6C4732.95,11767.7 4732.33,11780.3 4730.94,11789C4732.89,11822.1 4737.2,11850 4742.31,11862C4747.69,11874.6 4756.05,11891.8 4768.59,11902.5C4768.59,11902.5 4759.33,11902.2 4751.86,11899.3C4751.86,11899.3 4749.18,11902.5 4740.52,11911.1C4740.52,11911.1 4741.42,11908.8 4741.71,11902.7C4741.71,11902.7 4735.15,11909.9 4737.53,11915.1C4737.53,11915.1 4726.74,11903.6 4729.93,11894.8C4730.22,11894.2 4730.37,11893.8 4730.37,11893.8C4730.2,11894.2 4730.06,11894.5 4729.93,11894.8C4728.22,11898.8 4721.77,11913.2 4716.64,11919.4C4716.64,11919.4 4721.41,11897.3 4709.77,11880.1C4709.77,11880.1 4712.16,11890.1 4709.17,11898.1C4709.17,11898.1 4708.87,11893.8 4705.29,11888.1C4705.29,11888.1 4703.8,11904.2 4706.78,11911.1C4706.78,11911.1 4694.24,11897.9 4695.14,11888.1C4695.14,11888.1 4687.97,11897.9 4681.4,11901L4680.58,11900.7C4673.84,11904.4 4667.07,11904.1 4667.07,11904.1L4667.04,11904.1C4666.5,11904.1 4660.02,11904.3 4653.56,11900.7L4652.74,11901C4646.17,11897.9 4639.01,11888.1 4639.01,11888.1C4639.9,11897.9 4627.36,11911.1 4627.36,11911.1C4630.35,11904.2 4628.86,11888.1 4628.86,11888.1C4625.27,11893.8 4624.98,11898.1 4624.98,11898.1C4621.99,11890.1 4624.38,11880.1 4624.38,11880.1C4612.73,11897.3 4617.51,11919.4 4617.51,11919.4C4612.38,11913.2 4605.93,11898.8 4604.21,11894.8C4604.09,11894.5 4603.94,11894.2 4603.78,11893.8C4603.78,11893.8 4603.93,11894.2 4604.21,11894.8C4607.4,11903.6 4596.61,11915.1 4596.61,11915.1C4599,11909.9 4592.43,11902.7 4592.43,11902.7C4592.73,11908.8 4593.63,11911.1 4593.63,11911.1C4584.97,11902.5 4582.28,11899.3 4582.28,11899.3C4574.82,11902.2 4565.56,11902.5 4565.56,11902.5C4578.1,11891.8 4586.46,11874.6 4591.84,11862C4596.95,11850 4601.26,11822.1 4603.2,11789Z" style="stroke:black;stroke-width:8.57px;"/>
            <g>
                <g transform="matrix(1.04004,0,0,1,-179.631,1.32973)">
                    <path d="M4658.38,11895.4L4646.32,11899.7C4640.01,11896.5 4633.12,11886.8 4633.12,11886.8C4633.98,11896.5 4621.92,11909.7 4621.92,11909.7C4624.79,11902.8 4623.36,11886.8 4623.36,11886.8C4619.91,11892.5 4619.62,11896.8 4619.62,11896.8C4616.75,11888.8 4619.05,11878.7 4619.05,11878.7C4607.86,11896 4612.45,11918.1 4612.45,11918.1C4607.51,11911.9 4601.31,11897.5 4599.66,11893.5C4599.54,11893.2 4599.4,11892.8 4599.24,11892.5C4599.24,11892.5 4599.39,11892.9 4599.66,11893.5C4602.73,11902.3 4592.35,11913.8 4592.35,11913.8C4594.65,11908.6 4588.33,11901.4 4588.33,11901.4C4588.62,11907.4 4589.48,11909.7 4589.48,11909.7C4581.16,11901.1 4578.57,11898 4578.57,11898C4571.4,11900.8 4562.5,11901.1 4562.5,11901.1C4574.56,11890.5 4582.59,11873.3 4587.76,11860.6C4592.93,11848 4597.23,11817.9 4598.96,11782.6C4600.68,11747.3 4640.87,11725 4640.87,11725L4660.1,11742L4679.34,11725C4679.34,11725 4719.52,11747.3 4721.25,11782.6C4722.97,11817.9 4727.28,11848 4732.44,11860.6C4737.61,11873.3 4745.65,11890.5 4757.7,11901.1C4757.7,11901.1 4748.81,11900.8 4741.63,11898C4741.63,11898 4739.05,11901.1 4730.72,11909.7C4730.72,11909.7 4731.58,11907.4 4731.87,11901.4C4731.87,11901.4 4725.55,11908.6 4727.85,11913.8C4727.85,11913.8 4717.47,11902.3 4720.54,11893.5C4720.81,11892.9 4720.96,11892.5 4720.96,11892.5C4720.8,11892.8 4720.66,11893.2 4720.54,11893.5C4718.89,11897.5 4712.69,11911.9 4707.76,11918.1C4707.76,11918.1 4712.35,11896 4701.15,11878.7C4701.15,11878.7 4703.45,11888.8 4700.58,11896.8C4700.58,11896.8 4700.29,11892.5 4696.85,11886.8C4696.85,11886.8 4695.41,11902.8 4698.28,11909.7C4698.28,11909.7 4686.22,11896.5 4687.09,11886.8C4687.09,11886.8 4680.2,11896.5 4673.88,11899.7L4661.82,11895.4L4660.1,11858.6L4658.38,11895.4Z" style="fill:rgb(220,186,107);"/>
                </g>
                <g transform="matrix(1.16835,0,0,1,-778.321,0.717675)">
                    <path d="M4660.72,11903.4C4660.09,11903.4 4649.88,11903.6 4643.3,11894.4C4636.5,11884.8 4617.94,11867.4 4616.66,11845C4615.37,11822.6 4615.37,11795.2 4615.37,11795.2L4617.58,11769.5L4661.85,11762.2L4661.85,11761.7L4663.18,11762L4664.67,11761.7L4664.66,11762.3L4703.93,11769.5L4706.13,11795.2C4706.13,11795.2 4706.13,11822.6 4704.85,11845C4703.56,11867.4 4685,11884.8 4678.21,11894.4C4671.41,11903.9 4660.75,11903.4 4660.75,11903.4L4660.72,11903.4Z" style="fill:rgb(238,174,128);"/>
                </g>
                <g transform="matrix(1.16044,0,0,1.07177,-742.931,-842.429)">
                    <path d="M4662.01,11723.9C4662.38,11723.9 4662.74,11723.9 4663.11,11723.9L4663.11,11723.9C4691.45,11724.5 4706.48,11739.9 4713.82,11755.3C4721.36,11771.1 4716.21,11790 4715.33,11794.4C4714.45,11798.8 4714.45,11799 4711.21,11806.6C4707.98,11814.3 4711.8,11819 4711.36,11826C4710.92,11833.1 4706.95,11849.2 4706.95,11849.2C4708.13,11843.4 4705.63,11821.6 4705.63,11811.9C4705.63,11802.2 4703.45,11797.8 4702.98,11791C4702.51,11784.1 4701.34,11784 4700.98,11779.1C4700.63,11774.1 4695.93,11776.8 4694.63,11774.5C4693.34,11772.1 4687.93,11769.9 4681.82,11776.3C4675.7,11782.6 4675.7,11777.5 4675.7,11777.5C4666.41,11786.4 4667.47,11781 4667.47,11781C4665.31,11783.4 4662.86,11784 4662.12,11784.1L4662.12,11784.1C4662.12,11784.1 4662.08,11784.1 4662.01,11784.1C4661.94,11784.1 4661.9,11784.1 4661.9,11784.1L4661.9,11784.1C4661.16,11784 4658.72,11783.4 4656.55,11781C4656.55,11781 4657.61,11786.4 4648.32,11777.5C4648.32,11777.5 4648.32,11782.6 4642.21,11776.3C4636.09,11769.9 4630.68,11772.1 4629.39,11774.5C4628.1,11776.8 4623.39,11774.1 4623.04,11779.1C4622.69,11784 4621.51,11784.1 4621.04,11791C4620.57,11797.8 4618.39,11802.2 4618.39,11811.9C4618.39,11821.6 4615.9,11843.4 4617.07,11849.2C4617.07,11849.2 4613.1,11833.1 4612.66,11826C4612.22,11819 4616.04,11814.3 4612.81,11806.6C4609.57,11799 4609.57,11798.8 4608.69,11794.4C4607.81,11790 4602.67,11771.1 4610.2,11755.3C4617.54,11739.9 4632.57,11724.5 4660.91,11723.9L4660.91,11723.9C4661.28,11723.9 4661.65,11723.9 4662.01,11723.9Z" style="fill:rgb(217,181,97);"/>
                </g>
                <g transform="matrix(1.08273,0,0,1,-377.732,2.27374e-13)">
                    <path d="M4638.36,11778.6C4638.36,11778.6 4625.69,11782.2 4625.59,11793.4C4625.59,11793.4 4623.71,11774.9 4638.95,11776.1L4638.36,11778.6Z" style="fill:rgb(199,165,86);"/>
                </g>
                <g transform="matrix(1.08273,0,0,1,-377.732,0)">
                    <path d="M4651.01,11778.4C4651.01,11778.4 4644.8,11776.9 4640.85,11781.6C4636.9,11786.2 4631.16,11794.9 4631.25,11808.7C4631.25,11808.7 4627.77,11790.9 4634.08,11780.8C4640.38,11770.6 4649.6,11774.7 4651.01,11778.4Z" style="fill:rgb(205,172,96);"/>
                </g>
                <g transform="matrix(1.08273,0,0,1,-3.85452,-27.4527)">
                    <path d="M4357.16,11838.5C4357.16,11838.5 4349.03,11834.8 4345.2,11836.8C4341.38,11838.7 4324.82,11845.5 4319.83,11850C4319.83,11850 4333.15,11847.8 4339.32,11844.3C4345.5,11840.8 4353.04,11838.2 4357.16,11838.5Z" style="fill:rgb(217,181,97);"/>
                </g>
                <g transform="matrix(-1.08273,0,0,1,9338,-27.4527)">
                    <path d="M4357.16,11838.5C4357.16,11838.5 4349.03,11834.8 4345.2,11836.8C4341.38,11838.7 4324.82,11845.5 4319.83,11850C4319.83,11850 4333.15,11847.8 4339.32,11844.3C4345.5,11840.8 4353.04,11838.2 4357.16,11838.5Z" style="fill:rgb(217,181,97);"/>
                </g>
            </g>
        </g>
    </g>
</svg>
