<?xml version="1.0" encoding="UTF-8" standalone="no"?>
<!DOCTYPE svg PUBLIC "-//W3C//DTD SVG 1.1//EN" "http://www.w3.org/Graphics/SVG/1.1/DTD/svg11.dtd">
<svg width="100%" height="100%" viewBox="0 0 231 248" version="1.1" xmlns="http://www.w3.org/2000/svg" xmlns:xlink="http://www.w3.org/1999/xlink" xml:space="preserve" xmlns:serif="http://www.serif.com/" style="fill-rule:evenodd;clip-rule:evenodd;stroke-linecap:round;stroke-linejoin:round;stroke-miterlimit:1.5;">
    <g transform="matrix(1,0,0,1,-9316.02,-13398.1)">
        <g transform="matrix(0.861789,0,0,0.861789,1356.87,2338.95)">
            <path d="M9347.28,12887.5C9344.91,12884.4 9342.32,12879.9 9340.96,12873.8C9338.07,12860.8 9338.9,12848.4 9346.76,12840.9C9354.61,12833.5 9377.99,12839.5 9375.92,12851.5C9375.92,12851.5 9396.39,12845.1 9402.39,12856.8C9402.39,12856.8 9413.77,12854.4 9415.01,12871.5C9416.25,12888.7 9415.22,12888.9 9419.35,12899.9C9421.31,12905 9422.34,12909 9422.88,12911.7C9437.69,12923.9 9446.91,12941 9446.91,12960C9446.91,12961.3 9446.87,12962.6 9446.79,12963.8C9456.3,12989 9451.14,13010.9 9451.14,13010.9C9461.48,13020.7 9476.37,13023.6 9476.37,13023.6C9470.55,13027.6 9456.53,13026.5 9456.53,13026.5C9469.64,13043.1 9494.08,13052.8 9496.73,13065.5C9499.38,13078.3 9497.18,13078.7 9491.67,13089.8C9486.16,13100.9 9483.36,13103.1 9483.36,13103.1C9481.38,13095.5 9480.42,13082.8 9474.89,13073.7C9469.35,13064.7 9463.94,13065.8 9463.94,13065.8C9463.91,13070.4 9460.54,13074.1 9458.81,13091.2C9457.07,13108.4 9470.74,13115.5 9470.74,13115.5C9450.81,13115.8 9443.59,13102.2 9434.01,13083.5C9430.75,13077.1 9430.24,13069.9 9430.19,13062.5C9411.71,13097.8 9369.15,13107.8 9369.15,13107.8L9368.97,13107.7C9365.92,13107 9325.88,13096.4 9308.11,13062.5C9308.07,13069.9 9307.55,13077.1 9304.29,13083.5C9294.71,13102.2 9287.49,13115.8 9267.57,13115.5C9267.57,13115.5 9281.23,13108.4 9279.5,13091.2C9277.76,13074.1 9274.39,13070.4 9274.36,13065.8C9274.36,13065.8 9268.95,13064.7 9263.42,13073.7C9257.88,13082.8 9256.92,13095.5 9254.94,13103.1C9254.94,13103.1 9252.14,13100.9 9246.63,13089.8C9241.13,13078.7 9238.92,13078.3 9241.57,13065.5C9244.22,13052.8 9268.66,13043.1 9281.77,13026.5C9281.77,13026.5 9267.75,13027.6 9261.93,13023.6C9261.93,13023.6 9276.82,13020.7 9287.17,13010.9C9287.17,13010.9 9282,12989 9291.51,12963.8C9291.43,12962.6 9291.39,12961.3 9291.39,12960C9291.39,12930.2 9314.1,12904.9 9345.43,12896.3C9345.42,12896.2 9345.42,12896.1 9345.42,12896L9345.42,12890.2C9345.42,12889 9346.19,12887.9 9347.28,12887.5Z" style="stroke:black;stroke-width:9.67px;"/>
            <g>
                <g transform="matrix(1,0,0,1,372.462,79.7071)">
                    <path d="M8979.88,12812.9C8979.88,12812.9 8971.4,12807.1 8968.5,12794.1C8965.61,12781.1 8966.43,12768.7 8974.29,12761.2C8982.15,12753.8 9005.52,12759.8 9003.45,12771.8C9003.45,12771.8 9023.93,12765.3 9029.93,12777.1C9029.93,12777.1 9041.31,12774.7 9042.55,12791.8C9043.79,12809 9042.75,12809.2 9046.89,12820.2C9051.03,12831.1 9051.03,12836.5 9051.03,12836.5L9015.45,12830.7L8979.88,12812.9Z" style="fill:rgb(173,67,65);"/>
                </g>
                <g transform="matrix(1,0,0,1,-4.6894,-0.252462)">
                    <path d="M9397.57,12890.5C9397.57,12888.9 9396.27,12887.6 9394.67,12887.6L9353.01,12887.6C9351.41,12887.6 9350.11,12888.9 9350.11,12890.5L9350.11,12896.3C9350.11,12897.9 9351.41,12899.2 9353.01,12899.2L9394.67,12899.2C9396.27,12899.2 9397.57,12897.9 9397.57,12896.3L9397.57,12890.5Z" style="fill:rgb(37,38,36);"/>
                </g>
                <g transform="matrix(1.18462,0,0,1.523,-1724.48,-6716.12)">
                    <ellipse cx="9364.75" cy="12919.4" rx="65.644" ry="43.931" style="fill:rgb(179,73,71);"/>
                </g>
                <g transform="matrix(1,0,0,1,-465.353,201.706)">
                    <path d="M9834.32,12906C9830.55,12905.1 9770.04,12889.1 9765.35,12832.4L9779.89,12749.3L9834.51,12756.1L9889.12,12749.3L9903.66,12832.4C9898.82,12890.9 9834.51,12906.1 9834.51,12906.1L9834.32,12906Z" style="fill:rgb(255,231,217);"/>
                </g>
                <g transform="matrix(1,0,0,1,-420.955,117.362)">
                    <path d="M9790.11,12788.7C9815.83,12789 9837.9,12797.6 9858.87,12829.2C9879.84,12860.7 9872.09,12893.5 9872.09,12893.5C9882.44,12903.4 9897.33,12906.2 9897.33,12906.2C9891.51,12910.2 9877.49,12909.2 9877.49,12909.2C9890.6,12925.7 9915.04,12935.4 9917.69,12948.2C9920.34,12961 9918.13,12961.3 9912.62,12972.4C9907.12,12983.5 9904.32,12985.8 9904.32,12985.8C9902.34,12978.1 9901.38,12965.4 9895.84,12956.4C9890.3,12947.3 9884.9,12948.4 9884.9,12948.4C9884.87,12953 9881.5,12956.7 9879.76,12973.9C9878.03,12991 9891.69,12998.1 9891.69,12998.1C9871.77,12998.4 9864.55,12984.9 9854.97,12966.1C9845.39,12947.3 9859.51,12921.7 9839.67,12904C9819.83,12886.4 9813.23,12862.2 9813.23,12862.2C9813.72,12882.8 9794.18,12899.4 9794.18,12899.4C9798.24,12904.7 9804.63,12907.5 9804.63,12907.5C9798.98,12908.7 9786.11,12902.4 9786.11,12902.4C9786.11,12902.4 9773.24,12908.7 9767.59,12907.5C9767.59,12907.5 9773.98,12904.7 9778.03,12899.4C9778.03,12899.4 9761.2,12883.1 9766.98,12862.2C9766.98,12862.2 9760.39,12886.4 9740.54,12904C9720.7,12921.7 9734.83,12947.3 9725.25,12966.1C9715.67,12984.9 9708.45,12998.4 9688.52,12998.1C9688.52,12998.1 9702.19,12991 9700.45,12973.9C9698.72,12956.7 9695.35,12953 9695.32,12948.4C9695.32,12948.4 9689.91,12947.3 9684.37,12956.4C9678.83,12965.4 9677.88,12978.1 9675.9,12985.8C9675.9,12985.8 9673.09,12983.5 9667.59,12972.4C9662.08,12961.3 9659.88,12961 9662.53,12948.2C9665.18,12935.4 9689.61,12925.7 9702.73,12909.2C9702.73,12909.2 9688.71,12910.2 9682.89,12906.2C9682.89,12906.2 9697.77,12903.4 9708.12,12893.5C9708.12,12893.5 9700.37,12860.7 9721.34,12829.2C9742.31,12797.6 9764.39,12789 9790.11,12788.7Z" style="fill:rgb(193,79,77);"/>
                </g>
                <g transform="matrix(1,0,0,1,354.524,77.5827)">
                    <path d="M9002.53,12937.1C9002.53,12937.1 8975.44,12929 8959.72,12936C8959.72,12936 8989.92,12920.3 9002.53,12937.1Z" style="fill:rgb(179,73,71);"/>
                </g>
                <g transform="matrix(-1,0,0,1,18383.8,77.5827)">
                    <path d="M9002.53,12937.1C9002.53,12937.1 8975.44,12929 8959.72,12936C8959.72,12936 8989.92,12920.3 9002.53,12937.1Z" style="fill:rgb(179,73,71);"/>
                </g>
            </g>
        </g>
    </g>
</svg>
