<?xml version="1.0" encoding="UTF-8" standalone="no"?>
<!DOCTYPE svg PUBLIC "-//W3C//DTD SVG 1.1//EN" "http://www.w3.org/Graphics/SVG/1.1/DTD/svg11.dtd">
<svg width="100%" height="100%" viewBox="0 0 184 244" version="1.1" xmlns="http://www.w3.org/2000/svg" xmlns:xlink="http://www.w3.org/1999/xlink" xml:space="preserve" xmlns:serif="http://www.serif.com/" style="fill-rule:evenodd;clip-rule:evenodd;stroke-linecap:round;stroke-linejoin:round;stroke-miterlimit:1.5;">
    <g transform="matrix(1,0,0,1,-4319.463207,-13360.778215)">
        <g transform="matrix(1.500816,0,0,1.500816,-2661.565745,-4900.998116)">
            <g transform="matrix(0.990595,0,0,1,-95.815854,8.387629)">
                <path d="M4886.791,12310.551C4887.165,12311.056 4887.379,12311.334 4887.379,12311.334C4887.15,12311.105 4886.955,12310.842 4886.791,12310.551ZM4821.383,12295.87C4819.755,12298.789 4814.137,12308.4 4809.056,12311.576C4809.056,12311.576 4810.812,12305.806 4812.066,12299.535C4812.066,12299.535 4804.703,12305.505 4799.085,12308.315C4799.085,12308.315 4802.295,12300.89 4801.693,12294.067C4801.091,12287.244 4789.954,12218.713 4798.232,12195.886C4806.51,12173.059 4821.215,12164.712 4846.096,12162.74C4846.096,12162.74 4861.413,12160.565 4876.083,12165.779C4877.764,12164.91 4879.703,12164.081 4881.941,12163.323C4899.394,12157.413 4902.599,12178.495 4902.866,12185.198C4903.133,12191.902 4907.051,12197.459 4909.456,12200.281C4911.86,12203.104 4913.28,12209.782 4913.28,12209.782C4912.564,12206.493 4907.408,12199.576 4904.291,12195.871C4901.174,12192.167 4900.818,12186.786 4899.037,12177.26C4897.257,12167.733 4888.352,12164.029 4886.393,12168.439C4886.171,12168.939 4885.757,12169.535 4885.199,12170.198C4893.452,12175.502 4900.234,12184.239 4902.035,12198.511C4907.453,12241.455 4898.839,12281.061 4905.503,12301.05C4905.503,12301.05 4896.911,12294.277 4895.657,12287.253C4895.657,12287.253 4893.65,12298.541 4889.637,12305.063C4889.637,12305.063 4889.887,12299.545 4889.135,12294.779C4889.135,12294.779 4884.268,12306.06 4886.791,12310.551C4884.415,12307.346 4875.567,12295.021 4873.833,12287.002C4873.833,12287.002 4868.064,12301.551 4858.281,12313.341C4858.281,12313.341 4859.482,12304.032 4857.876,12297.209C4857.876,12297.209 4854.213,12312.212 4855.995,12318.145C4854.154,12313.694 4847.694,12297.509 4849.247,12293.195C4849.247,12293.195 4842.224,12308.246 4829.982,12315.069C4829.982,12315.069 4833.394,12308.447 4835.2,12300.821C4835.2,12300.821 4823.009,12304.834 4822.006,12312.861C4822.006,12312.861 4818.18,12302.477 4821.383,12295.87C4821.684,12295.331 4821.849,12295.02 4821.849,12295.02C4821.679,12295.295 4821.525,12295.579 4821.383,12295.87ZM4855.995,12318.145C4856.294,12318.87 4856.472,12319.283 4856.472,12319.283C4856.282,12318.957 4856.124,12318.575 4855.995,12318.145Z" style="fill-opacity:1;stroke:black;stroke-width:5.58px;"/>
            </g>
            <g>
                <g transform="matrix(0.990595,0,0,1,-95.815854,8.387629)">
                    <path d="M4846.096,12162.74C4846.096,12162.74 4896.616,12155.566 4902.035,12198.511C4907.453,12241.455 4898.839,12281.061 4905.503,12301.05C4905.503,12301.05 4896.911,12294.277 4895.657,12287.253C4895.657,12287.253 4893.65,12298.541 4889.637,12305.063C4889.637,12305.063 4889.887,12299.545 4889.135,12294.779C4889.135,12294.779 4883.616,12307.572 4887.379,12311.334C4887.379,12311.334 4875.84,12296.284 4873.833,12287.002C4873.833,12287.002 4868.064,12301.551 4858.281,12313.341C4858.281,12313.341 4859.482,12304.032 4857.876,12297.209C4857.876,12297.209 4853.662,12314.467 4856.472,12319.283C4856.472,12319.283 4847.441,12298.212 4849.247,12293.195C4849.247,12293.195 4842.224,12308.246 4829.982,12315.069C4829.982,12315.069 4833.394,12308.447 4835.2,12300.821C4835.2,12300.821 4823.009,12304.834 4822.006,12312.861C4822.006,12312.861 4817.835,12301.542 4821.849,12295.02C4821.849,12295.02 4815.076,12307.813 4809.056,12311.576C4809.056,12311.576 4810.812,12305.806 4812.066,12299.535C4812.066,12299.535 4804.703,12305.505 4799.085,12308.315C4799.085,12308.315 4802.295,12300.89 4801.693,12294.067C4801.091,12287.244 4789.954,12218.713 4798.232,12195.886C4806.51,12173.059 4821.215,12164.712 4846.096,12162.74Z" style="fill:rgb(3,108,151);fill-opacity:1;"/>
                </g>
                <g transform="matrix(0.858488,0,0,0.858488,546.121983,1722.272719)">
                    <path d="M4921.598,12226.033C4921.598,12226.033 4919.959,12218.254 4917.185,12214.966C4914.411,12211.678 4909.89,12205.205 4909.581,12197.396C4909.273,12189.587 4905.574,12165.031 4885.436,12171.915C4865.298,12178.799 4866.12,12190.718 4866.12,12190.718L4868.894,12196.78C4868.894,12196.78 4888.313,12183.012 4890.573,12177.874C4892.834,12172.737 4903.108,12177.052 4905.163,12188.149C4907.218,12199.246 4907.629,12205.513 4911.225,12209.828C4914.821,12214.144 4920.771,12222.201 4921.598,12226.033Z" style="fill:rgb(9,103,142);fill-opacity:1;"/>
                </g>
                <g transform="matrix(1,0,0,1,-133.748633,1.567789)">
                    <path d="M4842.601,12289.144C4834.742,12289.144 4832.468,12285.084 4824.024,12280.365C4815.495,12275.599 4799.709,12261.585 4799.458,12239.26C4799.215,12217.671 4800.28,12166.243 4842.601,12183.118C4889.187,12168.752 4885.987,12217.671 4885.744,12239.26C4885.493,12261.585 4869.707,12275.599 4861.178,12280.365C4852.734,12285.084 4850.46,12289.144 4842.601,12289.144Z" style="fill:rgb(207,156,122);fill-opacity:1;"/>
                </g>
                <g transform="matrix(1,0,0,1,-128.919677,1.969877)">
                    <path d="M4837.827,12222.603L4861.736,12222.446C4861.736,12222.446 4881.161,12221.162 4877.629,12229.991C4874.098,12238.821 4876.024,12245.564 4861.094,12245.724C4846.163,12245.885 4845.04,12244.28 4843.274,12238.018C4841.816,12232.849 4838.825,12231.948 4837.827,12231.791C4836.829,12231.948 4833.838,12232.849 4832.38,12238.018C4830.614,12244.28 4829.49,12245.885 4814.56,12245.724C4799.63,12245.564 4801.556,12238.821 4798.024,12229.991C4794.492,12221.162 4813.918,12222.446 4813.918,12222.446L4837.827,12222.603Z" style="fill:rgb(61,65,66);fill-opacity:1;"/>
                </g>
                <g transform="matrix(-0.964159,0.265326,0.265326,0.964159,6002.729046,-805.494034)">
                    <path d="M4745.57,12206.233C4745.57,12206.233 4748.58,12237.431 4746.072,12249.801C4746.072,12249.801 4751.406,12231.318 4752,12221.786L4745.57,12206.233Z" style="fill:rgb(3,108,151);fill-opacity:1;"/>
                </g>
                <g transform="matrix(0.964159,0.265326,-0.265326,0.964159,3415.085424,-805.494034)">
                    <path d="M4745.57,12206.233C4745.57,12206.233 4748.58,12237.431 4746.072,12249.801C4746.072,12249.801 4751.406,12231.318 4752,12221.786L4745.57,12206.233Z" style="fill:rgb(3,108,151);fill-opacity:1;"/>
                </g>
                <g transform="matrix(0.999086,0.042755,-0.042755,0.999086,402.091463,-216.467044)">
                    <path d="M4813.614,12202.84C4813.614,12202.84 4805.908,12206.853 4805.105,12212.633C4804.302,12218.412 4807.834,12228.205 4808.316,12232.7C4808.797,12237.195 4810.242,12247.631 4809.44,12252.447C4808.637,12257.263 4816.343,12279.578 4817.627,12282.307C4817.627,12282.307 4807.353,12263.043 4806.389,12256.781C4805.426,12250.52 4807.031,12238.64 4803.179,12228.366C4799.326,12218.091 4803.179,12200.913 4814.256,12197.542C4814.256,12197.542 4817.461,12201.522 4817.367,12202.301C4817.26,12203.184 4813.614,12202.84 4813.614,12202.84Z" style="fill:rgb(8,103,142);"/>
                </g>
            </g>
        </g>
    </g>
</svg>
