<?xml version="1.0" encoding="UTF-8" standalone="no"?>
<!DOCTYPE svg PUBLIC "-//W3C//DTD SVG 1.1//EN" "http://www.w3.org/Graphics/SVG/1.1/DTD/svg11.dtd">
<svg width="100%" height="100%" viewBox="0 0 241 194" version="1.1" xmlns="http://www.w3.org/2000/svg" xmlns:xlink="http://www.w3.org/1999/xlink" xml:space="preserve" xmlns:serif="http://www.serif.com/" style="fill-rule:evenodd;clip-rule:evenodd;stroke-linecap:round;stroke-linejoin:round;stroke-miterlimit:1.5;">
    <g transform="matrix(1,0,0,1,-1865.76,-13356.8)">
        <g transform="matrix(1,0,0,1.13377,-1431.7,-265.464)">
            <path d="M3345.24,12122.2C3300.65,12112 3301.63,12065.2 3301.63,12065.2C3301.63,12065.2 3326.74,12075.1 3341.3,12054.4C3355.86,12033.7 3361.26,12022.8 3386.18,12019.1C3399,12017.2 3408.05,12022.1 3413.82,12027.3C3417.16,12028.6 3419.87,12030.7 3421.49,12033.4C3425.68,12033.1 3430.11,12033.1 3434.79,12033.4C3487.42,12036.7 3503.86,12080.3 3503.86,12080.3C3516.42,12087.8 3534.07,12107.8 3534.07,12107.8L3530.01,12111.8C3530.14,12117.1 3529.49,12139.3 3510.71,12157.4C3511.94,12159.6 3512.73,12160.8 3512.73,12160.8C3508.59,12165.3 3501.14,12167.8 3494.52,12169.1C3481.46,12176.1 3463.62,12181.2 3439.26,12182.2L3435.17,12182.2C3410.81,12181.2 3392.97,12176.1 3379.91,12169.1C3373.28,12167.8 3365.84,12165.3 3361.7,12160.8C3361.7,12160.8 3362.49,12159.6 3363.72,12157.4C3351.34,12145.5 3346.84,12131.7 3345.24,12122.2Z" style="stroke:black;stroke-width:7.8px;"/>
            <g>
                <g transform="matrix(0.853239,-0.52152,0.52152,0.853239,-5602.76,3450.53)">
                    <path d="M3221.85,12033.2C3221.85,12033.2 3224.24,12008.8 3201.03,11999C3177.83,11989.1 3167.54,11995.6 3144.34,12005.7C3121.13,12015.7 3104.86,11994.2 3104.86,11994.2C3104.86,11994.2 3075.68,12039.8 3120.65,12072.6C3120.65,12072.6 3164.43,12036.2 3221.85,12033.2Z" style="fill:rgb(224,131,89);"/>
                </g>
                <g transform="matrix(0.826024,0,0,1.03081,595.985,-368.506)">
                    <path d="M3443.23,12063.5L3518.28,12074.4C3518.28,12074.4 3527.63,12109.2 3551.92,12106.2C3551.92,12106.2 3558.83,12171.6 3442.12,12175.6L3437.17,12175.6C3320.46,12171.6 3327.37,12106.2 3327.37,12106.2C3351.67,12109.2 3361.01,12074.4 3361.01,12074.4L3436.06,12063.5L3436.05,12062.5L3439.65,12063L3443.24,12062.5L3443.23,12063.5Z" style="fill:rgb(224,125,80);"/>
                </g>
                <g transform="matrix(0.473315,0,0,0.473315,2077.51,6220.13)">
                    <path d="M2749.54,12385.1L2995.93,12385.1C3013.5,12425.1 3010.51,12506 2973.88,12541.5C2937.24,12577 2880.8,12577.8 2880.8,12577.8L2864.67,12577.8C2864.67,12577.8 2808.22,12577 2771.59,12541.5C2734.96,12506 2731.97,12425.1 2749.54,12385.1Z" style="fill:rgb(241,219,182);"/>
                </g>
                <g transform="matrix(0.998257,0,0,1,230.644,-4.30602)">
                    <path d="M3148.31,12144.2C3148.31,12144.2 3137.56,12133.1 3148.31,12120.8C3148.31,12120.8 3159.68,12119.7 3161.67,12120.1C3163.66,12120.4 3160.9,12150.5 3160.9,12150.5L3148.31,12144.2Z" style="fill:rgb(241,219,182);"/>
                </g>
                <g transform="matrix(-0.998257,0,0,1,6643.79,-4.30602)">
                    <path d="M3148.31,12144.2C3148.31,12144.2 3137.56,12133.1 3148.31,12120.8C3148.31,12120.8 3159.68,12119.7 3161.67,12120.1C3163.66,12120.4 3160.9,12150.5 3160.9,12150.5L3148.31,12144.2Z" style="fill:rgb(241,219,182);"/>
                </g>
                <g transform="matrix(1,0,0,1,1.58367,0.635981)">
                    <path d="M3395.52,12126.7C3395.52,12126.7 3396.48,12157.8 3391.7,12170C3391.7,12170 3368.73,12169.5 3360.12,12160.2C3360.12,12160.2 3374.71,12137 3376.14,12116.9L3395.52,12126.7Z" style="fill:rgb(223,120,74);"/>
                </g>
                <g transform="matrix(-1,0,0,1,6872.85,0.635981)">
                    <path d="M3395.52,12126.7C3395.52,12126.7 3396.48,12157.8 3391.7,12170C3391.7,12170 3368.73,12169.5 3360.12,12160.2C3360.12,12160.2 3374.71,12137 3376.14,12116.9L3395.52,12126.7Z" style="fill:rgb(223,120,74);"/>
                </g>
                <g transform="matrix(0.948371,-0.317164,0.317164,0.948371,-3650.53,1704)">
                    <ellipse cx="3408.65" cy="12041.6" rx="22.392" ry="16.148" style="fill:rgb(93,116,215);"/>
                </g>
                <g transform="matrix(1,0,0,1,0.699875,1.86895)">
                    <path d="M3438.27,12088.6C3438.27,12088.6 3439.47,12114.6 3439.47,12130.2C3439.47,12130.2 3452.03,12138.6 3470.27,12131.4C3470.27,12131.4 3482.23,12141.2 3487.01,12132.6C3487.01,12132.6 3506.15,12133.2 3511.53,12126.9C3511.53,12126.9 3507.95,12112.8 3502.86,12105.4C3502.86,12105.4 3513.03,12117.9 3516.02,12123L3533.37,12106C3533.37,12106 3515.72,12085.9 3503.16,12078.4C3503.16,12078.4 3486.72,12034.8 3434.09,12031.5C3381.46,12028.2 3359.9,12064.4 3366.81,12095.2C3366.81,12095.2 3356.34,12117.6 3363.52,12120.6C3370.69,12123.6 3382.65,12130.5 3388.93,12125.4C3388.93,12125.4 3398.5,12134.4 3411.66,12129.6C3411.66,12129.6 3424.22,12137.7 3431.69,12132.3C3431.69,12132.3 3437.08,12097 3438.27,12088.6Z" style="fill:rgb(232,126,78);"/>
                </g>
                <g transform="matrix(1,0,0,1,212.761,34.657)">
                    <path d="M3206.48,12102.8C3206.48,12102.8 3195,12093.2 3186.73,12102.5C3186.73,12102.5 3194.54,12088.3 3206.48,12102.8Z" style="fill:rgb(87,49,31);"/>
                </g>
                <g transform="matrix(-1,0,0,1,6660.93,34.657)">
                    <path d="M3206.48,12102.8C3206.48,12102.8 3195,12093.2 3186.73,12102.5C3186.73,12102.5 3194.54,12088.3 3206.48,12102.8Z" style="fill:rgb(87,49,31);"/>
                </g>
            </g>
        </g>
    </g>
</svg>
