<?xml version="1.0" encoding="UTF-8" standalone="no"?>
<!DOCTYPE svg PUBLIC "-//W3C//DTD SVG 1.1//EN" "http://www.w3.org/Graphics/SVG/1.1/DTD/svg11.dtd">
<svg width="100%" height="100%" viewBox="0 0 232 273" version="1.1" xmlns="http://www.w3.org/2000/svg" xmlns:xlink="http://www.w3.org/1999/xlink" xml:space="preserve" xmlns:serif="http://www.serif.com/" style="fill-rule:evenodd;clip-rule:evenodd;stroke-linecap:round;stroke-linejoin:round;stroke-miterlimit:1.5;">
    <g transform="matrix(1,0,0,1,-8512.32,-13387.9)">
        <g transform="matrix(0.298112,0,0,0.298112,6126.9,9895.12)">
            <path d="M8279.9,11943.9C8290.95,11895.7 8320.35,11800.2 8389.63,11730.2L8390.2,11730.8C8459.09,11800.7 8488.35,11895.8 8499.37,11943.9C8521.59,11925.8 8548.74,11914.6 8580.52,11916.7C8593.98,11917.6 8606.22,11919.5 8617.36,11922.4C8650.94,11914.5 8674.12,11914.9 8674.12,11914.9C8674.34,11924.8 8672.73,11935.9 8669.86,11947.7C8705.44,11975.7 8720.16,12018.2 8726.99,12057.2C8729.57,12072 8731.09,12088.2 8731.75,12104.9C8738.99,12108.7 8742.78,12111.3 8742.78,12111.3L8732.08,12116.5C8732.94,12167.3 8726.56,12220.2 8718.8,12246.6C8707.87,12283.7 8691.08,12364 8682.1,12398C8673.12,12431.9 8660.24,12498.3 8662.59,12522.9C8664.93,12547.5 8668.05,12576.4 8697.72,12587.3C8727.38,12598.2 8738.7,12558.4 8734.41,12535.4C8730.11,12512.4 8705.91,12501.4 8705.91,12501.4C8769.6,12455.3 8810.38,12677.1 8662.52,12601.4C8579.7,12558.9 8545.75,12503.8 8525.65,12449C8524.81,12448.5 8523.96,12448 8523.11,12447.4L8521.39,12448.5C8521.39,12448.5 8487.05,12473.6 8449.15,12479.3C8411.24,12485 8413.81,12490.7 8389.63,12491.5L8389.07,12491.4C8365.5,12490.7 8367.74,12485 8330.12,12479.3C8302.41,12475.1 8276.6,12460.6 8264.73,12453.1C8260.11,12457.3 8254.64,12460.8 8248.42,12462.3C8227.68,12512.7 8192.84,12562.4 8116.74,12601.4C7968.89,12677.1 8009.67,12455.3 8073.35,12501.4C8073.35,12501.4 8049.15,12512.4 8044.86,12535.4C8040.57,12558.4 8051.89,12598.2 8081.55,12587.3C8111.22,12576.4 8114.34,12547.5 8116.68,12522.9C8119.02,12498.3 8106.14,12431.9 8097.16,12398C8092.26,12379.4 8085.03,12347.1 8077.7,12315.5C8068.48,12302 8058.58,12290.9 8041.2,12284C8041.2,12284 8053.39,12283 8069.11,12279.3C8066.52,12268.8 8064.04,12259.1 8061.77,12251C8036.55,12234.2 8013.76,12196.4 8028.69,12111.9C8028.69,12111.9 8035.35,12117.2 8047.12,12122.7C8047.13,12120.7 8047.16,12118.6 8047.19,12116.5L8036.49,12111.3C8036.49,12111.3 8040.28,12108.7 8047.52,12104.9C8048.18,12088.2 8049.7,12072 8052.28,12057.2C8059.11,12018.2 8073.83,11975.7 8109.4,11947.7C8106.54,11935.9 8104.92,11924.8 8105.15,11914.9C8105.15,11914.9 8128.32,11914.5 8161.91,11922.4C8173.05,11919.5 8185.29,11917.6 8198.75,11916.7C8230.52,11914.6 8257.68,11925.8 8279.9,11943.9Z" style="stroke:black;stroke-width:27.95px;"/>
            <g>
                <g transform="matrix(0.698545,0,0,0.698545,2526.61,3563.68)">
                    <path d="M7940.42,12794.8C7940.42,12794.8 7905.77,12810.4 7899.63,12843.4C7893.48,12876.4 7909.69,12933.4 7952.15,12917.7C7994.62,12902.1 7999.09,12860.7 8002.45,12825.5C8005.8,12790.3 7987.36,12695.3 7974.51,12646.7C7961.65,12598.1 7937.62,12483.1 7921.98,12429.9C7906.33,12376.8 7894.6,12248.3 7910.24,12158.9C7925.89,12069.5 7970.45,11967.5 8119.93,11957.7C8269.41,11948 8347.47,12143.9 8337.64,12214.8C8327.82,12285.8 8286.35,12450.6 8244.87,12567.4C8203.4,12684.1 8200.75,12836.3 8002.53,12937.9C7790.87,13046.3 7849.25,12728.8 7940.42,12794.8Z" style="fill:rgb(36,43,43);"/>
                </g>
                <g transform="matrix(-0.698545,0,0,0.698545,14252.7,3563.68)">
                    <path d="M7940.42,12794.8C7940.42,12794.8 7905.77,12810.4 7899.63,12843.4C7893.48,12876.4 7909.69,12933.4 7952.15,12917.7C7994.62,12902.1 7999.09,12860.7 8002.45,12825.5C8005.8,12790.3 7987.36,12695.3 7974.51,12646.7C7961.65,12598.1 7937.62,12483.1 7921.98,12429.9C7906.33,12376.8 7894.6,12248.3 7910.24,12158.9C7925.89,12069.5 7970.45,11967.5 8119.93,11957.7C8269.41,11948 8347.47,12143.9 8337.64,12214.8C8327.82,12285.8 8286.35,12450.6 8244.87,12567.4C8203.4,12684.1 8200.75,12836.3 8002.53,12937.9C7790.87,13046.3 7849.25,12728.8 7940.42,12794.8Z" style="fill:rgb(36,43,43);"/>
                </g>
                <path d="M8389.07,12491.4C8365.5,12490.7 8367.74,12485 8330.12,12479.3C8292.21,12473.6 8257.88,12448.5 8257.88,12448.5L8206.38,12414.6L8180.63,12218.9L8598.63,12218.9L8572.88,12414.6L8521.39,12448.5C8521.39,12448.5 8487.05,12473.6 8449.15,12479.3C8411.24,12485 8413.81,12490.7 8389.63,12491.5L8389.07,12491.4Z" style="fill:rgb(244,228,199);"/>
                <path d="M8157.57,12170L8036.49,12111.3C8036.49,12111.3 8086.84,12076.1 8170.61,12082.5C8170.61,12082.5 8103.78,11974.9 8105.15,11914.9C8105.15,11914.9 8192.69,11913.3 8274.06,11974.3C8274.06,11974.3 8293.25,11827.5 8389.63,11730.2L8390.2,11730.8C8486.09,11828.1 8505.2,11974.3 8505.2,11974.3C8586.58,11913.3 8674.12,11914.9 8674.12,11914.9C8675.49,11974.9 8608.66,12082.5 8608.66,12082.5C8692.43,12076.1 8742.78,12111.3 8742.78,12111.3L8621.7,12170L8389.63,12134.5L8157.57,12170Z" style="fill:rgb(223,153,67);"/>
                <path d="M8281.71,12429.9C8281.71,12429.9 8268.3,12459.3 8245.95,12462.9C8223.59,12466.4 8170.84,12456.6 8188.73,12372.6C8188.73,12372.6 8135.98,12391.3 8108.26,12359.1C8080.54,12327 8075.18,12297.5 8041.2,12284C8041.2,12284 8081.44,12280.5 8110.05,12264.4C8110.05,12264.4 8000.08,12273.8 8028.69,12111.9C8028.69,12111.9 8083.23,12154.8 8155.65,12125.3C8155.65,12125.3 8203.03,12035 8290.65,11993.9C8378.27,11952.8 8532.05,11972.5 8557.98,12090.5C8557.98,12090.5 8685.83,12148.6 8619.67,12289.9C8619.67,12289.9 8626.82,12326.5 8654.54,12349.8C8654.54,12349.8 8622.35,12349.8 8594.63,12339C8594.63,12339 8581.22,12373.9 8590.16,12402.5C8599.1,12431.1 8560.66,12491.4 8502.54,12429.9C8502.54,12429.9 8558.87,12422.2 8551.72,12332.8C8551.72,12332.8 8482.87,12325.6 8464.99,12256.8C8464.99,12256.8 8461.42,12314.9 8443.53,12358.7C8443.53,12358.7 8437.28,12349.8 8414.03,12332.8C8414.03,12332.8 8414.03,12350.6 8404.2,12381C8404.2,12381 8383.63,12363.2 8357.7,12344.4C8331.78,12325.6 8304.95,12303.3 8282.6,12273.8C8282.6,12273.8 8253.99,12322 8225.38,12354.2C8225.38,12354.2 8197.67,12419.8 8281.71,12429.9Z" style="fill:rgb(39,47,47);"/>
            </g>
        </g>
    </g>
</svg>
