<?xml version="1.0" encoding="UTF-8" standalone="no"?>
<!DOCTYPE svg PUBLIC "-//W3C//DTD SVG 1.1//EN" "http://www.w3.org/Graphics/SVG/1.1/DTD/svg11.dtd">
<svg width="100%" height="100%" viewBox="0 0 205 195" version="1.1" xmlns="http://www.w3.org/2000/svg" xmlns:xlink="http://www.w3.org/1999/xlink" xml:space="preserve" xmlns:serif="http://www.serif.com/" style="fill-rule:evenodd;clip-rule:evenodd;stroke-linecap:round;stroke-linejoin:round;stroke-miterlimit:1.5;">
    <g transform="matrix(1,0,0,1,-4710.917804,-13765.906284)">
        <g transform="matrix(0.535517,0,0,0.535517,4416.627343,7649.148149)">
            <g transform="matrix(1,0,0,1,0.109143,0)">
                <path d="M601.739,11662.781C583.367,11672.411 567.366,11676.89 567.366,11676.89C583.743,11652.34 593.892,11603.961 593.892,11603.961C574.978,11614.07 557.216,11613.588 557.216,11613.588C573.594,11594.814 586.326,11566.509 586.326,11566.509C581.528,11568.049 576.731,11567.087 576.731,11567.087C583.558,11563.236 587.481,11558.614 587.481,11558.614C612.823,11488.687 627.874,11474.584 667.857,11443.44C707.84,11412.295 740.045,11444.808 740.045,11444.808C740.045,11444.808 772.25,11412.295 812.233,11443.44C852.216,11474.584 867.267,11488.687 892.609,11558.614C892.609,11558.614 896.532,11563.236 903.359,11567.087C903.359,11567.087 898.561,11568.049 893.764,11566.509C893.764,11566.509 906.496,11594.814 922.873,11613.588C922.873,11613.588 905.112,11614.07 886.198,11603.961C886.198,11603.961 896.347,11652.34 912.724,11676.89C912.724,11676.89 896.723,11672.411 878.351,11662.781C877.436,11669.891 873.352,11678.459 862.445,11687.47C853.904,11707.83 843.521,11725.363 843.521,11725.363C845.113,11718.634 846.331,11711.373 847.257,11703.96C822.658,11741.855 788.632,11756.386 781.612,11763.037C769.272,11774.727 740.045,11776.676 740.045,11776.676C740.045,11776.676 710.818,11774.727 698.477,11763.037C691.458,11756.386 657.432,11741.855 632.833,11703.96C633.758,11711.373 634.977,11718.634 636.569,11725.363C636.569,11725.363 626.186,11707.83 617.644,11687.47C606.738,11678.459 602.654,11669.891 601.739,11662.781Z" style="stroke:black;stroke-width:15.56px;"/>
            </g>
            <g>
                <g transform="matrix(1,0,0,1,0.109143,0)">
                    <path d="M606.714,11644.005C606.714,11644.005 585.304,11669.3 629.49,11695.725L606.714,11644.005Z" style="fill:rgb(217,173,118);"/>
                </g>
                <g transform="matrix(-1,0,0,1,1480.198911,0)">
                    <path d="M606.714,11644.005C606.714,11644.005 585.304,11669.3 629.49,11695.725L606.714,11644.005Z" style="fill:rgb(217,173,118);"/>
                </g>
                <g transform="matrix(1,0,0,1,176.986273,140.452383)">
                    <path d="M563.168,11636.223C563.168,11636.223 533.941,11634.275 521.6,11622.584C509.26,11610.893 413.46,11574.847 432.133,11430.335L557.972,11410.038L568.364,11410.038L694.203,11430.335C712.875,11574.847 617.075,11610.893 604.735,11622.584C592.395,11634.275 563.168,11636.223 563.168,11636.223Z" style="fill:rgb(217,173,118);"/>
                </g>
                <g transform="matrix(0.968892,0.247483,-0.247483,0.968892,2911.950511,209.366201)">
                    <path d="M615.876,11628.364C615.876,11628.364 626.744,11685 645.517,11720.852C645.517,11720.852 595.704,11670.971 595.704,11643.432L615.876,11628.364Z" style="fill:rgb(113,97,59);"/>
                </g>
                <g transform="matrix(-1,0,0,1,1480.308053,1.330161)">
                    <path d="M722.709,11655.105C722.709,11655.105 698.494,11622.631 644.354,11609.641L722.709,11655.105Z" style="fill:rgb(113,97,59);"/>
                </g>
                <g transform="matrix(1,0,0,1,0,1.330161)">
                    <path d="M722.709,11655.105C722.709,11655.105 698.494,11622.631 644.354,11609.641L722.709,11655.105Z" style="fill:rgb(113,97,59);"/>
                </g>
                <g transform="matrix(-0.968892,0.247483,0.247483,0.968892,-1431.642458,209.366201)">
                    <path d="M615.876,11628.364C615.876,11628.364 626.744,11685 645.517,11720.852C645.517,11720.852 595.704,11670.971 595.704,11643.432L615.876,11628.364Z" style="fill:rgb(113,97,59);"/>
                </g>
                <g transform="matrix(0.867052,0,0,0.904749,245.875232,1243.447849)">
                    <path d="M570.068,11275.347C570.068,11275.347 607.211,11239.412 653.325,11273.835C699.438,11308.258 716.798,11323.846 746.025,11401.135C746.025,11401.135 750.549,11406.243 758.424,11410.5C758.424,11410.5 752.89,11411.564 747.357,11409.861C747.357,11409.861 762.042,11441.147 780.93,11461.897C780.93,11461.897 760.446,11462.429 738.631,11451.256C738.631,11451.256 750.336,11504.728 769.225,11531.863C769.225,11531.863 732.778,11522.087 703.515,11500.472L570.068,11396.061L436.621,11500.472C407.358,11522.087 370.911,11531.863 370.911,11531.863C389.8,11504.728 401.505,11451.256 401.505,11451.256C379.69,11462.429 359.206,11461.897 359.206,11461.897C378.094,11441.147 392.779,11409.861 392.779,11409.861C387.246,11411.564 381.712,11410.5 381.712,11410.5C389.587,11406.243 394.111,11401.135 394.111,11401.135C423.338,11323.846 440.697,11308.258 486.811,11273.835C532.925,11239.412 570.068,11275.347 570.068,11275.347Z" style="fill:rgb(120,103,61);"/>
                </g>
                <g transform="matrix(0.810464,0,0,0.810464,271.19909,2318.543895)">
                    <path d="M578.106,11379.34L579.145,11379.34C579.145,11379.34 735.542,11373.105 731.905,11478.062C731.905,11478.062 701.769,11467.671 670.593,11466.631C639.417,11465.592 630.065,11472.867 578.625,11472.347C527.185,11472.867 517.833,11465.592 486.657,11466.631C455.482,11467.671 425.345,11478.062 425.345,11478.062C421.708,11373.105 578.106,11379.34 578.106,11379.34Z" style="fill:rgb(165,74,54);"/>
                </g>
                <g transform="matrix(0.858005,0,0,0.737291,249.565341,3148.430903)">
                    <path d="M571.778,11383.745C571.778,11383.745 557.978,11339.351 531.79,11317.32C505.603,11295.289 496.667,11326.465 494.692,11349.743C492.717,11373.02 469.316,11429.552 461.48,11444.101C461.48,11444.101 508.097,11410.125 534.7,11384.768L571.778,11383.745Z" style="fill:rgb(113,97,59);"/>
                </g>
                <g transform="matrix(-0.858005,0,0,0.737291,1230.742712,3148.430903)">
                    <path d="M571.778,11383.745C571.778,11383.745 557.978,11339.351 531.79,11317.32C505.603,11295.289 496.667,11326.465 494.692,11349.743C492.717,11373.02 469.316,11429.552 461.48,11444.101C461.48,11444.101 508.097,11410.125 534.7,11384.768L571.778,11383.745Z" style="fill:rgb(113,97,59);"/>
                </g>
                <g transform="matrix(1,0,0,1.324795,0,-3790.948901)">
                    <path d="M835.266,11644.005C835.266,11644.005 848.256,11670.149 761.386,11687.198L740.154,11669.865L718.922,11687.198C632.052,11670.149 645.042,11644.005 645.042,11644.005L835.266,11644.005Z" style="fill:rgb(60,123,188);"/>
                </g>
            </g>
        </g>
    </g>
</svg>
