<?xml version="1.0" encoding="UTF-8" standalone="no"?>
<!DOCTYPE svg PUBLIC "-//W3C//DTD SVG 1.1//EN" "http://www.w3.org/Graphics/SVG/1.1/DTD/svg11.dtd">
<svg width="100%" height="100%" viewBox="0 0 202 201" version="1.1" xmlns="http://www.w3.org/2000/svg" xmlns:xlink="http://www.w3.org/1999/xlink" xml:space="preserve" xmlns:serif="http://www.serif.com/" style="fill-rule:evenodd;clip-rule:evenodd;stroke-linecap:round;stroke-linejoin:round;stroke-miterlimit:1.5;">
    <g transform="matrix(1,0,0,1,-4712.708757,-13361.484316)">
        <g transform="matrix(0.582207,0,0,0.582207,4172.413898,7187.461814)">
            <g transform="matrix(1,0,0,1,-1.159034,-0.354716)">
                <path d="M1061.156,10906.44C1053.882,10917.743 1044.981,10929.087 1044.981,10929.087C1044.74,10919.903 1038.075,10906.602 1033.853,10899.058C1026.479,10918.404 1019.288,10942.803 1019.288,10942.803C1006.725,10932.633 999.425,10896.065 999.425,10896.065C988.909,10927.613 936.328,10939.298 936.328,10939.298C965.539,10904.244 960.77,10790.834 960.77,10790.834C954.183,10604.811 1102.267,10612.354 1102.267,10612.354C1102.267,10612.354 1250.65,10596.346 1243.763,10790.834C1243.763,10790.834 1238.994,10904.244 1268.205,10939.298C1268.205,10939.298 1215.625,10927.613 1205.108,10896.065C1205.108,10896.065 1197.808,10932.633 1185.245,10942.803C1185.245,10942.803 1178.054,10918.404 1170.68,10899.058C1166.458,10906.602 1159.793,10919.903 1159.552,10929.087C1159.552,10929.087 1150.651,10917.743 1143.377,10906.44C1142.189,10907.372 1141.139,10908.25 1140.246,10909.086C1126.17,10922.263 1111.231,10924.652 1103.98,10924.958C1103.537,10924.979 1102.961,10924.997 1102.267,10924.996C1101.572,10924.997 1100.996,10924.979 1100.553,10924.958C1093.302,10924.652 1078.363,10922.263 1064.287,10909.086C1063.395,10908.25 1062.345,10907.372 1061.156,10906.44Z" style="stroke:black;stroke-width:14.31px;"/>
            </g>
            <g>
                <g transform="matrix(1,0,0,1,-1.159034,-0.354716)">
                    <path d="M1033.853,10899.058C1026.479,10918.404 1019.288,10942.803 1019.288,10942.803C1006.725,10932.633 999.425,10896.065 999.425,10896.065C988.909,10927.613 936.328,10939.298 936.328,10939.298C965.539,10904.244 960.77,10790.834 960.77,10790.834C954.183,10604.811 1102.267,10612.354 1102.267,10612.354C1102.267,10612.354 1250.65,10596.346 1243.763,10790.834C1243.763,10790.834 1238.994,10904.244 1268.205,10939.298C1268.205,10939.298 1215.625,10927.613 1205.108,10896.065C1205.108,10896.065 1197.808,10932.633 1185.245,10942.803C1185.245,10942.803 1178.054,10918.404 1170.68,10899.058C1166.458,10906.602 1159.793,10919.903 1159.552,10929.087C1159.552,10929.087 1141.462,10906.031 1135.786,10892.907L1152.172,10881.376L1102.267,10880.884L1052.361,10881.376L1068.747,10892.907C1063.071,10906.031 1044.981,10929.087 1044.981,10929.087C1044.74,10919.903 1038.075,10906.602 1033.853,10899.058Z" style="fill:rgb(78,44,41);"/>
                </g>
                <g transform="matrix(0.644945,-0.093306,0.093306,0.644945,-297.417714,3949.666197)">
                    <path d="M452.848,10695.965C452.848,10695.965 421.367,10651.639 412.056,10668.703C402.745,10685.767 403.16,10767.35 461.48,10764.689L452.848,10695.965Z" style="fill:rgb(224,183,125);"/>
                </g>
                <g transform="matrix(-0.644945,-0.093306,-0.093306,0.644945,2499.632767,3949.666197)">
                    <path d="M452.848,10695.965C452.848,10695.965 421.367,10651.639 412.056,10668.703C402.745,10685.767 403.16,10767.35 461.48,10764.689L452.848,10695.965Z" style="fill:rgb(224,183,125);"/>
                </g>
                <g transform="matrix(1,0,0,1,517.200101,36.896254)">
                    <path d="M582.194,10887.707C574.943,10887.401 560.004,10885.012 545.928,10871.835C529.376,10856.34 458.598,10826.046 453.155,10713.26C452.173,10692.92 583.907,10643.794 583.907,10643.794C583.907,10643.794 715.642,10692.92 714.66,10713.26C709.217,10826.046 638.439,10856.34 621.887,10871.835C607.811,10885.012 592.872,10887.401 585.62,10887.707C585.178,10887.728 584.602,10887.746 583.907,10887.745C583.213,10887.746 582.637,10887.728 582.194,10887.707Z" style="fill:rgb(231,188,126);"/>
                </g>
                <g transform="matrix(0.861443,0,0,0.861443,602.655233,866.115626)">
                    <path d="M578.106,11379.34L579.145,11379.34C579.145,11379.34 735.542,11373.105 731.905,11478.062C630.541,11443.508 528.344,11443.966 425.345,11478.062C421.708,11373.105 578.106,11379.34 578.106,11379.34Z" style="fill:rgb(223,223,223);"/>
                </g>
                <g transform="matrix(1.11274,-0.270883,0.270883,1.11274,-2866.80659,-1990.159624)">
                    <path d="M722.709,11655.105C722.709,11655.105 698.494,11622.631 644.354,11609.641L722.709,11655.105Z" style="fill:rgb(78,44,41);"/>
                </g>
                <g transform="matrix(-1.11274,-0.270883,-0.270883,1.11274,5069.021643,-1990.159624)">
                    <path d="M722.709,11655.105C722.709,11655.105 698.494,11622.631 644.354,11609.641L722.709,11655.105Z" style="fill:rgb(78,44,41);"/>
                </g>
                <g transform="matrix(1.145237,0,0,1.517205,253.455685,-6888.694226)">
                    <path d="M835.266,11644.005C835.266,11644.005 848.256,11670.149 761.386,11687.198L740.154,11669.865L718.922,11687.198C632.052,11670.149 645.042,11644.005 645.042,11644.005L835.266,11644.005Z" style="fill:rgb(60,123,188);"/>
                </g>
            </g>
        </g>
    </g>
</svg>
