<?xml version="1.0" encoding="UTF-8" standalone="no"?>
<!DOCTYPE svg PUBLIC "-//W3C//DTD SVG 1.1//EN" "http://www.w3.org/Graphics/SVG/1.1/DTD/svg11.dtd">
<svg width="100%" height="100%" viewBox="0 0 168 292" version="1.1" xmlns="http://www.w3.org/2000/svg" xmlns:xlink="http://www.w3.org/1999/xlink" xml:space="preserve" xmlns:serif="http://www.serif.com/" style="fill-rule:evenodd;clip-rule:evenodd;stroke-linecap:round;stroke-linejoin:round;stroke-miterlimit:1.5;">
    <g transform="matrix(1,0,0,1,-5532.18,-13159.9)">
        <g transform="matrix(0.911431,0,0,0.911431,3859.34,2743.01)">
            <path d="M1934.01,11433.7C1934.1,11433.7 1934.18,11433.7 1934.27,11433.7C1934.31,11433.7 1934.35,11433.7 1934.39,11433.7C1934.44,11433.7 1934.49,11433.7 1934.54,11433.7L1934.79,11433.7C1936.38,11433.8 1937.97,11433.8 1939.56,11433.9C1940.9,11434 1942.24,11434.1 1943.57,11434.2C1951.39,11434.9 1959.16,11436.5 1966.48,11439.4C1967.49,11439.8 1968.49,11440.2 1969.48,11440.7C1971.01,11441.4 1972.52,11442.1 1973.99,11442.9C1975.86,11444 1977.67,11445.1 1979.42,11446.3C1981.05,11447.5 1982.63,11448.7 1984.14,11450C1985,11450.7 1985.83,11451.5 1986.64,11452.3L1934.39,11433.7C2036.7,11438.3 2013.12,11557.6 2011.84,11575.3C2010.56,11593 2000.53,11609 2000.53,11609C1998.59,11612.3 1993.58,11623.4 1993.58,11623.4C1984.39,11641.4 1951.56,11638.1 1938.76,11634.8C1929.08,11632.3 1918.29,11636.1 1913.6,11638.2C1913.86,11639.2 1913.93,11640.4 1913.78,11641.7C1912.98,11648.8 1916.97,11652.9 1915.94,11656.9C1915.72,11657.7 1915.36,11658 1914.83,11657.8C1920.08,11669.4 1921.92,11685.1 1921.92,11685.1C1921.92,11685.1 1925.56,11692.3 1929.39,11701.5C1933.22,11710.7 1932.58,11721.7 1929.3,11727.2C1926.02,11732.7 1923.2,11729.7 1918.01,11737.8C1912.82,11745.8 1909.32,11744.2 1909.32,11744.2C1913.34,11743.2 1914.57,11737.6 1914.57,11737.6C1912.06,11740.2 1911.01,11743.9 1903.25,11744.4C1895.49,11744.9 1899.75,11738.5 1899.75,11738.5C1902.26,11745.2 1907.04,11742.6 1909.08,11736C1911.12,11729.4 1910.37,11727 1903.36,11725.6C1896.36,11724.3 1887.78,11712 1887.78,11712C1888.37,11720.2 1892.69,11725.3 1898.11,11730.3C1903.54,11735.2 1907.85,11729.4 1907.85,11729.4C1905.72,11737 1897.88,11734.4 1888.62,11728.2C1879.36,11721.9 1881.78,11702.1 1881.29,11687.6C1880.9,11676.4 1885.66,11666.8 1887.85,11663.1C1887.51,11663.1 1887.15,11662.9 1886.77,11662.7C1881.75,11660 1889.62,11653.6 1883.58,11649.4C1882.83,11648.9 1882.29,11648.3 1881.92,11647.7C1871.89,11647 1858.77,11642.1 1846.94,11625.2C1832.48,11604.6 1843.33,11596.9 1854.11,11515C1856.78,11494.7 1863.06,11479.5 1870.99,11468.1C1881.81,11448.5 1900.97,11433.5 1934,11433.7L1934.01,11433.7ZM1920.39,11696.5C1920.39,11696.5 1927.8,11700.9 1928.21,11707.1C1928.62,11713.3 1927.74,11719.4 1923.19,11723.7C1923.19,11723.7 1925,11705.2 1920.39,11696.5ZM1849.66,11570.8C1849.66,11570.8 1849.22,11589.2 1850.55,11598.1C1851.89,11606.9 1852.78,11625.4 1881.94,11637.8C1881.94,11637.8 1869.92,11641.1 1857.23,11632.1C1844.54,11623 1842.31,11607.4 1849.66,11570.8ZM1960.68,11631.3C1960.68,11631.3 1966.2,11630.3 1972.88,11628C1979.56,11625.7 1987.39,11622 1992.02,11616.7C1992.02,11616.7 1989.46,11636.2 1960.68,11631.3Z" style="stroke:black;stroke-width:9.14px;"/>
            <g>
                <g transform="matrix(0.93048,0,0,1,135.741,0.000107272)">
                    <path d="M1884.15,11661.4C1884.15,11661.4 1875.43,11673 1875.96,11687.6C1876.5,11702.1 1873.89,11721.9 1883.85,11728.2C1893.8,11734.4 1902.22,11737 1904.52,11729.4C1904.52,11729.4 1899.88,11735.2 1894.05,11730.3C1888.21,11725.3 1883.57,11720.2 1882.95,11712C1882.95,11712 1892.16,11724.3 1899.69,11725.6C1907.22,11727 1908.03,11729.4 1905.84,11736C1903.64,11742.6 1898.5,11745.2 1895.8,11738.5C1895.8,11738.5 1891.22,11744.9 1899.57,11744.4C1907.91,11743.9 1909.03,11740.2 1911.73,11737.6C1911.73,11737.6 1910.41,11743.2 1906.09,11744.2C1906.09,11744.2 1909.85,11745.8 1915.43,11737.8C1921.01,11729.7 1924.04,11732.7 1927.57,11727.2C1931.09,11721.7 1931.78,11710.7 1927.66,11701.5C1923.55,11692.3 1919.63,11685.1 1919.63,11685.1C1919.63,11685.1 1917.38,11667.2 1910.81,11655.5L1897.39,11648.9L1884.15,11661.4ZM1917.99,11696.5C1917.99,11696.5 1925.95,11700.9 1926.39,11707.1C1926.83,11713.3 1925.89,11719.4 1921,11723.7C1921,11723.7 1922.94,11705.2 1917.99,11696.5Z" style="fill:rgb(61,50,49);"/>
                </g>
                <g transform="matrix(0.93048,0,0,1,135.741,0.000107272)">
                    <path d="M1933.03,11433.7C1933.03,11433.7 1858.34,11433.2 1846.76,11515C1835.17,11596.9 1823.51,11604.6 1839.06,11625.2C1854.6,11645.8 1872.25,11648.5 1883.31,11647.6L1908.13,11639.3C1908.13,11639.3 1923.98,11631.5 1937.74,11634.8C1951.49,11638.1 1986.78,11641.4 1996.64,11623.4C1996.64,11623.4 2002.03,11612.3 2004.12,11609C2004.12,11609 2014.89,11593 2016.27,11575.3C2017.65,11557.6 2042.98,11438.3 1933.03,11433.7ZM1841.97,11570.8C1841.97,11570.8 1841.5,11589.2 1842.93,11598.1C1844.37,11606.9 1845.32,11625.4 1876.66,11637.8C1876.66,11637.8 1863.74,11641.1 1850.11,11632.1C1836.47,11623 1834.08,11607.4 1841.97,11570.8ZM1961.29,11631.3C1961.29,11631.3 1967.22,11630.3 1974.4,11628C1981.58,11625.7 1990,11622 1994.97,11616.7C1994.97,11616.7 1992.22,11636.2 1961.29,11631.3Z" style="fill:rgb(61,50,49);"/>
                </g>
                <g transform="matrix(1,0,0,1,0.298878,0.91862)">
                    <path d="M1875.74,11545.2L1866.27,11550.5C1866.27,11550.5 1857.35,11579.5 1893.02,11590.9L1875.74,11545.2Z" style="fill:rgb(241,218,194);"/>
                </g>
                <g transform="matrix(-1,0,0,1,3865.76,0.91862)">
                    <path d="M1874.4,11549.3C1870.15,11546.6 1867.65,11547.4 1866.27,11550.5C1866.27,11550.5 1857.35,11579.5 1893.02,11590.9L1874.4,11549.3Z" style="fill:rgb(241,218,194);"/>
                </g>
                <path d="M1877.15,11555.2C1877.15,11555.2 1872.25,11589 1880.68,11600C1880.68,11600 1875.59,11568.2 1883.42,11558.6L1877.15,11555.2Z" style="fill:rgb(69,54,53);"/>
                <path d="M1989.05,11559.8C1989.05,11559.8 2001.3,11587.9 1989.94,11605.1C1989.94,11605.1 2006.79,11589 1991.85,11558.3L1989.05,11559.8Z" style="fill:rgb(69,54,53);"/>
                <path d="M1944.72,11486.8L1965.47,11489.5L2001.83,11530.7C2001.83,11530.7 1984.73,11583.9 1979.83,11597.5C1974.93,11611.1 1951.9,11617.6 1944.8,11622.7C1938.57,11627.2 1931.8,11627.2 1925.57,11622.7C1918.46,11617.6 1895.44,11611.1 1890.54,11597.5C1885.64,11583.9 1868.54,11530.7 1868.54,11530.7L1904.9,11489.5L1925.65,11486.8L1925.48,11484.4L1935.18,11485.6L1944.88,11484.4L1944.72,11486.8Z" style="fill:rgb(253,230,206);"/>
                <g transform="matrix(1,0,0,1,266.931,31.1399)">
                    <path d="M1651.56,11508C1651.56,11508 1643.75,11496.4 1618.64,11510.8C1618.64,11510.8 1635.78,11501.1 1651.56,11508Z" style="fill:rgb(61,50,49);"/>
                </g>
                <g transform="matrix(-1,0,0,1,3603.44,31.1399)">
                    <path d="M1651.56,11508C1651.56,11508 1643.75,11496.4 1618.64,11510.8C1618.64,11510.8 1635.78,11501.1 1651.56,11508Z" style="fill:rgb(61,50,49);"/>
                </g>
                <path d="M1931.69,11547.1C1931.69,11547.1 1934.88,11545.3 1937.08,11543.1C1939.29,11540.9 1945.17,11535.5 1945.17,11535.5C1945.17,11535.5 1942.1,11542.9 1939.04,11546C1939.04,11546 1955.82,11532.2 1959.25,11507.7C1959.25,11507.7 1960.84,11536.4 1949.21,11549.2C1949.21,11549.2 1960.72,11539.8 1966.48,11519C1966.48,11519 1966.23,11537.2 1961.46,11544.7C1961.46,11544.7 1969.42,11540 1972.6,11532.6C1972.6,11532.6 1972.97,11539.7 1970.15,11543.3C1970.15,11543.3 1981.54,11529.8 1982.52,11519.1C1982.52,11519.1 1985.22,11531.7 1976.77,11545.1C1976.77,11545.1 1981.3,11544.6 1984.36,11541.6C1984.36,11541.6 1983.62,11545.3 1981.42,11547.8C1981.42,11547.8 1988.89,11545.4 1990.61,11529.4C1990.61,11529.4 1992.2,11547.4 1985.34,11554.5C1985.34,11554.5 1993.06,11551.3 1995.51,11546.5C1995.51,11546.5 1995.31,11549.4 1993.06,11552.5C1993.06,11552.5 2008.65,11537.8 2008.07,11512.8C2007.5,11487.7 2000.99,11434.3 1934.01,11433.7C1867.03,11433.2 1857.07,11495.7 1858.03,11531.1C1858.99,11566.5 1872.62,11575.3 1872.62,11575.3C1872.62,11575.3 1868.56,11562.2 1871.67,11550C1871.67,11550 1881.2,11544.9 1885.03,11528.8C1885.03,11528.8 1884.57,11542.2 1887.02,11546.5C1887.02,11546.5 1889.01,11531.7 1892.37,11523.9C1892.37,11523.9 1893.9,11538.9 1893.9,11543.5C1893.9,11543.5 1895.89,11539 1897.12,11535.2C1897.12,11535.2 1898.5,11538.7 1897.73,11542.9C1897.73,11542.9 1914.27,11518.2 1917.94,11505.7C1917.94,11505.7 1910.29,11531.2 1903.24,11540.6C1903.24,11540.6 1914.12,11539.8 1919.63,11530.6C1919.63,11530.6 1917.18,11536.2 1914.44,11538.4C1914.44,11538.4 1928.94,11529.2 1935.21,11513.1C1935.21,11513.1 1929.42,11537.5 1931.69,11547.1Z" style="fill:rgb(69,54,53);"/>
                <g transform="matrix(0.93048,0,0,1,135.741,0.000107272)">
                    <path d="M1884.8,11632.5C1884.8,11632.5 1890.18,11625.6 1898.02,11628.8C1905.86,11632 1911.74,11634.6 1910.88,11641.7C1910.03,11648.8 1914.31,11652.9 1913.21,11656.9C1912.11,11660.8 1908.19,11651.7 1898.39,11652.6C1888.59,11653.4 1887.24,11665.4 1881.86,11662.7C1876.47,11660 1884.92,11653.6 1878.43,11649.4C1871.93,11645.2 1879.77,11637.4 1884.8,11632.5Z" style="fill:rgb(243,249,255);"/>
                </g>
            </g>
        </g>
    </g>
</svg>
