<?xml version="1.0" encoding="UTF-8" standalone="no"?>
<!DOCTYPE svg PUBLIC "-//W3C//DTD SVG 1.1//EN" "http://www.w3.org/Graphics/SVG/1.1/DTD/svg11.dtd">
<svg width="100%" height="100%" viewBox="0 0 199 198" version="1.1" xmlns="http://www.w3.org/2000/svg" xmlns:xlink="http://www.w3.org/1999/xlink" xml:space="preserve" xmlns:serif="http://www.serif.com/" style="fill-rule:evenodd;clip-rule:evenodd;stroke-linecap:round;stroke-linejoin:round;stroke-miterlimit:1.5;">
    <g transform="matrix(1,0,0,1,-9130,-13444)">
        <g transform="matrix(1.31001,0,0,1.31001,-1118.06,-2756.99)">
            <path d="M7835.92,12419C7845.01,12375.9 7880.19,12370.6 7898.77,12370.2C7898.78,12370.2 7898.8,12370.2 7898.81,12370.2C7915.07,12370.3 7951.85,12376.6 7961.46,12419L7963.79,12419C7968.04,12419.1 7971.48,12431.9 7971.48,12447.6C7971.48,12463.4 7968.02,12476.3 7963.77,12476.3L7957.9,12476.3C7947.48,12513.8 7905.31,12514.8 7898.77,12514.7C7892.23,12514.8 7850.06,12513.8 7839.63,12476.3L7833.77,12476.3C7829.51,12476.3 7826.06,12463.4 7826.06,12447.6C7826.06,12431.9 7829.5,12419.1 7833.74,12419L7835.92,12419Z" style="stroke:black;stroke-width:6.36px;"/>
            <g>
                <g transform="matrix(1,0,0,1,-236.343,83.0506)">
                    <path d="M8137.9,12319.9L8196.7,12338.1L8196.16,12366.1C8202.08,12430.3 8142.95,12431.8 8135.11,12431.7C8127.27,12431.8 8068.14,12430.3 8074.06,12366.1L8073.57,12340.6L8132.32,12319.9L8132.31,12319.2L8135.11,12319.6L8137.91,12319.2L8137.9,12319.9Z" style="fill:rgb(192,162,133);"/>
                </g>
                <g transform="matrix(1,0,0,1,0.365285,-0.742729)">
                    <path d="M7949.39,12433.8C7949.39,12433.8 7954.62,12470.6 7940.72,12466.4C7940.72,12466.4 7945.59,12480.3 7957.33,12476.3L7959.13,12434.1L7949.39,12433.8Z" style="fill:rgb(112,29,7);"/>
                </g>
                <g transform="matrix(-1,0,0,1,15797.2,-0.742729)">
                    <path d="M7949.39,12433.8C7949.39,12433.8 7954.62,12470.6 7940.72,12466.4C7940.72,12466.4 7945.59,12480.3 7957.33,12476.3L7959.13,12434.1L7949.39,12433.8Z" style="fill:rgb(112,29,7);"/>
                </g>
                <g transform="matrix(1,0,0,1,0,20)">
                    <path d="M7898.43,12409.2C7869.68,12408.9 7841.48,12419 7841.48,12419L7833.77,12419C7835.01,12357.5 7877.64,12350.6 7898.77,12350.2C7898.78,12350.2 7898.8,12350.2 7898.81,12350.2C7917.34,12350.3 7962.54,12358.5 7963.77,12419L7956.06,12419C7956.06,12419 7927.64,12408.8 7898.77,12409.2L7898.43,12409.2Z" style="fill:rgb(64,86,185);"/>
                </g>
                <g transform="matrix(0.710813,0,0,0.710813,2295.76,3588.73)">
                    <path d="M7963.13,12503.3L7963.13,12422.8L7973.97,12422.8L7974.01,12422.8C7979.98,12422.8 7984.82,12440.9 7984.82,12463.1C7984.82,12485.3 7979.96,12503.3 7973.97,12503.3L7963.13,12503.3Z" style="fill:rgb(64,86,185);"/>
                </g>
                <g transform="matrix(-0.710813,0,0,0.710813,13501.8,3588.73)">
                    <path d="M7963.13,12503.3L7963.13,12422.8L7973.97,12422.8L7974.01,12422.8C7979.98,12422.8 7984.82,12440.9 7984.82,12463.1C7984.82,12485.3 7979.96,12503.3 7973.97,12503.3L7963.13,12503.3Z" style="fill:rgb(64,86,185);"/>
                </g>
                <g transform="matrix(-1.83697e-16,1,-1,-1.83697e-16,20320.1,4586.22)">
                    <path d="M7852.78,12376.4C7838.03,12376.4 7826.06,12396.5 7826.06,12421.3C7826.06,12446.1 7838.03,12466.3 7852.78,12466.3C7848.35,12455.8 7844.76,12439.3 7844.76,12421.3C7844.76,12403.4 7848.35,12386.9 7852.78,12376.4Z" style="fill:rgb(61,80,170);"/>
                </g>
            </g>
        </g>
    </g>
</svg>
