<?xml version="1.0" encoding="UTF-8" standalone="no"?>
<!DOCTYPE svg PUBLIC "-//W3C//DTD SVG 1.1//EN" "http://www.w3.org/Graphics/SVG/1.1/DTD/svg11.dtd">
<svg width="100%" height="100%" viewBox="0 0 173 201" version="1.1" xmlns="http://www.w3.org/2000/svg" xmlns:xlink="http://www.w3.org/1999/xlink" xml:space="preserve" xmlns:serif="http://www.serif.com/" style="fill-rule:evenodd;clip-rule:evenodd;stroke-linecap:round;stroke-linejoin:round;stroke-miterlimit:1.5;">
    <g transform="matrix(1,0,0,1,-7336.806425,-13762.811297)">
        <g transform="matrix(1.094771,0,0,1.094771,3400.87601,469.393276)">
            <g transform="matrix(0.540936,0,0,0.543939,1731.035958,5653.746865)">
                <path d="M3488.717,12052.445C3497.052,12014.716 3522.835,11962.109 3606.84,11936.463C3742.51,11972.302 3727.507,12079.255 3729.616,12093.936C3730.823,12102.342 3725.711,12105.605 3721.102,12106.858C3721.103,12107.115 3721.103,12107.374 3721.103,12107.634C3723.294,12107.519 3725.354,12108.21 3727.109,12110.082C3733.402,12116.795 3732.537,12140.073 3721.414,12154.931C3721.558,12164.805 3721.764,12172.998 3722.058,12177.304C3723.238,12194.574 3731.027,12228.815 3731.027,12228.815C3718.518,12212.141 3709.549,12207.675 3709.549,12207.675C3707.661,12236.259 3700.344,12255.315 3700.344,12255.315C3699.164,12239.832 3689.015,12224.349 3689.015,12224.349C3695.388,12216.905 3688.469,12201.134 3688.469,12201.134C3685.057,12203.604 3681.773,12205.659 3678.689,12207.367C3663.251,12228.231 3647.475,12242.194 3641.898,12247.139C3630.88,12256.911 3612.811,12258.402 3607.572,12258.629L3607.572,12258.67C3607.572,12258.67 3607.315,12258.67 3606.84,12258.656C3606.364,12258.67 3606.107,12258.67 3606.107,12258.67L3606.107,12258.629C3600.869,12258.402 3582.799,12256.911 3571.781,12247.139C3566.205,12242.194 3550.428,12228.231 3534.99,12207.367C3531.907,12205.659 3528.622,12203.604 3525.21,12201.134C3525.21,12201.134 3518.291,12216.905 3524.664,12224.349C3524.664,12224.349 3514.515,12239.832 3513.335,12255.315C3513.335,12255.315 3506.018,12236.259 3504.13,12207.675C3504.13,12207.675 3495.161,12212.141 3482.652,12228.815C3482.652,12228.815 3490.441,12194.574 3491.621,12177.304C3491.915,12172.998 3492.121,12164.805 3492.265,12154.931C3481.142,12140.073 3480.277,12116.795 3486.571,12110.082C3488.325,12108.21 3490.385,12107.519 3492.576,12107.634C3492.576,12107.374 3492.576,12107.115 3492.577,12106.858C3490.497,12106.292 3488.315,12105.317 3486.657,12103.645C3477.885,12109.983 3466.838,12114.713 3453.232,12115.136C3453.232,12115.136 3455.142,12091.4 3474.319,12077.271C3455.142,12063.142 3453.232,12039.406 3453.232,12039.406C3467.926,12039.862 3479.635,12045.342 3488.717,12052.445Z" style="stroke:black;stroke-width:14.03px;"/>
            </g>
            <g>
                <g transform="matrix(0.540936,0,0,0.543939,1731.035958,5653.746865)">
                    <path d="M3514.164,12123.953C3514.164,12123.953 3495.977,12100.048 3486.571,12110.082C3477.164,12120.116 3483.749,12167.149 3516.672,12167.776L3514.164,12123.953Z" style="fill:rgb(213,154,99);"/>
                </g>
                <g transform="matrix(-0.540936,0,0,0.543939,5633.176549,5653.746865)">
                    <path d="M3514.164,12123.953C3514.164,12123.953 3495.977,12100.048 3486.571,12110.082C3477.164,12120.116 3483.749,12167.149 3516.672,12167.776L3514.164,12123.953Z" style="fill:rgb(213,154,99);"/>
                </g>
                <g transform="matrix(0.790069,-0.065566,0.065566,0.790069,53.162689,2889.263402)">
                    <path d="M3577.298,12235.607C3573.749,12235.156 3561.546,12233.117 3554.608,12225.814C3546.427,12217.202 3503.366,12171.988 3514.562,12116.009L3528,12089.312L3589.443,12095.294L3651.033,12099.522L3659.886,12128.069C3661.701,12185.128 3611.776,12222.625 3602.287,12229.771C3594.24,12235.83 3581.869,12235.83 3578.294,12235.69L3578.292,12235.718C3578.292,12235.718 3578.117,12235.703 3577.794,12235.667C3577.47,12235.65 3577.295,12235.635 3577.295,12235.635L3577.298,12235.607Z" style="fill:rgb(213,154,99);"/>
                </g>
                <g transform="matrix(2.033961,0,0,-2.033961,-3734.760814,37072.30064)">
                    <path d="M3621.965,12219.87C3621.965,12219.87 3617.385,12207.414 3605.661,12207.047C3605.661,12207.047 3606.76,12220.786 3621.965,12219.87Z" style="fill:rgb(119,32,15);"/>
                </g>
                <g transform="matrix(2.033961,0,0,2.033961,-3734.760814,-12626.215268)">
                    <path d="M3621.965,12219.87C3621.965,12219.87 3617.385,12207.414 3605.661,12207.047C3605.661,12207.047 3606.76,12220.786 3621.965,12219.87Z" style="fill:rgb(119,32,15);"/>
                </g>
                <g transform="matrix(0.285469,0,0,0.362131,2865.864838,7801.63444)">
                    <path d="M2674.434,12218.798C2674.434,12218.798 2685.056,12287.561 2699.591,12313.836C2714.126,12340.111 2745.992,12404.402 2766.117,12417.26C2766.117,12417.26 2738.724,12415.024 2704.622,12395.457C2704.622,12395.457 2691.513,12419.147 2703.588,12430.328C2703.588,12430.328 2684.357,12453.584 2682.121,12476.84C2682.121,12476.84 2668.256,12448.217 2664.678,12405.282C2664.678,12405.282 2647.683,12411.991 2623.98,12437.036C2623.98,12437.036 2638.739,12385.604 2640.975,12359.664C2643.211,12333.724 2642.764,12213.865 2642.764,12213.865L2674.434,12218.798Z" style="fill:rgb(114,99,86);"/>
                </g>
                <g transform="matrix(-0.285469,0,0,0.362131,4498.347668,7801.63444)">
                    <path d="M2674.434,12218.798C2674.434,12218.798 2685.056,12287.561 2699.591,12313.836C2714.126,12340.111 2745.992,12404.402 2766.117,12417.26C2766.117,12417.26 2738.724,12415.024 2704.622,12395.457C2704.622,12395.457 2691.513,12419.147 2703.588,12430.328C2703.588,12430.328 2684.357,12453.584 2682.121,12476.84C2682.121,12476.84 2668.256,12448.217 2664.678,12405.282C2664.678,12405.282 2647.683,12411.991 2623.98,12437.036C2623.98,12437.036 2638.739,12385.604 2640.975,12359.664C2643.211,12333.724 2642.764,12213.865 2642.764,12213.865L2674.434,12218.798Z" style="fill:rgb(114,99,86);"/>
                </g>
                <g transform="matrix(0.341021,0,0,0.341021,2725.004063,8072.588165)">
                    <path d="M2977.288,12219.045L2635.864,12219.045C2635.864,12219.045 2608.471,12220.722 2611.825,12197.242C2615.17,12173.825 2601.505,12009.022 2806.576,11946.067C3021.78,12003.232 2997.981,12173.825 3001.327,12197.242C3004.681,12220.722 2977.288,12219.045 2977.288,12219.045Z" style="fill:rgb(136,34,14);"/>
                </g>
                <g transform="matrix(0.129358,0.097196,-0.089248,0.118781,4351.501615,10407.36864)">
                    <path d="M3282.911,12393.324C3291.421,12337.771 3335.809,12295.371 3389.22,12295.371C3442.63,12295.371 3487.018,12337.771 3495.528,12393.324L3440.083,12393.324C3432.714,12370.466 3412.712,12354.06 3389.22,12354.06C3365.727,12354.06 3345.725,12370.466 3338.356,12393.324L3282.911,12393.324ZM3495.528,12432.173C3487.018,12487.726 3442.63,12530.126 3389.22,12530.126C3335.809,12530.126 3291.421,12487.726 3282.911,12432.173L3338.356,12432.173C3345.725,12455.031 3365.727,12471.437 3389.22,12471.437C3412.712,12471.437 3432.714,12455.031 3440.083,12432.173L3495.528,12432.173Z" style="fill:white;"/>
                </g>
                <g transform="matrix(0.375675,0,0,0.414917,2606.142639,7170.379845)">
                    <path d="M2751.951,12227.162L2976.212,12227.162C2976.212,12227.162 3027.462,12240.897 3002.305,12272.343C2977.148,12303.79 2948.211,12341.674 2905.133,12303.939C2879.953,12281.882 2870.61,12278.759 2864.081,12275.745C2857.552,12278.759 2849.146,12281.882 2823.966,12303.939C2780.887,12341.674 2751.014,12303.79 2725.857,12272.343C2700.7,12240.897 2751.951,12227.162 2751.951,12227.162Z" style="fill:rgb(102,169,193);"/>
                    <clipPath id="_clip1">
                        <path d="M2751.951,12227.162L2976.212,12227.162C2976.212,12227.162 3027.462,12240.897 3002.305,12272.343C2977.148,12303.79 2948.211,12341.674 2905.133,12303.939C2879.953,12281.882 2870.61,12278.759 2864.081,12275.745C2857.552,12278.759 2849.146,12281.882 2823.966,12303.939C2780.887,12341.674 2751.014,12303.79 2725.857,12272.343C2700.7,12240.897 2751.951,12227.162 2751.951,12227.162Z"/>
                    </clipPath>
                    <g clip-path="url(#_clip1)">
                        <g transform="matrix(0.936402,0,0,0.847839,182.149323,1864.713414)">
                            <path d="M2751.951,12230.553L2976.212,12230.553C2976.212,12230.553 3026.526,12240.897 3001.369,12272.343C2976.212,12303.79 2951.957,12340.826 2908.879,12303.091C2883.698,12281.034 2870.61,12272.824 2864.081,12269.81C2857.552,12272.824 2844.464,12281.034 2819.284,12303.091C2776.205,12340.826 2751.951,12303.79 2726.794,12272.343C2701.636,12240.897 2751.951,12230.553 2751.951,12230.553Z" style="fill:white;"/>
                        </g>
                    </g>
                </g>
            </g>
        </g>
    </g>
</svg>
