<?xml version="1.0" encoding="UTF-8" standalone="no"?>
<!DOCTYPE svg PUBLIC "-//W3C//DTD SVG 1.1//EN" "http://www.w3.org/Graphics/SVG/1.1/DTD/svg11.dtd">
<svg width="100%" height="100%" viewBox="0 0 242 237" version="1.1" xmlns="http://www.w3.org/2000/svg" xmlns:xlink="http://www.w3.org/1999/xlink" xml:space="preserve" xmlns:serif="http://www.serif.com/" style="fill-rule:evenodd;clip-rule:evenodd;stroke-linecap:round;stroke-linejoin:round;stroke-miterlimit:1.5;">
    <g transform="matrix(1,0,0,1,-9022.49,-456.687)">
        <g transform="matrix(0.235036,0,0,0.235036,6982.81,184.25)">
            <path d="M9358.12,1420.26C9354.77,1411 9341.15,1367.53 9359.35,1314.35C9379.89,1254.3 9417.82,1207.94 9491.05,1176.86C9491.05,1176.86 9504.22,1244.82 9491.57,1281.16C9478.93,1317.51 9444.39,1423.82 9429.22,1445.74C9429.22,1445.74 9433.09,1447.42 9441.27,1454.84C9441.27,1454.84 9527.04,1313.2 9688.37,1345.31C9688.37,1345.31 9687.55,1456.02 9624.99,1502.93C9566.23,1547 9492.22,1605.6 9441.16,1578.44C9438.41,1583.52 9433.92,1588.75 9427.18,1594.01C9427.18,1594.01 9427,1593.78 9426.69,1593.37C9486.61,1700.21 9528.75,1848.81 9466.73,1987.3C9391.96,2154.24 9110.08,2147.22 9096.59,2146.79C9083.1,2147.22 8801.22,2154.24 8726.45,1987.3C8664.67,1849.36 8706.24,1701.38 8765.79,1594.63C8719.22,1558.05 8780.81,1522.99 8780.81,1522.99C8800.57,1341.77 9096.56,1335.32 9096.56,1335.32L9096.78,1335.32C9103.54,1335.5 9269.22,1340.71 9358.12,1420.26Z" style="stroke:black;stroke-width:35.46px;"/>
            <g>
                <path d="M9097.09,1524.14L9382.57,1525.58C9461.03,1629.75 9543.34,1816.24 9466.73,1987.3C9391.96,2154.24 9110.08,2147.22 9096.59,2146.79C9083.1,2147.22 8801.22,2154.24 8726.45,1987.3C8649.84,1816.24 8732.15,1629.75 8810.61,1525.58L9096.09,1524.14L9096.09,1524.14L9096.59,1524.14L9097.09,1524.14L9097.09,1524.14Z" style="fill:rgb(254,106,55);"/>
                <clipPath id="_clip1">
                    <path d="M9097.09,1524.14L9382.57,1525.58C9461.03,1629.75 9543.34,1816.24 9466.73,1987.3C9391.96,2154.24 9110.08,2147.22 9096.59,2146.79C9083.1,2147.22 8801.22,2154.24 8726.45,1987.3C8649.84,1816.24 8732.15,1629.75 8810.61,1525.58L9096.09,1524.14L9096.09,1524.14L9096.59,1524.14L9097.09,1524.14L9097.09,1524.14Z"/>
                </clipPath>
                <g clip-path="url(#_clip1)">
                    <g transform="matrix(1.03906,0,0,1.04151,1072.01,-84.9313)">
                        <path d="M7766.35,1501.64L7891.91,1554.6C7891.91,1554.6 7960.23,1612.22 7975.05,1763.67C7975.05,1763.67 8047.48,1813.06 8042.54,1901.96C8037.9,1985.53 7949.6,2087.11 7722.9,2084.61C7496.2,2087.11 7407.9,1985.53 7403.26,1901.96C7398.32,1813.06 7470.75,1763.67 7470.75,1763.67C7485.57,1612.22 7553.89,1554.6 7553.89,1554.6L7679.45,1501.64L7679.55,1465.02L7722.9,1483.31L7766.25,1465.02L7766.35,1501.64Z" style="fill:rgb(255,231,186);"/>
                    </g>
                </g>
                <g transform="matrix(1,0,0,1,1348.99,-12.0326)">
                    <path d="M8009.83,1434.11C8009.83,1434.11 7989.81,1386.44 8010.36,1326.38C8030.9,1266.33 8068.83,1219.97 8142.06,1188.89C8142.06,1188.89 8155.23,1256.85 8142.58,1293.2C8129.94,1329.55 8095.4,1435.85 8080.23,1457.77C8080.23,1457.77 8084.11,1459.45 8092.28,1466.87C8092.28,1466.87 8178.05,1325.24 8339.38,1357.34C8339.38,1357.34 8338.56,1468.05 8276,1514.97C8213.44,1561.88 8133.6,1625.26 8082.57,1584.11L8009.83,1434.11Z" style="fill:rgb(58,78,215);"/>
                </g>
                <g transform="matrix(1,0,0,1,1348.99,-12.0326)">
                    <path d="M7745.02,1542.58C7528.18,1541.65 7429.4,1589.44 7429.4,1589.44C7426.5,1593.59 7416.92,1606.76 7416.92,1606.76C7370.12,1570.15 7431.83,1535.02 7431.83,1535.02C7451.58,1353.81 7747.57,1347.35 7747.57,1347.35L7747.79,1347.35C7756.74,1347.59 8043.88,1356.63 8063.32,1535.02C8063.32,1535.02 8125,1569.43 8078.19,1606.05C8078.19,1606.05 8068.65,1593.59 8065.75,1589.44C8065.75,1589.44 7966.19,1541.28 7747.57,1542.59L7745.02,1542.58Z" style="fill:rgb(68,88,223);"/>
                </g>
            </g>
        </g>
    </g>
</svg>
