<?xml version="1.0" encoding="UTF-8" standalone="no"?>
<!DOCTYPE svg PUBLIC "-//W3C//DTD SVG 1.1//EN" "http://www.w3.org/Graphics/SVG/1.1/DTD/svg11.dtd">
<svg width="100%" height="100%" viewBox="0 0 177 213" version="1.1" xmlns="http://www.w3.org/2000/svg" xmlns:xlink="http://www.w3.org/1999/xlink" xml:space="preserve" xmlns:serif="http://www.serif.com/" style="fill-rule:evenodd;clip-rule:evenodd;stroke-linecap:round;stroke-linejoin:round;stroke-miterlimit:1.5;">
    <g transform="matrix(1,0,0,1,-5527.951576,-13560.871203)">
        <g transform="matrix(0.518786,0,0,0.518786,3063.484995,7447.809654)">
            <g transform="matrix(1,0,0,1,350.116537,78.649381)">
                <path d="M4503.248,12062.846C4505.3,12070.966 4507.504,12078.826 4509.872,12086.227C4509.872,12086.227 4489.571,12068.327 4482.902,12055.279C4482.902,12055.279 4482.322,12082.535 4489.861,12106.892C4489.861,12106.892 4466.664,12083.695 4455.066,12061.658C4455.066,12061.658 4458.874,12084.186 4467.698,12097.858C4467.698,12097.858 4420.308,12045.485 4415.777,12002.444C4411.247,11959.403 4365.743,11709.975 4570.327,11712.807C4774.912,11709.975 4729.408,11959.403 4724.878,12002.444C4720.347,12045.485 4711.748,12061.658 4711.748,12061.658C4700.15,12083.695 4676.953,12106.892 4676.953,12106.892C4684.492,12082.535 4683.912,12055.279 4683.912,12055.279C4677.243,12068.327 4656.941,12086.227 4656.941,12086.227C4661.676,12071.431 4665.754,12056.412 4669.267,12041.565C4635.909,12072.543 4590.984,12077.246 4573.848,12077.867L4573.845,12077.914C4573.845,12077.914 4572.594,12077.97 4570.327,12077.949C4568.061,12077.97 4566.81,12077.914 4566.81,12077.914L4566.807,12077.867C4554.777,12077.431 4529.052,12074.984 4503.248,12062.846Z" style="stroke:black;stroke-width:16.06px;"/>
            </g>
            <g>
                <g transform="matrix(1,0,0,1,350.116537,78.649381)">
                    <path d="M4566.807,12077.867C4543.21,12077.012 4466.918,12068.417 4440.699,11994.13C4412.647,11914.647 4392.285,11782.873 4542.277,11749.136L4541.724,11741.721C4551.778,11742.253 4561.305,11743.106 4570.327,11744.259C4579.35,11743.106 4588.877,11742.253 4598.931,11741.721L4598.378,11749.136C4748.37,11782.873 4728.008,11914.647 4699.956,11994.13C4673.737,12068.417 4597.445,12077.012 4573.848,12077.867L4573.845,12077.914C4573.845,12077.914 4572.594,12077.97 4570.327,12077.949C4568.061,12077.97 4566.81,12077.914 4566.81,12077.914L4566.807,12077.867Z" style="fill:rgb(240,192,152);"/>
                </g>
                <g transform="matrix(0.952152,0.305624,-0.305624,0.952152,4364.973696,-633.662399)">
                    <path d="M4416.768,11866.804C4416.768,11866.804 4435.473,11839.785 4459.998,11830.225C4459.998,11830.225 4435.889,11816.092 4416.768,11866.804Z" style="fill:rgb(65,44,31);"/>
                </g>
                <g transform="matrix(-0.952152,0.305624,0.305624,0.952152,5475.914345,-633.662399)">
                    <path d="M4416.768,11866.804C4416.768,11866.804 4435.473,11839.785 4459.998,11830.225C4459.998,11830.225 4435.889,11816.092 4416.768,11866.804Z" style="fill:rgb(65,44,31);"/>
                </g>
                <g transform="matrix(0.871952,0,0,0.871952,1148.937726,1669.851286)">
                    <path d="M4224.034,11871.092C4229.471,11909.897 4239.085,11983.299 4256.029,12036.248C4256.029,12036.248 4232.746,12015.719 4225.097,12000.754C4225.097,12000.754 4224.432,12032.013 4233.078,12059.946C4233.078,12059.946 4206.475,12033.343 4193.174,12008.07C4193.174,12008.07 4197.541,12033.907 4207.661,12049.587C4207.661,12049.587 4153.312,11989.522 4148.116,11940.161C4142.92,11890.799 4090.733,11604.742 4325.362,11607.989C4559.991,11604.742 4507.804,11890.799 4502.608,11940.161C4497.412,11989.522 4487.55,12008.07 4487.55,12008.07C4474.249,12033.343 4447.646,12059.946 4447.646,12059.946C4456.292,12032.013 4455.627,12000.754 4455.627,12000.754C4447.978,12015.719 4424.695,12036.248 4424.695,12036.248C4461.067,11922.587 4463.665,11797.433 4463.665,11797.433C4448.564,11793.941 4440.122,11782.579 4434.777,11767.557L4434.327,11767.618C4428.299,11781.95 4419.902,11796.654 4408.222,11809.205C4408.222,11809.205 4409.916,11802.977 4407.657,11782.375C4407.657,11782.375 4370.389,11835.745 4351.755,11854.379C4351.755,11854.379 4351.19,11815.417 4356.837,11800.735C4356.837,11800.735 4341.591,11838.568 4312.792,11866.802C4312.792,11866.802 4313.547,11862.4 4309.152,11852.917C4309.152,11852.917 4301.982,11854.536 4292.73,11853.149C4292.73,11853.149 4306.612,11827.446 4306.16,11808.022C4306.16,11808.022 4303.901,11822.026 4285.832,11860.875C4285.832,11860.875 4282.669,11822.477 4272.731,11790.856C4272.731,11790.856 4267.31,11832.416 4253.758,11853.196C4253.758,11853.196 4254.317,11841.45 4245.003,11808.925C4245.003,11808.925 4237.081,11846.246 4224.034,11871.092Z" style="fill:rgb(80,56,40);"/>
                </g>
            </g>
        </g>
    </g>
</svg>
