<?xml version="1.0" encoding="UTF-8" standalone="no"?>
<!DOCTYPE svg PUBLIC "-//W3C//DTD SVG 1.1//EN" "http://www.w3.org/Graphics/SVG/1.1/DTD/svg11.dtd">
<svg width="100%" height="100%" viewBox="0 0 292 306" version="1.1" xmlns="http://www.w3.org/2000/svg" xmlns:xlink="http://www.w3.org/1999/xlink" xml:space="preserve" xmlns:serif="http://www.serif.com/" style="fill-rule:evenodd;clip-rule:evenodd;stroke-linecap:round;stroke-linejoin:round;stroke-miterlimit:1.5;">
    <g transform="matrix(1,0,0,1,-7879.9,-13738.4)">
        <g transform="matrix(1.40973,0,0,1.40973,-4616.67,-3276.95)">
            <path d="M9005.7,12161.6C9011.18,12159.7 9027.63,12153.5 9034.24,12146.8C9042.21,12138.7 9049.43,12132.2 9046.23,12107.3C9043.02,12082.4 9040.62,12081.5 9047.03,12072.8C9047.03,12072.8 9044.93,12081.1 9052.81,12094C9060.69,12106.9 9073.74,12124.6 9065.7,12148.3C9057.81,12171.6 9058.39,12182.6 9020.92,12194.4C9021.28,12195.6 9020.68,12196.9 9019.45,12197.4L9015,12199.2C9015,12207.5 9013.81,12214.9 9016.18,12221.7C9020.23,12233.1 9019.31,12238 9014.48,12244.9C9009.65,12251.8 9006.02,12266.8 9004.04,12275.3C9002.05,12283.8 8988.89,12283.4 8988.89,12283.4C8974.13,12281.7 8960.12,12281.8 8946.78,12283.4C8946.78,12283.4 8933.62,12283.8 8931.63,12275.3C8929.65,12266.8 8926.02,12251.8 8921.19,12244.9C8916.36,12238 8915.44,12233.1 8919.49,12221.7C8921.86,12214.9 8920.67,12207.5 8920.67,12199.2L8916.22,12197.4C8914.99,12196.9 8914.39,12195.6 8914.75,12194.4C8877.28,12182.6 8877.86,12171.6 8869.97,12148.3C8861.92,12124.6 8874.97,12106.9 8882.86,12094C8890.74,12081.1 8888.64,12072.8 8888.64,12072.8C8895.05,12081.5 8892.65,12082.4 8889.44,12107.3C8886.24,12132.2 8893.46,12138.7 8901.43,12146.8C8908.03,12153.5 8924.49,12159.7 8929.97,12161.6C8930.69,12160.6 8932.09,12160.1 8933.29,12160.6L8938.17,12162.6C8938.36,12162.7 8938.53,12162.8 8938.69,12162.9C8945.59,12158.8 8954.88,12156.8 8967.83,12157C8980.79,12156.8 8990.08,12158.8 8996.98,12162.9C8997.14,12162.8 8997.31,12162.7 8997.5,12162.6L9002.38,12160.6C9003.58,12160.1 9004.98,12160.6 9005.7,12161.6Z" style="stroke:black;stroke-width:5.91px;"/>
            <g>
                <g transform="matrix(0.766735,-0.0459135,0.0491472,0.716287,1844.93,3844.67)">
                    <path d="M8557.47,12160.6C8557.47,12160.6 8587.17,12152.3 8598.26,12141.7C8609.34,12131 8619.3,12122.6 8617.35,12087.7C8615.4,12052.9 8612.37,12051.4 8621.46,12039.9C8621.46,12039.9 8618,12051.1 8627.09,12069.8C8636.18,12088.4 8651.55,12114.1 8639,12146.4C8626.44,12178.6 8626.44,12194 8573.95,12207.5L8553.12,12187.7L8557.47,12160.6Z" style="fill:rgb(46,20,59);"/>
                </g>
                <g transform="matrix(1.27988,-0.517983,0.361431,0.779401,-6922.63,7212.64)">
                    <path d="M8968.86,12310.9C8968.86,12309.2 8968.01,12307.8 8966.95,12307.8L8963.14,12307.8C8962.08,12307.8 8961.23,12309.2 8961.23,12310.9L8961.23,12352C8961.23,12353.7 8962.08,12355 8963.14,12355L8966.95,12355C8968.01,12355 8968.86,12353.7 8968.86,12352L8968.86,12310.9Z" style="fill:rgb(48,23,60);"/>
                </g>
                <g transform="matrix(-0.766735,-0.0459135,-0.0491472,0.716287,16090.7,3844.67)">
                    <path d="M8557.47,12160.6C8557.47,12160.6 8587.17,12152.3 8598.26,12141.7C8609.34,12131 8619.3,12122.6 8617.35,12087.7C8615.4,12052.9 8612.37,12051.4 8621.46,12039.9C8621.46,12039.9 8618,12051.1 8627.09,12069.8C8636.18,12088.4 8651.55,12114.1 8639,12146.4C8626.44,12178.6 8626.44,12194 8573.95,12207.5L8553.12,12187.7L8557.47,12160.6Z" style="fill:rgb(46,20,59);"/>
                </g>
                <g transform="matrix(-1.27988,-0.517983,-0.361431,0.779401,24858.3,7212.64)">
                    <path d="M8968.86,12310.9C8968.86,12309.2 8968.01,12307.8 8966.95,12307.8L8963.14,12307.8C8962.08,12307.8 8961.23,12309.2 8961.23,12310.9L8961.23,12352C8961.23,12353.7 8962.08,12355 8963.14,12355L8966.95,12355C8968.01,12355 8968.86,12353.7 8968.86,12352L8968.86,12310.9Z" style="fill:rgb(48,23,60);"/>
                </g>
                <g transform="matrix(1.30913,0,0,1,-2763.59,0)">
                    <path d="M8945.15,12283.4C8945.15,12283.4 8935.09,12283.8 8933.58,12275.3C8932.06,12266.8 8929.29,12251.8 8925.6,12244.9C8921.91,12238 8921.21,12233.1 8924.3,12221.7C8927.39,12210.2 8922.57,12196.5 8927.81,12180.7C8933.04,12164.9 8941.66,12156.5 8961.23,12157C8980.8,12156.5 8989.42,12164.9 8994.65,12180.7C8999.89,12196.5 8995.07,12210.2 8998.16,12221.7C9001.25,12233.1 9000.55,12238 8996.86,12244.9C8993.17,12251.8 8990.4,12266.8 8988.88,12275.3C8987.37,12283.8 8977.31,12283.4 8977.31,12283.4C8966.04,12281.7 8955.34,12281.8 8945.15,12283.4Z" style="fill:rgb(51,27,63);"/>
                    <clipPath id="_clip1">
                        <path d="M8945.15,12283.4C8945.15,12283.4 8935.09,12283.8 8933.58,12275.3C8932.06,12266.8 8929.29,12251.8 8925.6,12244.9C8921.91,12238 8921.21,12233.1 8924.3,12221.7C8927.39,12210.2 8922.57,12196.5 8927.81,12180.7C8933.04,12164.9 8941.66,12156.5 8961.23,12157C8980.8,12156.5 8989.42,12164.9 8994.65,12180.7C8999.89,12196.5 8995.07,12210.2 8998.16,12221.7C9001.25,12233.1 9000.55,12238 8996.86,12244.9C8993.17,12251.8 8990.4,12266.8 8988.88,12275.3C8987.37,12283.8 8977.31,12283.4 8977.31,12283.4C8966.04,12281.7 8955.34,12281.8 8945.15,12283.4Z"/>
                    </clipPath>
                    <g clip-path="url(#_clip1)">
                        <g transform="matrix(0.817664,0,0,1,1633.95,0)">
                            <path d="M8953.6,12251.8C8953.6,12251.8 8957.62,12240.1 8961.23,12233.2L8961.27,12233.2C8964.87,12240.2 8968.86,12251.8 8968.86,12251.8L8961.23,12257.9L8953.6,12251.8Z" style="fill:rgb(48,23,60);"/>
                        </g>
                    </g>
                </g>
                <g transform="matrix(0.78694,0,0,0.735163,1915.88,3159.25)">
                    <path d="M8961.14,12393.5C8960.22,12393.5 8952.58,12393.8 8943.7,12397.3C8934.22,12401.1 8924.35,12385.9 8921.49,12377.2C8918.63,12368.5 8919.28,12354.8 8919.28,12354.8C8937.33,12366.4 8951.11,12367.2 8951.11,12367.2C8955.91,12373.3 8961.23,12375.5 8961.23,12375.5L8961.33,12375.4C8962.35,12375.1 8966.3,12373.2 8971.35,12367.2C8971.35,12367.2 8985.12,12366.4 9003.18,12354.8C9003.18,12354.8 9003.83,12368.5 9000.97,12377.2C8998.11,12385.9 8988.24,12401.1 8978.76,12397.3C8969.28,12393.5 8961.23,12393.5 8961.23,12393.5L8961.14,12393.5Z" style="fill:rgb(188,119,63);"/>
                </g>
                <g transform="matrix(1.07043,0,0,1,-161.998,4.69831)">
                    <path d="M8498.93,12206.2C8498.93,12206.2 8505.25,12214.4 8519.32,12218.3C8519.32,12218.3 8509.79,12223 8504.58,12218.1C8499.37,12213.1 8498.93,12206.2 8498.93,12206.2Z" style="fill:white;"/>
                </g>
                <g transform="matrix(-1.07043,0,0,1,18097.7,4.69831)">
                    <path d="M8498.93,12206.2C8498.93,12206.2 8505.25,12214.4 8519.32,12218.3C8519.32,12218.3 8509.79,12223 8504.58,12218.1C8499.37,12213.1 8498.93,12206.2 8498.93,12206.2Z" style="fill:white;"/>
                </g>
            </g>
        </g>
    </g>
</svg>
