<?xml version="1.0" encoding="UTF-8" standalone="no"?>
<!DOCTYPE svg PUBLIC "-//W3C//DTD SVG 1.1//EN" "http://www.w3.org/Graphics/SVG/1.1/DTD/svg11.dtd">
<svg width="100%" height="100%" viewBox="0 0 185 201" version="1.1" xmlns="http://www.w3.org/2000/svg" xmlns:xlink="http://www.w3.org/1999/xlink" xml:space="preserve" xmlns:serif="http://www.serif.com/" style="fill-rule:evenodd;clip-rule:evenodd;stroke-linecap:round;stroke-linejoin:round;stroke-miterlimit:1.5;">
    <g transform="matrix(1,0,0,1,-1708.812595,-13160.207986)">
        <g transform="matrix(1.219534,0,0,1.219534,-1050.643419,2610.182814)">
            <g transform="matrix(5.15324,0,0,5.15324,-15706.950624,-58350.111574)">
                <path d="M3493.127,13025.025C3492.034,13024.246 3486.629,13019.992 3487.923,13012.911C3487.923,13012.911 3488.011,13012.716 3488.188,13012.456C3488.273,13011.467 3488.697,13008.649 3490.817,13006.245C3490.248,13003.858 3492.491,13001.842 3495.835,13002.512C3496.187,13002.583 3496.506,13002.693 3496.794,13002.837C3498.206,13002.506 3499.848,13002.337 3501.759,13002.392L3501.838,13002.39C3503.715,13002.342 3505.331,13002.511 3506.723,13002.837C3507.012,13002.693 3507.331,13002.583 3507.683,13002.512C3511.027,13001.842 3513.27,13003.858 3512.701,13006.245C3514.821,13008.65 3515.245,13011.467 3515.33,13012.456C3515.507,13012.716 3515.595,13012.911 3515.595,13012.911C3516.889,13019.992 3511.484,13024.246 3510.391,13025.025C3505.887,13033.392 3502.048,13033.017 3501.759,13032.975C3501.47,13033.017 3497.631,13033.392 3493.127,13025.025Z" style="stroke:black;stroke-width:1.33px;"/>
            </g>
            <g>
                <g transform="matrix(5.15324,0,0,5.15324,-15706.950624,-58350.111574)">
                    <path d="M3492.869,13011.153L3510.649,13011.153L3512.789,13018.403L3511.063,13023.72C3506.275,13033.43 3502.063,13033.019 3501.759,13032.975C3501.456,13033.019 3497.243,13033.43 3492.455,13023.72L3490.729,13018.403L3492.869,13011.153Z" style="fill:rgb(242,190,144);"/>
                </g>
                <g transform="matrix(4.740082,0,0,4.282948,-14259.207312,-47000.299071)">
                    <path d="M3494.191,13017.082C3494.191,13017.082 3484.9,13013.392 3486.779,13007.017C3486.779,13007.017 3486.874,12993.999 3501.556,12994.469L3501.641,12994.466C3516.237,12994.051 3516.332,13007.017 3516.332,13007.017C3518.211,13013.392 3510.186,13017.082 3510.186,13017.082L3501.556,13015.556L3494.191,13017.082Z" style="fill:rgb(37,63,110);"/>
                </g>
                <g transform="matrix(0.213448,-0.021323,0.021323,0.213448,1951.219886,6933.926966)">
                    <path d="M947.839,8672.244C947.839,8672.244 886.076,8660.608 816.257,8613.166C816.257,8613.166 770.606,8660.608 742.857,8683.881C742.857,8683.881 590.016,8562.928 643.163,8378.31C643.163,8378.31 691.545,8294.589 763.999,8380.52C836.453,8466.451 865.992,8488.829 964.455,8504.046C964.455,8504.046 964.664,8504.076 964.825,8504.083C1064.353,8508.645 1097.735,8492.553 1185.756,8422.653C1273.778,8352.753 1304.641,8444.391 1304.641,8444.391C1320.216,8635.874 1146.468,8724.201 1146.468,8724.201C1123.872,8695.899 1088.508,8640.364 1088.508,8640.364C1010.684,8673.056 947.839,8672.244 947.839,8672.244Z" style="fill:rgb(63,63,62);"/>
                </g>
                <g transform="matrix(0.210263,0.047037,-0.047037,0.210263,2531.699869,6900.628476)">
                    <path d="M884.929,8400.998C884.929,8400.998 922.166,8387.392 903.547,8348.007C884.929,8308.622 860.761,8170.416 763.999,8172.565C667.237,8174.713 626.419,8257.064 688.003,8314.351C749.587,8371.638 813.32,8448.976 884.929,8400.998Z" style="fill:rgb(34,59,105);"/>
                </g>
                <g transform="matrix(-0.210263,0.047037,0.047037,0.210263,2145.209299,6900.628476)">
                    <path d="M884.929,8400.998C884.929,8400.998 922.166,8387.392 903.547,8348.007C884.929,8308.622 860.761,8170.416 763.999,8172.565C667.237,8174.713 626.419,8257.064 688.003,8314.351C749.587,8371.638 813.32,8448.976 884.929,8400.998Z" style="fill:rgb(34,59,105);"/>
                </g>
            </g>
        </g>
    </g>
</svg>
