<?xml version="1.0" encoding="UTF-8" standalone="no"?>
<!DOCTYPE svg PUBLIC "-//W3C//DTD SVG 1.1//EN" "http://www.w3.org/Graphics/SVG/1.1/DTD/svg11.dtd">
<svg width="100%" height="100%" viewBox="0 0 203 197" version="1.1" xmlns="http://www.w3.org/2000/svg" xmlns:xlink="http://www.w3.org/1999/xlink" xml:space="preserve" xmlns:serif="http://www.serif.com/" style="fill-rule:evenodd;clip-rule:evenodd;stroke-linecap:round;stroke-linejoin:round;stroke-miterlimit:1.5;">
    <g transform="matrix(1,0,0,1,-4511.12,-13162.1)">
        <g transform="matrix(5.15324,0,0,5.15324,-12875.5,-53816.5)">
            <path d="M3379.77,13007.8C3380.6,13004.2 3383.49,12997.9 3393.53,12998.2L3393.62,12998.2C3403.6,12997.9 3406.47,13004.2 3407.29,13007.8C3409.15,13006 3410.91,13004 3412.34,13001.9L3411.76,13009C3411.76,13009 3411,13009.8 3409.93,13010.8C3411.06,13015.8 3406.85,13018.8 3405.68,13019.6L3405.64,13023.2L3402.75,13026.6L3402.83,13031.8L3400.68,13032.1L3400.68,13029.6C3396.94,13035.1 3393.99,13034.8 3393.74,13034.8C3393.48,13034.8 3390.32,13035.1 3386.39,13029L3386.39,13032.1L3384.24,13031.8L3384.31,13026.6L3381.42,13023.2L3381.39,13019.6C3380.22,13018.8 3376,13015.8 3377.13,13010.8C3376.06,13009.8 3375.3,13009 3375.3,13009L3374.73,13001.9C3376.16,13004 3377.91,13006 3379.77,13007.8Z" style="stroke:black;stroke-width:1.62px;"/>
            <g>
                <g transform="matrix(0.953641,0,0,0.953641,54.307,606.142)">
                    <path d="M3489.13,13017.1C3489.13,13017.1 3482.62,13013.5 3484.5,13007.2L3486.78,13007C3486.78,13007 3486.87,12994 3501.56,12994.5L3501.64,12994.5C3516.24,12994.1 3516.33,13007 3516.33,13007L3518.61,13007.2C3520.49,13013.5 3513.98,13017.1 3513.98,13017.1L3501.56,13019.6L3489.13,13017.1Z" style="fill:rgb(51,83,128);"/>
                </g>
                <g transform="matrix(1,0,0,1,-108.022,1.79184)">
                    <path d="M3501.56,13019.6L3510.65,13011.2L3512.79,13018.4L3511.06,13023.7C3506.28,13033.4 3502.06,13033 3501.76,13033C3501.46,13033 3497.24,13033.4 3492.45,13023.7L3490.73,13018.4L3492.87,13011.2L3501.56,13019.6Z" style="fill:rgb(242,190,144);"/>
                </g>
                <g transform="matrix(0.824387,0,0,1,506.486,2.55577)">
                    <path d="M3493.39,13029.6L3493.39,13016.1L3487.28,13013.1L3487.36,13020.7L3490.87,13024.1L3490.78,13029.3L3493.39,13029.6Z" style="fill:rgb(29,29,29);"/>
                </g>
                <g transform="matrix(-0.824387,0,0,1,6280.58,2.55577)">
                    <path d="M3493.39,13029.6L3493.39,13016.1L3487.28,13013.1L3487.36,13020.7L3490.87,13024.1L3490.78,13029.3L3493.39,13029.6Z" style="fill:rgb(29,29,29);"/>
                </g>
                <g transform="matrix(1,0,0,1,-108.022,1.79184)">
                    <path d="M3501.56,13016.3C3503.12,13015.4 3514.48,13008.7 3520.36,13000.1L3519.79,13007.2C3519.79,13007.2 3516.4,13010.8 3513.91,13012.5L3513.75,13015.8L3501.59,13023.7L3501.52,13023.7L3489.36,13015.8L3489.2,13012.5C3486.71,13010.8 3483.32,13007.2 3483.32,13007.2L3482.75,13000.1C3488.63,13008.7 3499.99,13015.4 3501.56,13016.3Z" style="fill:rgb(135,135,135);"/>
                </g>
            </g>
        </g>
    </g>
</svg>
