<?xml version="1.0" encoding="UTF-8" standalone="no"?>
<!DOCTYPE svg PUBLIC "-//W3C//DTD SVG 1.1//EN" "http://www.w3.org/Graphics/SVG/1.1/DTD/svg11.dtd">
<svg width="100%" height="100%" viewBox="0 0 165 200" version="1.1" xmlns="http://www.w3.org/2000/svg" xmlns:xlink="http://www.w3.org/1999/xlink" xml:space="preserve" xmlns:serif="http://www.serif.com/" style="fill-rule:evenodd;clip-rule:evenodd;stroke-linecap:round;stroke-linejoin:round;stroke-miterlimit:1.5;">
    <g transform="matrix(1,0,0,1,-6939.599425,-13160.624176)">
        <g transform="matrix(0.136032,0,0,0.136032,6400.629211,12047.373684)">
            <path d="M4011.865,8705.366C4014.676,8686.629 4089.418,8220.232 4565.276,8214.361C5089.888,8216.516 5117.863,8687.229 5118.748,8705.406C5136.426,8717.031 5144.755,8761.042 5130.889,8865.544C5118.097,8961.953 5096.045,9033.685 5071.356,9086.895C5066.984,9167.338 5055.219,9231.602 5038.566,9283.684C5043.773,9347.416 5054.458,9402.274 5073.236,9438.573C5073.236,9438.573 5027.324,9431.045 4986.879,9392.783C4930.035,9476.746 4856.605,9507.889 4803.56,9545.261C4694.376,9622.186 4573.196,9622.339 4565.276,9622.265C4557.357,9622.339 4436.177,9622.186 4326.993,9545.261C4273.948,9507.889 4200.518,9476.746 4143.673,9392.783C4103.229,9431.045 4057.317,9438.573 4057.317,9438.573C4076.095,9402.274 4086.78,9347.416 4091.987,9283.684C4075.334,9231.602 4063.569,9167.338 4059.196,9086.895C4034.508,9033.685 4012.456,8961.953 3999.664,8865.544C3985.782,8760.922 3994.146,8716.93 4011.865,8705.366Z" style="stroke:black;stroke-width:61.26px;"/>
            <g>
                <path d="M4565.276,8416.984L5073.236,8702.091C5073.236,8702.091 4986.1,9270.14 5073.236,9438.573C5073.236,9438.573 4975.4,9422.532 4939.556,9318.264L4565.276,9330.294L4190.997,9318.264C4155.153,9422.532 4057.317,9438.573 4057.317,9438.573C4144.453,9270.14 4057.317,8702.091 4057.317,8702.091L4565.276,8416.984Z" style="fill:rgb(112,37,28);"/>
                <g transform="matrix(1,0,0,1,2129.673966,643.766557)">
                    <path d="M1998.246,8156.599C1998.246,8156.599 1826.887,7896.933 1869.99,8221.778C1913.092,8546.623 2061.323,8591.302 2061.323,8591.302L1998.246,8156.599Z" style="fill:rgb(214,149,94);"/>
                </g>
                <g transform="matrix(-1,0,0,1,7000.87889,643.766557)">
                    <path d="M1998.246,8156.599C1998.246,8156.599 1826.887,7896.933 1869.99,8221.778C1913.092,8546.623 2061.323,8591.302 2061.323,8591.302L1998.246,8156.599Z" style="fill:rgb(214,149,94);"/>
                </g>
                <g transform="matrix(1,0,0,1,2124.210542,645.409218)">
                    <path d="M2441.066,8976.856C2433.146,8976.93 2311.966,8976.777 2202.782,8899.852C2089.852,8820.288 1884.524,8768.955 1943.555,8176.071L2055.459,7771.574L2441.066,7780.745L2824.619,7777.734L2938.576,8176.071C2997.608,8768.955 2792.28,8820.288 2679.35,8899.852C2570.166,8976.777 2448.986,8976.93 2441.066,8976.856Z" style="fill:rgb(221,159,107);"/>
                </g>
                <g transform="matrix(0.972431,0,0,0.972431,2156.948473,902.965932)">
                    <path d="M2036.48,8342.66C2015.612,8241.928 1969.266,8055.124 1907.418,8024.2C1907.418,8024.2 1977.224,7524.839 2476.606,7518.678C3026.713,7520.937 3045.794,8024.2 3045.794,8024.2C2983.945,8055.124 2937.599,8241.928 2916.732,8342.66C2927.313,8258.492 2922.715,8151.119 2888.102,8076.764C2843.751,7981.492 2802.685,7838.583 2802.685,7838.583C2543.151,7767.95 2476.606,7886.219 2476.606,7886.219C2476.606,7886.219 2410.061,7767.95 2150.526,7838.583C2150.526,7838.583 2109.46,7981.492 2065.11,8076.764C2030.496,8151.119 2025.898,8258.492 2036.48,8342.66Z" style="fill:rgb(112,37,28);"/>
                </g>
                <g transform="matrix(1,0,0,1,2111.232739,673.620049)">
                    <path d="M2142.302,8040.791C2142.302,8040.791 2251.464,8236.46 2381.823,8296.173C2381.823,8296.173 2225.103,8322.719 2142.302,8040.791Z" style="fill:rgb(81,56,28);"/>
                </g>
                <g transform="matrix(-1,0,0,1,7019.320116,673.620049)">
                    <path d="M2142.302,8040.791C2142.302,8040.791 2251.464,8236.46 2381.823,8296.173C2381.823,8296.173 2225.103,8322.719 2142.302,8040.791Z" style="fill:rgb(81,56,28);"/>
                </g>
            </g>
        </g>
    </g>
</svg>
