<?xml version="1.0" encoding="UTF-8" standalone="no"?>
<!DOCTYPE svg PUBLIC "-//W3C//DTD SVG 1.1//EN" "http://www.w3.org/Graphics/SVG/1.1/DTD/svg11.dtd">
<svg width="100%" height="100%" viewBox="0 0 198 202" version="1.1" xmlns="http://www.w3.org/2000/svg" xmlns:xlink="http://www.w3.org/1999/xlink" xml:space="preserve" xmlns:serif="http://www.serif.com/" style="fill-rule:evenodd;clip-rule:evenodd;stroke-linecap:round;stroke-linejoin:round;stroke-miterlimit:1.5;">
    <g transform="matrix(1,0,0,1,-899.049603,-13763.21211)">
        <g transform="matrix(1.411414,0,0,1.411414,-3219.669829,-3040.766843)">
            <g transform="matrix(0.540936,0,0,0.543939,1037.210422,5377.553258)">
                <path d="M3489.908,12107.94C3493.173,12046.842 3521.07,12007.182 3606.84,12007.187C3694.904,12007.192 3721.098,12059.724 3723.717,12094.591C3724.033,12098.791 3724.143,12103.301 3724.069,12108.039C3725.152,12108.422 3726.173,12109.084 3727.109,12110.082C3733.967,12117.397 3732.325,12144.378 3718.173,12158.705C3713.891,12180.24 3707.684,12201.022 3700.905,12215.515C3700.905,12215.515 3701.591,12208.473 3698.983,12198.79C3698.983,12198.79 3693.094,12213.349 3685.425,12223.892C3685.425,12223.892 3681.083,12217.472 3677.864,12208.476C3662.692,12228.726 3647.375,12242.282 3641.898,12247.139C3630.88,12256.911 3612.811,12258.402 3607.572,12258.629L3607.572,12258.67C3607.572,12258.67 3607.315,12258.67 3606.84,12258.656C3606.364,12258.67 3606.107,12258.67 3606.107,12258.67L3606.107,12258.629C3600.869,12258.402 3582.799,12256.911 3571.781,12247.139C3566.384,12242.353 3551.433,12229.121 3536.481,12209.361C3535.002,12214.587 3532.811,12220.195 3529.572,12225.07C3529.572,12225.07 3515.467,12211.398 3511.541,12199.722C3511.541,12199.722 3510.813,12207.116 3512.721,12215.432C3512.721,12215.432 3498.615,12192.92 3492.433,12155.154C3481.151,12140.306 3480.245,12116.829 3486.571,12110.082C3487.591,12108.993 3488.715,12108.304 3489.908,12107.94Z" style="stroke:black;stroke-width:10.88px;"/>
            </g>
            <g>
                <g transform="matrix(0.540936,0,0,0.543939,1037.210422,5377.553258)">
                    <path d="M3514.164,12123.953C3514.164,12123.953 3495.977,12100.048 3486.571,12110.082C3477.164,12120.116 3483.749,12167.149 3516.672,12167.776L3514.164,12123.953Z" style="fill:rgb(213,154,99);"/>
                </g>
                <g transform="matrix(-0.540936,0,0,0.543939,4939.351013,5377.553258)">
                    <path d="M3514.164,12123.953C3514.164,12123.953 3495.977,12100.048 3486.571,12110.082C3477.164,12120.116 3483.749,12167.149 3516.672,12167.776L3514.164,12123.953Z" style="fill:rgb(213,154,99);"/>
                </g>
                <g transform="matrix(0.790069,-0.065566,0.065566,0.790069,-640.662847,2613.069795)">
                    <path d="M3577.298,12235.607C3573.749,12235.156 3561.546,12233.117 3554.608,12225.814C3546.427,12217.202 3503.366,12171.988 3514.562,12116.009L3528,12089.312L3589.443,12095.294L3651.033,12099.522L3659.886,12128.069C3661.701,12185.128 3611.776,12222.625 3602.287,12229.771C3594.24,12235.83 3581.869,12235.83 3578.294,12235.69L3578.292,12235.718C3578.292,12235.718 3578.117,12235.703 3577.794,12235.667C3577.47,12235.65 3577.295,12235.635 3577.295,12235.635L3577.298,12235.607Z" style="fill:rgb(213,154,99);"/>
                </g>
                <g transform="matrix(0.159196,0,0,0.159196,2686.137442,10073.403588)">
                    <path d="M1831.466,12055.272C1831.466,12055.272 1865.681,11990.297 1772.64,11963.358C1679.6,11936.42 1666.994,11963.358 1666.994,11963.358C1666.994,11963.358 1810.457,11962.231 1831.466,12055.272Z" style="fill:rgb(72,72,103);"/>
                </g>
                <g transform="matrix(-0.159196,0,0,0.159196,3290.423992,10073.403588)">
                    <path d="M1831.466,12055.272C1831.466,12055.272 1865.681,11990.297 1772.64,11963.358C1679.6,11936.42 1666.994,11963.358 1666.994,11963.358C1666.994,11963.358 1810.457,11962.231 1831.466,12055.272Z" style="fill:rgb(72,72,103);"/>
                </g>
                <g transform="matrix(0.179745,-0.01343,0.01343,0.179745,2495.13489,9848.385316)">
                    <path d="M1864.131,11918.75C1864.131,11918.75 1858.729,11966.874 1844.923,11989.332C1844.923,11989.332 1846.723,11964.97 1840.12,11953.565C1840.12,11953.565 1828.715,11989.581 1814.309,12004.588C1814.309,12004.588 1793.9,11909.746 1729.072,11905.544C1729.072,11905.544 1700.362,12098.374 1645.26,12180.441C1645.26,12180.441 1646.995,12163.456 1633.79,12141.846C1633.79,12141.846 1627.187,12201.422 1596.423,12241.19C1596.423,12241.19 1557.286,12196.89 1548.162,12160.874C1548.162,12160.874 1544.32,12182.964 1548.162,12208.415C1548.162,12208.415 1481.569,12081.335 1502.672,11891.408C1523.774,11701.481 1614.607,11583.182 1876.658,11602.778C2140.211,11622.486 2206.791,11786.428 2206.791,11891.943C2206.791,11997.458 2159.692,12164.281 2111.331,12250.745C2111.331,12250.745 2114.965,12229.707 2109.338,12199.984C2109.338,12199.984 2088.441,12242.48 2063.118,12272.493C2063.118,12272.493 2028.415,12211.529 2039.67,12156.192C2039.67,12156.192 2001.23,12198.398 2005.919,12221.846C2005.919,12221.846 2003.105,11987.72 2040.622,11933.145C2040.622,11933.145 1992.788,12006.126 1969.341,12083.973C1969.341,12083.973 1958.086,12042.705 1933.7,12008.002C1933.7,12008.002 1930.886,12025.261 1918.131,12045.519C1918.131,12045.519 1864.155,11957.054 1864.131,11918.75Z" style="fill:rgb(56,56,80);"/>
                </g>
            </g>
        </g>
    </g>
</svg>
