<?xml version="1.0" encoding="UTF-8" standalone="no"?>
<!DOCTYPE svg PUBLIC "-//W3C//DTD SVG 1.1//EN" "http://www.w3.org/Graphics/SVG/1.1/DTD/svg11.dtd">
<svg width="100%" height="100%" viewBox="0 0 200 216" version="1.1" xmlns="http://www.w3.org/2000/svg" xmlns:xlink="http://www.w3.org/1999/xlink" xml:space="preserve" xmlns:serif="http://www.serif.com/" style="fill-rule:evenodd;clip-rule:evenodd;stroke-linecap:round;stroke-linejoin:round;stroke-miterlimit:1.5;">
    <g transform="matrix(1,0,0,1,-9331.35,-13225.2)">
        <g transform="matrix(0.274606,0,0,0.274606,7220.2,10118.9)">
            <path d="M8093,11386L8093,11386C8093,11353.4 8119.47,11326.9 8152.06,11326.9C8184.65,11326.9 8211.11,11353.4 8211.11,11386C8211.11,11418.6 8184.65,11445 8152.06,11445C8127.81,11445 8106.96,11430.4 8097.87,11409.5C8064.53,11424 8064.48,11457 8064.82,11463.7C8070.98,11464.4 8077.14,11465.5 8083.29,11467C8089.95,11477.8 8092.91,11489.1 8093,11500.7C8265.45,11518 8399.28,11640.9 8399.28,11789.7C8399.28,11950.3 8243.3,12080.7 8051.18,12080.7C7859.06,12080.7 7703.09,11950.3 7703.09,11789.7C7703.09,11641.4 7835.91,11518.9 8007.38,11500.9C8007.39,11489.6 8010.8,11478.3 8017.17,11467C8023.4,11465.5 8029.62,11464.4 8035.85,11463.7C8034.21,11418.7 8068.42,11396.3 8093,11386ZM8008.05,11500.8L8008.05,11500.8L8008.05,11500.8ZM8008.75,11500.8L8008.7,11500.8L8008.75,11500.8ZM8009.4,11500.7L8009.4,11500.7L8009.4,11500.7ZM8092.34,11500.6L8092.39,11500.7L8092.34,11500.6ZM8091.71,11500.6L8091.75,11500.6L8091.71,11500.6ZM8090.83,11500.5L8091.11,11500.5L8091.07,11500.5L8090.83,11500.5ZM8090.16,11500.4L8090.54,11500.5L8090.43,11500.5L8090.16,11500.4ZM8089.55,11500.4L8089.97,11500.4L8089.79,11500.4L8089.55,11500.4ZM8088.95,11500.3L8089.43,11500.4L8089.14,11500.3L8088.95,11500.3ZM8071.31,11499.1C8077.23,11499.4 8083.1,11499.8 8088.93,11500.3C8083.12,11499.8 8077.24,11499.4 8071.31,11499.1ZM8068.58,11499C8069.49,11499 8070.39,11499.1 8071.3,11499.1C8070.38,11499.1 8069.48,11499 8068.58,11499ZM8031.87,11499.1L8031.83,11499.1L8031.87,11499.1ZM8032.55,11499L8032.5,11499L8032.55,11499ZM8068.05,11499L8068.51,11499L8068.34,11499L8068.05,11499ZM8067.47,11498.9L8067.91,11499L8067.68,11499L8067.47,11498.9ZM8034.59,11499L8034.56,11499L8034.64,11499L8034.59,11499ZM8066.89,11498.9L8067.32,11498.9L8067.03,11498.9L8066.89,11498.9ZM8035.28,11498.9L8035.22,11498.9L8035.32,11498.9L8035.28,11498.9ZM8065.75,11498.9L8065.71,11498.9C8065.93,11498.9 8066.15,11498.9 8066.37,11498.9L8066.3,11498.9C8066.12,11498.9 8065.93,11498.9 8065.75,11498.9ZM8035.98,11498.9L8035.94,11498.9L8035.98,11498.9ZM8064.79,11498.9L8065.16,11498.9L8065.06,11498.9L8064.79,11498.9ZM8037.34,11498.9L8037.3,11498.9L8037.43,11498.9L8037.34,11498.9ZM8064.2,11498.8L8064.55,11498.8L8064.4,11498.8L8064.2,11498.8ZM8038.03,11498.8L8037.95,11498.8L8038.11,11498.8L8038.03,11498.8ZM8063.6,11498.8L8063.94,11498.8L8063.74,11498.8L8063.6,11498.8ZM8038.72,11498.8L8038.63,11498.8L8038.76,11498.8L8038.72,11498.8ZM8063,11498.8L8063.33,11498.8L8063.08,11498.8L8063,11498.8ZM8062.4,11498.8L8062.7,11498.8L8062.42,11498.8L8062.23,11498.8L8062.4,11498.8ZM8040.1,11498.8L8040.06,11498.8L8040.2,11498.8L8040.1,11498.8ZM8061.54,11498.8L8061.82,11498.8L8061.77,11498.8L8061.54,11498.8ZM8040.79,11498.8L8040.7,11498.8L8040.89,11498.8L8040.79,11498.8ZM8060.92,11498.7L8061.2,11498.8L8061.11,11498.7L8060.92,11498.7ZM8041.48,11498.7L8041.36,11498.7L8041.54,11498.7L8041.48,11498.7ZM8060.3,11498.7L8060.59,11498.7L8060.45,11498.7L8060.3,11498.7ZM8042.18,11498.7L8042.13,11498.7L8042.18,11498.7ZM8059.69,11498.7L8059.96,11498.7L8059.79,11498.7L8059.69,11498.7ZM8042.86,11498.7L8042.83,11498.7L8042.98,11498.7L8042.86,11498.7ZM8059.08,11498.7L8059.32,11498.7L8059.13,11498.7L8059.08,11498.7ZM8043.56,11498.7L8043.47,11498.7L8043.67,11498.7L8043.56,11498.7ZM8058.34,11498.7L8058.48,11498.7L8058.47,11498.7L8058.34,11498.7ZM8044.25,11498.7L8044.12,11498.7L8044.33,11498.7L8044.25,11498.7ZM8057.63,11498.7L8057.86,11498.7L8057.81,11498.7L8057.63,11498.7ZM8044.94,11498.7L8044.83,11498.7L8044.97,11498.7L8044.94,11498.7ZM8057,11498.7L8057.25,11498.7L8057.15,11498.7L8057,11498.7ZM8045.63,11498.7L8045.61,11498.7L8045.75,11498.7L8045.63,11498.7ZM8056.38,11498.7L8056.62,11498.7L8056.48,11498.7L8056.38,11498.7ZM8046.32,11498.7L8046.24,11498.7L8046.46,11498.7L8046.32,11498.7ZM8055.76,11498.7L8055.98,11498.7L8055.82,11498.7L8055.76,11498.7ZM8047.02,11498.7L8046.89,11498.7L8047.11,11498.7L8047.02,11498.7ZM8055.14,11498.7L8055.29,11498.7L8055.16,11498.7L8055.14,11498.7ZM8047.71,11498.6L8047.57,11498.6L8047.75,11498.6L8047.71,11498.6ZM8054.36,11498.6L8054.53,11498.6L8054.5,11498.6L8054.36,11498.6ZM8048.4,11498.6L8048.39,11498.6L8048.49,11498.6L8048.4,11498.6ZM8053.68,11498.6L8053.91,11498.6L8053.84,11498.6L8053.68,11498.6ZM8049.1,11498.6L8049.03,11498.6L8049.24,11498.6L8049.1,11498.6ZM8053.05,11498.6L8053.28,11498.6L8053.17,11498.6L8053.05,11498.6ZM8049.79,11498.6L8049.68,11498.6L8049.9,11498.6L8049.79,11498.6ZM8052.42,11498.6L8052.65,11498.6L8052.51,11498.6L8052.42,11498.6ZM8050.49,11498.6L8050.35,11498.6L8050.55,11498.6L8050.49,11498.6ZM8051.8,11498.6L8052,11498.6L8051.85,11498.6L8051.8,11498.6Z" style="stroke:black;stroke-width:30.35px;"/>
            <g>
                <path d="M8064.91,11464.9C8064.91,11464.9 8059.16,11411.8 8119.8,11403.6L8117.28,11378.4C8117.28,11378.4 8032.32,11394 8035.9,11464.9L8064.91,11464.9Z" style="fill:rgb(171,171,171);"/>
                <g transform="matrix(0.840971,0,0,0.994313,1251.51,121.08)">
                    <ellipse cx="8205.46" cy="11329.3" rx="70.223" ry="59.393" style="fill:rgb(255,0,223);"/>
                </g>
                <g transform="matrix(1.06253,0,0,1.02898,-501.746,-333.257)">
                    <ellipse cx="8049.62" cy="11781.5" rx="327.612" ry="282.851" style="fill:white;fill-opacity:0.95;"/>
                </g>
                <path d="M8007.38,11500.9C8007.39,11489.6 8010.8,11478.3 8017.17,11467C8039.21,11461.5 8061.25,11461.5 8083.29,11467C8089.95,11477.8 8092.91,11489.1 8093,11500.7C8079.31,11499.3 8065.34,11498.6 8051.18,11498.6C8036.35,11498.6 8021.74,11499.4 8007.38,11500.9Z" style="fill:rgb(197,197,197);"/>
                <path d="M7971.72,12047.5C7971.72,12047.5 7872.74,12005.3 7873.98,11920L7887.86,11692.2L8050.19,11626.6L8212.52,11692.2L8226.39,11920C8227.63,12005.3 8128.66,12047.5 8128.66,12047.5C8076.35,12067.5 8024.03,12067.8 7971.72,12047.5Z" style="fill:rgb(238,219,212);"/>
                <path d="M8114.3,11682.1C8114.3,11682.1 8106.32,11690.9 8093,11678.5C8079.69,11666.1 8040.43,11650.6 7979.47,11721.4C7918.51,11792.2 7876.15,11849 7910.25,11930.1C7910.25,11930.1 7821.56,11940.2 7778.17,11879.7C7734.79,11819.1 7781.2,11760.6 7819.54,11721.3C7857.88,11681.9 7947.93,11509.4 8078.46,11575C8078.46,11575 8099.11,11563.9 8135.79,11588.7C8172.47,11613.5 8314.48,11773.9 8296.32,11846.6C8278.16,11919.2 8241.83,11952.5 8222.66,11897C8203.49,11841.5 8202.25,11803.9 8175.81,11765.9C8149.36,11727.9 8115.19,11699.6 8114.3,11682.1Z" style="fill:rgb(233,149,185);"/>
                <path d="M8216.55,11756.9C8216.55,11756.9 8215.72,11715.2 8245.06,11717.2C8274.4,11719.3 8272.75,11771 8257.87,11808.2C8242.99,11845.4 8218.49,11904.9 8211.11,11870.2C8203.73,11835.4 8211.17,11804 8216.55,11756.9Z" style="fill:rgb(238,219,212);"/>
                <path d="M8075.62,11819.7C8086.79,11810.4 8126.4,11810.7 8153.65,11809C8186.29,11806.9 8178.85,11811.9 8175.13,11828.8C8171.41,11845.8 8150.75,11870.2 8110.25,11868.9C8080.56,11868 8074.19,11845.6 8072.91,11833.7C8049.45,11815.5 8022.81,11826.9 8015.5,11830.7C8014.94,11841.3 8010.31,11867.9 7977.92,11868.9C7937.42,11870.2 7916.75,11845.8 7913.03,11828.8C7909.31,11811.9 7901.88,11806.9 7934.52,11809C7961.89,11810.7 8001.74,11810.4 8012.7,11819.8C8036.89,11804.8 8066.45,11815.6 8075.62,11819.7ZM8000.26,11830.7C8000.26,11830.7 8002.32,11857.5 7973.5,11858.3C7944.67,11859.1 7929.97,11843.3 7927.32,11832.3C7924.67,11821.4 7919.38,11818.2 7942.61,11819.5C7965.85,11820.9 8001.73,11820.3 8000.26,11830.7ZM8087.91,11830.7C8087.91,11830.7 8085.85,11857.5 8114.67,11858.3C8143.5,11859.1 8158.2,11843.3 8160.85,11832.3C8163.5,11821.4 8168.79,11818.2 8145.56,11819.5C8122.32,11820.9 8086.44,11820.3 8087.91,11830.7Z" style="fill:rgb(219,90,145);"/>
            </g>
        </g>
    </g>
</svg>
