<?xml version="1.0" encoding="UTF-8" standalone="no"?>
<!DOCTYPE svg PUBLIC "-//W3C//DTD SVG 1.1//EN" "http://www.w3.org/Graphics/SVG/1.1/DTD/svg11.dtd">
<svg width="100%" height="100%" viewBox="0 0 234 257" version="1.1" xmlns="http://www.w3.org/2000/svg" xmlns:xlink="http://www.w3.org/1999/xlink" xml:space="preserve" xmlns:serif="http://www.serif.com/" style="fill-rule:evenodd;clip-rule:evenodd;stroke-linecap:round;stroke-linejoin:round;stroke-miterlimit:1.5;">
    <g transform="matrix(1,0,0,1,-9515.23,-13436.8)">
        <g transform="matrix(1,0,0,1,1860.2,698.237)">
            <path d="M7727.48,12756.4C7728.23,12755.7 7729,12755.1 7729.79,12754.6C7731.21,12753.5 7732.68,12752.5 7734.21,12751.7C7738.46,12749.2 7743.1,12747.3 7747.91,12746.2C7749.85,12745.8 7751.83,12745.5 7753.82,12745.3C7754.48,12745.2 7755.14,12745.2 7755.8,12745.2C7756.01,12745.2 7756.22,12745.2 7756.42,12745.2C7756.49,12745.2 7756.56,12745.2 7756.62,12745.2C7756.65,12745.2 7756.67,12745.2 7756.69,12745.2C7756.7,12745.2 7756.71,12745.2 7756.72,12745.2C7756.8,12745.2 7756.88,12745.1 7756.95,12745.1C7757.11,12745.1 7757.27,12745 7757.43,12745C7757.86,12744.9 7758.29,12744.8 7758.72,12744.7C7760.05,12744.4 7761.39,12744.1 7762.74,12743.9C7767.31,12743 7771.96,12742.6 7776.61,12742.7C7779.99,12742.8 7783.36,12743.2 7786.66,12743.9C7790,12744.6 7793.27,12745.7 7796.39,12747.1C7798.07,12747.8 7799.69,12748.7 7801.27,12749.6C7802.86,12750.6 7804.39,12751.6 7805.86,12752.8C7807.46,12754 7809,12755.3 7810.46,12756.7C7811.32,12757.5 7812.15,12758.4 7812.96,12759.2L7813,12759.3C7815.74,12760.6 7818.24,12762.2 7818.99,12764C7818.99,12764 7833.11,12765.2 7841.18,12762C7849.25,12758.9 7852.78,12762.2 7835.76,12777.3C7835.76,12777.3 7841.7,12780.6 7828.68,12784.7C7841.23,12814.6 7843.43,12851.8 7846.29,12866.4C7851.83,12894.7 7882.3,12919.3 7884.06,12936C7885.82,12952.6 7868.14,12968 7868.14,12968C7867.83,12958.4 7859.83,12949.2 7859.83,12949.2C7860.45,12960 7852.14,12964.9 7852.14,12964.9C7849.98,12946.7 7838.59,12921.8 7838.59,12921.8C7840.13,12933.2 7837.05,12952 7829.05,12957.2C7821.04,12962.4 7818.58,12976 7818.58,12976C7815.19,12971.7 7813.65,12958.4 7813.65,12958.4C7806.57,12976.3 7809.04,12990.4 7809.04,12990.4C7795.19,12981.8 7801.96,12945.2 7801.96,12945.2C7795.19,12941.8 7787.8,12929.2 7787.8,12929.2C7793.03,12962.7 7774.87,12976 7774.87,12976C7786.57,12963.1 7772.4,12936 7772.4,12936C7767.48,12949.5 7770.25,12960 7770.25,12960C7761.63,12943.7 7761.63,12932 7761.63,12932C7760.09,12949.2 7749.32,12964.3 7749.32,12964.3C7761.63,12945.5 7734.23,12917.5 7734.23,12917.5C7746.24,12954.4 7726.84,12962.7 7726.84,12962.7C7728.69,12951.4 7721.61,12940.9 7716.07,12934.1C7710.53,12927.3 7704.37,12918.6 7704.37,12918.6C7689.9,12933.7 7688.67,12945.7 7688.67,12945.7C7686.21,12923.2 7689.29,12907.2 7689.29,12907.2C7684.36,12914 7684.06,12919.8 7680.98,12934C7678.83,12943.8 7679.08,12953.1 7679.43,12957.8C7679.57,12958.8 7679.68,12959.8 7679.74,12961C7679.74,12961 7679.57,12959.9 7679.43,12957.8C7678.25,12950.2 7674.48,12950.3 7666.82,12936.1C7658.2,12920.1 7652.96,12898.2 7673.28,12883.5C7693.6,12868.7 7696.06,12861.6 7696.06,12861.6C7697.59,12838.1 7694.71,12826 7708.45,12785.9C7690.15,12781.2 7697.24,12777.3 7697.24,12777.3C7680.22,12762.2 7683.75,12758.9 7691.82,12762C7699.89,12765.2 7714.01,12764 7714.01,12764C7715.51,12760.4 7723.98,12757.5 7727.43,12756.4L7727.48,12756.4Z" style="stroke:black;stroke-width:8.33px;"/>
            <g>
                <path d="M7756.72,12745.2C7756.72,12745.2 7723.03,12743.8 7708.84,12784.8C7694.66,12825.8 7697.6,12837.9 7696.06,12861.6C7696.06,12861.6 7693.6,12868.7 7673.28,12883.5C7652.96,12898.2 7658.2,12920.1 7666.82,12936.1C7675.44,12952.1 7679.13,12950 7679.74,12961C7679.74,12961 7677.9,12948.1 7680.98,12934C7684.06,12919.8 7684.36,12914 7689.29,12907.2C7689.29,12907.2 7686.21,12923.2 7688.67,12945.7C7688.67,12945.7 7689.9,12933.7 7704.37,12918.6C7704.37,12918.6 7710.53,12927.3 7716.07,12934.1C7721.61,12940.9 7728.69,12951.4 7726.84,12962.7C7726.84,12962.7 7746.24,12954.4 7734.23,12917.5C7734.23,12917.5 7761.63,12945.5 7749.32,12964.3C7749.32,12964.3 7760.09,12949.2 7761.63,12932C7761.63,12932 7761.63,12943.7 7770.25,12960C7770.25,12960 7767.48,12949.5 7772.4,12936C7772.4,12936 7786.57,12963.1 7774.87,12976C7774.87,12976 7793.03,12962.7 7787.8,12929.2C7787.8,12929.2 7795.19,12941.8 7801.96,12945.2C7801.96,12945.2 7795.19,12981.8 7809.04,12990.4C7809.04,12990.4 7806.57,12976.3 7813.65,12958.4C7813.65,12958.4 7815.19,12971.7 7818.58,12976C7818.58,12976 7821.04,12962.4 7829.05,12957.2C7837.05,12952 7840.13,12933.2 7838.59,12921.8C7838.59,12921.8 7849.98,12946.7 7852.14,12964.9C7852.14,12964.9 7860.45,12960 7859.83,12949.2C7859.83,12949.2 7867.83,12958.4 7868.14,12968C7868.14,12968 7885.82,12952.6 7884.06,12936C7882.3,12919.3 7851.83,12894.7 7846.29,12866.4C7840.74,12838.1 7837.69,12724.6 7756.72,12745.2Z" style="fill:rgb(191,182,224);"/>
                <clipPath id="_clip1">
                    <path d="M7756.72,12745.2C7756.72,12745.2 7723.03,12743.8 7708.84,12784.8C7694.66,12825.8 7697.6,12837.9 7696.06,12861.6C7696.06,12861.6 7693.6,12868.7 7673.28,12883.5C7652.96,12898.2 7658.2,12920.1 7666.82,12936.1C7675.44,12952.1 7679.13,12950 7679.74,12961C7679.74,12961 7677.9,12948.1 7680.98,12934C7684.06,12919.8 7684.36,12914 7689.29,12907.2C7689.29,12907.2 7686.21,12923.2 7688.67,12945.7C7688.67,12945.7 7689.9,12933.7 7704.37,12918.6C7704.37,12918.6 7710.53,12927.3 7716.07,12934.1C7721.61,12940.9 7728.69,12951.4 7726.84,12962.7C7726.84,12962.7 7746.24,12954.4 7734.23,12917.5C7734.23,12917.5 7761.63,12945.5 7749.32,12964.3C7749.32,12964.3 7760.09,12949.2 7761.63,12932C7761.63,12932 7761.63,12943.7 7770.25,12960C7770.25,12960 7767.48,12949.5 7772.4,12936C7772.4,12936 7786.57,12963.1 7774.87,12976C7774.87,12976 7793.03,12962.7 7787.8,12929.2C7787.8,12929.2 7795.19,12941.8 7801.96,12945.2C7801.96,12945.2 7795.19,12981.8 7809.04,12990.4C7809.04,12990.4 7806.57,12976.3 7813.65,12958.4C7813.65,12958.4 7815.19,12971.7 7818.58,12976C7818.58,12976 7821.04,12962.4 7829.05,12957.2C7837.05,12952 7840.13,12933.2 7838.59,12921.8C7838.59,12921.8 7849.98,12946.7 7852.14,12964.9C7852.14,12964.9 7860.45,12960 7859.83,12949.2C7859.83,12949.2 7867.83,12958.4 7868.14,12968C7868.14,12968 7885.82,12952.6 7884.06,12936C7882.3,12919.3 7851.83,12894.7 7846.29,12866.4C7840.74,12838.1 7837.69,12724.6 7756.72,12745.2Z"/>
                </clipPath>
                <g clip-path="url(#_clip1)">
                    <g transform="matrix(1,0,0,1,243.074,-16.6458)">
                        <path d="M7470.26,12857.1C7470.26,12857.1 7465.69,12878.9 7461.88,12890C7458.07,12901.1 7447.9,12917.3 7461.57,12935.7C7475.24,12954.1 7479.88,13007.1 7479.88,13007.1L7600.41,13022.6C7600.41,13022.6 7579.71,13012.9 7573.88,13007.1C7568.05,13001.3 7607.21,12985.6 7602.06,12978.5C7602.06,12978.5 7595.38,12958.6 7596.36,12942.7C7596.99,12932.6 7583.09,12936.2 7566.73,12925.5C7550.36,12914.7 7553.57,12889.8 7562.31,12868.4L7470.26,12857.1Z" style="fill:rgb(190,168,216);"/>
                    </g>
                </g>
                <g transform="matrix(-0.400348,-3.89603e-17,-3.89603e-17,-0.718483,10983,22120.1)">
                    <path d="M7970.73,12820.9L8098.01,12820.9L8098.01,12840.3C8098.01,12843.9 8069.5,12846.7 8034.37,12846.7C7999.25,12846.7 7970.73,12843.9 7970.73,12840.3L7970.73,12820.9Z" style="fill:rgb(45,37,54);"/>
                </g>
                <g transform="matrix(-0.400348,-3.89603e-17,-3.89603e-17,-0.718483,10983,22120.1)">
                    <path d="M8100.27,12820.6L8100.23,12820.6C8100.26,12820.7 8100.27,12820.8 8100.27,12820.9C8100.27,12824.7 8070.74,12827.9 8034.37,12827.9C7998,12827.9 7968.48,12824.7 7968.48,12820.9C7968.48,12820.8 7968.49,12820.7 7968.51,12820.6L7968.48,12820.6L7968.48,12813.9L7968.48,12813.9C7969.07,12813.9 8100.75,12813.9 8100.27,12813.9L8100.27,12820.6Z" style="fill:rgb(241,225,192);"/>
                </g>
                <path d="M7766.46,12909.7C7765.71,12909.7 7753.32,12910.1 7734.47,12887.2C7715.02,12863.6 7726.1,12793.7 7726.1,12793.7L7760.58,12771.2L7766.5,12773L7772.42,12771.2L7806.9,12793.7C7806.9,12793.7 7817.98,12863.6 7798.53,12887.2C7779.07,12910.9 7766.5,12909.6 7766.5,12909.6L7766.46,12909.7Z" style="fill:rgb(255,235,227);"/>
                <g transform="matrix(1,0,0,1,249.101,2.50414)">
                    <path d="M7482.31,12835.9C7482.31,12835.9 7490.63,12833 7503.87,12835L7503.75,12831.1C7503.75,12831.1 7491.27,12828.5 7482.31,12835.9" style="fill:rgb(173,166,198);"/>
                </g>
                <path d="M7711.43,12843.6C7711.43,12843.6 7721.52,12880.9 7745.1,12868.7C7745.1,12868.7 7729.84,12870.5 7724.54,12851.4C7719.25,12832.4 7735.77,12818.6 7742.83,12789.1C7742.83,12789.1 7743.14,12813.1 7746.14,12824.6C7749.13,12836.1 7756.76,12850.4 7766.5,12859.6C7776.24,12868.7 7791.69,12872 7786.96,12890.5C7786.96,12890.5 7794.05,12882.4 7785.38,12853.6C7785.38,12853.6 7795.31,12864.3 7798.31,12870.4C7798.31,12870.4 7792.32,12888.1 7801.14,12898.3L7817.22,12851.1L7813.19,12789.8L7793.58,12768L7732.58,12770.2L7711.43,12843.6Z" style="fill:rgb(191,182,224);"/>
                <path d="M7758.49,12790.9C7758.49,12790.9 7762.65,12787.6 7762.65,12784.5C7762.65,12781.3 7755.97,12774.5 7753.95,12786.9C7753.95,12786.9 7742.48,12775.8 7735.79,12785.1C7735.79,12785.1 7738.32,12787.5 7740.08,12789.9C7740.08,12789.9 7734.66,12798.2 7717.13,12799.2C7717.13,12799.2 7716.38,12794.4 7720.41,12790.3C7720.41,12790.3 7728.61,12790.6 7732.14,12788.8C7732.14,12788.8 7728.1,12788 7726.34,12784.6C7726.34,12784.6 7734.15,12767.8 7750.17,12776C7750.17,12776 7753.32,12769.1 7758.74,12768.5C7758.74,12768.5 7760.39,12760 7766.5,12756L7766.64,12756.1C7772.64,12760.1 7774.26,12768.5 7774.26,12768.5C7779.68,12769.1 7782.83,12776 7782.83,12776C7798.85,12767.8 7806.66,12784.6 7806.66,12784.6C7804.9,12788 7800.86,12788.8 7800.86,12788.8C7804.39,12790.6 7812.59,12790.3 7812.59,12790.3C7816.62,12794.4 7815.87,12799.2 7815.87,12799.2C7798.34,12798.2 7792.92,12789.9 7792.92,12789.9C7794.68,12787.5 7797.21,12785.1 7797.21,12785.1C7790.52,12775.8 7779.05,12786.9 7779.05,12786.9C7777.03,12774.5 7770.35,12781.3 7770.35,12784.5C7770.35,12787.6 7774.51,12790.9 7774.51,12790.9L7766.5,12799.6L7758.49,12790.9Z" style="fill:rgb(46,46,46);"/>
                <g transform="matrix(1,0,0,1,-0.803398,1.7101)">
                    <path d="M7729.69,12754.3C7729.69,12754.3 7716.71,12757.8 7714.82,12762.3C7714.82,12762.3 7700.69,12763.5 7692.62,12760.3C7684.55,12757.2 7681.02,12760.4 7698.05,12775.6C7698.05,12775.6 7690.35,12779.9 7711.66,12784.8L7712.42,12792.8C7712.42,12792.8 7718.47,12779.1 7725.15,12770.7C7725.15,12770.7 7724.15,12770.2 7721.25,12770.3C7721.25,12770.3 7724.4,12762.7 7729.69,12754.3Z" style="fill:rgb(46,46,46);"/>
                </g>
                <g transform="matrix(-1,0,0,1,15533.8,1.7101)">
                    <path d="M7729.69,12754.3C7729.69,12754.3 7716.71,12757.8 7714.82,12762.3C7714.82,12762.3 7700.69,12763.5 7692.62,12760.3C7684.55,12757.2 7681.02,12760.4 7698.05,12775.6C7698.05,12775.6 7690.35,12779.9 7711.66,12784.8L7712.42,12792.8C7712.42,12792.8 7718.47,12779.1 7725.15,12770.7C7725.15,12770.7 7724.15,12770.2 7721.25,12770.3C7721.25,12770.3 7724.4,12762.7 7729.69,12754.3Z" style="fill:rgb(46,46,46);"/>
                </g>
            </g>
        </g>
    </g>
</svg>
