<?xml version="1.0" encoding="UTF-8" standalone="no"?>
<!DOCTYPE svg PUBLIC "-//W3C//DTD SVG 1.1//EN" "http://www.w3.org/Graphics/SVG/1.1/DTD/svg11.dtd">
<svg width="100%" height="100%" viewBox="0 0 187 205" version="1.1" xmlns="http://www.w3.org/2000/svg" xmlns:xlink="http://www.w3.org/1999/xlink" xml:space="preserve" xmlns:serif="http://www.serif.com/" style="fill-rule:evenodd;clip-rule:evenodd;stroke-linecap:square;stroke-miterlimit:1.5;">
    <g transform="matrix(1,0,0,1,-8534.78,-13639.8)">
        <g transform="matrix(0.568938,0,0,0.568938,3365.85,13348.5)">
            <path d="M9162.18,569.375C9177.3,543.256 9210.51,525.106 9249,525.106C9287.5,525.106 9320.71,543.261 9335.83,569.382C9372.75,593.745 9388.8,632.801 9393.82,668.319C9393.94,668.412 9394,668.46 9394,668.46C9405.47,688.139 9395.67,706.84 9395.67,706.84C9395.54,706.722 9395.42,706.605 9395.29,706.491C9395.03,710.38 9394.66,714.093 9394.18,717.591C9386.47,774.32 9325.19,799.281 9325.19,799.281L9324.64,799.118C9321.3,827.786 9305.01,859.536 9249,858.511C9193.42,859.302 9177.08,827.622 9173.6,799.045L9172.81,799.281C9172.81,799.281 9111.53,774.32 9103.82,717.591C9103.34,714.091 9102.97,710.378 9102.71,706.491C9102.59,706.605 9102.46,706.722 9102.33,706.84C9102.33,706.84 9092.53,688.139 9104,668.46C9104,668.46 9104.06,668.412 9104.18,668.319C9109.2,632.794 9125.26,593.743 9162.18,569.375Z" style="stroke:black;stroke-width:14.65px;"/>
            <g>
                <path d="M9172.81,799.281C9172.81,799.281 9111.53,774.32 9103.82,717.591C9096.1,660.863 9114.62,548.086 9249,545.363L9249.79,545.38C9383.45,548.537 9401.88,660.976 9394.18,717.591C9386.47,774.32 9325.19,799.281 9325.19,799.281L9249,776.5L9172.81,799.281Z" style="fill:rgb(235,235,235);"/>
                <clipPath id="_clip1">
                    <path d="M9172.81,799.281C9172.81,799.281 9111.53,774.32 9103.82,717.591C9096.1,660.863 9114.62,548.086 9249,545.363L9249.79,545.38C9383.45,548.537 9401.88,660.976 9394.18,717.591C9386.47,774.32 9325.19,799.281 9325.19,799.281L9249,776.5L9172.81,799.281Z"/>
                </clipPath>
                <g clip-path="url(#_clip1)">
                    <g transform="matrix(1,0,0,1,4.72342,0.907664)">
                        <ellipse cx="9389.28" cy="697.623" rx="24.507" ry="90.312" style="fill:rgb(194,71,47);"/>
                    </g>
                    <g transform="matrix(1,0,0,1,-285.277,0.907664)">
                        <ellipse cx="9389.28" cy="697.623" rx="24.507" ry="90.312" style="fill:rgb(194,71,47);"/>
                    </g>
                    <g transform="matrix(1,0,0,1,2.99552,4.5383)">
                        <ellipse cx="9246.09" cy="603.68" rx="85.093" ry="76.244" style="fill:rgb(194,71,47);"/>
                    </g>
                </g>
                <path d="M9249,858.511C9148.22,859.945 9176.45,754.62 9176.45,754.62C9196.68,719.731 9302.44,720.426 9321.55,754.62C9321.55,754.62 9350.49,860.369 9249,858.511Z" style="fill:rgb(255,215,152);"/>
                <path d="M9249,652.694C9249,652.694 9153.79,659.642 9102.33,706.84C9102.33,706.84 9092.53,688.139 9104,668.46C9104,668.46 9155.5,627.109 9249,619.93L9249,652.694ZM9249,652.694C9249,652.694 9344.21,659.642 9395.67,706.84C9395.67,706.84 9405.47,688.139 9394,668.46C9394,668.46 9342.5,627.109 9249,619.93L9249,652.694Z" style="fill:rgb(193,176,89);"/>
                <g transform="matrix(0.943295,0,0,0.882483,522.921,129.122)">
                    <ellipse cx="9250.63" cy="556.167" rx="92.808" ry="79.167" style="fill:rgb(152,152,152);"/>
                </g>
                <g transform="matrix(1.02934,0,0,0.959872,-273.043,67.247)">
                    <ellipse cx="9250.63" cy="556.167" rx="92.808" ry="79.167" style="fill:rgb(165,165,165);"/>
                </g>
                <g transform="matrix(0.896371,0,0,0.835877,957,136.209)">
                    <ellipse cx="9250.63" cy="556.167" rx="92.808" ry="79.167" style="fill:rgb(232,215,164);"/>
                </g>
            </g>
        </g>
    </g>
</svg>
