<?xml version="1.0" encoding="UTF-8" standalone="no"?>
<!DOCTYPE svg PUBLIC "-//W3C//DTD SVG 1.1//EN" "http://www.w3.org/Graphics/SVG/1.1/DTD/svg11.dtd">
<svg width="100%" height="100%" viewBox="0 0 202 201" version="1.1" xmlns="http://www.w3.org/2000/svg" xmlns:xlink="http://www.w3.org/1999/xlink" xml:space="preserve" xmlns:serif="http://www.serif.com/" style="fill-rule:evenodd;clip-rule:evenodd;stroke-linecap:round;stroke-linejoin:round;stroke-miterlimit:1.5;">
    <g transform="matrix(1,0,0,1,-2303.339255,-13361.137276)">
        <g transform="matrix(0.32668,0,0,0.256835,2118.354736,11060.924193)">
            <path d="M599.457,9314.605C588.235,9274.462 587.774,9170.923 628.321,9110.345C668.896,9049.728 717.903,9057.58 726.507,9058.362C728.25,9058.521 730.364,9059.316 732.328,9060.652C737.01,9058.128 741.913,9055.775 747.047,9053.602C747.045,9036.798 748.638,9017.214 755.551,9011.288C774.977,8994.638 793.437,8966.069 847.822,8973.402C902.206,8980.735 1006.086,9010.459 1023.196,9057.62C1023.874,9059.489 1024.585,9061.354 1025.322,9063.212C1032.772,9067.541 1039.638,9072.327 1045.973,9077.531C1043.57,9068.796 1047.539,9067.381 1065.97,9073.921C1103.856,9087.365 1145.408,9133.194 1148.464,9180.857C1151.519,9228.52 1153.352,9270.072 1146.019,9310.402C1146.019,9310.402 1145.955,9310.392 1145.833,9310.375C1153.653,9323.036 1168.423,9350.59 1168.782,9378.595C1169.231,9413.563 1165.156,9486.358 1118.099,9485.368C1101.051,9553.591 1068.41,9603.589 1033.356,9649.743C976.069,9725.171 876.772,9722.307 876.772,9722.307L876.307,9722.307C876.307,9722.307 777.01,9725.171 719.723,9649.743C684.602,9603.502 651.904,9553.402 634.883,9484.981C582.96,9491.558 578.576,9414.801 579.04,9378.595C579.363,9353.39 591.36,9328.55 599.457,9314.605Z" style="stroke:black;stroke-width:28.36px;"/>
            <g>
                <path d="M606.736,9303.167C606.736,9303.167 579.529,9340.464 579.04,9378.595C578.551,9416.725 583.44,9499.829 643.568,9483.208L657.745,9298.912L606.736,9303.167Z" style="fill:rgb(197,149,107);"/>
                <g transform="matrix(-1,0,0,1,1747.822531,0)">
                    <path d="M606.736,9303.167C606.736,9303.167 579.529,9340.464 579.04,9378.595C578.551,9416.725 583.44,9499.829 643.568,9483.208L657.745,9298.912L606.736,9303.167Z" style="fill:rgb(197,149,107);"/>
                </g>
                <path d="M876.772,9722.307L876.307,9722.307C876.307,9722.307 777.01,9725.171 719.723,9649.743C662.436,9574.315 611.593,9488.624 624.722,9329.891C637.811,9171.628 652.492,9024.043 876.54,9036.183C1100.587,9024.043 1115.268,9171.628 1128.357,9329.891C1141.486,9488.624 1090.643,9574.315 1033.356,9649.743C976.069,9725.171 876.772,9722.307 876.772,9722.307Z" style="fill:rgb(202,155,114);"/>
                <path d="M628.713,9423.141C628.713,9423.141 619.547,9332.093 637.267,9256.933C654.988,9181.772 680.653,9115.778 716.705,9095.613C752.758,9075.448 735.11,9059.144 726.507,9058.362C717.903,9057.58 668.896,9049.728 628.321,9110.345C587.747,9170.962 588.236,9274.598 599.479,9314.684C599.479,9314.684 617.805,9308.028 618.056,9322.795C618.306,9337.562 615.654,9403.129 628.713,9423.141Z" style="fill:rgb(88,96,104);"/>
                <path d="M1113.633,9423.141C1113.633,9423.141 1117.91,9337.9 1102.634,9259.684C1087.357,9181.468 1079.414,9177.191 1065.359,9128.917C1051.305,9080.643 1028.085,9060.478 1065.97,9073.921C1103.856,9087.365 1145.408,9133.194 1148.464,9180.857C1151.519,9228.52 1153.352,9270.072 1146.019,9310.402C1146.019,9310.402 1127.076,9307.347 1127.687,9324.456C1128.299,9341.566 1127.687,9387.393 1113.633,9423.141Z" style="fill:rgb(88,96,104);"/>
                <path d="M748.219,9080.338C748.219,9080.338 742.719,9022.287 755.551,9011.288C774.977,8994.638 793.437,8966.069 847.822,8973.402C902.206,8980.735 1006.086,9010.459 1023.196,9057.62C1040.306,9104.78 1078.192,9148.776 1025.029,9151.832C971.867,9154.887 876.541,9146.332 844.155,9154.276C811.769,9162.22 749.441,9173.219 748.219,9080.338Z" style="fill:rgb(88,96,104);"/>
                <path d="M764.584,9325.637C764.584,9325.637 808.697,9324.073 822.151,9329.704C835.604,9335.336 847.493,9325.637 844.677,9310.619C841.861,9295.602 828.095,9280.272 780.227,9282.775C732.359,9285.277 683.552,9283.4 684.804,9308.117C686.055,9332.833 708.894,9328.453 764.584,9325.637Z" style="fill:rgb(88,96,104);"/>
                <g transform="matrix(-1,0,0,1,1755.966091,0)">
                    <path d="M764.584,9325.637C764.584,9325.637 808.697,9324.073 822.151,9329.704C835.604,9335.336 847.493,9325.637 844.677,9310.619C841.861,9295.602 828.095,9280.272 780.227,9282.775C732.359,9285.277 683.552,9283.4 684.804,9308.117C686.055,9332.833 708.894,9328.453 764.584,9325.637Z" style="fill:rgb(88,96,104);"/>
                </g>
            </g>
        </g>
    </g>
</svg>
