<?xml version="1.0" encoding="UTF-8" standalone="no"?>
<!DOCTYPE svg PUBLIC "-//W3C//DTD SVG 1.1//EN" "http://www.w3.org/Graphics/SVG/1.1/DTD/svg11.dtd">
<svg width="100%" height="100%" viewBox="0 0 202 202" version="1.1" xmlns="http://www.w3.org/2000/svg" xmlns:xlink="http://www.w3.org/1999/xlink" xml:space="preserve" xmlns:serif="http://www.serif.com/" style="fill-rule:evenodd;clip-rule:evenodd;stroke-linecap:round;stroke-linejoin:round;stroke-miterlimit:1.5;">
    <g transform="matrix(1,0,0,1,-1299.045932,-13762.432513)">
        <g transform="matrix(0.279084,0,0,0.311998,1155.887391,11238.753815)">
            <g transform="matrix(1,0,0,0.772296,0,1844.886317)">
                <path d="M585.828,8495.619C574.603,8507.286 544.558,8539.612 527.888,8568.049C527.888,8568.049 547.289,8527.171 556.455,8491.125C565.621,8455.079 576.315,8356.545 590.064,8312.243C603.813,8267.941 626.727,8203.779 653.461,8180.864C680.195,8157.95 753.523,8100.663 795.533,8109.065C795.533,8109.065 883.373,8088.441 902.469,8118.231C902.469,8118.231 987.254,8096.843 1023.154,8125.869C1059.054,8154.894 1110.23,8172.462 1133.909,8256.483C1157.024,8338.504 1191.888,8514.422 1216.578,8557.57C1210.419,8547.87 1188.444,8515.971 1152.149,8492.305C1167.109,8515.234 1174.681,8549.018 1159.527,8598.209C1158.986,8599.966 1158.432,8601.677 1157.867,8603.343C1169.735,8638.235 1159.491,8664.357 1159.491,8664.357C1157.634,8650.741 1152.173,8637.282 1147.235,8627.313C1138.511,8642.265 1128.033,8651.041 1116.119,8655.691C1109.349,8684.527 1101.655,8715.508 1093.109,8747.22C1093.109,8747.22 1094.511,8729.853 1093.729,8716.948C1093.729,8716.948 1088.254,8737.284 1081.606,8749.407C1081.606,8749.407 1085.836,8712.469 1091.013,8660.09C1084.637,8660.151 1077.991,8659.604 1071.11,8658.658C1050.611,8736.243 1022.552,8798.237 1001.397,8811.367C973.044,8828.966 927.092,8871.496 909.982,8887.628C895.424,8901.354 875.203,8901.985 869.496,8901.868C863.789,8901.985 843.568,8901.354 829.009,8887.628C811.9,8871.496 765.948,8828.966 737.594,8811.367C718.803,8799.704 694.563,8749.484 675.015,8684.029C675.489,8700.963 672.402,8726.258 655.258,8751.553C655.258,8751.553 645.204,8699.663 631.965,8649.506C628.411,8647.717 625.059,8645.841 621.898,8643.887C621.55,8667.325 621.378,8703.17 622.505,8741.776C622.505,8741.776 608.817,8695.335 606.373,8665.515C606.373,8665.515 593.585,8699.882 592.646,8731.794C592.646,8731.794 589.819,8697.698 588.247,8648.666C581.81,8659.281 577.149,8669.245 577.149,8669.245C574.5,8654.109 580.756,8625.851 585.904,8606.526C565.882,8568.861 575.895,8523.578 585.828,8495.619ZM1216.578,8557.57C1217.766,8559.442 1218.366,8560.487 1218.366,8560.487C1217.776,8559.596 1217.18,8558.622 1216.578,8557.57Z" style="stroke:black;stroke-width:31.96px;"/>
            </g>
            <g>
                <g transform="matrix(1,0,0,0.772296,0,1844.886317)">
                    <path d="M591.815,8586.141C591.815,8586.141 572.872,8644.803 577.149,8669.245C577.149,8669.245 594.87,8631.359 608.924,8624.638L767.189,8631.359L1119.772,8599.584L1138.104,8611.194C1138.104,8611.194 1155.825,8637.47 1159.491,8664.357C1159.491,8664.357 1171.712,8633.193 1153.992,8593.474L591.815,8586.141" style="fill:rgb(100,77,63);"/>
                </g>
                <g transform="matrix(1,0,0,0.772296,0,1844.886317)">
                    <path d="M597.159,8469.313C597.159,8469.313 509.319,8629.717 678.316,8665.044L597.159,8469.313Z" style="fill:rgb(201,161,126);"/>
                </g>
                <g transform="matrix(1,0,0,0.772296,0,1844.886317)">
                    <path d="M1086.391,8446.933C1086.391,8446.933 1198.635,8471.261 1159.527,8598.209C1136.347,8673.453 1090.782,8664.089 1035.405,8651.677" style="fill:rgb(201,161,126);"/>
                </g>
                <g transform="matrix(1,0,0,0.772296,0,1844.886317)">
                    <path d="M869.496,8901.868C863.789,8901.985 843.568,8901.354 829.009,8887.628C811.9,8871.496 765.948,8828.966 737.594,8811.367C709.241,8793.769 668.483,8688.391 650.151,8575.344L696.936,8331.683L862.664,8217.944L862.591,8208.516L869.496,8213.255L876.401,8208.516L876.328,8217.944L1022.96,8228.567L1110.229,8441.666L1088.84,8575.344C1070.509,8688.391 1029.751,8793.769 1001.397,8811.367C973.044,8828.966 927.092,8871.496 909.982,8887.628C895.424,8901.354 875.203,8901.985 869.496,8901.868Z" style="fill:rgb(216,173,134);"/>
                </g>
                <g transform="matrix(1,0,0,0.772296,0,1844.886317)">
                    <path d="M955.735,8264.555C955.735,8264.555 930.444,8263.84 900.721,8260.711C900.721,8260.711 876.768,8290.14 846.459,8326.804C846.459,8326.804 821.528,8394.265 822.506,8433.373C822.506,8433.373 814.195,8397.687 809.307,8360.534C809.307,8360.534 771.665,8418.707 745.756,8463.682C745.756,8463.682 738.423,8404.042 740.379,8358.579C740.379,8358.579 720.794,8482.105 672.673,8553.141C672.673,8553.141 700.171,8652.057 682.603,8702.469C682.603,8702.469 679.7,8679.692 672.368,8663.56C672.368,8663.56 685.078,8707.556 655.258,8751.553C655.258,8751.553 640.104,8673.337 622.505,8616.142C622.505,8616.142 620.55,8674.804 622.505,8741.776C622.505,8741.776 608.817,8695.335 606.373,8665.515C606.373,8665.515 593.585,8699.882 592.646,8731.794C592.646,8731.794 582.273,8606.685 590.216,8491.125C590.216,8491.125 548.664,8532.607 527.888,8568.049C527.888,8568.049 547.289,8527.171 556.455,8491.125C565.621,8455.079 576.315,8356.545 590.064,8312.243C603.813,8267.941 626.727,8203.779 653.461,8180.864C680.195,8157.95 753.523,8100.663 795.533,8109.065C795.533,8109.065 883.373,8088.441 902.469,8118.231C902.469,8118.231 987.254,8096.843 1023.154,8125.869C1059.054,8154.894 1110.23,8172.462 1133.909,8256.483C1157.587,8340.504 1193.596,8523.059 1218.366,8560.487C1218.366,8560.487 1194.801,8519.41 1150.316,8491.125C1150.316,8491.125 1129.391,8612.595 1093.109,8747.22C1093.109,8747.22 1094.511,8729.853 1093.729,8716.948C1093.729,8716.948 1088.254,8737.284 1081.606,8749.407C1081.606,8749.407 1100.322,8585.985 1107.197,8459.189C1107.197,8459.189 1096.797,8553.586 1085.846,8600.516C1085.846,8600.516 1102.24,8374.823 1017.264,8259.294L955.735,8264.555Z" style="fill:rgb(115,92,77);"/>
                </g>
                <g transform="matrix(1,0,0,0.772296,3.190542,1844.886317)">
                    <path d="M1050.823,8500.379C1050.823,8500.379 988.739,8500.868 950.12,8523.844C911.501,8546.82 913.457,8537.043 923.234,8524.822C933.011,8512.601 991.672,8480.825 1050.823,8500.379Z" style="fill:rgb(100,77,63);"/>
                </g>
                <g transform="matrix(-1,0,0,0.772296,1743.063607,1844.886317)">
                    <path d="M1050.823,8500.379C1050.823,8500.379 988.739,8500.868 950.12,8523.844C911.501,8546.82 913.457,8537.043 923.234,8524.822C933.011,8512.601 991.672,8480.825 1050.823,8500.379Z" style="fill:rgb(100,77,63);"/>
                </g>
            </g>
        </g>
    </g>
</svg>
