<?xml version="1.0" encoding="UTF-8" standalone="no"?>
<!DOCTYPE svg PUBLIC "-//W3C//DTD SVG 1.1//EN" "http://www.w3.org/Graphics/SVG/1.1/DTD/svg11.dtd">
<svg width="100%" height="100%" viewBox="0 0 277 201" version="1.1" xmlns="http://www.w3.org/2000/svg" xmlns:xlink="http://www.w3.org/1999/xlink" xml:space="preserve" xmlns:serif="http://www.serif.com/" style="fill-rule:evenodd;clip-rule:evenodd;stroke-linecap:round;stroke-linejoin:round;stroke-miterlimit:1.5;">
    <g transform="matrix(1,0,0,1,-3470.235609,-13361.087992)">
        <g transform="matrix(1.056395,0,0,1.056395,1924.439244,4175.185398)">
            <g transform="matrix(0.540936,0,0,0.543939,-367.131797,2204.76015)">
                <path d="M3482.919,12129.78C3470.905,12136.371 3451.583,12150.013 3420.528,12177.086C3420.528,12177.086 3451.183,12081.982 3507.763,12055.482C3507.763,12055.482 3435.977,12086.574 3391.067,12028.213C3391.067,12028.213 3441.166,12033.303 3457.963,12026.102C3474.76,12018.901 3500.177,11994.297 3512.553,11975.094C3524.93,11955.89 3547.097,11931.887 3570.05,11942.928C3589.574,11952.321 3617.437,11980.73 3625.326,11989.009C3633.215,11980.73 3661.078,11952.321 3680.602,11942.928C3703.555,11931.887 3725.722,11955.89 3738.099,11975.094C3750.475,11994.297 3775.892,12018.901 3792.689,12026.102C3809.486,12033.303 3859.585,12028.213 3859.585,12028.213C3814.675,12086.574 3742.889,12055.482 3742.889,12055.482C3799.469,12081.982 3830.124,12177.086 3830.124,12177.086C3799.069,12150.013 3779.747,12136.371 3767.733,12129.78C3766.416,12142.624 3760.165,12157.68 3747.662,12164.328C3747.591,12176.907 3747.576,12191.038 3747.707,12204.162C3748.061,12239.496 3771.174,12258.146 3771.174,12258.146C3753.068,12250.526 3735.189,12232.337 3735.189,12232.337C3724.778,12258.638 3701.694,12275.106 3701.694,12275.106C3721.61,12247.822 3712.29,12223.98 3712.29,12223.98C3689.617,12241.431 3682.838,12242.599 3682.838,12242.599C3690.365,12232.245 3694.463,12220.667 3696.172,12208.714C3681.059,12228.832 3665.84,12242.301 3660.385,12247.139C3649.366,12256.911 3631.297,12258.402 3626.059,12258.629L3626.059,12258.67C3626.059,12258.67 3625.802,12258.67 3625.326,12258.656C3624.851,12258.67 3624.593,12258.67 3624.593,12258.67L3624.593,12258.629C3619.355,12258.402 3601.286,12256.911 3590.267,12247.139C3584.812,12242.301 3569.593,12228.832 3554.48,12208.714C3556.189,12220.667 3560.287,12232.245 3567.814,12242.599C3567.814,12242.599 3561.035,12241.431 3538.362,12223.98C3538.362,12223.98 3529.042,12247.822 3548.958,12275.106C3548.958,12275.106 3525.874,12258.638 3515.463,12232.337C3515.463,12232.337 3497.584,12250.526 3479.478,12258.146C3479.478,12258.146 3502.591,12239.496 3502.945,12204.162C3503.076,12191.038 3503.061,12176.907 3502.99,12164.328C3490.487,12157.68 3484.236,12142.624 3482.919,12129.78Z" style="stroke:black;stroke-width:14.54px;"/>
            </g>
            <g>
                <g transform="matrix(0.540936,0,0,0.543939,-367.131797,2204.76015)">
                    <path d="M3514.164,12123.953C3514.164,12123.953 3495.977,12100.048 3486.571,12110.082C3477.164,12120.116 3483.749,12167.149 3516.672,12167.776L3514.164,12123.953Z" style="fill:rgb(240,190,145);"/>
                </g>
                <g transform="matrix(-0.540936,0,0,0.543939,3555.008794,2204.76015)">
                    <path d="M3514.164,12123.953C3514.164,12123.953 3495.977,12100.048 3486.571,12110.082C3477.164,12120.116 3483.749,12167.149 3516.672,12167.776L3514.164,12123.953Z" style="fill:rgb(240,190,145);"/>
                </g>
                <g transform="matrix(0.790069,-0.065566,0.065566,0.790069,-2035.005065,-559.723314)">
                    <path d="M3577.298,12235.607C3573.749,12235.156 3561.546,12233.117 3554.608,12225.814C3546.427,12217.202 3503.366,12171.988 3514.562,12116.009L3528,12089.312L3589.443,12095.294L3651.033,12099.522L3659.886,12128.069C3661.701,12185.128 3611.776,12222.625 3602.287,12229.771C3594.24,12235.83 3581.869,12235.83 3578.294,12235.69L3578.292,12235.718C3578.292,12235.718 3578.117,12235.703 3577.794,12235.667C3577.47,12235.65 3577.295,12235.635 3577.295,12235.635L3577.298,12235.607Z" style="fill:rgb(240,190,145);"/>
                </g>
                <g transform="matrix(0.36961,0,0,0.36961,1375.005818,5818.503302)">
                    <path d="M622.974,8092.983C622.974,8092.983 632.808,8062.659 667.776,8041.078C667.776,8041.078 616.69,8053.098 622.974,8092.983Z" style="fill:rgb(99,30,43);"/>
                </g>
                <g transform="matrix(-0.36961,0,0,0.36961,1812.87118,5818.503302)">
                    <path d="M622.974,8092.983C622.974,8092.983 632.808,8062.659 667.776,8041.078C667.776,8041.078 616.69,8053.098 622.974,8092.983Z" style="fill:rgb(99,30,43);"/>
                </g>
                <g transform="matrix(0.358511,0,0,0.391532,951.368641,5663.643952)">
                    <path d="M1792.404,7966.867L1792.257,7966.867C1792.257,7966.867 1774.65,7939.125 1744.237,7923.651C1744.237,7923.651 1738.701,7956.832 1720.36,7989.346C1702.019,8021.86 1657.533,8113.066 1705.553,8173.892C1705.553,8173.892 1695.326,8172.27 1661.116,8148.025C1661.116,8148.025 1647.054,8181.149 1677.104,8219.053C1677.104,8219.053 1642.273,8196.174 1626.565,8159.635C1626.565,8159.635 1599.588,8184.905 1572.269,8195.491C1572.269,8195.491 1607.143,8169.581 1607.677,8120.493C1608.21,8071.406 1607.143,8012.18 1607.143,8012.18C1607.143,8012.18 1602.308,7987.369 1483.323,8082.877C1483.323,8082.877 1529.576,7950.754 1614.946,7913.938C1614.946,7913.938 1506.633,7957.134 1438.871,7876.055C1438.871,7876.055 1514.462,7883.126 1539.806,7873.122C1565.15,7863.118 1603.5,7828.936 1622.175,7802.258C1640.849,7775.58 1674.295,7742.233 1708.927,7757.572C1738.386,7770.621 1780.427,7810.089 1792.331,7821.591C1804.234,7810.089 1846.275,7770.621 1875.734,7757.572C1910.366,7742.233 1943.812,7775.58 1962.487,7802.258C1981.161,7828.936 2019.511,7863.118 2044.855,7873.122C2070.199,7883.126 2145.79,7876.055 2145.79,7876.055C2078.028,7957.134 1969.715,7913.938 1969.715,7913.938C2055.085,7950.754 2101.338,8082.877 2101.338,8082.877C1982.353,7987.369 1977.518,8012.18 1977.518,8012.18C1977.518,8012.18 1976.451,8071.406 1976.984,8120.493C1977.518,8169.581 2012.392,8195.491 2012.392,8195.491C1985.073,8184.905 1958.096,8159.635 1958.096,8159.635C1942.388,8196.174 1907.557,8219.053 1907.557,8219.053C1937.608,8181.149 1923.545,8148.025 1923.545,8148.025C1889.335,8172.27 1879.108,8173.892 1879.108,8173.892C1927.128,8113.066 1882.643,8021.86 1864.301,7989.346C1845.96,7956.832 1840.424,7923.651 1840.424,7923.651C1810.011,7939.125 1792.404,7966.867 1792.404,7966.867Z" style="fill:rgb(126,36,52);"/>
                </g>
            </g>
        </g>
    </g>
</svg>
