<?xml version="1.0" encoding="UTF-8" standalone="no"?>
<!DOCTYPE svg PUBLIC "-//W3C//DTD SVG 1.1//EN" "http://www.w3.org/Graphics/SVG/1.1/DTD/svg11.dtd">
<svg width="100%" height="100%" viewBox="0 0 165 246" version="1.1" xmlns="http://www.w3.org/2000/svg" xmlns:xlink="http://www.w3.org/1999/xlink" xml:space="preserve" xmlns:serif="http://www.serif.com/" style="fill-rule:evenodd;clip-rule:evenodd;stroke-linecap:round;stroke-linejoin:round;stroke-miterlimit:1.5;">
    <g transform="matrix(1,0,0,1,-3526.245619,-13562.144112)">
        <g transform="matrix(1.213127,0,0,1.213127,-1988.052648,1756.814383)">
            <g transform="matrix(0.540936,0,0,0.543939,2665.065759,3218.626044)">
                <path d="M3492.198,12107.622C3492.021,12106.557 3491.842,12105.558 3491.662,12104.631C3488.874,12102.854 3486.787,12099.738 3487.57,12094.285C3489.523,12080.687 3470.563,11978.83 3601.294,11979.532C3731.317,11980.231 3713.064,12080.687 3715.017,12094.285C3715.8,12099.738 3713.713,12102.854 3710.925,12104.631C3710.745,12105.558 3710.566,12106.557 3710.389,12107.622C3712.438,12107.603 3714.363,12108.318 3716.017,12110.082C3723.2,12117.743 3721.058,12146.979 3704.986,12160.653C3703.096,12185.672 3701.566,12211.841 3700.572,12226.503C3698.424,12258.193 3701.216,12339.518 3701.216,12339.518C3688.9,12292.517 3692.337,12192.908 3692.337,12192.908C3680.163,12254.151 3696.902,12334.088 3696.902,12334.088C3675.419,12309.163 3666.844,12234.514 3666.844,12234.514C3662.834,12275.533 3647.599,12315.947 3647.599,12315.947C3643.962,12301.305 3643.006,12281.396 3643.382,12261.691C3609.755,12272.426 3575.29,12265.842 3559.202,12261.53C3559.586,12281.288 3558.635,12301.265 3554.988,12315.947C3554.988,12315.947 3539.753,12275.533 3535.743,12234.514C3535.743,12234.514 3527.168,12309.163 3505.685,12334.088C3505.685,12334.088 3522.424,12254.151 3510.25,12192.908C3510.25,12192.908 3513.688,12292.517 3501.371,12339.518C3501.371,12339.518 3504.164,12258.193 3502.015,12226.503C3501.021,12211.841 3499.491,12185.672 3497.602,12160.653C3481.529,12146.979 3479.388,12117.743 3486.571,12110.082C3488.224,12108.318 3490.149,12107.603 3492.198,12107.622Z" style="stroke:black;stroke-width:12.66px;"/>
            </g>
            <g>
                <g transform="matrix(0.540936,0,0,0.543939,2665.065759,3218.626044)">
                    <path d="M3514.164,12123.953C3514.164,12123.953 3495.977,12100.048 3486.571,12110.082C3477.164,12120.116 3483.749,12167.149 3516.672,12167.776L3514.164,12123.953Z" style="fill:rgb(231,176,124);"/>
                </g>
                <g transform="matrix(-0.540936,0,0,0.543939,6561.20635,3218.626044)">
                    <path d="M3514.164,12123.953C3514.164,12123.953 3495.977,12100.048 3486.571,12110.082C3477.164,12120.116 3483.749,12167.149 3516.672,12167.776L3514.164,12123.953Z" style="fill:rgb(231,176,124);"/>
                </g>
                <path d="M4585.316,9886.592C4585.316,9886.592 4614.23,9897.415 4640.39,9886.592L4645.701,9864.873L4583.742,9864.873L4585.316,9884.62" style="fill:rgb(97,88,57);"/>
                <g transform="matrix(0.790069,-0.065566,0.065566,0.790069,984.192491,454.14258)">
                    <path d="M3577.298,12235.607C3573.749,12235.156 3561.546,12233.117 3554.608,12225.814C3546.427,12217.202 3503.366,12171.988 3514.562,12116.009L3528,12089.312L3589.443,12095.294L3651.033,12099.522L3659.886,12128.069C3661.701,12185.128 3611.776,12222.625 3602.287,12229.771C3594.24,12235.83 3581.869,12235.83 3578.294,12235.69L3578.292,12235.718C3578.292,12235.718 3578.117,12235.703 3577.794,12235.667C3577.47,12235.65 3577.295,12235.635 3577.295,12235.635L3577.298,12235.607Z" style="fill:rgb(244,190,139);"/>
                </g>
                <g transform="matrix(-0.265338,0,0,0.265338,5624.901111,7242.569291)">
                    <path d="M3857.684,9771.361C3857.684,9771.361 3925.214,9688.375 3970.233,9662.113C3970.233,9662.113 3859.935,9696.028 3857.684,9771.361Z" style="fill:rgb(97,88,57);"/>
                </g>
                <g transform="matrix(0.265338,0,0,0.265338,3601.370999,7242.569291)">
                    <path d="M3857.684,9771.361C3857.684,9771.361 3925.214,9688.375 3970.233,9662.113C3970.233,9662.113 3859.935,9696.028 3857.684,9771.361Z" style="fill:rgb(97,88,57);"/>
                </g>
                <g transform="matrix(0.1652,-0,0,0.1652,3985.102092,8212.955275)">
                    <path d="M3664.986,9622.59C3664.986,9622.59 3659.124,9665.969 3649.745,9696.451C3640.366,9726.933 3632.452,9863.81 3642.71,9909.24C3652.969,9954.67 3680.813,10195.01 3650.038,10319.576C3650.038,10319.576 3600.153,10186.51 3587.022,10051.451C3587.022,10051.451 3558.943,10297.242 3488.6,10379.309C3488.6,10379.309 3543.409,10116.108 3503.548,9914.457C3503.548,9914.457 3514.803,10242.433 3474.473,10397.188C3474.473,10397.188 3483.617,10129.415 3476.583,10025.072C3469.548,9920.729 3454.307,9639.356 3436.722,9601.839L3664.986,9622.59" style="fill:rgb(112,100,63);"/>
                </g>
                <g transform="matrix(-0.1652,-0,-0,0.1652,5241.170017,8212.955275)">
                    <path d="M3664.986,9622.59C3664.986,9622.59 3659.124,9665.969 3649.745,9696.451C3640.366,9726.933 3632.452,9863.81 3642.71,9909.24C3652.969,9954.67 3680.813,10195.01 3650.038,10319.576C3650.038,10319.576 3600.153,10186.51 3587.022,10051.451C3587.022,10051.451 3558.943,10297.242 3488.6,10379.309C3488.6,10379.309 3543.409,10116.108 3503.548,9914.457C3503.548,9914.457 3514.803,10242.433 3474.473,10397.188C3474.473,10397.188 3483.617,10129.415 3476.583,10025.072C3469.548,9920.729 3454.307,9639.356 3436.722,9601.839L3664.986,9622.59" style="fill:rgb(112,100,63);"/>
                </g>
                <g transform="matrix(0.315877,0,0,0.315877,3726.604015,5944.3516)">
                    <path d="M2977.288,12219.045L2635.864,12219.045C2635.864,12219.045 2608.471,12220.722 2611.825,12197.242C2615.17,12173.825 2582.7,11998.428 2806.576,11999.637C3029.239,12000.84 2997.981,12173.825 3001.327,12197.242C3004.681,12220.722 2977.288,12219.045 2977.288,12219.045Z" style="fill:rgb(52,52,52);"/>
                    <clipPath id="_clip1">
                        <path d="M2977.288,12219.045L2635.864,12219.045C2635.864,12219.045 2608.471,12220.722 2611.825,12197.242C2615.17,12173.825 2582.7,11998.428 2806.576,11999.637C3029.239,12000.84 2997.981,12173.825 3001.327,12197.242C3004.681,12220.722 2977.288,12219.045 2977.288,12219.045Z"/>
                    </clipPath>
                    <g clip-path="url(#_clip1)">
                        <g transform="matrix(3.165792,0,0,3.165792,-11787.322972,-18818.579105)">
                            <path d="M4579.516,9804.072C4579.516,9804.072 4580.072,9757.635 4554.838,9758.618L4554.838,9752.226C4554.838,9752.226 4584.433,9746.421 4584.679,9804.072L4579.516,9804.072Z" style="fill:rgb(151,9,69);"/>
                        </g>
                        <g transform="matrix(-3.165792,0,0,3.165792,17400.474562,-18818.579105)">
                            <path d="M4579.516,9804.072C4579.516,9804.072 4580.072,9757.635 4554.838,9758.618L4554.838,9752.226C4554.838,9752.226 4584.433,9746.421 4584.679,9804.072L4579.516,9804.072Z" style="fill:rgb(151,9,69);"/>
                        </g>
                    </g>
                </g>
            </g>
        </g>
    </g>
</svg>
