<?xml version="1.0" encoding="UTF-8" standalone="no"?>
<!DOCTYPE svg PUBLIC "-//W3C//DTD SVG 1.1//EN" "http://www.w3.org/Graphics/SVG/1.1/DTD/svg11.dtd">
<svg width="100%" height="100%" viewBox="0 0 206 181" version="1.1" xmlns="http://www.w3.org/2000/svg" xmlns:xlink="http://www.w3.org/1999/xlink" xml:space="preserve" xmlns:serif="http://www.serif.com/" style="fill-rule:evenodd;clip-rule:evenodd;stroke-linecap:round;stroke-linejoin:round;stroke-miterlimit:1.5;">
    <g transform="matrix(1,0,0,1,-1698.62,-13772.7)">
        <g transform="matrix(1.39937,0,0,1.39937,-440.327,-2867.63)">
            <path d="M1549.67,11954.7C1549.79,11947 1550.43,11940.7 1550.43,11940.7C1548.74,11943.4 1540.57,11943.6 1533.59,11941.8C1526.62,11939.9 1537.44,11928.8 1558.48,11911C1579.52,11893.2 1602.96,11893.7 1614.63,11894.6C1626.29,11895.6 1628.33,11898.6 1636.75,11903.8C1645.16,11908.9 1647.45,11921.6 1647.45,11921.6C1661.63,11920.4 1661.39,11947.3 1661.39,11955C1661.39,11956.6 1661.19,11958.5 1660.86,11960.4C1661.31,11962.1 1661.54,11963.9 1661.54,11965.7L1661.54,11965.7C1662.99,11965.6 1664.36,11965.9 1665.49,11967C1670.39,11971.7 1674.34,11977.8 1670.68,11984.2C1667.38,11989.9 1661.48,11998.6 1649.07,11995.5C1640.5,12020.8 1599.04,12017.1 1599.04,12017.1C1576.5,12017.2 1565.39,12006.8 1558.49,11995.7C1546.46,11998.3 1540.68,11989.8 1537.43,11984.2C1533.77,11977.8 1537.72,11971.7 1542.62,11967C1543.75,11965.9 1545.12,11965.6 1546.56,11965.7L1546.56,11965.7C1546.56,11961.7 1547.69,11958 1549.67,11954.7Z" style="stroke:black;stroke-width:5.96px;"/>
            <g>
                <g transform="matrix(1,0,0,1,-2.02844,-0.707049)">
                    <path d="M1652.99,11973C1652.99,11973 1662.61,11963 1667.52,11967.7C1672.42,11972.4 1676.36,11978.5 1672.71,11984.9C1669.05,11991.2 1662.23,12001.1 1646.93,11994.9L1652.99,11973Z" style="fill:rgb(171,142,117);"/>
                </g>
                <g transform="matrix(-1,0,0,1,3210.14,-0.707049)">
                    <path d="M1652.99,11973C1652.99,11973 1662.61,11963 1667.52,11967.7C1672.42,11972.4 1676.36,11978.5 1672.71,11984.9C1669.05,11991.2 1662.23,12001.1 1646.93,11994.9L1652.99,11973Z" style="fill:rgb(171,142,117);"/>
                </g>
                <path d="M1656.95,11974.9C1656.95,11974.9 1661.39,11962.7 1661.39,11955C1661.39,11947.3 1661.63,11920.4 1647.45,11921.6C1647.45,11921.6 1645.16,11908.9 1636.75,11903.8C1628.33,11898.6 1626.29,11895.6 1614.63,11894.6C1602.96,11893.7 1579.52,11893.2 1558.48,11911C1537.44,11928.8 1526.62,11939.9 1533.59,11941.8C1540.57,11943.6 1548.74,11943.4 1550.43,11940.7C1550.43,11940.7 1548.35,11961.4 1550.98,11973.1L1656.95,11974.9Z" style="fill:rgb(33,74,106);"/>
                <clipPath id="_clip1">
                    <path d="M1656.95,11974.9C1656.95,11974.9 1661.39,11962.7 1661.39,11955C1661.39,11947.3 1661.63,11920.4 1647.45,11921.6C1647.45,11921.6 1645.16,11908.9 1636.75,11903.8C1628.33,11898.6 1626.29,11895.6 1614.63,11894.6C1602.96,11893.7 1579.52,11893.2 1558.48,11911C1537.44,11928.8 1526.62,11939.9 1533.59,11941.8C1540.57,11943.6 1548.74,11943.4 1550.43,11940.7C1550.43,11940.7 1548.35,11961.4 1550.98,11973.1L1656.95,11974.9Z"/>
                </clipPath>
                <g clip-path="url(#_clip1)">
                    <path d="M1550.42,11940.7C1550.42,11940.7 1558.91,11924.6 1569.52,11921.5L1568.83,11965.7L1536.49,11965.7L1550.42,11940.7Z" style="fill-opacity:0.11;"/>
                </g>
                <path d="M1599.04,12017.1C1599.04,12017.1 1641.01,12020.9 1649.23,11995.1C1657.45,11969.2 1657.52,11972 1655.08,11963.2C1652.64,11954.3 1653.76,11950 1653.01,11944C1652.26,11938 1649.63,11925.4 1640.8,11921.3C1631.97,11917.2 1611.87,11910.8 1589.89,11916.2C1567.92,11921.7 1562.09,11920.9 1558.71,11934.6C1555.33,11948.3 1547.63,11974.3 1554.2,11987.8C1560.78,12001.3 1571.18,12017.3 1599.04,12017.1Z" style="fill:rgb(181,153,128);"/>
                <g transform="matrix(1.55752,0,0,1,-868.374,2.16405)">
                    <path d="M1578.38,11941.5C1578.38,11941.5 1570.81,11933.3 1564.79,11941.5C1564.79,11941.5 1570.33,11927.4 1578.38,11941.5Z" style="fill:rgb(68,52,39);"/>
                </g>
                <g transform="matrix(-1.55752,0,0,1,4076.48,2.16405)">
                    <path d="M1578.38,11941.5C1578.38,11941.5 1570.81,11933.3 1564.79,11941.5C1564.79,11941.5 1570.33,11927.4 1578.38,11941.5Z" style="fill:rgb(68,52,39);"/>
                </g>
                <g transform="matrix(1,0,0,1,5.35017,4.46209)">
                    <path d="M1601.97,11954.8C1605.21,11944.8 1615.9,11937.4 1628.58,11937.4C1643.82,11937.4 1656.19,11948.1 1656.19,11961.2C1656.19,11974.4 1643.82,11985.1 1628.58,11985.1C1613.56,11985.1 1601.32,11974.7 1600.97,11961.8C1599.74,11961.6 1598.17,11961.5 1596.43,11961.8C1596.06,11974.7 1583.84,11985.1 1568.83,11985.1C1553.59,11985.1 1541.21,11974.4 1541.21,11961.2C1541.21,11948.1 1553.59,11937.4 1568.83,11937.4C1581.64,11937.4 1592.43,11944.9 1595.54,11955.2C1597.17,11955.6 1599.48,11955.8 1601.97,11954.8Z" style="fill:rgb(139,145,166);"/>
                </g>
            </g>
        </g>
    </g>
</svg>
