<?xml version="1.0" encoding="UTF-8" standalone="no"?>
<!DOCTYPE svg PUBLIC "-//W3C//DTD SVG 1.1//EN" "http://www.w3.org/Graphics/SVG/1.1/DTD/svg11.dtd">
<svg width="100%" height="100%" viewBox="0 0 223 210" version="1.1" xmlns="http://www.w3.org/2000/svg" xmlns:xlink="http://www.w3.org/1999/xlink" xml:space="preserve" xmlns:serif="http://www.serif.com/" style="fill-rule:evenodd;clip-rule:evenodd;stroke-linecap:round;stroke-linejoin:round;stroke-miterlimit:1.5;">
    <g transform="matrix(1,0,0,1,-2693.66,-13236)">
        <g transform="matrix(0.554881,0,0,0.554881,562.349,6859.18)">
            <path d="M4113.77,11533C4114.33,11531.1 4115.2,11527.6 4114.72,11525.6C4114.72,11525.6 4118.35,11523.9 4119.15,11530.3L4123.54,11526.6C4123.54,11526.6 4137.7,11499.2 4173.08,11499.7C4208.45,11500.2 4233.46,11531.5 4235.18,11572.9C4236.89,11614.4 4206.25,11643.2 4187.27,11636.8C4187.27,11636.8 4187.57,11641.7 4183.43,11639.9C4183.25,11639.8 4183.07,11639.7 4182.89,11639.6L4185.06,11658.7C4185.06,11658.7 4183.02,11670.3 4179.91,11676.9C4185.58,11682.4 4190.28,11691.3 4186.52,11706C4181.87,11724.3 4179.31,11736.4 4175.43,11745.4C4176.34,11747.2 4176.84,11749.3 4176.84,11751.4C4176.84,11759.2 4169.91,11765.6 4161.38,11765.6C4159.91,11765.6 4158.49,11765.4 4157.15,11765.1C4157.34,11765.3 4157.54,11765.6 4157.74,11765.9C4164.32,11774.3 4179.31,11792.6 4173.27,11811.8C4173.27,11811.8 4175.63,11798.6 4166.43,11790.2C4160.76,11785 4152.31,11777.2 4147.56,11765.1C4140.63,11782.5 4132.19,11795.8 4122.28,11807.5C4096.62,11837.8 4056.97,11848 4041.89,11848.6C4041.84,11848.6 4041.79,11848.6 4041.73,11848.6C4027.64,11847.8 3986.36,11836.9 3961.5,11807.5C3954.77,11799.6 3948.71,11790.9 3943.36,11780.7C3941.39,11792.5 3937.23,11802.4 3933.4,11812.7C3925.33,11834.4 3935.77,11862.9 3935.77,11862.9C3935.77,11862.9 3926.89,11850.5 3926.46,11833.9C3926.05,11817.7 3936.22,11792.9 3940.47,11774.9C3938.51,11770.8 3936.64,11766.4 3934.88,11761.7C3932.1,11764.1 3928.35,11765.6 3924.22,11765.6C3915.69,11765.6 3908.76,11759.2 3908.76,11751.4C3908.76,11750.1 3908.95,11748.8 3909.32,11747.6C3904.86,11738.3 3902.28,11725.8 3897.26,11706C3892.08,11685.7 3902.94,11676.6 3910.26,11672C3907.85,11659 3908.07,11646.7 3912.94,11637.8L3912.94,11636.7C3911.34,11637.9 3909.43,11640.2 3908.21,11639C3906,11637 3904.49,11638.1 3900.35,11639.9C3896.2,11641.7 3896.51,11636.8 3896.51,11636.8C3877.53,11643.2 3846.89,11614.4 3848.6,11572.9C3850.32,11531.5 3875.33,11500.2 3910.7,11499.7C3946.08,11499.2 3960.23,11526.6 3960.23,11526.6L3962.79,11528.8L3972.5,11518.6C3972.5,11518.6 4005.66,11491.1 4031.32,11517.3C4031.32,11517.3 4034.58,11505.1 4046.94,11503C4057.72,11501.2 4091.09,11496.3 4113.77,11533Z" style="stroke:black;stroke-width:15.02px;"/>
            <g>
                <g transform="matrix(1,0,0,1,326.288,5.16977)">
                    <path d="M3830.13,11678.2C3830.13,11678.2 3839.65,11662.1 3846.97,11666.6C3854.28,11671.2 3865.47,11680.3 3860.23,11700.9C3854.99,11721.4 3852.41,11734.3 3847.58,11743.6C3842.75,11752.9 3828.77,11760.1 3819.62,11744.1L3830.13,11678.2Z" style="fill:rgb(251,186,177);"/>
                </g>
                <g transform="matrix(-1,0,0,1,7757.49,5.16977)">
                    <path d="M3830.13,11678.2C3830.13,11678.2 3839.65,11662.1 3846.97,11666.6C3854.28,11671.2 3865.47,11680.3 3860.23,11700.9C3854.99,11721.4 3852.41,11734.3 3847.58,11743.6C3842.75,11752.9 3828.77,11760.1 3819.62,11744.1L3830.13,11678.2Z" style="fill:rgb(251,186,177);"/>
                </g>
                <path d="M4041.73,11848.6C4027.64,11847.8 3986.36,11836.9 3961.5,11807.5C3935.83,11777.2 3920.05,11736.3 3914.81,11641.5L3910.22,11590.8L4041.89,11521L4173.56,11590.8L4168.97,11641.5C4163.73,11736.3 4147.94,11777.2 4122.28,11807.5C4096.62,11837.8 4056.97,11848 4041.89,11848.6C4041.84,11848.6 4041.79,11848.6 4041.73,11848.6Z" style="fill:rgb(248,191,183);"/>
                <g transform="matrix(1,0,0,1,325.092,0)">
                    <ellipse cx="3836.28" cy="11751.4" rx="15.465" ry="14.242" style="fill:rgb(225,239,251);"/>
                </g>
                <g transform="matrix(1,0,0,1,87.9401,1.81899e-12)">
                    <ellipse cx="3836.28" cy="11751.4" rx="15.465" ry="14.242" style="fill:rgb(225,239,251);"/>
                </g>
                <g transform="matrix(1,0,0,1,325.176,35.2526)">
                    <path d="M3749.43,11682.3C3749.43,11682.3 3793.24,11656.8 3825.67,11653.4C3825.67,11653.4 3816.82,11642.5 3777.65,11657.6C3738.47,11672.8 3749.01,11675.4 3749.43,11682.3Z" style="fill:rgb(90,59,53);"/>
                </g>
                <g transform="matrix(-1,0,0,1,7758.6,35.2526)">
                    <path d="M3749.43,11682.3C3749.43,11682.3 3793.24,11656.8 3825.67,11653.4C3825.67,11653.4 3816.82,11642.5 3777.65,11657.6C3738.47,11672.8 3749.01,11675.4 3749.43,11682.3Z" style="fill:rgb(90,59,53);"/>
                </g>
                <g transform="matrix(0.975434,0,0,0.975434,421.421,301.447)">
                    <path d="M3603.51,11719.4C3588.2,11698.4 3565.67,11647.1 3579.45,11621.9L3579.45,11602.9L3612.68,11528.8L3640.51,11499.7C3640.51,11499.7 3674.5,11471.4 3700.82,11498.4C3700.82,11498.4 3704.15,11485.8 3716.82,11483.7C3729.5,11481.5 3772.63,11475.3 3794.76,11533.8L3852.21,11588.5L3858.42,11643.3C3858.42,11643.3 3854.39,11666.2 3848.99,11666.5C3843.6,11666.8 3841.17,11668.7 3837.94,11675.7C3834.71,11682.7 3827.97,11696.5 3826.09,11714.9C3824.21,11733.2 3823.67,11744.5 3830.41,11753.1C3837.16,11761.8 3852.53,11780.5 3846.34,11800.2C3846.34,11800.2 3848.76,11786.7 3839.32,11778.1C3829.88,11769.5 3812.89,11753.8 3816.92,11723.6C3820.96,11693.4 3829.32,11684.9 3833.09,11677.9C3836.86,11670.9 3839.01,11650.4 3832.54,11633.7C3826.06,11617 3827.4,11601.1 3801.25,11593C3775.09,11584.9 3770.17,11575.6 3751.03,11573.5C3751.03,11573.5 3755.27,11582.6 3765.62,11590C3775.98,11597.4 3787.5,11610.2 3796.13,11620.2C3804.76,11630.2 3816.2,11652.3 3819.83,11668.6C3819.83,11668.6 3811.76,11648.8 3801.57,11636.7C3791.39,11624.6 3777.97,11607.2 3767.09,11599.8C3756.22,11592.4 3745.86,11576.3 3742.92,11567.3C3742.92,11567.3 3741.42,11568.2 3739.44,11567.8C3739.44,11567.8 3736.67,11569.5 3734.86,11570.3C3734.86,11570.3 3729.69,11571.6 3726.49,11571.1C3726.49,11571.1 3721.85,11571.5 3718.98,11569.4C3718.98,11569.4 3714.23,11573.8 3712.35,11574.1C3712.35,11574.1 3701.51,11604.5 3712.31,11629.8C3723.1,11655.2 3741.71,11686.4 3738.49,11719.6C3738.49,11719.6 3737.13,11708.8 3731.47,11701.8C3725.81,11694.8 3716.63,11680.3 3704.23,11667.1C3691.82,11653.9 3690.74,11641 3689.93,11633.7C3689.93,11633.7 3682.93,11664.4 3708.01,11708.4C3708.01,11708.4 3705.82,11707.6 3703.26,11705.4C3700.69,11703.3 3699.28,11703.6 3702.99,11711.2C3706.7,11718.8 3705.82,11721.5 3705.65,11723.1C3705.65,11723.1 3700.12,11715.3 3693.05,11710.2C3685.98,11705.1 3647.65,11671.4 3650.67,11623.2C3650.67,11623.2 3638.2,11633.3 3642.26,11676.4C3645.86,11714.7 3655.81,11727.5 3658.01,11729.9C3658.3,11730.2 3658.45,11730.4 3658.45,11730.4C3658.45,11730.4 3658.3,11730.2 3658.01,11729.9C3654.48,11726.3 3630.34,11700.1 3620.35,11658.6C3620.35,11658.6 3608.22,11696.7 3619.7,11739.1C3619.7,11739.1 3614.37,11733.6 3607.54,11724.8C3617.38,11760.6 3608.25,11780.1 3600.43,11801.2C3592.15,11823.4 3602.86,11852.6 3602.86,11852.6C3602.86,11852.6 3593.75,11839.9 3593.32,11822.8C3592.88,11805.8 3603.87,11779.5 3608.01,11761C3611.25,11746.6 3605.95,11727.2 3603.51,11719.4Z" style="fill:rgb(103,65,57);"/>
                </g>
                <g transform="matrix(1,0,0,1,334.557,36.2869)">
                    <path d="M3630.07,11494L3625.68,11490.3C3625.68,11490.3 3611.52,11462.9 3576.14,11463.4C3540.77,11464 3515.76,11495.2 3514.04,11536.7C3512.33,11578.1 3542.97,11607 3561.95,11600.5C3561.95,11600.5 3561.65,11605.4 3565.79,11603.6C3569.93,11601.8 3571.45,11600.7 3573.66,11602.7C3575.87,11604.8 3580.42,11595.4 3581.11,11602.5C3581.8,11609.5 3594.64,11594 3590.08,11595.3C3585.53,11596.5 3592.69,11591 3596.28,11584.7C3599.88,11578.3 3594.91,11594.9 3603.61,11582.6C3612.3,11570.3 3603.74,11576.6 3602.5,11578.4C3601.26,11580.2 3600.29,11577.6 3603.05,11573.3C3605.81,11569.1 3610.78,11563.1 3611.75,11568.4C3612.72,11573.6 3614.92,11565.5 3616.72,11563.1C3618.51,11560.8 3621.55,11557.6 3615.61,11552.6C3615.61,11552.6 3617.13,11548.9 3620.02,11546.6C3620.02,11546.6 3624.74,11545.7 3627.21,11547.9C3627.21,11547.9 3631.2,11542.8 3631.62,11538.2C3631.62,11538.2 3629.68,11537.7 3629.82,11535.3C3629.82,11535.3 3629.41,11529.9 3636.31,11531.3C3636.31,11531.3 3640.59,11521.3 3639.34,11517.5C3639.34,11517.5 3639.2,11516.2 3637.27,11514.3L3637.27,11511.7C3637.27,11511.7 3640.58,11512.8 3642.65,11510.3C3642.65,11510.3 3640.44,11499.9 3642.79,11495.3C3642.79,11495.3 3639.2,11498.2 3635.89,11498C3635.89,11498 3633.81,11492.2 3634.5,11489.3C3634.5,11489.3 3630.87,11487.6 3630.07,11494Z" style="fill:rgb(218,216,223);"/>
                </g>
                <g transform="matrix(-1,0,0,1,7749.22,36.2869)">
                    <path d="M3630.07,11494L3625.68,11490.3C3625.68,11490.3 3611.52,11462.9 3576.14,11463.4C3540.77,11464 3515.76,11495.2 3514.04,11536.7C3512.33,11578.1 3542.97,11607 3561.95,11600.5C3561.95,11600.5 3561.65,11605.4 3565.79,11603.6C3569.93,11601.8 3571.45,11600.7 3573.66,11602.7C3575.87,11604.8 3580.42,11595.4 3581.11,11602.5C3581.8,11609.5 3594.64,11594 3590.08,11595.3C3585.53,11596.5 3592.69,11591 3596.28,11584.7C3599.88,11578.3 3594.91,11594.9 3603.61,11582.6C3612.3,11570.3 3603.74,11576.6 3602.5,11578.4C3601.26,11580.2 3600.29,11577.6 3603.05,11573.3C3605.81,11569.1 3610.78,11563.1 3611.75,11568.4C3612.72,11573.6 3614.92,11565.5 3616.72,11563.1C3618.51,11560.8 3621.55,11557.6 3615.61,11552.6C3615.61,11552.6 3617.13,11548.9 3620.02,11546.6C3620.02,11546.6 3624.74,11545.7 3627.21,11547.9C3627.21,11547.9 3631.2,11542.8 3631.62,11538.2C3631.62,11538.2 3629.68,11537.7 3629.82,11535.3C3629.82,11535.3 3629.41,11529.9 3636.31,11531.3C3636.31,11531.3 3640.59,11521.3 3639.34,11517.5C3639.34,11517.5 3639.2,11516.2 3637.27,11514.3L3637.27,11511.7C3637.27,11511.7 3640.58,11512.8 3642.65,11510.3C3642.65,11510.3 3640.44,11499.9 3642.79,11495.3C3642.79,11495.3 3639.2,11498.2 3635.89,11498C3635.89,11498 3633.81,11492.2 3634.5,11489.3C3634.5,11489.3 3630.87,11487.6 3630.07,11494Z" style="fill:rgb(218,216,223);"/>
                </g>
            </g>
        </g>
    </g>
</svg>
