<?xml version="1.0" encoding="UTF-8" standalone="no"?>
<!DOCTYPE svg PUBLIC "-//W3C//DTD SVG 1.1//EN" "http://www.w3.org/Graphics/SVG/1.1/DTD/svg11.dtd">
<svg width="100%" height="100%" viewBox="0 0 200 217" version="1.1" xmlns="http://www.w3.org/2000/svg" xmlns:xlink="http://www.w3.org/1999/xlink" xml:space="preserve" xmlns:serif="http://www.serif.com/" style="fill-rule:evenodd;clip-rule:evenodd;stroke-linecap:round;stroke-linejoin:round;stroke-miterlimit:1.5;">
    <g transform="matrix(1,0,0,1,-7523.803194,-13345.781046)">
        <g transform="matrix(1.176145,0,0,1.176145,4703.976958,1177.19543)">
            <g transform="matrix(1.116912,0,0,1.116912,526.323032,-201.613923)">
                <path d="M1695.791,9532.726C1695.958,9523.09 1693.265,9518.601 1678.5,9521.866C1678.5,9521.866 1682.258,9496.541 1704.56,9479.658C1717.448,9469.902 1727.072,9467.958 1743.154,9467.544C1756.94,9454.57 1773.114,9446.87 1773.114,9446.87C1771.276,9454.088 1772.465,9461.378 1774.362,9467.264C1779.841,9467.155 1785.858,9466.967 1792.513,9466.634C1792.513,9466.634 1784.244,9474.111 1784.995,9481.829C1784.995,9481.829 1821.58,9499.677 1822.331,9510.048C1823.083,9520.419 1826.09,9546.467 1823.083,9559.009C1823.083,9559.009 1820.607,9557.068 1817.048,9554.213C1815.541,9556.766 1813.617,9559.085 1811.266,9560.862C1810.466,9565.865 1809.155,9570.28 1807.447,9574.445C1803.689,9583.61 1802.596,9595.389 1802.596,9595.389C1802.436,9587.363 1798.587,9582.269 1798.587,9582.269C1793.664,9583.193 1787.213,9586.541 1784.282,9588.165C1779.372,9593.539 1775.228,9597.228 1773.311,9598.937C1767.351,9604.253 1757.577,9605.063 1754.743,9605.187L1754.743,9605.209C1754.743,9605.209 1754.604,9605.209 1754.347,9605.202C1754.09,9605.209 1753.95,9605.209 1753.95,9605.209L1753.95,9605.187C1751.117,9605.063 1741.343,9604.253 1735.382,9598.937C1733.528,9597.284 1729.588,9593.776 1724.888,9588.683C1722.664,9587.411 1715.197,9583.308 1709.662,9582.269C1709.662,9582.269 1705.813,9587.363 1705.652,9595.389C1705.652,9595.389 1704.56,9583.61 1700.801,9574.445C1698.888,9569.779 1697.15,9565.158 1696.076,9559.74C1687.58,9552.028 1685.532,9537.03 1689.289,9533C1691.08,9531.08 1693.459,9531.445 1695.791,9532.726Z" style="stroke:black;stroke-width:6.34px;"/>
            </g>
            <g>
                <g transform="matrix(1.116912,0,0,1.116912,526.323032,-201.613923)">
                    <g transform="matrix(0.540936,0,0,0.543939,-196.723481,2945.857402)">
                        <path d="M3514.164,12123.953C3514.164,12123.953 3495.977,12100.048 3486.571,12110.082C3477.164,12120.116 3487.446,12167.149 3520.369,12167.776L3514.164,12123.953Z" style="fill:rgb(213,154,99);"/>
                    </g>
                    <g transform="matrix(-0.540936,0,0,0.543939,3705.41711,2945.857402)">
                        <path d="M3514.164,12123.953C3514.164,12123.953 3495.977,12100.048 3486.571,12110.082C3477.164,12120.116 3487.446,12167.149 3520.369,12167.776L3514.164,12123.953Z" style="fill:rgb(213,154,99);"/>
                    </g>
                    <g transform="matrix(0.790069,-0.065566,0.065566,0.790069,-1874.596749,172.760043)">
                        <path d="M3577.298,12235.607C3573.749,12235.156 3561.546,12233.117 3554.608,12225.814C3546.427,12217.202 3503.366,12171.988 3514.562,12116.009L3528,12089.312L3589.443,12095.294L3651.033,12099.522L3659.886,12128.069C3661.701,12185.128 3611.776,12222.625 3602.287,12229.771C3594.24,12235.83 3581.869,12235.83 3578.294,12235.69L3578.292,12235.718C3578.292,12235.718 3578.117,12235.703 3577.794,12235.667C3577.47,12235.65 3577.295,12235.635 3577.295,12235.635L3577.298,12235.607Z" style="fill:rgb(213,154,99);"/>
                    </g>
                </g>
                <g transform="matrix(0.170991,0,0,0.170991,2301.981534,8782.830134)">
                    <path d="M872.298,9721.296C872.298,9721.296 936.217,9712.549 963.129,9742.826C990.042,9773.103 1009.554,9814.818 1025.702,9798.67C1041.85,9782.523 978.604,9687.655 872.298,9721.296Z" style="fill:rgb(104,58,26);"/>
                </g>
                <g transform="matrix(-0.170991,0,0,0.170991,2669.566528,8782.830134)">
                    <path d="M872.298,9721.296C872.298,9721.296 936.217,9712.549 963.129,9742.826C990.042,9773.103 1009.554,9814.818 1025.702,9798.67C1041.85,9782.523 978.604,9687.655 872.298,9721.296Z" style="fill:rgb(104,58,26);"/>
                </g>
                <g transform="matrix(0.215158,0,0,0.207094,2209.745566,8368.345176)">
                    <path d="M1505.016,10054.291L1423.8,9876.959L1215.675,9884.764L1067.386,10062.971L1062.183,10120.205C1062.183,10120.205 1087.47,10245.135 1133.362,10334.314C1133.362,10334.314 1085.077,10304.344 1050.944,10297.684C1050.944,10297.684 1030.964,10325.157 1030.132,10368.447C1030.132,10368.447 1024.46,10304.916 1004.949,10255.487C985.437,10206.057 969.447,10157.542 976.154,10075.593C982.861,9993.644 985.437,9949.803 889.179,9971.916C889.179,9971.916 908.691,9835.334 1024.46,9744.279C1140.23,9653.225 1205.269,9688.346 1481.035,9674.037C1481.035,9674.037 1438.109,9714.361 1442.011,9755.987C1442.011,9755.987 1631.925,9852.244 1635.828,9908.178C1639.73,9964.112 1655.339,10104.596 1639.73,10172.237C1639.73,10172.237 1613.973,10151.261 1582.966,10125.016C1582.211,10177.66 1573.201,10218.403 1558.563,10255.487C1539.051,10304.916 1533.379,10368.447 1533.379,10368.447C1532.547,10325.157 1512.567,10297.684 1512.567,10297.684C1478.434,10304.344 1430.149,10334.314 1430.149,10334.314C1476.041,10245.135 1501.328,10120.205 1501.328,10120.205L1505.016,10054.291Z" style="fill:rgb(80,49,22);"/>
                </g>
                <g transform="matrix(0.247641,0,0,0.198966,2167.154107,8450.238364)">
                    <path d="M1020.11,10173.554C1020.11,10173.554 1116.368,10003.151 1225.634,9929.006C1225.634,9929.006 1290.673,9913.397 1350.509,9927.706C1350.509,9927.706 1396.036,9979.737 1437.661,10055.182C1437.661,10055.182 1438.962,9982.339 1427.255,9940.713C1427.255,9940.713 1496.197,10026.565 1544.326,10126.725C1544.326,10126.725 1572.602,9955.295 1527.855,9918.873C1483.108,9882.452 1447.893,9852.648 1447.893,9852.648C1447.893,9852.648 1434.74,9777.723 1403.521,9731.935C1403.521,9731.935 1352.53,9638.279 1371.262,9546.704C1371.262,9546.704 1230.777,9629.954 1173.543,9760.032C1173.543,9760.032 1018.609,9901.302 1020.11,10173.554Z" style="fill:rgb(92,54,22);"/>
                </g>
            </g>
        </g>
    </g>
</svg>
