<?xml version="1.0" encoding="UTF-8" standalone="no"?>
<!DOCTYPE svg PUBLIC "-//W3C//DTD SVG 1.1//EN" "http://www.w3.org/Graphics/SVG/1.1/DTD/svg11.dtd">
<svg width="100%" height="100%" viewBox="0 0 182 206" version="1.1" xmlns="http://www.w3.org/2000/svg" xmlns:xlink="http://www.w3.org/1999/xlink" xml:space="preserve" xmlns:serif="http://www.serif.com/" style="fill-rule:evenodd;clip-rule:evenodd;stroke-linecap:round;stroke-linejoin:round;stroke-miterlimit:1.5;">
    <g transform="matrix(1,0,0,1,-2714.252403,-13360.778215)">
        <g transform="matrix(1.150175,0,0,1.150175,703.554086,891.625685)">
            <g transform="matrix(0.187845,0,0,0.240962,1676.499213,8334.810027)">
                <path d="M802.094,10416.212C846.098,10415.472 1067.198,10421.425 1137.332,10611.525C1215.357,10823.013 1221.517,11059.141 1170.185,11114.58C1170.185,11114.58 1171.051,11074.312 1145.645,11048.045C1145.645,11048.045 1148.228,11088.522 1129.712,11116.081C1129.712,11116.081 1127.99,11092.828 1121.1,11077.757C1121.1,11077.757 1116.364,11105.746 1105.168,11117.372C1105.168,11117.372 1108.182,11076.465 1100.001,11056.226C1100.001,11056.226 1093.111,11101.44 1079.762,11112.205C1079.762,11112.205 1081.054,11096.273 1067.705,11080.34C1067.705,11080.34 1059.954,11105.746 1049.189,11113.927C1049.189,11113.927 1041.008,11088.952 1016.033,11067.422C1016.033,11067.422 1019.908,11089.814 1010.435,11107.899C1010.435,11107.899 1008.713,11098.426 993.211,11085.077C993.211,11085.077 993.211,11115.65 969.527,11114.358C969.527,11114.358 961.777,11091.105 943.691,11073.451C943.691,11073.451 936.371,11128.3 921.73,11126.147C921.73,11126.147 925.606,11114.52 917.424,11098.588C917.424,11098.588 910.965,11120.118 896.755,11119.257C896.755,11119.257 899.339,11104.186 894.172,11084.809C894.172,11084.809 884.698,11101.172 875.656,11102.894C877.003,11094.609 874.849,11085.414 868.504,11075.13C870.371,11085 861.579,11100.648 850.287,11107.987C848.069,11092.56 841.583,11081.938 830.134,11076.904C816.046,11080.907 808.695,11091.96 802.094,11103.719C790.754,11095.339 784.553,11085.528 784.699,11073.95C775.715,11081.309 767.357,11089.504 764.143,11104.574C755.719,11096.438 752.154,11086.787 751.934,11076.093C739.802,11082.264 731.64,11090.967 728.532,11102.894C719.489,11101.172 710.016,11084.809 710.016,11084.809C704.849,11104.186 707.432,11119.257 707.432,11119.257C693.222,11120.118 686.763,11098.588 686.763,11098.588C678.582,11114.52 682.457,11126.147 682.457,11126.147C667.817,11128.3 660.496,11073.451 660.496,11073.451C642.411,11091.105 634.66,11114.358 634.66,11114.358C610.977,11115.65 610.977,11085.077 610.977,11085.077C595.475,11098.426 593.753,11107.899 593.753,11107.899C584.279,11089.814 588.155,11067.422 588.155,11067.422C563.18,11088.952 554.998,11113.927 554.998,11113.927C544.233,11105.746 536.482,11080.34 536.482,11080.34C523.134,11096.273 524.425,11112.205 524.425,11112.205C511.077,11101.44 504.187,11056.226 504.187,11056.226C496.005,11076.465 499.02,11117.372 499.02,11117.372C487.824,11105.746 483.087,11077.757 483.087,11077.757C476.198,11092.828 474.475,11116.081 474.475,11116.081C455.959,11088.522 458.543,11048.045 458.543,11048.045C433.137,11074.312 434.003,11114.58 434.003,11114.58C382.671,11059.141 388.831,10823.013 466.856,10611.525C536.989,10421.425 758.089,10415.472 802.094,10416.212Z" style="stroke:black;stroke-width:33.54px;"/>
            </g>
            <g>
                <g transform="matrix(0.187845,0,0,0.240962,1676.499213,8334.810027)">
                    <path d="M802.094,10416.212C846.098,10415.472 1067.198,10421.425 1137.332,10611.525C1215.357,10823.013 1221.517,11059.141 1170.185,11114.58C1170.185,11114.58 1171.051,11074.312 1145.645,11048.045C1145.645,11048.045 1148.228,11088.522 1129.712,11116.081C1129.712,11116.081 1127.99,11092.828 1121.1,11077.757C1121.1,11077.757 1116.364,11105.746 1105.168,11117.372C1105.168,11117.372 1108.182,11076.465 1100.001,11056.226C1100.001,11056.226 1093.111,11101.44 1079.762,11112.205C1079.762,11112.205 1081.054,11096.273 1067.705,11080.34C1067.705,11080.34 1059.954,11105.746 1049.189,11113.927C1049.189,11113.927 1041.008,11088.952 1016.033,11067.422C1016.033,11067.422 1019.908,11089.814 1010.435,11107.899C1010.435,11107.899 1008.713,11098.426 993.211,11085.077C993.211,11085.077 993.211,11115.65 969.527,11114.358C969.527,11114.358 961.777,11091.105 943.691,11073.451C943.691,11073.451 936.371,11128.3 921.73,11126.147C921.73,11126.147 925.606,11114.52 917.424,11098.588C917.424,11098.588 910.965,11120.118 896.755,11119.257C896.755,11119.257 899.339,11104.186 894.172,11084.809C894.172,11084.809 884.698,11101.172 875.656,11102.894C877.003,11094.609 874.849,11085.414 868.504,11075.13C870.371,11085 861.579,11100.648 850.287,11107.987C848.069,11092.56 841.583,11081.938 830.134,11076.904C816.046,11080.907 808.695,11091.96 802.094,11103.719C790.754,11095.339 784.553,11085.528 784.699,11073.95C775.715,11081.309 767.357,11089.504 764.143,11104.574C755.719,11096.438 752.154,11086.787 751.934,11076.093C739.802,11082.264 731.64,11090.967 728.532,11102.894C719.489,11101.172 710.016,11084.809 710.016,11084.809C704.849,11104.186 707.432,11119.257 707.432,11119.257C693.222,11120.118 686.763,11098.588 686.763,11098.588C678.582,11114.52 682.457,11126.147 682.457,11126.147C667.817,11128.3 660.496,11073.451 660.496,11073.451C642.411,11091.105 634.66,11114.358 634.66,11114.358C610.977,11115.65 610.977,11085.077 610.977,11085.077C595.475,11098.426 593.753,11107.899 593.753,11107.899C584.279,11089.814 588.155,11067.422 588.155,11067.422C563.18,11088.952 554.998,11113.927 554.998,11113.927C544.233,11105.746 536.482,11080.34 536.482,11080.34C523.134,11096.273 524.425,11112.205 524.425,11112.205C511.077,11101.44 504.187,11056.226 504.187,11056.226C496.005,11076.465 499.02,11117.372 499.02,11117.372C487.824,11105.746 483.087,11077.757 483.087,11077.757C476.198,11092.828 474.475,11116.081 474.475,11116.081C455.959,11088.522 458.543,11048.045 458.543,11048.045C433.137,11074.312 434.003,11114.58 434.003,11114.58C382.671,11059.141 388.831,10823.013 466.856,10611.525C536.989,10421.425 758.089,10415.472 802.094,10416.212Z" style="fill:rgb(72,48,24);"/>
                </g>
                <g transform="matrix(0.790069,-0.065566,0.065566,0.790069,-1801.774916,1572.961949)">
                    <path d="M3579.384,12210.466C3575.835,12210.015 3563.633,12207.976 3556.695,12200.673C3548.513,12192.061 3503.366,12171.988 3514.562,12116.009L3528,12089.312L3592.573,12057.582L3651.033,12099.522L3659.886,12128.069C3661.701,12185.128 3613.863,12197.484 3604.374,12204.63C3596.327,12210.689 3583.955,12210.689 3580.38,12210.549L3580.378,12210.577C3580.378,12210.577 3580.203,12210.562 3579.881,12210.526C3579.557,12210.509 3579.382,12210.494 3579.382,12210.494L3579.384,12210.466Z" style="fill:rgb(240,192,152);"/>
                </g>
                <g transform="matrix(1,-0,0,1,0.914791,-2.337227)">
                    <path d="M1765.984,10931.532C1765.984,10931.532 1794.002,10922.272 1783.3,10895.375L1763.558,10904.855L1765.984,10931.532Z" style="fill:rgb(72,48,24);"/>
                </g>
                <g transform="matrix(-1,0,0,1,3653.422504,-2.337227)">
                    <path d="M1765.984,10931.532C1765.984,10931.532 1794.002,10922.272 1783.3,10895.375L1761.133,10904.855C1767.012,10916.76 1760.104,10919.627 1765.984,10931.532Z" style="fill:rgb(72,48,24);"/>
                </g>
                <path d="M1827.169,10856.516C1827.169,10856.516 1883.495,10851.994 1885.467,10919.276C1885.467,10919.276 1872.397,10878.8 1827.169,10878.8C1781.94,10878.8 1768.871,10919.276 1768.871,10919.276C1770.843,10851.994 1827.169,10856.516 1827.169,10856.516Z" style="fill:rgb(206,86,48);"/>
                <clipPath id="_clip1">
                    <path d="M1827.169,10856.516C1827.169,10856.516 1883.495,10851.994 1885.467,10919.276C1885.467,10919.276 1872.397,10878.8 1827.169,10878.8C1781.94,10878.8 1768.871,10919.276 1768.871,10919.276C1770.843,10851.994 1827.169,10856.516 1827.169,10856.516Z"/>
                </clipPath>
                <g clip-path="url(#_clip1)">
                    <g transform="matrix(0.835145,-0.55003,0.55003,0.835145,-5669.585025,2781.823873)">
                        <rect x="1773.955" y="10856.452" width="1.764" height="19.187" style="fill:rgb(230,230,230);"/>
                    </g>
                    <g transform="matrix(0.835145,-0.55003,0.55003,0.835145,-5673.793672,2786.032521)">
                        <rect x="1773.955" y="10856.452" width="1.764" height="19.187" style="fill:rgb(230,230,230);"/>
                    </g>
                    <g transform="matrix(-0.835145,-0.55003,-0.55003,0.835145,9323.92232,2781.823873)">
                        <rect x="1773.955" y="10856.452" width="1.764" height="19.187" style="fill:rgb(230,230,230);"/>
                    </g>
                    <g transform="matrix(-0.835145,-0.55003,-0.55003,0.835145,9328.130967,2786.032521)">
                        <rect x="1773.955" y="10856.452" width="1.764" height="19.187" style="fill:rgb(230,230,230);"/>
                    </g>
                </g>
                <g transform="matrix(0.147874,0,0,0.147874,1677.367079,9325.848751)">
                    <path d="M816.216,10736.473C816.216,10736.473 879.475,10741.815 902.728,10768.082C925.98,10794.349 931.578,10816.74 944.066,10810.281C956.553,10803.822 906.576,10715.198 816.216,10736.473Z" style="fill:rgb(72,48,24);"/>
                </g>
                <g transform="matrix(-0.147874,0,0,0.147874,1976.970216,9325.848751)">
                    <path d="M816.216,10736.473C816.216,10736.473 879.475,10741.815 902.728,10768.082C925.98,10794.349 931.578,10816.74 944.066,10810.281C956.553,10803.822 906.576,10715.198 816.216,10736.473Z" style="fill:rgb(72,48,24);"/>
                </g>
            </g>
        </g>
    </g>
</svg>
