<?xml version="1.0" encoding="UTF-8" standalone="no"?>
<!DOCTYPE svg PUBLIC "-//W3C//DTD SVG 1.1//EN" "http://www.w3.org/Graphics/SVG/1.1/DTD/svg11.dtd">
<svg width="100%" height="100%" viewBox="0 0 199 224" version="1.1" xmlns="http://www.w3.org/2000/svg" xmlns:xlink="http://www.w3.org/1999/xlink" xml:space="preserve" xmlns:serif="http://www.serif.com/" style="fill-rule:evenodd;clip-rule:evenodd;stroke-linecap:round;stroke-linejoin:round;stroke-miterlimit:1.5;">
    <g transform="matrix(1,0,0,1,-5516.660251,-13364.610046)">
        <g transform="matrix(1.079177,0,0,1.079177,2910.555515,898.186682)">
            <g transform="matrix(0.908718,-0.075412,0.075412,0.908718,-1666.838621,899.17119)">
                <path d="M3537.86,12185.793C3537.774,12220.574 3540.628,12239.789 3540.628,12239.789C3525.288,12228.945 3521.636,12192.458 3521.636,12192.458C3516.78,12207.683 3517.948,12222.435 3517.948,12222.435C3461.922,12152.442 3500.985,12057.977 3525.078,12038.224C3544.207,12022.541 3580.932,12024.021 3595.252,12025.297C3609.587,12026.399 3646.054,12030.993 3662.336,12049.615C3682.843,12073.069 3705.801,12172.681 3639.003,12232.481C3639.003,12232.481 3642.587,12218.123 3640.307,12202.306C3640.307,12202.306 3630.69,12237.692 3613.773,12245.859C3613.773,12245.859 3619.755,12227.377 3625.403,12193.058C3616.162,12198.815 3607.787,12202.059 3604.374,12204.63C3596.327,12210.689 3583.955,12210.689 3580.38,12210.549L3580.378,12210.577C3580.378,12210.577 3580.203,12210.562 3579.881,12210.526C3579.557,12210.509 3579.382,12210.494 3579.382,12210.494L3579.384,12210.466C3575.835,12210.015 3563.633,12207.976 3556.695,12200.673C3553.752,12197.575 3546.026,12192.995 3537.86,12185.793Z" style="stroke:black;stroke-width:8.47px;"/>
            </g>
            <g>
                <g transform="matrix(0.908718,-0.075412,0.075412,0.908718,-1666.838621,899.17119)">
                    <path d="M3579.384,12210.466C3575.835,12210.015 3563.633,12207.976 3556.695,12200.673C3548.513,12192.061 3503.366,12171.988 3514.562,12116.009L3528,12089.312L3592.573,12057.582L3651.033,12099.522L3659.886,12128.069C3661.701,12185.128 3613.863,12197.484 3604.374,12204.63C3596.327,12210.689 3583.955,12210.689 3580.38,12210.549L3580.378,12210.577C3580.378,12210.577 3580.203,12210.562 3579.881,12210.526C3579.557,12210.509 3579.382,12210.494 3579.382,12210.494L3579.384,12210.466Z" style="fill:rgb(240,192,152);"/>
                </g>
                <g transform="matrix(0.170081,0,0,0.170081,2334.784142,9816.349146)">
                    <path d="M816.216,10736.473C816.216,10736.473 879.475,10741.815 902.728,10768.082C925.98,10794.349 931.578,10816.74 944.066,10810.281C956.553,10803.822 906.576,10715.198 816.216,10736.473Z" style="fill:rgb(72,48,24);"/>
                </g>
                <g transform="matrix(-0.170081,0,0,0.170081,2679.380234,9816.349146)">
                    <path d="M816.216,10736.473C816.216,10736.473 879.475,10741.815 902.728,10768.082C925.98,10794.349 931.578,10816.74 944.066,10810.281C956.553,10803.822 906.576,10715.198 816.216,10736.473Z" style="fill:rgb(72,48,24);"/>
                </g>
                <g transform="matrix(0.202116,0,0,0.245091,2085.003714,8785.983591)">
                    <path d="M2088.294,11403.018L2373.165,11400.417L2328.938,11594.883C2328.938,11594.883 2256.095,11548.055 2088.294,11550.657C1920.493,11548.055 1847.65,11594.883 1847.65,11594.883L1803.423,11400.417L2088.294,11403.018Z" style="fill:rgb(138,27,19);"/>
                </g>
                <g transform="matrix(0.245091,0,0,0.245091,2007.16775,8781.557882)">
                    <path d="M2039.707,11318.598C2093.195,11318.275 2229.814,11324.087 2295.912,11388.12C2379.162,11468.769 2494.932,11831.036 2265.669,12073.306C2265.669,12073.306 2274.538,12018.97 2261.218,11961.028C2261.218,11961.028 2236.451,12095.186 2176.241,12130.671C2176.241,12130.671 2200.63,12026.608 2208.76,11839.621C2216.89,11652.634 2229.573,11600.928 2205.638,11480.215C2205.638,11480.215 2169.041,11427.912 2039.707,11422.238C1910.373,11427.912 1873.775,11480.215 1873.775,11480.215C1849.841,11600.928 1862.524,11652.634 1870.654,11839.621C1878.783,12026.608 1903.173,12130.671 1903.173,12130.671C1842.963,12095.186 1818.196,11961.028 1818.196,11961.028C1804.876,12018.97 1813.744,12073.306 1813.744,12073.306C1584.482,11831.036 1700.251,11468.769 1783.501,11388.12C1849.6,11324.087 1986.218,11318.275 2039.707,11318.598Z" style="fill:rgb(74,60,26);"/>
                </g>
            </g>
        </g>
    </g>
</svg>
