<?xml version="1.0" encoding="UTF-8" standalone="no"?>
<!DOCTYPE svg PUBLIC "-//W3C//DTD SVG 1.1//EN" "http://www.w3.org/Graphics/SVG/1.1/DTD/svg11.dtd">
<svg width="100%" height="100%" viewBox="0 0 247 201" version="1.1" xmlns="http://www.w3.org/2000/svg" xmlns:xlink="http://www.w3.org/1999/xlink" xml:space="preserve" xmlns:serif="http://www.serif.com/" style="fill-rule:evenodd;clip-rule:evenodd;stroke-linecap:round;stroke-linejoin:round;stroke-miterlimit:1.5;">
    <g transform="matrix(1,0,0,1,-6296.208202,-13561.828383)">
        <g transform="matrix(1.116912,0,0,1.116912,4444.630166,2215.259058)">
            <g transform="matrix(1,0,0,1,13.618059,729.533017)">
                <path d="M1693.779,9531.88C1693.278,9531.721 1692.641,9531.63 1691.843,9531.614C1691.843,9531.614 1691.698,9530.072 1692.395,9529.171C1692.395,9529.171 1682.733,9537.8 1677.884,9546.667C1677.884,9546.667 1678.022,9538.493 1685.365,9525.746C1685.365,9525.746 1672.757,9523.114 1660.011,9525.746C1660.011,9525.746 1674.143,9508.29 1684.257,9499.7C1684.257,9499.7 1674.396,9494.321 1647.878,9492.968C1647.878,9492.968 1708.864,9442.969 1741.656,9461.563C1745.833,9455.686 1752.11,9452.328 1757.399,9449.115C1768.454,9442.399 1802.092,9433.073 1802.092,9433.073C1802.092,9433.073 1792.891,9440.397 1785.525,9455.357C1785.194,9456.03 1784.799,9456.718 1784.348,9457.419C1817.585,9457.525 1860.816,9492.968 1860.816,9492.968C1834.298,9494.321 1824.437,9499.7 1824.437,9499.7C1834.551,9508.29 1848.682,9525.746 1848.682,9525.746C1835.936,9523.114 1823.329,9525.746 1823.329,9525.746C1830.672,9538.493 1830.81,9546.667 1830.81,9546.667C1825.961,9537.8 1816.299,9529.171 1816.299,9529.171C1816.996,9530.072 1816.851,9531.614 1816.851,9531.614C1816.053,9531.63 1815.416,9531.721 1814.915,9531.88C1816.557,9531.424 1818.13,9531.633 1819.405,9533C1822.487,9536.307 1821.661,9546.999 1816.572,9554.99C1813.946,9564.382 1804.25,9571.126 1804.25,9571.126C1805.081,9568.529 1805.548,9565.921 1805.807,9563.659C1804.52,9564.047 1803.15,9564.29 1801.696,9564.363C1801.49,9564.624 1801.285,9564.878 1801.083,9565.123C1790.975,9583.213 1777.306,9595.376 1773.311,9598.937C1767.351,9604.253 1757.577,9605.063 1754.743,9605.187L1754.743,9605.209C1754.743,9605.209 1754.604,9605.209 1754.347,9605.202C1754.09,9605.209 1753.95,9605.209 1753.95,9605.209L1753.95,9605.187C1751.117,9605.063 1741.343,9604.253 1735.382,9598.937C1731.388,9595.376 1717.719,9583.213 1707.611,9565.123C1707.409,9564.878 1707.204,9564.624 1706.998,9564.363C1705.544,9564.29 1704.174,9564.047 1702.887,9563.659C1703.145,9565.921 1703.613,9568.529 1704.444,9571.126C1704.444,9571.126 1694.748,9564.382 1692.122,9554.99C1687.032,9546.999 1686.206,9536.307 1689.289,9533C1690.564,9531.633 1692.137,9531.424 1693.779,9531.88Z" style="stroke:black;stroke-width:7.46px;"/>
            </g>
            <g>
                <g transform="matrix(1,0,0,1,13.618059,729.533017)">
                    <g transform="matrix(0.540936,0,0,0.543939,-196.723481,2945.857402)">
                        <path d="M3514.164,12123.953C3514.164,12123.953 3495.977,12100.048 3486.571,12110.082C3477.164,12120.116 3487.446,12167.149 3520.369,12167.776L3514.164,12123.953Z" style="fill:rgb(213,154,99);"/>
                    </g>
                    <g transform="matrix(-0.540936,0,0,0.543939,3705.41711,2945.857402)">
                        <path d="M3514.164,12123.953C3514.164,12123.953 3495.977,12100.048 3486.571,12110.082C3477.164,12120.116 3487.446,12167.149 3520.369,12167.776L3514.164,12123.953Z" style="fill:rgb(213,154,99);"/>
                    </g>
                    <g transform="matrix(0.790069,-0.065566,0.065566,0.790069,-1874.596749,172.760043)">
                        <path d="M3577.298,12235.607C3573.749,12235.156 3561.546,12233.117 3554.608,12225.814C3546.427,12217.202 3503.366,12171.988 3514.562,12116.009L3528,12089.312L3589.443,12095.294L3651.033,12099.522L3659.886,12128.069C3661.701,12185.128 3611.776,12222.625 3602.287,12229.771C3594.24,12235.83 3581.869,12235.83 3578.294,12235.69L3578.292,12235.718C3578.292,12235.718 3578.117,12235.703 3577.794,12235.667C3577.47,12235.65 3577.295,12235.635 3577.295,12235.635L3577.298,12235.607Z" style="fill:rgb(213,154,99);"/>
                    </g>
                </g>
                <g transform="matrix(0.153093,0,0,0.153093,1603.41073,8773.536578)">
                    <path d="M872.298,9721.296C872.298,9721.296 936.217,9712.549 963.129,9742.826C990.042,9773.103 1009.554,9814.818 1025.702,9798.67C1041.85,9782.523 978.604,9687.655 872.298,9721.296Z" style="fill:rgb(104,58,26);"/>
                </g>
                <g transform="matrix(-0.153093,0,0,0.153093,1932.519017,8773.536578)">
                    <path d="M872.298,9721.296C872.298,9721.296 936.217,9712.549 963.129,9742.826C990.042,9773.103 1009.554,9814.818 1025.702,9798.67C1041.85,9782.523 978.604,9687.655 872.298,9721.296Z" style="fill:rgb(104,58,26);"/>
                </g>
                <g transform="matrix(0.164732,0,0,0.164732,1605.512091,8659.741135)">
                    <path d="M986.162,9557.63C970.847,9613.997 945.959,9686.423 905.878,9765.663C905.878,9765.663 905.839,9741.902 899.38,9723.386C899.38,9723.386 879.401,9747.796 850.394,9811.714C850.394,9811.714 832.825,9782.11 836.189,9706.081C836.189,9706.081 816.542,9719.269 806.315,9766.635C806.315,9766.635 792.321,9728.99 792.321,9696.947C792.321,9696.947 781.719,9793.267 765.356,9817.381C765.356,9817.381 768.37,9868.193 757.174,9885.848C757.174,9885.848 748.562,9849.677 736.074,9816.52C736.074,9816.52 723.311,9878.904 723.311,9947.532C723.311,9947.532 683.17,9908.982 672.147,9874.533C672.147,9874.533 669.448,9918.051 683.227,9961.111C683.227,9961.111 608.879,9909.398 604.673,9841.275C600.468,9773.152 657.869,9722.328 606.735,9721.252C606.735,9721.252 605.853,9711.895 610.086,9706.427C610.086,9706.427 551.431,9758.806 521.995,9812.631C521.995,9812.631 522.836,9763.011 567.411,9685.636C567.411,9685.636 490.877,9669.657 413.503,9685.636C413.503,9685.636 499.287,9579.667 560.682,9527.523C560.682,9527.523 500.825,9494.868 339.847,9486.654C339.847,9486.654 831.233,9083.796 986.162,9378.939C1141.09,9083.796 1632.476,9486.654 1632.476,9486.654C1471.498,9494.868 1411.641,9527.523 1411.641,9527.523C1473.036,9579.667 1558.82,9685.636 1558.82,9685.636C1481.446,9669.657 1404.912,9685.636 1404.912,9685.636C1449.487,9763.011 1450.328,9812.631 1450.328,9812.631C1420.892,9758.806 1362.237,9706.427 1362.237,9706.427C1366.47,9711.895 1365.588,9721.252 1365.588,9721.252C1314.454,9722.328 1371.855,9773.152 1367.65,9841.275C1363.445,9909.398 1289.096,9961.111 1289.096,9961.111C1302.875,9918.051 1300.176,9874.533 1300.176,9874.533C1289.153,9908.982 1249.012,9947.532 1249.012,9947.532C1249.012,9878.904 1236.249,9816.52 1236.249,9816.52C1223.761,9849.677 1215.149,9885.848 1215.149,9885.848C1203.953,9868.193 1206.967,9817.381 1206.967,9817.381C1190.604,9793.267 1180.002,9696.947 1180.002,9696.947C1180.002,9728.99 1166.008,9766.635 1166.008,9766.635C1155.781,9719.269 1136.134,9706.081 1136.134,9706.081C1139.498,9782.11 1121.929,9811.714 1121.929,9811.714C1092.922,9747.796 1072.943,9723.386 1072.943,9723.386C1066.484,9741.902 1066.445,9765.663 1066.445,9765.663C1026.365,9686.423 1001.476,9613.997 986.162,9557.63Z" style="fill:rgb(112,64,31);"/>
                </g>
                <g transform="matrix(0.158743,-0.044016,0.044016,0.158743,1227.99031,8761.549759)">
                    <path d="M702.292,9397.131C702.292,9397.131 965.113,9328.14 1032.461,9252.579C1099.809,9177.018 1165.514,9149.094 1165.514,9149.094C1165.514,9149.094 953.614,9149.094 878.053,9170.448C802.492,9191.802 700.649,9209.871 702.292,9397.131Z" style="fill:rgb(104,58,26);"/>
                </g>
            </g>
        </g>
    </g>
</svg>
