<?xml version="1.0" encoding="UTF-8" standalone="no"?>
<!DOCTYPE svg PUBLIC "-//W3C//DTD SVG 1.1//EN" "http://www.w3.org/Graphics/SVG/1.1/DTD/svg11.dtd">
<svg width="100%" height="100%" viewBox="0 0 210 347" version="1.1" xmlns="http://www.w3.org/2000/svg" xmlns:xlink="http://www.w3.org/1999/xlink" xml:space="preserve" xmlns:serif="http://www.serif.com/" style="fill-rule:evenodd;clip-rule:evenodd;stroke-linecap:round;stroke-linejoin:round;stroke-miterlimit:1.5;">
    <g transform="matrix(1,0,0,1,-8322.6,-13641.9)">
        <g transform="matrix(0.680635,0,0,0.680635,2403.86,13126.7)">
            <path d="M8791.56,783.921C8805.52,771.121 8826.28,763.002 8849.44,763.002C8872.76,763.002 8893.65,771.236 8907.61,784.187C8907.57,784.099 8907.54,784.01 8907.5,783.921C8907.5,783.921 8918.95,784.3 8922.67,785.274C8926.38,786.248 8938.43,782.875 8945.71,788.213C8952.99,793.551 8959.82,798.01 8964.7,808.551C8964.7,808.551 8967.07,814.669 8970.48,817.58C8973.9,820.491 8978.49,829.336 8976.98,841.078L8974.9,839.782C8974.9,839.782 8980.13,856.974 8966.18,864.143L8951.77,863.366C8951.77,863.366 8942.91,878.961 8947.98,896.562C8953.06,914.164 8963.95,928.794 8970.89,943.182C8977.83,957.57 8978.71,984.218 8984.95,1001.07C8991.19,1017.91 8988.45,1034.56 8997.03,1042.33C8997.03,1042.33 8991.22,1044.83 8981.23,1043.68C8981.23,1043.68 8983.13,1051.53 8980.79,1061.7C8980.79,1061.7 8986.28,1071.16 8992.95,1078.5C8992.95,1078.5 8984.23,1080.62 8972.9,1080.37C8972.9,1080.37 8950.18,1145.59 8928.7,1172.46C8907.23,1199.33 8889.75,1218.23 8886.83,1226.8C8886.83,1226.8 8883.93,1221.77 8881.4,1217.03C8881.4,1217.03 8872.63,1228.27 8873.89,1246.43C8873.89,1246.43 8864.79,1244.45 8860.89,1241.27C8860.89,1241.27 8856.25,1250.18 8849.53,1259.71L8849.22,1259.26C8842.68,1249.91 8838.18,1241.27 8838.18,1241.27C8834.28,1244.45 8825.18,1246.43 8825.18,1246.43C8826.44,1228.27 8817.67,1217.03 8817.67,1217.03C8815.14,1221.77 8812.24,1226.8 8812.24,1226.8C8809.32,1218.23 8791.84,1199.33 8770.37,1172.46C8748.89,1145.59 8726.17,1080.37 8726.17,1080.37C8714.84,1080.62 8706.12,1078.5 8706.12,1078.5C8712.78,1071.16 8718.28,1061.7 8718.28,1061.7C8715.94,1051.53 8717.84,1043.68 8717.84,1043.68C8707.85,1044.83 8702.03,1042.33 8702.03,1042.33C8710.62,1034.56 8707.88,1017.91 8714.12,1001.07C8720.36,984.218 8721.24,957.57 8728.18,943.182C8735.12,928.794 8746.01,914.164 8751.09,896.562C8756.16,878.961 8747.3,863.366 8747.3,863.366L8732.89,864.143C8718.94,856.974 8724.17,839.782 8724.17,839.782L8722.09,841.078C8720.58,829.336 8725.17,820.491 8728.59,817.58C8732,814.669 8734.37,808.551 8734.37,808.551C8739.25,798.01 8746.08,793.551 8753.36,788.213C8760.64,782.875 8772.69,786.248 8776.4,785.274C8780.06,784.316 8791.2,783.933 8791.56,783.921Z" style="stroke:black;stroke-width:12.24px;"/>
            <g>
                <path d="M8833.61,869.317L8773.36,868.491L8751.25,930.156L8844.89,943.082L8942.01,921.542L8937.15,862.406L8833.61,869.317Z" style="fill:rgb(138,107,73);"/>
                <path d="M8728.09,981.499L8758.69,919.468L8775.32,917.505C8775.32,917.505 8792.33,907.796 8849.53,906.117L8850.87,906.158C8907.01,907.946 8923.75,917.505 8923.75,917.505L8940.38,919.468L8970.98,981.499L8849.53,1123.72L8728.09,981.499Z" style="fill:rgb(253,214,147);"/>
                <g transform="matrix(0.922237,0,0,1,664.363,-15.2323)">
                    <ellipse cx="8875.25" cy="837.786" rx="82.493" ry="59.553" style="fill:rgb(138,107,73);"/>
                </g>
                <g transform="matrix(1,0,0,0.814195,181.021,224.057)">
                    <path d="M8668.2,1271.45C8661.66,1259.96 8657.16,1249.35 8657.16,1249.35C8653.26,1253.26 8644.16,1255.69 8644.16,1255.69C8645.42,1233.38 8636.65,1219.58 8636.65,1219.58C8634.11,1225.39 8631.22,1231.57 8631.22,1231.57C8628.3,1221.05 8610.82,1197.84 8589.34,1164.83C8567.87,1131.83 8545.15,1051.73 8545.15,1051.73C8533.82,1052.04 8525.1,1049.44 8525.1,1049.44C8531.76,1040.42 8537.26,1028.8 8537.26,1028.8C8534.92,1016.31 8536.82,1006.66 8536.82,1006.66C8526.83,1008.08 8521.01,1005.01 8521.01,1005.01C8529.59,995.464 8526.86,975.018 8533.1,954.327C8539.34,933.636 8540.22,900.907 8547.16,883.235C8554.1,865.564 8564.99,847.595 8570.07,825.976C8575.14,804.358 8566.28,785.204 8566.28,785.204L8551.87,786.158C8537.92,777.353 8543.15,756.238 8543.15,756.238L8541.07,757.831C8539.56,743.408 8544.15,732.544 8547.57,728.969C8550.98,725.394 8553.35,717.88 8553.35,717.88C8558.23,704.934 8565.06,699.457 8572.34,692.901C8579.61,686.345 8591.67,690.488 8595.38,689.292C8599.1,688.095 8610.55,687.629 8610.55,687.629C8607.07,698.073 8609.89,703.669 8609.89,703.669C8603.8,703.775 8599.72,708.065 8599.72,708.065C8601.63,711.297 8608.58,715.663 8608.58,715.663C8603.92,718.241 8594.31,719.685 8594.31,719.685C8602.41,721.955 8603.84,724.694 8603.84,724.694C8587.94,768.87 8594.29,851.719 8594.29,851.719C8580.54,859.922 8574.62,873.874 8574.62,873.874C8577.97,873.311 8582.61,873.674 8582.61,873.674C8556.06,891.566 8550.82,935.035 8574.97,960.262C8599.12,985.489 8641.74,985.97 8641.74,985.97C8639.25,988.591 8635.8,990.025 8635.8,990.025C8654.72,995.227 8668.51,990.206 8668.51,990.206L8668.67,990.261C8670.26,990.794 8683.49,994.902 8701.23,990.025C8701.23,990.025 8697.78,988.591 8695.29,985.97C8695.29,985.97 8737.91,985.489 8762.06,960.262C8786.21,935.035 8780.97,891.566 8754.41,873.674C8754.41,873.674 8759.06,873.311 8762.41,873.874C8762.41,873.874 8756.48,859.922 8742.74,851.719C8742.74,851.719 8749.09,768.87 8733.19,724.694C8733.19,724.694 8734.62,721.955 8742.71,719.685C8742.71,719.685 8733.1,718.241 8728.44,715.663C8728.44,715.663 8735.4,711.297 8737.31,708.065C8737.31,708.065 8733.22,703.775 8727.13,703.669C8727.13,703.669 8729.96,698.073 8726.48,687.629C8726.48,687.629 8737.93,688.095 8741.65,689.292C8745.36,690.488 8757.41,686.345 8764.69,692.901C8771.97,699.457 8778.8,704.934 8783.68,717.88C8783.68,717.88 8786.05,725.394 8789.46,728.969C8792.88,732.544 8797.47,743.408 8795.95,757.831L8793.88,756.238C8793.88,756.238 8799.11,777.353 8785.16,786.158L8770.75,785.204C8770.75,785.204 8761.89,804.358 8766.96,825.976C8772.04,847.595 8782.93,865.564 8789.87,883.235C8796.81,900.907 8797.69,933.636 8803.93,954.327C8810.17,975.018 8807.43,995.464 8816.01,1005.01C8816.01,1005.01 8810.2,1008.08 8800.21,1006.66C8800.21,1006.66 8802.11,1016.31 8799.76,1028.8C8799.76,1028.8 8805.26,1040.42 8811.93,1049.44C8811.93,1049.44 8803.21,1052.04 8791.88,1051.73C8791.88,1051.73 8769.16,1131.83 8747.68,1164.83C8726.2,1197.84 8708.73,1221.05 8705.81,1231.57C8705.81,1231.57 8702.91,1225.39 8700.38,1219.58C8700.38,1219.58 8691.61,1233.38 8692.87,1255.69C8692.87,1255.69 8683.77,1253.26 8679.87,1249.35C8679.87,1249.35 8675.23,1260.3 8668.51,1271.99L8668.2,1271.45Z" style="fill:rgb(231,232,224);"/>
                </g>
                <path d="M8782.77,914.632C8762.07,847.884 8772.43,833.614 8781.92,820.211C8791.72,806.377 8813.87,828.445 8822.19,845.931C8830.51,863.417 8868.82,862.872 8876.88,845.931C8885.2,828.445 8907.35,806.377 8917.15,820.211C8926.65,833.614 8937,847.884 8916.3,914.632C8906.75,911.664 8886.94,907.307 8850.87,906.158L8849.53,906.117C8812.62,907.2 8792.44,911.628 8782.77,914.632Z" style="fill:rgb(245,208,145);"/>
                <g transform="matrix(1,0,0,1,478.666,65.6174)">
                    <path d="M8377.51,838.852C8377.51,838.852 8370.32,835.124 8365.01,838.952L8363.38,833.102C8363.38,833.102 8371.24,829.643 8378.36,833.676L8377.51,838.852Z" style="fill:rgb(57,57,53);"/>
                </g>
                <g transform="matrix(1,0,0,1,477.902,66.2811)">
                    <path d="M8420.94,824.742C8420.94,824.742 8398.64,823.216 8385.81,826.725C8372.98,830.234 8375.57,835.072 8379.46,845.303C8383.34,855.533 8393.75,857.225 8407.51,853.345C8421.27,849.465 8421.11,835.895 8420.94,824.742" style="fill:rgb(61,61,57);"/>
                    <clipPath id="_clip1">
                        <path d="M8420.94,824.742C8420.94,824.742 8398.64,823.216 8385.81,826.725C8372.98,830.234 8375.57,835.072 8379.46,845.303C8383.34,855.533 8393.75,857.225 8407.51,853.345C8421.27,849.465 8421.11,835.895 8420.94,824.742"/>
                    </clipPath>
                    <g clip-path="url(#_clip1)">
                        <g transform="matrix(0.836067,0,0,0.733641,1376.81,223.698)">
                            <path d="M8420.94,824.742C8420.94,824.742 8398.64,823.216 8385.81,826.725C8372.98,830.234 8375.57,835.072 8379.46,845.303C8383.34,855.533 8393.75,857.225 8407.51,853.345C8421.27,849.465 8421.11,835.895 8420.94,824.742" style="fill:rgb(187,191,183);"/>
                        </g>
                    </g>
                </g>
                <g transform="matrix(-1,0,0,1,17221.2,66.2811)">
                    <path d="M8420.94,824.742C8420.94,824.742 8398.64,823.216 8385.81,826.725C8372.98,830.234 8375.57,835.072 8379.46,845.303C8383.34,855.533 8393.75,857.225 8407.51,853.345C8421.27,849.465 8421.11,835.895 8420.94,824.742" style="fill:rgb(61,61,57);"/>
                    <clipPath id="_clip2">
                        <path d="M8420.94,824.742C8420.94,824.742 8398.64,823.216 8385.81,826.725C8372.98,830.234 8375.57,835.072 8379.46,845.303C8383.34,855.533 8393.75,857.225 8407.51,853.345C8421.27,849.465 8421.11,835.895 8420.94,824.742"/>
                    </clipPath>
                    <g clip-path="url(#_clip2)">
                        <g transform="matrix(0.836067,0,0,0.733641,1376.81,223.698)">
                            <path d="M8420.94,824.742C8420.94,824.742 8398.64,823.216 8385.81,826.725C8372.98,830.234 8375.57,835.072 8379.46,845.303C8383.34,855.533 8393.75,857.225 8407.51,853.345C8421.27,849.465 8421.11,835.895 8420.94,824.742" style="fill:rgb(187,191,183);"/>
                        </g>
                    </g>
                </g>
            </g>
        </g>
    </g>
</svg>
