<?xml version="1.0" encoding="UTF-8" standalone="no"?>
<!DOCTYPE svg PUBLIC "-//W3C//DTD SVG 1.1//EN" "http://www.w3.org/Graphics/SVG/1.1/DTD/svg11.dtd">
<svg width="100%" height="100%" viewBox="0 0 201 201" version="1.1" xmlns="http://www.w3.org/2000/svg" xmlns:xlink="http://www.w3.org/1999/xlink" xml:space="preserve" xmlns:serif="http://www.serif.com/" style="fill-rule:evenodd;clip-rule:evenodd;stroke-linecap:round;stroke-linejoin:round;stroke-miterlimit:1.5;">
    <g transform="matrix(1,0,0,1,-898.471,-13562.1)">
        <g transform="matrix(0.392501,0,0,0.392501,-841.186,9290.78)">
            <g transform="matrix(1.01315,0,0,1.01315,-58.4358,-143.273)">
                <path d="M4926.23,10967.2C4926.23,10926.3 4892.97,10893 4852.02,10893L4517.06,10893C4476.11,10893 4442.86,10926.3 4442.86,10967.2L4442.86,11302.2C4442.86,11343.2 4476.11,11376.4 4517.06,11376.4L4852.02,11376.4C4892.97,11376.4 4926.23,11343.2 4926.23,11302.2L4926.23,10967.2Z" style="stroke:black;stroke-width:20.96px;"/>
            </g>
            <g transform="matrix(1.01315,0,0,1.01315,-58.4358,-143.273)">
                <path d="M4926.23,10967.2C4926.23,10926.3 4892.97,10893 4852.02,10893L4517.06,10893C4476.11,10893 4442.86,10926.3 4442.86,10967.2L4442.86,11302.2C4442.86,11343.2 4476.11,11376.4 4517.06,11376.4L4852.02,11376.4C4892.97,11376.4 4926.23,11343.2 4926.23,11302.2L4926.23,10967.2Z" style="fill:rgb(84,166,70);"/>
                <clipPath id="_clip1">
                    <path d="M4926.23,10967.2C4926.23,10926.3 4892.97,10893 4852.02,10893L4517.06,10893C4476.11,10893 4442.86,10926.3 4442.86,10967.2L4442.86,11302.2C4442.86,11343.2 4476.11,11376.4 4517.06,11376.4L4852.02,11376.4C4892.97,11376.4 4926.23,11343.2 4926.23,11302.2L4926.23,10967.2Z"/>
                </clipPath>
                <g clip-path="url(#_clip1)">
                    <g transform="matrix(0.987018,0,0,1.45256,57.6772,-5043.7)">
                        <path d="M4687.72,11137.9L4626.3,11137.9L4626.3,11199.3L4687.72,11199.3L4687.72,11137.9ZM4749.14,11137.9L4687.72,11137.9L4687.72,11199.3L4749.14,11199.3L4749.14,11137.9Z" style="fill:rgb(22,57,17);"/>
                    </g>
                    <g transform="matrix(0.996497,0,0,1.46089,699.273,-5241.61)">
                        <rect x="3877.61" y="11251.3" width="115.21" height="54.753" style="fill:rgb(22,57,17);"/>
                    </g>
                    <g transform="matrix(1.0015,0,0,1.31771,806.969,-3630.61)">
                        <rect x="3877.61" y="11251.3" width="115.21" height="54.753" style="fill:rgb(22,57,17);"/>
                    </g>
                    <g transform="matrix(0.526169,0,0,1.60408,2523.02,-6759.37)">
                        <rect x="3877.61" y="11251.3" width="115.21" height="54.753" style="fill:rgb(22,57,17);"/>
                    </g>
                    <g transform="matrix(0.526169,0,0,1.41878,2704.88,-4664.41)">
                        <rect x="3877.61" y="11251.3" width="115.21" height="54.753" style="fill:rgb(22,57,17);"/>
                    </g>
                    <g transform="matrix(0.987018,0,0,0.987018,57.6772,141.414)">
                        <path d="M4626.3,11259.9L4564.89,11259.9L4564.89,11321.3L4626.3,11321.3L4626.3,11259.9ZM4749.14,11321.3L4749.14,11199.3L4626.3,11199.3L4626.3,11321.3L4749.14,11321.3ZM4810.55,11259.9L4749.14,11259.9L4749.14,11321.3L4810.55,11321.3L4810.55,11259.9Z" style="fill:rgb(23,23,23);"/>
                    </g>
                </g>
            </g>
        </g>
    </g>
</svg>
