<?xml version="1.0" encoding="UTF-8" standalone="no"?>
<!DOCTYPE svg PUBLIC "-//W3C//DTD SVG 1.1//EN" "http://www.w3.org/Graphics/SVG/1.1/DTD/svg11.dtd">
<svg width="100%" height="100%" viewBox="0 0 207 188" version="1.1" xmlns="http://www.w3.org/2000/svg" xmlns:xlink="http://www.w3.org/1999/xlink" xml:space="preserve" xmlns:serif="http://www.serif.com/" style="fill-rule:evenodd;clip-rule:evenodd;stroke-linecap:round;stroke-linejoin:round;stroke-miterlimit:1.5;">
    <g transform="matrix(1,0,0,1,-5713.449818,-13166.742718)">
        <g transform="matrix(1.148763,0,0,1.148763,4573.60681,1588.91752)">
            <g transform="matrix(0.333788,0,0,0.333788,892.73645,6818.787993)">
                <path d="M346.878,9981.762C365.912,9865.307 457.635,9776.87 567.809,9776.753L567.893,9776.753L568.027,9776.753L568.112,9776.753C678.286,9776.87 770.008,9865.307 789.042,9981.762C800.706,9983.898 819.844,9988.978 824.251,9999.751C829.958,10013.7 831.173,10058.526 780.673,10086.51C771.113,10108.598 756.729,10126.962 740.831,10144.229C757.111,10153.506 767.48,10161.352 767.48,10161.352C767.48,10161.352 733.406,10184.82 696.656,10188.211C661.479,10219.694 621.333,10244.266 568.056,10244.316L568.027,10244.316L567.893,10244.316L567.865,10244.316C514.587,10244.266 474.441,10219.694 439.264,10188.211C402.514,10184.82 368.44,10161.352 368.44,10161.352C368.44,10161.352 378.809,10153.506 395.089,10144.229C379.192,10126.962 364.807,10108.598 355.247,10086.51C304.747,10058.526 305.963,10013.7 311.669,9999.751C316.076,9988.978 335.215,9983.898 346.878,9981.762Z" style="stroke:black;stroke-width:21.73px;"/>
            </g>
            <g>
                <g transform="matrix(0.333788,0,0,0.333788,892.73645,6818.787993)">
                    <path d="M356.067,9980.416C356.067,9980.416 318.114,9983.997 311.669,9999.751C305.224,10015.505 304.508,10070.644 377.55,10096.423L356.067,9980.416Z" style="fill:rgb(214,170,140);"/>
                </g>
                <g transform="matrix(-0.333788,0,0,0.333788,1271.892473,6818.787993)">
                    <path d="M356.067,9980.416C356.067,9980.416 318.114,9983.997 311.669,9999.751C305.224,10015.505 304.508,10070.644 377.55,10096.423L356.067,9980.416Z" style="fill:rgb(214,170,140);"/>
                </g>
                <g transform="matrix(0.270244,0,0,0.301347,789.824362,8538.847503)">
                    <path d="M1082.199,5639.227C1000.995,5639.158 944.489,5597.728 893.737,5551.591C848.814,5510.754 804.775,5469.844 804.775,5398.141C804.775,5245.455 929.029,5121.476 1082.13,5121.33C1082.165,5121.33 1082.2,5121.33 1082.235,5121.33L1082.4,5121.33C1082.435,5121.33 1082.47,5121.33 1082.505,5121.33C1235.606,5121.476 1359.86,5245.455 1359.86,5398.141C1359.86,5469.844 1315.821,5510.754 1270.898,5551.591C1220.146,5597.728 1163.64,5639.158 1082.436,5639.227C1082.424,5639.227 1082.412,5639.227 1082.4,5639.227L1082.235,5639.227C1082.223,5639.227 1082.211,5639.227 1082.199,5639.227Z" style="fill:rgb(222,179,149);"/>
                </g>
                <g transform="matrix(0.300535,0,0,0.192177,865.619057,9094.292942)">
                    <path d="M701.409,5461.719C701.409,5461.719 656.39,5381.404 599.699,5375.568C543.008,5369.733 540.502,5411.417 574.269,5415.586C608.036,5419.754 645.552,5413.646 701.409,5461.719Z" style="fill:rgb(175,175,175);"/>
                </g>
                <g transform="matrix(-0.300535,0,0,0.192177,1299.059661,9094.292942)">
                    <path d="M701.409,5461.719C701.409,5461.719 656.39,5381.404 599.699,5375.568C543.008,5369.733 540.502,5411.417 574.269,5415.586C608.036,5419.754 645.552,5413.646 701.409,5461.719Z" style="fill:rgb(175,175,175);"/>
                </g>
                <g transform="matrix(0.214765,0,0,0.410241,737.765829,7846.29257)">
                    <path d="M1583.158,5669.796C1570.731,5689.717 1535.185,5704.114 1493.322,5704.114C1441.133,5704.114 1398.762,5681.74 1398.762,5654.181C1398.762,5626.622 1441.133,5604.248 1493.322,5604.248C1545.511,5604.248 1587.881,5626.622 1587.881,5654.181C1587.881,5654.798 1587.86,5655.412 1587.818,5656.024C1595.127,5657.996 1608.247,5660.426 1620.897,5657.153C1620.788,5656.17 1620.732,5655.179 1620.732,5654.181C1620.732,5626.622 1663.103,5604.248 1715.292,5604.248C1767.481,5604.248 1809.851,5626.622 1809.851,5654.181C1809.851,5681.74 1767.481,5704.114 1715.292,5704.114C1673.71,5704.114 1638.361,5689.91 1625.71,5670.197C1615.192,5669.425 1598.231,5668.606 1583.158,5669.796Z" style="fill:rgb(99,75,60);"/>
                </g>
                <g transform="matrix(0.175032,0,0,0.306566,797.100069,8432.493217)">
                    <ellipse cx="1493.322" cy="5654.181" rx="94.559" ry="49.933" style="fill:rgb(136,165,169);"/>
                </g>
                <g transform="matrix(0.175032,0,0,0.306566,844.884173,8432.493217)">
                    <ellipse cx="1493.322" cy="5654.181" rx="94.559" ry="49.933" style="fill:rgb(136,165,169);"/>
                </g>
                <g transform="matrix(-0.374378,0,0,0.374378,1315.922751,6400.309961)">
                    <path d="M623.991,10148.21C616.222,10144.272 594.569,10135.633 554.042,10135.577C501.539,10135.505 446.103,10177.448 446.103,10177.448C446.103,10177.448 490.393,10207.953 529.697,10200.62C563.862,10194.246 611.991,10177.233 623.991,10172.894C635.991,10177.233 684.119,10194.246 718.285,10200.62C757.589,10207.953 801.879,10177.448 801.879,10177.448C801.879,10177.448 746.443,10135.505 693.94,10135.577C653.412,10135.633 631.76,10144.272 623.991,10148.21Z" style="fill:rgb(175,175,175);"/>
                </g>
            </g>
        </g>
    </g>
</svg>
