<?xml version="1.0" encoding="UTF-8" standalone="no"?>
<!DOCTYPE svg PUBLIC "-//W3C//DTD SVG 1.1//EN" "http://www.w3.org/Graphics/SVG/1.1/DTD/svg11.dtd">
<svg width="100%" height="100%" viewBox="0 0 199 237" version="1.1" xmlns="http://www.w3.org/2000/svg" xmlns:xlink="http://www.w3.org/1999/xlink" xml:space="preserve" xmlns:serif="http://www.serif.com/" style="fill-rule:evenodd;clip-rule:evenodd;stroke-linecap:round;stroke-linejoin:round;stroke-miterlimit:1.5;">
    <g transform="matrix(1,0,0,1,-898.639,-13125)">
        <g transform="matrix(0.760885,0,0,0.760885,-971.178,4368.99)">
            <path d="M2540.6,11781C2530.72,11775.1 2518.52,11766.9 2506.37,11756C2478.55,11731.1 2466.1,11719.6 2462.9,11691.6C2462.9,11691.6 2475.49,11685.6 2483.38,11687.3C2483.38,11687.3 2454.52,11642.1 2494.22,11594.2C2494.22,11594.2 2526.96,11608.2 2546.15,11637.6C2546.15,11637.6 2555.21,11544.9 2588.03,11513.1L2588.07,11513.1C2601.87,11526.5 2611.46,11550.6 2617.95,11574.1C2626.66,11564.4 2635.71,11555.5 2643.91,11549.4C2643.91,11549.4 2655.8,11576 2661.22,11606.2C2672.7,11598.1 2681.89,11594.2 2681.89,11594.2C2721.59,11642.1 2692.72,11687.3 2692.72,11687.3C2700.62,11685.6 2713.2,11691.6 2713.2,11691.6C2710.01,11719.6 2697.55,11731.1 2669.74,11756C2657.59,11766.9 2645.39,11775.1 2635.5,11781C2629.64,11792.2 2620,11797.5 2611.24,11803.8C2598.46,11812.9 2588.59,11812.9 2588.05,11812.9C2587.52,11812.9 2577.65,11812.9 2564.87,11803.8C2556.1,11797.5 2546.47,11792.2 2540.6,11781Z" style="stroke:black;stroke-width:10.95px;"/>
            <g>
                <g transform="matrix(1,0,0,1,-42.3148,49.7606)">
                    <path d="M2620.33,11574.8C2620.33,11574.8 2658.26,11520.3 2686.22,11499.7C2686.22,11499.7 2724.12,11584.3 2695.42,11623.3L2634.34,11632.9L2620.33,11574.8Z" style="fill:rgb(85,25,19);"/>
                </g>
                <g transform="matrix(1,0,0,1,24.2156,21.6173)">
                    <path d="M2563.82,11491.5L2563.86,11491.5C2596.68,11523.3 2605.74,11616 2605.74,11616C2624.93,11586.6 2657.67,11572.6 2657.67,11572.6C2697.37,11620.4 2668.51,11665.7 2668.51,11665.7C2676.4,11664 2688.99,11670 2688.99,11670C2685.79,11697.9 2673.34,11709.4 2645.52,11734.4C2617.71,11759.3 2589.62,11770.4 2589.62,11770.4L2565.66,11767L2562.08,11757.3L2562.01,11767L2538.05,11770.4C2538.05,11770.4 2509.97,11759.3 2482.15,11734.4C2454.34,11709.4 2441.88,11697.9 2438.69,11670C2438.69,11670 2451.27,11664 2459.17,11665.7C2459.17,11665.7 2430.3,11620.4 2470.01,11572.6C2470.01,11572.6 2502.75,11586.6 2521.93,11616C2521.93,11616 2530.99,11523.3 2563.82,11491.5Z" style="fill:rgb(99,29,22);"/>
                </g>
                <g transform="matrix(1,0,0,1,293.821,-4.07189)">
                    <path d="M2329.6,11779C2329.6,11779 2360.66,11778 2363.74,11758.6C2366.83,11739.2 2378.21,11721.3 2332.49,11729.2L2329.6,11779" style="fill:rgb(160,120,89);"/>
                </g>
                <g transform="matrix(-1,0,0,1,4882.28,-4.07189)">
                    <path d="M2329.6,11779C2329.6,11779 2360.66,11778 2363.74,11758.6C2366.83,11739.2 2378.21,11721.3 2332.49,11729.2L2329.6,11779" style="fill:rgb(160,120,89);"/>
                </g>
                <g transform="matrix(0.949851,0,0,1,132.445,0)">
                    <path d="M2592.01,11659.3L2632.62,11662.2C2632.62,11662.2 2642.34,11730.2 2640.87,11758.7C2639.39,11787.3 2623.5,11794.3 2609.66,11803.8C2596.21,11812.9 2585.82,11812.9 2585.26,11812.9C2584.69,11812.9 2574.3,11812.9 2560.85,11803.8C2547.01,11794.3 2531.12,11787.3 2529.65,11758.7C2528.17,11730.2 2537.89,11662.2 2537.89,11662.2L2578.5,11659.3L2578.46,11658.3L2585.26,11658.8L2592.05,11658.3L2592.01,11659.3Z" style="fill:rgb(166,129,100);"/>
                </g>
                <g transform="matrix(0.905242,0,0,1,251.163,-6.02856)">
                    <path d="M2581.92,11661.8L2656.26,11639.6L2639.91,11764.7C2639.91,11764.7 2644.58,11711.3 2620.66,11681.4C2620.66,11681.4 2599.62,11696.2 2581.55,11701.3L2581.55,11701.4L2581.51,11701.3L2581.47,11701.4L2581.47,11701.3C2563.4,11696.2 2542.36,11681.4 2542.36,11681.4C2518.43,11711.3 2523.1,11764.7 2523.1,11764.7L2506.75,11639.6L2581.09,11661.8L2581.09,11661.7L2581.51,11661.8L2581.92,11661.7L2581.92,11661.8Z" style="fill:rgb(99,29,22);"/>
                </g>
                <path d="M2553.96,11740.9C2556.04,11741.7 2558.73,11742.2 2561.7,11742.4C2561.05,11746.7 2561.49,11751.7 2562.21,11756.8C2563.26,11764.4 2557.69,11768.9 2552.41,11769.6C2552.41,11769.6 2551.68,11789 2563.25,11791.4C2574.83,11793.7 2577.53,11794.2 2578.97,11791.8C2580.42,11789.4 2586.88,11790.4 2585.44,11794.9C2583.99,11799.5 2576.18,11804.5 2568.94,11801.1C2561.71,11797.7 2551,11788.8 2549.07,11782.2C2547.14,11775.6 2547.53,11767.7 2547.53,11767.7C2547.53,11767.7 2534.32,11760.5 2537.5,11755.9C2540.68,11751.2 2546.08,11764.5 2550.81,11761.6C2555.53,11758.6 2552.55,11749.9 2553.22,11744.3C2553.34,11743.3 2553.59,11742.2 2553.96,11740.9ZM2557.92,11732.1C2560.23,11728.2 2563.29,11724.5 2566.92,11722.3C2574.73,11717.5 2575.75,11717.5 2575.75,11717.5C2575.75,11717.5 2578.27,11700.7 2556.14,11690.7C2556.14,11690.7 2558.55,11698.7 2556.02,11701.2C2553.49,11703.7 2548.06,11704.8 2547.46,11699.8C2546.85,11694.7 2548.06,11680.1 2553.12,11683C2558.19,11685.9 2568.09,11690.1 2575.17,11696.4C2582.25,11702.7 2583.76,11707.8 2582.71,11720.5C2582.71,11720.5 2573.26,11726.5 2567.46,11731.9C2566.22,11731.7 2564.91,11731.6 2563.55,11731.6C2561.55,11731.6 2559.64,11731.8 2557.92,11732.1Z" style="fill:rgb(168,61,21);"/>
                <path d="M2622.15,11740.9C2622.52,11742.2 2622.77,11743.3 2622.89,11744.3C2623.56,11749.9 2620.57,11758.6 2625.3,11761.6C2630.02,11764.5 2635.43,11751.2 2638.61,11755.9C2641.79,11760.5 2628.58,11767.7 2628.58,11767.7C2628.58,11767.7 2628.96,11775.6 2627.03,11782.2C2625.1,11788.8 2614.4,11797.7 2607.16,11801.1C2599.93,11804.5 2592.12,11799.5 2590.67,11794.9C2589.22,11790.4 2595.68,11789.4 2597.13,11791.8C2598.58,11794.2 2601.28,11793.7 2612.85,11791.4C2624.43,11789 2623.69,11769.6 2623.69,11769.6C2618.42,11768.9 2612.84,11764.4 2613.9,11756.8C2614.62,11751.7 2615.06,11746.7 2614.4,11742.4C2617.38,11742.2 2620.07,11741.7 2622.15,11740.9ZM2608.64,11731.9C2602.85,11726.5 2593.4,11720.5 2593.4,11720.5C2592.35,11707.8 2593.85,11702.7 2600.94,11696.4C2608.02,11690.1 2617.92,11685.9 2622.98,11683C2628.05,11680.1 2629.25,11694.7 2628.65,11699.8C2628.05,11704.8 2622.62,11703.7 2620.09,11701.2C2617.56,11698.7 2619.97,11690.7 2619.97,11690.7C2597.84,11700.7 2600.36,11717.5 2600.36,11717.5C2600.36,11717.5 2601.38,11717.5 2609.19,11722.3C2612.81,11724.5 2615.88,11728.2 2618.19,11732.1C2616.47,11731.8 2614.56,11731.6 2612.55,11731.6C2611.2,11731.6 2609.88,11731.7 2608.64,11731.9Z" style="fill:rgb(168,61,21);"/>
            </g>
        </g>
    </g>
</svg>
