<?xml version="1.0" encoding="UTF-8" standalone="no"?>
<!DOCTYPE svg PUBLIC "-//W3C//DTD SVG 1.1//EN" "http://www.w3.org/Graphics/SVG/1.1/DTD/svg11.dtd">
<svg width="100%" height="100%" viewBox="0 0 205 212" version="1.1" xmlns="http://www.w3.org/2000/svg" xmlns:xlink="http://www.w3.org/1999/xlink" xml:space="preserve" xmlns:serif="http://www.serif.com/" style="fill-rule:evenodd;clip-rule:evenodd;stroke-linecap:round;stroke-linejoin:round;stroke-miterlimit:1.5;">
    <g transform="matrix(1,0,0,1,-6116.24,-13761)">
        <g transform="matrix(1,0,0,1,9.09495e-13,1968.71)">
            <path d="M6137.56,11840.4C6145.16,11843 6155.77,11847.1 6165.95,11852.8C6165.95,11852.8 6177.98,11812.1 6181.36,11802.7C6184.74,11793.3 6186.9,11796.8 6196.44,11799C6205.97,11801.1 6210.42,11804.4 6218.5,11804.5L6218.88,11804.5C6226.73,11804.3 6231.18,11801.1 6240.57,11799C6250.11,11796.8 6252.26,11793.3 6255.65,11802.7C6259.03,11812.1 6271.05,11852.8 6271.05,11852.8C6281.24,11847.1 6291.85,11843 6299.45,11840.4C6301.45,11839.3 6303.37,11838.4 6305.17,11837.9C6305.6,11837 6305.81,11836.5 6305.81,11836.5C6306.23,11836.8 6306.62,11837.1 6307,11837.4C6308.07,11837.2 6309.09,11837.1 6310.05,11837.2C6310.14,11837.2 6310.19,11837.2 6310.19,11837.2L6310.15,11837.2C6312.96,11837.5 6315.21,11839.2 6316.6,11842.8C6316.6,11842.8 6315.1,11844.9 6312.77,11848.1C6314.53,11856.5 6313.08,11866.7 6313.49,11873.8C6314.15,11884.9 6309.9,11883.4 6300.74,11890C6293.93,11894.8 6288.74,11895.3 6286.54,11895.2C6288.95,11908.3 6284.72,11921.9 6279.52,11936.6C6278.97,11938.1 6276.22,11940.4 6272.72,11942.9C6273.24,11947.5 6272.03,11953.6 6270.27,11960.4C6267.06,11973 6250.44,11982.7 6244.78,11984C6239.11,11985.3 6233.32,11988.3 6229.72,11991.2C6226.11,11994.2 6231.13,11999.2 6231.13,11999.2C6188.13,11997.3 6191.48,11981.7 6180.53,11974.9C6169.59,11968 6168.07,11961.5 6164.98,11954.7C6162.59,11949.5 6166.04,11944 6167.76,11941.8C6161.95,11937.8 6156.57,11934 6155.58,11931.1C6151.33,11918.5 6148.36,11906.7 6150.47,11895.2C6148.27,11895.3 6143.08,11894.8 6136.27,11890C6127.11,11883.4 6122.86,11884.9 6123.51,11873.8C6123.93,11866.7 6122.48,11856.5 6124.24,11848.1C6121.91,11844.9 6120.41,11842.8 6120.41,11842.8C6121.8,11839.2 6124.05,11837.5 6126.86,11837.2L6126.82,11837.2C6126.82,11837.2 6126.87,11837.2 6126.96,11837.2C6127.92,11837.1 6128.94,11837.2 6130.01,11837.4C6130.39,11837.1 6130.78,11836.8 6131.2,11836.5C6131.2,11836.5 6131.41,11837 6131.83,11837.9C6133.64,11838.4 6135.56,11839.3 6137.56,11840.4Z" style="stroke:black;stroke-width:8.33px;"/>
            <g>
                <g transform="matrix(1.33472,0,0,1.33472,882.427,-3857.72)">
                    <path d="M4047.99,11802.3C4047.99,11802.3 4052.64,11803.4 4059.5,11798.5C4066.36,11793.6 4069.55,11794.7 4069.06,11786.3C4068.57,11778 4071.51,11764.1 4063.3,11758.4C4063.3,11758.4 4055.09,11778 4036.48,11782.7C4036.48,11782.7 4036.84,11796.9 4047.99,11802.3Z" style="fill:rgb(241,208,117);"/>
                </g>
                <g transform="matrix(-1.33472,0,0,1.33472,11554.6,-3857.72)">
                    <path d="M4047.99,11802.3C4047.99,11802.3 4052.64,11803.4 4059.5,11798.5C4066.36,11793.6 4069.55,11794.7 4069.06,11786.3C4068.57,11778 4071.51,11764.1 4063.3,11758.4C4063.3,11758.4 4055.09,11778 4036.48,11782.7C4036.48,11782.7 4036.84,11796.9 4047.99,11802.3Z" style="fill:rgb(241,208,117);"/>
                </g>
                <g transform="matrix(1,0,0,1,270.221,7.2035)">
                    <path d="M5898.42,11933.5C5898.42,11933.5 5891.66,11940.8 5894.76,11947.5C5897.85,11954.3 5899.37,11960.8 5910.31,11967.7C5921.26,11974.5 5917.91,11990.1 5960.91,11992C5960.91,11992 5955.89,11987 5959.49,11984C5963.1,11981.1 5968.89,11978.1 5974.56,11976.8C5980.23,11975.5 5996.83,11965.8 6000.05,11953.2C6003.27,11940.6 6004.69,11930.8 5996.83,11927.1C5988.98,11923.4 5898.42,11933.5 5898.42,11933.5Z" style="fill:rgb(37,151,161);"/>
                </g>
                <g transform="matrix(1.33472,0,0,1.33472,885.614,-3857.52)">
                    <path d="M3995.4,11866.3C3994.65,11866.4 3989.62,11866.5 3983.24,11865.5C3972.72,11863.7 3974.25,11861.6 3969.39,11847.2C3967.62,11842 3950,11834 3948.36,11829.1C3942.5,11811.7 3939.91,11796.4 3958.14,11780.8C3981.46,11760.8 3995.5,11759.4 3995.5,11759.4L3995.54,11759.4C3996.39,11759.5 4010.26,11761.4 4032.86,11780.8C4052.51,11797.7 4047.97,11814.1 4041.22,11833.2C4039.95,11836.8 4023.63,11845 4022.36,11848.8C4022.17,11849.3 4021.31,11862.4 4011.94,11864.6C4003.09,11866.7 3995.5,11866.3 3995.5,11866.3L3995.4,11866.3Z" style="fill:rgb(250,221,117);"/>
                    <clipPath id="_clip1">
                        <path d="M3995.4,11866.3C3994.65,11866.4 3989.62,11866.5 3983.24,11865.5C3972.72,11863.7 3974.25,11861.6 3969.39,11847.2C3967.62,11842 3950,11834 3948.36,11829.1C3942.5,11811.7 3939.91,11796.4 3958.14,11780.8C3981.46,11760.8 3995.5,11759.4 3995.5,11759.4L3995.54,11759.4C3996.39,11759.5 4010.26,11761.4 4032.86,11780.8C4052.51,11797.7 4047.97,11814.1 4041.22,11833.2C4039.95,11836.8 4023.63,11845 4022.36,11848.8C4022.17,11849.3 4021.31,11862.4 4011.94,11864.6C4003.09,11866.7 3995.5,11866.3 3995.5,11866.3L3995.4,11866.3Z"/>
                    </clipPath>
                    <g clip-path="url(#_clip1)">
                        <path d="M4009.31,11826.4C4005.64,11825.3 3985.13,11825.4 3981.69,11826.4C3981.69,11826.4 3981.47,11811.5 3973.05,11806.8C3964.63,11802 3952.54,11787.2 3956.21,11776L3995.5,11773.7L4034.79,11776C4038.46,11787.2 4026.37,11802 4017.95,11806.8C4009.53,11811.5 4009.31,11826.4 4009.31,11826.4Z" style="fill:rgb(204,41,48);"/>
                    </g>
                </g>
                <g transform="matrix(1.5699,0,0,1.5699,-54.0506,-6616.38)">
                    <path d="M3977.72,11778.6L3955.48,11774.7L3937.1,11754.6C3937.1,11754.6 3950.03,11757.8 3962.03,11764.5C3962.03,11764.5 3969.68,11738.6 3971.84,11732.6C3973.99,11726.6 3975.37,11728.9 3981.44,11730.2C3987.52,11731.6 3990.35,11733.7 3995.5,11733.8L3995.74,11733.8C4000.74,11733.6 4003.58,11731.6 4009.56,11730.2C4015.63,11728.9 4017.01,11726.6 4019.16,11732.6C4021.32,11738.6 4028.97,11764.5 4028.97,11764.5C4040.97,11757.8 4053.9,11754.6 4053.9,11754.6L4035.52,11774.7L4013.28,11778.6L3995.5,11781.3L3977.72,11778.6Z" style="fill:rgb(142,101,76);"/>
                    <clipPath id="_clip2">
                        <path d="M3977.72,11778.6L3955.48,11774.7L3937.1,11754.6C3937.1,11754.6 3950.03,11757.8 3962.03,11764.5C3962.03,11764.5 3969.68,11738.6 3971.84,11732.6C3973.99,11726.6 3975.37,11728.9 3981.44,11730.2C3987.52,11731.6 3990.35,11733.7 3995.5,11733.8L3995.74,11733.8C4000.74,11733.6 4003.58,11731.6 4009.56,11730.2C4015.63,11728.9 4017.01,11726.6 4019.16,11732.6C4021.32,11738.6 4028.97,11764.5 4028.97,11764.5C4040.97,11757.8 4053.9,11754.6 4053.9,11754.6L4035.52,11774.7L4013.28,11778.6L3995.5,11781.3L3977.72,11778.6Z"/>
                    </clipPath>
                    <g clip-path="url(#_clip2)">
                        <g transform="matrix(1,0,0,0.977176,0,268.647)">
                            <path d="M3995.41,11770.1C3993.53,11770 3963.38,11768 3956.54,11760.3L3963.83,11749.5C3963.83,11749.5 3977.44,11753.4 3995.5,11753.2L3995.71,11753.2C4013.66,11753.4 4027.17,11749.5 4027.17,11749.5L4034.46,11760.3C4027.4,11768.3 3995.5,11770.1 3995.5,11770.1L3995.41,11770.1Z" style="fill:rgb(50,49,49);"/>
                        </g>
                    </g>
                </g>
                <g transform="matrix(1.5699,0,0,1.5699,-54.8356,-6616.68)">
                    <path d="M3996,11779.5C3999.7,11779.2 4022.87,11776.6 4031.31,11769.4C4040.49,11761.6 4054.66,11748.4 4058.48,11758.3C4058.48,11758.3 4046.24,11775.7 4041.45,11780.9C4041.45,11780.9 4039.27,11782.8 4036.3,11783.2C4036.3,11783.2 4031.91,11780.1 4019.28,11780C4006.86,11780 4006.3,11782.5 3996,11782.3C3985.7,11782.5 3985.14,11780 3972.72,11780C3960.1,11780.1 3955.7,11783.2 3955.7,11783.2C3952.73,11782.8 3950.55,11780.9 3950.55,11780.9C3945.76,11775.7 3933.52,11758.3 3933.52,11758.3C3937.35,11748.4 3951.51,11761.6 3960.69,11769.4C3969.14,11776.6 3992.3,11779.2 3996,11779.5Z" style="fill:rgb(97,64,47);"/>
                </g>
                <g transform="matrix(1.5699,0,0,1.5699,-55.4046,-6615.03)">
                    <ellipse cx="3996.36" cy="11758.2" rx="3.841" ry="10.529" style="fill:rgb(233,224,224);"/>
                </g>
                <g transform="matrix(1.5459,-0.27346,0.27346,1.5459,-3151.76,-5241.11)">
                    <ellipse cx="3996.36" cy="11758.2" rx="3.841" ry="10.529" style="fill:rgb(233,224,224);"/>
                </g>
                <g transform="matrix(-1.5459,-0.27346,-0.27346,1.5459,15588.8,-5241.11)">
                    <ellipse cx="3996.36" cy="11758.2" rx="3.841" ry="10.529" style="fill:rgb(233,224,224);"/>
                </g>
                <g transform="matrix(-0.97378,-0.172255,-0.18836,1.06482,12287.9,8.41041)">
                    <path d="M3996.36,11747.7C3998.45,11747.3 4000.2,11752.4 4000.2,11758.2C4000.2,11764.1 3998.44,11768.4 3996.36,11768.8C3992.71,11769.5 3992.82,11748.4 3996.36,11747.7Z" style="fill:rgb(233,224,224);"/>
                </g>
                <g transform="matrix(0.97378,-0.172255,0.18836,1.06482,149.141,8.41041)">
                    <path d="M3996.36,11747.7C3998.45,11747.3 4000.2,11752.4 4000.2,11758.2C4000.2,11764.1 3998.44,11768.4 3996.36,11768.8C3992.71,11769.5 3992.82,11748.4 3996.36,11747.7Z" style="fill:rgb(233,224,224);"/>
                </g>
                <g transform="matrix(1.33472,0,0,1.33472,1847.67,-3874.22)">
                    <path d="M3309.01,11833.9C3307.17,11834.9 3305.58,11835.6 3305.58,11835.6C3307.17,11835.6 3308.48,11835.4 3309.55,11835.1C3310.65,11837.8 3311.95,11841.4 3313.13,11845.9C3313.13,11845.9 3312.96,11840.5 3311.55,11834.4C3314.72,11832.8 3314.45,11830.1 3314.45,11830.1C3314.01,11830.8 3312.64,11831.8 3311.12,11832.7C3310.44,11830.2 3309.54,11827.6 3308.34,11825.4L3306.91,11829.6C3306.91,11829.6 3307.78,11831.1 3309.01,11833.9Z" style="fill:rgb(241,208,117);"/>
                </g>
                <g transform="matrix(0.767005,0,0,0.767005,2898.22,2823.91)">
                    <path d="M4343.1,11826.7C4343.1,11826.7 4337.47,11830 4334.03,11833.4C4334.03,11833.4 4342.12,11837.3 4343.34,11842.7C4343.34,11842.7 4337.1,11838.1 4327.67,11835.5C4327.67,11835.5 4321.18,11836 4317.01,11839.5C4317.01,11839.5 4317.38,11834.4 4322.28,11831.5C4322.28,11831.5 4316.4,11826.7 4314.44,11823.1C4314.44,11823.1 4320.69,11828.2 4326.44,11829.6C4326.44,11829.6 4337.71,11826.8 4343.1,11826.7Z" style="fill:rgb(241,159,117);"/>
                </g>
                <g transform="matrix(0.620694,0,0,0.620694,2526.36,4547.8)">
                    <path d="M5948.28,11917.2C5946.93,11917.3 5936.01,11918 5932.63,11919.9C5929.03,11921.9 5925.2,11923.9 5922.27,11915.8C5919.34,11907.7 5916.41,11899.1 5915.02,11897.1C5913.64,11895.2 5909.6,11887.4 5919.75,11882.4C5929.91,11877.3 5938.08,11876.6 5948.41,11876.5L5948.9,11876.5C5959,11876.6 5967.08,11877.4 5977.07,11882.4C5987.22,11887.4 5983.19,11895.2 5981.8,11897.1C5980.42,11899.1 5977.49,11907.7 5974.56,11915.8C5971.63,11923.9 5967.8,11921.9 5964.19,11919.9C5960.59,11917.9 5948.41,11917.2 5948.41,11917.2L5948.28,11917.2Z" style="fill:rgb(209,55,62);"/>
                </g>
                <g transform="matrix(0.783537,0,0,0.783537,1555.15,2603.56)">
                    <path d="M5960.03,11955.3C5960.03,11955.3 5958.09,11942.3 5962.43,11936C5966.77,11929.7 5972.12,11933.1 5969.44,11938.2C5966.77,11943.3 5960.67,11949.9 5960.03,11955.3Z" style="fill:rgb(97,64,47);"/>
                </g>
                <g transform="matrix(-0.783537,0,0,0.783537,10881.9,2603.56)">
                    <path d="M5960.03,11955.3C5960.03,11955.3 5958.09,11942.3 5962.43,11936C5966.77,11929.7 5972.12,11933.1 5969.44,11938.2C5966.77,11943.3 5960.67,11949.9 5960.03,11955.3Z" style="fill:rgb(97,64,47);"/>
                </g>
            </g>
        </g>
    </g>
</svg>
