<?xml version="1.0" encoding="UTF-8" standalone="no"?>
<!DOCTYPE svg PUBLIC "-//W3C//DTD SVG 1.1//EN" "http://www.w3.org/Graphics/SVG/1.1/DTD/svg11.dtd">
<svg width="100%" height="100%" viewBox="0 0 194 205" version="1.1" xmlns="http://www.w3.org/2000/svg" xmlns:xlink="http://www.w3.org/1999/xlink" xml:space="preserve" xmlns:serif="http://www.serif.com/" style="fill-rule:evenodd;clip-rule:evenodd;stroke-linecap:square;stroke-miterlimit:1.5;">
    <g transform="matrix(1,0,0,1,-8129.48,-13840.8)">
        <g transform="matrix(0.779731,0,0,0.779731,1267.71,13182.2)">
            <path d="M8842.05,953.375C8842.21,953.998 8842.34,954.355 8842.34,954.355C8800.24,945.278 8826.75,904.08 8859.9,877.997C8893.06,851.915 8946.8,849.975 8984.3,859.626C9021.8,869.276 9033.85,897.18 9030.33,920.12C9027.06,941.371 9007.64,947.335 9004.79,948.098C9004.25,949.15 9000.54,957.283 9008.66,968.651C9009.61,967.549 9010.54,966.679 9011.42,966.096C9021.05,959.704 9020.92,975.161 9020.25,985.222C9022.23,986.993 9025.32,989.031 9030.83,992.135C9047.95,1001.77 9033.49,1026.3 9031.46,1032.66C9031.46,1032.66 9037.99,1047.37 9034.84,1053.51C9031.69,1059.65 9025.94,1065.98 9025.94,1065.98C9025.94,1065.98 9026.52,1074.9 9020.84,1073.79C9015.17,1072.69 9014.42,1068.6 9017,1058.37C9019.59,1048.14 9018.85,1053.91 9014.75,1042.39C9013.91,1040.04 9013.38,1037.49 9013.14,1034.87C9011.05,1036.33 9008.51,1037.18 9005.78,1037.18C9005.31,1037.18 9004.84,1037.16 9004.39,1037.11C9004.33,1038.92 9004.24,1040.79 9004.12,1042.72C9001.79,1077.69 8962.52,1097.09 8933.76,1096.84L8925.24,1097.04L8925,1096.72L8925,1097.04L8916.47,1096.84C8887.72,1097.09 8848.45,1077.69 8846.12,1042.72C8846,1040.82 8845.91,1038.97 8845.85,1037.18L8845.78,1037.18C8841.83,1037.18 8838.28,1035.39 8835.9,1032.56C8835.81,1035.98 8835.24,1039.36 8834.16,1042.39C8830.05,1053.91 8829.32,1048.14 8831.9,1058.37C8834.49,1068.6 8833.74,1072.69 8828.06,1073.79C8822.39,1074.9 8822.97,1065.98 8822.97,1065.98C8822.97,1065.98 8817.22,1059.65 8814.07,1053.51C8810.92,1047.37 8817.45,1032.66 8817.45,1032.66C8815.42,1026.3 8800.96,1001.77 8818.08,992.135C8823.59,989.031 8826.67,986.993 8828.66,985.222C8827.99,975.161 8827.86,959.704 8837.49,966.096C8838.37,966.678 8839.29,967.547 8840.24,968.648C8845.94,960.586 8843.94,955.695 8842.05,953.375ZM8831.78,1006.52C8828.38,1008.55 8826.04,1009.8 8826.04,1009.8C8829.43,1011.5 8832.01,1014.96 8833.69,1019.23C8833.98,1018.48 8834.33,1017.76 8834.75,1017.09C8833.57,1013.76 8832.59,1010.12 8831.78,1006.52ZM9017.13,1006.52C9020.53,1008.55 9022.87,1009.8 9022.87,1009.8C9020.22,1011.13 9018.07,1013.52 9016.45,1016.54C9016.01,1015.89 9015.5,1015.28 9014.95,1014.72C9015.78,1012.07 9016.51,1009.29 9017.13,1006.52Z" style="stroke:black;stroke-width:10.69px;"/>
            <g>
                <path d="M8925.78,1030.84L8846.12,1016.28L8837.32,986.349L8852.97,966.554L8845.78,924.066L8992.79,937.029L8998.54,972.617L9012.3,998.419L8992.79,1018.72L8925.78,1030.84Z" style="fill:rgb(138,107,73);"/>
                <g transform="matrix(1,0,0,1,-0.932689,1.85726)">
                    <path d="M8925.39,965.657C8927.84,962.831 8944.45,944.375 8957.86,946.498C8972.39,948.797 8982.57,953.426 8984.92,971.14C8987.27,988.853 8975.41,1011.53 8975.41,1011.53L8925.89,1022.43L8925.89,1022.65L8925.39,1022.54L8924.89,1022.65L8924.89,1022.43L8875.37,1011.53C8875.37,1011.53 8863.5,988.853 8865.85,971.14C8868.21,953.426 8878.38,948.797 8892.91,946.498C8906.33,944.375 8922.93,962.831 8925.39,965.657Z" style="fill:rgb(245,208,145);"/>
                </g>
                <g transform="matrix(1.04443,0,0,1.27074,-525.751,65.0546)">
                    <path d="M9106.24,750.226C9106.24,750.226 9121.7,714.397 9131.47,709.07C9141.24,703.742 9140.52,717.701 9139.81,725.475C9139.1,733.249 9134.8,758.176 9124.11,760.016L9106.24,750.226Z" style="fill:rgb(245,208,145);"/>
                </g>
                <g transform="matrix(-1.04443,0,0,1.27074,18374.7,65.0546)">
                    <path d="M9106.24,750.226C9106.24,750.226 9121.7,714.397 9131.47,709.07C9141.24,703.742 9140.52,717.701 9139.81,725.475C9139.1,733.249 9134.8,758.176 9124.11,760.016L9106.24,750.226Z" style="fill:rgb(245,208,145);"/>
                </g>
                <g transform="matrix(1,0,0,1,1.84432,0.235195)">
                    <ellipse cx="8843.94" cy="1023.8" rx="12.989" ry="13.151" style="fill:rgb(4,125,228);"/>
                </g>
                <g transform="matrix(1,0,0,1,161.844,0.235195)">
                    <ellipse cx="8843.94" cy="1023.8" rx="12.989" ry="13.151" style="fill:rgb(4,125,228);"/>
                </g>
                <path d="M8925.29,1007.49C8927.01,1007.33 8941.13,1006.15 8952.15,1008.65C8963.9,1011.3 8983.24,1013.5 8989.61,1002.19C8995.99,990.872 9006.44,1007.75 9004.12,1042.72C9001.79,1077.69 8962.52,1097.09 8933.76,1096.84L8925.24,1097.04L8925,1096.72L8925,1097.04L8916.47,1096.84C8887.72,1097.09 8848.45,1077.69 8846.12,1042.72C8843.8,1007.75 8854.25,990.872 8860.62,1002.19C8867,1013.5 8886.34,1011.3 8898.09,1008.65C8909.84,1005.99 8925.12,1007.5 8925.12,1007.5L8925.29,1007.49Z" style="fill:rgb(253,214,147);"/>
                <g transform="matrix(1,0,0,1,-0.332457,-0.204245)">
                    <path d="M8925.11,899.306L9017.36,940.119L9005.19,948.186C9005.19,948.186 8999.87,957.354 9010.12,970.348C9020.36,983.343 9014.04,982.703 9031.16,992.339C9048.28,1001.98 9033.82,1026.5 9031.79,1032.86C9031.79,1032.86 9038.32,1047.57 9035.17,1053.71C9032.02,1059.85 9026.27,1066.18 9026.27,1066.18C9026.27,1066.18 9026.85,1075.1 9021.18,1074C9015.5,1072.89 9014.75,1068.81 9017.34,1058.58C9019.92,1048.35 9019.19,1054.11 9015.08,1042.59C9010.97,1031.08 9014.28,1014.48 9023.2,1010C9023.2,1010 9005.66,1000.6 8996.73,991.692C8987.79,982.785 8987.94,966.241 8990.15,952.11C8990.15,952.11 8961.65,948.067 8924.45,952.408L8924.45,952.408C8887.26,948.067 8859.42,952.11 8859.42,952.11C8861.63,966.241 8861.79,982.785 8852.85,991.692C8843.91,1000.6 8826.37,1010 8826.37,1010C8835.29,1014.48 8838.6,1031.08 8834.5,1042.59C8830.39,1054.11 8829.65,1048.35 8832.24,1058.58C8834.82,1068.81 8834.07,1072.89 8828.4,1074C8822.72,1075.1 8823.3,1066.18 8823.3,1066.18C8823.3,1066.18 8817.55,1059.85 8814.4,1053.71C8811.25,1047.57 8817.78,1032.86 8817.78,1032.86C8815.75,1026.5 8801.29,1001.98 8818.41,992.339C8835.53,982.703 8829.21,983.343 8839.45,970.348C8849.7,957.354 8840.6,951.947 8840.6,951.947L8832.21,940.119L8924.45,899.308L8924.45,899.014L8924.79,899.161L8925.12,899.014L8925.11,899.306Z" style="fill:rgb(228,214,4);"/>
                </g>
                <path d="M8925.12,925.455C8925.12,925.455 8960.61,924.064 8990.23,930.797C9019.84,937.529 9004.45,948.186 9004.45,948.186C9004.45,948.186 9026.8,943.059 9030.33,920.12C9033.85,897.18 9021.8,869.276 8984.3,859.626C8946.8,849.975 8893.06,851.915 8859.9,877.997C8826.75,904.08 8800.24,945.278 8842.34,954.355C8842.34,954.355 8836.27,937.789 8855.74,933.466C8875.21,929.144 8925.12,925.455 8925.12,925.455Z" style="fill:rgb(247,201,201);"/>
            </g>
        </g>
    </g>
</svg>
