<?xml version="1.0" encoding="UTF-8" standalone="no"?>
<!DOCTYPE svg PUBLIC "-//W3C//DTD SVG 1.1//EN" "http://www.w3.org/Graphics/SVG/1.1/DTD/svg11.dtd">
<svg width="100%" height="100%" viewBox="0 0 147 201" version="1.1" xmlns="http://www.w3.org/2000/svg" xmlns:xlink="http://www.w3.org/1999/xlink" xml:space="preserve" xmlns:serif="http://www.serif.com/" style="fill-rule:evenodd;clip-rule:evenodd;stroke-linecap:round;stroke-linejoin:round;stroke-miterlimit:1.5;">
    <g transform="matrix(1,0,0,1,-7750.87,-13842.3)">
        <g transform="matrix(0.453825,0,0,0.453825,4082.41,8376.49)">
            <path d="M8107.77,12222.1C8109.62,12217.5 8111.36,12213.5 8112.81,12210C8119.76,12193.1 8111.86,12200.9 8135.75,12124.2C8156.96,12056.1 8228.61,12052.9 8244.4,12053.1C8260.18,12052.9 8331.83,12056.1 8353.05,12124.2C8376.94,12200.9 8369.04,12193.1 8375.98,12210C8377.43,12213.5 8379.17,12217.5 8381.02,12222.1C8383.77,12220 8386.57,12218.8 8388.44,12220.2C8392.89,12223.5 8395.96,12252.1 8394.73,12271.1C8395.7,12278.3 8396.25,12286.1 8396.18,12294.3L8390.6,12294.5C8392.03,12302.1 8407.45,12388.6 8379.91,12410.8C8351.39,12433.8 8320.86,12475.1 8245.62,12476.3L8245.62,12476.3C8245.21,12476.3 8244.81,12476.3 8244.4,12476.3C8243.99,12476.3 8243.58,12476.3 8243.17,12476.3L8243.17,12476.3C8167.93,12475.1 8137.4,12433.8 8108.88,12410.8C8081.34,12388.6 8096.76,12302.1 8098.2,12294.5L8092.61,12294.3C8092.54,12286.1 8093.09,12278.3 8094.06,12271.1C8092.83,12252.1 8095.9,12223.5 8100.35,12220.2C8102.23,12218.8 8105.02,12220 8107.77,12222.1Z" style="stroke:black;stroke-width:18.36px;"/>
            <g>
                <g transform="matrix(1,0,0,1,338.307,-13.0218)">
                    <path d="M8033.67,12244.2C8033.67,12244.2 8045.15,12229.5 8050.14,12233.2C8055.12,12236.9 8058.37,12272.4 8055.8,12290.4L8022.48,12280L8033.67,12244.2Z" style="fill:rgb(109,66,23);"/>
                </g>
                <g transform="matrix(-1,0,0,1,16150.5,-13.0218)">
                    <path d="M8033.67,12244.2C8033.67,12244.2 8045.15,12229.5 8050.14,12233.2C8055.12,12236.9 8058.37,12272.4 8055.8,12290.4L8022.48,12280L8033.67,12244.2Z" style="fill:rgb(109,66,23);"/>
                </g>
                <g transform="matrix(0.954776,0,0,1,60.8288,-36.3782)">
                    <path d="M8571.19,12089.5C8587.72,12089.3 8662.77,12092.5 8684.99,12160.6C8710.01,12237.2 8701.74,12229.5 8709.01,12246.3C8716.28,12263.2 8730.5,12291.6 8730.17,12330.7L8719.18,12331L8571.19,12325.3L8423.21,12331L8412.22,12330.7C8411.88,12291.6 8426.1,12263.2 8433.37,12246.3C8440.65,12229.5 8432.38,12237.2 8457.4,12160.6C8479.62,12092.5 8554.66,12089.3 8571.19,12089.5Z" style="fill:rgb(33,35,34);"/>
                </g>
                <path d="M8244.4,12120.1L8283.44,12118.2C8283.44,12118.2 8297.43,12107.9 8304.37,12098.6C8304.37,12098.6 8338.08,12107 8344.85,12174.5C8344.85,12174.5 8363.65,12186.7 8360.17,12215.5C8360.17,12215.5 8391.72,12258.4 8385.85,12293.9L8390.49,12293.9C8390.49,12293.9 8408.74,12387.5 8379.91,12410.8C8351.39,12433.8 8320.86,12475.1 8245.62,12476.3L8245.62,12476.3C8245.21,12476.3 8244.81,12476.3 8244.4,12476.3C8243.99,12476.3 8243.58,12476.3 8243.17,12476.3L8243.17,12476.3C8167.93,12475.1 8137.4,12433.8 8108.88,12410.8C8080.05,12387.5 8098.3,12293.9 8098.3,12293.9L8102.94,12293.9C8097.08,12258.4 8128.62,12215.5 8128.62,12215.5C8125.15,12186.7 8143.94,12174.5 8143.94,12174.5C8150.72,12107 8184.42,12098.6 8184.42,12098.6C8191.36,12107.9 8205.35,12118.2 8205.35,12118.2L8244.4,12120.1Z" style="fill:rgb(109,66,23);"/>
                <g transform="matrix(1,0,0,1,521.758,-4.08512)">
                    <path d="M7691.4,12203.2L7693.94,12223C7693.94,12223 7677.02,12217.5 7657.21,12217.1C7637.41,12216.8 7619.47,12230.2 7612.53,12219.6C7605.59,12209 7628.61,12191.9 7691.4,12203.2Z" style="fill:rgb(33,35,34);"/>
                </g>
                <g transform="matrix(-1,0,0,1,15967,-4.08512)">
                    <path d="M7691.4,12203.2L7693.94,12223C7693.94,12223 7677.02,12217.5 7657.21,12217.1C7637.41,12216.8 7619.47,12230.2 7612.53,12219.6C7605.59,12209 7628.61,12191.9 7691.4,12203.2Z" style="fill:rgb(33,35,34);"/>
                </g>
                <g transform="matrix(1,0,0,1,510.993,-0.991295)">
                    <path d="M7733.4,12330.1C7811.71,12326.5 7820.45,12340.6 7818.56,12354.9C7816.65,12369.3 7750.64,12354.5 7745.77,12354.1C7741.42,12353.7 7734.87,12358.7 7733.53,12359.8L7733.52,12360C7733.52,12360 7733.48,12359.9 7733.4,12359.9C7733.33,12359.9 7733.29,12360 7733.29,12360L7733.28,12359.8C7731.94,12358.7 7725.39,12353.7 7721.04,12354.1C7716.17,12354.5 7650.15,12369.3 7648.25,12354.9C7646.36,12340.6 7655.1,12326.5 7733.4,12330.1Z" style="fill:rgb(33,35,34);"/>
                </g>
            </g>
        </g>
    </g>
</svg>
