<?xml version="1.0" encoding="UTF-8" standalone="no"?>
<!DOCTYPE svg PUBLIC "-//W3C//DTD SVG 1.1//EN" "http://www.w3.org/Graphics/SVG/1.1/DTD/svg11.dtd">
<svg width="100%" height="100%" viewBox="0 0 183 200" version="1.1" xmlns="http://www.w3.org/2000/svg" xmlns:xlink="http://www.w3.org/1999/xlink" xml:space="preserve" xmlns:serif="http://www.serif.com/" style="fill-rule:evenodd;clip-rule:evenodd;stroke-linecap:round;stroke-linejoin:round;stroke-miterlimit:1.5;">
    <g transform="matrix(1,0,0,1,-2914.75,-13562.2)">
        <g transform="matrix(0.285796,0,0,0.254759,1741.87,10712)">
            <path d="M4182.38,11374.1C4197.94,11292 4255.92,11290.7 4255.92,11290.7C4281.46,11200.3 4422.88,11204.2 4422.88,11204.2L4422.88,11204.2C4422.88,11204.2 4564.29,11200.3 4589.83,11290.7C4589.83,11290.7 4647.81,11292.1 4663.37,11374.1C4665.97,11375.8 4668.47,11378.4 4670.82,11382.4C4680.33,11398.5 4684.88,11413 4685.74,11438.2C4724.55,11491.7 4730.4,11534.5 4726.02,11566.1C4721.41,11599.3 4700.69,11666.2 4700.69,11666.2L4700.61,11666.3C4700.35,11669 4699.44,11672.6 4698.65,11677.9C4696.56,11692.2 4698.65,11726.5 4693.2,11741.6C4687.75,11756.7 4666.4,11793.8 4653.3,11792.7C4640.2,11791.7 4619.77,11811 4605.63,11854C4591.48,11897 4582.97,11898.3 4538.54,11925.9C4494.11,11953.6 4422.88,11955.7 4422.88,11955.7L4422.88,11955.7C4422.88,11955.7 4351.64,11953.6 4307.21,11925.9C4262.78,11898.2 4254.27,11897 4240.12,11854C4225.98,11811 4205.55,11791.6 4192.45,11792.7C4179.35,11793.7 4158,11756.7 4152.55,11741.6C4147.1,11726.5 4149.2,11692.2 4147.1,11677.9C4146.31,11672.6 4145.41,11669 4145.14,11666.3L4145.06,11666.2C4145.06,11666.2 4124.34,11599.3 4119.73,11566.1C4115.35,11534.5 4121.2,11491.7 4160.01,11438.1C4160.88,11413 4165.42,11398.5 4174.93,11382.4C4177.28,11378.4 4179.78,11375.7 4182.38,11374.1Z" style="stroke:black;stroke-width:30.78px;"/>
            <g>
                <path d="M4422.88,11372L4209.93,11372L4163.44,11479.9L4186.68,11620.4L4328.31,11748.6L4511.51,11775.2L4659.07,11652.5L4682.31,11533.8L4659.07,11413.9L4422.88,11372Z" style="fill:rgb(63,82,62);"/>
                <path d="M4145.06,11666.2C4145.06,11666.2 4124.34,11599.3 4119.73,11566.1C4115.12,11532.9 4121.83,11487.2 4166.26,11429.8L4190.05,11514.1L4199.06,11588.6L4237.6,11628.8L4283.2,11681.1L4292.6,11820.7L4306.28,11886.6L4272.55,11891.5L4237.6,11832.1L4201.4,11780.1L4182.29,11752L4158.48,11712.7L4154.46,11681.2L4145.06,11666.2Z" style="fill:rgb(163,173,72);"/>
                <g transform="matrix(-1,0,0,1,8845.75,0.011918)">
                    <path d="M4145.06,11666.2C4145.06,11666.2 4124.34,11599.3 4119.73,11566.1C4115.12,11532.9 4121.83,11487.2 4166.26,11429.8L4190.05,11514.1L4199.06,11588.6L4237.6,11628.8L4283.2,11681.1L4292.6,11820.7L4306.28,11886.6L4272.55,11891.5L4237.6,11832.1L4201.4,11780.1L4182.29,11752L4158.48,11712.7L4154.46,11681.2L4145.06,11666.2Z" style="fill:rgb(163,173,72);"/>
                </g>
                <path d="M4422.88,11955.7C4422.88,11955.7 4351.64,11953.6 4307.21,11925.9C4262.78,11898.2 4254.27,11897 4240.12,11854C4225.98,11811 4205.55,11791.6 4192.45,11792.7C4179.35,11793.7 4158,11756.7 4152.55,11741.6C4147.1,11726.5 4149.2,11692.2 4147.1,11677.9C4145,11663.7 4142.07,11662 4152.55,11657C4163.03,11651.9 4165.91,11675.3 4173.69,11687.7C4181.47,11700 4212.18,11738.6 4218.89,11767.1C4225.59,11795.6 4239.34,11827.1 4248.39,11843.2C4257.45,11859.3 4270.19,11871 4277.9,11872.3C4285.61,11873.7 4298.02,11879.1 4282.6,11856.9C4267.17,11834.8 4263.4,11823.5 4254.18,11806.3C4244.96,11789.1 4231.97,11755.2 4221.07,11739.2C4210.17,11723.3 4214.55,11713.4 4213.47,11706.4C4212.4,11699.4 4213.74,11690.3 4229.57,11704.3C4229.57,11704.3 4256.39,11685 4260.15,11676.1C4260.15,11676.1 4256.39,11661.6 4259.88,11652.5L4308.39,11696.3L4358.68,11728.8L4422.88,11732.1L4422.88,11732.1L4487.07,11728.8L4537.36,11696.3L4585.87,11652.5C4589.36,11661.6 4585.6,11676.1 4585.6,11676.1C4589.36,11685 4616.18,11704.3 4616.18,11704.3C4632.01,11690.3 4633.35,11699.5 4632.28,11706.4C4631.2,11713.4 4635.58,11723.3 4624.68,11739.2C4613.79,11755.2 4600.79,11789.1 4591.57,11806.3C4582.35,11823.5 4578.58,11834.8 4563.16,11856.9C4547.73,11879.1 4560.14,11873.7 4567.85,11872.4C4575.56,11871 4588.3,11859.3 4597.36,11843.2C4606.41,11827.1 4620.16,11795.6 4626.86,11767.1C4633.57,11738.6 4664.28,11700 4672.06,11687.7C4679.84,11675.3 4682.72,11651.9 4693.2,11657C4703.68,11662 4700.75,11663.7 4698.65,11677.9C4696.56,11692.2 4698.65,11726.5 4693.2,11741.6C4687.75,11756.7 4666.4,11793.8 4653.3,11792.7C4640.2,11791.7 4619.77,11811 4605.63,11854C4591.48,11897 4582.97,11898.3 4538.54,11925.9C4494.11,11953.6 4422.88,11955.7 4422.88,11955.7L4422.88,11955.7Z" style="fill:rgb(64,64,64);"/>
                <path d="M4316.52,11859C4316.52,11859 4330.35,11784 4328.67,11761.4C4328.67,11761.4 4311.91,11728.7 4282.15,11711.5C4282.15,11711.5 4231.85,11697.7 4238.14,11733.7C4244.43,11769.8 4269.16,11834.3 4283.41,11848.6C4297.66,11862.8 4316.52,11859 4316.52,11859Z" style="fill:rgb(73,74,72);"/>
                <clipPath id="_clip1">
                    <path d="M4316.52,11859C4316.52,11859 4330.35,11784 4328.67,11761.4C4328.67,11761.4 4311.91,11728.7 4282.15,11711.5C4282.15,11711.5 4231.85,11697.7 4238.14,11733.7C4244.43,11769.8 4269.16,11834.3 4283.41,11848.6C4297.66,11862.8 4316.52,11859 4316.52,11859Z"/>
                </clipPath>
                <g clip-path="url(#_clip1)">
                    <path d="M4309.48,11740.7C4309.48,11740.7 4281.58,11742.1 4274.87,11752.3C4268.17,11762.4 4277.56,11823.9 4283.46,11833.5C4289.36,11843.2 4306.26,11850.2 4308.13,11823.9C4310.01,11797.6 4316.45,11754.4 4309.48,11740.7Z" style="fill:rgb(54,55,54);"/>
                    <path d="M4300.87,11718.7C4300.87,11718.7 4259.33,11723.2 4250.06,11734C4250.06,11734 4257.78,11801.1 4264.87,11820.7C4264.87,11820.7 4270.37,11815.9 4272.55,11809.3C4272.55,11809.3 4270.44,11807.4 4265.94,11803.9C4265.94,11803.9 4256.07,11761.4 4259.5,11743.4C4259.5,11743.4 4268.51,11733.5 4306.28,11727.7L4300.87,11718.7Z" style="fill:rgb(242,174,43);"/>
                </g>
                <path d="M4422.88,11479.9L4359.06,11474.2L4328.81,11452.9L4306.28,11429.8L4272.55,11429.8L4237.6,11417.1L4212.39,11405.9L4181.87,11376.9C4196.62,11292.1 4255.92,11290.7 4255.92,11290.7C4281.46,11200.3 4422.88,11204.2 4422.88,11204.2L4422.88,11204.2C4422.88,11204.2 4564.29,11200.3 4589.83,11290.7C4589.83,11290.7 4649.13,11292.1 4663.88,11376.9L4633.36,11405.9L4608.15,11417.1L4573.2,11429.8L4539.47,11429.8L4516.94,11452.9L4486.69,11474.2L4422.88,11479.9L4422.88,11479.9Z" style="fill:rgb(163,173,72);"/>
                <clipPath id="_clip2">
                    <path d="M4422.88,11479.9L4359.06,11474.2L4328.81,11452.9L4306.28,11429.8L4272.55,11429.8L4237.6,11417.1L4212.39,11405.9L4181.87,11376.9C4196.62,11292.1 4255.92,11290.7 4255.92,11290.7C4281.46,11200.3 4422.88,11204.2 4422.88,11204.2L4422.88,11204.2C4422.88,11204.2 4564.29,11200.3 4589.83,11290.7C4589.83,11290.7 4649.13,11292.1 4663.88,11376.9L4633.36,11405.9L4608.15,11417.1L4573.2,11429.8L4539.47,11429.8L4516.94,11452.9L4486.69,11474.2L4422.88,11479.9L4422.88,11479.9Z"/>
                </clipPath>
                <g clip-path="url(#_clip2)">
                    <path d="M4422.31,11347.4C4373.99,11347.7 4289.13,11331 4272.55,11313.8C4255.91,11296.7 4249.38,11279.5 4249.38,11279.5L4197.82,11290.4L4233.87,11238.4L4292.6,11217L4306.28,11232.5C4268.89,11248.9 4287.94,11245.9 4306.28,11240.1C4324.63,11234.2 4380.98,11220.4 4380.98,11220.4C4398.17,11226.2 4422.88,11223.7 4422.88,11223.7L4423.16,11223.8C4425.94,11224 4448.66,11225.9 4464.77,11220.4C4464.77,11220.4 4521.12,11234.2 4539.47,11240.1C4557.82,11245.9 4576.87,11248.9 4539.47,11232.5L4553.15,11217L4611.88,11238.4L4647.93,11290.4L4596.38,11279.5C4596.38,11279.5 4589.84,11296.7 4573.2,11313.8C4556.56,11331 4471.09,11347.8 4422.88,11347.4L4422.31,11347.4Z" style="fill:rgb(73,74,72);"/>
                </g>
                <path d="M4422.88,11741.9C4397.22,11741.5 4383.15,11752.2 4376.11,11767.7C4369.07,11783.1 4357.33,11774.7 4338.22,11743.9C4319.11,11713 4298.32,11699.6 4277.87,11678.5C4257.41,11657.4 4244,11648.3 4232.94,11636.6C4221.87,11624.8 4198.73,11607.1 4193.37,11599.4C4188.01,11591.6 4181.3,11581.6 4183.31,11573.9C4185.32,11566.2 4174.59,11548.4 4168.89,11541.7C4163.19,11535 4162.86,11519.5 4160.51,11471.6C4158.16,11423.7 4161.85,11404.5 4174.93,11382.4C4188.01,11360.3 4205.44,11378.4 4220.19,11390.1C4234.95,11401.9 4260.95,11409.5 4260.95,11409.5C4264.38,11393.5 4276.05,11404.9 4283.09,11410.7C4290.13,11416.5 4304.33,11422.7 4307.01,11417.9C4309.69,11413.1 4319.75,11415.9 4332.32,11422.2C4344.9,11428.5 4346.78,11444.2 4360.3,11454.3C4373.82,11464.3 4422.88,11465.9 4422.88,11465.9L4422.88,11465.9C4422.88,11465.9 4471.93,11464.4 4485.45,11454.3C4498.97,11444.2 4500.85,11428.5 4513.43,11422.2C4526,11415.9 4536.06,11413.1 4538.74,11417.9C4541.43,11422.8 4555.62,11416.5 4562.66,11410.7C4569.7,11404.9 4581.37,11393.5 4584.81,11409.5C4584.81,11409.5 4610.8,11401.9 4625.56,11390.1C4640.31,11378.4 4657.75,11360.3 4670.82,11382.4C4683.9,11404.6 4687.59,11423.7 4685.24,11471.6C4682.89,11519.6 4682.56,11535 4676.86,11541.7C4671.16,11548.4 4660.43,11566.2 4662.44,11573.9C4664.45,11581.6 4657.75,11591.6 4652.38,11599.4C4647.02,11607.1 4623.88,11624.8 4612.82,11636.6C4601.75,11648.3 4588.34,11657.4 4567.89,11678.5C4547.43,11699.6 4526.64,11713 4507.53,11743.9C4488.42,11774.7 4476.68,11783.1 4469.64,11767.7C4462.6,11752.3 4448.53,11741.5 4422.88,11741.9L4422.88,11741.9ZM4422.88,11512.4C4405.61,11512.4 4385.45,11510.2 4367.22,11501.4C4348.98,11492.6 4346.78,11477.9 4337.04,11465.9C4327.29,11454 4271.1,11432.7 4271.1,11432.7C4268.37,11436.3 4269.66,11436.1 4244.2,11430.1C4218.74,11424.2 4214.02,11459.5 4202.76,11488.8C4191.49,11518.2 4198.19,11534.9 4204.43,11555.4C4210.66,11575.9 4214.49,11564.7 4226.76,11566.1C4239.03,11567.5 4254.9,11598.8 4269.44,11623.2C4283.97,11647.5 4271.79,11662.5 4314.23,11690.8C4356.67,11719.1 4358.83,11710 4374.55,11697.8C4390.26,11685.5 4422.88,11687 4422.88,11687L4422.88,11687C4422.88,11687 4455.49,11685.5 4471.21,11697.8C4486.92,11710.1 4489.09,11719.1 4531.52,11690.8C4573.96,11662.5 4561.78,11647.6 4576.32,11623.2C4590.85,11598.8 4606.72,11567.5 4618.99,11566.1C4631.26,11564.7 4635.09,11576 4641.32,11555.4C4647.56,11534.9 4654.26,11518.2 4642.99,11488.8C4631.73,11459.5 4627.01,11424.2 4601.55,11430.2C4576.09,11436.1 4577.39,11436.3 4574.65,11432.7C4574.65,11432.7 4518.46,11454 4508.71,11465.9C4498.97,11477.9 4496.77,11492.6 4478.53,11501.4C4460.3,11510.2 4440.14,11512.4 4422.88,11512.4L4422.88,11512.4Z" style="fill:rgb(73,74,72);"/>
                <clipPath id="_clip3">
                    <path d="M4422.88,11741.9C4397.22,11741.5 4383.15,11752.2 4376.11,11767.7C4369.07,11783.1 4357.33,11774.7 4338.22,11743.9C4319.11,11713 4298.32,11699.6 4277.87,11678.5C4257.41,11657.4 4244,11648.3 4232.94,11636.6C4221.87,11624.8 4198.73,11607.1 4193.37,11599.4C4188.01,11591.6 4181.3,11581.6 4183.31,11573.9C4185.32,11566.2 4174.59,11548.4 4168.89,11541.7C4163.19,11535 4162.86,11519.5 4160.51,11471.6C4158.16,11423.7 4161.85,11404.5 4174.93,11382.4C4188.01,11360.3 4205.44,11378.4 4220.19,11390.1C4234.95,11401.9 4260.95,11409.5 4260.95,11409.5C4264.38,11393.5 4276.05,11404.9 4283.09,11410.7C4290.13,11416.5 4304.33,11422.7 4307.01,11417.9C4309.69,11413.1 4319.75,11415.9 4332.32,11422.2C4344.9,11428.5 4346.78,11444.2 4360.3,11454.3C4373.82,11464.3 4422.88,11465.9 4422.88,11465.9L4422.88,11465.9C4422.88,11465.9 4471.93,11464.4 4485.45,11454.3C4498.97,11444.2 4500.85,11428.5 4513.43,11422.2C4526,11415.9 4536.06,11413.1 4538.74,11417.9C4541.43,11422.8 4555.62,11416.5 4562.66,11410.7C4569.7,11404.9 4581.37,11393.5 4584.81,11409.5C4584.81,11409.5 4610.8,11401.9 4625.56,11390.1C4640.31,11378.4 4657.75,11360.3 4670.82,11382.4C4683.9,11404.6 4687.59,11423.7 4685.24,11471.6C4682.89,11519.6 4682.56,11535 4676.86,11541.7C4671.16,11548.4 4660.43,11566.2 4662.44,11573.9C4664.45,11581.6 4657.75,11591.6 4652.38,11599.4C4647.02,11607.1 4623.88,11624.8 4612.82,11636.6C4601.75,11648.3 4588.34,11657.4 4567.89,11678.5C4547.43,11699.6 4526.64,11713 4507.53,11743.9C4488.42,11774.7 4476.68,11783.1 4469.64,11767.7C4462.6,11752.3 4448.53,11741.5 4422.88,11741.9L4422.88,11741.9ZM4422.88,11512.4C4405.61,11512.4 4385.45,11510.2 4367.22,11501.4C4348.98,11492.6 4346.78,11477.9 4337.04,11465.9C4327.29,11454 4271.1,11432.7 4271.1,11432.7C4268.37,11436.3 4269.66,11436.1 4244.2,11430.1C4218.74,11424.2 4214.02,11459.5 4202.76,11488.8C4191.49,11518.2 4198.19,11534.9 4204.43,11555.4C4210.66,11575.9 4214.49,11564.7 4226.76,11566.1C4239.03,11567.5 4254.9,11598.8 4269.44,11623.2C4283.97,11647.5 4271.79,11662.5 4314.23,11690.8C4356.67,11719.1 4358.83,11710 4374.55,11697.8C4390.26,11685.5 4422.88,11687 4422.88,11687L4422.88,11687C4422.88,11687 4455.49,11685.5 4471.21,11697.8C4486.92,11710.1 4489.09,11719.1 4531.52,11690.8C4573.96,11662.5 4561.78,11647.6 4576.32,11623.2C4590.85,11598.8 4606.72,11567.5 4618.99,11566.1C4631.26,11564.7 4635.09,11576 4641.32,11555.4C4647.56,11534.9 4654.26,11518.2 4642.99,11488.8C4631.73,11459.5 4627.01,11424.2 4601.55,11430.2C4576.09,11436.1 4577.39,11436.3 4574.65,11432.7C4574.65,11432.7 4518.46,11454 4508.71,11465.9C4498.97,11477.9 4496.77,11492.6 4478.53,11501.4C4460.3,11510.2 4440.14,11512.4 4422.88,11512.4L4422.88,11512.4Z"/>
                </clipPath>
                <g clip-path="url(#_clip3)">
                    <g transform="matrix(1,0,0,1,1.13985,0.974484)">
                        <path d="M4172.28,11476.6C4172.28,11476.6 4164.77,11469.7 4163.27,11454.3C4161.77,11438.8 4161.12,11413.9 4168.2,11403.4C4175.29,11392.9 4178.08,11386 4193.74,11394.8C4209.41,11403.6 4207.9,11410.5 4208.76,11417.6C4209.62,11424.7 4186.87,11492.3 4172.28,11476.6Z" style="fill:rgb(54,55,54);"/>
                    </g>
                    <g transform="matrix(-1,0,0,1,8844.61,0.974484)">
                        <path d="M4172.28,11476.6C4172.28,11476.6 4164.77,11469.7 4163.27,11454.3C4161.77,11438.8 4161.12,11413.9 4168.2,11403.4C4175.29,11392.9 4178.08,11386 4193.74,11394.8C4209.41,11403.6 4207.9,11410.5 4208.76,11417.6C4209.62,11424.7 4186.87,11492.3 4172.28,11476.6Z" style="fill:rgb(54,55,54);"/>
                    </g>
                </g>
                <g transform="matrix(-1,0,0,1,8845.75,0.011918)">
                    <path d="M4316.52,11859C4316.52,11859 4330.35,11784 4328.67,11761.4C4328.67,11761.4 4311.91,11728.7 4282.15,11711.5C4282.15,11711.5 4231.85,11697.7 4238.14,11733.7C4244.43,11769.8 4269.16,11834.3 4283.41,11848.6C4297.66,11862.8 4316.52,11859 4316.52,11859Z" style="fill:rgb(73,74,72);"/>
                    <clipPath id="_clip4">
                        <path d="M4316.52,11859C4316.52,11859 4330.35,11784 4328.67,11761.4C4328.67,11761.4 4311.91,11728.7 4282.15,11711.5C4282.15,11711.5 4231.85,11697.7 4238.14,11733.7C4244.43,11769.8 4269.16,11834.3 4283.41,11848.6C4297.66,11862.8 4316.52,11859 4316.52,11859Z"/>
                    </clipPath>
                    <g clip-path="url(#_clip4)">
                        <path d="M4309.48,11740.7C4309.48,11740.7 4281.58,11742.1 4274.87,11752.3C4268.17,11762.4 4277.56,11823.9 4283.46,11833.5C4289.36,11843.2 4306.26,11850.2 4308.13,11823.9C4310.01,11797.6 4316.45,11754.4 4309.48,11740.7Z" style="fill:rgb(54,55,54);"/>
                        <path d="M4300.87,11718.7C4300.87,11718.7 4259.33,11723.2 4250.06,11734C4250.06,11734 4257.78,11801.1 4264.87,11820.7C4264.87,11820.7 4270.37,11815.9 4272.55,11809.3C4272.55,11809.3 4270.44,11807.4 4265.94,11803.9C4265.94,11803.9 4256.07,11761.4 4259.5,11743.4C4259.5,11743.4 4268.51,11733.5 4306.28,11727.7L4300.87,11718.7Z" style="fill:rgb(242,174,43);"/>
                    </g>
                </g>
            </g>
        </g>
    </g>
</svg>
