<?xml version="1.0" encoding="UTF-8" standalone="no"?>
<!DOCTYPE svg PUBLIC "-//W3C//DTD SVG 1.1//EN" "http://www.w3.org/Graphics/SVG/1.1/DTD/svg11.dtd">
<svg width="100%" height="100%" viewBox="0 0 201 254" version="1.1" xmlns="http://www.w3.org/2000/svg" xmlns:xlink="http://www.w3.org/1999/xlink" xml:space="preserve" xmlns:serif="http://www.serif.com/" style="fill-rule:evenodd;clip-rule:evenodd;stroke-linecap:round;stroke-linejoin:round;stroke-miterlimit:1.5;">
    <g transform="matrix(1,0,0,1,-2905.35,-13239.2)">
        <g transform="matrix(0.211403,0,0,0.211403,2244.92,11257.6)">
            <path d="M3425.12,10170.7C3425.45,10186.7 3424.62,10199.8 3422.44,10206.1C3415.9,10224.8 3407.48,10269.1 3411.69,10305.3C3415.9,10341.6 3412.62,10350.1 3408.42,10370.6C3404.21,10391.2 3416.36,10417.6 3416.36,10417.6C3416.36,10417.6 3392.99,10404.2 3387.85,10386.7C3382.71,10369.3 3372.43,10326.8 3372.89,10286.1C3372.89,10286.1 3357.94,10360.8 3355.6,10399.3C3355.6,10399.3 3336.43,10369.7 3330.36,10355C3324.28,10340.2 3319.14,10328.6 3326.62,10304C3334.1,10279.4 3348.12,10246.3 3334.57,10209.2C3334.57,10209.2 3320.54,10229.3 3320.54,10242.7C3320.54,10256.1 3329.89,10265.5 3313.53,10294.6C3297.17,10323.7 3299.98,10331.7 3285.49,10341.6C3285.49,10341.6 3307.92,10313.4 3287.82,10268.7C3267.72,10223.9 3237.34,10186.4 3217.71,10170.3C3198.08,10154.2 3166.3,10108.6 3157.41,10093.3C3148.53,10078.1 3137.78,10067.4 3147.6,10038.3C3157.41,10009.3 3163.49,9963.65 3161.15,9943.52C3158.82,9923.4 3163.02,9908.19 3174.24,9889.41C3185.46,9870.62 3198.55,9850.05 3210.23,9812.93C3221.92,9775.81 3242.95,9722.58 3259.78,9678.76C3276.61,9634.93 3297.17,9566.5 3323.35,9529.82C3349.52,9493.15 3403.74,9429.64 3438.33,9416.67C3472.92,9403.7 3544.26,9392.97 3599.04,9393.41C3653.81,9392.97 3725.15,9403.7 3759.74,9416.67C3794.33,9429.64 3848.55,9493.15 3874.72,9529.82C3900.9,9566.5 3921.47,9634.93 3938.29,9678.76C3955.12,9722.58 3976.16,9775.81 3987.84,9812.93C3999.53,9850.05 4012.61,9870.62 4023.83,9889.41C4035.05,9908.19 4039.26,9923.4 4036.92,9943.52C4034.58,9963.65 4040.66,10009.3 4050.47,10038.3C4060.29,10067.4 4049.54,10078.1 4040.66,10093.3C4031.78,10108.6 3999.99,10154.2 3980.36,10170.3C3960.73,10186.4 3930.35,10223.9 3910.25,10268.7C3890.15,10313.4 3912.59,10341.6 3912.59,10341.6C3898.1,10331.7 3900.9,10323.7 3884.54,10294.6C3868.18,10265.5 3877.53,10256.1 3877.53,10242.7C3877.53,10229.3 3863.51,10209.2 3863.51,10209.2C3849.95,10246.3 3863.97,10279.4 3871.45,10304C3878.93,10328.6 3873.79,10340.2 3867.71,10355C3861.64,10369.7 3842.47,10399.3 3842.47,10399.3C3840.14,10360.8 3825.18,10286.1 3825.18,10286.1C3825.65,10326.8 3815.36,10369.3 3810.22,10386.7C3805.08,10404.2 3781.71,10417.6 3781.71,10417.6C3781.71,10417.6 3793.86,10391.2 3789.66,10370.6C3785.45,10350.1 3782.18,10341.6 3786.38,10305.3C3790.59,10269.1 3782.18,10224.8 3775.63,10206.1C3773.45,10199.8 3772.62,10186.7 3772.95,10170.7C3746.21,10206.8 3716.22,10241.4 3706.51,10253.8C3698.53,10264.1 3682.22,10275 3668.44,10283C3668.06,10284.2 3667.7,10285.4 3667.36,10286.7C3663.01,10302.5 3643.33,10333.7 3636.89,10362.7C3630.45,10391.7 3620.43,10448.9 3630.45,10481.5C3630.45,10481.5 3622.94,10476.5 3620.08,10459.7C3620.08,10459.7 3611.13,10469.3 3615.07,10532C3615.07,10532 3609.29,10531.1 3605.92,10517.3C3605.92,10517.3 3605.07,10539.3 3599.04,10552.5C3599.04,10552.5 3604.6,10481.8 3571.71,10389C3553.54,10337.7 3541.14,10307.3 3530.97,10283.8C3516.93,10275.7 3499.81,10264.4 3491.57,10253.8C3481.85,10241.4 3451.86,10206.8 3425.12,10170.7Z" style="stroke:black;stroke-width:39.42px;"/>
            <g>
                <path d="M3552.71,10295.3C3552.71,10295.3 3506.85,10273.5 3491.57,10253.8C3476.28,10234.2 3410.77,10159.9 3386.74,10110.8L3355.08,9873.86L3390.02,9658.76L3599.04,9615.08L3808.05,9658.76L3842.99,9873.86L3811.33,10110.8C3787.31,10159.9 3721.79,10234.2 3706.51,10253.8C3691.22,10273.5 3645.36,10295.3 3645.36,10295.3L3599.04,10328.1L3552.71,10295.3Z" style="fill:rgb(216,205,204);"/>
                <g transform="matrix(1,0,0,1,5.1017,4.06779)">
                    <path d="M3654.02,9869.56C3654.02,9869.56 3642.3,9868.09 3639,9873.22C3635.7,9878.35 3630.94,9879.82 3621.78,9879.27C3621.78,9879.27 3618.12,9899.05 3630.21,9900.33C3642.3,9901.61 3647.61,9895.2 3658.97,9895.75C3658.97,9895.75 3659.15,9899.05 3657.69,9901.43C3657.69,9901.43 3681.14,9889.89 3697.26,9887.88C3697.26,9887.88 3696.16,9882.2 3701.84,9876.7C3707.52,9871.21 3731.15,9851.97 3765.77,9851.79L3764.67,9834.2C3764.67,9834.2 3732.8,9840.06 3717.41,9845.19C3702.02,9850.32 3699.82,9849.59 3687.18,9847.94C3687.18,9847.94 3707.7,9859.85 3690.3,9865.34C3672.89,9870.84 3639.19,9893.19 3654.02,9869.56Z" style="fill:rgb(220,220,220);"/>
                </g>
                <g transform="matrix(-1,0,0,1,7192.97,4.06779)">
                    <path d="M3654.02,9869.56C3654.02,9869.56 3642.3,9868.09 3639,9873.22C3635.7,9878.35 3630.94,9879.82 3621.78,9879.27C3621.78,9879.27 3618.12,9899.05 3630.21,9900.33C3642.3,9901.61 3647.61,9895.2 3658.97,9895.75C3658.97,9895.75 3659.15,9899.05 3657.69,9901.43C3657.69,9901.43 3681.14,9889.89 3697.26,9887.88C3697.26,9887.88 3696.16,9882.2 3701.84,9876.7C3707.52,9871.21 3731.15,9851.97 3765.77,9851.79L3764.67,9834.2C3764.67,9834.2 3732.8,9840.06 3717.41,9845.19C3702.02,9850.32 3699.82,9849.59 3687.18,9847.94C3687.18,9847.94 3707.7,9859.85 3690.3,9865.34C3672.89,9870.84 3639.19,9893.19 3654.02,9869.56Z" style="fill:rgb(220,220,220);"/>
                </g>
                <g transform="matrix(1.04511,0,0,1,-162.357,1.09188)">
                    <path d="M3598.83,9726.78C3596.77,9725.78 3580.01,9717.55 3570.05,9710.85C3570.05,9710.85 3575.91,9720.37 3580.86,9724.77C3580.86,9724.77 3567.48,9722.02 3560.89,9716.34C3560.89,9716.34 3549.71,9713.41 3555.21,9723.3C3555.21,9723.3 3520.04,9716.39 3507.21,9713.18C3494.39,9709.98 3470.81,9708.15 3455.23,9712.95C3455.23,9712.95 3449.29,9749.67 3448.85,9776.5C3448.4,9803.34 3447.95,9857.9 3439.9,9886.97C3431.85,9916.04 3421.57,9958.53 3415.75,9988.94C3409.94,10019.4 3406.81,10038.6 3418.88,10072.1C3430.96,10105.7 3436.32,10186.2 3430.06,10205C3423.8,10223.7 3415.75,10268 3419.78,10304.2C3423.8,10340.5 3420.67,10349 3416.64,10369.5C3412.62,10390.1 3424.25,10416.5 3424.25,10416.5C3424.25,10416.5 3401.89,10403.1 3396.97,10385.6C3392.05,10368.2 3382.21,10325.7 3382.66,10285C3382.66,10285 3368.34,10359.7 3366.11,10398.2C3366.11,10398.2 3347.77,10368.7 3341.96,10353.9C3336.14,10339.1 3331.22,10327.5 3338.38,10302.9C3345.53,10278.3 3358.95,10245.2 3345.98,10208.1C3345.98,10208.1 3332.56,10228.2 3332.56,10241.6C3332.56,10255.1 3341.51,10264.4 3325.86,10293.5C3310.2,10322.6 3312.89,10330.6 3299.02,10340.5C3299.02,10340.5 3320.49,10312.3 3301.26,10267.6C3282.03,10222.9 3252.95,10185.3 3234.17,10169.2C3215.39,10153.1 3184.97,10107.5 3176.48,10092.3C3167.98,10077.1 3157.69,10066.3 3167.08,10037.2C3176.48,10008.2 3182.29,9962.56 3180.05,9942.43C3177.82,9922.3 3181.84,9907.1 3192.58,9888.31C3203.31,9869.53 3215.83,9848.96 3227.01,9811.84C3238.2,9774.71 3258.32,9721.49 3274.42,9677.66C3290.52,9633.83 3310.2,9565.41 3335.25,9528.73C3360.29,9492.06 3412.17,9428.55 3445.27,9415.58C3478.37,9402.61 3546.62,9391.88 3599.04,9392.32C3651.45,9391.88 3719.71,9402.61 3752.8,9415.58C3785.9,9428.55 3837.78,9492.06 3862.83,9528.73C3887.87,9565.41 3907.55,9633.83 3923.65,9677.66C3939.75,9721.49 3959.88,9774.71 3971.06,9811.84C3982.24,9848.96 3994.76,9869.53 4005.5,9888.31C4016.23,9907.1 4020.26,9922.3 4018.02,9942.43C4015.78,9962.56 4021.6,10008.2 4030.99,10037.2C4040.38,10066.3 4030.09,10077.1 4021.6,10092.3C4013.1,10107.5 3982.69,10153.1 3963.9,10169.2C3945.12,10185.3 3916.05,10222.9 3896.82,10267.6C3877.58,10312.3 3899.05,10340.5 3899.05,10340.5C3885.19,10330.6 3887.87,10322.6 3872.22,10293.5C3856.56,10264.4 3865.51,10255.1 3865.51,10241.6C3865.51,10228.2 3852.09,10208.1 3852.09,10208.1C3839.12,10245.2 3852.54,10278.3 3859.7,10302.9C3866.85,10327.5 3861.93,10339.1 3856.12,10353.9C3850.3,10368.7 3831.97,10398.2 3831.97,10398.2C3829.73,10359.7 3815.42,10285 3815.42,10285C3815.87,10325.7 3806.03,10368.2 3801.11,10385.6C3796.19,10403.1 3773.82,10416.5 3773.82,10416.5C3773.82,10416.5 3785.45,10390.1 3781.43,10369.5C3777.4,10349 3774.27,10340.5 3778.3,10304.2C3782.32,10268 3774.27,10223.7 3768.01,10205C3761.75,10186.2 3767.12,10105.7 3779.19,10072.1C3791.27,10038.6 3788.14,10019.4 3782.32,9988.94C3776.51,9958.53 3766.22,9916.04 3758.17,9886.97C3750.12,9857.9 3749.67,9803.34 3749.23,9776.5C3748.78,9749.67 3742.84,9712.95 3742.84,9712.95C3727.27,9708.15 3703.68,9709.98 3690.86,9713.18C3678.04,9716.39 3642.86,9723.3 3642.86,9723.3C3648.36,9713.41 3637.18,9716.34 3637.18,9716.34C3630.59,9722.02 3617.22,9724.77 3617.22,9724.77C3622.16,9720.37 3628.03,9710.85 3628.03,9710.85C3617.4,9717.99 3599.04,9726.88 3599.04,9726.88L3598.83,9726.78Z" style="fill:rgb(234,234,234);"/>
                </g>
                <g transform="matrix(1,0,0,1,0,0.698805)">
                    <path d="M3598.58,10130.1C3559.56,10140.8 3469.5,10132.3 3469.5,10132.3C3497.27,10132.3 3531.33,10107.4 3553.94,10096.5C3576.56,10085.6 3599.04,10079.6 3599.04,10079.6C3599.04,10079.6 3621.52,10085.6 3644.13,10096.5C3666.74,10107.4 3700.81,10132.3 3728.57,10132.3C3728.57,10132.3 3637.81,10140.9 3599.04,10130L3598.58,10130.1Z" style="fill:rgb(220,220,220);"/>
                </g>
                <path d="M3599.04,10214.8C3599.04,10214.8 3607.17,10206.2 3608.6,10194.7C3608.6,10194.7 3616.83,10237.7 3630.07,10260.9C3630.07,10260.9 3664.77,10247.7 3680.87,10231.2C3680.87,10231.2 3682.03,10238.9 3679.57,10242.3C3679.57,10242.3 3688.13,10237.5 3689.18,10232.2C3689.18,10232.2 3691.18,10237.4 3685.45,10246.4C3679.73,10255.3 3671.71,10270.9 3667.36,10286.7C3663.01,10302.5 3643.33,10333.7 3636.89,10362.7C3630.45,10391.7 3620.43,10448.9 3630.45,10481.5C3630.45,10481.5 3622.94,10476.5 3620.08,10459.7C3620.08,10459.7 3611.13,10469.3 3615.07,10532C3615.07,10532 3609.29,10531.1 3605.92,10517.3C3605.92,10517.3 3605.07,10539.3 3599.04,10552.5C3599.04,10552.5 3604.6,10481.8 3571.71,10389C3538.83,10296.2 3524.85,10271.8 3508.75,10232.5C3508.75,10232.5 3509.29,10234.7 3516.8,10238.2C3516.8,10238.2 3518.45,10236 3517.71,10227.9C3517.71,10227.9 3541.44,10249 3571.71,10264.4C3571.71,10264.4 3594.84,10219.7 3596.67,10203.4C3596.67,10203.4 3599.57,10209 3599.04,10214.8Z" style="fill:rgb(220,220,220);"/>
            </g>
        </g>
    </g>
</svg>
