<?xml version="1.0" encoding="UTF-8" standalone="no"?>
<!DOCTYPE svg PUBLIC "-//W3C//DTD SVG 1.1//EN" "http://www.w3.org/Graphics/SVG/1.1/DTD/svg11.dtd">
<svg width="100%" height="100%" viewBox="0 0 260 202" version="1.1" xmlns="http://www.w3.org/2000/svg" xmlns:xlink="http://www.w3.org/1999/xlink" xml:space="preserve" xmlns:serif="http://www.serif.com/" style="fill-rule:evenodd;clip-rule:evenodd;stroke-linecap:round;stroke-linejoin:round;stroke-miterlimit:1.5;">
    <g transform="matrix(1,0,0,1,-8297.58,-13239.9)">
        <g transform="matrix(0.833655,0,0,0.833655,1517.81,2825)">
            <path d="M8315.29,12507.1C8331.22,12500.4 8351.04,12494.5 8362.49,12500.5C8381.5,12510.4 8407.95,12528.6 8421.17,12566.2C8421.17,12566.2 8409.69,12554.5 8390.86,12542C8390.86,12542 8430.53,12589.4 8438.47,12646.6C8438.47,12646.6 8422.93,12632.4 8411.36,12625.8C8411.36,12625.8 8427.16,12647.9 8429.51,12667.1C8429.51,12667.1 8394.17,12638.1 8362.43,12629.5C8362.43,12629.5 8374.33,12652.9 8377.97,12670.1C8377.97,12670.1 8358.93,12653.7 8343.01,12644.4C8342.44,12644.5 8341.85,12644.7 8341.26,12644.9C8342.41,12646.2 8343.52,12647.8 8344.59,12649.6C8357.71,12671.4 8350.31,12693.2 8350.31,12693.2C8350.31,12693.2 8349.67,12678.8 8342.9,12669.1C8342.9,12669.1 8345.86,12688.7 8326.82,12711.4C8326.82,12711.4 8327.98,12695.8 8325.39,12683.1C8317.13,12699.3 8319.14,12700.6 8321.63,12704.3C8324.17,12708 8322.44,12727.3 8304.5,12729.4C8292.84,12730.7 8289.17,12725.9 8288.02,12722.4C8286.88,12725.9 8283.21,12730.7 8271.55,12729.4C8253.61,12727.3 8251.88,12708 8254.42,12704.3C8256.91,12700.6 8258.92,12699.3 8250.65,12683.1C8248.07,12695.8 8249.23,12711.4 8249.23,12711.4C8230.18,12688.7 8233.15,12669.1 8233.15,12669.1C8226.38,12678.8 8225.74,12693.2 8225.74,12693.2C8225.74,12693.2 8218.34,12671.4 8231.45,12649.6C8232.53,12647.8 8233.64,12646.2 8234.78,12644.9C8234.19,12644.7 8233.61,12644.5 8233.04,12644.4C8217.11,12653.7 8198.08,12670.1 8198.08,12670.1C8201.72,12652.9 8213.62,12629.5 8213.62,12629.5C8181.88,12638.1 8146.54,12667.1 8146.54,12667.1C8148.88,12647.9 8164.69,12625.8 8164.69,12625.8C8153.12,12632.4 8137.58,12646.6 8137.58,12646.6C8145.51,12589.4 8185.19,12542 8185.19,12542C8166.36,12554.5 8154.87,12566.2 8154.87,12566.2C8168.1,12528.6 8194.55,12510.4 8213.56,12500.5C8224.98,12494.5 8244.71,12500.3 8260.62,12507C8273.53,12497.4 8285.45,12497.9 8288.02,12498C8290.53,12498.1 8302.4,12497.6 8315.29,12507.1Z" style="stroke:black;stroke-width:10px;"/>
            <g>
                <g transform="matrix(1,0,0,1,216.514,32.8034)">
                    <path d="M8051.07,12487.9C8051.07,12487.9 8066.72,12490.2 8075.82,12485.3C8084.92,12480.5 8126.97,12457.8 8145.98,12467.7C8164.99,12477.6 8191.44,12495.8 8204.66,12533.4C8204.66,12533.4 8193.18,12521.7 8174.35,12509.2C8174.35,12509.2 8214.02,12556.6 8221.96,12613.8C8221.96,12613.8 8206.42,12599.6 8194.85,12593C8194.85,12593 8210.65,12615.1 8213,12634.3C8213,12634.3 8177.65,12605.3 8145.92,12596.7C8145.92,12596.7 8157.82,12620.1 8161.45,12637.3C8161.45,12637.3 8128.72,12609.2 8113.19,12605.5C8113.19,12605.5 8117.81,12619.4 8119.8,12631.7C8119.8,12631.7 8085.5,12604.6 8064.01,12596.7L8051.07,12487.9Z" style="fill:rgb(183,190,199);"/>
                </g>
                <g transform="matrix(-1,0,0,1,16359.5,32.8034)">
                    <path d="M8051.07,12487.9C8051.07,12487.9 8066.72,12490.2 8075.82,12485.3C8084.92,12480.5 8126.97,12457.8 8145.98,12467.7C8164.99,12477.6 8191.44,12495.8 8204.66,12533.4C8204.66,12533.4 8193.18,12521.7 8174.35,12509.2C8174.35,12509.2 8214.02,12556.6 8221.96,12613.8C8221.96,12613.8 8206.42,12599.6 8194.85,12593C8194.85,12593 8210.65,12615.1 8213,12634.3C8213,12634.3 8177.65,12605.3 8145.92,12596.7C8145.92,12596.7 8157.82,12620.1 8161.45,12637.3C8161.45,12637.3 8128.72,12609.2 8113.19,12605.5C8113.19,12605.5 8117.81,12619.4 8119.8,12631.7C8119.8,12631.7 8085.5,12604.6 8064.01,12596.7L8051.07,12487.9Z" style="fill:rgb(183,190,199);"/>
                </g>
                <g transform="matrix(1,0,0,1,270.022,37.5315)">
                    <path d="M8069.16,12578.6C8069.16,12578.6 8074.24,12564.3 8079.15,12561.5C8084.06,12558.6 8092.86,12554.9 8093.03,12574.2C8093.2,12593.5 8083.89,12605.5 8067.98,12608L8069.16,12578.6Z" style="fill:rgb(244,213,189);"/>
                </g>
                <g transform="matrix(-1,0,0,1,16306,37.5315)">
                    <path d="M8069.16,12578.6C8069.16,12578.6 8074.24,12564.3 8079.15,12561.5C8084.06,12558.6 8092.86,12554.9 8093.03,12574.2C8093.2,12593.5 8083.89,12605.5 8067.98,12608L8069.16,12578.6Z" style="fill:rgb(244,213,189);"/>
                </g>
                <g transform="matrix(1,0,0,1,0.504655,0.793459)">
                    <path d="M8287.52,12497.2C8292.17,12497.4 8329.03,12495.3 8344.88,12559.4C8344.88,12559.4 8355.15,12568.9 8348.38,12582.3C8341.61,12595.6 8337.38,12607.3 8343.47,12614.9C8349.56,12622.6 8334.16,12664.3 8325.36,12681.4C8316.55,12698.5 8318.59,12699.8 8321.12,12703.5C8323.66,12707.2 8321.94,12726.5 8303.99,12728.6C8292.33,12729.9 8288.66,12725.1 8287.52,12721.6C8286.38,12725.1 8282.71,12729.9 8271.05,12728.6C8253.1,12726.5 8251.38,12707.2 8253.92,12703.5C8256.45,12699.8 8258.49,12698.5 8249.68,12681.4C8240.88,12664.3 8225.48,12622.6 8231.57,12614.9C8237.66,12607.3 8233.43,12595.6 8226.66,12582.3C8219.89,12568.9 8230.16,12559.4 8230.16,12559.4C8246.01,12495.3 8282.76,12497 8287.52,12497.2Z" style="fill:rgb(255,221,195);"/>
                </g>
                <g transform="matrix(1,0,0,1,774.839,12.3281)">
                    <path d="M7558.35,12565L7559.11,12557.2C7559.11,12557.2 7555.86,12550.6 7548.82,12549.7C7541.78,12548.9 7534.95,12563.8 7527.26,12571.7C7527.26,12571.7 7538.96,12564.6 7542.32,12561.3C7545.68,12558.1 7552.72,12556.8 7558.35,12565Z" style="fill:rgb(183,190,199);"/>
                </g>
                <g transform="matrix(-1,0,0,1,15801.2,12.3281)">
                    <path d="M7558.35,12565L7559.11,12557.2C7559.11,12557.2 7555.86,12550.6 7548.82,12549.7C7541.78,12548.9 7534.95,12563.8 7527.26,12571.7C7527.26,12571.7 7538.96,12564.6 7542.32,12561.3C7545.68,12558.1 7552.72,12556.8 7558.35,12565Z" style="fill:rgb(183,190,199);"/>
                </g>
                <g transform="matrix(1,0,0,1,266.403,46.4245)">
                    <path d="M8021.62,12596.8C8026.35,12596.6 8033.85,12596 8038.62,12594.2C8046.03,12591.5 8065.07,12581.4 8078.19,12603.2C8091.31,12625 8083.9,12646.8 8083.9,12646.8C8083.9,12646.8 8083.27,12632.4 8076.5,12622.6C8076.5,12622.6 8079.46,12642.3 8060.42,12665C8060.42,12665 8062.11,12642.1 8056.82,12629.2C8056.82,12629.2 8055.34,12636.4 8050.69,12642.5C8050.69,12642.5 8047.3,12633.2 8044.55,12626C8044.55,12626 8044.77,12632.4 8042.71,12637.9C8042.71,12637.9 8036.97,12629.1 8033.51,12625.2C8033.51,12625.2 8029.77,12629.5 8025.98,12630.7L8021.62,12627L8017.27,12630.7C8013.48,12629.5 8009.74,12625.2 8009.74,12625.2C8006.27,12629.1 8000.53,12637.9 8000.53,12637.9C7998.47,12632.4 7998.69,12626 7998.69,12626C7995.94,12633.2 7992.56,12642.5 7992.56,12642.5C7987.9,12636.4 7986.42,12629.2 7986.42,12629.2C7981.13,12642.1 7982.82,12665 7982.82,12665C7963.78,12642.3 7966.74,12622.6 7966.74,12622.6C7959.97,12632.4 7959.34,12646.8 7959.34,12646.8C7959.34,12646.8 7951.93,12625 7965.05,12603.2C7978.17,12581.4 7997.21,12591.5 8004.62,12594.2C8009.39,12596 8016.9,12596.6 8021.62,12596.8Z" style="fill:rgb(183,190,199);"/>
                </g>
            </g>
        </g>
    </g>
</svg>
