<?xml version="1.0" encoding="UTF-8" standalone="no"?>
<!DOCTYPE svg PUBLIC "-//W3C//DTD SVG 1.1//EN" "http://www.w3.org/Graphics/SVG/1.1/DTD/svg11.dtd">
<svg width="100%" height="100%" viewBox="0 0 210 259" version="1.1" xmlns="http://www.w3.org/2000/svg" xmlns:xlink="http://www.w3.org/1999/xlink" xml:space="preserve" xmlns:serif="http://www.serif.com/" style="fill-rule:evenodd;clip-rule:evenodd;stroke-linecap:round;stroke-linejoin:round;stroke-miterlimit:1.5;">
    <g transform="matrix(1,0,0,1,-3102.13,-13763.5)">
        <g transform="matrix(2.99911,0,0,2.99911,-6745.85,-23164.5)">
            <path d="M3294.39,12342.4C3297.25,12329.2 3301.27,12320.3 3305.63,12316.6C3310.74,12312.2 3317.49,12315.6 3318.5,12316.1C3319.51,12315.6 3326.26,12312.2 3331.37,12316.6C3335.73,12320.3 3339.75,12329.2 3342.61,12342.4C3343.62,12342.3 3344.62,12342.3 3345.57,12342.3C3345.57,12342.3 3344.17,12343 3342.81,12343.3L3342.83,12343.4L3342.84,12343.4C3343.7,12343.5 3345.49,12343.7 3347.13,12344.1C3347.13,12344.1 3345.49,12345.1 3343.22,12345.3L3343.23,12345.4L3343.24,12345.4C3343.66,12345.7 3344.99,12346.5 3346.57,12346.9C3346.57,12346.9 3345.43,12347.5 3343.71,12347.9C3344.04,12349.8 3344.36,12351.8 3344.64,12353.8C3347.41,12373.1 3351.97,12382 3351.97,12382C3346.7,12380.8 3342.09,12379.3 3341.47,12375.3C3341.47,12375.3 3340.64,12381.2 3336.85,12383.1C3336.34,12383.4 3335.78,12383.6 3335.16,12383.7C3334.25,12387.4 3333.03,12391.5 3331.4,12395.8C3331.4,12395.8 3328.58,12390.9 3327.7,12387.1C3327.7,12387.1 3326.37,12394.1 3323.98,12397.7C3323.98,12397.7 3321.16,12395.3 3318.5,12387.7L3318.44,12387.9C3315.8,12395.3 3313.02,12397.7 3313.02,12397.7C3310.63,12394.1 3309.31,12387.1 3309.31,12387.1C3308.42,12390.9 3305.6,12395.8 3305.6,12395.8C3303.81,12391 3302.51,12386.6 3301.58,12382.5C3290.72,12382.4 3292.05,12376.9 3292.05,12376.9C3289.71,12379.1 3287.37,12380.7 3285.03,12382C3285.03,12382 3289.59,12373.1 3292.36,12353.8C3292.64,12351.8 3292.96,12349.8 3293.29,12347.9C3291.57,12347.5 3290.43,12346.9 3290.43,12346.9C3292.01,12346.5 3293.34,12345.7 3293.76,12345.4L3293.77,12345.4L3293.78,12345.3C3291.51,12345.1 3289.87,12344.1 3289.87,12344.1C3291.51,12343.7 3293.3,12343.5 3294.16,12343.4L3294.17,12343.4L3294.19,12343.3C3292.83,12343 3291.43,12342.3 3291.43,12342.3C3292.38,12342.3 3293.38,12342.3 3294.39,12342.4Z" style="stroke:black;stroke-width:2.78px;"/>
            <g>
                <g transform="matrix(1,0,0,1,-4.29635,10.7286)">
                    <path d="M3322.8,12305.4C3323.81,12304.8 3330.56,12301.5 3335.67,12305.8C3341.2,12310.6 3346.18,12323.7 3348.94,12343C3351.71,12362.4 3356.27,12371.3 3356.27,12371.3C3351,12370.1 3346.38,12368.5 3345.76,12364.6C3345.76,12364.6 3344.93,12370.4 3341.15,12372.4C3337.56,12374.2 3331.23,12372.2 3322.94,12371.3L3322.8,12370.1L3311.61,12371.5C3294.6,12373.4 3296.34,12366.2 3296.34,12366.2C3294,12368.4 3291.66,12370 3289.32,12371.3C3289.32,12371.3 3293.89,12362.4 3296.65,12343C3299.42,12323.7 3304.39,12310.6 3309.93,12305.8C3315.03,12301.5 3321.79,12304.8 3322.8,12305.4Z" style="fill:rgb(142,140,134);"/>
                </g>
                <g transform="matrix(0.939907,0,0,0.939907,199.419,743.793)">
                    <path d="M3311.83,12372.1C3294.82,12355.1 3299.8,12338.9 3302.7,12326.1C3305.61,12313.2 3318.5,12316.5 3318.5,12316.5L3318.54,12316.5C3319.3,12316.4 3331.49,12313.6 3334.3,12326.1C3337.2,12338.9 3342.18,12355.1 3325.17,12372.1L3318.5,12373.8L3311.83,12372.1Z" style="fill:rgb(243,186,131);"/>
                </g>
                <path d="M3318.44,12387.9C3315.8,12395.3 3313.02,12397.7 3313.02,12397.7C3310.63,12394.1 3309.31,12387.1 3309.31,12387.1C3308.42,12390.9 3305.6,12395.8 3305.6,12395.8C3295.23,12368.2 3301.22,12351.9 3301.22,12351.9C3303.03,12364.4 3313.62,12368.4 3318.5,12368.3C3318.51,12368.3 3318.53,12368.3 3318.54,12368.3C3323.75,12368.1 3334.03,12364 3335.78,12351.9C3335.78,12351.9 3341.77,12368.2 3331.4,12395.8C3331.4,12395.8 3328.58,12390.9 3327.7,12387.1C3327.7,12387.1 3326.37,12394.1 3323.98,12397.7C3323.98,12397.7 3321.16,12395.3 3318.5,12387.7L3318.44,12387.9Z" style="fill:rgb(157,153,144);"/>
                <g transform="matrix(0.858336,0,0,0.858336,470.625,1747.39)">
                    <path d="M3317.9,12359.1C3319.1,12358.5 3323.35,12356.6 3327.92,12357C3333.32,12357.4 3343.86,12361.3 3348.72,12365C3348.72,12365 3345.71,12363.8 3340.49,12364.8C3335.39,12365.7 3326.64,12366.4 3317.9,12363.8C3309.16,12366.4 3300.42,12365.7 3295.31,12364.8C3290.09,12363.8 3287.08,12365 3287.08,12365C3291.95,12361.3 3302.48,12357.4 3307.88,12357C3312.45,12356.6 3316.71,12358.5 3317.9,12359.1Z" style="fill:rgb(147,144,135);"/>
                </g>
                <g transform="matrix(1,0,0,1,0.0672808,0.967997)">
                    <path d="M3315.22,12344.3C3315.22,12344.3 3316.92,12344.3 3316.92,12343C3316.92,12341.7 3315.72,12341.3 3313.87,12341.3C3312.03,12341.3 3300.14,12341.7 3291.36,12341.3C3291.36,12341.3 3293.13,12342.2 3294.62,12342.4C3294.62,12342.4 3292.07,12342.6 3289.8,12343.1C3289.8,12343.1 3291.5,12344.2 3293.84,12344.3C3293.84,12344.3 3292.28,12345.4 3290.37,12346C3290.37,12346 3295.04,12348.2 3299.78,12347.2C3304.53,12346.2 3310.12,12345 3315.22,12344.3" style="fill:rgb(147,144,135);"/>
                </g>
                <g transform="matrix(-1,0,0,1,6636.93,0.967997)">
                    <path d="M3315.22,12344.3C3315.22,12344.3 3316.92,12344.3 3316.92,12343C3316.92,12341.7 3315.72,12341.3 3313.87,12341.3C3312.03,12341.3 3300.14,12341.7 3291.36,12341.3C3291.36,12341.3 3293.13,12342.2 3294.62,12342.4C3294.62,12342.4 3292.07,12342.6 3289.8,12343.1C3289.8,12343.1 3291.5,12344.2 3293.84,12344.3C3293.84,12344.3 3292.28,12345.4 3290.37,12346C3290.37,12346 3295.04,12348.2 3299.78,12347.2C3304.53,12346.2 3310.12,12345 3315.22,12344.3" style="fill:rgb(147,144,135);"/>
                </g>
            </g>
        </g>
    </g>
</svg>
