<?xml version="1.0" encoding="UTF-8" standalone="no"?>
<!DOCTYPE svg PUBLIC "-//W3C//DTD SVG 1.1//EN" "http://www.w3.org/Graphics/SVG/1.1/DTD/svg11.dtd">
<svg width="100%" height="100%" viewBox="0 0 224 210" version="1.1" xmlns="http://www.w3.org/2000/svg" xmlns:xlink="http://www.w3.org/1999/xlink" xml:space="preserve" xmlns:serif="http://www.serif.com/" style="fill-rule:evenodd;clip-rule:evenodd;stroke-linecap:round;stroke-linejoin:round;stroke-miterlimit:1.5;">
    <g transform="matrix(1,0,0,1,-9319.41,-13637.6)">
        <g transform="matrix(1.01909,0,0,1.01909,167.941,12004.5)">
            <path d="M9015.52,1692.87C9015.38,1690.98 9014.65,1686.68 9011.15,1680.47C9006.33,1671.92 8984.14,1619.55 8984.14,1619.55C8984.14,1619.55 9012.91,1629.15 9023.31,1633.82C9031.35,1637.42 9041.86,1643.31 9049.76,1643.97C9048.84,1640.55 9047.09,1633.92 9046.93,1631.93L9062.21,1638.56C9062.21,1638.56 9062.38,1634.08 9063.8,1629.99C9063.8,1629.99 9070.1,1632.24 9072.43,1636.18C9072.43,1636.18 9091.67,1613.95 9106.02,1607.17C9106.02,1607.17 9105.79,1620.4 9102.96,1632.6C9102.96,1632.6 9113.57,1625.83 9121.79,1623.55C9121.79,1623.55 9118.99,1632.45 9116.88,1636.94C9116.88,1636.94 9166.19,1613.07 9195.17,1606.6C9195.17,1606.6 9165.72,1659.67 9156.81,1678.53C9164.53,1691.12 9169,1706.03 9169,1722C9169,1767.05 9133.45,1803.63 9089.66,1803.63C9045.86,1803.63 9010.31,1767.05 9010.31,1722C9010.31,1711.74 9012.15,1701.91 9015.52,1692.87Z" style="stroke:black;stroke-width:8.18px;"/>
            <g>
                <g transform="matrix(1,0,0,1,-280.507,-28.0549)">
                    <path d="M9289.91,1705.11C9282.93,1690.75 9264.65,1647.61 9264.65,1647.61C9264.65,1647.61 9293.41,1657.2 9303.82,1661.87C9311.86,1665.48 9322.36,1671.37 9330.27,1672.02C9329.34,1668.6 9327.6,1661.97 9327.43,1659.99L9342.72,1666.61C9342.72,1666.61 9342.89,1662.14 9344.31,1658.04C9344.31,1658.04 9350.61,1660.29 9352.94,1664.24C9352.94,1664.24 9372.18,1642.01 9386.52,1635.22C9386.52,1635.22 9386.3,1648.46 9383.47,1660.65C9383.47,1660.65 9394.08,1653.89 9402.3,1651.6C9402.3,1651.6 9399.5,1660.5 9397.39,1664.99C9397.39,1664.99 9446.7,1641.12 9475.68,1634.65C9475.68,1634.65 9447.68,1685.11 9438.02,1705.11L9386.14,1705.11L9342.07,1700.78L9311.07,1755.24L9289.91,1705.11Z" style="fill:rgb(123,117,153);"/>
                </g>
                <g transform="matrix(0.83576,0,0,0.801397,1715.15,321.043)">
                    <ellipse cx="8823.71" cy="1748.14" rx="94.941" ry="101.856" style="fill:rgb(129,122,166);"/>
                </g>
                <g transform="matrix(4.23749e-17,-0.692035,0.692035,4.23749e-17,7881.23,7831.16)">
                    <path d="M8797.32,1669.99C8764.94,1669.99 8738.66,1704.13 8738.66,1746.19C8738.66,1788.24 8764.94,1822.38 8797.32,1822.38C8787.61,1804.6 8779.72,1776.58 8779.72,1746.19C8779.72,1715.79 8787.61,1687.77 8797.32,1669.99Z" style="fill:rgb(205,214,221);"/>
                    <clipPath id="_clip1">
                        <path d="M8797.32,1669.99C8764.94,1669.99 8738.66,1704.13 8738.66,1746.19C8738.66,1788.24 8764.94,1822.38 8797.32,1822.38C8787.61,1804.6 8779.72,1776.58 8779.72,1746.19C8779.72,1715.79 8787.61,1687.77 8797.32,1669.99Z"/>
                    </clipPath>
                    <g clip-path="url(#_clip1)">
                        <g transform="matrix(4.55709e-17,0.74423,-1.44501,8.84816e-17,11310.6,-5030.07)">
                            <rect x="9070.37" y="1746.54" width="4.419" height="37.165"/>
                        </g>
                        <g transform="matrix(4.55709e-17,0.74423,-1.44501,8.84816e-17,11318.6,-5063.7)">
                            <rect x="9070.37" y="1746.54" width="4.419" height="37.165"/>
                        </g>
                        <g transform="matrix(4.55709e-17,0.74423,-1.44501,8.84816e-17,11318.6,-4948.1)">
                            <rect x="9070.37" y="1746.54" width="4.419" height="37.165"/>
                        </g>
                        <g transform="matrix(4.55709e-17,0.74423,-1.44501,8.84816e-17,11310.6,-4981.73)">
                            <rect x="9070.37" y="1746.54" width="4.419" height="37.165"/>
                        </g>
                    </g>
                </g>
            </g>
        </g>
    </g>
</svg>
