<?xml version="1.0" encoding="UTF-8" standalone="no"?>
<!DOCTYPE svg PUBLIC "-//W3C//DTD SVG 1.1//EN" "http://www.w3.org/Graphics/SVG/1.1/DTD/svg11.dtd">
<svg width="100%" height="100%" viewBox="0 0 305 159" version="1.1" xmlns="http://www.w3.org/2000/svg" xmlns:xlink="http://www.w3.org/1999/xlink" xml:space="preserve" xmlns:serif="http://www.serif.com/" style="fill-rule:evenodd;clip-rule:evenodd;stroke-linecap:round;stroke-linejoin:round;stroke-miterlimit:1.5;">
    <g transform="matrix(1,0,0,1,-9479.42,-13266)">
        <g transform="matrix(1.25309,0,0,1.25309,567.982,-1593.36)">
            <path d="M7194.17,11868.9C7198.4,11866.5 7202.95,11864.4 7207.76,11862.8C7213.64,11860.8 7219.89,11861.6 7226.4,11862.2C7229.97,11861.5 7234.87,11861.1 7240.39,11862.3C7247.53,11861.8 7254.35,11861.1 7260.71,11863.5C7264.81,11865 7268.71,11866.8 7272.37,11868.9C7283.63,11873.4 7292.29,11877.9 7291.82,11879.1L7291.29,11880.5C7292.86,11881.5 7293.71,11882.3 7293.67,11882.7L7293.68,11882.7L7292.68,11885.2C7292.6,11885.5 7292.28,11885.6 7291.74,11885.6C7298.74,11894.5 7303.1,11905.1 7303.86,11916.6C7307.49,11914.3 7310.83,11911.8 7313.68,11909.2C7313.68,11909.2 7314.47,11914.6 7311.47,11918.1C7311.47,11918.1 7330.73,11911.9 7347.19,11914.9C7347.19,11914.9 7334.85,11919.3 7325.19,11928.8C7325.19,11928.8 7343.08,11934.5 7351.62,11941.5C7351.62,11941.5 7337.54,11940.1 7326.78,11942.1C7326.78,11942.1 7332,11953.7 7342.76,11961.6C7342.76,11961.6 7323.24,11954.3 7295.13,11950C7283.06,11968.9 7259.87,11981.7 7233.27,11981.7C7206.67,11981.7 7183.48,11968.9 7171.41,11950C7143.31,11954.3 7123.78,11961.6 7123.78,11961.6C7134.54,11953.7 7139.77,11942.1 7139.77,11942.1C7129.01,11940.1 7114.92,11941.5 7114.92,11941.5C7123.47,11934.5 7141.35,11928.8 7141.35,11928.8C7131.69,11919.3 7119.35,11914.9 7119.35,11914.9C7135.81,11911.9 7155.08,11918.1 7155.08,11918.1C7152.07,11914.6 7152.86,11909.2 7152.86,11909.2C7155.71,11911.8 7159.05,11914.3 7162.68,11916.6C7163.44,11905.1 7167.81,11894.5 7174.8,11885.6C7174.27,11885.6 7173.94,11885.5 7173.86,11885.2L7172.86,11882.7L7172.87,11882.7C7172.83,11882.3 7173.69,11881.5 7175.25,11880.5L7174.73,11879.1L7174.72,11879.1C7174.28,11877.9 7182.94,11873.4 7194.17,11868.9Z" style="stroke:black;stroke-width:6.65px;"/>
            <g>
                <g transform="matrix(1.08955,0,0,1.02769,-516.472,-448.762)">
                    <path d="M7112.78,11979.6C7121.71,11979.6 7130.22,11977.5 7137.96,11980.5C7161.28,11989.6 7177.67,12010.9 7177.67,12035.7C7177.67,12068.7 7148.6,12095.5 7112.78,12095.5C7076.96,12095.5 7047.88,12068.7 7047.88,12035.7C7047.88,12010.2 7065.1,11988.5 7089.36,11979.8C7096.63,11977.2 7104.53,11979.6 7112.78,11979.6Z" style="fill:rgb(252,201,152);"/>
                </g>
                <g transform="matrix(2.43464,0,0,2.43464,-11517.4,-17371.5)">
                    <path d="M7696.75,12038.7C7696.75,12038.7 7677.27,12034.7 7668.62,12026.7C7668.62,12026.7 7668.29,12028.9 7669.53,12030.3C7669.53,12030.3 7661.62,12027.8 7654.86,12029C7654.86,12029 7659.93,12030.9 7663.89,12034.8C7663.89,12034.8 7656.55,12037.1 7653.03,12040C7653.03,12040 7658.82,12039.4 7663.24,12040.2C7663.24,12040.2 7661.1,12045 7656.68,12048.2C7656.68,12048.2 7677.45,12040.5 7700.26,12042.4L7696.75,12038.7Z" style="fill:rgb(129,56,15);"/>
                </g>
                <g transform="matrix(-2.43464,0,0,2.43464,25984,-17371.5)">
                    <path d="M7696.75,12038.7C7696.75,12038.7 7677.27,12034.7 7668.62,12026.7C7668.62,12026.7 7668.29,12028.9 7669.53,12030.3C7669.53,12030.3 7661.62,12027.8 7654.86,12029C7654.86,12029 7659.93,12030.9 7663.89,12034.8C7663.89,12034.8 7656.55,12037.1 7653.03,12040C7653.03,12040 7658.82,12039.4 7663.24,12040.2C7663.24,12040.2 7661.1,12045 7656.68,12048.2C7656.68,12048.2 7677.45,12040.5 7700.26,12042.4L7696.75,12038.7Z" style="fill:rgb(129,56,15);"/>
                </g>
                <g transform="matrix(1,0,0,1,-0.396604,13.0767)">
                    <ellipse cx="7233.71" cy="11912.5" rx="10.292" ry="7.854" style="fill:rgb(193,193,193);"/>
                </g>
                <g transform="matrix(2.83258,1.11512e-16,-1.11512e-16,2.83258,-14582.7,-22161.7)">
                    <path d="M7691.64,12026C7692.58,12026.3 7693.9,12027 7695.29,12028.6C7697.47,12031.1 7698.18,12032.7 7700.22,12033.2C7699.68,12036.2 7696.94,12038.5 7693.66,12038.5C7689.98,12038.5 7686.99,12035.7 7686.99,12032.1C7686.99,12029.3 7688.95,12026.8 7691.64,12026Z" style="fill:rgb(60,63,102);"/>
                </g>
                <g transform="matrix(-2.83258,1.11512e-16,1.11512e-16,2.83258,29049.3,-22161.7)">
                    <path d="M7691.64,12026C7692.58,12026.3 7693.9,12027 7695.29,12028.6C7697.47,12031.1 7698.18,12032.7 7700.22,12033.2C7699.68,12036.2 7696.94,12038.5 7693.66,12038.5C7689.98,12038.5 7686.99,12035.7 7686.99,12032.1C7686.99,12029.3 7688.95,12026.8 7691.64,12026Z" style="fill:rgb(60,63,102);"/>
                </g>
                <g transform="matrix(2.43464,0,0,2.43464,-11517.6,-17371.5)">
                    <path d="M7701.71,12043.5C7694.22,12039.7 7695.58,12038.6 7697.68,12034.8C7699.79,12031 7701.71,12031.5 7701.71,12031.5L7701.72,12031.5C7701.83,12031.5 7703.69,12031.1 7705.74,12034.8C7707.85,12038.6 7709.3,12039.6 7701.71,12043.5Z" style="fill:rgb(216,103,85);"/>
                </g>
                <g transform="matrix(1.2055,0,0,1.2055,-1486.43,-2414.8)">
                    <path d="M7222.58,11844.7C7222.58,11844.7 7232.36,11840.1 7243.96,11844.7L7243.96,11847.8C7243.96,11847.8 7234.23,11844 7222.58,11847.9L7222.58,11844.7Z" style="fill:rgb(129,129,129);"/>
                </g>
                <g transform="matrix(1.11076,0.437193,-0.437193,1.11076,3918.67,-4783.54)">
                    <path d="M7701.71,11956.2L7744.45,11956.2L7744.45,11958.5C7744.45,11959.8 7734.87,11960.8 7723.08,11960.8C7711.28,11960.8 7701.71,11959.8 7701.71,11958.5L7701.71,11956.2Z" style="fill:rgb(97,97,97);"/>
                </g>
                <g transform="matrix(1.11076,0.437193,-0.437193,1.11076,3918.64,-4783.46)">
                    <ellipse cx="7723.08" cy="11956.2" rx="21.368" ry="2.281" style="fill:rgb(121,121,121);"/>
                </g>
                <g transform="matrix(0.978306,0.385061,-0.385061,0.978306,4319.26,-2799.78)">
                    <path d="M7701.71,11956.2L7744.45,11956.2L7744.45,11958.5C7744.45,11959.8 7734.87,11960.8 7723.08,11960.8C7711.28,11960.8 7701.71,11959.8 7701.71,11958.5L7701.71,11956.2Z" style="fill:rgb(97,97,97);"/>
                </g>
                <g transform="matrix(0.978306,0.385061,-0.385061,0.978306,4319.26,-2799.78)">
                    <ellipse cx="7723.08" cy="11956.2" rx="21.368" ry="2.281" style="fill:rgb(116,116,116);"/>
                </g>
                <g transform="matrix(0.891964,0.351077,-0.276454,0.702373,3687.55,761.795)">
                    <ellipse cx="7723.08" cy="11956.2" rx="21.368" ry="2.281" style="fill:rgb(0,81,88);"/>
                </g>
                <g transform="matrix(-1.11076,0.437193,0.437193,1.11076,10547.9,-4783.54)">
                    <path d="M7701.71,11956.2L7744.45,11956.2L7744.45,11958.5C7744.45,11959.8 7734.87,11960.8 7723.08,11960.8C7711.28,11960.8 7701.71,11959.8 7701.71,11958.5L7701.71,11956.2Z" style="fill:rgb(97,97,97);"/>
                </g>
                <g transform="matrix(-1.11076,0.437193,0.437193,1.11076,10547.9,-4783.46)">
                    <ellipse cx="7723.08" cy="11956.2" rx="21.368" ry="2.281" style="fill:rgb(121,121,121);"/>
                </g>
                <g transform="matrix(-0.978306,0.385061,0.385061,0.978306,10147.3,-2799.78)">
                    <path d="M7701.71,11956.2L7744.45,11956.2L7744.45,11958.5C7744.45,11959.8 7734.87,11960.8 7723.08,11960.8C7711.28,11960.8 7701.71,11959.8 7701.71,11958.5L7701.71,11956.2Z" style="fill:rgb(97,97,97);"/>
                </g>
                <g transform="matrix(-0.978306,0.385061,0.385061,0.978306,10147.3,-2799.78)">
                    <ellipse cx="7723.08" cy="11956.2" rx="21.368" ry="2.281" style="fill:rgb(116,116,116);"/>
                </g>
                <g transform="matrix(-0.891964,0.351077,0.276454,0.702373,10779,761.795)">
                    <ellipse cx="7723.08" cy="11956.2" rx="21.368" ry="2.281" style="fill:rgb(0,81,88);"/>
                </g>
            </g>
        </g>
    </g>
</svg>
