<?xml version="1.0" encoding="UTF-8" standalone="no"?>
<!DOCTYPE svg PUBLIC "-//W3C//DTD SVG 1.1//EN" "http://www.w3.org/Graphics/SVG/1.1/DTD/svg11.dtd">
<svg width="100%" height="100%" viewBox="0 0 219 223" version="1.1" xmlns="http://www.w3.org/2000/svg" xmlns:xlink="http://www.w3.org/1999/xlink" xml:space="preserve" xmlns:serif="http://www.serif.com/" style="fill-rule:evenodd;clip-rule:evenodd;stroke-linecap:round;stroke-linejoin:round;stroke-miterlimit:1.5;">
    <g transform="matrix(1,0,0,1,-277.519,-13742.2)">
        <g transform="matrix(1.44039,0,0,1.44039,-1515.8,-4513.96)">
            <path d="M1278.44,12736.1C1270.36,12728.7 1257.37,12716.8 1253.97,12713.9C1248.92,12709.4 1244.29,12702.4 1252.07,12695.5C1259.86,12688.5 1264.27,12683.9 1268.9,12680.1C1273.53,12676.3 1280.68,12675.6 1293.71,12683.6C1302.33,12688.9 1310.4,12692.5 1314.88,12694.3C1319.83,12693.7 1325.59,12693.6 1332.3,12693.8L1332.95,12693.8C1388.08,12692 1378.38,12719.5 1384.86,12732.2C1387.2,12736.8 1387.27,12745.6 1386.29,12755.3C1387.01,12755.5 1387.76,12755.8 1388.51,12756.3C1394.9,12760.3 1395.54,12769.9 1391.19,12777.2C1388.12,12782.4 1384.67,12790.3 1379.35,12792.2C1378.77,12794.3 1378.29,12795.9 1377.97,12796.8C1375.61,12803.6 1375.32,12816.5 1375.32,12816.5C1372.25,12813.7 1368.59,12811.7 1365.13,12810.4C1354.08,12820.5 1337.07,12824.9 1332.8,12825.9L1331.8,12825.9C1327.52,12824.9 1310.52,12820.5 1299.46,12810.4C1296.01,12811.7 1292.35,12813.7 1289.28,12816.5C1289.28,12816.5 1288.99,12803.6 1286.62,12796.8C1286.3,12795.9 1285.82,12794.3 1285.25,12792.2C1279.93,12790.3 1276.47,12782.4 1273.4,12777.2C1269.58,12770.8 1269.61,12762.6 1274.01,12758C1270.56,12759.9 1267.58,12761.4 1266.08,12761.8C1266.08,12761.8 1270.16,12788.2 1269.53,12794.6C1269.53,12794.6 1262.59,12777.2 1257.96,12767.9C1253.34,12758.6 1263.22,12755.1 1263.22,12755.1C1263.22,12755.1 1271.34,12750.4 1277.74,12746.7C1277.64,12742.7 1277.83,12739.1 1278.44,12736.1ZM1304.09,12696.3C1284.76,12701.9 1284.03,12715.2 1281.89,12725.4C1271.43,12715.8 1257.2,12703.4 1257.2,12703.4C1263.88,12699.6 1281.97,12684.7 1281.97,12684.7C1285.68,12686.1 1295.75,12691.6 1304.09,12696.3Z" style="stroke:black;stroke-width:5.79px;"/>
            <g>
                <g transform="matrix(1,0,0,1,375.532,-1.04379)">
                    <path d="M1000.7,12761.5C1000.7,12761.5 1006.58,12753.2 1012.98,12757.3C1019.37,12761.4 1020.01,12771 1015.66,12778.3C1011.32,12785.6 1006.2,12798.3 996.099,12791.8L1000.7,12761.5Z" style="fill:rgb(237,195,137);"/>
                </g>
                <g transform="matrix(-1,0,0,1,2289.06,-1.04379)">
                    <path d="M1000.7,12761.5C1000.7,12761.5 1006.58,12753.2 1012.98,12757.3C1019.37,12761.4 1020.01,12771 1015.66,12778.3C1011.32,12785.6 1006.2,12798.3 996.099,12791.8L1000.7,12761.5Z" style="fill:rgb(237,195,137);"/>
                </g>
                <g transform="matrix(0.964717,0,0,1,47.0074,-4.86981)">
                    <path d="M1310.63,12812.6C1310.63,12812.6 1296.7,12813.3 1287.71,12821.4C1287.71,12821.4 1287.41,12808.4 1284.95,12801.7C1282.5,12795 1271.07,12749.8 1277.82,12737.1C1284.56,12724.3 1274.4,12696.6 1332.3,12698.7L1332.97,12698.7C1390.12,12696.8 1380.06,12724.4 1386.78,12737.1C1393.52,12749.8 1382.1,12795 1379.64,12801.7C1377.19,12808.4 1376.89,12821.4 1376.89,12821.4C1367.9,12813.3 1353.96,12812.6 1353.96,12812.6L1332.3,12740.6L1310.63,12812.6Z" style="fill:rgb(75,70,74);"/>
                </g>
                <path d="M1332.3,12721C1346.06,12716.6 1365.88,12703.8 1365.88,12703.8C1365.31,12719.2 1370.55,12736.4 1370.55,12736.4C1370.55,12736.4 1376.5,12742.8 1376.35,12747.8C1376.2,12752.8 1378.15,12759.2 1378.15,12759.2C1375.93,12756.5 1373.46,12755.7 1373.46,12755.7C1383.36,12765.6 1379.64,12772.8 1374.28,12795.8C1369.43,12816.5 1338.75,12824.5 1332.8,12825.9L1331.8,12825.9C1325.84,12824.5 1295.16,12816.5 1290.32,12795.8C1284.95,12772.8 1281.24,12765.6 1291.13,12755.7C1291.13,12755.7 1288.66,12756.5 1286.44,12759.2C1286.44,12759.2 1288.39,12752.8 1288.25,12747.8C1288.1,12742.8 1294.05,12736.4 1294.05,12736.4C1294.05,12736.4 1299.29,12719.2 1298.71,12703.8C1298.71,12703.8 1318.54,12716.6 1332.3,12721Z" style="fill:rgb(237,195,137);"/>
                <g transform="matrix(0.574888,0,0,0.574888,570.942,5407.27)">
                    <path d="M1324.36,12720.7C1324.36,12720.7 1308.92,12700.5 1297.23,12691.5C1297.23,12691.5 1248.61,12663.4 1236.81,12658.9C1236.81,12658.9 1205.34,12684.7 1193.73,12691.5C1193.73,12691.5 1243.18,12734.5 1253.67,12745.8C1253.67,12745.8 1257.23,12760.4 1256.1,12766.9C1256.1,12766.9 1217.95,12790.3 1209.17,12793C1209.17,12793 1216.27,12839 1215.17,12850C1215.17,12850 1203.1,12819.7 1195.05,12803.6C1187,12787.5 1204.2,12781.3 1204.2,12781.3C1204.2,12781.3 1238.22,12761.9 1242.24,12759C1242.24,12759 1196.88,12717.3 1188.1,12709.6C1179.32,12701.9 1171.27,12689.6 1184.81,12677.6C1198.34,12665.5 1206.03,12657.4 1214.07,12650.9C1222.12,12644.3 1234.56,12643 1257.24,12657C1279.92,12671 1300.41,12677.9 1300.41,12677.9C1300.41,12677.9 1315.38,12699.8 1324.36,12720.7Z" style="fill:rgb(71,64,69);"/>
                </g>
                <g transform="matrix(1,0,0,1,385.427,4.87761)">
                    <path d="M895.454,12748.8C895.454,12748.8 922.297,12756.3 946.871,12756.9C946.871,12756.9 942.676,12765.2 939.679,12768.1L912.348,12768.3C912.348,12768.3 902.893,12759.6 895.454,12748.8Z" style="fill:rgb(69,66,76);"/>
                </g>
                <g transform="matrix(-1,0,0,1,2279.17,4.87761)">
                    <path d="M895.454,12748.8C895.454,12748.8 922.297,12756.3 946.871,12756.9C946.871,12756.9 942.676,12765.2 939.679,12768.1L912.348,12768.3C912.348,12768.3 902.893,12759.6 895.454,12748.8Z" style="fill:rgb(69,66,76);"/>
                </g>
                <g transform="matrix(-1.43814,0,0,1.43814,2691.73,-5583.61)">
                    <path d="M938.859,12755.1C938.859,12755.1 930.996,12748.8 919.68,12748.8C919.68,12748.8 936.174,12745.3 938.859,12755.1Z" style="fill:rgb(102,67,39);"/>
                </g>
                <g transform="matrix(1.43814,0,0,1.43814,-27.134,-5583.61)">
                    <path d="M938.859,12755.1C938.859,12755.1 930.996,12748.8 919.68,12748.8C919.68,12748.8 936.174,12745.3 938.859,12755.1Z" style="fill:rgb(102,67,39);"/>
                </g>
            </g>
        </g>
    </g>
</svg>
