<?xml version="1.0" encoding="UTF-8" standalone="no"?>
<!DOCTYPE svg PUBLIC "-//W3C//DTD SVG 1.1//EN" "http://www.w3.org/Graphics/SVG/1.1/DTD/svg11.dtd">
<svg width="100%" height="100%" viewBox="0 0 187 200" version="1.1" xmlns="http://www.w3.org/2000/svg" xmlns:xlink="http://www.w3.org/1999/xlink" xml:space="preserve" xmlns:serif="http://www.serif.com/" style="fill-rule:evenodd;clip-rule:evenodd;stroke-linecap:round;stroke-linejoin:round;stroke-miterlimit:1.5;">
    <g transform="matrix(1,0,0,1,-7129.42954,-13361.658885)">
        <g transform="matrix(1.037875,0,0,1.037875,1578.705745,580.494345)">
            <g transform="matrix(1,0,0,1,-3.098318,-0.401353)">
                <path d="M5369.642,12381.495C5369.652,12377.208 5370.536,12372.254 5372.936,12366.725C5381.741,12346.44 5408.493,12308.215 5440.951,12322.143C5473.41,12308.215 5500.162,12346.44 5508.967,12366.725C5511.421,12372.379 5512.29,12377.431 5512.26,12381.784C5516.203,12389.453 5521.052,12396.503 5526.48,12399.45C5526.48,12399.45 5517.804,12396.599 5515.211,12393.867C5515.211,12393.867 5519.44,12400.768 5521.648,12402.374C5521.648,12402.374 5514.719,12403.034 5509.692,12401.096C5509.472,12402.76 5509.237,12404.567 5508.992,12406.494C5511.739,12407.282 5514.951,12409.375 5514.253,12414.902C5513.437,12421.369 5510.48,12429.962 5505.645,12436.585C5503.667,12457.901 5502.611,12480.113 5505.656,12488.119C5505.656,12488.119 5496.983,12482.833 5492.967,12474.994C5492.967,12474.994 5488.509,12485.576 5492.967,12496.943C5492.967,12496.943 5485.829,12489.496 5480.032,12484.792C5480.032,12484.792 5475.572,12498.118 5472.896,12503.214C5472.896,12503.214 5471.558,12495.767 5465.76,12492.239C5465.76,12492.239 5452.38,12493.415 5448.813,12501.254C5448.813,12501.254 5446.643,12497.875 5443.851,12493.721C5442.916,12493.816 5441.926,12493.864 5440.869,12493.864C5439.818,12493.864 5438.833,12493.816 5437.902,12493.723C5435.111,12497.876 5432.942,12501.254 5432.942,12501.254C5429.374,12493.415 5415.994,12492.239 5415.994,12492.239C5410.197,12495.767 5408.859,12503.214 5408.859,12503.214C5406.183,12498.118 5401.723,12484.792 5401.723,12484.792C5395.925,12489.496 5388.787,12496.943 5388.787,12496.943C5393.245,12485.576 5388.787,12474.994 5388.787,12474.994C5384.771,12482.833 5376.099,12488.119 5376.099,12488.119C5379.144,12480.113 5378.087,12457.901 5376.109,12436.585C5371.275,12429.962 5368.317,12421.369 5367.501,12414.902C5366.804,12409.375 5370.015,12407.282 5372.762,12406.494C5372.518,12404.567 5372.282,12402.76 5372.062,12401.096C5367.036,12403.034 5360.107,12402.374 5360.107,12402.374C5362.314,12400.768 5366.544,12393.867 5366.544,12393.867C5363.95,12396.599 5355.275,12399.45 5355.275,12399.45C5360.77,12396.466 5365.673,12389.275 5369.642,12381.495Z" style="stroke:black;stroke-width:8.03px;"/>
            </g>
            <g>
                <g transform="matrix(1,0,0,1,-3.098318,-0.401353)">
                    <path d="M5380.146,12354.412C5380.146,12354.412 5369.777,12391.575 5355.275,12399.45C5355.275,12399.45 5363.95,12396.599 5366.544,12393.867C5366.544,12393.867 5362.314,12400.768 5360.107,12402.374C5360.107,12402.374 5370.341,12403.349 5374.957,12399.45L5380.146,12354.412Z" style="fill:rgb(136,58,52);"/>
                </g>
                <g transform="matrix(-1,0,0,1,10878.6562,-0.401353)">
                    <path d="M5380.146,12354.412C5380.146,12354.412 5369.777,12391.575 5355.275,12399.45C5355.275,12399.45 5363.95,12396.599 5366.544,12393.867C5366.544,12393.867 5362.314,12400.768 5360.107,12402.374C5360.107,12402.374 5370.341,12403.349 5374.957,12399.45L5380.146,12354.412Z" style="fill:rgb(136,58,52);"/>
                </g>
                <g transform="matrix(1.137883,0,0,1,-745.450334,-5.745145)">
                    <path d="M5433.977,12483.047L5495.861,12394.894C5495.861,12394.894 5485.206,12476.409 5490.906,12493.463C5490.906,12493.463 5483.284,12488.176 5479.755,12480.337C5479.755,12480.337 5475.838,12490.92 5479.755,12502.286C5479.755,12502.286 5473.482,12494.839 5468.387,12490.136C5468.387,12490.136 5464.468,12503.462 5462.116,12508.558C5462.116,12508.558 5460.94,12501.111 5455.845,12497.583C5455.845,12497.583 5444.087,12498.759 5440.951,12506.598C5440.951,12506.598 5437.543,12500.558 5433.977,12494.703C5430.411,12500.558 5427.004,12506.598 5427.004,12506.598C5423.868,12498.759 5412.11,12497.583 5412.11,12497.583C5407.014,12501.111 5405.839,12508.558 5405.839,12508.558C5403.487,12503.462 5399.567,12490.136 5399.567,12490.136C5394.472,12494.839 5388.199,12502.286 5388.199,12502.286C5392.117,12490.92 5388.199,12480.337 5388.199,12480.337C5384.67,12488.176 5377.048,12493.463 5377.048,12493.463C5382.749,12476.409 5372.094,12394.894 5372.094,12394.894L5433.977,12483.047Z" style="fill:rgb(136,58,52);"/>
                </g>
                <g transform="matrix(0.997242,0.074222,-0.074222,0.997242,934.101817,-364.292766)">
                    <path d="M5374.709,12405.219C5374.709,12405.219 5364.671,12405.475 5366.544,12414.723C5368.416,12423.97 5375.095,12437.327 5384.856,12442.464L5374.709,12405.219Z" style="fill:rgb(215,154,113);fill-opacity:1;"/>
                </g>
                <g transform="matrix(-0.997242,0.074222,0.074222,0.997242,9941.456065,-364.292766)">
                    <path d="M5374.709,12405.219C5374.709,12405.219 5364.671,12405.475 5366.544,12414.723C5368.416,12423.97 5375.095,12437.327 5384.856,12442.464L5374.709,12405.219Z" style="fill:rgb(215,154,113);fill-opacity:1;"/>
                </g>
                <g transform="matrix(1.500816,0,0,1.500816,-1830.08039,-5950.275886)">
                    <path d="M4842.601,12289.144C4834.742,12289.144 4832.468,12285.084 4824.024,12280.365C4815.495,12275.599 4799.709,12261.585 4799.458,12239.26C4799.215,12217.671 4793.905,12177.071 4842.656,12177.071C4891.406,12177.071 4885.987,12217.671 4885.744,12239.26C4885.493,12261.585 4869.707,12275.599 4861.178,12280.365C4852.734,12285.084 4850.46,12289.144 4842.601,12289.144Z" style="fill:rgb(207,156,122);fill-opacity:1;"/>
                </g>
                <g transform="matrix(1.500816,0,0,1.500816,-1822.833017,-5949.672426)">
                    <path d="M4837.827,12222.603L4861.736,12222.446C4861.736,12222.446 4881.161,12221.162 4877.629,12229.991C4874.098,12238.821 4876.024,12245.564 4861.094,12245.724C4846.163,12245.885 4845.04,12244.28 4843.274,12238.018C4841.816,12232.849 4838.825,12231.948 4837.827,12231.791C4836.829,12231.948 4833.838,12232.849 4832.38,12238.018C4830.614,12244.28 4829.49,12245.885 4814.56,12245.724C4799.63,12245.564 4801.556,12238.821 4798.024,12229.991C4794.492,12221.162 4813.918,12222.446 4813.918,12222.446L4837.827,12222.603Z" style="fill:rgb(61,65,66);fill-opacity:1;"/>
                </g>
                <g transform="matrix(3.336445,0,0,2.664568,-11330.781718,-20377.325266)">
                    <path d="M5025.878,12285.971C5025.401,12285.879 5020.881,12283.576 5019.636,12285.833C5018.321,12288.216 5016.431,12290.6 5016.431,12294.628C5016.431,12294.628 5014.376,12293.148 5014.211,12290.682C5014.211,12290.682 5013.061,12294.71 5013.882,12297.422C5013.882,12297.422 5011.417,12294.217 5011.006,12291.011C5011.006,12291.011 5009.52,12299.124 5006.438,12300.974C5006.438,12300.974 5002.842,12296.248 5005.513,12288.542C5008.152,12280.929 5016.17,12266.583 5025.899,12271.81C5035.627,12266.583 5043.645,12280.929 5046.284,12288.542C5048.956,12296.248 5045.36,12300.974 5045.36,12300.974C5042.277,12299.124 5040.792,12291.011 5040.792,12291.011C5040.381,12294.217 5037.915,12297.422 5037.915,12297.422C5038.737,12294.71 5037.586,12290.682 5037.586,12290.682C5037.422,12293.148 5035.367,12294.628 5035.367,12294.628C5035.367,12290.6 5033.477,12288.216 5032.161,12285.833C5030.916,12283.576 5026.397,12285.879 5025.919,12285.971L5025.919,12285.979C5025.919,12285.979 5025.912,12285.977 5025.899,12285.975C5025.885,12285.977 5025.879,12285.979 5025.879,12285.979L5025.878,12285.971Z" style="fill:rgb(155,52,44);"/>
                </g>
                <path d="M5388.199,12443.525C5388.199,12443.525 5377.952,12423.953 5377.473,12389.148L5372.598,12393.867C5372.598,12393.867 5367.736,12419.825 5388.199,12443.525Z" style="fill:rgb(155,52,44);"/>
                <g transform="matrix(-1,0,0,1,10875.053377,0)">
                    <path d="M5388.199,12443.525C5388.199,12443.525 5377.952,12423.953 5377.473,12389.148L5372.598,12393.867C5372.598,12393.867 5367.736,12419.825 5388.199,12443.525Z" style="fill:rgb(155,52,44);"/>
                </g>
            </g>
        </g>
    </g>
</svg>
