<?xml version="1.0" encoding="UTF-8" standalone="no"?>
<!DOCTYPE svg PUBLIC "-//W3C//DTD SVG 1.1//EN" "http://www.w3.org/Graphics/SVG/1.1/DTD/svg11.dtd">
<svg width="100%" height="100%" viewBox="0 0 203 203" version="1.1" xmlns="http://www.w3.org/2000/svg" xmlns:xlink="http://www.w3.org/1999/xlink" xml:space="preserve" xmlns:serif="http://www.serif.com/" style="fill-rule:evenodd;clip-rule:evenodd;stroke-linecap:round;stroke-linejoin:round;stroke-miterlimit:1.5;">
    <g transform="matrix(1,0,0,1,-8727.63,-13841.1)">
        <g transform="matrix(0.303709,0,0,0.303709,6031.96,13361.4)">
            <path d="M9236.65,1725.45L9271.57,1700.99C9271.57,1700.99 9326.01,1694.58 9365.58,1669.61C9405.15,1644.64 9466.61,1593.09 9466.61,1593.09C9466.61,1593.09 9485.81,1592.62 9507.06,1613.5L9507.55,1613.99C9528.43,1635.24 9527.96,1654.43 9527.96,1654.43C9527.96,1654.43 9476.41,1715.89 9451.44,1755.46C9426.47,1795.03 9420.06,1849.48 9420.06,1849.48L9395.6,1884.39L9395.6,1884.4L9388.76,1891.24C9389.3,1896.9 9389.58,1902.61 9389.58,1908.34L9371.66,1908.34L9367.45,1912.55L9371.25,1916.34L9389.58,1916.34C9389.58,1922.2 9389.29,1928.03 9388.72,1933.81L9395.6,1940.69L9395.6,1940.69L9420.06,1975.61C9420.06,1975.61 9426.47,2030.06 9451.44,2069.62C9476.41,2109.19 9527.96,2170.66 9527.96,2170.66C9527.96,2170.66 9528.43,2189.85 9507.55,2211.1L9507.06,2211.59C9485.81,2232.47 9466.61,2232 9466.61,2232C9466.61,2232 9405.15,2180.45 9365.58,2155.48C9326.01,2130.51 9271.57,2124.1 9271.57,2124.1L9236.65,2099.64L9236.65,2099.64L9229.67,2092.66C9223.96,2093.22 9218.2,2093.5 9212.42,2093.5L9212.42,2075.41L9208.75,2071.74L9204.42,2076.08L9204.42,2093.5C9198.84,2093.5 9193.29,2093.24 9187.78,2092.72L9180.85,2099.64L9180.85,2099.64L9145.94,2124.1C9145.94,2124.1 9091.49,2130.51 9051.92,2155.48C9012.35,2180.45 8950.89,2232 8950.89,2232C8950.89,2232 8931.7,2232.47 8910.45,2211.59L8909.96,2211.1C8889.08,2189.85 8889.55,2170.66 8889.55,2170.66C8889.55,2170.66 8941.1,2109.19 8966.07,2069.62C8991.04,2030.06 8997.44,1975.61 8997.44,1975.61L9021.91,1940.69L9021.91,1940.69L9028.18,1934.42C9027.56,1928.44 9027.25,1922.4 9027.25,1916.34L9046.26,1916.34L9050.06,1912.55L9045.85,1908.34L9027.25,1908.34C9027.25,1902.4 9027.55,1896.49 9028.14,1890.63L9021.91,1884.4L9021.91,1884.39L8997.44,1849.48C8997.44,1849.48 8991.04,1795.03 8966.07,1755.46C8941.1,1715.89 8889.55,1654.43 8889.55,1654.43C8889.55,1654.43 8889.08,1635.24 8909.96,1613.99L8910.45,1613.5C8931.7,1592.62 8950.89,1593.09 8950.89,1593.09C8950.89,1593.09 9012.35,1644.64 9051.92,1669.61C9091.49,1694.58 9145.94,1700.99 9145.94,1700.99L9180.85,1725.45L9180.85,1725.45L9187.4,1731.99C9193.04,1731.45 9198.71,1731.17 9204.42,1731.17L9204.42,1749.01L9208.75,1753.35L9212.42,1749.68L9212.42,1731.17C9218.33,1731.17 9224.22,1731.47 9230.05,1732.05L9236.65,1725.45L9236.65,1725.45Z" style="stroke:black;stroke-width:27.44px;"/>
            <g>
                <g transform="matrix(0.707107,-0.707107,1.11146,1.11146,645.264,5906.89)">
                    <rect x="8767.51" y="1958.75" width="224.788" height="105.36" style="fill:rgb(51,51,51);"/>
                </g>
                <g transform="matrix(0.487417,-0.487417,0.449495,0.449495,3809.24,5836.23)">
                    <path d="M9564.65,977.187C9607.87,977.596 9627.08,999.47 9627.08,999.47C9627.08,999.47 9637.25,1125.18 9652.23,1196.97C9667.2,1268.76 9716.48,1336.45 9716.48,1336.45L9727.21,1402.51C9670.89,1433.49 9457.39,1433.16 9401.1,1402.51L9411.83,1336.45C9411.83,1336.45 9461.11,1268.76 9476.08,1196.97C9491.06,1125.18 9501.23,999.47 9501.23,999.47C9501.23,999.47 9520.44,977.596 9563.65,977.187L9564.65,977.187Z" style="fill:rgb(216,216,216);"/>
                    <clipPath id="_clip1">
                        <path d="M9564.65,977.187C9607.87,977.596 9627.08,999.47 9627.08,999.47C9627.08,999.47 9637.25,1125.18 9652.23,1196.97C9667.2,1268.76 9716.48,1336.45 9716.48,1336.45L9727.21,1402.51C9670.89,1433.49 9457.39,1433.16 9401.1,1402.51L9411.83,1336.45C9411.83,1336.45 9461.11,1268.76 9476.08,1196.97C9491.06,1125.18 9501.23,999.47 9501.23,999.47C9501.23,999.47 9520.44,977.596 9563.65,977.187L9564.65,977.187Z"/>
                    </clipPath>
                    <g clip-path="url(#_clip1)">
                        <g transform="matrix(1,0,0,1,-9.23605,0)">
                            <path d="M9632.66,1425.62L9514.12,1425.62L9530.11,1277.5L9616.67,1277.5L9632.66,1425.62Z" style="fill:rgb(210,210,210);"/>
                        </g>
                    </g>
                </g>
                <g transform="matrix(-0.707107,-0.707107,1.11146,-1.11146,13203.4,10476.3)">
                    <rect x="8767.51" y="1958.75" width="224.788" height="105.36" style="fill:rgb(51,51,51);"/>
                </g>
                <g transform="matrix(-0.487417,-0.487417,0.449495,-0.449495,13132.7,7312.31)">
                    <path d="M9564.65,977.187C9607.87,977.596 9627.08,999.47 9627.08,999.47C9627.08,999.47 9637.25,1125.18 9652.23,1196.97C9667.2,1268.76 9716.48,1336.45 9716.48,1336.45L9727.21,1402.51C9670.89,1433.49 9457.39,1433.16 9401.1,1402.51L9411.83,1336.45C9411.83,1336.45 9461.11,1268.76 9476.08,1196.97C9491.06,1125.18 9501.23,999.47 9501.23,999.47C9501.23,999.47 9520.44,977.596 9563.65,977.187L9564.65,977.187Z" style="fill:rgb(216,216,216);"/>
                    <clipPath id="_clip2">
                        <path d="M9564.65,977.187C9607.87,977.596 9627.08,999.47 9627.08,999.47C9627.08,999.47 9637.25,1125.18 9652.23,1196.97C9667.2,1268.76 9716.48,1336.45 9716.48,1336.45L9727.21,1402.51C9670.89,1433.49 9457.39,1433.16 9401.1,1402.51L9411.83,1336.45C9411.83,1336.45 9461.11,1268.76 9476.08,1196.97C9491.06,1125.18 9501.23,999.47 9501.23,999.47C9501.23,999.47 9520.44,977.596 9563.65,977.187L9564.65,977.187Z"/>
                    </clipPath>
                    <g clip-path="url(#_clip2)">
                        <g transform="matrix(1,0,0,1,-9.23605,0)">
                            <path d="M9632.66,1425.62L9514.12,1425.62L9530.11,1277.5L9616.67,1277.5L9632.66,1425.62Z" style="fill:rgb(210,210,210);"/>
                        </g>
                    </g>
                </g>
                <g transform="matrix(-0.707107,-0.707107,-1.11146,1.11146,17772.2,5906.89)">
                    <rect x="8767.51" y="1958.75" width="224.788" height="105.36" style="fill:rgb(51,51,51);"/>
                </g>
                <g transform="matrix(-0.487417,-0.487417,-0.449495,0.449495,14608.3,5836.23)">
                    <path d="M9564.65,977.187C9607.87,977.596 9627.08,999.47 9627.08,999.47C9627.08,999.47 9637.25,1125.18 9652.23,1196.97C9667.2,1268.76 9716.48,1336.45 9716.48,1336.45L9727.21,1402.51C9670.89,1433.49 9457.39,1433.16 9401.1,1402.51L9411.83,1336.45C9411.83,1336.45 9461.11,1268.76 9476.08,1196.97C9491.06,1125.18 9501.23,999.47 9501.23,999.47C9501.23,999.47 9520.44,977.596 9563.65,977.187L9564.65,977.187Z" style="fill:rgb(216,216,216);"/>
                    <clipPath id="_clip3">
                        <path d="M9564.65,977.187C9607.87,977.596 9627.08,999.47 9627.08,999.47C9627.08,999.47 9637.25,1125.18 9652.23,1196.97C9667.2,1268.76 9716.48,1336.45 9716.48,1336.45L9727.21,1402.51C9670.89,1433.49 9457.39,1433.16 9401.1,1402.51L9411.83,1336.45C9411.83,1336.45 9461.11,1268.76 9476.08,1196.97C9491.06,1125.18 9501.23,999.47 9501.23,999.47C9501.23,999.47 9520.44,977.596 9563.65,977.187L9564.65,977.187Z"/>
                    </clipPath>
                    <g clip-path="url(#_clip3)">
                        <g transform="matrix(1,0,0,1,-9.23605,0)">
                            <path d="M9632.66,1425.62L9514.12,1425.62L9530.11,1277.5L9616.67,1277.5L9632.66,1425.62Z" style="fill:rgb(210,210,210);"/>
                        </g>
                    </g>
                </g>
                <g transform="matrix(0.707107,-0.707107,-1.11146,-1.11146,5214.15,10476.3)">
                    <rect x="8767.51" y="1958.75" width="224.788" height="105.36" style="fill:rgb(51,51,51);"/>
                </g>
                <g transform="matrix(0.487417,-0.487417,-0.449495,-0.449495,5284.82,7312.31)">
                    <path d="M9564.65,977.187C9607.87,977.596 9627.08,999.47 9627.08,999.47C9627.08,999.47 9637.25,1125.18 9652.23,1196.97C9667.2,1268.76 9716.48,1336.45 9716.48,1336.45L9727.21,1402.51C9670.89,1433.49 9457.39,1433.16 9401.1,1402.51L9411.83,1336.45C9411.83,1336.45 9461.11,1268.76 9476.08,1196.97C9491.06,1125.18 9501.23,999.47 9501.23,999.47C9501.23,999.47 9520.44,977.596 9563.65,977.187L9564.65,977.187Z" style="fill:rgb(216,216,216);"/>
                    <clipPath id="_clip4">
                        <path d="M9564.65,977.187C9607.87,977.596 9627.08,999.47 9627.08,999.47C9627.08,999.47 9637.25,1125.18 9652.23,1196.97C9667.2,1268.76 9716.48,1336.45 9716.48,1336.45L9727.21,1402.51C9670.89,1433.49 9457.39,1433.16 9401.1,1402.51L9411.83,1336.45C9411.83,1336.45 9461.11,1268.76 9476.08,1196.97C9491.06,1125.18 9501.23,999.47 9501.23,999.47C9501.23,999.47 9520.44,977.596 9563.65,977.187L9564.65,977.187Z"/>
                    </clipPath>
                    <g clip-path="url(#_clip4)">
                        <g transform="matrix(1,0,0,1,-9.23605,0)">
                            <path d="M9632.66,1425.62L9514.12,1425.62L9530.11,1277.5L9616.67,1277.5L9632.66,1425.62Z" style="fill:rgb(210,210,210);"/>
                        </g>
                    </g>
                </g>
                <g transform="matrix(5.33297,0,0,6.01668,-37595.6,-7777.71)">
                    <ellipse cx="8776.41" cy="1610.57" rx="23.179" ry="20.545" style="fill:rgb(124,124,124);"/>
                </g>
                <g transform="matrix(4.03065,0,0,4.5474,-26165.9,-5411.34)">
                    <ellipse cx="8776.41" cy="1610.57" rx="23.179" ry="20.545" style="fill:rgb(216,69,53);"/>
                </g>
                <g transform="matrix(0.664877,-0.664877,0.618441,0.618441,2698.06,6841.52)">
                    <path d="M8741.99,1421.59C8777.33,1383.6 8797.18,1332.08 8797.18,1278.36C8797.18,1224.63 8777.33,1173.11 8741.99,1135.12L8642.07,1242.55C8650.9,1252.05 8655.86,1264.93 8655.86,1278.36C8655.86,1291.79 8650.9,1304.67 8642.07,1314.16L8741.99,1421.59Z" style="fill:rgb(221,221,221);"/>
                </g>
                <g transform="matrix(-0.664877,-0.664877,0.618441,-0.618441,14137.6,8422.7)">
                    <path d="M8741.99,1421.59C8777.33,1383.6 8797.18,1332.08 8797.18,1278.36C8797.18,1224.63 8777.33,1173.11 8741.99,1135.12L8642.07,1242.55C8650.9,1252.05 8655.86,1264.93 8655.86,1278.36C8655.86,1291.79 8650.9,1304.67 8642.07,1314.16L8741.99,1421.59Z" style="fill:rgb(221,221,221);"/>
                </g>
                <g transform="matrix(-0.664877,0.664877,-0.618441,-0.618441,15718.8,-3016.84)">
                    <path d="M8741.99,1421.59C8777.33,1383.6 8797.18,1332.08 8797.18,1278.36C8797.18,1224.63 8777.33,1173.11 8741.99,1135.12L8642.07,1242.55C8650.9,1252.05 8655.86,1264.93 8655.86,1278.36C8655.86,1291.79 8650.9,1304.67 8642.07,1314.16L8741.99,1421.59Z" style="fill:rgb(221,221,221);"/>
                </g>
                <g transform="matrix(0.664877,0.664877,-0.618441,0.618441,4279.24,-4598.02)">
                    <path d="M8741.99,1421.59C8777.33,1383.6 8797.18,1332.08 8797.18,1278.36C8797.18,1224.63 8777.33,1173.11 8741.99,1135.12L8642.07,1242.55C8650.9,1252.05 8655.86,1264.93 8655.86,1278.36C8655.86,1291.79 8650.9,1304.67 8642.07,1314.16L8741.99,1421.59Z" style="fill:rgb(221,221,221);"/>
                </g>
            </g>
        </g>
    </g>
</svg>
