<?xml version="1.0" encoding="UTF-8" standalone="no"?>
<!DOCTYPE svg PUBLIC "-//W3C//DTD SVG 1.1//EN" "http://www.w3.org/Graphics/SVG/1.1/DTD/svg11.dtd">
<svg width="100%" height="100%" viewBox="0 0 307 222" version="1.1" xmlns="http://www.w3.org/2000/svg" xmlns:xlink="http://www.w3.org/1999/xlink" xml:space="preserve" xmlns:serif="http://www.serif.com/" style="fill-rule:evenodd;clip-rule:evenodd;stroke-linecap:round;stroke-linejoin:round;stroke-miterlimit:1.5;">
    <g transform="matrix(1,0,0,1,-644.027,-13341.3)">
        <g transform="matrix(0.95661,0,0,0.95661,-591.649,1880.24)">
            <path d="M1494.81,12026.4C1495.02,12023.1 1495.32,12020.1 1495.78,12018.2C1495.78,12018.2 1495.03,12016 1494.59,12013.2C1494.59,12013.2 1498.23,12012.8 1500.57,12014.2C1500.57,12014.2 1499.79,12007.3 1515.03,12019.9C1515.03,12019.9 1520.85,12005.5 1524.45,12000.3C1524.45,12000.3 1533.87,12010.2 1542.46,12028.1C1542.46,12028.1 1553.15,12018.6 1559.42,12006.9C1559.42,12006.9 1561.16,12010.1 1564.84,12017.7C1564.84,12017.7 1582.16,12000 1589.08,11985.3C1589.08,11985.3 1594.93,12008.5 1592.98,12037.7C1592.98,12037.7 1601.64,12050.9 1607.7,12057.6C1607.7,12057.6 1573.33,12086.1 1541.09,12107.3C1538.64,12111.8 1536.3,12115.5 1534.72,12117.1C1534.72,12117.1 1555.1,12105.7 1568.85,12101.5C1568.85,12101.5 1554.15,12123.4 1540.4,12132C1540.4,12132 1568.37,12127.6 1577.85,12127.8C1577.85,12127.8 1543.31,12140.1 1513.34,12151.9C1508.85,12165.6 1502.24,12177.9 1492.7,12186.1C1467.16,12208 1450.42,12207.9 1447.38,12207.7C1444.34,12207.9 1427.6,12208 1402.05,12186.1C1392.51,12177.9 1385.9,12165.6 1381.41,12151.9C1351.44,12140.1 1316.9,12127.8 1316.9,12127.8C1326.38,12127.6 1354.35,12132 1354.35,12132C1340.6,12123.4 1325.91,12101.5 1325.91,12101.5C1339.65,12105.7 1360.04,12117.1 1360.04,12117.1C1357.34,12114.4 1352.49,12105.4 1348.6,12097.7C1321.18,12078.4 1296.08,12057.6 1296.08,12057.6C1302.14,12050.9 1310.8,12037.7 1310.8,12037.7C1308.85,12008.5 1314.7,11985.3 1314.7,11985.3C1321.62,12000 1338.94,12017.7 1338.94,12017.7C1342.62,12010.1 1344.36,12006.9 1344.36,12006.9C1350.63,12018.6 1361.32,12028.1 1361.32,12028.1C1369.91,12010.2 1379.33,12000.3 1379.33,12000.3C1382.93,12005.5 1388.75,12019.9 1388.75,12019.9C1403.99,12007.3 1403.21,12014.2 1403.21,12014.2C1405.55,12012.8 1409.19,12013.2 1409.19,12013.2C1408.76,12016 1408.01,12018.2 1408.01,12018.2C1408.16,12018.9 1408.29,12019.6 1408.41,12020.5C1418.5,12014.5 1431.23,12010.5 1447.17,12010L1447.58,12010C1468.36,12010.6 1483.68,12017.2 1494.81,12026.4Z" style="stroke:black;stroke-width:8.71px;"/>
            <g>
                <g transform="matrix(0.761154,0,0,0.761154,360.446,2906.07)">
                    <path d="M1405.83,12029.9C1405.83,12029.9 1388.05,12015.2 1378.05,12009.6C1378.05,12009.6 1378.5,11980.8 1376.28,11971.5C1376.28,11971.5 1377.26,11968.6 1377.83,11964.8C1377.83,11964.8 1373.05,11964.4 1369.98,11966.2C1369.98,11966.2 1371.01,11957.1 1350.98,11973.7C1350.98,11973.7 1343.34,11954.7 1338.61,11948C1338.61,11948 1326.23,11960.9 1314.94,11984.4C1314.94,11984.4 1300.9,11972 1292.65,11956.6C1292.65,11956.6 1290.38,11960.9 1285.54,11970.8C1285.54,11970.8 1262.79,11947.6 1253.69,11928.2C1253.69,11928.2 1246.01,11958.7 1248.57,11997.1C1248.57,11997.1 1237.19,12014.4 1229.23,12023.2C1229.23,12023.2 1318.54,12097.2 1363.76,12114.8L1405.83,12029.9Z" style="fill:rgb(168,181,184);"/>
                </g>
                <g transform="matrix(-0.761154,0,0,0.761154,2543.33,2906.07)">
                    <path d="M1405.83,12029.9C1405.83,12029.9 1388.05,12015.2 1378.05,12009.6C1378.05,12009.6 1378.5,11980.8 1376.28,11971.5C1376.28,11971.5 1377.26,11968.6 1377.83,11964.8C1377.83,11964.8 1373.05,11964.4 1369.98,11966.2C1369.98,11966.2 1371.01,11957.1 1350.98,11973.7C1350.98,11973.7 1343.34,11954.7 1338.61,11948C1338.61,11948 1326.23,11960.9 1314.94,11984.4C1314.94,11984.4 1300.9,11972 1292.65,11956.6C1292.65,11956.6 1290.38,11960.9 1285.54,11970.8C1285.54,11970.8 1262.79,11947.6 1253.69,11928.2C1253.69,11928.2 1246.01,11958.7 1248.57,11997.1C1248.57,11997.1 1237.19,12014.4 1229.23,12023.2C1229.23,12023.2 1318.54,12097.2 1363.76,12114.8L1405.83,12029.9Z" style="fill:rgb(168,181,184);"/>
                </g>
                <g transform="matrix(1.25976,0,0,1.25976,-401.969,-3135.56)">
                    <path d="M1518.1,12100.9C1518.1,12100.9 1527.27,12071.5 1538.38,12085.7C1549.49,12099.8 1516.16,12125.7 1516.16,12125.7L1518.1,12100.9Z" style="fill:rgb(235,184,138);"/>
                </g>
                <g transform="matrix(-1.25976,0,0,1.25976,3296.72,-3135.56)">
                    <path d="M1518.1,12100.9C1518.1,12100.9 1527.27,12071.5 1538.38,12085.7C1549.49,12099.8 1516.16,12125.7 1516.16,12125.7L1518.1,12100.9Z" style="fill:rgb(235,184,138);"/>
                </g>
                <g transform="matrix(1,0,0,0.982744,0.847149,209.672)">
                    <path d="M1446.33,12007.6L1446.73,12007.6C1501.52,12009.2 1518.34,12053.1 1520.51,12076.5C1522.68,12099.8 1520.19,12162 1491.86,12186.7C1466.31,12209 1449.57,12208.9 1446.53,12208.7C1443.49,12208.9 1426.75,12209 1401.2,12186.7C1372.87,12162 1370.38,12099.8 1372.55,12076.5C1374.72,12053.1 1391.54,12009.2 1446.33,12007.6Z" style="fill:rgb(239,187,140);"/>
                </g>
                <g transform="matrix(1,0,0,1,-2.30811,-1.38876)">
                    <path d="M1445.17,12132.7C1445.17,12132.7 1429.12,12119.7 1421.4,12114.4C1421.4,12114.4 1393.9,12054.5 1388.67,12027.2C1388.67,12027.2 1383.89,12052.2 1390.03,12064.8C1390.03,12064.8 1375.24,12042.7 1367.05,12034.7C1367.05,12034.7 1371.38,12055.2 1374.79,12068.9C1374.79,12068.9 1362.05,12055.9 1344.75,12050C1344.75,12050 1404.77,12111.8 1414.72,12126.7C1414.72,12126.7 1433.31,12128.7 1445.17,12132.7Z" style="fill:rgb(163,173,175);"/>
                </g>
                <g transform="matrix(-1,0,0,1,2897.06,-1.38876)">
                    <path d="M1445.17,12132.7C1445.17,12132.7 1429.12,12119.7 1421.4,12114.4C1421.4,12114.4 1393.9,12054.5 1388.67,12027.2C1388.67,12027.2 1383.89,12052.2 1390.03,12064.8C1390.03,12064.8 1375.24,12042.7 1367.05,12034.7C1367.05,12034.7 1371.38,12055.2 1374.79,12068.9C1374.79,12068.9 1362.05,12055.9 1344.75,12050C1344.75,12050 1404.77,12111.8 1414.72,12126.7C1414.72,12126.7 1433.31,12128.7 1445.17,12132.7Z" style="fill:rgb(163,173,175);"/>
                </g>
                <g transform="matrix(1,0,0,1,0.263505,0.711045)">
                    <path d="M1447.11,12158.6L1471.23,12157.2C1471.23,12157.2 1520.28,12116.6 1551.78,12084.9C1551.78,12084.9 1539.43,12111.4 1534.45,12116.4C1534.45,12116.4 1554.84,12105 1568.58,12100.8C1568.58,12100.8 1553.89,12122.7 1540.14,12131.3C1540.14,12131.3 1568.11,12126.8 1577.59,12127.1C1577.59,12127.1 1493.21,12157.2 1473.78,12168.3C1473.78,12168.3 1458.72,12166.6 1448.86,12167.1L1445.37,12167.1C1435.5,12166.6 1420.45,12168.3 1420.45,12168.3C1401.01,12157.2 1316.63,12127.1 1316.63,12127.1C1326.12,12126.8 1354.08,12131.3 1354.08,12131.3C1340.34,12122.7 1325.64,12100.8 1325.64,12100.8C1339.39,12105 1359.77,12116.4 1359.77,12116.4C1354.8,12111.4 1342.45,12084.9 1342.45,12084.9C1373.94,12116.6 1423,12157.2 1423,12157.2L1447.11,12158.6Z" style="fill:rgb(163,173,175);"/>
                </g>
            </g>
        </g>
    </g>
</svg>
