<?xml version="1.0" encoding="UTF-8" standalone="no"?>
<!DOCTYPE svg PUBLIC "-//W3C//DTD SVG 1.1//EN" "http://www.w3.org/Graphics/SVG/1.1/DTD/svg11.dtd">
<svg width="100%" height="100%" viewBox="0 0 189 202" version="1.1" xmlns="http://www.w3.org/2000/svg" xmlns:xlink="http://www.w3.org/1999/xlink" xml:space="preserve" xmlns:serif="http://www.serif.com/" style="fill-rule:evenodd;clip-rule:evenodd;stroke-linecap:round;stroke-linejoin:round;stroke-miterlimit:1.5;">
    <g transform="matrix(1,0,0,1,-702.894336,-13159.99143)">
        <g transform="matrix(0.225192,0,0,0.225192,-209.912381,10996.401371)">
            <g transform="matrix(0.849589,0,0,1.065706,634.929108,-778.512429)">
                <path d="M4070.686,10132.969C4070.562,10129.172 4070.5,10125.371 4070.5,10121.565C4070.5,10085.895 4075.845,10052.826 4085.863,10022.46C4085.332,10022.28 4084.802,10022.1 4084.272,10021.919C4085.278,10005.565 4081.457,9986.844 4116.064,9957.397C4116.064,9957.397 4116.273,9957.493 4116.691,9957.673C4174.949,9866.711 4283.456,9809.351 4414.042,9789.9C4413.601,9788.681 4413.35,9788.034 4413.35,9788.034C4481.649,9755.537 4550.636,9754.497 4620.441,9788.034C4620.441,9788.034 4620.19,9788.681 4619.749,9789.9C4750.335,9809.351 4858.842,9866.711 4917.1,9957.673C4917.517,9957.493 4917.727,9957.397 4917.727,9957.397C4949.651,9993.348 4950.809,10002.522 4949.401,10021.919C4948.907,10022.088 4948.412,10022.257 4947.916,10022.425C4957.942,10052.799 4963.291,10085.881 4963.291,10121.565C4963.291,10125.371 4963.229,10129.172 4963.105,10132.969C4964.948,10132.52 4965.923,10132.33 4965.923,10132.33C4965.923,10132.33 5034.351,10253.445 4931.709,10383.716C4931.709,10383.716 4882.553,10378.233 4630.342,10541.666L4617.129,10555.939C4545.99,10570.485 4479.379,10569.775 4416.662,10555.939L4403.448,10541.666C4151.237,10378.233 4102.082,10383.716 4102.082,10383.716C3999.44,10253.445 4067.868,10132.33 4067.868,10132.33C4067.868,10132.33 4068.843,10132.52 4070.686,10132.969Z" style="stroke:black;stroke-width:38.4px;"/>
            </g>
            <g>
                <g transform="matrix(0.849589,0,0,1.065706,634.929108,-778.512429)">
                    <path d="M4903.485,10319.254L4516.895,10425.211L4130.306,10319.254C4091.126,10259.149 4070.5,10190.969 4070.5,10121.565C4070.5,9903.35 4270.523,9782.487 4516.895,9782.487C4763.268,9782.487 4963.291,9903.35 4963.291,10121.565C4963.291,10190.969 4942.665,10259.149 4903.485,10319.254Z" style="fill:rgb(241,241,241);"/>
                    <clipPath id="_clip1">
                        <path d="M4903.485,10319.254L4516.895,10425.211L4130.306,10319.254C4091.126,10259.149 4070.5,10190.969 4070.5,10121.565C4070.5,9903.35 4270.523,9782.487 4516.895,9782.487C4763.268,9782.487 4963.291,9903.35 4963.291,10121.565C4963.291,10190.969 4942.665,10259.149 4903.485,10319.254Z"/>
                    </clipPath>
                    <g clip-path="url(#_clip1)">
                        <g transform="matrix(1.059423,0,0,0.938345,-268.409258,730.513344)">
                            <path d="M4174.775,9891.167L4058.226,9873.074L4055.728,10025.354L4112.338,10063.716L4187.455,10085.361L4221.395,10025.354L4221.395,9891.167L4174.775,9891.167Z" style="fill:rgb(41,41,41);"/>
                        </g>
                        <g transform="matrix(-1.059423,0,0,0.938345,9298.29691,730.513344)">
                            <path d="M4174.775,9891.167L4058.226,9873.074L4055.728,10025.354L4112.338,10063.716L4187.455,10085.361L4221.395,10025.354L4221.395,9891.167L4174.775,9891.167Z" style="fill:rgb(41,41,41);"/>
                        </g>
                        <g transform="matrix(1.270431,-0.101855,0.114997,1.125237,651.318627,-1369.375431)">
                            <path d="M2090.934,10501.6C2079.728,10501.07 2034.228,10501.679 1991.815,10535.279C1991.815,10535.279 1962.198,10501.266 1823.599,10433.312C1823.599,10433.312 1830.327,10357.284 1841.765,10290.003C2017.593,10294.416 2194.963,10310.056 2374.049,10338.184C2373.22,10406.426 2366.187,10482.426 2366.187,10482.426C2217.638,10524.388 2182.395,10552.53 2182.395,10552.53C2146.704,10511.86 2102.053,10503.091 2090.934,10501.6Z" style="fill:rgb(155,106,237);"/>
                        </g>
                    </g>
                </g>
                <g transform="matrix(-0.900075,0.156803,-0,1.285053,6358.901643,-3666.755083)">
                    <path d="M1704.353,10650.91C1704.353,10650.91 1753.386,10640.122 2009.272,10756.414C2010.726,10757.075 2048.161,10626.016 2048.161,10626.016C2048.161,10626.016 1883.995,10550.661 1812.003,10500.2C1740.012,10449.739 1672.058,10446.375 1672.058,10446.375C1672.058,10446.375 1607.468,10554.698 1704.353,10650.91Z" style="fill:rgb(234,234,234);"/>
                </g>
                <g transform="matrix(0.900075,0.156803,0,1.285053,2585.969427,-3666.755083)">
                    <path d="M1704.353,10650.91C1704.353,10650.91 1753.386,10640.122 2009.272,10756.414C2010.726,10757.075 2048.161,10626.016 2048.161,10626.016C2048.161,10626.016 1883.995,10550.661 1812.003,10500.2C1740.012,10449.739 1672.058,10446.375 1672.058,10446.375C1672.058,10446.375 1607.468,10554.698 1704.353,10650.91Z" style="fill:rgb(234,234,234);"/>
                </g>
                <g transform="matrix(1.020897,0,-0,-0.719312,2154.470345,17584.303608)">
                    <path d="M2103.69,10049.421L2187.104,9889.019C2239.296,9868.519 2294.73,9867.467 2353.932,9889.019L2437.346,10049.421L2353.932,10270.798C2302.697,10299.235 2247.099,10299.305 2187.104,10270.798L2103.69,10049.421Z" style="fill:rgb(227,227,227);"/>
                </g>
                <g transform="matrix(0.67736,0,-0,-0.47726,2934.477282,15157.252719)">
                    <path d="M2103.69,10049.421L2187.104,9889.019C2239.296,9868.519 2294.73,9867.467 2353.932,9889.019L2437.346,10049.421L2353.932,10270.798C2302.697,10299.235 2247.099,10299.305 2187.104,10270.798L2103.69,10049.421Z"/>
                </g>
                <g transform="matrix(0.900075,0,0,1,406.89145,0)">
                    <path d="M4516.895,9959.22C4516.895,9959.22 4271.038,9964.689 4108.538,9901.906C4109.487,9884.478 4105.881,9864.527 4138.547,9833.145C4138.547,9833.145 4212.136,9871.172 4348.717,9858.164C4485.299,9845.157 4419.158,9652.654 4419.158,9652.654C4483.626,9618.021 4548.744,9616.913 4614.633,9652.654C4614.633,9652.654 4548.492,9845.157 4685.074,9858.164C4821.655,9871.172 4895.244,9833.145 4895.244,9833.145C4925.377,9871.458 4926.471,9881.235 4925.142,9901.906C4762.642,9964.689 4516.895,9959.22 4516.895,9959.22Z" style="fill:rgb(234,234,234);"/>
                    <clipPath id="_clip2">
                        <path d="M4516.895,9959.22C4516.895,9959.22 4271.038,9964.689 4108.538,9901.906C4109.487,9884.478 4105.881,9864.527 4138.547,9833.145C4138.547,9833.145 4212.136,9871.172 4348.717,9858.164C4485.299,9845.157 4419.158,9652.654 4419.158,9652.654C4483.626,9618.021 4548.744,9616.913 4614.633,9652.654C4614.633,9652.654 4548.492,9845.157 4685.074,9858.164C4821.655,9871.172 4895.244,9833.145 4895.244,9833.145C4925.377,9871.458 4926.471,9881.235 4925.142,9901.906C4762.642,9964.689 4516.895,9959.22 4516.895,9959.22Z"/>
                    </clipPath>
                    <g clip-path="url(#_clip2)">
                        <g transform="matrix(1.416803,0,0,1,-1862.087417,66.013107)">
                            <rect x="4453.229" y="9437.236" width="96.257" height="522.105" style="fill:rgb(41,41,41);"/>
                        </g>
                        <g transform="matrix(1.153884,0,0,1,-678.594807,66.013107)">
                            <rect x="4453.229" y="9437.236" width="96.257" height="522.105" style="fill:rgb(241,241,241);"/>
                        </g>
                        <g transform="matrix(0.857304,0,0,1,656.41921,66.013107)">
                            <rect x="4453.229" y="9437.236" width="96.257" height="522.105" style="fill:rgb(167,36,36);"/>
                        </g>
                    </g>
                </g>
            </g>
        </g>
    </g>
</svg>
