<?xml version="1.0" encoding="UTF-8" standalone="no"?>
<!DOCTYPE svg PUBLIC "-//W3C//DTD SVG 1.1//EN" "http://www.w3.org/Graphics/SVG/1.1/DTD/svg11.dtd">
<svg width="100%" height="100%" viewBox="0 0 203 199" version="1.1" xmlns="http://www.w3.org/2000/svg" xmlns:xlink="http://www.w3.org/1999/xlink" xml:space="preserve" xmlns:serif="http://www.serif.com/" style="fill-rule:evenodd;clip-rule:evenodd;stroke-linecap:round;stroke-linejoin:round;stroke-miterlimit:1.5;">
    <g transform="matrix(1,0,0,1,-2908.3,-13361.9)">
        <g transform="matrix(1,0,0,1,-806.1,774.68)">
            <path d="M3744.58,12640.8C3748.84,12622.3 3763.7,12589.8 3815.48,12591.5L3815.9,12591.4C3867.34,12590 3882.13,12622.3 3886.38,12640.8C3895.97,12631.5 3905.02,12621.3 3912.4,12610.6L3909.43,12646.9C3909.43,12646.9 3905.5,12651.1 3900,12656.4C3905.82,12682.1 3884.1,12697.9 3878.07,12701.7L3877.89,12720.3L3863,12737.9L3863.38,12764.8L3855.43,12765.8C3854.5,12769 3853.3,12771.6 3851.41,12773.5C3837.76,12787.3 3817.56,12780.1 3816.53,12779.9C3815.54,12780 3796.12,12786.6 3783.35,12774.5C3781.17,12772.5 3779.78,12769.6 3778.67,12766L3778.67,12766.2L3767.58,12764.8L3767.97,12737.9L3753.07,12720.3L3752.89,12701.7C3746.86,12697.9 3725.14,12682.1 3730.96,12656.4C3725.46,12651.1 3721.53,12646.9 3721.53,12646.9L3718.56,12610.6C3725.94,12621.3 3735,12631.5 3744.58,12640.8Z" style="stroke:black;stroke-width:8.33px;"/>
            <g transform="matrix(5.15324,0,0,5.15324,-13672.2,-54391.4)">
                <g transform="matrix(0.953641,0,0,0.953641,54.307,606.142)">
                    <path d="M3489.13,13017.1C3489.13,13017.1 3482.62,13013.5 3484.5,13007.2L3486.78,13007C3486.78,13007 3486.87,12994 3501.56,12994.5L3501.64,12994.5C3516.24,12994.1 3516.33,13007 3516.33,13007L3518.61,13007.2C3520.49,13013.5 3513.98,13017.1 3513.98,13017.1L3501.56,13019.6L3489.13,13017.1Z" style="fill:rgb(230,230,230);"/>
                </g>
                <g transform="matrix(1,0,0,1,-108.022,1.79184)">
                    <path d="M3501.56,13019.6L3510.65,13011.2L3512.79,13018.4L3511.06,13023.7C3509.44,13027 3509.89,13030.4 3508.53,13031.7C3505.88,13034.4 3501.96,13033 3501.76,13033C3501.57,13033 3497.8,13034.3 3495.32,13031.9C3493.88,13030.6 3494.21,13027.3 3492.45,13023.7L3490.73,13018.4L3492.87,13011.2L3501.56,13019.6Z" style="fill:rgb(242,190,144);"/>
                </g>
                <g transform="matrix(0.824387,0,0,1,506.486,2.55577)">
                    <path d="M3493.39,13029.6L3493.39,13016.1L3487.28,13013.1L3487.36,13020.7L3490.87,13024.1L3490.78,13029.3L3493.39,13029.6Z" style="fill:rgb(29,29,29);"/>
                </g>
                <g transform="matrix(-0.824387,0,0,1,6280.58,2.55577)">
                    <path d="M3493.39,13029.6L3493.39,13016.1L3487.28,13013.1L3487.36,13020.7L3490.87,13024.1L3490.78,13029.3L3493.39,13029.6Z" style="fill:rgb(29,29,29);"/>
                </g>
                <g transform="matrix(1,0,0,1,-108.022,1.79184)">
                    <path d="M3501.56,13016.3C3503.12,13015.4 3514.48,13008.7 3520.36,13000.1L3519.79,13007.2C3519.79,13007.2 3516.4,13010.8 3513.91,13012.5L3513.75,13015.8L3501.59,13023.7L3501.52,13023.7L3489.36,13015.8L3489.2,13012.5C3486.71,13010.8 3483.32,13007.2 3483.32,13007.2L3482.75,13000.1C3488.63,13008.7 3499.99,13015.4 3501.56,13016.3Z" style="fill:rgb(135,135,135);"/>
                </g>
            </g>
        </g>
    </g>
</svg>
