<?xml version="1.0" encoding="UTF-8" standalone="no"?>
<!DOCTYPE svg PUBLIC "-//W3C//DTD SVG 1.1//EN" "http://www.w3.org/Graphics/SVG/1.1/DTD/svg11.dtd">
<svg width="100%" height="100%" viewBox="0 0 197 332" version="1.1" xmlns="http://www.w3.org/2000/svg" xmlns:xlink="http://www.w3.org/1999/xlink" xml:space="preserve" xmlns:serif="http://www.serif.com/" style="fill-rule:evenodd;clip-rule:evenodd;stroke-linecap:round;stroke-linejoin:round;stroke-miterlimit:1.5;">
    <g transform="matrix(1,0,0,1,-4108.49,-13136.1)">
        <g transform="matrix(0.972436,0,0,0.972436,462.1,2112.11)">
            <path d="M3850.3,11371.6C3809.2,11341.4 3754.03,11354.2 3754.03,11354.2C3812.64,11327.7 3845.72,11344.5 3864.23,11368.6C3878.29,11367.6 3890.34,11373.8 3899.38,11386.6C3899.38,11386.6 3917.62,11387.8 3924.2,11399.2C3930.77,11410.5 3961.5,11466.1 3940.21,11558.4C3940.29,11558.5 3940.37,11558.6 3940.44,11558.7L3940.17,11573.1C3941.78,11576.9 3940.91,11580 3940.28,11581.5C3940.34,11581.6 3940.39,11581.7 3940.44,11581.8L3938.21,11594.6C3938.21,11594.6 3938.12,11594.4 3937.94,11594.1L3938.06,11594.6C3929.66,11609.3 3924.54,11665.7 3924.54,11665.7C3920.11,11656.4 3921.49,11644.1 3921.49,11644.1C3918.77,11654.6 3919.9,11672.8 3919.9,11672.8C3914,11657 3918.09,11625.6 3918.09,11625.6C3913.55,11636.1 3913.06,11659.4 3913.06,11659.4C3906.22,11616.6 3924.54,11591 3924.54,11591L3924.54,11578.8C3922.96,11575.6 3924.66,11572.3 3925.37,11571.1L3924.54,11559.9C3924.54,11559.9 3924.8,11559.5 3925.27,11558.8C3925.98,11556.8 3927.36,11552.6 3928.5,11547.5C3924.96,11545.4 3920.1,11543.3 3913.7,11541.9C3911.38,11546 3909.04,11549.9 3906.96,11552.7C3906.96,11552.7 3907.66,11548.1 3908.61,11541.1C3908.16,11541 3907.72,11541 3907.26,11540.9C3904.52,11544.3 3902.09,11547.2 3900.41,11549.8C3893.45,11560.6 3873.35,11564.4 3873.35,11564.4L3873.29,11564.4C3872.27,11564.2 3857.94,11561.3 3849.69,11553.8L3849.77,11554.2C3849.77,11554.2 3849.63,11553.9 3849.37,11553.5C3848.18,11552.4 3847.13,11551.1 3846.28,11549.8C3843.4,11545.4 3838.3,11540 3833.23,11532.9C3837.39,11549.6 3845.69,11571.6 3862.06,11588.1C3862.06,11588.1 3842.92,11574.3 3834.12,11555.6C3834.12,11555.6 3825.12,11548.9 3817.28,11538.2C3817.28,11538.2 3819.38,11556.3 3826.08,11561.1C3826.08,11561.1 3805.6,11548.7 3796.42,11519.4C3796.42,11519.4 3796.8,11552.1 3799.1,11559.2C3799.1,11559.2 3778.87,11515.2 3787.54,11457.2C3787.54,11457.2 3760.93,11502.3 3754.65,11528.7C3754.65,11528.7 3764.52,11450.9 3803.99,11406.6C3820.37,11388.3 3836.07,11376.7 3850.3,11371.6Z" style="stroke:black;stroke-width:8.57px;"/>
            <g>
                <path d="M3936.29,11553.8C3936.29,11553.8 3926.67,11540.9 3900.51,11540.5L3907.61,11504.3L3940.44,11505L3936.29,11553.8Z" style="fill:rgb(61,49,35);"/>
                <g transform="matrix(1.07755,0,0,1,-298.773,-1.49514)">
                    <path d="M3871.8,11565.9C3870.7,11565.7 3852.99,11561.7 3846.73,11551.3C3840.28,11540.5 3821.86,11524.3 3820.66,11492.9C3820.66,11492.9 3813.48,11487.9 3827.6,11457.8C3841.71,11427.6 3871.37,11409.7 3871.37,11409.7L3872.33,11409.7C3872.33,11409.7 3901.99,11427.6 3916.11,11457.8C3930.22,11487.9 3923.05,11492.9 3923.05,11492.9C3921.85,11524.3 3903.43,11540.5 3896.97,11551.3C3890.51,11562.1 3871.85,11565.9 3871.85,11565.9L3871.8,11565.9Z" style="fill:rgb(236,214,169);"/>
                </g>
                <g transform="matrix(1,0,0,1,254.976,-4.6849)">
                    <path d="M3626.97,11491C3626.97,11491 3629.57,11483 3636,11480.4C3642.43,11477.8 3665.09,11474.3 3665.09,11474.3C3665.09,11474.3 3640.29,11491.3 3626.97,11491Z" style="fill:rgb(61,49,35);"/>
                </g>
                <g transform="matrix(-1,0,0,1,7491.72,-4.6849)">
                    <path d="M3626.97,11491C3626.97,11491 3629.57,11483 3636,11480.4C3642.43,11477.8 3665.09,11474.3 3665.09,11474.3C3665.09,11474.3 3640.29,11491.3 3626.97,11491Z" style="fill:rgb(61,49,35);"/>
                </g>
                <path d="M3884.68,11435.6C3884.68,11435.6 3882.08,11433.8 3879.02,11430.8C3879.02,11430.8 3867.48,11442.5 3863.65,11456.4C3859.82,11470.3 3856.95,11513.8 3858.15,11524.3C3858.15,11524.3 3851.69,11489.2 3860.06,11443.7C3860.06,11443.7 3831.83,11466.2 3849.77,11554.2C3849.77,11554.2 3832.36,11524.3 3829.14,11508.4C3829.14,11508.4 3831.82,11557.7 3862.06,11588.1C3862.06,11588.1 3842.92,11574.3 3834.12,11555.6C3834.12,11555.6 3825.12,11548.9 3817.28,11538.2C3817.28,11538.2 3819.38,11556.3 3826.08,11561.1C3826.08,11561.1 3805.6,11548.7 3796.42,11519.4C3796.42,11519.4 3796.8,11552.1 3799.1,11559.2C3799.1,11559.2 3778.87,11515.2 3787.54,11457.2C3787.54,11457.2 3760.93,11502.3 3754.65,11528.7C3754.65,11528.7 3764.52,11450.9 3803.99,11406.6C3843.46,11362.4 3879.05,11357.9 3899.38,11386.6C3899.38,11386.6 3917.62,11387.8 3924.2,11399.2C3930.78,11410.5 3961.6,11466.3 3940.11,11558.8L3933.51,11565.1L3924.8,11560.1C3924.8,11560.1 3936.38,11529.9 3925.92,11518.3C3925.92,11518.3 3914.61,11542.2 3906.96,11552.7C3906.96,11552.7 3912.78,11514.5 3913.39,11491.6C3913.39,11491.6 3904.66,11513.8 3893.18,11523.2C3893.18,11523.2 3911.59,11484.6 3902.6,11446.7C3902.6,11446.7 3888.62,11482.6 3879.82,11492.7C3879.82,11492.7 3893.98,11455 3891.3,11434C3891.3,11434 3888.01,11435.3 3884.68,11435.6Z" style="fill:rgb(76,60,43);"/>
                <path d="M3886.99,11426.9C3886.99,11426.9 3873.88,11300 3754.03,11354.2C3754.03,11354.2 3858.47,11330 3886.99,11426.9Z" style="fill:rgb(61,49,35);"/>
                <g transform="matrix(0.759118,0,0,1,931.827,-4.59737)">
                    <path d="M3943.81,11575.3C3943.81,11575.3 3939.79,11579.5 3942.36,11583.4L3962.49,11587C3962.49,11587 3966.13,11582.6 3962.62,11577.2L3953.96,11571.7L3943.81,11575.3Z" style="fill:rgb(76,60,43);"/>
                </g>
                <g transform="matrix(0.759118,0,0,1,931.827,-4.59737)">
                    <path d="M3942.36,11595.6C3942.36,11595.6 3918.22,11621.2 3927.23,11664C3927.23,11664 3927.88,11640.6 3933.86,11630.2C3933.86,11630.2 3928.47,11661.6 3936.25,11677.4C3936.25,11677.4 3934.75,11659.2 3938.34,11648.7C3938.34,11648.7 3936.51,11661 3942.36,11670.3C3942.36,11670.3 3949.11,11613.9 3960.17,11599.2L3957.39,11591L3949.55,11588.9L3942.36,11595.6Z" style="fill:rgb(76,60,43);"/>
                </g>
                <g transform="matrix(0.759118,0,0,1,931.827,-4.59737)">
                    <path d="M3942.36,11564.5C3942.36,11564.5 3952.16,11551.7 3963.31,11563.3L3962.94,11577.9C3962.94,11577.9 3954.85,11569.8 3943.46,11575.9L3942.36,11564.5Z" style="fill:rgb(152,122,25);"/>
                </g>
                <g transform="matrix(0.759118,0,0,1,931.827,-4.59737)">
                    <path d="M3942.36,11582.6C3942.36,11582.6 3954.98,11571.4 3963.31,11586.4L3960.37,11599.2C3960.37,11599.2 3952.77,11588 3942.36,11595.6L3942.36,11582.6Z" style="fill:rgb(152,122,25);"/>
                </g>
            </g>
        </g>
    </g>
</svg>
