<?xml version="1.0" encoding="UTF-8" standalone="no"?>
<!DOCTYPE svg PUBLIC "-//W3C//DTD SVG 1.1//EN" "http://www.w3.org/Graphics/SVG/1.1/DTD/svg11.dtd">
<svg width="100%" height="100%" viewBox="0 0 233 200" version="1.1" xmlns="http://www.w3.org/2000/svg" xmlns:xlink="http://www.w3.org/1999/xlink" xml:space="preserve" xmlns:serif="http://www.serif.com/" style="fill-rule:evenodd;clip-rule:evenodd;stroke-linecap:round;stroke-linejoin:round;stroke-miterlimit:1.5;">
    <g transform="matrix(1,0,0,1,-3652.201948,-10139.334851)">
        <g transform="matrix(0.95291,0,0,0.95291,1073.145579,-1225.74947)">
            <g transform="matrix(0.790069,-0.065566,0.065566,0.790069,-800.200601,2659.361568)">
                <path d="M3538.836,12206.979C3539.952,12226.312 3542.31,12241.622 3542.31,12241.622C3533.593,12231.057 3518.503,12202.069 3518.503,12202.069C3518.503,12202.069 3502.087,12240.073 3491.211,12248.714C3480.336,12257.355 3444.376,12274.757 3444.376,12274.757C3455.88,12262.351 3466.606,12243.475 3466.606,12243.475C3456.831,12247.062 3447.698,12245.693 3447.698,12245.693C3441.924,12251.199 3431.523,12258.154 3431.523,12258.154C3435.673,12254.101 3436.64,12249.417 3436.64,12249.417C3432.811,12249.588 3427.623,12247.555 3427.623,12247.555C3460.688,12231.659 3483.362,12157.344 3483.362,12157.344C3471.184,12164.683 3446.922,12168.448 3446.922,12168.448C3491.609,12140.004 3495.388,12099.777 3512.243,12066.693C3513.246,12064.724 3514.415,12062.925 3515.728,12061.28L3517.448,12040.557L3540.238,12029.121L3582.428,12045.95L3582.806,12046.472C3589.028,12047.323 3592.998,12048.232 3592.998,12048.232C3592.998,12048.232 3597.348,12047.98 3604.006,12048.203L3604.439,12047.776L3604.493,12047.835L3604.497,12047.781L3648.884,12038.137L3669.477,12053.174L3667.756,12073.907C3668.782,12075.743 3669.639,12077.707 3670.303,12079.81C3681.473,12115.22 3678.57,12155.519 3717.957,12190.941C3717.957,12190.941 3694.647,12183.228 3683.845,12173.981C3683.845,12173.981 3693.96,12251.018 3723.951,12272.146C3723.951,12272.146 3718.499,12273.296 3714.751,12272.497C3714.751,12272.497 3714.933,12277.276 3718.358,12281.958C3718.358,12281.958 3709.246,12273.384 3704.459,12267.001C3704.459,12267.001 3695.225,12266.845 3686.175,12261.697C3686.175,12261.697 3693.643,12282.083 3702.944,12296.215C3702.944,12296.215 3670.345,12273.123 3661.042,12262.808C3651.74,12252.492 3641.813,12212.302 3641.813,12212.302C3641.813,12212.302 3622.151,12238.406 3611.812,12247.389C3611.812,12247.389 3616.661,12232.678 3620.948,12213.793C3612.587,12222.024 3605.342,12227.47 3602.287,12229.771C3594.24,12235.83 3581.869,12235.83 3578.294,12235.69L3578.292,12235.718C3578.292,12235.718 3578.117,12235.703 3577.794,12235.667C3577.47,12235.65 3577.295,12235.635 3577.295,12235.635L3577.298,12235.607C3573.749,12235.156 3561.546,12233.117 3554.608,12225.814C3551.975,12223.042 3545.726,12216.476 3538.836,12206.979Z" style="stroke:black;stroke-width:11.03px;"/>
            </g>
            <g>
                <g transform="matrix(0.790069,-0.065566,0.065566,0.790069,-800.200601,2659.361568)">
                    <path d="M3577.298,12235.607C3573.749,12235.156 3561.546,12233.117 3554.608,12225.814C3546.427,12217.202 3503.366,12171.988 3514.562,12116.009L3528.626,12081.769L3651.658,12091.979L3659.886,12128.069C3661.701,12185.128 3611.776,12222.625 3602.287,12229.771C3594.24,12235.83 3581.869,12235.83 3578.294,12235.69L3578.292,12235.718C3578.292,12235.718 3578.117,12235.703 3577.794,12235.667C3577.47,12235.65 3577.295,12235.635 3577.295,12235.635L3577.298,12235.607Z" style="fill:rgb(230,180,139);"/>
                </g>
                <g transform="matrix(0.232767,0,0,0.232767,2356.012269,9244.398382)">
                    <path d="M2072.194,11952.14C2072.194,11952.14 2115.403,11895.222 2153.757,11886.063C2153.757,11886.063 2125.73,11906.015 2072.194,11952.14Z" style="fill:rgb(107,74,109);"/>
                </g>
                <g transform="matrix(-0.232767,0,0,0.232767,3301.473657,9244.398382)">
                    <path d="M2072.194,11952.14C2072.194,11952.14 2115.403,11895.222 2153.757,11886.063C2153.757,11886.063 2125.73,11906.015 2072.194,11952.14Z" style="fill:rgb(107,74,109);"/>
                </g>
                <g transform="matrix(0.311556,0,0,0.329276,2182.847133,8110.910644)">
                    <path d="M2072.238,11637.074C2072.238,11637.074 2239.141,11614.712 2274.92,11697.45C2310.698,11780.188 2311.816,11877.461 2419.152,11954.609C2419.152,11954.609 2358.418,11940.745 2329.08,11920.709C2329.08,11920.709 2370.941,12103.537 2451.442,12148.261C2451.442,12148.261 2437.859,12152.107 2428.186,12150.934C2428.186,12150.934 2429.652,12162.365 2439.324,12172.917C2439.324,12172.917 2414.411,12154.158 2400.928,12139.796C2400.928,12139.796 2377.48,12141.262 2353.446,12130.71C2353.446,12130.71 2376.674,12178.137 2403.236,12210.195C2403.236,12210.195 2315.708,12161.279 2289.947,12138.38C2264.186,12115.482 2230.554,12021.026 2230.554,12021.026C2230.554,12021.026 2186.189,12087.575 2161.86,12111.188C2161.86,12111.188 2198.354,11967.359 2180.464,11887.93L2136.711,11742.669L2073.129,11750.898L2009.547,11742.669L1965.793,11887.93C1947.904,11967.359 1984.398,12111.188 1984.398,12111.188C1960.068,12087.575 1915.703,12021.026 1915.703,12021.026C1915.703,12021.026 1882.071,12115.482 1856.31,12138.38C1830.55,12161.279 1743.021,12210.195 1743.021,12210.195C1769.583,12178.137 1792.811,12130.71 1792.811,12130.71C1768.777,12141.262 1745.329,12139.796 1745.329,12139.796C1731.847,12154.158 1706.933,12172.917 1706.933,12172.917C1716.605,12162.365 1718.071,12150.934 1718.071,12150.934C1708.399,12152.107 1694.815,12148.261 1694.815,12148.261C1775.317,12103.537 1817.178,11920.709 1817.178,11920.709C1787.839,11940.745 1727.105,11954.609 1727.105,11954.609C1834.441,11877.461 1835.559,11780.188 1871.338,11697.45C1907.116,11614.712 2072.238,11637.074 2072.238,11637.074Z" style="fill:rgb(107,74,109);"/>
                </g>
                <g transform="matrix(-0,-0.244615,-0.237434,0,5677.472566,12599.726788)">
                    <path d="M2561.278,11815.956L2604.324,11743.281L2690.416,11743.281L2733.462,11815.956L2690.416,11960.992L2604.324,11960.992L2561.278,11815.956Z" style="fill:rgb(108,108,108);"/>
                </g>
                <g transform="matrix(0.189115,-0,0,0.19176,2277.424112,9692.935316)">
                    <path d="M2915.128,11910.976L2687.934,11890.976L2868.833,11726.517L2915.128,11779.618L2961.422,11726.517L3142.322,11890.976L2915.128,11910.976Z" style="fill:rgb(108,108,108);"/>
                </g>
                <g transform="matrix(0,-0.244615,0.237434,0,-19.98664,12599.726788)">
                    <path d="M2561.278,11815.956L2604.324,11743.281L2690.416,11743.281L2733.462,11815.956L2690.416,11960.992L2604.324,11960.992L2561.278,11815.956Z" style="fill:rgb(108,108,108);"/>
                </g>
                <g transform="matrix(-0,0.171448,0.159297,0,979.144239,11475.74072)">
                    <path d="M2873.635,11865.711L2683.707,11865.711L2731.189,11693.526L2826.153,11693.526L2873.635,11865.711Z" style="fill:rgb(154,182,183);"/>
                </g>
                <g transform="matrix(0,-0.189115,0.189115,0,550.375183,12452.798073)">
                    <path d="M2733.462,11815.956L2561.278,11815.956L2604.324,11743.281L2690.416,11743.281L2733.462,11815.956Z" style="fill:rgb(154,182,183);"/>
                </g>
                <g transform="matrix(0,0.171448,-0.159297,0,4678.341687,11475.74072)">
                    <path d="M2873.635,11865.711L2683.707,11865.711L2731.189,11693.526L2826.153,11693.526L2873.635,11865.711Z" style="fill:rgb(154,182,183);"/>
                </g>
                <g transform="matrix(-0,-0.189115,-0.189115,0,5107.110744,12452.798073)">
                    <path d="M2733.462,11815.956L2561.278,11815.956L2604.324,11743.281L2690.416,11743.281L2733.462,11815.956Z" style="fill:rgb(154,182,183);"/>
                </g>
                <g transform="matrix(0.253279,0,0,0.253279,2039.84329,9455.573963)">
                    <path d="M3059.648,9898.617C3059.648,9898.617 3009.298,9884.519 2977.969,9911.372C2946.64,9938.225 2907.207,9948.967 2911.011,10067.793C2914.103,10164.357 2918.221,10238.204 2977.298,10296.664C2977.298,10296.664 2973.717,10142.087 3015.788,10043.625C3015.788,10043.625 3062.333,10145.667 3128.572,10203.849C3128.572,10203.849 3107.089,10079.429 3134.837,10013.191C3134.837,10013.191 3187.649,10167.15 3248.516,10219.961C3248.516,10219.961 3238.67,10107.178 3259.258,10066.002C3259.258,10066.002 3264.273,10170.206 3284.896,10240.264C3284.896,10240.264 3328.067,10156.936 3316.878,10018.193C3305.689,9879.451 3177.017,9864.906 3137.856,9904.067C3137.856,9904.067 3100.042,9870.789 3059.648,9898.617Z" style="fill:rgb(121,86,124);"/>
                </g>
            </g>
        </g>
    </g>
</svg>
