<?xml version="1.0" encoding="UTF-8" standalone="no"?>
<!DOCTYPE svg PUBLIC "-//W3C//DTD SVG 1.1//EN" "http://www.w3.org/Graphics/SVG/1.1/DTD/svg11.dtd">
<svg width="100%" height="100%" viewBox="0 0 225 220" version="1.1" xmlns="http://www.w3.org/2000/svg" xmlns:xlink="http://www.w3.org/1999/xlink" xml:space="preserve" xmlns:serif="http://www.serif.com/" style="fill-rule:evenodd;clip-rule:evenodd;stroke-linecap:square;stroke-miterlimit:1.5;">
    <g transform="matrix(1,0,0,1,-8515.77,-13830.9)">
        <g transform="matrix(0.711575,0,0,0.711575,2426,11856.3)">
            <path d="M8712.27,2820.17C8712.41,2815.19 8713.33,2803.31 8718.57,2796.01C8725.33,2786.61 8744.58,2782.05 8758.55,2788.52C8771.45,2794.5 8775.32,2820.73 8763.29,2834.73C8766.12,2836.43 8768.86,2838.25 8771.52,2840.2C8773.15,2835.85 8776.77,2827.13 8781.84,2820.16C8788.9,2810.45 8797.13,2808.98 8810.21,2818.39C8822.9,2827.51 8832.82,2857.83 8803.62,2877.48C8805.07,2880.21 8806.42,2883 8807.65,2885.86C8811.44,2882.25 8820.7,2875.65 8838.65,2874.28C8863.64,2872.37 8869.22,2900.88 8855.85,2913.08C8846.78,2921.35 8836.69,2928.47 8825.87,2929.96C8824.66,2934.96 8822.86,2938.43 8820.54,2940.67C8828.46,2945.2 8847.98,2957.87 8847.98,2972.4C8847.98,2988.99 8830.45,3009.1 8814.89,2999.4C8813.62,3001.13 8812.07,3002.82 8810.16,3004.58C8821.68,3017.59 8811.77,3030.26 8799.74,3040.33C8789.55,3048.86 8777.91,3036.83 8772.51,3029.93C8768.23,3031.81 8763.79,3033.35 8759.36,3034.61C8763.75,3042.46 8768.09,3055.03 8758.62,3064.59C8743.77,3079.59 8730.69,3072.68 8723.64,3064.3C8719.62,3059.53 8718.03,3050.22 8717.41,3043.09C8715.22,3043.24 8713,3043.31 8710.77,3043.31C8709.04,3043.31 8707.32,3043.26 8705.61,3043.18C8706.21,3047.65 8705.07,3053.64 8699.09,3060.77C8685.42,3077.09 8668.67,3071.65 8661.61,3059.45C8656.92,3051.34 8658.14,3040.5 8659.49,3034.15C8655.05,3032.82 8650.63,3031.2 8646.38,3029.25C8632.49,3058.38 8614.07,3049.98 8607.05,3035.27C8600.96,3022.52 8609.64,3011.35 8613.43,3007.32C8609.07,3003.76 8606.09,3000.64 8604.11,2997.22C8586.87,3006.88 8569.99,2987.6 8573.07,2969.09C8575.78,2952.74 8593.38,2943.57 8599.91,2940.69C8597.78,2938.64 8596.09,2935.57 8594.88,2931.22C8569,2927.54 8563.57,2906.4 8573.06,2887.43C8581.04,2871.47 8604.47,2880.71 8614.11,2885.38C8615.2,2882.87 8616.38,2880.42 8617.64,2878.01C8611.9,2874.33 8596.12,2862.55 8597.2,2844.73C8598.52,2822.98 8622.48,2808.37 8635.86,2820.16C8643.02,2826.47 8648.28,2833.69 8651.63,2839.05C8654.9,2836.74 8658.31,2834.61 8661.83,2832.69C8654.32,2820.05 8657.35,2800.24 8677.78,2793.95C8698.82,2787.48 8703.65,2812.51 8704.63,2820.34C8706.67,2820.22 8708.72,2820.16 8710.77,2820.16C8711.27,2820.16 8711.77,2820.16 8712.27,2820.17Z" style="stroke:black;stroke-width:11.71px;"/>
            <g>
                <path d="M8712.25,2822.47C8712.25,2822.47 8711.81,2805.42 8718.57,2796.01C8725.33,2786.61 8744.58,2782.05 8758.55,2788.52C8772.51,2794.99 8775.89,2825.16 8760.02,2837.91L8712.25,2822.47Z" style="fill:rgb(234,73,57);"/>
                <clipPath id="_clip1">
                    <path d="M8712.25,2822.47C8712.25,2822.47 8711.81,2805.42 8718.57,2796.01C8725.33,2786.61 8744.58,2782.05 8758.55,2788.52C8772.51,2794.99 8775.89,2825.16 8760.02,2837.91L8712.25,2822.47Z"/>
                </clipPath>
                <g clip-path="url(#_clip1)">
                    <g transform="matrix(0.880135,0,0,0.91543,1047.79,240.003)">
                        <path d="M8712.25,2822.47C8712.25,2822.47 8711.81,2805.42 8718.57,2796.01C8725.33,2786.61 8744.58,2782.05 8758.55,2788.52C8772.51,2794.99 8775.89,2825.16 8760.02,2837.91L8712.25,2822.47Z" style="fill:rgb(249,255,66);"/>
                    </g>
                </g>
                <path d="M8770.54,2842.93C8770.54,2842.93 8774.79,2829.86 8781.84,2820.16C8788.9,2810.45 8797.13,2808.98 8810.21,2818.39C8823.29,2827.79 8833.43,2859.72 8800.8,2879.27L8770.54,2842.93Z" style="fill:rgb(234,73,57);"/>
                <clipPath id="_clip2">
                    <path d="M8770.54,2842.93C8770.54,2842.93 8774.79,2829.86 8781.84,2820.16C8788.9,2810.45 8797.13,2808.98 8810.21,2818.39C8823.29,2827.79 8833.43,2859.72 8800.8,2879.27L8770.54,2842.93Z"/>
                </clipPath>
                <g clip-path="url(#_clip2)">
                    <g transform="matrix(0.915858,0,0,0.841516,740.16,451.321)">
                        <path d="M8770.54,2842.93C8770.54,2842.93 8774.79,2829.86 8781.84,2820.16C8788.9,2810.45 8797.13,2808.98 8810.21,2818.39C8823.29,2827.79 8833.43,2859.72 8800.8,2879.27L8770.54,2842.93Z" style="fill:rgb(249,255,66);"/>
                    </g>
                </g>
                <path d="M8805.51,2888.24C8805.51,2888.24 8813.66,2876.19 8838.65,2874.28C8863.64,2872.37 8869.22,2900.88 8855.85,2913.08C8842.47,2925.28 8826.89,2934.98 8809.99,2927.78L8805.51,2888.24Z" style="fill:rgb(234,73,57);"/>
                <clipPath id="_clip3">
                    <path d="M8805.51,2888.24C8805.51,2888.24 8813.66,2876.19 8838.65,2874.28C8863.64,2872.37 8869.22,2900.88 8855.85,2913.08C8842.47,2925.28 8826.89,2934.98 8809.99,2927.78L8805.51,2888.24Z"/>
                </clipPath>
                <g clip-path="url(#_clip3)">
                    <g transform="matrix(0.950197,0,0,0.819596,438.54,523.571)">
                        <path d="M8805.51,2888.24C8805.51,2888.24 8813.66,2876.19 8838.65,2874.28C8863.64,2872.37 8869.22,2900.88 8855.85,2913.08C8842.47,2925.28 8826.89,2934.98 8809.99,2927.78L8805.51,2888.24Z" style="fill:rgb(249,255,66);"/>
                    </g>
                </g>
                <path d="M8704.86,2822.61C8704.86,2822.61 8702.62,2786.31 8677.78,2793.95C8652.94,2801.59 8653.83,2829.22 8668.08,2839.66L8704.86,2822.61Z" style="fill:rgb(234,73,57);"/>
                <clipPath id="_clip4">
                    <path d="M8704.86,2822.61C8704.86,2822.61 8702.62,2786.31 8677.78,2793.95C8652.94,2801.59 8653.83,2829.22 8668.08,2839.66L8704.86,2822.61Z"/>
                </clipPath>
                <g clip-path="url(#_clip4)">
                    <g transform="matrix(0.864878,0,0,0.864878,1173.06,379.937)">
                        <path d="M8704.86,2822.61C8704.86,2822.61 8702.62,2786.31 8677.78,2793.95C8652.94,2801.59 8653.83,2829.22 8668.08,2839.66L8704.86,2822.61Z" style="fill:rgb(249,255,66);"/>
                    </g>
                </g>
                <path d="M8619.69,2879.24C8619.69,2879.24 8595.88,2866.48 8597.2,2844.73C8598.52,2822.98 8622.48,2808.37 8635.86,2820.16C8649.23,2831.94 8655.99,2846.93 8655.99,2846.93L8619.69,2879.24Z" style="fill:rgb(234,73,57);"/>
                <clipPath id="_clip5">
                    <path d="M8619.69,2879.24C8619.69,2879.24 8595.88,2866.48 8597.2,2844.73C8598.52,2822.98 8622.48,2808.37 8635.86,2820.16C8649.23,2831.94 8655.99,2846.93 8655.99,2846.93L8619.69,2879.24Z"/>
                </clipPath>
                <g clip-path="url(#_clip5)">
                    <g transform="matrix(0.874657,0,0,0.912822,1082.28,249.685)">
                        <path d="M8619.69,2879.24C8619.69,2879.24 8595.88,2866.48 8597.2,2844.73C8598.52,2822.98 8622.48,2808.37 8635.86,2820.16C8649.23,2831.94 8655.99,2846.93 8655.99,2846.93L8619.69,2879.24Z" style="fill:rgb(249,255,66);"/>
                    </g>
                </g>
                <path d="M8618.33,2887.58C8618.33,2887.58 8583.2,2867.14 8573.06,2887.43C8562.92,2907.71 8569.83,2930.47 8600.55,2931.73L8618.33,2887.58Z" style="fill:rgb(234,73,57);"/>
                <clipPath id="_clip6">
                    <path d="M8618.33,2887.58C8618.33,2887.58 8583.2,2867.14 8573.06,2887.43C8562.92,2907.71 8569.83,2930.47 8600.55,2931.73L8618.33,2887.58Z"/>
                </clipPath>
                <g clip-path="url(#_clip6)">
                    <g transform="matrix(0.846114,0,0,0.834837,1322.96,480.54)">
                        <path d="M8618.33,2887.58C8618.33,2887.58 8583.2,2867.14 8573.06,2887.43C8562.92,2907.71 8569.83,2930.47 8600.55,2931.73L8618.33,2887.58Z" style="fill:rgb(249,255,66);"/>
                    </g>
                </g>
                <path d="M8602.34,2939.7C8602.34,2939.7 8576.42,2948.96 8573.07,2969.09C8569.71,2989.23 8590,3010.28 8608.66,2993.97L8610.28,2939.88L8602.34,2939.7Z" style="fill:rgb(234,73,57);"/>
                <clipPath id="_clip7">
                    <path d="M8602.34,2939.7C8602.34,2939.7 8576.42,2948.96 8573.07,2969.09C8569.71,2989.23 8590,3010.28 8608.66,2993.97L8610.28,2939.88L8602.34,2939.7Z"/>
                </clipPath>
                <g clip-path="url(#_clip7)">
                    <g transform="matrix(0.879094,0,0,0.879094,1041.33,359.06)">
                        <path d="M8602.34,2939.7C8602.34,2939.7 8576.42,2948.96 8573.07,2969.09C8569.71,2989.23 8590,3010.28 8608.66,2993.97L8610.28,2939.88L8602.34,2939.7Z" style="fill:rgb(249,255,66);"/>
                    </g>
                </g>
                <path d="M8615.06,3005.73C8615.06,3005.73 8599.4,3019.25 8607.05,3035.27C8614.69,3051.29 8635.85,3059.82 8649.97,3020.57L8615.06,3005.73Z" style="fill:rgb(234,73,57);"/>
                <clipPath id="_clip8">
                    <path d="M8615.06,3005.73C8615.06,3005.73 8599.4,3019.25 8607.05,3035.27C8614.69,3051.29 8635.85,3059.82 8649.97,3020.57L8615.06,3005.73Z"/>
                </clipPath>
                <g clip-path="url(#_clip8)">
                    <g transform="matrix(0.881478,0,0,0.881478,1022.54,358.792)">
                        <path d="M8615.06,3005.73C8615.06,3005.73 8599.4,3019.25 8607.05,3035.27C8614.69,3051.29 8635.85,3059.82 8649.97,3020.57L8615.06,3005.73Z" style="fill:rgb(249,255,66);"/>
                    </g>
                </g>
                <path d="M8660.88,3028.88C8660.88,3028.88 8654.56,3047.25 8661.61,3059.45C8668.67,3071.65 8685.42,3077.09 8699.09,3060.77C8712.76,3044.46 8701.15,3034.17 8701.15,3034.17L8660.88,3028.88Z" style="fill:rgb(234,73,57);"/>
                <clipPath id="_clip9">
                    <path d="M8660.88,3028.88C8660.88,3028.88 8654.56,3047.25 8661.61,3059.45C8668.67,3071.65 8685.42,3077.09 8699.09,3060.77C8712.76,3044.46 8701.15,3034.17 8701.15,3034.17L8660.88,3028.88Z"/>
                </clipPath>
                <g clip-path="url(#_clip9)">
                    <g transform="matrix(0.873781,0,0,0.873781,1095.83,384.957)">
                        <path d="M8660.88,3028.88C8660.88,3028.88 8654.56,3047.25 8661.61,3059.45C8668.67,3071.65 8685.42,3077.09 8699.09,3060.77C8712.76,3044.46 8701.15,3034.17 8701.15,3034.17L8660.88,3028.88Z" style="fill:rgb(249,255,66);"/>
                    </g>
                </g>
                <path d="M8717.02,3033.58C8717.02,3033.58 8716.58,3055.92 8723.64,3064.3C8730.69,3072.68 8743.77,3079.59 8758.62,3064.59C8773.47,3049.6 8754.36,3027.22 8754.36,3027.22L8717.02,3033.58Z" style="fill:rgb(234,73,57);"/>
                <clipPath id="_clip10">
                    <path d="M8717.02,3033.58C8717.02,3033.58 8716.58,3055.92 8723.64,3064.3C8730.69,3072.68 8743.77,3079.59 8758.62,3064.59C8773.47,3049.6 8754.36,3027.22 8754.36,3027.22L8717.02,3033.58Z"/>
                </clipPath>
                <g clip-path="url(#_clip10)">
                    <g transform="matrix(0.906631,0,0,0.906631,816.108,284.806)">
                        <path d="M8717.02,3033.58C8717.02,3033.58 8716.58,3055.92 8723.64,3064.3C8730.69,3072.68 8743.77,3079.59 8758.62,3064.59C8773.47,3049.6 8754.36,3027.22 8754.36,3027.22L8717.02,3033.58Z" style="fill:rgb(249,255,66);"/>
                    </g>
                </g>
                <path d="M8769.46,3025.68C8769.46,3025.68 8785.92,3051.89 8799.74,3040.33C8813.55,3028.77 8824.58,3013.77 8803.56,2998.78L8769.46,3025.68Z" style="fill:rgb(234,73,57);"/>
                <clipPath id="_clip11">
                    <path d="M8769.46,3025.68C8769.46,3025.68 8785.92,3051.89 8799.74,3040.33C8813.55,3028.77 8824.58,3013.77 8803.56,2998.78L8769.46,3025.68Z"/>
                </clipPath>
                <g clip-path="url(#_clip11)">
                    <g transform="matrix(0.854235,0,0,0.854235,1281.62,440.359)">
                        <path d="M8769.46,3025.68C8769.46,3025.68 8785.92,3051.89 8799.74,3040.33C8813.55,3028.77 8824.58,3013.77 8803.56,2998.78L8769.46,3025.68Z" style="fill:rgb(249,255,66);"/>
                    </g>
                </g>
                <path d="M8817.26,2938.89C8817.26,2938.89 8847.98,2954.17 8847.98,2972.4C8847.98,2990.62 8826.82,3013.11 8810.36,2995.62L8811.93,2937.71L8817.26,2938.89Z" style="fill:rgb(234,73,57);"/>
                <clipPath id="_clip12">
                    <path d="M8817.26,2938.89C8817.26,2938.89 8847.98,2954.17 8847.98,2972.4C8847.98,2990.62 8826.82,3013.11 8810.36,2995.62L8811.93,2937.71L8817.26,2938.89Z"/>
                </clipPath>
                <g clip-path="url(#_clip12)">
                    <g transform="matrix(0.888276,0,0,0.888276,984.326,331.8)">
                        <path d="M8817.26,2938.89C8817.26,2938.89 8847.98,2954.17 8847.98,2972.4C8847.98,2990.62 8826.82,3013.11 8810.36,2995.62L8811.93,2937.71L8817.26,2938.89Z" style="fill:rgb(249,255,66);"/>
                    </g>
                </g>
                <g transform="matrix(0.891765,0,0,0.940898,923.566,163.765)">
                    <ellipse cx="8732.36" cy="2941.83" rx="119.146" ry="118.585" style="fill:rgb(210,0,0);"/>
                    <clipPath id="_clip13">
                        <ellipse cx="8732.36" cy="2941.83" rx="119.146" ry="118.585"/>
                    </clipPath>
                    <g clip-path="url(#_clip13)">
                        <g transform="matrix(1.12137,0,0,1.06281,-1062.96,-193.772)">
                            <ellipse cx="8669.52" cy="2848.53" rx="29.716" ry="28.379" style="fill:white;"/>
                        </g>
                        <g transform="matrix(1.12137,0,0,1.06281,-916.497,-133.449)">
                            <ellipse cx="8669.52" cy="2848.53" rx="29.716" ry="28.379" style="fill:white;"/>
                        </g>
                    </g>
                </g>
                <path d="M8710.77,2905.19L8615.47,2920.36L8620.06,2991.62L8742.07,3012.22L8805.51,2985.47L8802.93,2905.19L8710.77,2905.19Z" style="fill:rgb(36,6,4);"/>
                <g transform="matrix(1.79111,0,0,1.79111,-6873.26,-2322.09)">
                    <path d="M8658.27,2925.78C8658.27,2925.78 8662.09,2939.15 8669.97,2944.05C8677.85,2948.94 8670.91,2933.89 8675.5,2922.6L8658.27,2925.78Z" style="fill:rgb(207,211,201);"/>
                </g>
                <g transform="matrix(-1.79111,0,0,1.79111,24293.4,-2322.09)">
                    <path d="M8658.27,2925.78C8658.27,2925.78 8662.09,2939.15 8669.97,2944.05C8677.85,2948.94 8670.91,2933.89 8675.5,2922.6L8658.27,2925.78Z" style="fill:rgb(207,211,201);"/>
                </g>
                <g transform="matrix(1.64573,-0.70686,-0.70686,-1.64573,-3512.38,13938.9)">
                    <path d="M8658.27,2925.78C8658.27,2925.78 8662.09,2939.15 8669.97,2944.05C8677.85,2948.94 8670.91,2933.89 8675.5,2922.6L8658.27,2925.78Z" style="fill:rgb(207,211,201);"/>
                </g>
                <g transform="matrix(-1.64573,-0.70686,0.70686,-1.64573,20935.8,13938.9)">
                    <path d="M8658.27,2925.78C8658.27,2925.78 8662.09,2939.15 8669.97,2944.05C8677.85,2948.94 8670.91,2933.89 8675.5,2922.6L8658.27,2925.78Z" style="fill:rgb(207,211,201);"/>
                </g>
                <g transform="matrix(1.30624,0,0,1.30624,-2666.63,-905.011)">
                    <path d="M8698.43,2922.6C8698.43,2922.6 8701.61,2945.85 8710.21,2953.31C8710.21,2953.31 8718.81,2946.15 8720.82,2922.6L8698.43,2922.6Z" style="fill:rgb(207,211,201);"/>
                </g>
                <path d="M8710.08,3040.22C8707.34,3040.36 8663.01,3042.24 8634.92,3022.77C8605.92,3002.68 8600.47,2999.52 8600.47,2978.85C8600.47,2958.18 8600.47,2943.83 8614.25,2930.62L8628.6,2931.27C8628.6,2931.27 8619.99,2971.17 8633.77,2975.48C8647.55,2979.78 8668.67,2986.39 8710.21,2985.81L8711.18,2985.82C8752.08,2986.28 8772.99,2979.75 8786.66,2975.48C8800.44,2971.17 8791.83,2931.27 8791.83,2931.27L8806.18,2930.62C8819.96,2943.83 8819.96,2958.18 8819.96,2978.85C8819.96,2999.52 8814.5,3002.68 8785.51,3022.77C8756.52,3042.87 8710.21,3040.21 8710.21,3040.21L8710.08,3040.22Z" style="fill:rgb(67,196,32);"/>
                <g transform="matrix(1,0,0,1,0,-0.22271)">
                    <path d="M8710.21,2927.53C8703.67,2927.76 8650.1,2928.88 8631.59,2937.29C8611.86,2946.26 8597.95,2949.99 8593.92,2927.11C8589.88,2904.24 8601.54,2902.89 8630.7,2884.5C8659.85,2866.11 8710.21,2866.56 8710.21,2866.56C8713.19,2866.55 8761.48,2866.68 8789.73,2884.5C8818.89,2902.89 8830.55,2904.24 8826.51,2927.11C8822.47,2949.99 8808.57,2946.26 8788.83,2937.29C8769.1,2928.32 8710.21,2927.53 8710.21,2927.53Z" style="fill:rgb(78,209,43);"/>
                </g>
            </g>
        </g>
    </g>
</svg>
