<?xml version="1.0" encoding="UTF-8" standalone="no"?>
<!DOCTYPE svg PUBLIC "-//W3C//DTD SVG 1.1//EN" "http://www.w3.org/Graphics/SVG/1.1/DTD/svg11.dtd">
<svg width="100%" height="100%" viewBox="0 0 176 227" version="1.1" xmlns="http://www.w3.org/2000/svg" xmlns:xlink="http://www.w3.org/1999/xlink" xml:space="preserve" xmlns:serif="http://www.serif.com/" style="fill-rule:evenodd;clip-rule:evenodd;stroke-linecap:round;stroke-linejoin:round;stroke-miterlimit:1.5;">
    <g transform="matrix(1,0,0,1,-508.540107,-13336.517591)">
        <g transform="matrix(1,0,0,1,-3872.52486,1522.652043)">
            <g transform="matrix(1.108746,0,0,1.108746,144.219901,-1309.989374)">
                <path d="M3933.172,11883.056C3933.565,11889.252 3934.457,11894.099 3936.099,11895.6C3941.023,11900.101 3948.423,11906.703 3948.423,11906.703C3962.643,11907.736 3973.921,11915.849 3973.921,11915.849C3969.362,11921.198 3963.72,11925.058 3964.013,11929.991C3964.306,11934.925 3963.77,11938.069 3969.15,11943.388C3974.53,11948.707 3976.124,11954.285 3976.124,11954.285C3967.92,11945.855 3967.464,11954.958 3969.65,11958.179C3971.837,11961.399 3971.896,11966.214 3971.523,11969.071C3971.15,11971.927 3969.569,11972.522 3969.569,11972.522C3971.89,11974.391 3970.618,11979.982 3971.453,11981.491C3972.288,11983.001 3972.121,11985.372 3972.121,11985.372C3963.614,11974.204 3959.266,11989.829 3955.596,11998.618C3951.925,12007.407 3940.48,12034.498 3940.48,12034.498C3942.553,12027.147 3941.993,12020.389 3941.993,12020.389C3940.51,12025.181 3934.641,12031.327 3934.641,12031.327C3930.206,12024.16 3924.878,12019.226 3924.878,12019.226L3914.972,12029.961C3916.09,12033.357 3918.852,12037.084 3918.852,12037.084C3916.285,12037.072 3913.189,12036.325 3911.283,12035.786L3911.289,12035.891L3900.588,12035.536L3889.887,12035.891L3889.894,12035.786C3887.987,12036.325 3884.891,12037.072 3882.324,12037.084C3882.324,12037.084 3885.087,12033.357 3886.204,12029.961L3876.299,12019.226C3876.299,12019.226 3870.971,12024.16 3866.535,12031.327C3866.535,12031.327 3860.666,12025.181 3859.183,12020.389C3859.183,12020.389 3858.624,12027.147 3860.696,12034.498C3860.696,12034.498 3849.251,12007.407 3845.581,11998.618C3841.911,11989.829 3837.562,11974.204 3829.056,11985.372C3829.056,11985.372 3828.889,11983.001 3829.723,11981.491C3830.558,11979.982 3829.287,11974.391 3831.608,11972.522C3831.608,11972.522 3830.027,11971.927 3829.654,11969.071C3829.28,11966.214 3829.339,11961.399 3831.526,11958.179C3833.712,11954.958 3833.256,11945.855 3825.052,11954.285C3825.052,11954.285 3826.647,11948.707 3832.026,11943.388C3837.406,11938.069 3836.87,11934.925 3837.163,11929.991C3837.457,11925.058 3831.815,11921.198 3827.255,11915.849C3827.255,11915.849 3838.534,11907.736 3852.753,11906.703C3852.753,11906.703 3860.153,11900.101 3865.077,11895.6C3866.72,11894.099 3867.611,11889.252 3868.004,11883.056C3863.051,11874.311 3856.415,11863.332 3851.18,11857.336C3851.18,11857.336 3857.999,11858.81 3867.827,11860.268C3867.472,11854.246 3866.944,11848.905 3866.422,11845.664C3866.422,11845.664 3869.545,11846.475 3877.519,11851.397C3877.117,11847.276 3876.586,11843.462 3875.884,11840.423C3875.884,11840.423 3884.169,11847.453 3895.573,11855.466C3898.402,11851.055 3900.584,11848.001 3900.584,11848.001L3900.592,11848.001C3900.592,11848.001 3902.774,11851.055 3905.603,11855.466C3917.007,11847.453 3925.292,11840.423 3925.292,11840.423C3924.59,11843.462 3924.059,11847.276 3923.658,11851.397C3931.631,11846.475 3934.755,11845.664 3934.755,11845.664C3934.233,11848.905 3933.704,11854.246 3933.349,11860.268C3943.177,11858.81 3949.997,11857.336 3949.997,11857.336C3944.762,11863.332 3938.125,11874.311 3933.172,11883.056Z" style="stroke:black;stroke-width:7.52px;"/>
            </g>
            <g>
                <g transform="matrix(1.108746,0,0,1.108746,144.219901,-1309.989374)">
                    <path d="M3885.262,11882.937L3875.098,11896.094C3875.098,11896.094 3860.782,11868.335 3851.18,11857.336C3851.18,11857.336 3863.164,11859.927 3878.254,11861.635C3877.858,11853.878 3877.148,11845.893 3875.884,11840.423C3875.884,11840.423 3886.681,11849.584 3900.588,11858.911C3914.495,11849.584 3925.292,11840.423 3925.292,11840.423C3924.029,11845.893 3923.318,11853.878 3922.922,11861.635C3938.012,11859.927 3949.997,11857.336 3949.997,11857.336C3940.394,11868.335 3926.078,11896.094 3926.078,11896.094L3915.914,11882.937L3900.588,11876.05L3885.262,11882.937Z" style="fill:url(#_Linear1);"/>
                </g>
                <g transform="matrix(1.280629,0.102008,-0.113896,1.146965,531.611241,-2138.970771)">
                    <path d="M4131.665,11990.037C4130.073,11990.7 4127.478,11991.652 4125.274,11991.861C4125.274,11991.861 4127.329,11988.074 4127.999,11984.732L4118.575,11975.193C4118.575,11975.193 4114.419,11980.332 4111.22,11987.545C4111.22,11987.545 4105.654,11982.098 4103.972,11977.616C4103.972,11977.616 4104.068,11984.141 4106.475,11991.032C4106.475,11991.032 4094.333,11965.924 4090.43,11957.775C4086.528,11949.625 4081.46,11934.972 4075.106,11946.333C4075.106,11946.333 4074.76,11944.071 4075.348,11942.56C4075.936,11941.048 4074.367,11935.783 4076.202,11933.814C4076.202,11933.814 4074.793,11933.364 4074.229,11930.653C4073.665,11927.942 4073.304,11923.319 4074.908,11920.063C4076.511,11916.808 4075.343,11908.112 4069.015,11916.824C4069.015,11916.824 4069.909,11911.352 4074.076,11905.839C4078.243,11900.327 4077.515,11897.353 4077.346,11892.598C4077.177,11887.844 4072.001,11884.573 4067.629,11879.792C4067.629,11879.792 4076.625,11871.148 4088.751,11869.072C4088.751,11869.072 4094.545,11862.175 4098.39,11857.482C4102.236,11852.789 4097.719,11819.79 4095.286,11809.485C4095.286,11809.485 4100.75,11810.556 4116.619,11821.185L4126.135,11823.752L4135.049,11819.546C4148.793,11806.283 4153.983,11804.265 4153.983,11804.265C4153.406,11814.837 4154.784,11848.115 4159.397,11852.056C4164.011,11855.996 4170.931,11861.763 4170.931,11861.763C4183.233,11861.667 4193.613,11868.587 4193.613,11868.587C4190.153,11874.065 4185.636,11878.198 4186.308,11882.908C4186.981,11887.617 4186.789,11890.673 4191.864,11895.364C4196.938,11900.054 4198.784,11905.282 4198.784,11905.282C4191.018,11897.824 4191.402,11906.589 4193.555,11909.511C4195.708,11912.433 4196.17,11917.046 4196.093,11919.814C4196.016,11922.582 4194.709,11923.274 4194.709,11923.274C4196.862,11924.889 4196.246,11930.348 4197.092,11931.732C4197.938,11933.116 4197.997,11935.404 4197.997,11935.404C4189.737,11925.342 4187.334,11940.66 4184.932,11949.37C4182.529,11958.08 4175.008,11984.937 4175.008,11984.937C4176.162,11977.729 4175.104,11971.289 4175.104,11971.289C4174.239,11975.999 4169.722,11982.342 4169.722,11982.342C4165.301,11975.807 4160.303,11971.481 4160.303,11971.481L4152.71,11982.534C4153.96,11985.706 4156.651,11989.07 4156.651,11989.07C4154.444,11989.254 4151.721,11988.774 4150.038,11988.403L4150.053,11988.503L4140.83,11988.98L4131.668,11990.138L4131.665,11990.037Z" style="fill:url(#_Linear2);"/>
                </g>
                <g transform="matrix(1.189578,0,0,1.189578,3002.09985,-1582.52695)">
                    <path d="M1233.074,11435.673C1231.491,11435.681 1204.963,11435.361 1189.942,11406.002C1174.492,11375.805 1167.45,11311.514 1233.111,11314.234C1298.773,11311.514 1291.73,11375.805 1276.28,11406.002C1261.26,11435.361 1234.732,11435.681 1233.148,11435.673C1233.124,11435.673 1233.099,11435.673 1233.074,11435.673Z" style="fill:rgb(227,186,144);"/>
                </g>
                <g transform="matrix(1.116537,0,0,1,-140.271573,31.52546)">
                    <path d="M4080.441,11899.832C4079.384,11905.705 4078.119,11928.773 4078.543,11943.439L4067.305,11936.074L4063.151,11910.431C4063.151,11910.431 4067.061,11891.881 4067.305,11888.88C4067.549,11885.879 4070.481,11869.512 4070.481,11869.512L4099.8,11848.233L4105.96,11846.268C4108.33,11838.851 4110.434,11831.227 4112.443,11825.413C4116.901,11812.508 4128.164,11794.909 4128.164,11794.909L4128.171,11794.909C4128.171,11794.909 4139.434,11812.508 4143.893,11825.413C4145.901,11831.227 4148.005,11838.851 4150.376,11846.268L4156.536,11848.233L4185.854,11869.512C4185.854,11869.512 4188.786,11885.879 4189.031,11888.88C4189.275,11891.881 4193.184,11910.431 4193.184,11910.431L4189.031,11936.074L4177.793,11943.439C4178.216,11928.773 4176.952,11905.705 4175.894,11899.832C4173.075,11892.504 4160.204,11864.794 4130.008,11875.449L4128.168,11876.138L4126.328,11875.449C4096.131,11864.794 4083.26,11892.504 4080.441,11899.832Z" style="fill:url(#_Linear3);"/>
                </g>
                <g transform="matrix(1,0,0,1.182927,-0.613422,-2193.533625)">
                    <path d="M4465.277,11966.406C4463.567,11975.113 4450.806,11981.887 4435.338,11981.887C4418.707,11981.887 4405.205,11974.056 4405.205,11964.411C4405.205,11954.766 4418.707,11946.935 4435.338,11946.935C4450.067,11946.935 4462.341,11953.077 4464.957,11961.181C4467.155,11961.796 4470.553,11962.263 4474.291,11961.006C4477.026,11952.988 4489.23,11946.935 4503.852,11946.935C4520.483,11946.935 4533.985,11954.766 4533.985,11964.411C4533.985,11974.056 4520.483,11981.887 4503.852,11981.887C4488.523,11981.887 4475.853,11975.235 4473.962,11966.641C4472.461,11966.265 4469.63,11965.859 4465.277,11966.406Z" style="fill:rgb(136,136,136);"/>
                    <clipPath id="_clip4">
                        <path d="M4465.277,11966.406C4463.567,11975.113 4450.806,11981.887 4435.338,11981.887C4418.707,11981.887 4405.205,11974.056 4405.205,11964.411C4405.205,11954.766 4418.707,11946.935 4435.338,11946.935C4450.067,11946.935 4462.341,11953.077 4464.957,11961.181C4467.155,11961.796 4470.553,11962.263 4474.291,11961.006C4477.026,11952.988 4489.23,11946.935 4503.852,11946.935C4520.483,11946.935 4533.985,11954.766 4533.985,11964.411C4533.985,11974.056 4520.483,11981.887 4503.852,11981.887C4488.523,11981.887 4475.853,11975.235 4473.962,11966.641C4472.461,11966.265 4469.63,11965.859 4465.277,11966.406Z"/>
                    </clipPath>
                    <g clip-path="url(#_clip4)">
                        <g transform="matrix(0.82766,0,0,0.781309,776.196036,2616.514207)">
                            <ellipse cx="4503.852" cy="11964.411" rx="30.133" ry="17.476" style="fill:rgb(75,124,166);"/>
                        </g>
                        <g transform="matrix(0.82766,0,0,0.781309,707.682352,2616.514207)">
                            <ellipse cx="4503.852" cy="11964.411" rx="30.133" ry="17.476" style="fill:rgb(75,124,166);"/>
                        </g>
                    </g>
                </g>
            </g>
        </g>
    </g>
    <defs>
        <linearGradient id="_Linear1" x1="0" y1="0" x2="1" y2="0" gradientUnits="userSpaceOnUse" gradientTransform="matrix(0,-196.923956,196.923956,0,3900.588178,12037.08448)"><stop offset="0" style="stop-color:rgb(168,157,56);stop-opacity:1"/><stop offset="0.63" style="stop-color:rgb(182,150,47);stop-opacity:1"/><stop offset="0.83" style="stop-color:rgb(217,133,25);stop-opacity:1"/><stop offset="1" style="stop-color:rgb(255,115,0);stop-opacity:1"/></linearGradient>
        <linearGradient id="_Linear2" x1="0" y1="0" x2="1" y2="0" gradientUnits="userSpaceOnUse" gradientTransform="matrix(-14.639822,-169.993815,152.260247,-13.006821,4140.823071,11988.900855)"><stop offset="0" style="stop-color:rgb(238,213,0);stop-opacity:1"/><stop offset="0.65" style="stop-color:rgb(240,199,0);stop-opacity:1"/><stop offset="1" style="stop-color:rgb(255,115,0);stop-opacity:1"/></linearGradient>
        <linearGradient id="_Linear3" x1="0" y1="0" x2="1" y2="0" gradientUnits="userSpaceOnUse" gradientTransform="matrix(0,-209.645641,187.764124,0,4128.71714,12004.55478)"><stop offset="0" style="stop-color:rgb(221,199,15);stop-opacity:1"/><stop offset="0.59" style="stop-color:rgb(227,183,12);stop-opacity:1"/><stop offset="0.8" style="stop-color:rgb(241,149,6);stop-opacity:1"/><stop offset="1" style="stop-color:rgb(255,115,0);stop-opacity:1"/></linearGradient>
    </defs>
</svg>
