<?xml version="1.0" encoding="UTF-8" standalone="no"?>
<!DOCTYPE svg PUBLIC "-//W3C//DTD SVG 1.1//EN" "http://www.w3.org/Graphics/SVG/1.1/DTD/svg11.dtd">
<svg width="100%" height="100%" viewBox="0 0 203 186" version="1.1" xmlns="http://www.w3.org/2000/svg" xmlns:xlink="http://www.w3.org/1999/xlink" xml:space="preserve" xmlns:serif="http://www.serif.com/" style="fill-rule:evenodd;clip-rule:evenodd;stroke-linecap:round;stroke-linejoin:round;stroke-miterlimit:1.5;">
    <g transform="matrix(1,0,0,1,-2302.501152,-13770.095579)">
        <g transform="matrix(1,0,0,1,0,-80)">
            <g transform="matrix(0.508081,0,0,0.508081,570.342693,7739.168035)">
                <path d="M3537.316,12375.848C3527.667,12376.524 3510.337,12375.307 3496.488,12361.033C3496.488,12361.033 3494.611,12376.326 3489.918,12381.507C3485.225,12386.688 3478.655,12383.559 3471.772,12377.302C3464.889,12371.044 3456.754,12356.027 3456.754,12356.027C3456.754,12356.027 3446.743,12361.345 3440.173,12345.702C3433.602,12330.059 3415.613,12300.337 3417.568,12252.625C3418.964,12218.568 3420.799,12193.582 3429.29,12166.869C3432.694,12156.157 3437.169,12145.168 3443.115,12133.205C3463.889,12091.407 3520.65,12039.589 3584.201,12036.167C3647.752,12032.745 3693.704,12047.41 3714.235,12075.275C3714.235,12075.275 3744.055,12078.208 3759.699,12102.65C3774.637,12125.991 3790.912,12146.658 3797.032,12202.536C3797.32,12205.173 3797.587,12207.888 3797.829,12210.686C3803.206,12272.771 3783.359,12308.985 3787.113,12333.701C3790.868,12358.417 3784.598,12359.944 3775.788,12351.334C3766.977,12342.724 3763.173,12339.52 3763.173,12339.52C3763.173,12339.52 3755.164,12364.95 3738.544,12368.354C3724.076,12371.317 3720.445,12368.216 3720.276,12352.169C3714.928,12358.44 3707.406,12364.105 3696.863,12368.507C3652.378,12387.083 3606.545,12384.522 3606.545,12384.522C3606.545,12384.522 3574.103,12386.335 3537.316,12375.848Z" style="stroke:black;stroke-width:16.4px;"/>
                <g>
                    <path d="M3544.669,12374.799C3544.669,12374.799 3516.825,12381.995 3496.488,12361.033C3496.488,12361.033 3494.611,12376.326 3489.918,12381.507C3485.225,12386.688 3478.655,12383.559 3471.772,12377.302C3464.889,12371.044 3456.754,12356.027 3456.754,12356.027C3456.754,12356.027 3446.743,12361.345 3440.173,12345.702C3433.602,12330.059 3415.613,12300.337 3417.568,12252.625C3419.524,12204.913 3422.34,12175.004 3443.115,12133.205C3463.889,12091.407 3520.65,12039.589 3584.201,12036.167C3647.752,12032.745 3693.704,12047.41 3714.235,12075.275C3714.235,12075.275 3744.055,12078.208 3759.699,12102.65C3775.342,12127.093 3792.452,12148.602 3797.829,12210.686C3803.206,12272.771 3783.359,12308.985 3787.113,12333.701C3790.868,12358.417 3784.598,12359.944 3775.788,12351.334C3766.977,12342.724 3763.173,12339.52 3763.173,12339.52C3763.173,12339.52 3755.164,12364.95 3738.544,12368.354C3721.925,12371.758 3719.605,12367.159 3720.406,12344.133L3544.669,12374.799Z" style="fill:rgb(62,37,34);"/>
                    <path d="M3726.855,12330.646C3726.855,12330.646 3755.012,12324.779 3761.27,12298.968C3767.527,12273.157 3764.789,12227.4 3725.681,12254.776L3726.855,12330.646Z" style="fill:rgb(226,193,44);"/>
                    <path d="M3606.545,12384.522C3606.545,12384.522 3560.712,12387.083 3516.227,12368.507C3471.741,12349.931 3481.029,12308.867 3480.541,12294.691C3480.052,12280.514 3482.985,12211.097 3482.985,12211.097L3606.545,12172.6L3730.105,12211.097C3730.105,12211.097 3733.038,12280.514 3732.55,12294.691C3732.061,12308.867 3741.349,12349.931 3696.863,12368.507C3652.378,12387.083 3606.545,12384.522 3606.545,12384.522Z" style="fill:rgb(242,200,11);"/>
                    <path d="M3429.29,12166.869C3432.694,12156.157 3437.169,12145.168 3443.115,12133.205C3463.889,12091.407 3520.65,12039.589 3584.201,12036.167C3647.752,12032.745 3693.704,12047.41 3714.235,12075.275C3714.235,12075.275 3744.055,12078.208 3759.699,12102.65C3774.637,12125.991 3790.912,12146.658 3797.032,12202.536C3793.886,12221.211 3790.518,12236.305 3788.429,12243.56C3782.485,12264.209 3761.998,12291.181 3751.747,12300.151C3741.495,12309.122 3736.048,12298.229 3732.684,12291.501C3729.32,12284.773 3732.844,12250.814 3732.844,12250.814C3732.844,12250.814 3728.359,12253.537 3720.991,12253.056C3713.622,12252.576 3709.607,12233.213 3709.607,12233.213C3709.607,12233.213 3691.346,12246.989 3675.327,12253.877C3659.309,12260.765 3654.023,12253.717 3653.862,12246.334C3653.702,12238.952 3651.62,12227.023 3649.057,12218.002C3646.494,12208.98 3640.772,12215.977 3638.209,12218.54C3635.646,12221.103 3627.797,12228.151 3618.987,12234.559C3610.176,12240.966 3600.341,12248.591 3590.986,12258.715C3581.631,12268.839 3578.94,12264.994 3576.121,12260.253C3573.301,12255.511 3569.201,12253.461 3564.587,12259.74C3559.974,12266.019 3554.335,12262.944 3547.031,12253.717C3539.726,12244.49 3523.559,12214.687 3523.559,12214.687C3506.539,12234.46 3503.536,12272.004 3498.03,12283.017C3492.523,12294.03 3479.508,12276.76 3479.508,12276.76C3479.258,12305.543 3458.327,12305.653 3435.644,12259.896C3422.842,12234.071 3424.99,12195.538 3429.29,12166.869Z" style="fill:rgb(51,33,31);"/>
                </g>
            </g>
        </g>
    </g>
</svg>
