<?xml version="1.0" encoding="UTF-8" standalone="no"?>
<!DOCTYPE svg PUBLIC "-//W3C//DTD SVG 1.1//EN" "http://www.w3.org/Graphics/SVG/1.1/DTD/svg11.dtd">
<svg width="100%" height="100%" viewBox="0 0 190 207" version="1.1" xmlns="http://www.w3.org/2000/svg" xmlns:xlink="http://www.w3.org/1999/xlink" xml:space="preserve" xmlns:serif="http://www.serif.com/" style="fill-rule:evenodd;clip-rule:evenodd;stroke-linecap:square;stroke-miterlimit:1.5;">
    <g transform="matrix(1,0,0,1,-8332.2,-13639)">
        <g transform="matrix(0.781293,0,0,0.781293,1357.42,13165.6)">
            <path d="M8965.67,679.974C8965.48,679.21 8965.44,678.232 8965.63,676.983C8966.66,670.142 8986.33,615.028 9048.76,615.651L9048.78,615.646C9111.22,615.012 9130.9,670.141 9131.92,676.983C9132.11,678.232 9132.07,679.21 9131.88,679.974C9136.92,682.343 9150.11,689.049 9156.78,697.225C9165.13,707.464 9158.16,704.896 9154.44,705.586C9152.11,706.019 9144.39,707.721 9137.4,710.073C9141.46,711.943 9140.92,721.425 9140.38,727.334C9139.81,733.545 9136.95,750.707 9130.37,758.295C9134.84,761.712 9138.93,767.287 9140.78,776.145C9145.13,797.058 9141.31,809.947 9120.89,839.446C9101.64,867.251 8995.91,867.251 8976.66,839.446C8956.24,809.947 8952.42,797.058 8956.78,776.145C8958.62,767.287 8962.71,761.712 8967.18,758.295C8960.6,750.707 8957.74,733.545 8957.18,727.334C8956.64,721.425 8956.09,711.943 8960.15,710.073C8953.16,707.721 8945.44,706.019 8943.11,705.586C8939.39,704.896 8932.43,707.464 8940.77,697.225C8947.44,689.049 8960.63,682.343 8965.67,679.974Z" style="stroke:black;stroke-width:10.67px;"/>
            <g>
                <g transform="matrix(1,0,0,1,0.494205,0.46958)">
                    <path d="M9129.36,678.585C9129.36,678.585 9147.94,686.517 9156.28,696.756C9164.63,706.994 9157.67,704.426 9153.95,705.117C9150.23,705.807 9132.79,709.727 9126.51,714.363L9126.35,676.721L9129.36,678.585Z" style="fill:rgb(224,85,89);"/>
                    <clipPath id="_clip1">
                        <path d="M9129.36,678.585C9129.36,678.585 9147.94,686.517 9156.28,696.756C9164.63,706.994 9157.67,704.426 9153.95,705.117C9150.23,705.807 9132.79,709.727 9126.51,714.363L9126.35,676.721L9129.36,678.585Z"/>
                    </clipPath>
                    <g clip-path="url(#_clip1)">
                        <g transform="matrix(1,0,0,1,178.246,1.23888)">
                            <ellipse cx="8958.89" cy="697.573" rx="10.793" ry="6.525" style="fill:rgb(219,219,219);"/>
                        </g>
                    </g>
                </g>
                <g transform="matrix(-1,0,0,1,18097.1,0.46958)">
                    <path d="M9129.36,678.585C9129.36,678.585 9147.94,686.517 9156.28,696.756C9164.63,706.994 9157.67,704.426 9153.95,705.117C9150.23,705.807 9132.79,709.727 9126.51,714.363L9126.35,676.721L9129.36,678.585Z" style="fill:rgb(224,85,89);"/>
                    <clipPath id="_clip2">
                        <path d="M9129.36,678.585C9129.36,678.585 9147.94,686.517 9156.28,696.756C9164.63,706.994 9157.67,704.426 9153.95,705.117C9150.23,705.807 9132.79,709.727 9126.51,714.363L9126.35,676.721L9129.36,678.585Z"/>
                    </clipPath>
                    <g clip-path="url(#_clip2)">
                        <g transform="matrix(1,0,0,1,178.246,1.23888)">
                            <ellipse cx="8958.89" cy="697.573" rx="10.793" ry="6.525" style="fill:rgb(219,219,219);"/>
                        </g>
                    </g>
                </g>
                <path d="M8976.65,754.752L8965.79,714.067C8965.79,714.067 8956.2,631.505 9048.78,633.989L9049.32,633.976C9141.32,631.835 9131.76,714.067 9131.76,714.067L9120.9,754.752L9048.78,764.284L8976.65,754.752Z" style="fill:rgb(133,107,31);"/>
                <path d="M9001.62,745.454C9001.62,745.454 8975.2,720.428 8976.72,687.609C8978.23,654.791 9008.76,662.898 9021.47,674.036C9036.42,687.139 9061.67,686.959 9076.09,674.036C9088.67,662.758 9119.33,654.791 9120.84,687.609C9122.35,720.428 9095.93,745.454 9095.93,745.454L9048.78,734.645L9001.62,745.454Z" style="fill:rgb(245,208,145);"/>
                <g transform="matrix(1,0,0,1,0.56827,1.85888)">
                    <path d="M9106.24,750.226C9106.24,750.226 9121.7,714.397 9131.47,709.07C9141.24,703.742 9140.52,717.701 9139.81,725.475C9139.1,733.249 9134.8,758.176 9124.11,760.016L9106.24,750.226Z" style="fill:rgb(245,208,145);"/>
                </g>
                <g transform="matrix(-1,0,0,1,18097,1.85888)">
                    <path d="M9106.24,750.226C9106.24,750.226 9121.7,714.397 9131.47,709.07C9141.24,703.742 9140.52,717.701 9139.81,725.475C9139.1,733.249 9134.8,758.176 9124.11,760.016L9106.24,750.226Z" style="fill:rgb(245,208,145);"/>
                </g>
                <path d="M9046.7,723.154C9037.09,723.326 9038.78,723.461 9026.36,728.885C9013.1,734.671 9003.58,733.725 8991.96,731.613C8980.35,729.502 8975.73,712.996 8975.29,701.377C8974.84,689.758 8980.88,691.395 8995.06,690.026C9009.23,688.657 9048.78,689.193 9048.78,689.193L9049.22,689.188C9053.62,689.134 9089.21,688.742 9102.5,690.026C9116.67,691.395 9122.71,689.758 9122.27,701.377C9121.82,712.996 9117.2,729.502 9105.59,731.613C9093.98,733.725 9084.45,734.671 9071.19,728.885C9057.94,723.099 9060.76,723.331 9048.78,723.117L9046.7,723.154Z" style="fill:rgb(61,87,128);"/>
                <path d="M9048.78,727.698C9053.05,727.693 9055.14,727.053 9066.13,725.607C9077.17,724.154 9080.65,735.192 9080.65,735.192C9101.27,735.192 9114.64,753.49 9114.64,753.49C9119.57,752.619 9136.42,755.233 9140.78,776.145C9145.13,797.058 9141.31,809.947 9120.89,839.446C9101.64,867.251 8995.91,867.251 8976.66,839.446C8956.24,809.947 8952.42,797.058 8956.78,776.145C8961.13,755.233 8977.98,752.619 8982.92,753.49C8982.92,753.49 8996.28,735.192 9016.9,735.192C9016.9,735.192 9020.39,724.154 9031.42,725.607C9042.42,727.053 9044.5,727.693 9048.78,727.698Z" style="fill:rgb(253,214,147);"/>
                <path d="M9048.76,615.651L9048.78,615.646C9111.22,615.012 9130.9,670.141 9131.92,676.983C9132.95,683.826 9127.16,682.53 9127.16,682.53C9111.88,658.612 9048.78,657.255 9048.78,657.255L9048.78,657.255L9048.78,657.264C9048.78,657.264 8985.67,658.612 8970.4,682.53C8970.4,682.53 8964.6,683.826 8965.63,676.983C8966.66,670.142 8986.33,615.028 9048.76,615.651Z" style="fill:rgb(255,75,80);"/>
                <clipPath id="_clip3">
                    <path d="M9048.76,615.651L9048.78,615.646C9111.22,615.012 9130.9,670.141 9131.92,676.983C9132.95,683.826 9127.16,682.53 9127.16,682.53C9111.88,658.612 9048.78,657.255 9048.78,657.255L9048.78,657.255L9048.78,657.264C9048.78,657.264 8985.67,658.612 8970.4,682.53C8970.4,682.53 8964.6,683.826 8965.63,676.983C8966.66,670.142 8986.33,615.028 9048.76,615.651Z"/>
                </clipPath>
                <g clip-path="url(#_clip3)">
                    <g transform="matrix(1,0,0,1,0.13799,2.41753)">
                        <ellipse cx="9048.64" cy="615.706" rx="12.354" ry="4.39" style="fill:rgb(219,219,219);"/>
                    </g>
                    <g transform="matrix(1,0,0,3.07523,0.13799,-1244.64)">
                        <ellipse cx="9048.64" cy="615.706" rx="12.354" ry="4.39" style="fill:rgb(219,219,219);"/>
                    </g>
                    <g transform="matrix(0.45296,0.51267,-2.30457,2.03616,6332.64,-5257.35)">
                        <ellipse cx="9048.64" cy="615.706" rx="12.354" ry="4.39" style="fill:rgb(219,219,219);"/>
                    </g>
                    <g transform="matrix(-0.45296,0.51267,2.30457,2.03616,11764.1,-5257.35)">
                        <ellipse cx="9048.64" cy="615.706" rx="12.354" ry="4.39" style="fill:rgb(219,219,219);"/>
                    </g>
                    <g transform="matrix(-0.354534,0.165419,1.30028,2.78681,11524.7,-2551.47)">
                        <ellipse cx="9048.64" cy="615.706" rx="12.354" ry="4.39" style="fill:rgb(219,219,219);"/>
                    </g>
                    <g transform="matrix(0.354534,0.165419,-1.30028,2.78681,6572.82,-2551.47)">
                        <ellipse cx="9048.64" cy="615.706" rx="12.354" ry="4.39" style="fill:rgb(219,219,219);"/>
                    </g>
                </g>
            </g>
        </g>
    </g>
</svg>
