<?xml version="1.0" encoding="UTF-8" standalone="no"?>
<!DOCTYPE svg PUBLIC "-//W3C//DTD SVG 1.1//EN" "http://www.w3.org/Graphics/SVG/1.1/DTD/svg11.dtd">
<svg width="100%" height="100%" viewBox="0 0 210 205" version="1.1" xmlns="http://www.w3.org/2000/svg" xmlns:xlink="http://www.w3.org/1999/xlink" xml:space="preserve" xmlns:serif="http://www.serif.com/" style="fill-rule:evenodd;clip-rule:evenodd;stroke-linecap:round;stroke-linejoin:round;stroke-miterlimit:1.5;">
    <g transform="matrix(1,0,0,1,-4909.21916,-13159.572436)">
        <g transform="matrix(0.953332,0,0,0.953332,952.016182,7486.485751)">
            <g transform="matrix(0.300535,0,0,0.301347,3935.299136,4411.872784)">
                <path d="M808.747,5446.966C728.435,5427.067 725.094,5400.806 737.266,5393.271C757.402,5380.806 809.873,5316.296 809.873,5316.296L810.476,5316.321C810.07,5316.167 809.873,5316.086 809.873,5316.086C842.854,5219.141 884.514,5155.088 884.514,5155.088C941.719,5129.279 1030.987,5123.188 1066.781,5121.762C1071.951,5121.475 1077.159,5121.33 1082.4,5121.33C1087.642,5121.33 1092.85,5121.475 1098.02,5121.762C1133.814,5123.188 1223.081,5129.279 1280.287,5155.088C1280.287,5155.088 1321.947,5219.141 1354.928,5316.086C1354.928,5316.086 1354.73,5316.167 1354.324,5316.321L1354.928,5316.296C1354.928,5316.296 1407.399,5380.806 1427.535,5393.271C1439.707,5400.806 1436.366,5427.067 1356.054,5446.966C1349.155,5490.526 1333.524,5534.985 1311.177,5575.641C1318.306,5573.303 1325.113,5570.958 1331.929,5569.061C1364.672,5559.947 1377.182,5597.101 1322.624,5613.412C1310.91,5616.914 1298.472,5617.23 1286.161,5615.568C1242.513,5676.974 1182.718,5723.927 1115.602,5735.838C1100.171,5761.184 1093.247,5802.63 1082.4,5802.647C1072.167,5802.664 1062.696,5757.273 1049.203,5735.838C982.085,5723.929 922.288,5676.975 878.64,5615.568C866.329,5617.23 853.891,5616.914 842.176,5613.412C787.619,5597.101 800.128,5559.947 832.871,5569.061C839.687,5570.958 846.495,5573.303 853.624,5575.641C831.277,5534.985 815.646,5490.526 808.747,5446.966Z" style="stroke:black;stroke-width:29.05px;"/>
            </g>
            <g>
                <g transform="matrix(0.300535,0,0,0.301347,3935.299136,4411.872784)">
                    <path d="M1082.4,5121.33C1235.626,5121.33 1360.026,5245.365 1360.026,5398.141C1360.026,5550.917 1235.626,5738.78 1082.4,5738.78C929.175,5738.78 804.775,5550.917 804.775,5398.141C804.775,5245.365 929.175,5121.33 1082.4,5121.33Z" style="fill:rgb(222,179,149);"/>
                </g>
                <g transform="matrix(0.083027,0,-0,-0.064201,4129.022583,6487.814878)">
                    <path d="M1584.731,5098.534C1624.068,5098.617 1649.151,5293.888 1705.225,5412.796C1624.896,5458.468 1544.566,5458.308 1464.237,5412.796C1513.255,5312.469 1547.607,5098.455 1584.731,5098.534Z" style="fill:rgb(196,196,188);"/>
                </g>
                <g transform="matrix(0.278219,0.113647,0.106924,-0.261759,3446.779577,7442.407879)">
                    <path d="M701.409,5461.719C701.409,5461.719 656.39,5381.404 599.699,5375.568C543.008,5369.733 540.502,5411.417 574.269,5415.586C608.036,5419.754 645.552,5413.646 701.409,5461.719Z" style="fill:rgb(196,196,188);"/>
                </g>
                <g transform="matrix(-0.278219,0.113647,-0.106924,-0.261759,5074.417284,7442.407879)">
                    <path d="M701.409,5461.719C701.409,5461.719 656.39,5381.404 599.699,5375.568C543.008,5369.733 540.502,5411.417 574.269,5415.586C608.036,5419.754 645.552,5413.646 701.409,5461.719Z" style="fill:rgb(196,196,188);"/>
                </g>
                <g transform="matrix(0.200241,0,0,0.200241,3611.571985,4948.6492)">
                    <path d="M3241.23,5336.809L3650.258,5319.969C3650.258,5319.969 3729.01,5417.051 3759.231,5435.809C3789.453,5454.567 3755.96,5550.442 3241.23,5552.526C2726.5,5550.442 2693.008,5454.567 2723.229,5435.809C2753.45,5417.051 2832.202,5319.969 2832.202,5319.969L3241.23,5336.809Z" style="fill:rgb(145,145,145);"/>
                </g>
                <g transform="matrix(0.200241,0,0,0.200241,3611.571985,4948.6492)">
                    <path d="M3241.23,5026.559C3241.23,5026.559 3428.81,5027.862 3538.232,5077.362C3538.232,5077.362 3600.758,5173.758 3650.258,5319.653C3650.258,5319.653 3548.653,5361.337 3241.23,5367.851C2933.808,5361.337 2832.202,5319.653 2832.202,5319.653C2881.702,5173.758 2944.229,5077.362 2944.229,5077.362C3053.65,5027.862 3241.23,5026.559 3241.23,5026.559Z" style="fill:rgb(152,152,144);"/>
                </g>
                <g transform="matrix(1.252821,0,0,1.289932,-1055.086526,-1753.341274)">
                    <path d="M4239.88,6077.792C4239.184,6081.549 4235.758,6084.405 4231.642,6084.405C4227.025,6084.405 4223.276,6080.809 4223.276,6076.381C4223.276,6071.952 4227.025,6068.356 4231.642,6068.356C4235.769,6068.356 4239.202,6071.228 4239.885,6074.999C4240.982,6074.689 4243.124,6074.325 4246.065,6074.961C4246.765,6071.208 4250.188,6068.356 4254.301,6068.356C4258.918,6068.356 4262.667,6071.952 4262.667,6076.381C4262.667,6080.809 4258.918,6084.405 4254.301,6084.405C4250.157,6084.405 4246.713,6081.51 4246.05,6077.715C4244.541,6077.509 4242.085,6077.316 4239.88,6077.792Z"/>
                    <clipPath id="_clip1">
                        <path d="M4239.88,6077.792C4239.184,6081.549 4235.758,6084.405 4231.642,6084.405C4227.025,6084.405 4223.276,6080.809 4223.276,6076.381C4223.276,6071.952 4227.025,6068.356 4231.642,6068.356C4235.769,6068.356 4239.202,6071.228 4239.885,6074.999C4240.982,6074.689 4243.124,6074.325 4246.065,6074.961C4246.765,6071.208 4250.188,6068.356 4254.301,6068.356C4258.918,6068.356 4262.667,6071.952 4262.667,6076.381C4262.667,6080.809 4258.918,6084.405 4254.301,6084.405C4250.157,6084.405 4246.713,6081.51 4246.05,6077.715C4244.541,6077.509 4242.085,6077.316 4239.88,6077.792Z"/>
                    </clipPath>
                    <g clip-path="url(#_clip1)">
                        <g transform="matrix(0.814753,0,0,0.814753,806.556467,1125.630278)">
                            <ellipse cx="4231.642" cy="6076.381" rx="8.366" ry="8.025" style="fill:rgb(150,150,150);"/>
                        </g>
                        <g transform="matrix(0.814753,0,0,0.814753,783.898393,1125.630278)">
                            <ellipse cx="4231.642" cy="6076.381" rx="8.366" ry="8.025" style="fill:rgb(150,150,150);"/>
                        </g>
                    </g>
                </g>
            </g>
        </g>
    </g>
</svg>
