<?xml version="1.0" encoding="UTF-8" standalone="no"?>
<!DOCTYPE svg PUBLIC "-//W3C//DTD SVG 1.1//EN" "http://www.w3.org/Graphics/SVG/1.1/DTD/svg11.dtd">
<svg width="100%" height="100%" viewBox="0 0 256 259" version="1.1" xmlns="http://www.w3.org/2000/svg" xmlns:xlink="http://www.w3.org/1999/xlink" xml:space="preserve" xmlns:serif="http://www.serif.com/" style="fill-rule:evenodd;clip-rule:evenodd;stroke-linecap:round;stroke-linejoin:round;stroke-miterlimit:1.5;">
    <g transform="matrix(1,0,0,1,-5287.575959,-13331.909779)">
        <g transform="matrix(0.300535,0,0,0.300535,4933.799514,11788.108108)">
            <g transform="matrix(1,0,0,1.002702,519.924361,128.777896)">
                <path d="M825.206,5293.799C859.785,5209.242 935.112,5145.504 1026.808,5126.891C1046.089,5061.339 1063.9,5008.357 1082.4,5008.396C1102.71,5008.438 1119.22,5060.373 1138.158,5126.925C1229.779,5145.581 1305.036,5209.293 1339.595,5293.799C1366.706,5294.442 1402.123,5289.471 1419.428,5262.69C1449.65,5215.921 1505.924,5139.013 1491.334,5214.882C1479.009,5278.973 1447.35,5453.571 1353.636,5460.501C1329.211,5583.415 1237.345,5709.592 1122.89,5734.401C1104.06,5774.312 1095.623,5839.715 1082.4,5839.743C1069.923,5839.769 1058.377,5768.114 1041.913,5734.402C927.457,5709.594 835.59,5583.416 811.165,5460.501C717.451,5453.571 685.791,5278.973 673.467,5214.882C658.877,5139.013 715.151,5215.921 745.372,5262.69C762.678,5289.471 798.095,5294.442 825.206,5293.799Z" style="stroke:black;stroke-width:27.69px;"/>
            </g>
            <g>
                <g transform="matrix(1,0,0,1.002702,519.924361,128.777896)">
                    <path d="M1082.4,5121.33C1235.626,5121.33 1360.026,5245.365 1360.026,5398.141C1360.026,5550.917 1235.626,5738.78 1082.4,5738.78C929.175,5738.78 804.775,5550.917 804.775,5398.141C804.775,5245.365 929.175,5121.33 1082.4,5121.33Z" style="fill:rgb(222,179,149);"/>
                </g>
                <g transform="matrix(1,0,0,1,17.593585,52.173323)">
                    <path d="M1584.731,5098.534C1624.068,5098.617 1649.151,5293.888 1705.225,5412.796C1624.896,5458.468 1544.566,5458.308 1464.237,5412.796C1513.255,5312.469 1547.607,5098.455 1584.731,5098.534Z" style="fill:rgb(129,122,118);"/>
                </g>
                <g transform="matrix(0.336462,0,0,-0.336462,1069.123454,7699.762346)">
                    <path d="M1584.731,5098.534C1624.068,5098.617 1649.151,5293.888 1705.225,5412.796C1624.896,5458.468 1544.566,5458.308 1464.237,5412.796C1513.255,5312.469 1547.607,5098.455 1584.731,5098.534Z" style="fill:rgb(129,122,118);"/>
                </g>
                <g transform="matrix(1,0,0,1,553.790499,196.560761)">
                    <path d="M827.181,5236.223C827.181,5236.223 741.727,5256.023 711.506,5209.128C681.285,5162.233 625.011,5085.117 639.6,5161.191C654.19,5237.265 695.874,5468.614 835.518,5392.54C835.518,5392.54 861.57,5314.381 827.181,5236.223Z" style="fill:rgb(129,122,118);"/>
                </g>
                <g transform="matrix(-1,0,0,1,2650.85886,196.560761)">
                    <path d="M827.181,5236.223C827.181,5236.223 741.727,5256.023 711.506,5209.128C681.285,5162.233 625.011,5085.117 639.6,5161.191C654.19,5237.265 695.874,5468.614 835.518,5392.54C835.518,5392.54 861.57,5314.381 827.181,5236.223Z" style="fill:rgb(129,122,118);"/>
                </g>
                <g transform="matrix(1,0,0,0.639449,881.209915,2111.757692)">
                    <path d="M701.409,5461.719C701.409,5461.719 656.39,5381.404 599.699,5375.568C543.008,5369.733 540.502,5411.417 574.269,5415.586C608.036,5419.754 645.552,5413.646 701.409,5461.719Z" style="fill:rgb(129,122,118);"/>
                </g>
                <g transform="matrix(-1,0,0,0.639449,2323.439444,2111.757692)">
                    <path d="M701.409,5461.719C701.409,5461.719 656.39,5381.404 599.699,5375.568C543.008,5369.733 540.502,5411.417 574.269,5415.586C608.036,5419.754 645.552,5413.646 701.409,5461.719Z" style="fill:rgb(129,122,118);"/>
                </g>
                <g transform="matrix(1,0,0,1,-1.982136,0)">
                    <path d="M1583.158,5669.796C1570.731,5689.717 1535.185,5704.114 1493.322,5704.114C1441.133,5704.114 1398.762,5681.74 1398.762,5654.181C1398.762,5626.622 1441.133,5604.248 1493.322,5604.248C1545.511,5604.248 1587.881,5626.622 1587.881,5654.181C1587.881,5654.798 1587.86,5655.412 1587.818,5656.024C1595.127,5657.996 1608.247,5660.426 1620.897,5657.153C1620.788,5656.17 1620.732,5655.179 1620.732,5654.181C1620.732,5626.622 1663.103,5604.248 1715.292,5604.248C1767.481,5604.248 1809.851,5626.622 1809.851,5654.181C1809.851,5681.74 1767.481,5704.114 1715.292,5704.114C1673.71,5704.114 1638.361,5689.91 1625.71,5670.197C1615.192,5669.425 1598.231,5668.606 1583.158,5669.796Z" style="fill:rgb(70,70,70);"/>
                </g>
                <g transform="matrix(0.814993,0,0,0.747281,274.293305,1428.916628)">
                    <ellipse cx="1493.322" cy="5654.181" rx="94.559" ry="49.933" style="fill:rgb(142,137,100);"/>
                </g>
                <g transform="matrix(0.814993,0,0,0.747281,496.788352,1428.916628)">
                    <ellipse cx="1493.322" cy="5654.181" rx="94.559" ry="49.933" style="fill:rgb(142,137,100);"/>
                </g>
            </g>
        </g>
    </g>
</svg>
