<?xml version="1.0" encoding="UTF-8" standalone="no"?>
<!DOCTYPE svg PUBLIC "-//W3C//DTD SVG 1.1//EN" "http://www.w3.org/Graphics/SVG/1.1/DTD/svg11.dtd">
<svg width="100%" height="100%" viewBox="0 0 196 262" version="1.1" xmlns="http://www.w3.org/2000/svg" xmlns:xlink="http://www.w3.org/1999/xlink" xml:space="preserve" xmlns:serif="http://www.serif.com/" style="fill-rule:evenodd;clip-rule:evenodd;stroke-linecap:round;stroke-linejoin:round;stroke-miterlimit:1.5;">
    <g transform="matrix(1,0,0,1,-5719.38,-13250.8)">
        <g transform="matrix(0.708563,0,0,0.708563,3284.9,5677.61)">
            <path d="M3554.36,10714.1C3538.09,10690.4 3485.89,10724.4 3485.89,10724.4C3529.78,10670.7 3569.57,10702.2 3580.41,10712.8L3580.54,10712.8C3582.09,10712.8 3583.65,10712.9 3585.21,10713C3588.33,10713.2 3591.45,10713.5 3594.56,10713.9C3601.75,10715 3608.86,10716.6 3615.67,10719.2C3618.87,10720.4 3622.01,10721.7 3625.05,10723.3C3628.14,10724.8 3631.14,10726.6 3634.01,10728.6C3637.38,10730.9 3640.57,10733.4 3643.56,10736.2C3645.75,10738.2 3647.83,10740.4 3649.79,10742.6C3651.23,10744.3 3652.6,10746 3653.91,10747.8C3654.86,10749 3655.78,10750.3 3656.67,10751.7C3662.3,10760.2 3666.53,10769.5 3669.57,10779.2C3670.03,10780.7 3670.46,10782.2 3670.86,10783.6C3671.41,10785.6 3671.91,10787.6 3672.37,10789.6C3673.01,10792.5 3673.56,10795.3 3674.02,10798.1C3674.82,10803 3675.37,10808 3675.66,10812.9L3675.66,10813.1L3677.97,10813.1C3678.77,10813.1 3679.52,10813.3 3680.14,10813.7C3680.53,10813.3 3681.08,10813.1 3681.69,10813.1L3685.97,10813.1C3687.14,10813.1 3688.1,10814 3688.1,10815.2L3688.1,10819.7C3693.61,10823.6 3698.96,10828.6 3703.97,10835.8C3705.59,10856.5 3705.78,10877.5 3703.97,10898.9C3699.43,10908.5 3694.11,10914 3688.1,10915.8L3688.1,10919.5C3688.1,10920.7 3687.14,10921.7 3685.97,10921.7L3681.69,10921.7C3681.08,10921.7 3680.53,10921.4 3680.14,10921C3679.52,10921.4 3678.77,10921.7 3677.97,10921.7L3670.55,10921.7C3669.39,10931.4 3668.28,10940.6 3661.58,10961.4C3652.11,10990.8 3646.27,11010.5 3640.79,11020.3C3635.31,11030.1 3632.27,11051.5 3632.27,11051.5C3627.84,11047.8 3626.16,11042.5 3626.16,11042.5C3622.96,11044.8 3619.72,11047.4 3619.72,11047.4C3612.64,11042.2 3608.04,11037 3608.04,11037C3615.03,11023.5 3613.56,11010.2 3626.83,10982.6C3628.97,10978.2 3628.43,10970.3 3630.75,10959L3583.32,11007.3C3583.32,11007.3 3553.66,11008.4 3534.61,10992.7C3523.35,10983.4 3506.86,10979.4 3495.25,10977.6C3492.68,11004.9 3489.29,11017.9 3485.11,11026.1C3479.39,11037.3 3435.48,11053.4 3466.61,10994.1C3476.96,10974.4 3473.36,10961.5 3475.88,10921.7L3468.96,10921.7C3468.16,10921.7 3467.41,10921.4 3466.79,10921C3466.4,10921.4 3465.85,10921.7 3465.24,10921.7L3460.97,10921.7C3459.78,10921.7 3458.83,10920.7 3458.83,10919.5L3458.83,10915.8C3452.82,10914 3447.51,10908.5 3442.95,10898.9C3441.16,10877.5 3441.34,10856.5 3442.95,10835.8C3447.97,10828.6 3453.32,10823.6 3458.83,10819.7L3458.83,10815.2C3458.83,10814 3459.78,10813.1 3460.97,10813.1L3465.24,10813.1C3465.57,10813.1 3465.89,10813.1 3466.18,10813.3C3466.17,10813.1 3466.17,10813 3466.16,10812.9C3465.3,10784.4 3477.55,10724 3554.36,10714.1Z" style="stroke:black;stroke-width:11.76px;"/>
            <g>
                <path d="M3481.48,10976.3C3481.48,10976.3 3515.55,10977 3534.61,10992.7C3553.66,11008.4 3583.32,11007.3 3583.32,11007.3L3640.57,10949L3667.26,10876.5L3485.89,10864.9L3481.48,10976.3Z" style="fill:rgb(186,101,51);"/>
                <g transform="matrix(0.96201,0,0,1,138.94,0)">
                    <path d="M3565.23,10740.9L3635.93,10750.2L3656.01,10780.4L3650.59,10894.3C3637.14,10968.3 3565.08,10976.3 3565.08,10976.3L3565.08,10976.3L3565.08,10976.3C3565.08,10976.3 3493.02,10968.3 3479.56,10894.3L3474.54,10788.8L3497.87,10749.7L3564.91,10740.9L3564.92,10740.9L3565.08,10740.9L3565.23,10740.9L3565.23,10740.9Z" style="fill:rgb(225,200,179);"/>
                </g>
                <g transform="matrix(0.830252,0,0,0.830252,606.801,1855.75)">
                    <path d="M3585.08,10671.5C3585.08,10671.5 3529.82,10605.9 3467.74,10681.9C3467.74,10681.9 3538.07,10636 3553.14,10675.1L3585.08,10671.5Z" style="fill:rgb(179,97,48);"/>
                </g>
                <g transform="matrix(0.743224,0,0,1,933.601,2.07572)">
                    <path d="M3697.74,10814.9C3697.74,10812.7 3695.4,10811 3692.51,10811L3682.05,10811C3679.17,10811 3676.83,10812.7 3676.83,10814.9L3676.83,10915.7C3676.83,10917.9 3679.17,10919.6 3682.05,10919.6L3692.51,10919.6C3695.4,10919.6 3697.74,10917.9 3697.74,10915.7L3697.74,10814.9Z" style="fill:rgb(118,0,5);"/>
                </g>
                <g transform="matrix(-2.20343e-16,1.80167,-0.218848,-8.85832e-17,6073.5,4141.35)">
                    <path d="M3760.27,10906.7L3706.15,10906.7C3708.4,10879.1 3711.34,10852.3 3715.72,10827.3C3727.18,10819.9 3738.82,10819.1 3750.71,10827.3C3756.49,10849.8 3759.59,10876.4 3760.27,10906.7Z" style="fill:rgb(59,50,56);"/>
                </g>
                <g transform="matrix(1.01633,0,0,1,-78.5545,2.07572)">
                    <path d="M3706.15,10813.1C3706.15,10811.9 3705.21,10811 3704.05,10811L3699.84,10811C3698.68,10811 3697.74,10811.9 3697.74,10813.1L3697.74,10917.5C3697.74,10918.6 3698.68,10919.6 3699.84,10919.6L3704.05,10919.6C3705.21,10919.6 3706.15,10918.6 3706.15,10917.5L3706.15,10813.1Z" style="fill:rgb(71,60,68);"/>
                </g>
                <g transform="matrix(-0.743224,0,0,1,6213.33,2.07572)">
                    <path d="M3697.74,10814.9C3697.74,10812.7 3695.4,10811 3692.51,10811L3682.05,10811C3679.17,10811 3676.83,10812.7 3676.83,10814.9L3676.83,10915.7C3676.83,10917.9 3679.17,10919.6 3682.05,10919.6L3692.51,10919.6C3695.4,10919.6 3697.74,10917.9 3697.74,10915.7L3697.74,10814.9Z" style="fill:rgb(118,0,5);"/>
                </g>
                <g transform="matrix(2.20343e-16,1.80167,0.218848,-8.85832e-17,1073.43,4141.35)">
                    <path d="M3760.27,10906.7L3706.15,10906.7C3708.4,10879.1 3711.34,10852.3 3715.72,10827.3C3727.18,10819.9 3738.82,10819.1 3750.71,10827.3C3756.49,10849.8 3759.59,10876.4 3760.27,10906.7Z" style="fill:rgb(59,50,56);"/>
                </g>
                <g transform="matrix(-1.01633,0,0,1,7225.48,2.07572)">
                    <path d="M3706.15,10813.1C3706.15,10811.9 3705.21,10811 3704.05,10811L3699.84,10811C3698.68,10811 3697.74,10811.9 3697.74,10813.1L3697.74,10917.5C3697.74,10918.6 3698.68,10919.6 3699.84,10919.6L3704.05,10919.6C3705.21,10919.6 3706.15,10918.6 3706.15,10917.5L3706.15,10813.1Z" style="fill:rgb(71,60,68);"/>
                </g>
                <g transform="matrix(0.830252,0,0,0.830252,606.801,1855.75)">
                    <path d="M3577.59,10815.3C3577.59,10815.3 3584.19,10830.3 3586.49,10835.1L3601.42,10835.1C3601.42,10835.1 3611.47,10797.8 3610.89,10774.9C3610.89,10774.9 3621.8,10813.6 3621.8,10833.7L3637.88,10831.4C3637.88,10831.4 3640.75,10827.1 3640.46,10823.9C3640.46,10823.9 3643.33,10828 3642.47,10832C3642.47,10832 3653.78,10841.2 3658.17,10830L3658.17,10845.8C3658.17,10845.8 3664.05,10855 3669.74,10854.6C3669.74,10854.6 3674.56,10896 3655.72,10929.2C3636.88,10962.4 3641.89,10983.7 3637.49,10992.9C3621.5,11026.1 3623.28,11042.2 3614.85,11058.3C3614.85,11058.3 3620.39,11064.6 3628.92,11070.9C3628.92,11070.9 3632.83,11067.8 3636.68,11065C3636.68,11065 3638.7,11071.4 3644.03,11075.8C3644.03,11075.8 3647.7,11050 3654.3,11038.3C3660.9,11026.5 3667.94,11002.7 3679.34,10967.4C3692.14,10927.6 3688,10923 3694.03,10895.4C3700.06,10867.9 3696.95,10817.6 3696.5,10793.8C3696.05,10770.1 3687.08,10666 3573.6,10667.8C3460.12,10669.6 3442.85,10751.5 3443.97,10788.5C3445.09,10825.5 3459.21,10867 3455.84,10917C3452.48,10966.9 3457.18,10982.6 3444.51,11006.7C3407.02,11078.1 3459.9,11058.8 3466.79,11045.3C3473.68,11031.8 3478.78,11007.4 3482.01,10943.2C3485.24,10879 3476.02,10839 3476.02,10839C3476.02,10839 3502.55,10835.7 3515.47,10831.8C3515.47,10831.8 3514.39,10800.2 3520.5,10779.4C3520.5,10779.4 3526.95,10810.6 3529.83,10829.6L3544.18,10832.5C3544.18,10832.5 3547.41,10822.5 3547.41,10815.3C3547.41,10815.3 3549.56,10823.9 3551,10835L3574.32,10836.5L3577.59,10815.3Z" style="fill:rgb(198,108,55);"/>
                </g>
                <path d="M3578.17,10865.9C3583.72,10853.9 3597.41,10846.5 3609.75,10844.4C3630.99,10840.6 3650.8,10854.4 3650.8,10854.4C3661.42,10862.4 3659.98,10882.8 3650.22,10902.1C3640.46,10921.3 3601.71,10930.5 3582.47,10898.9C3578.86,10893 3576.82,10887.5 3576.03,10882.5C3572.3,10879.4 3565.6,10876.3 3558.01,10883.4C3557.12,10888.1 3555.11,10893.3 3551.72,10898.9C3532.48,10930.5 3493.73,10921.3 3483.97,10902.1C3474.21,10882.8 3472.77,10862.4 3483.39,10854.4C3483.39,10854.4 3503.2,10840.6 3524.45,10844.4C3536.82,10846.5 3550.55,10854 3556.07,10866C3561.26,10867.2 3569.81,10868.3 3578.17,10865.9ZM3490.17,10859.9C3490.17,10859.9 3506.02,10848.8 3523.02,10851.8C3540.01,10854.8 3560.22,10870.2 3544.84,10895.5C3529.45,10920.7 3498.44,10913.4 3490.63,10898C3482.82,10882.6 3481.67,10866.3 3490.17,10859.9ZM3644.02,10859.9C3644.02,10859.9 3628.17,10848.8 3611.18,10851.8C3594.18,10854.8 3573.97,10870.2 3589.36,10895.5C3604.74,10920.7 3635.75,10913.4 3643.56,10898C3651.37,10882.6 3652.52,10866.3 3644.02,10859.9Z" style="fill:rgb(23,13,12);"/>
            </g>
        </g>
    </g>
</svg>
