<?xml version="1.0" encoding="UTF-8" standalone="no"?>
<!DOCTYPE svg PUBLIC "-//W3C//DTD SVG 1.1//EN" "http://www.w3.org/Graphics/SVG/1.1/DTD/svg11.dtd">
<svg width="100%" height="100%" viewBox="0 0 208 201" version="1.1" xmlns="http://www.w3.org/2000/svg" xmlns:xlink="http://www.w3.org/1999/xlink" xml:space="preserve" xmlns:serif="http://www.serif.com/" style="fill-rule:evenodd;clip-rule:evenodd;stroke-linecap:round;stroke-linejoin:round;stroke-miterlimit:1.5;">
    <g transform="matrix(1,0,0,1,-4307.84,-13762.6)">
        <g transform="matrix(0.473614,0,0,0.473614,3723.2,8404.25)">
            <path d="M1273.93,11484.6C1276.56,11476.5 1279.86,11468.5 1284.01,11461.5C1303.48,11428.3 1325.38,11408.2 1338.04,11392.3C1350.08,11377.2 1391.62,11327.9 1448.43,11322.7C1451.82,11322.4 1454.74,11322.4 1457.3,11322.7C1514.11,11327.9 1555.65,11377.2 1567.69,11392.3C1580.35,11408.2 1602.25,11428.3 1621.72,11461.5C1641.19,11494.6 1642.13,11547.6 1642.13,11547.6C1642.13,11547.6 1642.12,11547.6 1642.1,11547.6C1650.39,11551 1664.61,11559.9 1662.88,11580.5C1660.7,11606.4 1655.32,11646.5 1595.53,11654C1565.03,11699 1513.49,11728.6 1455.09,11728.6C1396.9,11728.6 1345.52,11699.2 1314.98,11654.4C1251.17,11648.3 1245.58,11607 1243.36,11580.5C1241.92,11563.3 1251.52,11554.3 1259.56,11549.8C1259.49,11548.7 1259.43,11547.5 1259.38,11546.4C1258.03,11514.6 1265.42,11495.7 1273.93,11484.6Z" style="stroke:black;stroke-width:17.6px;"/>
            <g>
                <path d="M1636.41,11545.8C1636.41,11545.8 1665.31,11551.6 1662.88,11580.5C1660.44,11609.5 1653.97,11656.4 1571.23,11655.2L1610.77,11533.5L1636.41,11545.8Z" style="fill:rgb(216,130,56);"/>
                <g transform="matrix(-1,0,0,1,2906.24,0)">
                    <path d="M1636.41,11545.8C1636.41,11545.8 1665.31,11551.6 1662.88,11580.5C1660.44,11609.5 1653.97,11656.4 1571.23,11655.2L1610.77,11533.5L1636.41,11545.8Z" style="fill:rgb(216,130,56);"/>
                </g>
                <g transform="matrix(1.01229,0,0,1.71995,-11.1803,-8411.85)">
                    <ellipse cx="1448.47" cy="11611.3" rx="167.455" ry="98.557" style="fill:rgb(227,129,45);"/>
                    <clipPath id="_clip1">
                        <ellipse cx="1448.47" cy="11611.3" rx="167.455" ry="98.557"/>
                    </clipPath>
                    <g clip-path="url(#_clip1)">
                        <g transform="matrix(0.98786,0,0,0.581411,11.0446,4890.74)">
                            <path d="M1411.28,11732.1C1411.28,11732.1 1409.46,11689 1414.13,11676.1C1414.13,11676.1 1438.64,11681 1452.86,11681.3L1453.2,11681.3C1467.47,11680.9 1491.59,11676.1 1491.59,11676.1C1496.26,11689 1494.45,11732.1 1494.45,11732.1L1452.86,11749.1L1411.28,11732.1Z" style="fill:rgb(216,130,56);"/>
                        </g>
                        <g transform="matrix(0.98786,0,0,0.581411,10.0827,4894.98)">
                            <path d="M1386.02,11714.9C1386.02,11714.9 1342.93,11659.9 1381.6,11565.4L1372.44,11563C1372.44,11563 1333.45,11654.4 1377.58,11712.5L1386.02,11714.9Z" style="fill:rgb(118,72,46);"/>
                        </g>
                        <g transform="matrix(-0.98786,0,0,0.581411,2882.46,4894.98)">
                            <path d="M1386.02,11714.9C1386.02,11714.9 1342.93,11659.9 1381.6,11565.4L1372.44,11563C1372.44,11563 1333.45,11652.3 1377.58,11712.5L1386.02,11714.9Z" style="fill:rgb(118,72,46);"/>
                        </g>
                    </g>
                </g>
                <g transform="matrix(1.04179,0,0,1,-68.6277,0)">
                    <path d="M1464.71,11322.7C1519.24,11327.9 1559.12,11377.2 1570.68,11392.3C1582.82,11408.2 1603.85,11428.3 1622.54,11461.5C1641.23,11494.6 1642.13,11547.6 1642.13,11547.6C1642.13,11547.6 1639.97,11552.9 1603.17,11566.3C1571.59,11577.8 1484.49,11577.7 1460.46,11577.5C1436.42,11577.7 1349.32,11577.8 1317.74,11566.3C1280.94,11552.9 1278.78,11547.6 1278.78,11547.6C1278.78,11547.6 1279.68,11494.6 1298.37,11461.5C1317.06,11428.3 1338.09,11408.2 1350.24,11392.3C1361.79,11377.2 1401.67,11327.9 1456.2,11322.7C1459.46,11322.4 1462.26,11322.4 1464.71,11322.7Z" style="fill:rgb(73,160,254);"/>
                    <clipPath id="_clip2">
                        <path d="M1464.71,11322.7C1519.24,11327.9 1559.12,11377.2 1570.68,11392.3C1582.82,11408.2 1603.85,11428.3 1622.54,11461.5C1641.23,11494.6 1642.13,11547.6 1642.13,11547.6C1642.13,11547.6 1639.97,11552.9 1603.17,11566.3C1571.59,11577.8 1484.49,11577.7 1460.46,11577.5C1436.42,11577.7 1349.32,11577.8 1317.74,11566.3C1280.94,11552.9 1278.78,11547.6 1278.78,11547.6C1278.78,11547.6 1279.68,11494.6 1298.37,11461.5C1317.06,11428.3 1338.09,11408.2 1350.24,11392.3C1361.79,11377.2 1401.67,11327.9 1456.2,11322.7C1459.46,11322.4 1462.26,11322.4 1464.71,11322.7Z"/>
                    </clipPath>
                    <g clip-path="url(#_clip2)">
                        <g transform="matrix(0.959885,0,0,1,65.4838,6.88727)">
                            <path d="M1453.27,11485.9C1458.9,11477.7 1477.22,11453.6 1504.78,11445.6C1538.26,11435.8 1567.47,11457.6 1577.98,11472.4C1588.49,11487.2 1589.27,11502.4 1567.86,11510.2C1546.44,11518 1473.24,11516.8 1473.24,11516.8C1470.52,11548.3 1479.08,11587.3 1479.08,11587.3L1456.27,11589.4L1456.27,11590L1453.27,11589.7L1450.27,11590L1450.28,11589.4L1427.46,11587.3C1427.46,11587.3 1436.03,11548.3 1433.3,11516.8C1433.3,11516.8 1360.1,11518 1338.69,11510.2C1317.27,11502.4 1318.05,11487.2 1328.56,11472.4C1339.08,11457.6 1368.28,11435.8 1401.76,11445.6C1429.32,11453.6 1447.64,11477.7 1453.27,11485.9ZM1488.42,11486.1C1488.42,11486.1 1497.77,11476.3 1507.12,11472C1516.46,11467.8 1533.98,11467.4 1541.77,11470.9C1549.56,11474.4 1563.18,11488 1547.22,11489.6C1531.26,11491.1 1502.83,11488 1488.42,11486.1ZM1418.12,11486.1C1418.12,11486.1 1408.77,11476.3 1399.43,11472C1390.08,11467.8 1372.56,11467.4 1364.77,11470.9C1356.99,11474.4 1343.36,11488 1359.32,11489.6C1375.29,11491.1 1403.71,11488 1418.12,11486.1Z" style="fill:rgb(255,209,33);"/>
                        </g>
                    </g>
                </g>
                <g transform="matrix(1.05239,0,0,1.05239,-3738.43,8284.47)">
                    <path d="M4822,3085L4845,3086C4846.17,3085.53 4844.09,3107.14 4862,3110.94L4818,3110L4822,3085Z" style="fill:rgb(229,125,81);"/>
                </g>
                <g transform="matrix(1.05239,0,0,1.05239,-3738.43,8284.47)">
                    <path d="M4868,3030C4868,3030 4885.89,3041.78 4883,3079C4880.11,3116.22 4847.91,3123.5 4845,3087L4823,3085L4805,3052L4834,3033L4868,3030Z" style="fill:rgb(167,90,57);"/>
                </g>
                <g transform="matrix(1.05239,0,0,1.05239,-3738.43,8284.47)">
                    <path d="M4831,3125.3L4886,3128.42C4886,3128.42 4885.91,3169.75 4860,3169C4829.61,3167.33 4814.31,3157.48 4802,3146L4824,3137C4824,3137 4828.79,3135.97 4831,3125.3Z" style="fill:rgb(167,90,57);"/>
                </g>
                <g transform="matrix(1.05239,0,0,1.05239,-3738.43,8284.47)">
                    <path d="M4861,3169C4861,3169 4820.97,3170.16 4822,3110C4823.15,3042.84 4855.79,3029.89 4868,3030L4784,3026C4784,3026 4746.17,3032.67 4749,3099.5C4751.83,3166.33 4791,3166 4791,3166L4861,3169Z" style="fill:rgb(231,114,64);"/>
                </g>
                <g transform="matrix(0.955791,0,0,0.955791,-3282.59,8578.92)">
                    <path d="M4898,3088L5004,3088C5004,3088 5004.13,3108.9 5002,3118L4901,3120C4901,3120 4897.41,3095.49 4898,3088Z" style="fill:rgb(229,125,81);"/>
                </g>
                <g transform="matrix(0.955791,0,0,0.955791,-3282.59,8578.92)">
                    <path d="M4904,3030L4999,3031C4999,3031 4998.36,3106.19 4990,3174L4916,3175C4916,3175 4903.28,3144.64 4904,3030Z" style="fill:rgb(231,114,64);"/>
                </g>
            </g>
        </g>
    </g>
</svg>
