<?xml version="1.0" encoding="UTF-8" standalone="no"?>
<!DOCTYPE svg PUBLIC "-//W3C//DTD SVG 1.1//EN" "http://www.w3.org/Graphics/SVG/1.1/DTD/svg11.dtd">
<svg width="100%" height="100%" viewBox="0 0 162 201" version="1.1" xmlns="http://www.w3.org/2000/svg" xmlns:xlink="http://www.w3.org/1999/xlink" xml:space="preserve" xmlns:serif="http://www.serif.com/" style="fill-rule:evenodd;clip-rule:evenodd;stroke-linecap:round;stroke-linejoin:round;stroke-miterlimit:1.5;">
    <g transform="matrix(1,0,0,1,-4334.396602,-13561.632498)">
        <g transform="matrix(0.359038,0,0,0.359038,3047.122442,9382.474549)">
            <g transform="matrix(1,0,0,1,15.511575,2.809716)">
                <path d="M3595.364,11923.005C3593.159,11888.914 3594.657,11846.718 3600.962,11792.225C3616.199,11660.538 3743.005,11648.205 3794.431,11648.691C3845.857,11648.205 3972.663,11660.538 3987.9,11792.225C3994.205,11846.718 3995.703,11888.914 3993.498,11923.005C3996.38,11924.772 3999.178,11927.426 4001.803,11931.19C4016.585,11952.388 4000.318,11987.094 3975.048,12009.733C3966.436,12030.655 3955.444,12048.165 3943.08,12066.101C3943.08,12066.101 3943.431,12064.773 3944.032,12062.304C3931.307,12092.359 3918.631,12097.832 3871.577,12138.501C3821.349,12181.913 3798.629,12185.046 3794.738,12185.248L3794.737,12185.258C3794.737,12185.258 3794.636,12185.264 3794.431,12185.26C3794.226,12185.264 3794.125,12185.258 3794.125,12185.258L3794.124,12185.248C3790.233,12185.046 3767.513,12181.913 3717.285,12138.501C3670.231,12097.832 3657.555,12092.359 3644.83,12062.304C3645.431,12064.773 3645.782,12066.101 3645.782,12066.101C3633.418,12048.165 3622.426,12030.655 3613.814,12009.733C3588.544,11987.094 3572.277,11952.388 3587.059,11931.19C3589.684,11927.426 3592.482,11924.772 3595.364,11923.005Z" style="stroke:black;stroke-width:23.21px;"/>
            </g>
            <g>
                <g transform="matrix(1,0,0,1,15.511575,2.809716)">
                    <path d="M3638.604,11940.158C3638.604,11940.158 3607.573,11901.773 3587.059,11931.19C3566.545,11960.607 3605.827,12016.038 3645.981,12029.132L3638.604,11940.158Z" style="fill:rgb(233,196,142);"/>
                </g>
                <g transform="matrix(-1,0,0,1,7604.373584,2.809716)">
                    <path d="M3638.604,11940.158C3638.604,11940.158 3607.573,11901.773 3587.059,11931.19C3566.545,11960.607 3605.827,12016.038 3645.981,12029.132L3638.604,11940.158Z" style="fill:rgb(233,196,142);"/>
                </g>
                <g transform="matrix(1,0,0,1,-484.83712,139.856856)">
                    <path d="M4294.473,12048.201C4290.582,12047.999 4267.862,12044.866 4217.633,12001.454C4162.085,11953.443 4154.447,11954.483 4138.08,11906.225C4121.712,11857.967 4113.427,11655.832 4144.115,11646.455C4168.065,11639.137 4256.916,11647.394 4294.78,11651.374C4332.644,11647.394 4421.494,11639.137 4445.444,11646.455C4476.133,11655.832 4467.847,11857.967 4451.48,11906.225C4435.112,11954.483 4427.474,11953.443 4371.926,12001.454C4321.698,12044.866 4298.978,12047.999 4295.086,12048.201L4295.086,12048.211C4295.086,12048.211 4294.985,12048.217 4294.78,12048.213C4294.574,12048.217 4294.473,12048.211 4294.473,12048.211L4294.473,12048.201Z" style="fill:rgb(233,196,142);"/>
                </g>
                <g transform="matrix(1.028165,0,0,1.028165,-603.845008,-204.992855)">
                    <path d="M4292.879,11531.703C4342.896,11531.23 4466.229,11543.225 4481.048,11671.305C4499.695,11832.473 4475.114,11883.047 4437.456,11937.678C4437.456,11937.678 4472.236,11806.058 4440.866,11730.36C4440.866,11730.36 4429.491,11723.731 4427.745,11734.643C4427.745,11734.643 4422.944,11728.096 4420.325,11713.256C4420.325,11713.256 4408.104,11712.383 4405.485,11724.604C4405.485,11724.604 4394.137,11718.057 4392.392,11708.892C4392.392,11708.892 4381.48,11715.002 4374.933,11726.786C4374.933,11726.786 4366.204,11721.985 4362.712,11715.438C4362.712,11715.438 4355.729,11732.897 4347,11738.571C4347,11738.571 4335.652,11730.715 4330.414,11721.549C4330.414,11721.549 4322.79,11737.008 4312.967,11743.31L4292.879,11725.695L4272.791,11743.31C4262.967,11737.008 4255.343,11721.549 4255.343,11721.549C4250.106,11730.715 4238.758,11738.571 4238.758,11738.571C4230.028,11732.897 4223.045,11715.438 4223.045,11715.438C4219.553,11721.985 4210.824,11726.786 4210.824,11726.786C4204.277,11715.002 4193.366,11708.892 4193.366,11708.892C4191.62,11718.057 4180.272,11724.604 4180.272,11724.604C4177.653,11712.383 4165.432,11713.256 4165.432,11713.256C4162.814,11728.096 4158.012,11734.643 4158.012,11734.643C4156.267,11723.731 4144.891,11730.36 4144.891,11730.36C4113.521,11806.058 4148.301,11937.678 4148.301,11937.678C4110.643,11883.047 4086.062,11832.473 4104.709,11671.305C4119.529,11543.225 4242.861,11531.23 4292.879,11531.703Z" style="fill:rgb(89,74,59);"/>
                </g>
                <g transform="matrix(1.067575,0,0,0.986415,-813.621833,284.525382)">
                    <path d="M4307.205,11832.373C4307.205,11832.373 4289.31,11771.07 4189.797,11783.39C4189.797,11783.39 4245.664,11784.362 4307.205,11832.373Z" style="fill:rgb(89,74,59);"/>
                </g>
                <g transform="matrix(-1.067575,0,0,0.986415,8433.506993,284.525382)">
                    <path d="M4307.205,11832.373C4307.205,11832.373 4289.31,11771.07 4189.797,11783.39C4189.797,11783.39 4245.664,11784.362 4307.205,11832.373Z" style="fill:rgb(89,74,59);"/>
                </g>
                <g transform="matrix(2.240709,0,0,2.650594,-6205.117201,-19726.31824)">
                    <path d="M4465.277,11966.406C4463.567,11975.113 4450.806,11981.887 4435.338,11981.887C4418.707,11981.887 4405.205,11974.056 4405.205,11964.411C4405.205,11954.766 4418.707,11946.935 4435.338,11946.935C4450.067,11946.935 4462.341,11953.077 4464.957,11961.181C4467.155,11961.796 4470.553,11962.263 4474.291,11961.006C4477.026,11952.988 4489.23,11946.935 4503.852,11946.935C4520.483,11946.935 4533.985,11954.766 4533.985,11964.411C4533.985,11974.056 4520.483,11981.887 4503.852,11981.887C4488.523,11981.887 4475.853,11975.235 4473.962,11966.641C4472.461,11966.265 4469.63,11965.859 4465.277,11966.406Z" style="fill:rgb(117,42,36);"/>
                    <clipPath id="_clip1">
                        <path d="M4465.277,11966.406C4463.567,11975.113 4450.806,11981.887 4435.338,11981.887C4418.707,11981.887 4405.205,11974.056 4405.205,11964.411C4405.205,11954.766 4418.707,11946.935 4435.338,11946.935C4450.067,11946.935 4462.341,11953.077 4464.957,11961.181C4467.155,11961.796 4470.553,11962.263 4474.291,11961.006C4477.026,11952.988 4489.23,11946.935 4503.852,11946.935C4520.483,11946.935 4533.985,11954.766 4533.985,11964.411C4533.985,11974.056 4520.483,11981.887 4503.852,11981.887C4488.523,11981.887 4475.853,11975.235 4473.962,11966.641C4472.461,11966.265 4469.63,11965.859 4465.277,11966.406Z"/>
                    </clipPath>
                    <g clip-path="url(#_clip1)">
                        <g transform="matrix(0.82766,0,0,0.781309,776.196036,2616.514207)">
                            <ellipse cx="4503.852" cy="11964.411" rx="30.133" ry="17.476" style="fill:rgb(166,143,75);"/>
                        </g>
                        <g transform="matrix(0.82766,0,0,0.781309,707.682352,2616.514207)">
                            <ellipse cx="4503.852" cy="11964.411" rx="30.133" ry="17.476" style="fill:rgb(166,143,75);"/>
                        </g>
                    </g>
                </g>
            </g>
        </g>
    </g>
</svg>
