<?xml version="1.0" encoding="UTF-8" standalone="no"?>
<!DOCTYPE svg PUBLIC "-//W3C//DTD SVG 1.1//EN" "http://www.w3.org/Graphics/SVG/1.1/DTD/svg11.dtd">
<svg width="100%" height="100%" viewBox="0 0 231 227" version="1.1" xmlns="http://www.w3.org/2000/svg" xmlns:xlink="http://www.w3.org/1999/xlink" xml:space="preserve" xmlns:serif="http://www.serif.com/" style="fill-rule:evenodd;clip-rule:evenodd;stroke-linecap:round;stroke-linejoin:round;stroke-miterlimit:1.5;">
    <g transform="matrix(1,0,0,1,-6304.19,-13736.9)">
        <g transform="matrix(1.57807,0,0,1.57807,391.248,-3518.3)">
            <path d="M3857.15,10986C3866.08,10968.9 3861.07,10937 3861.07,10937C3861.07,10937 3871.81,10962.8 3866.99,10976.5C3864.92,10982.4 3861.92,10987.8 3858.66,10992.3C3859.01,10995.3 3859.01,10999.6 3858.8,11004.1L3871.82,11002.1C3871.82,11002.1 3872.65,11012.2 3871.55,11018.7C3875.55,11015.7 3879.77,11012.6 3881.49,11011.7C3881.49,11011.7 3888.3,10997.8 3890.18,10995C3890.18,10995 3888.3,11009.6 3885.05,11014.7C3885.05,11014.7 3873.01,11024.4 3869.03,11026.8C3869.03,11026.8 3871.56,11030.8 3873.11,11032.3C3873.11,11032.3 3869.86,11033.9 3865.8,11035.8C3865.72,11037.3 3865.79,11038.5 3866.01,11039.2C3866.59,11041.1 3858.3,11042 3853.15,11042.4C3852.78,11046.7 3852.62,11050.6 3852.79,11052.7C3853.21,11058 3853.59,11059.8 3850.52,11061C3847.45,11062.2 3843.06,11064.1 3838.53,11070.5C3834,11076.8 3819.88,11075.3 3819.88,11075.3L3819.84,11075.3C3819.01,11075.4 3805.62,11076.6 3801.23,11070.5C3796.71,11064.1 3792.31,11062.2 3789.24,11061C3786.17,11059.8 3786.55,11058 3786.97,11052.7C3787.14,11050.6 3786.98,11046.7 3786.61,11042.5C3781.59,11042.1 3772.34,11041.2 3772.95,11039.2C3773.18,11038.4 3773.25,11037.1 3773.14,11035.4C3769.47,11033.7 3766.65,11032.3 3766.65,11032.3C3768.21,11030.8 3770.73,11026.8 3770.73,11026.8C3766.76,11024.4 3754.71,11014.7 3754.71,11014.7C3751.47,11009.6 3749.58,10995 3749.58,10995C3751.47,10997.8 3758.27,11011.7 3758.27,11011.7C3759.86,11012.5 3763.59,11015.2 3767.31,11018C3766.37,11011.5 3767.14,11002.1 3767.14,11002.1L3780.97,11004.2C3780.75,10999.6 3780.75,10995.3 3781.1,10992.3C3777.85,10987.8 3774.85,10982.4 3772.77,10976.5C3767.95,10962.8 3778.69,10937 3778.69,10937C3778.69,10937 3773.68,10968.9 3782.61,10986C3785.13,10976.5 3791.46,10955.9 3817.81,10955.9C3817.81,10955.9 3819.75,10955.9 3821.95,10955.9C3848.31,10955.9 3854.63,10976.5 3857.15,10986Z" style="stroke:black;stroke-width:5.28px;"/>
            <g>
                <path d="M3856.52,11004.4L3871.82,11002.1C3871.82,11002.1 3873.25,11019.5 3869.84,11023.4C3866.43,11027.2 3865.19,11036.5 3866.01,11039.2C3866.84,11042 3849.22,11042.6 3849.22,11042.6L3856.52,11004.4Z" style="fill:rgb(70,73,81);"/>
                <g transform="matrix(-1,0,0,1,7638.96,0)">
                    <path d="M3856.52,11004.4L3871.82,11002.1C3871.82,11002.1 3873.25,11019.5 3869.84,11023.4C3866.43,11027.2 3865.19,11036.5 3866.01,11039.2C3866.84,11042 3849.22,11042.6 3849.22,11042.6L3856.52,11004.4Z" style="fill:rgb(70,73,81);"/>
                </g>
                <path d="M3819.84,11075.3C3819.01,11075.4 3805.62,11076.6 3801.23,11070.5C3796.71,11064.1 3792.31,11062.2 3789.24,11061C3786.17,11059.8 3786.55,11058 3786.97,11052.7C3787.39,11047.3 3785.74,11030.6 3783.7,11024.9C3781.65,11019.1 3779.65,10995.5 3781.64,10989.5C3783.63,10983.5 3787.3,10955.9 3817.81,10955.9C3817.81,10955.9 3819.75,10955.9 3821.95,10955.9C3852.46,10955.9 3856.13,10983.5 3858.12,10989.5C3860.11,10995.5 3858.12,11019.1 3856.07,11024.9C3854.02,11030.6 3852.37,11047.3 3852.79,11052.7C3853.21,11058 3853.59,11059.8 3850.52,11061C3847.45,11062.2 3843.06,11064.1 3838.53,11070.5C3834,11076.8 3819.88,11075.3 3819.88,11075.3L3819.84,11075.3Z" style="fill:rgb(193,128,82);"/>
                <clipPath id="_clip1">
                    <path d="M3819.84,11075.3C3819.01,11075.4 3805.62,11076.6 3801.23,11070.5C3796.71,11064.1 3792.31,11062.2 3789.24,11061C3786.17,11059.8 3786.55,11058 3786.97,11052.7C3787.39,11047.3 3785.74,11030.6 3783.7,11024.9C3781.65,11019.1 3779.65,10995.5 3781.64,10989.5C3783.63,10983.5 3787.3,10955.9 3817.81,10955.9C3817.81,10955.9 3819.75,10955.9 3821.95,10955.9C3852.46,10955.9 3856.13,10983.5 3858.12,10989.5C3860.11,10995.5 3858.12,11019.1 3856.07,11024.9C3854.02,11030.6 3852.37,11047.3 3852.79,11052.7C3853.21,11058 3853.59,11059.8 3850.52,11061C3847.45,11062.2 3843.06,11064.1 3838.53,11070.5C3834,11076.8 3819.88,11075.3 3819.88,11075.3L3819.84,11075.3Z"/>
                </clipPath>
                <g clip-path="url(#_clip1)">
                    <g transform="matrix(1.02269,0,0,1,-87.9504,0.0521363)">
                        <path d="M3821.18,11053.2C3826.03,11057.3 3836.48,11047 3836.48,11047C3844.61,11042.5 3858.68,11015.6 3858.68,11015.6L3863.97,11078.1L3820.87,11081.5L3820.87,11081.7L3819.59,11081.6L3818.22,11081.7L3818.24,11081.5L3778.29,11078.1L3783.58,11015.6C3783.58,11015.6 3797.64,11042.5 3805.77,11047C3805.77,11047 3816.35,11057.3 3821.13,11053.2L3821.18,11053.2Z" style="fill-opacity:0.22;"/>
                    </g>
                </g>
                <g transform="matrix(0.551721,0,0,0.551721,1712.72,4933.85)">
                    <path d="M3812.39,11023.4C3812.39,11023.4 3810.74,11016.6 3799.73,11012.6C3788.72,11008.7 3770.41,11001.8 3752.78,10971.5C3735.14,10941.2 3744.6,10880.7 3744.6,10880.7C3744.6,10880.7 3725.14,10927.6 3733.88,10952.4C3742.61,10977.3 3760.42,10997 3771.98,11003.4C3783.54,11009.9 3805.48,11017 3812.39,11023.4Z" style="fill:rgb(50,26,8);"/>
                </g>
                <g transform="matrix(-0.551721,0,0,0.551721,5927.05,4933.85)">
                    <path d="M3812.39,11023.4C3812.39,11023.4 3810.74,11016.6 3799.73,11012.6C3788.72,11008.7 3770.41,11001.8 3752.78,10971.5C3735.14,10941.2 3744.6,10880.7 3744.6,10880.7C3744.6,10880.7 3725.14,10927.6 3733.88,10952.4C3742.61,10977.3 3760.42,10997 3771.98,11003.4C3783.54,11009.9 3805.48,11017 3812.39,11023.4Z" style="fill:rgb(50,26,8);"/>
                </g>
                <g transform="matrix(0.486874,0,0,0.486874,1961.45,5664.63)">
                    <path d="M3808,11046C3808,11046 3797.63,11040 3785.8,11040L3761.28,11040C3761.28,11040 3733.97,11026.1 3725.15,11023.4C3725.15,11023.4 3728.59,11015.7 3729.03,11010.7C3729.03,11010.7 3698.06,10986.4 3690.53,10982.4C3690.53,10982.4 3676.55,10954 3672.68,10948.2C3672.68,10948.2 3676.55,10978.1 3683.22,10988.6C3683.22,10988.6 3707.95,11008.6 3716.12,11013.5C3716.12,11013.5 3710.93,11021.8 3707.74,11024.7C3707.74,11024.7 3746.31,11043.9 3753.74,11045.2C3753.74,11045.2 3795.51,11043.5 3808,11046Z" style="fill:rgb(50,26,8);"/>
                </g>
                <g transform="matrix(-0.486874,0,0,0.486874,5678.31,5664.63)">
                    <path d="M3808,11046C3808,11046 3797.63,11040 3785.8,11040L3761.28,11040C3761.28,11040 3733.97,11026.1 3725.15,11023.4C3725.15,11023.4 3728.59,11015.7 3729.03,11010.7C3729.03,11010.7 3698.06,10986.4 3690.53,10982.4C3690.53,10982.4 3676.55,10954 3672.68,10948.2C3672.68,10948.2 3676.55,10978.1 3683.22,10988.6C3683.22,10988.6 3707.95,11008.6 3716.12,11013.5C3716.12,11013.5 3710.93,11021.8 3707.74,11024.7C3707.74,11024.7 3746.31,11043.9 3753.74,11045.2C3753.74,11045.2 3795.51,11043.5 3808,11046Z" style="fill:rgb(50,26,8);"/>
                </g>
            </g>
        </g>
    </g>
</svg>
