<?xml version="1.0" encoding="UTF-8" standalone="no"?>
<!DOCTYPE svg PUBLIC "-//W3C//DTD SVG 1.1//EN" "http://www.w3.org/Graphics/SVG/1.1/DTD/svg11.dtd">
<svg width="100%" height="100%" viewBox="0 0 200 200" version="1.1" xmlns="http://www.w3.org/2000/svg" xmlns:xlink="http://www.w3.org/1999/xlink" xml:space="preserve" xmlns:serif="http://www.serif.com/" style="fill-rule:evenodd;clip-rule:evenodd;stroke-linecap:round;stroke-linejoin:round;stroke-miterlimit:1.5;">
    <g transform="matrix(1,0,0,1,-6921.817682,-13763.338436)">
        <g transform="matrix(1.386705,0,0,1.386705,423.567768,-3709.626029)">
            <g transform="matrix(0.966186,0,0,0.949287,162.000822,641.128197)">
                <path d="M4700.984,12622.048C4699.729,12614.331 4701.008,12607.405 4701.008,12607.405C4703.896,12612.929 4710.146,12620.601 4712.734,12623.683C4722.53,12600.457 4751.771,12601.057 4756.953,12601.353C4762.135,12601.057 4791.376,12600.457 4801.172,12623.683C4803.76,12620.601 4810.01,12612.929 4812.897,12607.405C4812.897,12607.405 4814.177,12614.331 4812.922,12622.048C4817.106,12621.813 4826.632,12622.047 4827.507,12628.918C4828.37,12635.698 4828.854,12643.14 4827.579,12649.428C4827.857,12662.044 4826.507,12679.912 4805.857,12678.204C4805.857,12678.204 4807.231,12682.265 4804.249,12683.411C4804.866,12688.04 4805.369,12692.258 4805.618,12695.64C4806.574,12708.643 4804.215,12713.487 4798.228,12717.17C4792.24,12720.853 4784.471,12731.292 4776.499,12738.802C4768.526,12746.311 4757.125,12746.229 4757.125,12746.229C4757.125,12746.229 4756.788,12745.504 4756.616,12746.23C4756.616,12746.23 4745.215,12746.356 4737.27,12738.877C4729.324,12731.398 4721.593,12720.988 4715.619,12717.328C4709.645,12713.667 4707.303,12708.832 4708.307,12695.826C4708.571,12692.407 4709.097,12688.132 4709.741,12683.442C4706.65,12682.34 4708.049,12678.204 4708.049,12678.204C4687.399,12679.912 4686.049,12662.044 4686.327,12649.428C4685.052,12643.14 4685.536,12635.698 4686.399,12628.918C4687.274,12622.047 4696.8,12621.813 4700.984,12622.048Z" style="stroke:black;stroke-width:6.27px;"/>
            </g>
            <g>
                <g transform="matrix(0.966186,0,0,0.949287,162.000822,641.128197)">
                    <path d="M4702.935,12622.22C4702.935,12622.22 4687.523,12620.088 4686.399,12628.918C4685.275,12637.748 4684.794,12647.701 4688.005,12654.765L4705.343,12652.678L4708.049,12631.005L4702.935,12622.22Z" style="fill:rgb(37,39,38);"/>
                </g>
                <g transform="matrix(0.966186,0,0,0.949287,162.000822,641.128197)">
                    <path d="M4713.892,12625.045C4713.892,12625.045 4704.701,12614.469 4701.008,12607.405C4701.008,12607.405 4698.279,12622.175 4704.701,12632.61C4704.701,12632.61 4686.72,12631.005 4686.56,12642.082C4686.399,12653.159 4682.821,12680.291 4708.049,12678.204C4708.049,12678.204 4705.985,12684.304 4712.407,12683.662L4718.989,12652.357L4713.892,12625.045Z" style="fill:rgb(78,106,126);"/>
                </g>
                <g transform="matrix(-0.966186,0,0,0.949287,9354.203987,641.128197)">
                    <path d="M4702.935,12622.22C4702.935,12622.22 4687.523,12620.088 4686.399,12628.918C4685.275,12637.748 4684.794,12647.701 4688.005,12654.765L4705.343,12652.678L4708.049,12631.005L4702.935,12622.22Z" style="fill:rgb(37,39,38);"/>
                </g>
                <g transform="matrix(0.937616,0,0,0.949287,297.947946,642.264083)">
                    <path d="M4756.911,12600.156C4763.397,12599.797 4806.461,12598.988 4805.765,12640.974L4799.494,12644.361C4799.494,12644.361 4798.772,12621.509 4758.226,12621.268L4758.226,12621.283C4757.784,12621.275 4757.345,12621.27 4756.911,12621.268C4756.477,12621.27 4756.039,12621.275 4755.596,12621.283L4755.597,12621.268C4715.05,12621.509 4714.328,12644.361 4714.328,12644.361L4708.057,12640.974C4707.361,12598.988 4750.425,12599.797 4756.911,12600.156Z" style="fill:rgb(37,39,38);"/>
                </g>
                <g transform="matrix(-0.966186,0,0,0.949287,9354.203987,641.128197)">
                    <path d="M4713.892,12625.045C4713.892,12625.045 4704.701,12614.469 4701.008,12607.405C4701.008,12607.405 4698.279,12622.175 4704.701,12632.61C4704.701,12632.61 4686.72,12631.005 4686.56,12642.082C4686.399,12653.159 4682.821,12680.291 4708.049,12678.204C4708.049,12678.204 4705.985,12684.304 4712.407,12683.662L4718.989,12652.357L4713.892,12625.045Z" style="fill:rgb(78,106,126);"/>
                </g>
                <g transform="matrix(0.948466,0.033235,-0.035642,0.981885,699.634047,71.963052)">
                    <path d="M4757.968,12741.677C4757.968,12741.677 4757.598,12740.988 4757.45,12741.695C4757.45,12741.695 4745.855,12742.209 4737.5,12735.261C4729.145,12728.313 4720.902,12718.528 4714.691,12715.199C4708.481,12711.871 4705.922,12707.283 4706.471,12694.689C4707.021,12682.096 4710.992,12657.418 4711.064,12644.336C4711.135,12631.254 4731.849,12621.978 4753.403,12620.942C4774.975,12620.44 4796.297,12628.217 4797.301,12641.261C4798.304,12654.305 4804.023,12678.637 4805.468,12691.159C4806.913,12703.681 4804.688,12708.44 4798.73,12712.202C4792.773,12715.965 4785.247,12726.312 4777.409,12733.838C4769.57,12741.363 4757.968,12741.677 4757.968,12741.677Z" style="fill:rgb(215,151,98);"/>
                </g>
                <g transform="matrix(1.08584,0,0,0.889653,-63.652513,1397.725622)">
                    <path d="M4440.576,12662.335C4439.805,12662.866 4437.787,12664.688 4437.464,12669.378C4437.063,12675.198 4434.567,12681.963 4431.526,12682.209C4428.485,12682.456 4408.593,12686.73 4403.25,12677.935C4397.907,12669.14 4404.868,12666.695 4398.128,12666.448C4398.128,12666.448 4397.492,12650.583 4397.329,12636.749C4397.329,12636.749 4420.23,12653.352 4440.576,12654.992C4460.922,12653.352 4483.824,12636.749 4483.824,12636.749C4483.66,12650.583 4483.024,12666.448 4483.024,12666.448C4476.284,12666.695 4483.245,12669.14 4477.902,12677.935C4472.559,12686.73 4452.668,12682.456 4449.626,12682.209C4446.585,12681.963 4444.09,12675.198 4443.688,12669.378C4443.365,12664.688 4441.347,12662.866 4440.576,12662.335Z" style="fill:rgb(235,226,29);"/>
                    <clipPath id="_clip1">
                        <path d="M4440.576,12662.335C4439.805,12662.866 4437.787,12664.688 4437.464,12669.378C4437.063,12675.198 4434.567,12681.963 4431.526,12682.209C4428.485,12682.456 4408.593,12686.73 4403.25,12677.935C4397.907,12669.14 4404.868,12666.695 4398.128,12666.448C4398.128,12666.448 4397.492,12650.583 4397.329,12636.749C4397.329,12636.749 4420.23,12653.352 4440.576,12654.992C4460.922,12653.352 4483.824,12636.749 4483.824,12636.749C4483.66,12650.583 4483.024,12666.448 4483.024,12666.448C4476.284,12666.695 4483.245,12669.14 4477.902,12677.935C4472.559,12686.73 4452.668,12682.456 4449.626,12682.209C4446.585,12681.963 4444.09,12675.198 4443.688,12669.378C4443.365,12664.688 4441.347,12662.866 4440.576,12662.335Z"/>
                    </clipPath>
                    <g clip-path="url(#_clip1)">
                        <g transform="matrix(-1,0,0,1,8884.542955,1.127241)">
                            <path d="M4479.002,12651.454C4479.002,12651.454 4462.768,12656.18 4454.035,12656.899C4445.302,12657.618 4447.459,12661.215 4449.822,12665.324C4452.186,12669.434 4451.98,12678.27 4459.275,12677.346C4466.57,12676.421 4480.03,12681.764 4479.311,12668.715C4478.591,12655.666 4479.002,12651.454 4479.002,12651.454Z" style="fill:rgb(151,195,194);"/>
                        </g>
                        <g transform="matrix(1,0,0,1,-3.390728,1.127241)">
                            <path d="M4479.002,12651.454C4479.002,12651.454 4462.768,12656.18 4454.035,12656.899C4445.302,12657.618 4447.459,12661.215 4449.822,12665.324C4452.186,12669.434 4451.98,12678.27 4459.275,12677.346C4466.57,12676.421 4480.03,12681.764 4479.311,12668.715C4478.591,12655.666 4479.002,12651.454 4479.002,12651.454Z" style="fill:rgb(151,195,194);"/>
                        </g>
                    </g>
                </g>
            </g>
        </g>
    </g>
</svg>
