<?xml version="1.0" encoding="UTF-8" standalone="no"?>
<!DOCTYPE svg PUBLIC "-//W3C//DTD SVG 1.1//EN" "http://www.w3.org/Graphics/SVG/1.1/DTD/svg11.dtd">
<svg width="100%" height="100%" viewBox="0 0 200 205" version="1.1" xmlns="http://www.w3.org/2000/svg" xmlns:xlink="http://www.w3.org/1999/xlink" xml:space="preserve" xmlns:serif="http://www.serif.com/" style="fill-rule:evenodd;clip-rule:evenodd;stroke-linecap:round;stroke-linejoin:round;stroke-miterlimit:1.5;">
    <g transform="matrix(1,0,0,1,-1099.121031,-13562.670843)">
        <g transform="matrix(1.444685,0,0,1.444685,-4238.143425,-3527.944876)">
            <g transform="matrix(1.051359,0,0,1,-194.441136,0)">
                <path d="M3705.652,11934.969C3700.35,11931.793 3700.761,11922.229 3704.132,11918.029C3708.255,11912.892 3706.728,11907.433 3705.048,11905.186C3703.368,11902.938 3700.009,11897.319 3703.521,11891.379C3705.935,11887.295 3710.226,11889.054 3712.673,11890.553C3713.803,11858.5 3736.602,11832.881 3764.522,11832.881C3792.442,11832.881 3815.241,11858.5 3816.372,11890.553C3818.818,11889.054 3823.109,11887.295 3825.523,11891.379C3829.035,11897.319 3825.676,11902.938 3823.996,11905.186C3822.317,11907.433 3820.79,11912.892 3824.912,11918.029C3828.283,11922.229 3828.694,11931.793 3823.392,11934.969C3818.932,11945.333 3787.039,11956.686 3781.418,11960.063C3775.318,11963.728 3764.522,11968.33 3764.522,11968.33C3764.522,11968.33 3753.726,11963.728 3747.626,11960.063C3742.005,11956.686 3710.112,11945.333 3705.652,11934.969Z" style="stroke:black;stroke-width:5.62px;"/>
            </g>
            <g>
                <g transform="matrix(1.051359,0,0,1,-194.441136,0)">
                    <ellipse cx="3764.522" cy="11893.049" rx="51.893" ry="60.168" style="fill:rgb(214,160,126);"/>
                </g>
                <g transform="matrix(1.14142,0,0,1.14142,-538.652862,-1691.413208)">
                    <path d="M3769.058,11967.327C3769.058,11967.327 3759.114,11963.295 3753.495,11960.084C3747.876,11956.873 3713.762,11945.434 3714.364,11935.802C3714.966,11926.17 3710.952,11922.758 3725.401,11922.758C3725.401,11922.758 3730.217,11932.591 3742.057,11938.611C3753.897,11944.632 3769.058,11948.043 3769.058,11948.043C3769.058,11948.043 3784.22,11944.632 3796.06,11938.611C3807.899,11932.591 3812.716,11922.758 3812.716,11922.758C3827.164,11922.758 3823.151,11926.17 3823.753,11935.802C3824.355,11945.434 3790.24,11956.873 3784.621,11960.084C3779.002,11963.295 3769.058,11967.327 3769.058,11967.327Z" style="fill:rgb(63,50,77);"/>
                    <clipPath id="_clip1">
                        <path d="M3769.058,11967.327C3769.058,11967.327 3759.114,11963.295 3753.495,11960.084C3747.876,11956.873 3713.762,11945.434 3714.364,11935.802C3714.966,11926.17 3710.952,11922.758 3725.401,11922.758C3725.401,11922.758 3730.217,11932.591 3742.057,11938.611C3753.897,11944.632 3769.058,11948.043 3769.058,11948.043C3769.058,11948.043 3784.22,11944.632 3796.06,11938.611C3807.899,11932.591 3812.716,11922.758 3812.716,11922.758C3827.164,11922.758 3823.151,11926.17 3823.753,11935.802C3824.355,11945.434 3790.24,11956.873 3784.621,11960.084C3779.002,11963.295 3769.058,11967.327 3769.058,11967.327Z"/>
                    </clipPath>
                    <g clip-path="url(#_clip1)">
                        <g transform="matrix(0.67289,0,0,1,1233.31959,3.485139)">
                            <rect x="3760.403" y="11939.679" width="4.624" height="27.648" style="fill:rgb(128,115,72);"/>
                        </g>
                        <g transform="matrix(0.67289,0,0,1,1241.0132,3.485139)">
                            <rect x="3760.403" y="11939.679" width="4.624" height="27.648" style="fill:rgb(128,115,72);"/>
                        </g>
                    </g>
                </g>
                <g transform="matrix(1,0,0,1,1.015611,0.48162)">
                    <path d="M3708.907,11890.705C3708.88,11891.483 3708.866,11892.264 3708.866,11893.049C3708.866,11905.438 3713.321,11915.839 3719.151,11925.414C3717.088,11930.334 3712.166,11935.309 3705.178,11935.528C3694.904,11935.849 3694.582,11922.685 3698.917,11917.547C3703.252,11912.41 3701.646,11906.952 3699.88,11904.704C3698.114,11902.456 3694.582,11896.838 3698.275,11890.898C3701.193,11886.203 3706.718,11889.229 3708.907,11890.705Z" style="fill:rgb(205,159,129);"/>
                </g>
                <g transform="matrix(-1,0,0,1,7525.833697,0.48162)">
                    <path d="M3708.907,11890.705C3708.88,11891.483 3708.866,11892.264 3708.866,11893.049C3708.866,11905.438 3713.321,11915.839 3719.151,11925.414C3717.088,11930.334 3712.166,11935.309 3705.178,11935.528C3694.904,11935.849 3694.582,11922.685 3698.917,11917.547C3703.252,11912.41 3701.646,11906.952 3699.88,11904.704C3698.114,11902.456 3694.582,11896.838 3698.275,11890.898C3701.193,11886.203 3706.718,11889.229 3708.907,11890.705Z" style="fill:rgb(205,159,129);"/>
                </g>
                <g transform="matrix(1,0,0,1,40.646877,4.013508)">
                    <path d="M3763.67,11880.341C3763.67,11880.341 3740.643,11860.033 3729.566,11882.829C3729.566,11882.829 3740.302,11867.899 3763.67,11880.341Z" style="fill:rgb(96,59,46);"/>
                </g>
                <g transform="matrix(-1,0,0,1,7486.202431,4.013508)">
                    <path d="M3763.67,11880.341C3763.67,11880.341 3740.643,11860.033 3729.566,11882.829C3729.566,11882.829 3740.302,11867.899 3763.67,11880.341Z" style="fill:rgb(96,59,46);"/>
                </g>
                <g transform="matrix(1,0,0,1,-10.345843,6.446706)">
                    <path d="M3770.87,11893.134C3770.6,11895.85 3769.274,11901.649 3763.028,11905.206C3754.657,11909.974 3742.903,11910.138 3735.588,11905.535C3728.272,11900.932 3724.656,11893.288 3724.656,11893.288C3724.656,11893.288 3734.19,11885.759 3739.204,11884.756C3744.021,11883.792 3760.743,11880.114 3769.85,11890.315C3771.216,11890.601 3774.205,11891.035 3777.662,11890.348C3786.762,11880.106 3803.515,11883.791 3808.337,11884.756C3813.351,11885.759 3822.885,11893.288 3822.885,11893.288C3822.885,11893.288 3819.269,11900.932 3811.953,11905.535C3804.638,11910.138 3792.884,11909.974 3784.513,11905.206C3778.444,11901.75 3777.021,11896.177 3776.696,11893.373C3775.512,11893.146 3773.413,11892.878 3770.87,11893.134Z" style="fill:rgb(96,59,46);"/>
                    <clipPath id="_clip2">
                        <path d="M3770.87,11893.134C3770.6,11895.85 3769.274,11901.649 3763.028,11905.206C3754.657,11909.974 3742.903,11910.138 3735.588,11905.535C3728.272,11900.932 3724.656,11893.288 3724.656,11893.288C3724.656,11893.288 3734.19,11885.759 3739.204,11884.756C3744.021,11883.792 3760.743,11880.114 3769.85,11890.315C3771.216,11890.601 3774.205,11891.035 3777.662,11890.348C3786.762,11880.106 3803.515,11883.791 3808.337,11884.756C3813.351,11885.759 3822.885,11893.288 3822.885,11893.288C3822.885,11893.288 3819.269,11900.932 3811.953,11905.535C3804.638,11910.138 3792.884,11909.974 3784.513,11905.206C3778.444,11901.75 3777.021,11896.177 3776.696,11893.373C3775.512,11893.146 3773.413,11892.878 3770.87,11893.134Z"/>
                    </clipPath>
                    <g clip-path="url(#_clip2)">
                        <g transform="matrix(0.89509,0,0,0.831264,393.730895,2007.298919)">
                            <path d="M3724.656,11893.288C3724.656,11893.288 3734.19,11885.759 3739.204,11884.756C3744.218,11883.753 3762.137,11879.807 3770.932,11891.644C3770.932,11891.644 3771.399,11900.439 3763.028,11905.206C3754.657,11909.974 3742.903,11910.138 3735.588,11905.535C3728.272,11900.932 3724.656,11893.288 3724.656,11893.288Z" style="fill:rgb(164,137,123);"/>
                        </g>
                        <g transform="matrix(-0.89509,0,0,0.831264,7153.810099,2007.298919)">
                            <path d="M3724.656,11893.288C3724.656,11893.288 3734.19,11885.759 3739.204,11884.756C3744.218,11883.753 3762.137,11879.807 3770.932,11891.644C3770.932,11891.644 3771.399,11900.439 3763.028,11905.206C3754.657,11909.974 3742.903,11910.138 3735.588,11905.535C3728.272,11900.932 3724.656,11893.288 3724.656,11893.288Z" style="fill:rgb(164,137,123);"/>
                        </g>
                    </g>
                </g>
            </g>
        </g>
    </g>
</svg>
