<?xml version="1.0" encoding="UTF-8" standalone="no"?>
<!DOCTYPE svg PUBLIC "-//W3C//DTD SVG 1.1//EN" "http://www.w3.org/Graphics/SVG/1.1/DTD/svg11.dtd">
<svg width="100%" height="100%" viewBox="0 0 201 267" version="1.1" xmlns="http://www.w3.org/2000/svg" xmlns:xlink="http://www.w3.org/1999/xlink" xml:space="preserve" xmlns:serif="http://www.serif.com/" style="fill-rule:evenodd;clip-rule:evenodd;stroke-linecap:round;stroke-linejoin:round;stroke-miterlimit:1.5;">
    <g transform="matrix(1,0,0,1,-1902.03,-13497.1)">
        <g transform="matrix(0.653232,0,0,0.653232,848.946,6058.92)">
            <path d="M1696.16,11577.4C1731.65,11517.2 1753.44,11455.7 1765.89,11393.1C1775.9,11456.1 1796.19,11517.7 1833.45,11577.1C1880.86,11583.5 1913.28,11596.5 1913.28,11611.4C1913.28,11624 1890.41,11635.1 1855,11642.2C1856.5,11674.5 1849.22,11713.6 1851.34,11739.4L1846.67,11741.9C1846.67,11741.9 1839.5,11713.5 1839.14,11705.8C1839.14,11705.8 1837.34,11744 1839.5,11769.5L1831.24,11768.4C1831.24,11768.4 1828.37,11739.7 1828.37,11724.7C1828.37,11724.7 1825.73,11746.6 1827.57,11755.2L1823.16,11752.5L1822.97,11728.8L1820.58,11730.6L1820.58,11750.5L1817.46,11749.2L1817.09,11718.3C1817.09,11718.3 1812.87,11735.8 1815.26,11750.1L1809.74,11743.8C1809.74,11743.8 1807.72,11733 1808.83,11724.6C1808.83,11724.6 1805.89,11736.3 1804.23,11739.4L1801.84,11735.2C1801.84,11735.2 1804.42,11722 1803.13,11718.9C1803.13,11718.9 1801.84,11733.2 1796.15,11736.1L1793.48,11734.6C1788.02,11747.1 1784.04,11758.5 1782.78,11766.8C1779.41,11789.3 1765.89,11787.7 1765.89,11787.7L1765.85,11787.7C1765.06,11787.8 1752.26,11788.6 1749,11766.8C1747.74,11758.5 1743.76,11747.1 1738.3,11734.6L1735.63,11736.1C1729.93,11733.2 1728.65,11718.9 1728.65,11718.9C1727.36,11722 1729.93,11735.2 1729.93,11735.2L1727.55,11739.4C1725.89,11736.3 1722.95,11724.6 1722.95,11724.6C1724.06,11733 1722.03,11743.8 1722.03,11743.8L1716.52,11750.1C1718.91,11735.8 1714.68,11718.3 1714.68,11718.3L1714.32,11749.2L1711.19,11750.5L1711.19,11730.6L1708.81,11728.8L1708.62,11752.5L1704.21,11755.2C1706.05,11746.6 1703.41,11724.7 1703.41,11724.7C1703.41,11739.7 1700.54,11768.4 1700.54,11768.4L1692.28,11769.5C1694.43,11744 1692.64,11705.8 1692.64,11705.8C1692.28,11713.5 1685.11,11741.9 1685.11,11741.9L1680.44,11739.4C1682.56,11713.6 1675.28,11674.5 1676.78,11642.2C1641.37,11635.1 1618.5,11624 1618.5,11611.4C1618.5,11596.7 1649.94,11583.9 1696.16,11577.4Z" style="stroke:black;stroke-width:12.76px;"/>
            <g>
                <g transform="matrix(1,0,0,1,-462.498,34.1688)">
                    <path d="M2150.12,11567.8C2150.12,11567.8 2141.14,11573.9 2139.35,11606.5C2137.56,11639.2 2145.09,11679 2142.94,11705.2L2147.6,11707.7C2147.6,11707.7 2154.78,11679.4 2155.14,11671.7C2155.14,11671.7 2156.93,11709.9 2154.78,11735.4L2163.03,11734.3C2163.03,11734.3 2165.9,11705.6 2165.9,11690.5C2165.9,11690.5 2168.55,11712.4 2166.71,11721.1L2171.12,11718.3L2171.3,11694.6L2173.69,11696.5L2173.69,11716.3L2176.82,11715L2177.18,11684.1C2177.18,11684.1 2181.41,11701.6 2179.02,11715.9L2184.53,11709.7C2184.53,11709.7 2186.55,11698.8 2185.45,11690.4C2185.45,11690.4 2188.39,11702.1 2190.04,11705.3L2192.43,11701C2192.43,11701 2189.86,11687.8 2191.15,11684.7C2191.15,11684.7 2192.43,11699 2198.13,11702L2208.23,11696.1L2224.49,11555.6L2150.12,11567.8Z" style="fill:rgb(45,45,45);"/>
                </g>
                <g transform="matrix(-1,0,0,1,3994.28,34.1688)">
                    <path d="M2150.12,11567.8C2150.12,11567.8 2141.14,11573.9 2139.35,11606.5C2137.56,11639.2 2145.09,11679 2142.94,11705.2L2147.6,11707.7C2147.6,11707.7 2154.78,11679.4 2155.14,11671.7C2155.14,11671.7 2156.93,11709.9 2154.78,11735.4L2163.03,11734.3C2163.03,11734.3 2165.9,11705.6 2165.9,11690.5C2165.9,11690.5 2168.55,11712.4 2166.71,11721.1L2171.12,11718.3L2171.3,11694.6L2173.69,11696.5L2173.69,11716.3L2176.82,11715L2177.18,11684.1C2177.18,11684.1 2181.41,11701.6 2179.02,11715.9L2184.53,11709.7C2184.53,11709.7 2186.55,11698.8 2185.45,11690.4C2185.45,11690.4 2188.39,11702.1 2190.04,11705.3L2192.43,11701C2192.43,11701 2189.86,11687.8 2191.15,11684.7C2191.15,11684.7 2192.43,11699 2198.13,11702L2208.23,11696.1L2224.49,11555.6L2150.12,11567.8Z" style="fill:rgb(45,45,45);"/>
                </g>
                <g transform="matrix(1.25203,0,0,1,-1034.99,2.6282)">
                    <path d="M2237.05,11785.1C2236.41,11785.2 2226.2,11785.9 2223.59,11764.2C2220.9,11741.8 2202.51,11697.8 2187.71,11666.4C2172.9,11635 2172.45,11603.2 2197.57,11563.7L2232.2,11553.8L2232.18,11553L2233.84,11553.4L2235.25,11553L2235.26,11553.7L2276.59,11563.7C2301.71,11603.2 2301.26,11635 2286.46,11666.4C2271.65,11697.8 2253.26,11741.8 2250.57,11764.2C2247.88,11786.6 2237.08,11785.1 2237.08,11785.1L2237.05,11785.1Z" style="fill:rgb(133,208,51);"/>
                </g>
                <g transform="matrix(1,0,0,1,-493.068,0)">
                    <path d="M2268.54,11697.6C2268.54,11697.6 2273.82,11710.4 2276.35,11711.6C2276.35,11711.6 2288.52,11710.4 2291.51,11706.3L2283.7,11695.3C2283.7,11695.3 2278.41,11698 2268.54,11697.6Z" style="fill:rgb(212,212,212);"/>
                </g>
                <g transform="matrix(0.642362,0,0,1,321.33,-6.78419)">
                    <path d="M2257.36,11588.7C2258.31,11605.8 2260.22,11627.7 2263.88,11633.9C2270.15,11644.3 2270.3,11651.9 2286.96,11655.4C2303.62,11658.9 2299.97,11668 2296.71,11674.1C2293.45,11680.3 2278.77,11684.5 2278.77,11684.5C2278.77,11684.5 2276.78,11692.3 2268.16,11705.2C2261.02,11715.9 2252.14,11717.9 2249.29,11718.3L2249.28,11718.4C2249.28,11718.4 2249.12,11718.4 2248.82,11718.3C2248.52,11718.4 2248.36,11718.4 2248.36,11718.4L2248.36,11718.3C2245.5,11717.9 2236.62,11715.9 2229.49,11705.2C2220.87,11692.3 2218.88,11684.5 2218.88,11684.5C2218.88,11684.5 2204.2,11680.3 2200.93,11674.1C2197.67,11668 2194.03,11658.9 2210.69,11655.4C2227.34,11651.9 2227.5,11644.3 2233.76,11633.9C2237.43,11627.7 2239.34,11605.8 2240.28,11588.7L2238.64,11562.4L2248.82,11564.9L2259,11562.4L2257.36,11588.7Z" style="fill:rgb(132,201,55);"/>
                </g>
                <g transform="matrix(1.29165,0,0,1.43048,-526.196,-4941.99)">
                    <ellipse cx="1774.54" cy="11572" rx="114.112" ry="26.983" style="fill:rgb(55,2,1);"/>
                </g>
                <g transform="matrix(1.24866,0,0,1.24866,-449.904,-2838)">
                    <ellipse cx="1774.54" cy="11572" rx="114.112" ry="26.983" style="fill:rgb(29,29,29);"/>
                </g>
                <g transform="matrix(1.24866,0,0,0.939633,-439.105,721.517)">
                    <path d="M1765.89,11357.2C1775.59,11438.2 1797.31,11517.1 1840.54,11592.4C1791.25,11603.8 1741.49,11603.9 1691.24,11592.4C1731.02,11516 1753.89,11437.4 1765.89,11357.2Z" style="fill:rgb(23,23,23);"/>
                </g>
            </g>
        </g>
    </g>
</svg>
