<?xml version="1.0" encoding="UTF-8" standalone="no"?>
<!DOCTYPE svg PUBLIC "-//W3C//DTD SVG 1.1//EN" "http://www.w3.org/Graphics/SVG/1.1/DTD/svg11.dtd">
<svg width="100%" height="100%" viewBox="0 0 202 193" version="1.1" xmlns="http://www.w3.org/2000/svg" xmlns:xlink="http://www.w3.org/1999/xlink" xml:space="preserve" xmlns:serif="http://www.serif.com/" style="fill-rule:evenodd;clip-rule:evenodd;stroke-linecap:round;stroke-linejoin:round;stroke-miterlimit:1.5;">
    <g transform="matrix(1,0,0,1,-295.002171,-13365.276383)">
        <g transform="matrix(0.290773,0,0,0.290773,-1228.175075,9963.226966)">
            <g transform="matrix(1,0,0,1,-1.132342,-0.852446)">
                <path d="M5299.214,12007.237C5297.185,11996.184 5280.011,11904.729 5261.962,11876.221C5242.741,11845.861 5259.301,11798.941 5294.261,11794.341C5329.221,11789.741 5373.382,11787.901 5450.662,11754.78C5527.943,11721.66 5553.703,11715.22 5583.143,11715.22L5588.295,11715.22C5617.736,11715.22 5643.496,11721.66 5720.776,11754.78C5798.057,11787.901 5842.217,11789.741 5877.177,11794.341C5912.138,11798.941 5928.698,11845.861 5909.477,11876.221C5891.428,11904.729 5874.253,11996.184 5872.225,12007.237C5871.739,12038.17 5861.647,12090.727 5806.329,12131.605C5807.244,12229.043 5744.875,12251.159 5714.081,12291.036C5671.952,12345.594 5585.719,12347.299 5585.719,12347.299C5585.719,12347.299 5499.487,12345.594 5457.357,12291.036C5426.563,12251.159 5364.195,12229.043 5365.11,12131.605C5309.791,12090.727 5299.699,12038.17 5299.214,12007.237Z" style="stroke:black;stroke-width:28.66px;"/>
            </g>
            <g>
                <g transform="matrix(1,0,0,1,-1.132342,-0.852446)">
                    <path d="M5301.241,11981.2C5301.241,11981.2 5278.361,12083.461 5385.601,12144.941L5433.27,11957.741L5301.241,11981.2Z" style="fill:rgb(216,177,132);"/>
                </g>
                <g transform="matrix(-1,0,0,1,11170.306237,-0.852446)">
                    <path d="M5301.241,11981.2C5301.241,11981.2 5278.361,12083.461 5385.601,12144.941L5433.27,11957.741L5301.241,11981.2Z" style="fill:rgb(216,177,132);"/>
                </g>
                <g transform="matrix(1,0,0,1,546.314996,42.691791)">
                    <path d="M5038.272,12303.754C5038.272,12303.754 4952.04,12302.049 4909.91,12247.492C4867.78,12192.935 4766.55,12171.623 4849.132,11945.189L4943.702,11806.664L5036.94,11813.324C5036.94,11813.324 5038.729,11817.946 5039.604,11813.324L5132.842,11806.664L5227.411,11945.189C5309.994,12171.623 5208.764,12192.935 5166.634,12247.492C5124.504,12302.049 5038.272,12303.754 5038.272,12303.754Z" style="fill:rgb(232,187,136);"/>
                </g>
                <g transform="matrix(0.86339,0,0,0.86339,1213.700889,1660.24508)">
                    <path d="M5062.468,11909.407C5062.468,11909.407 4992.505,11857.407 4966.535,11873.604C4940.566,11889.801 4938.009,11926.457 4902.205,11960.555C4866.402,11994.653 4830.599,11954.588 4838.271,12061.998C4838.271,12061.998 4820.369,11976.752 4779.451,11968.227C4738.533,11959.702 4730.861,11984.424 4730.861,11984.424C4730.861,11984.424 4709.747,11866.571 4687.484,11831.407C4665.221,11796.243 4684.402,11741.899 4724.894,11736.571C4765.385,11731.243 4816.533,11729.112 4906.041,11690.751C4995.55,11652.391 5025.386,11644.932 5059.484,11644.932L5065.451,11644.932C5099.55,11644.932 5129.386,11652.391 5218.894,11690.751C5308.402,11729.112 5359.55,11731.243 5400.042,11736.571C5440.533,11741.899 5459.714,11796.243 5437.451,11831.407C5415.189,11866.571 5394.074,11984.424 5394.074,11984.424C5394.074,11984.424 5386.402,11959.702 5345.484,11968.227C5304.566,11976.752 5286.664,12061.998 5286.664,12061.998C5294.337,11954.588 5258.533,11994.653 5222.73,11960.555C5186.927,11926.457 5184.369,11889.801 5158.4,11873.604C5132.43,11857.407 5062.468,11909.407 5062.468,11909.407Z" style="fill:rgb(63,65,63);"/>
                </g>
                <g transform="matrix(1,0,0,1,502.498256,56.603573)">
                    <path d="M5043.583,12041.297C5043.583,12041.297 5018.74,11997.944 4984.154,11979.92C4949.569,11961.897 4932.032,11975.536 4914.496,11997.457C4914.496,11997.457 4988.051,11986.74 5043.583,12041.297Z" style="fill:rgb(63,65,63);"/>
                </g>
                <g transform="matrix(-1,0,0,1,10666.675639,56.603573)">
                    <path d="M5043.583,12041.297C5043.583,12041.297 5018.74,11997.944 4984.154,11979.92C4949.569,11961.897 4932.032,11975.536 4914.496,11997.457C4914.496,11997.457 4988.051,11986.74 5043.583,12041.297Z" style="fill:rgb(63,65,63);"/>
                </g>
                <g transform="matrix(0.908084,-0.418789,0.418789,0.908084,-4008.888381,3277.732548)">
                    <path d="M5082.735,11875.415C5082.735,11875.415 5103.286,11910.427 5126.881,11919.56C5126.881,11919.56 5097.958,11966.75 5110.136,11981.973C5122.314,11997.195 5134.492,11996.463 5124.597,12050.488C5124.597,12050.488 5145.909,12020.79 5152.759,12001.001C5159.609,11981.211 5113.394,11988.941 5137.087,11944.983C5160.78,11901.026 5139.369,11930.12 5082.735,11875.415Z" style="fill:rgb(63,63,63);"/>
                </g>
                <g transform="matrix(1,0,0,1,518.668088,34.490396)">
                    <path d="M5065.919,12180.954C5071.768,12180.927 5127.502,12182.166 5157.387,12238.247C5157.387,12238.247 5141.02,12242.533 5127.38,12228.504C5127.38,12228.504 5127.38,12238.247 5120.756,12244.092C5120.756,12244.092 5117.638,12233.57 5111.013,12230.063C5111.013,12230.063 5110.234,12239.026 5105.168,12243.702C5105.168,12243.702 5100.491,12232.011 5094.646,12228.894C5094.646,12228.894 5094.256,12237.857 5089.19,12242.923C5089.19,12242.923 5075.642,12228.322 5065.919,12224.615C5056.196,12228.322 5042.647,12242.923 5042.647,12242.923C5037.581,12237.857 5037.192,12228.894 5037.192,12228.894C5031.346,12232.011 5026.67,12243.702 5026.67,12243.702C5021.604,12239.026 5020.824,12230.063 5020.824,12230.063C5014.2,12233.57 5011.082,12244.092 5011.082,12244.092C5004.457,12238.247 5004.457,12228.504 5004.457,12228.504C4990.818,12242.533 4974.451,12238.247 4974.451,12238.247C5004.336,12182.166 5060.07,12180.927 5065.919,12180.954Z" style="fill:rgb(63,65,63);"/>
                </g>
                <g transform="matrix(1.135582,0,0,1.135582,265.486325,-1575.853409)">
                    <path d="M4668.052,12094.746C4660.113,12119.142 4636.964,12130.043 4601.094,12130.527C4556.035,12131.136 4547.51,12107.998 4540.813,12086.078C4534.115,12064.157 4521.357,12037.395 4611.445,12041.628C4611.445,12041.628 4671.102,12046.494 4671.117,12073.291C4671.118,12075.132 4671.065,12076.924 4670.958,12078.669C4680.792,12076.989 4690.538,12077.41 4697.065,12078.075C4696.982,12076.518 4696.94,12074.924 4696.941,12073.291C4696.955,12046.494 4756.613,12041.628 4756.613,12041.628C4846.701,12037.395 4833.943,12064.157 4827.245,12086.078C4820.547,12107.998 4812.023,12131.136 4766.964,12130.527C4731.182,12130.044 4708.058,12119.195 4700.064,12094.925C4685.944,12091.121 4674.31,12093.023 4668.052,12094.746Z" style="fill:rgb(76,30,88);"/>
                    <clipPath id="_clip1">
                        <path d="M4668.052,12094.746C4660.113,12119.142 4636.964,12130.043 4601.094,12130.527C4556.035,12131.136 4547.51,12107.998 4540.813,12086.078C4534.115,12064.157 4521.357,12037.395 4611.445,12041.628C4611.445,12041.628 4671.102,12046.494 4671.117,12073.291C4671.118,12075.132 4671.065,12076.924 4670.958,12078.669C4680.792,12076.989 4690.538,12077.41 4697.065,12078.075C4696.982,12076.518 4696.94,12074.924 4696.941,12073.291C4696.955,12046.494 4756.613,12041.628 4756.613,12041.628C4846.701,12037.395 4833.943,12064.157 4827.245,12086.078C4820.547,12107.998 4812.023,12131.136 4766.964,12130.527C4731.182,12130.044 4708.058,12119.195 4700.064,12094.925C4685.944,12091.121 4674.31,12093.023 4668.052,12094.746Z"/>
                    </clipPath>
                    <g clip-path="url(#_clip1)">
                        <g transform="matrix(-0.880605,0,0,0.880605,8818.413037,1442.986158)">
                            <path d="M4611.445,12041.628C4611.445,12041.628 4671.102,12046.494 4671.117,12073.291C4671.138,12112.874 4646.152,12129.918 4601.094,12130.527C4556.035,12131.136 4547.51,12107.998 4540.813,12086.078C4534.115,12064.157 4521.357,12037.395 4611.445,12041.628Z" style="fill:rgb(125,131,155);"/>
                        </g>
                        <g transform="matrix(0.880605,0,0,0.880605,549.644723,1442.986158)">
                            <path d="M4611.445,12041.628C4611.445,12041.628 4671.102,12046.494 4671.117,12073.291C4671.138,12112.874 4646.152,12129.918 4601.094,12130.527C4556.035,12131.136 4547.51,12107.998 4540.813,12086.078C4534.115,12064.157 4521.357,12037.395 4611.445,12041.628Z" style="fill:rgb(125,131,155);"/>
                        </g>
                    </g>
                </g>
            </g>
        </g>
    </g>
</svg>
