<?xml version="1.0" encoding="UTF-8" standalone="no"?>
<!DOCTYPE svg PUBLIC "-//W3C//DTD SVG 1.1//EN" "http://www.w3.org/Graphics/SVG/1.1/DTD/svg11.dtd">
<svg width="100%" height="100%" viewBox="0 0 321 279" version="1.1" xmlns="http://www.w3.org/2000/svg" xmlns:xlink="http://www.w3.org/1999/xlink" xml:space="preserve" xmlns:serif="http://www.serif.com/" style="fill-rule:evenodd;clip-rule:evenodd;stroke-linecap:round;stroke-linejoin:round;stroke-miterlimit:1.5;">
    <g transform="matrix(1,0,0,1,-8832.02,-13390.5)">
        <g transform="matrix(1.32079,0,0,1.32079,-2635.95,-3042.57)">
            <path d="M8807.43,12606.3C8808,12609 8809.46,12618.3 8804.32,12623.3C8798.24,12629.3 8791.64,12631.7 8785.25,12633.3C8778.85,12634.9 8770.57,12642.7 8778.54,12647.3C8778.54,12647.3 8772.46,12650.8 8772.77,12641.4C8773.09,12632.1 8780.43,12632.1 8785.77,12630C8791.11,12627.9 8796.88,12615.9 8796.88,12615.9C8796.88,12615.9 8783.78,12636.5 8768.37,12626.3C8768.37,12626.3 8758.94,12630.8 8749.51,12624.2C8740.08,12617.6 8742.88,12618.6 8740.03,12617.8C8740.03,12617.8 8742.98,12617 8747.38,12620.8C8751.78,12624.5 8763.44,12627.5 8771.62,12619.5C8771.62,12619.5 8763.71,12622.4 8758.34,12621.2C8752.98,12620 8752.04,12617.1 8746.14,12616.1C8746.14,12616.1 8749.96,12614.8 8754.4,12617.4C8758.84,12620 8769.24,12621 8776.03,12612.3C8776.03,12612.3 8765.3,12616.3 8754.4,12612.8C8743.5,12609.3 8733.78,12611.2 8724.14,12603.9C8714.5,12596.6 8707.87,12598.4 8707.87,12598.4C8707.87,12598.4 8713.91,12595.1 8724.14,12600.6C8734.37,12606.2 8751.61,12613.5 8769.65,12605.3C8769.65,12605.3 8754.68,12607.6 8744.12,12598.7C8744.12,12598.7 8735.73,12596.6 8730.87,12593.8C8730.87,12593.8 8717.88,12594.9 8709.91,12586C8709.91,12586 8718.97,12588.8 8724.5,12588.5C8730.03,12588.1 8756.06,12585.7 8764.55,12567.1C8764.55,12567.1 8727.92,12575.8 8716.81,12572.7C8705.7,12569.5 8690.93,12558.2 8685.79,12556.3C8685.79,12556.3 8697.53,12558.7 8706.96,12565C8713.16,12569.2 8718.19,12568.5 8721.74,12567.2C8716.16,12564.4 8709.74,12559.5 8702.11,12551.4C8702.11,12551.4 8719.25,12562 8733.52,12558.3C8736.89,12555 8741.01,12550.8 8745.15,12546.6C8740.55,12547.4 8734.2,12548.7 8729.19,12550.4C8720.27,12553.5 8704.31,12545.6 8697.5,12548.1C8697.5,12548.1 8698.84,12546.6 8700.04,12546.2C8700.04,12546.2 8697.33,12546.3 8695.59,12548.8C8695.59,12548.8 8699.51,12539.9 8711.54,12541.8C8723.57,12543.7 8731.93,12542.2 8740.44,12539.9C8745.8,12538.4 8750.35,12537 8754.7,12536.7L8756.12,12535.2C8751.69,12533.5 8745.86,12531.1 8742.09,12528.7C8735.32,12524.6 8728.78,12515 8718.57,12513.1C8708.35,12511.2 8709.92,12508.8 8707.04,12505.2C8707.04,12505.2 8711.76,12507.9 8714.9,12508.8C8718.04,12509.6 8727.61,12509.8 8731.8,12513.3C8731.8,12513.3 8730.09,12510.2 8728.13,12505.2C8728.13,12505.2 8734.42,12508.6 8739.66,12514.1C8744.9,12519.7 8755.25,12520.9 8759.83,12520.7C8759.83,12520.7 8751.77,12516.2 8754.56,12510.8C8757.34,12505.4 8764.55,12504.1 8770.77,12509.2C8770.77,12509.2 8768.6,12507.9 8765.04,12509.5C8765.04,12509.5 8770.51,12510 8773.45,12511.5C8773.45,12511.5 8760.66,12510.7 8765.69,12516.1C8768.35,12518.9 8770.08,12522.5 8772.24,12525L8793.44,12522C8794.82,12521.3 8796.07,12520.9 8797.21,12520.8C8797.21,12520.8 8790.27,12517.2 8785.68,12507.6C8781.1,12498.1 8769.83,12496.6 8763.68,12498.6C8763.68,12498.6 8769.96,12493.6 8773.37,12491.9C8776.78,12490.1 8789.09,12494 8793.81,12499.3C8793.81,12499.3 8788.57,12489.1 8782.01,12487.2C8775.47,12485.3 8765.51,12485.6 8760.01,12479.1C8760.01,12479.1 8768.65,12481.8 8776.38,12481C8784.11,12480.1 8793.54,12479.4 8801.14,12484.1C8808.74,12488.8 8817.06,12487.6 8828.03,12492.8C8828.03,12492.8 8838.51,12484.3 8832.94,12476.3C8827.37,12468.3 8832.61,12457.1 8821.48,12445.2C8821.48,12445.2 8832.61,12450.1 8839.32,12462.5C8846.04,12474.8 8848.33,12475 8857.66,12481.7C8857.66,12481.7 8857.47,12476.5 8855.16,12472.8C8855.16,12472.8 8861.38,12475.3 8865.97,12485.3C8870.29,12494.7 8875.93,12494.2 8881.36,12509.2L8882.57,12509.1L8895.76,12514.4C8895.76,12514.4 8896.18,12523.2 8898,12527.2C8898,12527.2 8898.69,12521.9 8900.09,12518.3C8901.49,12514.7 8909.03,12502.4 8901.77,12489.4C8894.5,12476.4 8875.92,12470.8 8869.07,12460.7C8862.23,12450.7 8862.78,12444.9 8862.78,12444.9C8862.78,12444.9 8866.14,12449.7 8874.38,12455.4C8882.63,12461.1 8896.6,12464.2 8905.26,12474.6C8905.26,12474.6 8904.42,12469.8 8902.33,12466.7C8902.33,12466.7 8911.69,12472.5 8915.32,12479.7C8918.95,12487 8925.52,12491.2 8920.63,12502.4C8915.74,12513.5 8912.25,12516.3 8911.97,12525.8C8911.69,12535.3 8906.24,12540.1 8903.72,12543.9C8903.72,12543.9 8910.99,12545.1 8912.25,12550.9C8913.51,12556.6 8909.31,12568.7 8900.09,12569.2L8894.36,12569.3C8894.36,12569.3 8891.42,12577 8897.36,12580C8903.3,12583 8907.39,12588.9 8906.57,12595C8905.75,12601 8899.49,12611.5 8888.85,12612C8888.85,12612 8885.27,12610.5 8885.81,12616.1C8886.34,12621.6 8878.47,12632 8870.16,12632.1C8870.16,12632.1 8881.6,12627.2 8882.77,12617.1C8882.77,12617.1 8875.97,12625.5 8871.05,12628C8871.05,12628 8879.01,12619.6 8882.59,12614.2C8882.59,12614.2 8873.11,12618.9 8870.07,12623.7C8867.03,12628.4 8863.27,12636.4 8858.26,12640.5C8853.26,12644.6 8849.05,12649.8 8849.05,12649.8C8849.05,12649.8 8850.39,12643.8 8853.88,12639.9C8857.37,12636.1 8864.7,12630.4 8866.04,12625C8866.04,12625 8858.62,12631.6 8854.42,12632.8C8854.42,12632.8 8865.03,12624.9 8869.23,12617.9C8869.23,12617.9 8867.86,12613.2 8868.75,12608.1C8855,12623.3 8838.89,12623 8838.89,12623L8838.82,12623C8837.61,12623 8820.99,12622.7 8807.43,12606.3Z" style="stroke:black;stroke-width:6.31px;"/>
            <g>
                <g transform="matrix(1,0,0,1,60.891,0.358177)">
                    <path d="M8777.93,12622.6C8776.5,12622.6 8753.35,12622.3 8739.39,12594.9C8724.01,12564.8 8738.36,12497.8 8778,12502.7L8778.23,12502.7C8817.7,12498.1 8831.96,12564.9 8816.61,12594.9C8802.2,12623.1 8778,12622.6 8778,12622.6L8777.93,12622.6Z" style="fill:rgb(56,75,144);"/>
                    <clipPath id="_clip1">
                        <path d="M8777.93,12622.6C8776.5,12622.6 8753.35,12622.3 8739.39,12594.9C8724.01,12564.8 8738.36,12497.8 8778,12502.7L8778.23,12502.7C8817.7,12498.1 8831.96,12564.9 8816.61,12594.9C8802.2,12623.1 8778,12622.6 8778,12622.6L8777.93,12622.6Z"/>
                    </clipPath>
                    <g clip-path="url(#_clip1)">
                        <g transform="matrix(1,0,0,1,93.8944,14.295)">
                            <path d="M8661.63,12603.5C8661.63,12603.5 8651.25,12581.4 8659.14,12565.5C8659.14,12565.5 8655.72,12563.7 8651.91,12559.7C8651.91,12559.7 8644.68,12565.3 8646.65,12589.9L8661.63,12603.5Z" style="fill:rgb(202,27,24);"/>
                        </g>
                        <g transform="matrix(-1,0,0,1,17461.8,14.295)">
                            <path d="M8661.63,12603.5C8661.63,12603.5 8651.25,12581.4 8659.14,12565.5C8659.14,12565.5 8655.72,12563.7 8651.91,12559.7C8651.91,12559.7 8644.68,12565.3 8646.65,12589.9L8661.63,12603.5Z" style="fill:rgb(202,27,24);"/>
                        </g>
                        <g transform="matrix(1,0,0,1,2.55981,14.0843)">
                            <path d="M8775.43,12558.3C8775.16,12558.5 8770.76,12561.5 8766.82,12571L8762.3,12565.8C8762.3,12565.8 8770.44,12552.6 8775.44,12545.7L8775.56,12545.8C8780.56,12552.8 8788.59,12565.8 8788.59,12565.8L8784.06,12571C8779.99,12561.2 8775.44,12558.3 8775.44,12558.3L8775.43,12558.3Z" style="fill:rgb(202,27,24);"/>
                        </g>
                        <g transform="matrix(1,0,0,1,105.613,18.3974)">
                            <path d="M8680.76,12535.7C8680.76,12535.7 8678.21,12545.2 8689.65,12554C8689.65,12554 8695.03,12549.6 8699.07,12548.3C8699.07,12548.3 8698.06,12548.2 8695.37,12545.6C8695.37,12545.6 8700.08,12539.9 8700.34,12536.4C8700.59,12533 8686.54,12524.7 8676.27,12521.4C8676.27,12521.4 8691.17,12534.9 8691.08,12539.4C8691,12543.8 8688.62,12546.8 8680.76,12535.7Z" style="fill:rgb(202,27,24);"/>
                        </g>
                        <g transform="matrix(1,0,0,1,105.613,18.3974)">
                            <path d="M8708.48,12530.2C8708.48,12530.2 8705.8,12538.2 8700.34,12545.6C8700.34,12545.6 8709.55,12547.1 8709.76,12542.7C8709.96,12538.4 8708.48,12530.2 8708.48,12530.2Z" style="fill:rgb(202,27,24);"/>
                        </g>
                        <g transform="matrix(-1,0,0,1,17450.4,18.3974)">
                            <path d="M8680.76,12535.7C8680.76,12535.7 8678.21,12545.2 8689.65,12554C8689.65,12554 8695.03,12549.6 8699.07,12548.3C8699.07,12548.3 8698.06,12548.2 8695.37,12545.6C8695.37,12545.6 8700.08,12539.9 8700.34,12536.4C8700.59,12533 8686.54,12524.7 8676.27,12521.4C8676.27,12521.4 8691.17,12534.9 8691.08,12539.4C8691,12543.8 8688.62,12546.8 8680.76,12535.7Z" style="fill:rgb(202,27,24);"/>
                        </g>
                        <g transform="matrix(-1,0,0,1,17450.4,18.3974)">
                            <path d="M8708.48,12530.2C8708.48,12530.2 8705.8,12538.2 8700.34,12545.6C8700.34,12545.6 8709.55,12547.1 8709.76,12542.7C8709.96,12538.4 8708.48,12530.2 8708.48,12530.2Z" style="fill:rgb(202,27,24);"/>
                        </g>
                    </g>
                </g>
                <g transform="matrix(1,0,0,1,159.263,17.9667)">
                    <path d="M8689.15,12556.4C8689.15,12556.4 8693.42,12547.8 8710.11,12547.7C8710.11,12547.7 8691.55,12544.2 8689.15,12556.4Z" style="fill:rgb(49,49,49);"/>
                </g>
                <g transform="matrix(-1,0,0,1,17518.5,17.9667)">
                    <path d="M8689.15,12556.4C8689.15,12556.4 8693.42,12547.8 8710.11,12547.7C8710.11,12547.7 8691.55,12544.2 8689.15,12556.4Z" style="fill:rgb(49,49,49);"/>
                </g>
                <path d="M8881.36,12509.2L8882.57,12509.1L8895.76,12514.4C8895.76,12514.4 8896.18,12523.2 8898,12527.2C8898,12527.2 8898.69,12521.9 8900.09,12518.3C8901.49,12514.7 8909.03,12502.4 8901.77,12489.4C8894.5,12476.4 8875.92,12470.8 8869.07,12460.7C8862.23,12450.7 8862.78,12444.9 8862.78,12444.9C8862.78,12444.9 8866.14,12449.7 8874.38,12455.4C8882.63,12461.1 8896.6,12464.2 8905.26,12474.6C8905.26,12474.6 8904.42,12469.8 8902.33,12466.7C8902.33,12466.7 8911.69,12472.5 8915.32,12479.7C8918.95,12487 8925.52,12491.2 8920.63,12502.4C8915.74,12513.5 8912.25,12516.3 8911.97,12525.8C8911.69,12535.3 8906.24,12540.1 8903.72,12543.9C8903.72,12543.9 8910.99,12545.1 8912.25,12550.9C8913.51,12556.6 8909.31,12568.7 8900.09,12569.2L8894.36,12569.3C8894.36,12569.3 8891.42,12577 8897.36,12580C8903.3,12583 8907.39,12588.9 8906.57,12595C8905.75,12601 8899.49,12611.5 8888.85,12612C8888.85,12612 8885.27,12610.5 8885.81,12616.1C8886.34,12621.6 8878.47,12632 8870.16,12632.1C8870.16,12632.1 8881.6,12627.2 8882.77,12617.1C8882.77,12617.1 8875.97,12625.5 8871.05,12628C8871.05,12628 8879.01,12619.6 8882.59,12614.2C8882.59,12614.2 8873.11,12618.9 8870.07,12623.7C8867.03,12628.4 8863.27,12636.4 8858.26,12640.5C8853.26,12644.6 8849.05,12649.8 8849.05,12649.8C8849.05,12649.8 8850.39,12643.8 8853.88,12639.9C8857.37,12636.1 8864.7,12630.4 8866.04,12625C8866.04,12625 8858.62,12631.6 8854.42,12632.8C8854.42,12632.8 8865.03,12624.9 8869.23,12617.9C8869.23,12617.9 8867.36,12611.5 8869.41,12605.6C8871.47,12599.7 8871.87,12592.9 8878.02,12581.4C8878.02,12581.4 8879.5,12563.8 8868.6,12550.1C8868.6,12550.1 8867.69,12546.2 8870.53,12548.5C8870.53,12548.5 8868.69,12546 8868.61,12543.2C8868.61,12543.2 8867.89,12539.9 8869.86,12540.5C8869.86,12540.5 8872.18,12535.9 8865.83,12533.5C8859.86,12531.2 8862.04,12527.7 8855.1,12527.1C8852.35,12530.2 8849.27,12534.9 8846.57,12541.9C8839.7,12559.8 8821.82,12557.4 8810.12,12558C8808.27,12558.1 8806.21,12557.6 8803.99,12556.7C8803.51,12558.4 8802.72,12560.8 8801.4,12564.1C8797.63,12573.8 8799.03,12578.2 8801.4,12586C8803.78,12593.8 8803.32,12598 8807.25,12605.5C8807.25,12605.5 8810.4,12617.4 8804.32,12623.3C8798.24,12629.3 8791.64,12631.7 8785.25,12633.3C8778.85,12634.9 8770.57,12642.7 8778.54,12647.3C8778.54,12647.3 8772.46,12650.8 8772.77,12641.4C8773.09,12632.1 8780.43,12632.1 8785.77,12630C8791.11,12627.9 8796.88,12615.9 8796.88,12615.9C8796.88,12615.9 8783.78,12636.5 8768.37,12626.3C8768.37,12626.3 8758.94,12630.8 8749.51,12624.2C8740.08,12617.6 8742.88,12618.6 8740.03,12617.8C8740.03,12617.8 8742.98,12617 8747.38,12620.8C8751.78,12624.5 8763.44,12627.5 8771.62,12619.5C8771.62,12619.5 8763.71,12622.4 8758.34,12621.2C8752.98,12620 8752.04,12617.1 8746.14,12616.1C8746.14,12616.1 8749.96,12614.8 8754.4,12617.4C8758.84,12620 8769.24,12621 8776.03,12612.3C8776.03,12612.3 8765.3,12616.3 8754.4,12612.8C8743.5,12609.3 8733.78,12611.2 8724.14,12603.9C8714.5,12596.6 8707.87,12598.4 8707.87,12598.4C8707.87,12598.4 8713.91,12595.1 8724.14,12600.6C8734.37,12606.2 8751.61,12613.5 8769.65,12605.3C8769.65,12605.3 8754.68,12607.6 8744.12,12598.7C8744.12,12598.7 8735.73,12596.6 8730.87,12593.8C8730.87,12593.8 8717.88,12594.9 8709.91,12586C8709.91,12586 8718.97,12588.8 8724.5,12588.5C8730.03,12588.1 8756.06,12585.7 8764.55,12567.1C8764.55,12567.1 8727.92,12575.8 8716.81,12572.7C8705.7,12569.5 8690.93,12558.2 8685.79,12556.3C8685.79,12556.3 8697.53,12558.7 8706.96,12565C8713.16,12569.2 8718.19,12568.5 8721.74,12567.2C8716.16,12564.4 8709.74,12559.5 8702.11,12551.4C8702.11,12551.4 8719.25,12562 8733.52,12558.3C8736.89,12555 8741.01,12550.8 8745.15,12546.6C8740.55,12547.4 8734.2,12548.7 8729.19,12550.4C8720.27,12553.5 8704.31,12545.6 8697.5,12548.1C8697.5,12548.1 8698.84,12546.6 8700.04,12546.2C8700.04,12546.2 8697.33,12546.3 8695.59,12548.8C8695.59,12548.8 8699.51,12539.9 8711.54,12541.8C8723.57,12543.7 8731.93,12542.2 8740.44,12539.9C8745.8,12538.4 8750.35,12537 8754.7,12536.7L8754.95,12536.5L8756.12,12535.2C8751.69,12533.5 8745.86,12531.1 8742.09,12528.7C8735.32,12524.6 8728.78,12515 8718.57,12513.1C8708.35,12511.2 8709.92,12508.8 8707.04,12505.2C8707.04,12505.2 8711.76,12507.9 8714.9,12508.8C8718.04,12509.6 8727.61,12509.8 8731.8,12513.3C8731.8,12513.3 8730.09,12510.2 8728.13,12505.2C8728.13,12505.2 8734.42,12508.6 8739.66,12514.1C8744.9,12519.7 8755.25,12520.9 8759.83,12520.7C8759.83,12520.7 8751.77,12516.2 8754.56,12510.8C8757.34,12505.4 8764.55,12504.1 8770.77,12509.2C8770.77,12509.2 8768.6,12507.9 8765.04,12509.5C8765.04,12509.5 8770.51,12510 8773.45,12511.5C8773.45,12511.5 8760.66,12510.7 8765.69,12516.1C8768.35,12518.9 8770.08,12522.5 8772.24,12525L8793.44,12522C8794.82,12521.3 8796.07,12520.9 8797.21,12520.8C8797.21,12520.8 8790.27,12517.2 8785.68,12507.6C8781.1,12498.1 8769.83,12496.6 8763.68,12498.6C8763.68,12498.6 8769.96,12493.6 8773.37,12491.9C8776.78,12490.1 8789.09,12494 8793.81,12499.3C8793.81,12499.3 8788.57,12489.1 8782.01,12487.2C8775.47,12485.3 8765.51,12485.6 8760.01,12479.1C8760.01,12479.1 8768.65,12481.8 8776.38,12481C8784.11,12480.1 8793.54,12479.4 8801.14,12484.1C8808.74,12488.8 8817.06,12487.6 8828.03,12492.8C8828.03,12492.8 8838.51,12484.3 8832.94,12476.3C8827.37,12468.3 8832.61,12457.1 8821.48,12445.2C8821.48,12445.2 8832.61,12450.1 8839.32,12462.5C8846.04,12474.8 8848.33,12475 8857.66,12481.7C8857.66,12481.7 8857.47,12476.5 8855.16,12472.8C8855.16,12472.8 8861.38,12475.3 8865.97,12485.3C8870.29,12494.7 8875.93,12494.2 8881.36,12509.2Z" style="fill:url(#_Linear2);"/>
            </g>
        </g>
    </g>
    <defs>
        <linearGradient id="_Linear2" x1="0" y1="0" x2="1" y2="0" gradientUnits="userSpaceOnUse" gradientTransform="matrix(-43.624,-157.154,157.154,-43.624,8852.04,12649.8)"><stop offset="0" style="stop-color:rgb(186,4,119);stop-opacity:1"/><stop offset="0.58" style="stop-color:rgb(161,166,148);stop-opacity:1"/><stop offset="1" style="stop-color:rgb(149,241,162);stop-opacity:1"/></linearGradient>
    </defs>
</svg>
