<?xml version="1.0" encoding="UTF-8" standalone="no"?>
<!DOCTYPE svg PUBLIC "-//W3C//DTD SVG 1.1//EN" "http://www.w3.org/Graphics/SVG/1.1/DTD/svg11.dtd">
<svg width="100%" height="100%" viewBox="0 0 246 243" version="1.1" xmlns="http://www.w3.org/2000/svg" xmlns:xlink="http://www.w3.org/1999/xlink" xml:space="preserve" xmlns:serif="http://www.serif.com/" style="fill-rule:evenodd;clip-rule:evenodd;stroke-linecap:round;stroke-linejoin:round;stroke-miterlimit:1.5;">
    <g transform="matrix(1,0,0,1,-7501.15,-13719.4)">
        <g transform="matrix(0.32184,0,0,0.32184,5949.27,10079.6)">
            <path d="M5361.27,11516.7C5363.12,11511.1 5365.31,11506.1 5367.87,11501.8C5367.87,11501.8 5367.87,11512.1 5376.56,11531C5376.56,11531 5376.72,11501.7 5387.41,11497.1C5387.41,11497.1 5385.81,11515.4 5392.23,11526.9C5392.23,11526.9 5535.21,11398.3 5565.24,11322.2C5565.24,11322.2 5579.6,11435.2 5567.85,11516.9C5556.1,11598.6 5532.6,11636.7 5505.18,11681.4C5481.68,11719.8 5458.15,11752.3 5405.46,11849.3C5398.17,11883.1 5384.62,11912.8 5371.08,11930.2C5347.58,11960.4 5313.63,11988.4 5290.13,12023.1C5266.63,12057.8 5206.57,12046.6 5206.57,12046.6L5198.41,12046.6C5198.41,12046.6 5138.36,12057.8 5114.86,12023.1C5091.36,11988.4 5057.41,11960.4 5033.91,11930.2C5019.46,11911.6 5005.02,11879.1 4998.15,11842.5C4948.05,11750.7 4925.08,11718.9 4902.13,11681.4C4874.72,11636.7 4851.22,11598.6 4839.47,11516.9C4827.72,11435.2 4842.08,11322.2 4842.08,11322.2C4872.11,11398.3 5015.09,11526.9 5015.09,11526.9C5021.51,11515.4 5019.9,11497.1 5019.9,11497.1C5030.6,11501.7 5030.76,11531 5030.76,11531C5039.45,11512.1 5039.45,11501.8 5039.45,11501.8C5041.72,11505.6 5043.7,11510 5045.42,11514.9C5075.43,11483.1 5122.88,11461.4 5197.44,11460.2L5197.43,11460.1C5199.15,11460.1 5200.85,11460.1 5202.49,11460.1C5204.14,11460.1 5205.84,11460.1 5207.55,11460.1L5207.55,11460.2C5283.54,11461.4 5331.36,11484 5361.27,11516.7Z" style="stroke:black;stroke-width:25.89px;"/>
            <g>
                <g transform="matrix(1.16655,0,0,1,-805.228,0)">
                    <path d="M5150,11460.1C5151.41,11460.1 5152.87,11460.1 5154.34,11460.1L5154.34,11460.2C5373.68,11464.3 5319.24,11710.5 5326.98,11771.3C5334.81,11832.8 5314.66,11900 5294.52,11930.2C5274.37,11960.4 5245.28,11988.4 5225.13,12023.1C5204.98,12057.8 5153.5,12046.6 5153.5,12046.6L5146.51,12046.6C5146.51,12046.6 5095.02,12057.8 5074.88,12023.1C5054.73,11988.4 5025.63,11960.4 5005.49,11930.2C4985.34,11900 4965.2,11832.8 4973.03,11771.3C4980.77,11710.5 4926.33,11464.3 5145.67,11460.2L5145.67,11460.1C5147.14,11460.1 5148.59,11460.1 5150,11460.1Z" style="fill:rgb(215,169,130);"/>
                </g>
                <g transform="matrix(1.16655,0,0,1,-805.228,0)">
                    <path d="M5299.22,11903.5C5299.22,11903.5 5316.41,11819.2 5312.97,11781.4C5309.53,11743.6 5312.4,11712.7 5282.6,11685.2C5282.6,11685.2 5267.7,11548.8 5291.77,11501.8C5291.77,11501.8 5291.77,11512.1 5299.22,11531C5299.22,11531 5299.36,11501.7 5308.52,11497.1C5308.52,11497.1 5307.15,11515.4 5312.65,11526.9C5312.65,11526.9 5435.22,11398.3 5460.96,11322.2C5460.96,11322.2 5473.27,11435.2 5463.2,11516.9C5453.12,11598.6 5432.98,11636.7 5409.48,11681.4C5385.97,11726.2 5362.43,11762.9 5299.22,11903.5Z" style="fill:rgb(218,219,214);"/>
                </g>
                <g transform="matrix(-1.16655,0,0,1,11212.5,0)">
                    <path d="M5299.22,11903.5C5299.22,11903.5 5316.41,11819.2 5312.97,11781.4C5309.53,11743.6 5312.4,11712.7 5282.6,11685.2C5282.6,11685.2 5267.7,11548.8 5291.77,11501.8C5291.77,11501.8 5291.77,11512.1 5299.22,11531C5299.22,11531 5299.36,11501.7 5308.52,11497.1C5308.52,11497.1 5307.15,11515.4 5312.65,11526.9C5312.65,11526.9 5435.22,11398.3 5460.96,11322.2C5460.96,11322.2 5473.27,11435.2 5463.2,11516.9C5453.12,11598.6 5432.98,11636.7 5409.48,11681.4C5385.97,11726.2 5362.43,11762.9 5299.22,11903.5Z" style="fill:rgb(218,219,214);"/>
                </g>
                <g transform="matrix(0.91825,0,0,0.809053,527.475,3134.39)">
                    <path d="M5126.66,10708.4C5126.66,10708.4 5227.84,10657.7 5245.67,10641.5C5253.73,10634.1 5261.14,10628.9 5233.64,10611.1C5206.13,10593.3 5211.29,10597.3 5186.08,10620.8C5160.86,10644.3 5126.66,10708.4 5126.66,10708.4Z" style="fill:rgb(218,219,214);"/>
                </g>
                <g transform="matrix(-0.91825,0,0,0.809053,9877.51,3134.39)">
                    <path d="M5126.66,10708.4C5126.66,10708.4 5227.84,10657.7 5245.67,10641.5C5253.73,10634.1 5261.14,10628.9 5233.64,10611.1C5206.13,10593.3 5211.29,10597.3 5186.08,10620.8C5160.86,10644.3 5126.66,10708.4 5126.66,10708.4Z" style="fill:rgb(218,219,214);"/>
                </g>
                <g transform="matrix(1.16655,0,0,1,-808.966,0)">
                    <path d="M5155.98,11876.4C5189.07,11878.1 5275.28,11898.1 5232.73,11997.3C5232.73,11997.3 5224.31,11931.7 5153.86,11928.9L5152.58,11928.9C5086.82,11931.2 5073.71,11997.3 5073.71,11997.3C5031.16,11898.1 5117.14,11876.4 5150.46,11876.4L5155.98,11876.4Z" style="fill:rgb(218,219,214);"/>
                </g>
            </g>
        </g>
    </g>
</svg>
