<?xml version="1.0" encoding="UTF-8" standalone="no"?>
<!DOCTYPE svg PUBLIC "-//W3C//DTD SVG 1.1//EN" "http://www.w3.org/Graphics/SVG/1.1/DTD/svg11.dtd">
<svg width="100%" height="100%" viewBox="0 0 242 188" version="1.1" xmlns="http://www.w3.org/2000/svg" xmlns:xlink="http://www.w3.org/1999/xlink" xml:space="preserve" xmlns:serif="http://www.serif.com/" style="fill-rule:evenodd;clip-rule:evenodd;stroke-linecap:round;stroke-linejoin:round;stroke-miterlimit:1.5;">
    <g transform="matrix(1,0,0,1,-5897.181919,-13568.19662)">
        <g transform="matrix(1.424122,0,0,1.424122,2979.234797,-4128.878863)">
            <g transform="matrix(1,-0,0,1,0.832244,1.193493)">
                <path d="M2071.759,12461.909C2072.417,12458.404 2073.235,12455.102 2074.155,12452.115C2083.808,12420.752 2177.797,12420.218 2190.636,12452.115C2191.823,12455.063 2192.827,12458.365 2193.605,12461.896C2196.437,12462.166 2199.741,12463.018 2202.381,12465.228C2208.229,12470.125 2220.607,12478.694 2210.814,12489.983C2201.393,12500.843 2194.49,12505.179 2189.862,12506.149C2187.33,12511.452 2183.856,12516.15 2179.277,12519.789C2178.9,12526.582 2178.223,12536.292 2177.299,12539.725C2175.821,12545.215 2173.182,12546.376 2173.182,12546.376L2173.636,12537.893C2172.404,12537.507 2170.994,12536.827 2170.742,12535.696C2170.742,12535.696 2171.127,12540.076 2170.128,12542.534C2170.128,12542.534 2168.207,12536.541 2166.978,12534.236C2166.978,12534.236 2166.517,12542.688 2164.98,12546.376C2164.98,12546.376 2164.397,12541.36 2163.566,12536.434C2158.275,12542.337 2153.745,12546.37 2151.715,12548.18C2145.755,12553.495 2135.981,12554.306 2133.147,12554.43L2133.147,12554.452C2133.147,12554.452 2133.008,12554.452 2132.751,12554.445C2132.493,12554.452 2132.354,12554.452 2132.354,12554.452L2132.354,12554.43C2129.521,12554.306 2119.747,12553.495 2113.786,12548.18C2111.756,12546.37 2107.226,12542.337 2101.935,12536.434C2101.104,12541.36 2100.521,12546.376 2100.521,12546.376C2098.985,12542.688 2098.524,12534.236 2098.524,12534.236C2097.294,12536.541 2095.374,12542.534 2095.374,12542.534C2094.375,12540.076 2094.759,12535.696 2094.759,12535.696C2094.508,12536.827 2093.097,12537.507 2091.865,12537.893L2092.32,12546.376C2092.32,12546.376 2089.681,12545.215 2088.203,12539.725C2087.282,12536.304 2086.607,12526.652 2086.229,12519.864C2086.059,12520.045 2085.967,12520.143 2085.967,12520.143C2081.1,12516.408 2077.549,12511.532 2075.053,12506.011C2070.436,12504.809 2063.718,12500.394 2054.688,12489.983C2044.894,12478.694 2057.272,12470.125 2063.121,12465.228C2065.718,12463.054 2068.958,12462.194 2071.759,12461.909Z" style="stroke:black;stroke-width:5.85px;"/>
            </g>
            <g>
                <g transform="matrix(1,-0,0,1,0.832244,1.193493)">
                    <path d="M2086.712,12517.472C2086.712,12517.472 2092.986,12531.878 2089.932,12538.331C2089.932,12538.331 2094.298,12537.771 2094.759,12535.696C2094.759,12535.696 2094.375,12540.076 2095.374,12542.534C2095.374,12542.534 2097.294,12536.541 2098.524,12534.236C2098.524,12534.236 2098.985,12542.688 2100.521,12546.376C2100.521,12546.376 2102.289,12531.163 2104.056,12527.705L2086.712,12517.472Z" style="fill:rgb(94,94,40);"/>
                </g>
                <g transform="matrix(-1,-0,-0,1,4266.333639,1.193493)">
                    <path d="M2086.712,12517.472C2086.712,12517.472 2092.986,12531.878 2089.932,12538.331C2089.932,12538.331 2094.298,12537.771 2094.759,12535.696C2094.759,12535.696 2094.375,12540.076 2095.374,12542.534C2095.374,12542.534 2097.294,12536.541 2098.524,12534.236C2098.524,12534.236 2098.985,12542.688 2100.521,12546.376C2100.521,12546.376 2102.289,12531.163 2104.056,12527.705L2086.712,12517.472Z" style="fill:rgb(94,94,40);"/>
                </g>
                <g transform="matrix(0.790069,-0.065566,0.065566,0.790069,-1495.360623,3123.196397)">
                    <path d="M3577.298,12235.607C3573.749,12235.156 3561.546,12233.117 3554.608,12225.814C3546.427,12217.202 3503.366,12171.988 3514.562,12116.009L3528,12089.312L3589.443,12095.294L3651.033,12099.522L3659.886,12128.069C3661.701,12185.128 3611.776,12222.625 3602.287,12229.771C3594.24,12235.83 3581.869,12235.83 3578.294,12235.69L3578.292,12235.718C3578.292,12235.718 3578.117,12235.703 3577.794,12235.667C3577.47,12235.65 3577.295,12235.635 3577.295,12235.635L3577.298,12235.607Z" style="fill:rgb(213,154,99);"/>
                </g>
                <g transform="matrix(0.230511,0,0,0.230511,1784.428984,9629.013898)">
                    <path d="M1331.056,12507.442L1339.3,12661.256C1339.3,12661.256 1327.85,12656.218 1321.439,12632.404C1315.027,12608.59 1311.364,12515.164 1311.364,12515.164L1331.056,12507.442Z" style="fill:rgb(68,52,35);"/>
                </g>
                <g transform="matrix(-0.230511,0,0,0.230511,2482.736899,9629.013898)">
                    <path d="M1331.056,12507.442L1339.3,12661.256C1339.3,12661.256 1327.85,12656.218 1321.439,12632.404C1315.027,12608.59 1311.364,12515.164 1311.364,12515.164L1331.056,12507.442Z" style="fill:rgb(68,52,35);"/>
                </g>
                <g transform="matrix(0.177072,-0.018808,0.018808,0.177072,1626.349565,10318.001653)">
                    <path d="M1238.783,12190.589C1311.295,12021.173 1836.489,12073.94 1889.266,12259.682C1920.88,12370.942 1900.897,12560.476 1782.948,12632.575C1782.948,12632.575 1725.008,12556.304 1713.814,12525.208C1702.62,12494.112 1692.719,12450.266 1688.942,12409.932C1685.235,12370.327 1665.304,12301.125 1557.988,12281.97C1449.043,12278.154 1415.019,12341.625 1403.074,12379.567C1390.91,12418.208 1372.018,12458.996 1354.542,12487.047C1337.065,12515.097 1264.396,12577.495 1264.396,12577.495C1164.225,12482.228 1193.271,12296.922 1238.783,12190.589Z" style="fill:rgb(72,56,40);"/>
                </g>
                <g transform="matrix(0.190081,0,0,0.190081,1838.407244,10131.532521)">
                    <path d="M1265.29,12267.196C1265.29,12267.196 1217.347,12257.893 1186.577,12283.654C1155.807,12309.415 1090.69,12354.496 1142.211,12413.888C1193.733,12473.281 1230.942,12495.583 1255.272,12499.459C1255.272,12499.459 1323.251,12475.428 1323.251,12379.541C1323.251,12283.654 1265.29,12267.196 1265.29,12267.196Z" style="fill:rgb(68,52,35);"/>
                </g>
                <g transform="matrix(-0.190081,0,0,0.190081,2428.758638,10131.532521)">
                    <path d="M1265.29,12267.196C1265.29,12267.196 1217.347,12257.893 1186.577,12283.654C1155.807,12309.415 1090.69,12354.496 1142.211,12413.888C1193.733,12473.281 1230.942,12495.583 1255.272,12499.459C1255.272,12499.459 1323.251,12475.428 1323.251,12379.541C1323.251,12283.654 1265.29,12267.196 1265.29,12267.196Z" style="fill:rgb(68,52,35);"/>
                </g>
                <g transform="matrix(0.310222,0,0,0.310222,1653.185212,8637.273966)">
                    <path d="M1539.092,12468.931C1531.687,12482.638 1505.181,12482.911 1485.449,12480.444C1457.311,12476.927 1391.071,12443.514 1417.743,12397.204C1417.743,12397.204 1425.071,12380.498 1455.553,12383.429C1486.035,12386.359 1516.81,12404.635 1536.155,12443.272C1537.979,12446.915 1539.258,12450.233 1540.056,12453.251C1543.11,12452.724 1549.471,12452.115 1556.816,12454.239C1557.584,12450.961 1558.938,12447.317 1560.963,12443.272C1580.308,12404.635 1611.083,12386.359 1641.565,12383.429C1672.048,12380.498 1679.375,12397.204 1679.375,12397.204C1706.047,12443.514 1639.807,12476.927 1611.669,12480.444C1592.378,12482.856 1566.61,12482.649 1558.55,12469.829C1554.927,12469.259 1547.205,12468.307 1539.092,12468.931Z" style="fill:rgb(77,62,48);"/>
                </g>
                <g transform="matrix(0.249572,0,0,0.249572,1744.824584,9392.466836)">
                    <path d="M1417.743,12397.204C1417.743,12397.204 1425.071,12380.498 1455.553,12383.429C1486.035,12386.359 1516.81,12404.635 1536.155,12443.272C1555.499,12481.91 1513.586,12483.961 1485.449,12480.444C1457.311,12476.927 1391.071,12443.514 1417.743,12397.204Z" style="fill:rgb(64,72,152);"/>
                </g>
                <g transform="matrix(-0.249572,0,0,0.249572,2522.341299,9392.466836)">
                    <path d="M1417.743,12397.204C1417.743,12397.204 1425.071,12380.498 1455.553,12383.429C1486.035,12386.359 1516.81,12404.635 1536.155,12443.272C1555.499,12481.91 1513.586,12483.961 1485.449,12480.444C1457.311,12476.927 1391.071,12443.514 1417.743,12397.204Z" style="fill:rgb(64,72,152);"/>
                </g>
            </g>
        </g>
    </g>
</svg>
