<?xml version="1.0" encoding="UTF-8" standalone="no"?>
<!DOCTYPE svg PUBLIC "-//W3C//DTD SVG 1.1//EN" "http://www.w3.org/Graphics/SVG/1.1/DTD/svg11.dtd">
<svg width="100%" height="100%" viewBox="0 0 214 257" version="1.1" xmlns="http://www.w3.org/2000/svg" xmlns:xlink="http://www.w3.org/1999/xlink" xml:space="preserve" xmlns:serif="http://www.serif.com/" style="fill-rule:evenodd;clip-rule:evenodd;stroke-linecap:round;stroke-linejoin:round;stroke-miterlimit:1.5;">
    <g transform="matrix(1,0,0,1,-9725.85,-13637.6)">
        <g transform="matrix(0.501294,0,0,0.501294,5252.43,13228.8)">
            <path d="M8973.9,999.988C8973.89,999.416 8973.89,998.807 8973.91,998.154C8977.6,836.828 9082.6,826.23 9136.82,823.682C9188.76,824.27 9212.78,843.498 9212.78,843.498C9228.5,843.331 9236.78,856.208 9236.78,856.208C9256.18,857.378 9261.36,876.442 9261.36,876.442C9272.73,880.289 9278.63,892.622 9281.47,897.304C9284.31,901.987 9279.81,903.85 9279.81,903.85C9301.05,943.698 9299.87,988.656 9299.74,998.154C9299.73,998.842 9299.71,999.482 9299.68,1000.08C9311.45,989.906 9326.96,976.884 9332.39,974.017C9341.6,969.168 9343.21,968.173 9340.35,975.758C9337.49,983.344 9331.65,1000.01 9326.05,1007.47C9320.46,1014.93 9315.36,1022.08 9314.74,1030.41C9314.17,1038.03 9290.76,1069.09 9277.17,1072.5L9277.13,1072.59C9277.11,1072.62 9277.1,1072.65 9277.08,1072.68L9277.06,1072.73L9277.05,1072.81C9277.05,1072.81 9236.36,1220.21 9136.13,1219.01C9034.13,1218.22 8996.64,1072.81 8996.64,1072.81L9019.51,1130.27L9016.14,1319.29C9016.14,1319.29 8997.45,1023.54 8997.98,991.177L9002.48,1091.16C9002.02,1089.85 9001.58,1088.6 9001.17,1087.41C9000.23,1087 8999.57,1086.06 8999.57,1084.97L8999.57,1082.62C8997.58,1076.46 8996.64,1072.81 8996.64,1072.81L8996.61,1072.66L8996.62,1072.81C8996.62,1072.81 8996.57,1072.7 8996.48,1072.49C8982.88,1069.03 8959.52,1038.03 8958.95,1030.41C8958.33,1022.08 8953.23,1014.93 8947.63,1007.47C8942.04,1000.01 8936.19,983.344 8933.33,975.758C8930.47,968.173 8932.09,969.168 8941.29,974.017C8946.71,976.875 8962.14,989.827 8973.9,999.988Z" style="stroke:black;stroke-width:16.62px;"/>
            <g>
                <g transform="matrix(0.743574,0,0,0.743574,2660.07,326.392)">
                    <path d="M8909.82,923.112C8909.82,923.112 8960.95,877.485 8973.32,870.963C8985.7,864.441 8987.87,863.104 8984.02,873.305C8980.18,883.506 8972.32,905.914 8964.79,915.948C8957.27,925.982 8950.41,935.598 8949.57,946.802C8948.74,958.006 8911.22,1006.85 8894.33,1003.67L8878.72,956.475L8909.82,923.112Z" style="fill:rgb(198,173,150);"/>
                </g>
                <g transform="matrix(-0.743574,0,0,0.743574,15613.6,326.392)">
                    <path d="M8909.82,923.112C8909.82,923.112 8960.95,877.485 8973.32,870.963C8985.7,864.441 8987.87,863.104 8984.02,873.305C8980.18,883.506 8972.32,905.914 8964.79,915.948C8957.27,925.982 8950.41,935.598 8949.57,946.802C8948.74,958.006 8911.22,1006.85 8894.33,1003.67L8878.72,956.475L8909.82,923.112Z" style="fill:rgb(198,173,150);"/>
                </g>
                <path d="M9136.13,1219.01C9034.13,1218.22 8996.64,1072.81 8996.64,1072.81L8994.09,1060.21L8994.63,1031.45L8991.06,979.998L9011.47,923.258L9136.84,888.044L9262.21,923.258L9282.63,979.998L9279.06,1031.45L9279.59,1060.21L9277.05,1072.81C9277.05,1072.81 9236.36,1220.21 9136.13,1219.01Z" style="fill:rgb(198,173,150);"/>
                <path d="M9136.74,973.209C9135.87,972.385 9128.76,965.453 9123.86,954.478C9123.86,954.478 9122.91,956.492 9123.87,960.666C9123.87,960.666 9108.51,949.481 9103.38,939.849C9103.38,939.849 9105.41,949.695 9110.12,957.722C9110.12,957.722 9103.16,954.083 9099.84,949.374C9099.84,949.374 9101.13,953.013 9102.52,955.903C9102.52,955.903 9080.34,947.876 9074.02,937.173C9074.02,937.173 9064.93,932.116 9061.5,920.985C9061.5,920.985 9066.1,941.887 9085.58,955.823C9085.58,955.823 9072.63,952.848 9068.35,948.888C9068.35,948.888 9069.42,951.671 9073.92,955.31C9073.92,955.31 9064.85,955.524 9056.39,951.457C9047.94,947.39 9042.91,949.423 9038.73,949.423C9038.73,949.423 9040.98,954.561 9048.36,960.875C9048.36,960.875 9046.76,964.193 9037.13,964.514C9037.13,964.514 9039.91,968.795 9042.26,970.508C9042.26,970.508 9032.79,971.712 9020.27,970.535C9020.27,970.535 9027.12,976.234 9033.86,977.518C9033.86,977.518 9031.72,980.836 9022.41,985.866C9022.41,985.866 9026.05,989.826 9030.33,989.826C9030.33,989.826 9023.56,994.081 9017.89,995.365C9012.22,996.649 9013.72,1002.75 9007.51,1009.06C9001.3,1015.38 9000.1,1016.05 8998.76,1031.03C8997.42,1046.02 8995.01,1050.2 8996.62,1072.81C8996.62,1072.81 8987.95,1054.11 8988.09,1036.05C8988.22,1017.99 8989.69,1015.58 8982.74,1011.83C8975.78,1008.09 8973.69,1007.65 8973.91,998.154C8977.6,836.828 9082.6,826.23 9136.82,823.682C9188.76,824.27 9212.78,843.498 9212.78,843.498C9228.5,843.331 9236.78,856.208 9236.78,856.208C9256.18,857.378 9261.36,876.442 9261.36,876.442C9272.73,880.289 9278.63,892.622 9281.47,897.304C9284.31,901.987 9279.81,903.85 9279.81,903.85C9301.05,943.698 9299.87,988.656 9299.74,998.154C9299.6,1007.65 9297.86,1008.09 9290.91,1011.83C9283.95,1015.58 9285.42,1017.99 9285.56,1036.05C9285.69,1054.11 9277.03,1072.81 9277.03,1072.81C9278.63,1050.2 9276.23,1046.02 9274.89,1031.03C9273.55,1016.05 9272.35,1015.38 9266.14,1009.06C9259.93,1002.75 9261.43,996.649 9255.76,995.365C9250.08,994.081 9243.32,989.826 9243.32,989.826C9247.6,989.826 9251.24,985.866 9251.24,985.866C9241.92,980.836 9239.78,977.518 9239.78,977.518C9246.53,976.234 9253.38,970.535 9253.38,970.535C9240.85,971.712 9231.38,970.508 9231.38,970.508C9233.74,968.795 9236.52,964.514 9236.52,964.514C9226.89,964.193 9225.28,960.875 9225.28,960.875C9232.67,954.561 9234.91,949.423 9234.91,949.423C9230.74,949.423 9225.71,947.39 9217.25,951.457C9208.8,955.524 9199.73,955.31 9199.73,955.31C9204.22,951.671 9205.29,948.888 9205.29,948.888C9201.01,952.848 9188.06,955.823 9188.06,955.823C9207.54,941.887 9212.14,920.985 9212.14,920.985C9208.72,932.116 9199.62,937.173 9199.62,937.173C9193.31,947.876 9171.12,955.903 9171.12,955.903C9172.52,953.013 9173.8,949.374 9173.8,949.374C9170.48,954.083 9163.53,957.722 9163.53,957.722C9168.24,949.695 9170.27,939.849 9170.27,939.849C9165.13,949.481 9149.77,960.666 9149.77,960.666C9150.74,956.492 9149.78,954.478 9149.78,954.478C9144.56,966.184 9136.82,973.291 9136.82,973.291L9136.74,973.209Z" style="fill:rgb(192,202,201);"/>
                <clipPath id="_clip1">
                    <path d="M9136.74,973.209C9135.87,972.385 9128.76,965.453 9123.86,954.478C9123.86,954.478 9122.91,956.492 9123.87,960.666C9123.87,960.666 9108.51,949.481 9103.38,939.849C9103.38,939.849 9105.41,949.695 9110.12,957.722C9110.12,957.722 9103.16,954.083 9099.84,949.374C9099.84,949.374 9101.13,953.013 9102.52,955.903C9102.52,955.903 9080.34,947.876 9074.02,937.173C9074.02,937.173 9064.93,932.116 9061.5,920.985C9061.5,920.985 9066.1,941.887 9085.58,955.823C9085.58,955.823 9072.63,952.848 9068.35,948.888C9068.35,948.888 9069.42,951.671 9073.92,955.31C9073.92,955.31 9064.85,955.524 9056.39,951.457C9047.94,947.39 9042.91,949.423 9038.73,949.423C9038.73,949.423 9040.98,954.561 9048.36,960.875C9048.36,960.875 9046.76,964.193 9037.13,964.514C9037.13,964.514 9039.91,968.795 9042.26,970.508C9042.26,970.508 9032.79,971.712 9020.27,970.535C9020.27,970.535 9027.12,976.234 9033.86,977.518C9033.86,977.518 9031.72,980.836 9022.41,985.866C9022.41,985.866 9026.05,989.826 9030.33,989.826C9030.33,989.826 9023.56,994.081 9017.89,995.365C9012.22,996.649 9013.72,1002.75 9007.51,1009.06C9001.3,1015.38 9000.1,1016.05 8998.76,1031.03C8997.42,1046.02 8995.01,1050.2 8996.62,1072.81C8996.62,1072.81 8987.95,1054.11 8988.09,1036.05C8988.22,1017.99 8989.69,1015.58 8982.74,1011.83C8975.78,1008.09 8973.69,1007.65 8973.91,998.154C8977.6,836.828 9082.6,826.23 9136.82,823.682C9188.76,824.27 9212.78,843.498 9212.78,843.498C9228.5,843.331 9236.78,856.208 9236.78,856.208C9256.18,857.378 9261.36,876.442 9261.36,876.442C9272.73,880.289 9278.63,892.622 9281.47,897.304C9284.31,901.987 9279.81,903.85 9279.81,903.85C9301.05,943.698 9299.87,988.656 9299.74,998.154C9299.6,1007.65 9297.86,1008.09 9290.91,1011.83C9283.95,1015.58 9285.42,1017.99 9285.56,1036.05C9285.69,1054.11 9277.03,1072.81 9277.03,1072.81C9278.63,1050.2 9276.23,1046.02 9274.89,1031.03C9273.55,1016.05 9272.35,1015.38 9266.14,1009.06C9259.93,1002.75 9261.43,996.649 9255.76,995.365C9250.08,994.081 9243.32,989.826 9243.32,989.826C9247.6,989.826 9251.24,985.866 9251.24,985.866C9241.92,980.836 9239.78,977.518 9239.78,977.518C9246.53,976.234 9253.38,970.535 9253.38,970.535C9240.85,971.712 9231.38,970.508 9231.38,970.508C9233.74,968.795 9236.52,964.514 9236.52,964.514C9226.89,964.193 9225.28,960.875 9225.28,960.875C9232.67,954.561 9234.91,949.423 9234.91,949.423C9230.74,949.423 9225.71,947.39 9217.25,951.457C9208.8,955.524 9199.73,955.31 9199.73,955.31C9204.22,951.671 9205.29,948.888 9205.29,948.888C9201.01,952.848 9188.06,955.823 9188.06,955.823C9207.54,941.887 9212.14,920.985 9212.14,920.985C9208.72,932.116 9199.62,937.173 9199.62,937.173C9193.31,947.876 9171.12,955.903 9171.12,955.903C9172.52,953.013 9173.8,949.374 9173.8,949.374C9170.48,954.083 9163.53,957.722 9163.53,957.722C9168.24,949.695 9170.27,939.849 9170.27,939.849C9165.13,949.481 9149.77,960.666 9149.77,960.666C9150.74,956.492 9149.78,954.478 9149.78,954.478C9144.56,966.184 9136.82,973.291 9136.82,973.291L9136.74,973.209Z"/>
                </clipPath>
                <g clip-path="url(#_clip1)">
                    <path d="M9285.87,898.709C9285.87,898.709 9291.01,908.994 9290.33,909.559C9289.38,910.335 9282.3,901.674 9280.03,903.843C9267.63,915.67 9235.18,943.943 9179.69,968.125C9106.61,999.971 9166.74,957.672 9166.74,957.672C9166.74,957.672 9230.52,890.802 9243.58,839.11L9285.87,898.709Z" style="fill:rgb(195,195,195);"/>
                </g>
                <g transform="matrix(1,0,0,1,345.243,81.6226)">
                    <path d="M8701.34,879.21C8701.34,879.21 8698.98,862.226 8676.51,867.713C8654.04,873.2 8653.26,877.187 8652.73,909.554C8652.21,941.921 8670.9,1237.66 8670.9,1237.66L8676.57,919.059C8676.57,919.059 8673.18,879.862 8701.34,879.21Z" style="fill:rgb(195,195,195);"/>
                </g>
                <g transform="matrix(1.02441,0,0,1,-220.214,0)">
                    <path d="M9022.27,1047.31C9022.27,1045.84 9021.11,1044.65 9019.67,1044.65L9002.72,1044.65C9001.28,1044.65 9000.11,1045.84 9000.11,1047.31L9000.11,1052.64C9000.11,1054.12 9001.28,1055.31 9002.72,1055.31L9019.67,1055.31C9021.11,1055.31 9022.27,1054.12 9022.27,1052.64L9022.27,1047.31Z" style="fill:rgb(214,76,64);"/>
                </g>
                <g transform="matrix(1.02441,0,0,1,-220.214,16.1611)">
                    <path d="M9022.27,1047.31C9022.27,1045.84 9021.11,1044.65 9019.67,1044.65L9002.72,1044.65C9001.28,1044.65 9000.11,1045.84 9000.11,1047.31L9000.11,1052.64C9000.11,1054.12 9001.28,1055.31 9002.72,1055.31L9019.67,1055.31C9021.11,1055.31 9022.27,1054.12 9022.27,1052.64L9022.27,1047.31Z" style="fill:rgb(214,76,64);"/>
                </g>
                <g transform="matrix(1.02441,0,0,1,-220.214,32.3222)">
                    <path d="M9022.27,1047.31C9022.27,1045.84 9021.11,1044.65 9019.67,1044.65L9002.72,1044.65C9001.28,1044.65 9000.11,1045.84 9000.11,1047.31L9000.11,1052.64C9000.11,1054.12 9001.28,1055.31 9002.72,1055.31L9019.67,1055.31C9021.11,1055.31 9022.27,1054.12 9022.27,1052.64L9022.27,1047.31Z" style="fill:rgb(214,76,64);"/>
                </g>
                <g transform="matrix(1,0,0,1,374.976,79.0713)">
                    <path d="M8785.68,974.458C8785.68,974.458 8801.62,957.043 8816.51,948.244C8831.4,939.445 8858.06,927.164 8858.06,927.164C8858.06,927.164 8827.22,955.384 8816.51,962.177C8805.8,968.971 8785.68,974.458 8785.68,974.458Z" style="fill:rgb(192,202,201);"/>
                </g>
                <g transform="matrix(-1,0,0,1,17898.7,79.0713)">
                    <path d="M8785.68,974.458C8785.68,974.458 8801.62,957.043 8816.51,948.244C8831.4,939.445 8858.06,927.164 8858.06,927.164C8858.06,927.164 8827.22,955.384 8816.51,962.177C8805.8,968.971 8785.68,974.458 8785.68,974.458Z" style="fill:rgb(192,202,201);"/>
                </g>
                <g transform="matrix(1,0,0,1,369.986,83.7447)">
                    <path d="M8815.2,943.834C8815.2,943.834 8815.53,910.305 8815.03,890.237C8815.03,890.237 8828.91,915.99 8832.43,926.86C8835.94,937.73 8829.08,933.048 8815.2,943.834ZM8820.18,932.873L8820.43,915.15C8820.43,915.15 8824.03,918.831 8825.65,924.739C8827.28,930.647 8825.91,929.962 8820.18,932.873Z" style="fill:rgb(165,60,2);"/>
                </g>
                <g transform="matrix(0.995417,-0.0956294,0.0956294,0.995417,314.248,933.945)">
                    <path d="M8811.57,986.166C8811.57,986.166 8851.57,993.738 8870.83,969.336C8870.83,969.336 8873.08,972.654 8873.08,977.898C8873.08,977.898 8870.79,977.332 8865.51,974.886C8865.51,974.886 8865.43,975.029 8864.05,976.089C8864.05,976.089 8865.52,982.272 8865.73,988.369C8865.73,988.369 8859.37,985.58 8856.25,980.981C8856.25,980.981 8855.56,981.426 8854.33,981.877C8854.33,981.877 8855.72,1008.56 8845.68,1043.9C8845.68,1043.9 8844.52,1012.91 8833.33,986.959C8833.33,986.959 8831.89,987.155 8829.43,987.203C8829.43,987.203 8828.39,992.787 8825.76,996.458C8825.76,996.458 8822.98,993.577 8820.94,987.154L8818.15,986.97C8818.15,986.97 8816.55,991.307 8813.7,993.883C8813.7,993.883 8811.96,990.779 8811.57,986.166Z" style="fill:rgb(165,60,2);"/>
                </g>
            </g>
        </g>
    </g>
</svg>
