<?xml version="1.0" encoding="UTF-8" standalone="no"?>
<!DOCTYPE svg PUBLIC "-//W3C//DTD SVG 1.1//EN" "http://www.w3.org/Graphics/SVG/1.1/DTD/svg11.dtd">
<svg width="100%" height="100%" viewBox="0 0 201 221" version="1.1" xmlns="http://www.w3.org/2000/svg" xmlns:xlink="http://www.w3.org/1999/xlink" xml:space="preserve" xmlns:serif="http://www.serif.com/" style="fill-rule:evenodd;clip-rule:evenodd;stroke-linecap:round;stroke-linejoin:round;stroke-miterlimit:1.5;">
    <g transform="matrix(1,0,0,1,-5114.95,-13542.2)">
        <g transform="matrix(0.287151,0,0,0.287151,4627.59,10281)">
            <path d="M2170.41,11520.9C2178.17,11469.5 2160.65,11411 2159.61,11381.8C2158.49,11350.4 2177.55,11399.7 2190.26,11426.3C2202.97,11452.8 2198.86,11465.1 2199.6,11480.1C2199.93,11486.7 2199.46,11498.7 2198.84,11510.1C2201.48,11511.1 2203.65,11512.8 2205.22,11514.5C2215.63,11502.1 2230.33,11486.5 2243.34,11479.4C2266.51,11466.7 2341.27,11440.8 2324.07,11459.9C2308.33,11477.4 2260.96,11489.2 2227.25,11525.8C2232.07,11528.6 2235.54,11531.2 2235.54,11531.2C2278.3,11529.1 2298.04,11566.4 2298.04,11566.4C2345.58,11613.4 2362.03,11652.3 2368.31,11661.8C2374.59,11671.4 2384.34,11683.1 2378.84,11688.1C2374.19,11692.3 2366.65,11686 2364.41,11683.9C2364.21,11683.7 2363.99,11683.5 2363.76,11683.3C2363.76,11683.3 2364,11683.5 2364.41,11683.9C2364.79,11684.3 2365.13,11684.7 2365.44,11685.1C2372.45,11690.7 2382.16,11701.4 2373.58,11712.9C2361.02,11729.6 2349.95,11739.8 2349.95,11739.8C2349.95,11739.8 2364.9,11740.1 2358.03,11750.3C2351.15,11760.4 2335.6,11794.5 2315.26,11799C2315.26,11799 2314.82,11801.3 2313.49,11804.6C2324.47,11816.5 2329.09,11845.5 2318.71,11866.2C2307.64,11888.3 2280.73,11915.5 2274.45,11927.2C2270.85,11933.9 2265.69,11940.7 2257.38,11941.6C2255.3,11948.2 2253.14,11954.6 2250.97,11960.9C2230.62,12019.9 2192.52,12048.5 2161.2,12077.7C2129.88,12106.9 2088.65,12110.4 2088.65,12110.4L2088.35,12110.4C2088.35,12110.4 2047.12,12106.9 2015.8,12077.7C1984.48,12048.5 1946.38,12019.9 1926.03,11960.9C1923.86,11954.6 1921.7,11948.2 1919.62,11941.6C1911.31,11940.7 1906.15,11933.9 1902.55,11927.2C1899.09,11920.8 1889.36,11909.6 1879.48,11897.2C1875.77,11926.9 1880.21,11950 1880.55,11957.1C1881.27,11971.9 1889.97,12005.4 1840.33,11925.3C1790.69,11845.2 1830.36,11744.7 1830.36,11744.7C1805.24,11756.9 1762.48,11797.3 1726.59,11820.3C1690.71,11843.3 1728.39,11770.1 1749.62,11727.9C1770.85,11685.7 1820.49,11642.7 1820.49,11642.7C1820.49,11642.7 1744.83,11650.2 1720.61,11650.8C1696.39,11651.4 1748.12,11612.8 1792.68,11573.9C1837.23,11535 1904.22,11521.3 1904.22,11521.3C1904.22,11521.3 1852.78,11489.3 1822.28,11468.7C1791.78,11448 1813.61,11446.2 1875.51,11436.4C1937.41,11426.5 2008.58,11445.6 2008.58,11445.6C2008.58,11445.6 1971.8,11412.1 1959.54,11400.8C1947.28,11389.4 1951.76,11383.1 1998.41,11385.5C2045.06,11387.9 2083.63,11410 2114.43,11434.6C2142.64,11457 2166.57,11511.8 2170.41,11520.9Z" style="stroke:black;stroke-width:29.02px;"/>
            <g>
                <g transform="matrix(1,0,0,1,-26.1933,0.584044)">
                    <path d="M2309.02,11805.2C2309.02,11805.2 2324.87,11791.8 2337.42,11801.9C2349.98,11812.1 2355.96,11843.5 2344.9,11865.6C2333.84,11887.8 2306.92,11915 2300.64,11926.6C2294.36,11938.3 2283.32,11950.3 2259.09,11930.8L2259.09,11854.1L2309.02,11805.2Z" style="fill:rgb(251,200,154);"/>
                </g>
                <g transform="matrix(-1,0,0,1,4203.19,0.584044)">
                    <path d="M2309.02,11805.2C2309.02,11805.2 2324.87,11791.8 2337.42,11801.9C2349.98,11812.1 2355.96,11843.5 2344.9,11865.6C2333.84,11887.8 2306.92,11915 2300.64,11926.6C2294.36,11938.3 2283.32,11950.3 2259.09,11930.8L2259.09,11854.1L2309.02,11805.2Z" style="fill:rgb(251,200,154);"/>
                </g>
                <g transform="matrix(0.893668,0,0,1,238.95,-3.65024)">
                    <path d="M2070.62,11682.7L2273.03,11764.8C2295.22,11832 2274.2,11905.6 2251.42,11964.6C2228.64,12023.6 2186.01,12052.2 2150.97,12081.4C2115.92,12110.6 2069.78,12114.1 2069.78,12114.1L2069.45,12114.1C2069.45,12114.1 2023.31,12110.6 1988.27,12081.4C1953.22,12052.2 1910.59,12023.6 1887.81,11964.6C1865.03,11905.6 1844.01,11832 1866.2,11764.8L2068.62,11682.7L2068.62,11681.9L2069.62,11682.3L2070.62,11681.9L2070.62,11682.7Z" style="fill:rgb(255,203,156);"/>
                </g>
                <g transform="matrix(1,0,0,1,822.106,6.05811)">
                    <path d="M1313,11825.1C1313,11825.1 1303.5,11839.3 1313,11850.1C1313,11850.1 1353.16,11840 1362.13,11832.9C1371.1,11825.8 1403.99,11798.9 1449.22,11817.2C1449.22,11817.2 1436.14,11802.6 1413.34,11798.7C1390.53,11794.8 1395.02,11787.3 1379.32,11798.7C1363.62,11810.1 1343.49,11819.5 1313,11825.1Z" style="fill:rgb(227,170,79);"/>
                </g>
                <g transform="matrix(-1,0,0,1,3354.89,6.05811)">
                    <path d="M1313,11825.1C1313,11825.1 1303.5,11839.3 1313,11850.1C1313,11850.1 1353.16,11840 1362.13,11832.9C1371.1,11825.8 1403.99,11798.9 1449.22,11817.2C1449.22,11817.2 1436.14,11802.6 1413.34,11798.7C1390.53,11794.8 1395.02,11787.3 1379.32,11798.7C1363.62,11810.1 1343.49,11819.5 1313,11825.1Z" style="fill:rgb(227,170,79);"/>
                </g>
                <g transform="matrix(1,0,0,1,-2,0)">
                    <path d="M2361.52,11680.9C2361.52,11680.9 2388.13,11696.1 2375.58,11712.9C2363.02,11729.6 2351.95,11739.8 2351.95,11739.8C2351.95,11739.8 2366.9,11740.1 2360.03,11750.3C2353.15,11760.4 2337.6,11794.5 2317.26,11799C2317.26,11799 2314.57,11813.3 2302.31,11820.8C2302.31,11820.8 2298.13,11877.9 2273.91,11886.9C2273.91,11886.9 2276.89,11874.3 2276.3,11865.4C2276.3,11865.4 2273.76,11868.2 2271.55,11869.2C2271.55,11869.2 2273.97,11848.3 2273.66,11837.7L2274.08,11759L2297.58,11680.9L2361.52,11680.9Z" style="fill:rgb(227,170,79);"/>
                </g>
                <path d="M2108.7,11728.9C2108.7,11728.9 2111.46,11726.6 2113.45,11724C2113.45,11724 2118.81,11730.9 2126.46,11722C2126.46,11722 2125.85,11728.1 2141.31,11725C2156.78,11722 2192.37,11746.6 2201.22,11776C2210.08,11805.4 2223.46,11841.7 2225.7,11867.9C2227.94,11894.1 2233.18,11912.4 2245.51,11892.9C2257.85,11873.5 2271.38,11853.1 2275.78,11836.5C2280.18,11819.8 2287.45,11790.2 2286.88,11778.5C2286.88,11778.5 2300.08,11808.2 2308.31,11804.2C2316.54,11800.1 2315.2,11753.9 2313.05,11741.4C2313.05,11741.4 2331.95,11740 2338.41,11731.4C2344.87,11722.8 2343.19,11708.2 2321.9,11693.1C2321.9,11693.1 2349.89,11703.2 2359.46,11698.8C2369.03,11694.5 2369.75,11688.8 2363.76,11683.3C2363.76,11683.3 2373.33,11693.1 2378.84,11688.1C2384.34,11683.1 2374.59,11671.4 2368.31,11661.8C2362.03,11652.3 2345.58,11613.4 2298.04,11566.4C2298.04,11566.4 2278.3,11529.1 2235.54,11531.2C2235.54,11531.2 2219.1,11519.2 2208.03,11518C2208.03,11518 2202.95,11509.6 2195.17,11509.3L2170.95,11522.2C2170.95,11522.2 2145.23,11459.1 2114.43,11434.6C2083.63,11410 2045.06,11387.9 1998.41,11385.5C1951.76,11383.1 1947.28,11389.4 1959.54,11400.8C1971.8,11412.1 2008.58,11445.6 2008.58,11445.6C2008.58,11445.6 1937.41,11426.5 1875.51,11436.4C1813.61,11446.2 1791.78,11448 1822.28,11468.7C1852.78,11489.3 1904.22,11521.3 1904.22,11521.3C1904.22,11521.3 1837.23,11535 1792.68,11573.9C1748.12,11612.8 1696.39,11651.4 1720.61,11650.8C1744.83,11650.2 1820.49,11642.7 1820.49,11642.7C1820.49,11642.7 1770.85,11685.7 1749.62,11727.9C1728.39,11770.1 1690.71,11843.3 1726.59,11820.3C1762.48,11797.3 1805.24,11756.9 1830.36,11744.7C1830.36,11744.7 1790.69,11845.2 1840.33,11925.3C1889.97,12005.4 1881.27,11971.9 1880.55,11957.1C1879.83,11942.2 1861.19,11857.6 1936.69,11788.1C2012.2,11718.6 2036.87,11717.5 2036.87,11717.5C2036.87,11717.5 2001.73,11758.6 2006.59,11810.2C2011.45,11861.8 2058.17,11899.1 2058.17,11899.1C2058.17,11899.1 2066.44,11908.4 2070.12,11903.4C2073.79,11898.3 2068.43,11896 2065.37,11891.9C2062.31,11887.8 2016.97,11842.8 2045.75,11775.5C2074.53,11708.2 2101.76,11729.7 2108.7,11728.9Z" style="fill:rgb(237,183,97);"/>
                <path d="M2196.99,11538C2196.99,11538 2200.35,11495 2199.6,11480.1C2198.86,11465.1 2202.97,11452.8 2190.26,11426.3C2177.55,11399.7 2158.49,11350.4 2159.61,11381.8C2160.73,11413.2 2180.91,11478.5 2168.2,11532.4C2168.2,11532.4 2172.32,11543.3 2174.18,11548.2C2174.18,11548.2 2185.77,11540.2 2196.99,11538Z" style="fill:rgb(227,170,79);"/>
                <path d="M2191.56,11531.8C2191.56,11531.8 2220.16,11492.1 2243.34,11479.4C2266.51,11466.7 2341.27,11440.8 2324.07,11459.9C2306.88,11479 2251.93,11491.3 2218.29,11536.6L2199.71,11542.2L2191.56,11531.8Z" style="fill:rgb(227,170,79);"/>
            </g>
        </g>
    </g>
</svg>
