<?xml version="1.0" encoding="UTF-8" standalone="no"?>
<!DOCTYPE svg PUBLIC "-//W3C//DTD SVG 1.1//EN" "http://www.w3.org/Graphics/SVG/1.1/DTD/svg11.dtd">
<svg width="100%" height="100%" viewBox="0 0 151 220" version="1.1" xmlns="http://www.w3.org/2000/svg" xmlns:xlink="http://www.w3.org/1999/xlink" xml:space="preserve" xmlns:serif="http://www.serif.com/" style="fill-rule:evenodd;clip-rule:evenodd;stroke-linecap:round;stroke-linejoin:round;stroke-miterlimit:1.5;">
    <g transform="matrix(1,0,0,1,-2529.14,-13421.2)">
        <g transform="matrix(0.163813,0,0,0.163813,1744.56,11821)">
            <path d="M4820.49,10566.9C4819.19,10534.7 4808.23,10191.9 4925.36,10063.2C5048.32,9928.16 5231.75,9893.89 5288.19,9948.32C5288.19,9948.32 5269.16,9815.48 5384.75,9793.81C5384.75,9793.81 5335.21,9841.28 5334.18,9891.85C5334.18,9891.85 5364.11,9837.15 5401.26,9830.96C5401.26,9830.96 5367.2,9868.12 5371.33,9893.92C5371.33,9893.92 5507.56,9846.44 5579.81,9948.62C5579.81,9948.62 5527.17,9951.71 5492.08,9970.29C5492.08,9970.29 5558.13,10018.8 5572.58,10117.9C5572.58,10117.9 5586.94,10128.3 5605.26,10152.5C5617.33,10160.9 5626.28,10170.6 5630.89,10181.9C5634.22,10190.1 5636.66,10198.6 5637.95,10207C5670.3,10274.8 5697.51,10386.3 5671.99,10557.4C5686.17,10580.6 5687.04,10631.9 5663.94,10692.3C5642.16,10749.1 5617.05,10816 5585.73,10830.9L5586.56,10844.9C5593.34,10846.9 5598.33,10853.6 5598.33,10861.5C5598.33,10867.3 5595.6,10872.5 5591.43,10875.6C5604.31,10909 5642.17,10966.3 5642.17,10966.3C5594.4,10953.4 5591.02,11004.5 5591.02,11004.5C5580.35,10958.4 5541,10940.4 5541,10940.4C5556.94,10921.3 5569.55,10887.9 5573.77,10876C5569.28,10872.9 5566.29,10867.6 5566.29,10861.5C5566.29,10854.5 5570.18,10848.5 5575.76,10845.8L5575.06,10833.9C5566.38,10834.6 5557.25,10831.2 5547.6,10822.4C5530.24,10864.7 5511.53,10902.3 5493.19,10933.7C5404.21,11086 5248.5,11082.6 5248.5,11082.6L5248.39,11082.6C5243.66,11082.6 5091.4,11083.6 5003.82,10933.7C4985.47,10902.3 4966.76,10864.7 4949.4,10822.4C4946.26,10825.3 4943.16,10827.6 4940.12,10829.3C4956.29,10878.1 4972.97,10969.2 4931.09,11082.6C4931.09,11082.6 4965.33,10960.6 4920.67,10833.8C4884.9,10829.2 4856.97,10754.7 4833.07,10692.3C4812.74,10639.2 4810.97,10593.1 4820.49,10566.9Z" style="stroke:black;stroke-width:50.87px;"/>
            <g>
                <g transform="matrix(1,0,0,1,2530.48,249.432)">
                    <path d="M3053.73,10327.2C3053.73,10327.2 3090.53,10294.8 3121.19,10294.8C3151.85,10294.8 3164.99,10360.5 3133.45,10442.8C3101.92,10525.2 3063.37,10628.6 3009.05,10564.6L3053.73,10327.2Z" style="fill:rgb(221,200,194);"/>
                </g>
                <g transform="matrix(-1,0,0,1,7966.52,249.432)">
                    <path d="M3053.73,10327.2C3053.73,10327.2 3090.53,10294.8 3121.19,10294.8C3151.85,10294.8 3164.99,10360.5 3133.45,10442.8C3101.92,10525.2 3063.37,10628.6 3009.05,10564.6L3053.73,10327.2Z" style="fill:rgb(221,200,194);"/>
                </g>
                <path d="M5248.39,11082.6C5243.66,11082.6 5091.4,11083.6 5003.82,10933.7C4914.84,10781.4 4817.31,10483.3 4906.28,10214.6C4906.28,10214.6 4949.06,10096.6 5154.39,10005.9L5248.5,10057.2L5342.61,10005.9C5547.94,10096.6 5590.72,10214.6 5590.72,10214.6C5679.69,10483.3 5582.16,10781.4 5493.19,10933.7C5404.21,11086 5248.5,11082.6 5248.5,11082.6L5248.39,11082.6Z" style="fill:rgb(216,198,193);"/>
                <g transform="matrix(0.942438,0,0,0.942438,2722.48,859.287)">
                    <path d="M3062.57,10349.8C3062.57,10349.8 3033.48,10156.4 3033.48,10074.3C3033.48,9992.18 2983.86,9951.12 2968.46,9874.12C2968.46,9874.12 2923.97,9920.32 2781.95,9928.87C2639.93,9937.43 2489.36,9993.89 2414.07,10084.6C2338.78,10175.3 2291.65,10315 2303.63,10390.3C2303.63,10390.3 2284.08,10251.5 2226.26,10303.2C2226.26,10303.2 2206.95,9909.38 2337.42,9766.08C2467.89,9622.78 2662.53,9586.42 2722.41,9644.17C2722.41,9644.17 2702.22,9503.22 2824.87,9480.22C2824.87,9480.22 2772.31,9530.59 2771.21,9584.25C2771.21,9584.25 2802.97,9526.21 2842.39,9519.64C2842.39,9519.64 2806.26,9559.07 2810.64,9586.44C2810.64,9586.44 2955.19,9536.07 3031.85,9644.48C3031.85,9644.48 2976,9647.77 2938.76,9667.48C2938.76,9667.48 3008.85,9718.95 3024.18,9824.08C3024.18,9824.08 3183.67,9939.46 3128.91,10295.4C3128.91,10295.4 3096.15,10276.9 3062.57,10349.8Z" style="fill:rgb(174,163,159);"/>
                    <clipPath id="_clip1">
                        <path d="M3062.57,10349.8C3062.57,10349.8 3033.48,10156.4 3033.48,10074.3C3033.48,9992.18 2983.86,9951.12 2968.46,9874.12C2968.46,9874.12 2923.97,9920.32 2781.95,9928.87C2639.93,9937.43 2489.36,9993.89 2414.07,10084.6C2338.78,10175.3 2291.65,10315 2303.63,10390.3C2303.63,10390.3 2284.08,10251.5 2226.26,10303.2C2226.26,10303.2 2206.95,9909.38 2337.42,9766.08C2467.89,9622.78 2662.53,9586.42 2722.41,9644.17C2722.41,9644.17 2702.22,9503.22 2824.87,9480.22C2824.87,9480.22 2772.31,9530.59 2771.21,9584.25C2771.21,9584.25 2802.97,9526.21 2842.39,9519.64C2842.39,9519.64 2806.26,9559.07 2810.64,9586.44C2810.64,9586.44 2955.19,9536.07 3031.85,9644.48C3031.85,9644.48 2976,9647.77 2938.76,9667.48C2938.76,9667.48 3008.85,9718.95 3024.18,9824.08C3024.18,9824.08 3183.67,9939.46 3128.91,10295.4C3128.91,10295.4 3096.15,10276.9 3062.57,10349.8Z"/>
                    </clipPath>
                    <g clip-path="url(#_clip1)">
                        <g transform="matrix(0.993859,0.371658,-0.371658,0.993859,1201.65,-1985.32)">
                            <path d="M4886.2,10054.7C4886.2,10054.7 4989.14,10276.6 4957.47,10335.4C4957.47,10335.4 4918.78,10343.4 4886.2,10271.2C4835.96,10191.1 4842.48,10100.6 4871.13,10005.9L4886.2,10054.7Z" style="fill:rgb(30,30,40);"/>
                        </g>
                    </g>
                </g>
                <g transform="matrix(1,0,0,1,2564.63,275.911)">
                    <path d="M2717.67,9854.91C2730.99,9843.01 2770.19,9815.28 2838.62,9824.16C2924.96,9835.38 3044.39,9852.2 3066.26,9906.02C3088.12,9959.85 3071.3,10024.3 2946.83,10009.8C2838.09,9997.02 2741.33,9972.91 2717.87,9896.59C2692.18,9873.55 2665.7,9886.79 2655.47,9893.58C2633.62,9972.29 2535.77,9996.85 2425.62,10009.8C2301.15,10024.3 2284.33,9959.85 2306.19,9906.02C2328.06,9852.2 2447.49,9835.38 2533.83,9824.16C2602.13,9815.29 2641.31,9842.91 2654.71,9854.84C2679.01,9828.74 2707.36,9846.72 2717.67,9854.91ZM2465.99,9843.55C2465.99,9843.55 2371.23,9863.17 2339.28,9888.96C2307.32,9914.75 2315.16,9996.05 2390.86,9992.69C2466.55,9989.33 2597.75,9967.46 2615.69,9910.83C2633.64,9854.2 2646.53,9817.19 2465.99,9843.55ZM2906.46,9843.55C2906.46,9843.55 3001.22,9863.17 3033.18,9888.96C3065.14,9914.75 3057.29,9996.05 2981.59,9992.69C2905.9,9989.33 2774.7,9967.46 2756.76,9910.83C2738.82,9854.2 2725.92,9817.19 2906.46,9843.55Z" style="fill:rgb(132,69,60);"/>
                </g>
                <g transform="matrix(1,0,0,1,2572.41,294.388)">
                    <path d="M2953.63,10150.8C2953.63,10150.8 2872.16,10122.9 2760.02,10235.9L2777.54,10249.8C2777.54,10249.8 2877.41,10147.3 2953.63,10150.8Z" style="fill:rgb(174,163,159);"/>
                </g>
                <g transform="matrix(-1,0,0,1,7929.31,294.388)">
                    <path d="M2953.63,10150.8C2953.63,10150.8 2872.16,10122.9 2760.02,10235.9L2777.54,10249.8C2777.54,10249.8 2877.41,10147.3 2953.63,10150.8Z" style="fill:rgb(174,163,159);"/>
                </g>
                <g transform="matrix(0.72688,0,0,0.72688,3193.81,3085.87)">
                    <path d="M2379.78,10599.3C2379.78,10599.3 2477.31,10765.3 2390.05,11001.4C2390.05,11001.4 2444.8,10806.3 2359.25,10618.1L2379.78,10599.3Z" style="fill:rgb(228,206,109);"/>
                </g>
                <g transform="matrix(0.641528,0,0,0.641528,3612.66,4038.27)">
                    <path d="M3076.87,10610.1C3087.43,10613.2 3095.21,10623.6 3095.21,10635.8C3095.21,10644.9 3090.95,10653 3084.46,10657.8C3104.52,10709.9 3163.54,10799.2 3163.54,10799.2C3089.08,10779.1 3083.82,10858.8 3083.82,10858.8C3067.17,10787 3005.85,10758.9 3005.85,10758.9C3030.69,10729.1 3050.35,10677.1 3056.93,10658.5C3049.93,10653.7 3045.27,10645.4 3045.27,10635.8C3045.27,10625 3051.33,10615.6 3060.03,10611.5L3057.26,10564.1L3073.41,10551.9L3076.87,10610.1Z" style="fill:rgb(228,206,109);"/>
                </g>
            </g>
        </g>
    </g>
</svg>
