<?xml version="1.0" encoding="UTF-8" standalone="no"?>
<!DOCTYPE svg PUBLIC "-//W3C//DTD SVG 1.1//EN" "http://www.w3.org/Graphics/SVG/1.1/DTD/svg11.dtd">
<svg width="100%" height="100%" viewBox="0 0 158 259" version="1.1" xmlns="http://www.w3.org/2000/svg" xmlns:xlink="http://www.w3.org/1999/xlink" xml:space="preserve" xmlns:serif="http://www.serif.com/" style="fill-rule:evenodd;clip-rule:evenodd;stroke-linecap:round;stroke-linejoin:round;stroke-miterlimit:1.5;">
    <g transform="matrix(1,0,0,1,-6541.58,-13304.5)">
        <g transform="matrix(0.662555,0,0,0.662555,4202.57,6313.54)">
            <path d="M3554.47,10729.5C3552.33,10715.9 3549.87,10685.6 3565.45,10664.1C3586.08,10635.7 3593.41,10622.4 3599.83,10610.9C3599.83,10610.9 3600.29,10618.3 3601.2,10623.8C3601.2,10623.8 3635.59,10595.8 3642.92,10571.5C3642.92,10571.5 3643.38,10589.9 3638.34,10600.9C3638.34,10600.9 3656.21,10579.8 3655.76,10562.4C3655.76,10562.4 3662.3,10581.1 3667.97,10595.4C3667.97,10595.4 3671.8,10577.9 3676.39,10557.8C3676.39,10557.8 3687.39,10604.1 3700.22,10616C3700.22,10616 3699.76,10604.5 3699.31,10590.8C3699.31,10590.8 3708.02,10628.4 3714.89,10641.7C3714.89,10641.7 3722.68,10629.3 3721.77,10604.5C3721.77,10604.5 3736.44,10655 3743.77,10666C3743.77,10666 3746.06,10653.1 3745.61,10644.9C3745.61,10644.9 3765.16,10710.3 3751.06,10747.5C3752.41,10751.5 3752.94,10754 3752.94,10754C3763.03,10767.3 3760.73,10794.8 3760.73,10794.8C3756.61,10770.5 3746.52,10770.9 3746.52,10770.9C3766.24,10813.1 3755.23,10851.2 3755.23,10851.2C3755.69,10831.4 3747.9,10803 3747.9,10803C3747.9,10815.9 3741.48,10833.3 3741.48,10833.3C3742.23,10824.7 3741.8,10817.1 3740.89,10810.7C3738.05,10817.9 3732.71,10825.5 3723.78,10833.5C3723.22,10839.4 3722.75,10844.6 3722.56,10849C3720.72,10890.3 3682.47,10907.1 3671.43,10921.7C3660.74,10935.8 3645.94,10935 3645.03,10935L3644.98,10935C3644.98,10935 3629.57,10936.3 3618.53,10921.7C3607.5,10907.1 3569.24,10890.3 3567.41,10849C3567.21,10844.6 3566.74,10839.4 3566.18,10833.5C3563.82,10831.4 3561.71,10829.3 3559.83,10827.2C3559.56,10830.4 3559.49,10832.4 3559.49,10832.4C3559.15,10830.3 3558.87,10828.1 3558.65,10825.9C3538.3,10802.5 3547.58,10782.5 3555.73,10772.1C3546.97,10780.4 3536.57,10798.9 3536.57,10798.9C3538.4,10782.4 3557.66,10751.2 3557.66,10751.2C3546.65,10752.6 3537.94,10765.9 3537.94,10765.9C3542.63,10752.4 3548.08,10740.2 3554.47,10729.5Z" style="stroke:black;stroke-width:12.58px;"/>
            <g>
                <g transform="matrix(1,0,0,1,-0.53726,3.41805)">
                    <path d="M3563.83,10760.8C3563.83,10760.8 3517.48,10796.9 3578.21,10839.1L3611.81,10796L3563.83,10760.8Z" style="fill:rgb(240,186,137);"/>
                </g>
                <g transform="matrix(-1,0,0,1,7290.5,3.41805)">
                    <path d="M3563.83,10760.8C3563.83,10760.8 3517.48,10796.9 3578.21,10839.1L3611.81,10796L3563.83,10760.8Z" style="fill:rgb(240,186,137);"/>
                </g>
                <path d="M3632.8,10687L3657.16,10687C3749.6,10695.5 3724.39,10807.8 3722.56,10849C3720.72,10890.3 3682.47,10907.1 3671.43,10921.7C3660.74,10935.8 3645.94,10935 3645.03,10935L3644.98,10935C3644.98,10935 3629.57,10936.3 3618.53,10921.7C3607.5,10907.1 3569.24,10890.3 3567.41,10849C3565.57,10807.8 3540.36,10695.5 3632.8,10687Z" style="fill:rgb(247,189,136);"/>
                <path d="M3555.82,10736.6C3555.82,10736.6 3544.82,10692.5 3565.45,10664.1C3586.08,10635.7 3593.41,10622.4 3599.83,10610.9C3599.83,10610.9 3600.29,10618.3 3601.2,10623.8C3601.2,10623.8 3635.59,10595.8 3642.92,10571.5C3642.92,10571.5 3643.38,10589.9 3638.34,10600.9C3638.34,10600.9 3656.21,10579.8 3655.76,10562.4C3655.76,10562.4 3662.3,10581.1 3667.97,10595.4C3667.97,10595.4 3671.8,10577.9 3676.39,10557.8C3676.39,10557.8 3687.39,10604.1 3700.22,10616C3700.22,10616 3699.76,10604.5 3699.31,10590.8C3699.31,10590.8 3708.02,10628.4 3714.89,10641.7C3714.89,10641.7 3722.68,10629.3 3721.77,10604.5C3721.77,10604.5 3736.44,10655 3743.77,10666C3743.77,10666 3746.06,10653.1 3745.61,10644.9C3745.61,10644.9 3766.69,10715.5 3749.27,10751.7L3627.79,10708.6L3555.82,10736.6Z" style="fill:rgb(18,18,18);"/>
                <path d="M3653.24,10727.7C3653.24,10727.7 3659.42,10798.4 3625.04,10850.7C3625.04,10850.7 3665.84,10810.4 3672.72,10735.2C3672.72,10735.2 3682.93,10791.1 3667.97,10827.8C3667.97,10827.8 3687.39,10800.3 3685.55,10777.4C3685.55,10777.4 3690.6,10776.4 3692.89,10792.5C3692.89,10792.5 3699.31,10759.5 3695.18,10740.2C3695.18,10740.2 3728.64,10780.1 3714.43,10835.6C3714.43,10835.6 3733.23,10805.8 3735.06,10789.7C3735.06,10789.7 3743.77,10807.1 3741.48,10833.3C3741.48,10833.3 3747.9,10815.9 3747.9,10803C3747.9,10803 3755.69,10831.4 3755.23,10851.2C3755.23,10851.2 3766.24,10813.1 3746.52,10770.9C3746.52,10770.9 3756.61,10770.5 3760.73,10794.8C3760.73,10794.8 3763.03,10767.3 3752.94,10754C3752.94,10754 3738.86,10688.4 3667.97,10678.8C3597.08,10669.2 3559.49,10704 3537.94,10765.9C3537.94,10765.9 3546.65,10752.6 3557.66,10751.2C3557.66,10751.2 3538.4,10782.4 3536.57,10798.9C3536.57,10798.9 3551.24,10772.8 3560.41,10768.6C3560.41,10768.6 3555.36,10807.1 3559.49,10832.4C3559.49,10832.4 3560.41,10806.7 3568.2,10792.9C3568.2,10792.9 3571.87,10820 3578.28,10829.6C3578.28,10829.6 3584.24,10758.6 3623.67,10736.1C3623.67,10736.1 3609.46,10763.1 3608.54,10777.8C3608.54,10777.8 3620.46,10748 3630.54,10740.7C3630.54,10740.7 3620,10766.4 3620,10792C3620,10792 3638.79,10744.1 3653.24,10727.7Z" style="fill:rgb(21,21,21);"/>
                <g transform="matrix(1,0,0,1,-11.2019,3.81143)">
                    <path d="M3648.76,10807.1C3648.76,10807.1 3607.86,10792.4 3590.26,10764.2L3574.85,10775.5C3574.85,10775.5 3618.89,10809.3 3648.76,10807.1Z" style="fill:rgb(18,18,18);"/>
                </g>
                <g transform="matrix(-1,0,0,1,7301.16,3.81143)">
                    <path d="M3648.76,10807.1C3648.76,10807.1 3607.86,10792.4 3590.26,10764.2L3574.85,10775.5C3574.85,10775.5 3618.89,10809.3 3648.76,10807.1Z" style="fill:rgb(18,18,18);"/>
                </g>
            </g>
        </g>
    </g>
</svg>
