<?xml version="1.0" encoding="UTF-8" standalone="no"?>
<!DOCTYPE svg PUBLIC "-//W3C//DTD SVG 1.1//EN" "http://www.w3.org/Graphics/SVG/1.1/DTD/svg11.dtd">
<svg width="100%" height="100%" viewBox="0 0 220 374" version="1.1" xmlns="http://www.w3.org/2000/svg" xmlns:xlink="http://www.w3.org/1999/xlink" xml:space="preserve" xmlns:serif="http://www.serif.com/" style="fill-rule:evenodd;clip-rule:evenodd;stroke-linecap:round;stroke-linejoin:round;stroke-miterlimit:1.5;">
    <g transform="matrix(1,0,0,1,-1289.69,-13389.8)">
        <g transform="matrix(0.793651,0,0,0.793651,-2163.26,4644.02)">
            <path d="M4386.63,11302.2L4386.58,11302.2C4386.58,11302.2 4337.74,11194.4 4363.44,11105.6C4363.44,11105.6 4366,11123.3 4370.78,11131.9C4370.78,11131.9 4372.32,11108.9 4377.29,11099C4377.29,11099 4381.32,11110.6 4386.58,11117.9C4386.58,11117.9 4389.54,11079.2 4403.13,11065.7C4403.13,11065.7 4405.39,11093.2 4410,11104.7C4410,11104.7 4413.27,11073.3 4425.14,11060.7C4425.14,11060.7 4422.27,11080.8 4424.94,11092.4C4424.94,11092.4 4438.91,11061.6 4437.19,11039.1C4437.19,11039.1 4452.89,11065.7 4451.16,11091.9C4451.16,11091.9 4455.76,11077.3 4465.32,11070.4C4465.32,11070.4 4464.94,11080.8 4467.43,11087.1C4467.43,11087.1 4490.59,11043.6 4510.11,11024.9C4510.11,11024.9 4501.5,11049.4 4505.71,11076.2C4505.71,11076.2 4506.28,11062 4521.78,11048.4C4521.78,11048.4 4518.72,11061.3 4521.78,11072C4521.78,11072 4531.56,11061.1 4535.19,11041.3C4535.19,11041.3 4539.41,11072.7 4535.19,11093.8C4535.19,11093.8 4549.15,11064.9 4567.71,11046.7C4567.71,11046.7 4554.89,11090.5 4558.91,11115.2C4558.91,11115.2 4567.9,11106.6 4568.86,11093.6C4568.86,11093.6 4572.85,11103.9 4571.34,11113.7C4571.34,11113.7 4582.59,11096.5 4582.81,11083.8C4582.81,11083.8 4588.19,11097.4 4587.62,11109.9C4587.62,11109.9 4604.07,11078.3 4622.45,11064.7C4622.45,11064.7 4591.29,11129.9 4601.77,11151.7C4601.77,11151.7 4615.67,11133.8 4619.65,11123.8C4619.65,11123.8 4584.17,11221.3 4589.36,11285C4590.12,11286 4590.49,11286.6 4590.49,11286.6C4603.16,11314.1 4583.56,11326.2 4583.56,11326.2C4583.48,11326.1 4583.39,11326 4583.31,11325.9C4583.31,11326.5 4583.31,11327 4583.3,11327.6C4589.75,11325.2 4597.48,11324.9 4599.77,11334.9C4603.52,11351.4 4605.23,11393.4 4574.22,11406.6C4567.23,11431.9 4557.12,11447.4 4547.16,11460.4C4528.65,11484.6 4494.68,11485.1 4490.67,11485.1C4486.66,11485.1 4452.68,11484.6 4434.17,11460.4C4424.21,11447.4 4414.1,11431.9 4407.12,11406.6C4376.11,11393.4 4377.81,11351.4 4381.56,11334.9C4383.85,11324.9 4391.58,11325.2 4398.03,11327.6C4398.03,11327 4398.03,11326.5 4398.02,11325.9C4397.94,11326 4397.86,11326.1 4397.78,11326.2C4397.78,11326.2 4385.68,11318.7 4386.63,11302.2Z" style="stroke:black;stroke-width:10.5px;"/>
            <g>
                <g transform="matrix(1.07888,0,0,1.07888,-359.54,-892.268)">
                    <path d="M4572.62,11331.2C4572.62,11331.2 4592.91,11316.4 4596.73,11333.3C4600.56,11350.1 4602.09,11395.5 4563.44,11402.5L4572.62,11331.2Z" style="fill:rgb(236,184,120);"/>
                </g>
                <g transform="matrix(-1.07888,0,0,1.07888,9340.87,-892.268)">
                    <path d="M4572.62,11331.2C4572.62,11331.2 4592.91,11316.4 4596.73,11333.3C4600.56,11350.1 4602.09,11395.5 4563.44,11402.5L4572.62,11331.2Z" style="fill:rgb(236,184,120);"/>
                </g>
                <g transform="matrix(1.17059,0,0,1.07888,-775.942,-893.3)">
                    <path d="M4514.2,11270.3L4536.14,11272L4577.72,11299.6C4581.46,11394 4564.17,11426.7 4547.35,11450.5C4531.54,11472.9 4502.52,11473.4 4499.09,11473.4C4495.67,11473.4 4466.65,11472.9 4450.83,11450.5C4434.01,11426.7 4416.73,11394 4420.46,11299.6L4462.05,11272L4483.99,11270.3L4483.81,11267.8L4499.09,11269.1L4514.38,11267.8L4514.2,11270.3Z" style="fill:rgb(236,188,129);"/>
                </g>
                <g transform="matrix(1.07888,0,0,1.07888,-356.349,-872.136)">
                    <path d="M4484.89,11331.6C4484.89,11331.6 4467.78,11318.4 4448.64,11308.6C4429.5,11298.8 4420.41,11301.5 4418.26,11309.8C4416.1,11318.2 4423.52,11314.1 4432.85,11313.9C4442.18,11313.7 4464.69,11321.1 4484.89,11331.6Z" style="fill:rgb(91,50,20);"/>
                </g>
                <g transform="matrix(-1.07888,0,0,1.07888,9337.68,-872.136)">
                    <path d="M4484.89,11331.6C4484.89,11331.6 4467.78,11318.4 4448.64,11308.6C4429.5,11298.8 4420.41,11301.5 4418.26,11309.8C4416.1,11318.2 4423.52,11314.1 4432.85,11313.9C4442.18,11313.7 4464.69,11321.1 4484.89,11331.6Z" style="fill:rgb(91,50,20);"/>
                </g>
                <path d="M4386.58,11302.2C4386.58,11302.2 4337.74,11194.4 4363.44,11105.6C4363.44,11105.6 4366,11123.3 4370.78,11131.9C4370.78,11131.9 4372.32,11108.9 4377.29,11099C4377.29,11099 4381.32,11110.6 4386.58,11117.9C4386.58,11117.9 4389.54,11079.2 4403.13,11065.7C4403.13,11065.7 4405.39,11093.2 4410,11104.7C4410,11104.7 4413.27,11073.3 4425.14,11060.7C4425.14,11060.7 4422.27,11080.8 4424.94,11092.4C4424.94,11092.4 4438.91,11061.6 4437.19,11039.1C4437.19,11039.1 4452.89,11065.7 4451.16,11091.9C4451.16,11091.9 4455.76,11077.3 4465.32,11070.4C4465.32,11070.4 4464.94,11080.8 4467.43,11087.1C4467.43,11087.1 4490.59,11043.6 4510.11,11024.9C4510.11,11024.9 4501.5,11049.4 4505.71,11076.2C4505.71,11076.2 4506.28,11062 4521.78,11048.4C4521.78,11048.4 4518.72,11061.3 4521.78,11072C4521.78,11072 4531.56,11061.1 4535.19,11041.3C4535.19,11041.3 4539.41,11072.7 4535.19,11093.8C4535.19,11093.8 4549.15,11064.9 4567.71,11046.7C4567.71,11046.7 4554.89,11090.5 4558.91,11115.2C4558.91,11115.2 4567.9,11106.6 4568.86,11093.6C4568.86,11093.6 4572.85,11103.9 4571.34,11113.7C4571.34,11113.7 4582.59,11096.5 4582.81,11083.8C4582.81,11083.8 4588.19,11097.4 4587.62,11109.9C4587.62,11109.9 4604.07,11078.3 4622.45,11064.7C4622.45,11064.7 4591.29,11129.9 4601.77,11151.7C4601.77,11151.7 4615.67,11133.8 4619.65,11123.8C4619.65,11123.8 4582.64,11225.5 4589.74,11289L4490.67,11267.7L4386.58,11302.2Z" style="fill:rgb(91,50,20);"/>
                <g transform="matrix(1.12982,0,0,1.12982,-588.49,-1456.54)">
                    <path d="M4495.55,11240.1C4559.49,11239.6 4583.9,11278.9 4583.9,11278.9C4595.12,11303.2 4577.77,11314 4577.77,11314C4552.85,11282.8 4496.73,11283.1 4495.55,11283C4494.37,11283.1 4438.25,11282.8 4413.33,11314C4413.33,11314 4395.98,11303.2 4407.2,11278.9C4407.2,11278.9 4431.61,11239.6 4495.55,11240.1Z" style="fill:rgb(244,241,233);"/>
                    <clipPath id="_clip1">
                        <path d="M4495.55,11240.1C4559.49,11239.6 4583.9,11278.9 4583.9,11278.9C4595.12,11303.2 4577.77,11314 4577.77,11314C4552.85,11282.8 4496.73,11283.1 4495.55,11283C4494.37,11283.1 4438.25,11282.8 4413.33,11314C4413.33,11314 4395.98,11303.2 4407.2,11278.9C4407.2,11278.9 4431.61,11239.6 4495.55,11240.1Z"/>
                    </clipPath>
                    <g clip-path="url(#_clip1)">
                        <g transform="matrix(0.71651,0,0,0.71651,1277.98,3185.43)">
                            <ellipse cx="4490.62" cy="11271.4" rx="33.174" ry="29.903" style="fill:rgb(183,17,1);"/>
                        </g>
                    </g>
                </g>
            </g>
        </g>
    </g>
</svg>
