<?xml version="1.0" encoding="UTF-8" standalone="no"?>
<!DOCTYPE svg PUBLIC "-//W3C//DTD SVG 1.1//EN" "http://www.w3.org/Graphics/SVG/1.1/DTD/svg11.dtd">
<svg width="100%" height="100%" viewBox="0 0 192 201" version="1.1" xmlns="http://www.w3.org/2000/svg" xmlns:xlink="http://www.w3.org/1999/xlink" xml:space="preserve" xmlns:serif="http://www.serif.com/" style="fill-rule:evenodd;clip-rule:evenodd;stroke-linecap:round;stroke-linejoin:round;stroke-miterlimit:1.5;">
    <g transform="matrix(1,0,0,1,-5319.545808,-13762.414979)">
        <g transform="matrix(0.603234,0,0,0.603234,4922.250118,7968.772861)">
            <g transform="matrix(1,0,0,1,381.436849,23.868795)">
                <path d="M314.157,9788.709C307.556,9793.608 296.859,9799.914 284.08,9801.396C284.08,9801.396 302.832,9751.987 310.654,9714.834C318.475,9677.681 326.842,9586.951 445.849,9587.342C564.856,9587.733 573.851,9639.942 582.65,9704.959C591.449,9769.976 586.561,9834.504 586.561,9834.504C586.561,9834.504 580.671,9820.96 572.862,9811.549C572.862,9811.549 568.662,9823.757 563.582,9839.766C564.709,9881.33 549.579,9906.725 549.579,9906.725C541.024,9867.006 508.638,9869.386 508.638,9869.386L502.337,9869.386C472.475,9896.109 445.916,9898.91 445.916,9898.91C445.916,9898.91 419.703,9896.145 390.08,9869.908C361.602,9874.109 344.58,9899.539 344.58,9899.539C328.697,9887.81 330.219,9862.647 333.597,9845.415C330.278,9832.889 324.991,9819.937 322.338,9806.558C315.784,9812.775 314.467,9818.976 314.467,9818.976C312.109,9811.588 312.657,9799.967 314.157,9788.709Z" style="stroke:black;stroke-width:13.81px;"/>
            </g>
            <g>
                <g transform="matrix(1,0,0,1,381.436849,23.868795)">
                    <path d="M320.724,9756.012C320.724,9756.012 308.601,9800.595 314.467,9818.976C314.467,9818.976 317.204,9806.094 334.412,9798.847L338.323,9827.58C338.323,9827.58 319.16,9880.767 344.58,9899.539C344.58,9899.539 363.743,9870.911 395.42,9869.386L508.638,9869.386C508.638,9869.386 541.024,9867.006 549.579,9906.725C549.579,9906.725 579.521,9856.47 552.023,9781.64L320.724,9756.012Z" style="fill:rgb(58,58,100);"/>
                </g>
                <g transform="matrix(1.113324,0,0,1.078274,330.978256,-776.904377)">
                    <path d="M445.849,9922.97C445.849,9922.97 409.938,9919.059 376.696,9875.062C343.455,9831.066 318.462,9728.193 368.111,9667.851L445.849,9657.921L523.587,9667.851C573.236,9728.193 548.243,9831.066 515.001,9875.062C481.76,9919.059 445.849,9922.97 445.849,9922.97Z" style="fill:rgb(227,183,137);"/>
                </g>
                <g transform="matrix(-1,0,0,1,1273.731376,31.765497)">
                    <path d="M529.239,9735.553C529.239,9735.553 496.975,9741.102 476.932,9761.303C476.932,9761.303 488.175,9730.175 529.239,9735.553Z" style="fill:rgb(58,58,100);"/>
                </g>
                <g transform="matrix(1,0,0,1,380.973765,31.765497)">
                    <path d="M529.239,9735.553C529.239,9735.553 496.975,9741.102 476.932,9761.303C476.932,9761.303 488.175,9730.175 529.239,9735.553Z" style="fill:rgb(58,58,100);"/>
                </g>
                <g transform="matrix(1,0,0,1,381.436849,42.010554)">
                    <path d="M445.849,9776.669C445.849,9776.669 445.692,9800.759 439.121,9812.961C439.121,9812.961 437.692,9802.677 435.289,9795.468C435.289,9795.468 434.008,9820.137 425.678,9833.112C425.678,9833.112 424.877,9813.44 421.353,9798.847C421.353,9798.847 421.353,9807.482 415.106,9815.331C415.106,9815.331 409.009,9776.759 412.45,9741.405C415.892,9706.052 420.585,9690.409 420.585,9690.409C420.585,9690.409 405.88,9733.584 377.41,9770.502C377.41,9770.502 376.109,9763.834 373.289,9756.274C373.289,9756.274 363.83,9775.64 356.822,9783.399C356.822,9783.399 351.065,9769.884 351.816,9757.369C351.816,9757.369 351.075,9760.943 344.668,9769.593C344.668,9769.593 341.464,9758.06 342.265,9749.89C342.265,9749.89 336.954,9768.237 347.278,9807.032C357.603,9845.827 349.469,9869.292 349.469,9869.292C349.469,9869.292 339.457,9853.336 334.764,9832.061C330.071,9810.786 317.869,9788.26 321.311,9764.482C321.311,9764.482 305.668,9780.751 284.08,9783.254C284.08,9783.254 302.832,9733.845 310.654,9696.692C318.475,9659.54 326.842,9568.809 445.849,9569.2C564.856,9569.591 573.851,9621.8 582.65,9686.817C591.449,9751.834 586.561,9816.363 586.561,9816.363C586.561,9816.363 580.671,9802.818 572.862,9793.407C572.862,9793.407 557.219,9838.882 549.788,9869.386C549.788,9869.386 542.358,9842.402 544.313,9816.59C546.269,9790.779 557.219,9761.839 549.788,9735.246C549.788,9735.246 546.344,9749.109 540.337,9756.717C540.337,9756.717 528.873,9702.354 515.358,9674.822C515.358,9674.822 495.522,9746.249 486.762,9765.021C478.002,9783.793 476.75,9803.19 476.75,9803.19C476.75,9803.19 470.943,9794.923 470.303,9788.996C470.303,9788.996 469.342,9807.258 462.293,9815.908C462.293,9815.908 460.852,9803.093 458.609,9787.394C458.609,9787.394 454.925,9793.802 454.124,9800.69C454.124,9800.69 450.069,9796.859 445.849,9776.669Z" style="fill:rgb(79,79,128);"/>
                </g>
            </g>
        </g>
    </g>
</svg>
