<?xml version="1.0" encoding="UTF-8" standalone="no"?>
<!DOCTYPE svg PUBLIC "-//W3C//DTD SVG 1.1//EN" "http://www.w3.org/Graphics/SVG/1.1/DTD/svg11.dtd">
<svg width="100%" height="100%" viewBox="0 0 210 201" version="1.1" xmlns="http://www.w3.org/2000/svg" xmlns:xlink="http://www.w3.org/1999/xlink" xml:space="preserve" xmlns:serif="http://www.serif.com/" style="fill-rule:evenodd;clip-rule:evenodd;stroke-linecap:round;stroke-linejoin:round;stroke-miterlimit:1.5;">
    <g transform="matrix(1,0,0,1,-7317.93,-13361.1)">
        <g transform="matrix(0.443517,0,0,0.443517,5911.34,8953.74)">
            <path d="M3313.5,10271.1C3300.53,10301.9 3296.64,10335.3 3316.23,10366.4C3316.23,10366.4 3244.62,10299.3 3282.1,10217.2C3282.1,10217.2 3246.29,10254.2 3237.95,10295.3C3237.95,10295.3 3228.33,10275.4 3229.61,10247.8C3229.61,10247.8 3203.94,10262.6 3201.38,10279.9C3201.38,10279.9 3191.75,10263.2 3180.84,10278.6C3180.84,10278.6 3209.08,10197.1 3233.46,10170.2C3233.46,10170.2 3191.75,10195.2 3184.05,10228.6C3184.05,10228.6 3189.18,10180.8 3226.4,10149.3C3263.62,10117.9 3282.22,10103.1 3312.38,10044.1C3342.54,9985.08 3396.44,9954.28 3424.67,9950.43C3452.9,9946.58 3528.62,9932.46 3569.04,10003C3609.47,10073.6 3615.24,10125.6 3619.73,10175C3624.22,10224.4 3633.21,10230.8 3635.13,10267.4C3637.06,10304 3604.97,10336.1 3604.97,10336.1C3604.97,10336.1 3621.66,10300.1 3612.03,10269.3C3612.03,10269.3 3596.63,10317.5 3565.19,10348.9C3565.19,10348.9 3574.18,10329 3574.82,10312.3C3574.82,10312.3 3544.66,10334.8 3526.05,10377.8C3526.05,10377.8 3521.82,10377.2 3518.14,10369.9C3518.14,10369.9 3509.73,10371.2 3508.68,10380.7C3508.68,10380.7 3505.72,10357.2 3513.22,10338.3C3494.96,10352.7 3477.51,10361.5 3468.68,10367.1C3450.31,10378.7 3442.22,10380.5 3439.27,10380.6C3439.16,10380.6 3439.03,10380.7 3438.89,10380.7C3438.75,10380.7 3438.62,10380.6 3438.51,10380.6C3435.56,10380.5 3427.47,10378.7 3409.1,10367.1C3391.01,10355.6 3336.65,10330.8 3313.5,10271.1Z" style="stroke:black;stroke-width:18.79px;"/>
            <g>
                <g transform="matrix(1.04194,0,0,1,-149.935,0)">
                    <path d="M3457.85,10085.6L3555.6,10098.9L3573.83,10189.5C3585.74,10310.7 3496.73,10351.4 3472.96,10367.1C3455.32,10378.7 3447.56,10380.5 3444.73,10380.6C3444.62,10380.6 3444.5,10380.7 3444.37,10380.7C3444.23,10380.7 3444.11,10380.6 3444,10380.6C3441.17,10380.5 3433.41,10378.7 3415.77,10367.1C3392,10351.4 3302.99,10310.7 3314.91,10189.5L3333.13,10098.9L3430.88,10085.6L3430.85,10084.6L3444.37,10085.1L3457.88,10084.6L3457.85,10085.6Z" style="fill:rgb(247,191,157);"/>
                </g>
                <g transform="matrix(1,0,0,1,5.99207,24.9333)">
                    <path d="M3463.76,10186.7C3463.76,10186.7 3480.4,10170.6 3544.71,10176.1C3544.71,10176.1 3467.77,10152.3 3463.76,10186.7Z" style="fill:rgb(93,43,37);"/>
                </g>
                <g transform="matrix(-1,0,0,1,6871.79,24.9333)">
                    <path d="M3463.76,10186.7C3463.76,10186.7 3480.4,10170.6 3544.71,10176.1C3544.71,10176.1 3467.77,10152.3 3463.76,10186.7Z" style="fill:rgb(93,43,37);"/>
                </g>
                <g transform="matrix(0.732419,0,0,0.732419,1598.33,2515.38)">
                    <path d="M2566.68,10417.2C2566.68,10417.2 2534.45,10490.8 2500.1,10540.5C2500.1,10540.5 2507.81,10473.9 2497.3,10448.7C2497.3,10448.7 2489.59,10483.7 2476.97,10511.8C2476.97,10511.8 2470.67,10447.3 2453.14,10423.5C2453.14,10423.5 2442.98,10440.1 2398.08,10498.2C2353.18,10556.2 2297.34,10642.7 2345.52,10719.4C2345.52,10719.4 2247.75,10627.7 2298.91,10515.5C2298.91,10515.5 2250.03,10566.2 2238.64,10622.2C2238.64,10622.2 2225.5,10595.1 2227.25,10557.4C2227.25,10557.4 2192.21,10577.6 2188.7,10601.2C2188.7,10601.2 2175.56,10578.4 2160.67,10599.5C2160.67,10599.5 2199.22,10488.2 2232.51,10451.4C2232.51,10451.4 2175.56,10485.6 2165.05,10531.1C2165.05,10531.1 2172.06,10465.9 2222.87,10422.9C2273.68,10380 2299.09,10359.9 2340.26,10279.3C2381.44,10198.7 2455.03,10156.6 2493.58,10151.4C2532.12,10146.1 2635.5,10126.8 2690.69,10223.2C2745.88,10319.6 2753.77,10390.5 2759.9,10458C2766.03,10525.4 2778.3,10534.2 2780.93,10584.1C2783.56,10634.1 2739.75,10677.9 2739.75,10677.9C2739.75,10677.9 2762.53,10628.8 2749.39,10586.8C2749.39,10586.8 2728.36,10652.5 2685.44,10695.4C2685.44,10695.4 2697.7,10668.2 2698.58,10645.5C2698.58,10645.5 2657.4,10676.1 2631.99,10734.8C2631.99,10734.8 2626.21,10734.1 2621.19,10724.1C2621.19,10724.1 2609.71,10725.8 2608.27,10738.8C2608.27,10738.8 2602.35,10691.8 2622.99,10665.8C2622.99,10665.8 2603.7,10682.9 2587.1,10686.5C2587.1,10686.5 2709.89,10547.4 2653.82,10412.1C2653.82,10412.1 2622.28,10516.6 2563.41,10545.3C2563.41,10545.3 2582.34,10518.7 2585.84,10483.6C2585.84,10483.6 2557.1,10508.9 2547.29,10535.5C2547.29,10535.5 2547.53,10481 2566.68,10417.2Z" style="fill:rgb(109,51,44);"/>
                    <clipPath id="_clip1">
                        <path d="M2566.68,10417.2C2566.68,10417.2 2534.45,10490.8 2500.1,10540.5C2500.1,10540.5 2507.81,10473.9 2497.3,10448.7C2497.3,10448.7 2489.59,10483.7 2476.97,10511.8C2476.97,10511.8 2470.67,10447.3 2453.14,10423.5C2453.14,10423.5 2442.98,10440.1 2398.08,10498.2C2353.18,10556.2 2297.34,10642.7 2345.52,10719.4C2345.52,10719.4 2247.75,10627.7 2298.91,10515.5C2298.91,10515.5 2250.03,10566.2 2238.64,10622.2C2238.64,10622.2 2225.5,10595.1 2227.25,10557.4C2227.25,10557.4 2192.21,10577.6 2188.7,10601.2C2188.7,10601.2 2175.56,10578.4 2160.67,10599.5C2160.67,10599.5 2199.22,10488.2 2232.51,10451.4C2232.51,10451.4 2175.56,10485.6 2165.05,10531.1C2165.05,10531.1 2172.06,10465.9 2222.87,10422.9C2273.68,10380 2299.09,10359.9 2340.26,10279.3C2381.44,10198.7 2455.03,10156.6 2493.58,10151.4C2532.12,10146.1 2635.5,10126.8 2690.69,10223.2C2745.88,10319.6 2753.77,10390.5 2759.9,10458C2766.03,10525.4 2778.3,10534.2 2780.93,10584.1C2783.56,10634.1 2739.75,10677.9 2739.75,10677.9C2739.75,10677.9 2762.53,10628.8 2749.39,10586.8C2749.39,10586.8 2728.36,10652.5 2685.44,10695.4C2685.44,10695.4 2697.7,10668.2 2698.58,10645.5C2698.58,10645.5 2657.4,10676.1 2631.99,10734.8C2631.99,10734.8 2626.21,10734.1 2621.19,10724.1C2621.19,10724.1 2609.71,10725.8 2608.27,10738.8C2608.27,10738.8 2602.35,10691.8 2622.99,10665.8C2622.99,10665.8 2603.7,10682.9 2587.1,10686.5C2587.1,10686.5 2709.89,10547.4 2653.82,10412.1C2653.82,10412.1 2622.28,10516.6 2563.41,10545.3C2563.41,10545.3 2582.34,10518.7 2585.84,10483.6C2585.84,10483.6 2557.1,10508.9 2547.29,10535.5C2547.29,10535.5 2547.53,10481 2566.68,10417.2Z"/>
                    </clipPath>
                    <g clip-path="url(#_clip1)">
                        <path d="M2438.88,10441.2C2438.88,10441.2 2488.35,10284.2 2551.42,10290.3C2614.5,10296.5 2659.65,10373.8 2655.27,10442.1L2593.07,10589.3L2473.05,10609.4L2438.88,10441.2Z" style="fill:rgb(110,48,41);"/>
                    </g>
                </g>
            </g>
        </g>
    </g>
</svg>
