<?xml version="1.0" encoding="UTF-8" standalone="no"?>
<!DOCTYPE svg PUBLIC "-//W3C//DTD SVG 1.1//EN" "http://www.w3.org/Graphics/SVG/1.1/DTD/svg11.dtd">
<svg width="100%" height="100%" viewBox="0 0 204 256" version="1.1" xmlns="http://www.w3.org/2000/svg" xmlns:xlink="http://www.w3.org/1999/xlink" xml:space="preserve" xmlns:serif="http://www.serif.com/" style="fill-rule:evenodd;clip-rule:evenodd;stroke-linecap:round;stroke-linejoin:round;stroke-miterlimit:1.5;">
    <g transform="matrix(1,0,0,1,-7725.54,-13587.8)">
        <g transform="matrix(0.700392,0,0,0.700392,3105.59,6150.52)">
            <path d="M6747.77,10650.1C6742.6,10648.3 6738.89,10643.5 6738.89,10637.8C6738.89,10630.6 6744.91,10624.8 6752.33,10624.8C6759.75,10624.8 6765.78,10630.6 6765.78,10637.8C6765.78,10644.1 6761.22,10649.3 6755.15,10650.6L6779.48,10704.6L6829.81,10685.9C6828.26,10683.8 6827.34,10681.2 6827.34,10678.4C6827.34,10671.2 6833.37,10665.3 6840.79,10665.3C6848.21,10665.3 6854.23,10671.2 6854.23,10678.4C6854.23,10685.6 6848.21,10691.5 6840.79,10691.5C6839.47,10691.5 6838.2,10691.3 6837,10690.9L6826.13,10739.3L6843.15,10735.4C6841.66,10733.3 6840.79,10730.8 6840.79,10728C6840.79,10720.8 6846.81,10715 6854.23,10715C6861.65,10715 6867.67,10720.8 6867.67,10728C6867.67,10735.2 6861.65,10741.1 6854.23,10741.1C6851.1,10741.1 6848.22,10740 6845.93,10738.3L6820.56,10760.2C6820.99,10763.1 6818.48,10768.1 6814.08,10772.6C6808.67,10778.2 6802.44,10780.9 6800.18,10778.6C6800.03,10778.5 6799.91,10778.3 6799.8,10778.2L6797.36,10780.3C6799.07,10783.4 6800.67,10786.8 6802.12,10790.5C6811.37,10814 6818.87,10833.6 6826.84,10849.4C6833.9,10847.9 6848.41,10848.7 6848.78,10880.4C6849.77,10881.3 6850.78,10882.2 6851.81,10883C6872.41,10899.6 6877.26,10921.4 6881.3,10945.2C6881.3,10945.2 6749.61,11026.8 6602.17,10933.1C6602.17,10933.1 6608.64,10895.1 6632.47,10870.9C6634.42,10868.9 6636.29,10867 6638.1,10865.1C6640.01,10837.7 6654.07,10838 6660.46,10839.5C6668.06,10829.1 6673.57,10818.3 6677.71,10804.2C6684,10782.9 6695.19,10760.7 6720.03,10750.5L6719.58,10744.4C6719.53,10744.4 6719.49,10744.4 6719.44,10744.4C6716.29,10744.7 6713.3,10738.6 6712.77,10730.9C6712.24,10723.2 6714.34,10716.8 6717.46,10716.5L6714.57,10678.4C6714.42,10678.4 6714.27,10678.4 6714.12,10678.4C6706.7,10678.4 6700.68,10672.5 6700.68,10665.3C6700.68,10658.1 6706.7,10652.3 6714.12,10652.3C6721.54,10652.3 6727.57,10658.1 6727.57,10665.3C6727.57,10671.5 6723.15,10676.7 6717.21,10678.1L6725.04,10692.2L6747.77,10650.1Z" style="stroke:black;stroke-width:11.9px;"/>
            <g>
                <path d="M6720.08,10751.1L6714.12,10672.5L6725.04,10692.2L6751.68,10642.9L6779.48,10704.6L6838.87,10682.6L6826.13,10739.3L6851.45,10733.5L6796.02,10781.4L6720.08,10751.1Z" style="fill:rgb(168,147,157);"/>
                <path d="M6823.06,10850.6C6823.06,10850.6 6852.53,10836.4 6848.39,10891.7L6817.89,10884.4L6823.06,10850.6Z" style="fill:rgb(227,170,113);"/>
                <g transform="matrix(-1,0,0,1,13486.7,-10)">
                    <path d="M6823.06,10850.6C6823.06,10850.6 6852.53,10836.4 6848.39,10891.7L6817.89,10884.4L6823.06,10850.6Z" style="fill:rgb(227,170,113);"/>
                </g>
                <path d="M6744.76,10744.9C6744.76,10744.9 6784.35,10745.3 6802.12,10790.5C6819.9,10835.7 6831.21,10866.4 6851.81,10883C6872.41,10899.6 6877.26,10921.4 6881.3,10945.2C6881.3,10945.2 6749.61,11026.8 6602.17,10933.1C6602.17,10933.1 6608.64,10895.1 6632.47,10870.9C6656.3,10846.6 6669.63,10831.7 6677.71,10804.2C6685.79,10776.8 6701.95,10748.1 6744.76,10744.9Z" style="fill:rgb(250,179,109);"/>
                <path d="M6673.82,10854.3C6673.82,10854.3 6669.46,10838.9 6677.4,10836C6685.34,10833.1 6706.19,10823.2 6709,10842.4C6709,10842.4 6684.68,10845.7 6673.82,10854.3Z" style="fill:rgb(238,238,238);"/>
                <g transform="matrix(-1,0,0,1,13476.6,8)">
                    <path d="M6673.82,10854.3C6673.82,10854.3 6669.46,10838.9 6677.4,10836C6685.34,10833.1 6706.19,10823.2 6709,10842.4C6709,10842.4 6684.68,10845.7 6673.82,10854.3Z" style="fill:rgb(238,238,238);"/>
                </g>
                <g transform="matrix(0.995858,0.0909188,-0.0909188,0.995858,1011.38,-569.868)">
                    <path d="M6740.66,10817.2C6741.13,10817.4 6748.81,10819.9 6755.99,10817.9C6763.4,10815.8 6793.71,10806.1 6801.92,10817.5C6810.12,10828.9 6801.12,10839.1 6787.89,10838.9C6774.65,10838.7 6754.27,10820.2 6740.64,10820.1L6740.63,10820.1C6726.99,10820.2 6706.61,10838.7 6693.38,10838.9C6680.15,10839.1 6671.15,10828.9 6679.35,10817.5C6687.56,10806.1 6717.87,10815.8 6725.28,10817.9C6732.69,10820 6740.64,10817.2 6740.64,10817.2L6740.66,10817.2Z" style="fill:rgb(20,20,20);"/>
                </g>
                <ellipse cx="6854.23" cy="10728" rx="13.443" ry="13.055" style="fill:rgb(162,152,157);"/>
                <g transform="matrix(1,0,0,1,-13.443,-49.6358)">
                    <ellipse cx="6854.23" cy="10728" rx="13.443" ry="13.055" style="fill:rgb(162,152,157);"/>
                </g>
                <g transform="matrix(1,0,0,1,-101.897,-90.2235)">
                    <ellipse cx="6854.23" cy="10728" rx="13.443" ry="13.055" style="fill:rgb(162,152,157);"/>
                </g>
                <g transform="matrix(1,0,0,1,-140.107,-62.6911)">
                    <ellipse cx="6854.23" cy="10728" rx="13.443" ry="13.055" style="fill:rgb(162,152,157);"/>
                </g>
                <g transform="matrix(0.992828,0.119551,-0.119551,0.992828,1327.18,-729.091)">
                    <ellipse cx="6746.75" cy="10714.3" rx="10.987" ry="19.26" style="fill:rgb(120,147,179);"/>
                </g>
                <g transform="matrix(0.831202,0.555971,-0.555971,0.831202,7147.06,-1919.82)">
                    <ellipse cx="6746.75" cy="10714.3" rx="10.987" ry="19.26" style="fill:rgb(120,147,179);"/>
                </g>
                <g transform="matrix(0.52003,-0.0358282,0.0500423,0.72634,2673.8,3189.93)">
                    <ellipse cx="6746.75" cy="10714.3" rx="10.987" ry="19.26" style="fill:rgb(120,147,179);"/>
                </g>
                <g transform="matrix(0.372775,0.364353,-0.508903,0.520666,9747.52,2731.83)">
                    <ellipse cx="6746.75" cy="10714.3" rx="10.987" ry="19.26" style="fill:rgb(120,147,179);"/>
                </g>
            </g>
        </g>
    </g>
</svg>
