<?xml version="1.0" encoding="UTF-8" standalone="no"?>
<!DOCTYPE svg PUBLIC "-//W3C//DTD SVG 1.1//EN" "http://www.w3.org/Graphics/SVG/1.1/DTD/svg11.dtd">
<svg width="100%" height="100%" viewBox="0 0 214 202" version="1.1" xmlns="http://www.w3.org/2000/svg" xmlns:xlink="http://www.w3.org/1999/xlink" xml:space="preserve" xmlns:serif="http://www.serif.com/" style="fill-rule:evenodd;clip-rule:evenodd;stroke-linecap:round;stroke-linejoin:round;stroke-miterlimit:1.5;">
    <g transform="matrix(1,0,0,1,-8521.39,-13240)">
        <g transform="matrix(0.349471,0,0,0.349471,5663.8,9387.04)">
            <path d="M8610.72,11073.2C8621.1,11064.3 8671.67,11023.3 8700.77,11041.8C8733.31,11062.4 8765.86,11109.2 8772.57,11191.2C8779.29,11273.2 8773.09,11295.3 8726.6,11250.9L8726.42,11250.7C8728.33,11317.6 8703.48,11391.4 8645.39,11454.6C8647.82,11462.1 8649.1,11469.8 8649.1,11477.7C8649.1,11539 8572.61,11588.7 8478.39,11588.7C8384.17,11588.7 8307.68,11539 8307.68,11477.7C8307.68,11469.8 8308.96,11462.1 8311.39,11454.6C8255.19,11393.5 8230.1,11322.4 8230.26,11257.2C8189.97,11292.9 8184.72,11269 8191.09,11191.2C8197.8,11109.2 8230.35,11062.4 8262.89,11041.8C8290.32,11024.4 8336.82,11059.8 8350.77,11071.3C8412.58,11047.9 8478.39,11049.7 8478.39,11049.7L8478.82,11049.7C8484.74,11049.6 8550.49,11049 8610.72,11073.2Z" style="stroke:black;stroke-width:23.85px;"/>
            <g>
                <path d="M8354.84,11074.8C8354.84,11074.8 8295.44,11021.1 8262.89,11041.8C8230.35,11062.4 8197.8,11109.2 8191.09,11191.2C8184.37,11273.2 8190.57,11295.3 8237.06,11250.9L8354.84,11074.8Z" style="fill:rgb(221,221,205);"/>
                <g transform="matrix(-1,0,0,1,16963.7,0)">
                    <path d="M8354.84,11074.8C8354.84,11074.8 8295.44,11021.1 8262.89,11041.8C8230.35,11062.4 8197.8,11109.2 8191.09,11191.2C8184.37,11273.2 8190.57,11295.3 8237.06,11250.9L8354.84,11074.8Z" style="fill:rgb(221,221,205);"/>
                </g>
                <path d="M8317.77,11461.4C8214.45,11354.8 8208.8,11215.2 8268.53,11130.4C8328.26,11045.7 8478.39,11049.7 8478.39,11049.7L8478.82,11049.7C8487.67,11049.5 8630.38,11048.3 8688.25,11130.4C8747.98,11215.2 8742.33,11354.8 8639.01,11461.4L8478.39,11487.2L8317.77,11461.4Z" style="fill:rgb(234,234,220);"/>
                <clipPath id="_clip1">
                    <path d="M8317.77,11461.4C8214.45,11354.8 8208.8,11215.2 8268.53,11130.4C8328.26,11045.7 8478.39,11049.7 8478.39,11049.7L8478.82,11049.7C8487.67,11049.5 8630.38,11048.3 8688.25,11130.4C8747.98,11215.2 8742.33,11354.8 8639.01,11461.4L8478.39,11487.2L8317.77,11461.4Z"/>
                </clipPath>
                <g clip-path="url(#_clip1)">
                    <g transform="matrix(1,0,0,1,0.113128,2.52231)">
                        <path d="M8408.42,11308.1C8408.42,11308.1 8371.48,11227.8 8336.76,11201.3C8302.05,11174.9 8289.81,11196 8279.24,11210.2C8268.66,11224.5 8248.82,11263.5 8250.47,11294.9C8250.47,11294.9 8313.47,11255.3 8408.42,11308.1Z" style="fill:rgb(32,33,30);"/>
                    </g>
                    <g transform="matrix(-1,0,0,1,16938.9,2.52231)">
                        <path d="M8408.42,11308.1C8408.42,11308.1 8371.48,11227.8 8336.76,11201.3C8302.05,11174.9 8289.81,11196 8279.24,11210.2C8268.66,11224.5 8248.82,11263.5 8250.47,11294.9C8250.47,11294.9 8313.47,11255.3 8408.42,11308.1Z" style="fill:rgb(32,33,30);"/>
                    </g>
                </g>
                <g transform="matrix(1,0,0,1,-1.21074,-27.0295)">
                    <ellipse cx="8479.6" cy="11504.7" rx="170.712" ry="110.983" style="fill:rgb(226,226,209);"/>
                    <clipPath id="_clip2">
                        <ellipse cx="8479.6" cy="11504.7" rx="170.712" ry="110.983"/>
                    </clipPath>
                    <g clip-path="url(#_clip2)">
                        <g transform="matrix(1,0,0,1,1.21074,27.0295)">
                            <path d="M8469.37,11491.4C8466.48,11490.6 8420.07,11477.1 8413.61,11434.1C8406.94,11389.7 8469.51,11394.6 8469.51,11394.6L8469.69,11394.5C8473.35,11394.3 8531.87,11391.1 8525.41,11434.1C8518.75,11478.5 8469.51,11491.4 8469.51,11491.4L8469.37,11491.4Z" style="fill:rgb(32,33,30);"/>
                        </g>
                    </g>
                </g>
            </g>
        </g>
    </g>
</svg>
