<?xml version="1.0" encoding="UTF-8" standalone="no"?>
<!DOCTYPE svg PUBLIC "-//W3C//DTD SVG 1.1//EN" "http://www.w3.org/Graphics/SVG/1.1/DTD/svg11.dtd">
<svg width="100%" height="100%" viewBox="0 0 211 198" version="1.1" xmlns="http://www.w3.org/2000/svg" xmlns:xlink="http://www.w3.org/1999/xlink" xml:space="preserve" xmlns:serif="http://www.serif.com/" style="fill-rule:evenodd;clip-rule:evenodd;stroke-linecap:round;stroke-linejoin:round;stroke-miterlimit:1.5;">
    <g transform="matrix(1,0,0,1,-9526.13,-13844.8)">
        <g transform="matrix(0.489928,0,0,0.489928,5587.61,13206.2)">
            <path d="M8129.92,1348.19C8157.73,1326.16 8203.28,1311.79 8254.72,1311.79C8306.16,1311.79 8351.71,1326.16 8379.52,1348.19C8390,1345.14 8407.73,1338.61 8427.24,1325.54C8427.24,1325.54 8478.83,1388.5 8425.93,1465.09C8430.45,1500.96 8426.23,1531.21 8426.23,1531.21C8424.68,1526.13 8423.18,1521.37 8421.72,1516.91C8421.53,1520.23 8421.34,1523.48 8421.18,1526.66C8433.82,1537.13 8458.52,1567.58 8459.72,1646.09C8459.72,1646.09 8445.65,1618.5 8427.25,1597.72C8426.35,1610.99 8422.51,1618.44 8422.51,1618.44C8381.77,1602.41 8308.58,1650.81 8292.45,1674.86C8276.31,1698.91 8254.72,1698.91 8254.72,1698.91L8254.66,1698.91C8253.38,1698.89 8232.62,1698.16 8216.99,1674.86C8200.86,1650.81 8127.67,1602.41 8086.93,1618.44C8086.93,1618.44 8082.64,1610.11 8082.07,1595.38C8062.64,1616.36 8047.48,1646.09 8047.48,1646.09C8048.75,1562.83 8076.46,1533.62 8088.17,1524.97C8087.7,1516.25 8087.07,1507.03 8086.98,1497.27C8082.87,1505.71 8079.2,1514.87 8076.38,1524.66C8076.38,1524.66 8075.63,1497.23 8082.56,1463.7L8088.13,1471.46C8027.71,1392.03 8082.2,1325.54 8082.2,1325.54C8101.71,1338.61 8119.44,1345.14 8129.92,1348.19Z" style="stroke:black;stroke-width:17.01px;"/>
            <g>
                <g transform="matrix(1,0,0,0.893057,0,140.286)">
                    <path d="M8093.33,1546.95C8093.33,1546.95 8049.1,1567.74 8047.48,1686.12C8047.48,1686.12 8072.66,1630.81 8099.72,1612.47L8093.33,1546.95Z" style="fill:rgb(47,59,138);"/>
                </g>
                <g transform="matrix(-1,0,0,0.893057,16507.2,140.286)">
                    <path d="M8093.33,1546.95C8093.33,1546.95 8049.1,1567.74 8047.48,1686.12C8047.48,1686.12 8072.66,1630.81 8099.72,1612.47L8093.33,1546.95Z" style="fill:rgb(47,59,138);"/>
                </g>
                <g transform="matrix(1,0,0,0.893057,0.192447,137.83)">
                    <path d="M8139.6,1357.98C8139.6,1357.98 8113.07,1353.24 8082,1329.93C8082,1329.93 8027.52,1404.39 8087.94,1493.34L8139.6,1357.98Z" style="fill:rgb(58,71,152);"/>
                    <clipPath id="_clip1">
                        <path d="M8139.6,1357.98C8139.6,1357.98 8113.07,1353.24 8082,1329.93C8082,1329.93 8027.52,1404.39 8087.94,1493.34L8139.6,1357.98Z"/>
                    </clipPath>
                    <g clip-path="url(#_clip1)">
                        <path d="M8139.6,1396.17C8139.6,1396.17 8098.73,1370.82 8087.94,1355.18C8087.94,1355.18 8066.36,1408.58 8089.02,1473.31L8139.6,1396.17Z" style="fill:rgb(223,223,223);"/>
                    </g>
                </g>
                <g transform="matrix(-1,0,0,0.893057,16509.2,137.83)">
                    <path d="M8139.6,1357.98C8139.6,1357.98 8113.07,1353.24 8082,1329.93C8082,1329.93 8027.52,1404.39 8087.94,1493.34L8139.6,1357.98Z" style="fill:rgb(58,71,152);"/>
                    <clipPath id="_clip2">
                        <path d="M8139.6,1357.98C8139.6,1357.98 8113.07,1353.24 8082,1329.93C8082,1329.93 8027.52,1404.39 8087.94,1493.34L8139.6,1357.98Z"/>
                    </clipPath>
                    <g clip-path="url(#_clip2)">
                        <path d="M8139.6,1396.17C8139.6,1396.17 8098.73,1370.82 8087.94,1355.18C8087.94,1355.18 8066.36,1408.58 8089.02,1473.31L8139.6,1396.17Z" style="fill:rgb(223,223,223);"/>
                    </g>
                </g>
                <g transform="matrix(1,0,0,0.893057,7.34557,151.577)">
                    <ellipse cx="8247.37" cy="1396.24" rx="153.24" ry="97.096" style="fill:rgb(187,137,15);"/>
                </g>
                <g transform="matrix(1,0,0,0.893057,0,140.286)">
                    <path d="M8254.66,1745.27C8253.38,1745.24 8232.62,1744.43 8216.99,1718.34C8200.86,1691.41 8127.67,1637.21 8086.93,1655.16C8086.93,1655.16 8076.57,1632.63 8085.89,1595.69C8095.21,1558.75 8076.66,1512.15 8096.94,1450.43C8117.22,1388.72 8174.07,1336.87 8254.72,1338.02C8335.37,1336.87 8392.22,1388.72 8412.5,1450.43C8432.78,1512.15 8414.22,1558.75 8423.55,1595.69C8432.87,1632.63 8422.51,1655.16 8422.51,1655.16C8381.77,1637.21 8308.58,1691.41 8292.45,1718.34C8276.31,1745.27 8254.72,1745.27 8254.72,1745.27L8254.66,1745.27Z" style="fill:rgb(58,71,152);"/>
                    <clipPath id="_clip3">
                        <path d="M8254.66,1745.27C8253.38,1745.24 8232.62,1744.43 8216.99,1718.34C8200.86,1691.41 8127.67,1637.21 8086.93,1655.16C8086.93,1655.16 8076.57,1632.63 8085.89,1595.69C8095.21,1558.75 8076.66,1512.15 8096.94,1450.43C8117.22,1388.72 8174.07,1336.87 8254.72,1338.02C8335.37,1336.87 8392.22,1388.72 8412.5,1450.43C8432.78,1512.15 8414.22,1558.75 8423.55,1595.69C8432.87,1632.63 8422.51,1655.16 8422.51,1655.16C8381.77,1637.21 8308.58,1691.41 8292.45,1718.34C8276.31,1745.27 8254.72,1745.27 8254.72,1745.27L8254.66,1745.27Z"/>
                    </clipPath>
                    <g clip-path="url(#_clip3)">
                        <path d="M8136.09,1688.61L8135.66,1666.06C8135.66,1666.06 8091.64,1614.71 8120.56,1600.9C8149.47,1587.09 8241.39,1624.63 8206,1565.51C8170.61,1506.39 8090.96,1533.58 8112.45,1482.65C8133.93,1431.73 8212.38,1441.3 8254.72,1536.42L8254.97,1535.86C8297.37,1441.26 8375.55,1431.83 8396.99,1482.65C8418.48,1533.58 8338.82,1506.39 8303.44,1565.51C8268.05,1624.63 8359.97,1587.09 8388.88,1600.9C8417.8,1614.71 8373.78,1666.06 8373.78,1666.06L8373.35,1688.61L8254.72,1788.3L8136.09,1688.61Z" style="fill:rgb(223,223,223);"/>
                        <path d="M8254.7,1670.07C8254.26,1669.54 8247.29,1660.97 8245.15,1651.87C8245.15,1651.87 8230.51,1649.66 8230.51,1637.78C8230.51,1625.9 8231.14,1616.79 8254.72,1616.79L8255,1616.79C8278.3,1616.86 8278.92,1625.95 8278.92,1637.78C8278.92,1649.66 8264.29,1651.87 8264.29,1651.87C8262.08,1661.26 8254.72,1670.1 8254.72,1670.1L8254.7,1670.07Z" style="fill:rgb(118,113,142);"/>
                    </g>
                </g>
                <g transform="matrix(0.816757,0.212355,-0.279527,0.857458,2377.8,-1499.04)">
                    <ellipse cx="7667" cy="1509.04" rx="13.257" ry="15.708" style="fill:rgb(187,137,15);"/>
                </g>
                <g transform="matrix(0.765632,0.331085,-0.435813,0.803784,2989.23,-2342.11)">
                    <ellipse cx="7667" cy="1509.04" rx="13.257" ry="15.708" style="fill:rgb(187,137,15);"/>
                </g>
                <g transform="matrix(0.60726,0.532002,-0.700284,0.637521,4588.14,-3646.41)">
                    <ellipse cx="7667" cy="1509.04" rx="13.257" ry="15.708" style="fill:rgb(187,137,15);"/>
                </g>
                <g transform="matrix(0.530347,0.593978,-0.781865,0.556775,5291.89,-4017.16)">
                    <ellipse cx="7667" cy="1509.04" rx="13.257" ry="15.708" style="fill:rgb(187,137,15);"/>
                </g>
                <g transform="matrix(-0.816757,0.212355,0.279527,0.857458,14111,-1492.98)">
                    <ellipse cx="7667" cy="1509.04" rx="13.257" ry="15.708" style="fill:rgb(187,137,15);"/>
                </g>
                <g transform="matrix(-0.816757,0.212355,0.279527,0.857458,14131.6,-1499.04)">
                    <ellipse cx="7667" cy="1509.04" rx="13.257" ry="15.708" style="fill:rgb(187,137,15);"/>
                </g>
                <g transform="matrix(-0.765632,0.331085,0.435813,0.803784,13520.2,-2342.11)">
                    <ellipse cx="7667" cy="1509.04" rx="13.257" ry="15.708" style="fill:rgb(187,137,15);"/>
                </g>
                <g transform="matrix(-0.60726,0.532002,0.700284,0.637521,11921.3,-3646.41)">
                    <ellipse cx="7667" cy="1509.04" rx="13.257" ry="15.708" style="fill:rgb(187,137,15);"/>
                </g>
                <g transform="matrix(-0.530347,0.593978,0.781865,0.556775,11217.5,-4017.16)">
                    <ellipse cx="7667" cy="1509.04" rx="13.257" ry="15.708" style="fill:rgb(187,137,15);"/>
                </g>
                <g transform="matrix(1.07634,0,0,0.961236,-16.4026,-22.7188)">
                    <path d="M7684.44,1575.84C7684.02,1574.23 7677.12,1548.16 7674.72,1531.38C7672.25,1514.05 7684.47,1514.13 7684.47,1514.13L7684.47,1514.13C7684.84,1514.13 7696.64,1514.32 7694.21,1531.38C7691.73,1548.7 7684.47,1575.92 7684.47,1575.92L7684.44,1575.84Z" style="fill:rgb(187,137,15);"/>
                </g>
                <g transform="matrix(0.638753,0,0,0.761677,3346.24,283.926)">
                    <path d="M7684.44,1575.84C7684.02,1574.23 7677.12,1548.16 7674.72,1531.38C7672.25,1514.05 7684.47,1514.13 7684.47,1514.13L7684.47,1514.13C7684.84,1514.13 7696.64,1514.32 7694.21,1531.38C7691.73,1548.7 7684.47,1575.92 7684.47,1575.92L7684.44,1575.84Z" style="fill:rgb(159,44,43);"/>
                </g>
                <g transform="matrix(0.816757,0.212355,-0.279527,0.857458,2398.46,-1492.98)">
                    <ellipse cx="7667" cy="1509.04" rx="13.257" ry="15.708" style="fill:rgb(187,137,15);"/>
                </g>
                <g transform="matrix(1,0,0,0.893057,-30.5814,157.795)">
                    <path d="M8320.18,1522.03C8320.18,1522.03 8375.47,1463.1 8400.42,1503.35C8400.42,1503.35 8389.63,1425.6 8320.18,1522.03Z" style="fill:rgb(38,45,85);"/>
                </g>
                <g transform="matrix(-1,0,0,0.893057,16540,157.795)">
                    <path d="M8320.18,1522.03C8320.18,1522.03 8375.47,1463.1 8400.42,1503.35C8400.42,1503.35 8389.63,1425.6 8320.18,1522.03Z" style="fill:rgb(38,45,85);"/>
                </g>
                <g transform="matrix(1,0,0,0.893057,0,140.286)">
                    <path d="M8397.69,1477.74C8399.14,1484.69 8400.5,1492.17 8401.73,1500.18C8401.73,1500.18 8387.92,1464.03 8362.03,1436.84C8362.03,1436.84 8371.17,1469.64 8369.84,1498.12C8369.84,1498.12 8340.09,1439.05 8277.7,1393.29C8277.7,1393.29 8228.74,1429.7 8179.72,1501.85C8179.72,1501.85 8171.59,1461.57 8174.9,1434.78C8174.9,1434.78 8133.75,1497.41 8110.28,1550.72C8110.28,1550.72 8116.63,1491.19 8135.41,1448.39C8135.41,1448.39 8092.4,1488 8076.38,1550.15C8076.38,1550.15 8072.07,1373.44 8179.72,1349.7C8179.72,1349.7 8195.89,1314.75 8237.31,1329.85C8237.31,1329.85 8251.99,1314.31 8284.35,1331.58C8284.35,1331.58 8300.86,1325.96 8329.72,1341.5C8329.72,1341.5 8353.64,1335.67 8375.33,1373.22C8442.78,1424.76 8426.23,1557.48 8426.23,1557.48C8413.38,1510.1 8403.25,1487.67 8397.69,1477.74Z" style="fill:rgb(47,59,138);"/>
                </g>
            </g>
        </g>
    </g>
</svg>
