<?xml version="1.0" encoding="UTF-8" standalone="no"?>
<!DOCTYPE svg PUBLIC "-//W3C//DTD SVG 1.1//EN" "http://www.w3.org/Graphics/SVG/1.1/DTD/svg11.dtd">
<svg width="100%" height="100%" viewBox="0 0 195 201" version="1.1" xmlns="http://www.w3.org/2000/svg" xmlns:xlink="http://www.w3.org/1999/xlink" xml:space="preserve" xmlns:serif="http://www.serif.com/" style="fill-rule:evenodd;clip-rule:evenodd;stroke-linecap:round;stroke-linejoin:round;stroke-miterlimit:1.5;">
    <g transform="matrix(1,0,0,1,-6724.677221,-13361.563894)">
        <g transform="matrix(0.400068,0,0,0.400068,6204.595612,9431.981991)">
            <g transform="matrix(1,0,0,1,746.227236,22.89338)">
                <path d="M675.975,10224.721C681.174,10236.991 687.594,10249.23 695.327,10259.144C695.327,10259.144 681.815,10255.188 643.578,10211.676C643.578,10211.676 609.955,10232.114 583.584,10256.507C583.584,10256.507 585.799,10225.178 592.972,10217.162C592.972,10217.162 573.985,10225.6 564.703,10236.149C564.703,10236.149 561.749,10217.162 569.766,10203.238C577.783,10189.314 566.285,10127.87 570.241,10076.447C574.196,10025.024 576.759,9809.937 797.089,9809.937C800.749,9809.937 804.314,9809.978 807.787,9810.059L807.723,9809.937C807.723,9809.937 1027.168,9794.992 1024.696,10088.367L1024.588,10088.335C1026.257,10136.946 1017.006,10190.374 1024.413,10203.238C1032.429,10217.162 1029.476,10236.149 1029.476,10236.149C1020.193,10225.6 1001.206,10217.162 1001.206,10217.162C1008.379,10225.178 1010.594,10256.507 1010.594,10256.507C984.224,10232.114 950.601,10211.676 950.601,10211.676C912.363,10255.188 898.851,10259.144 898.851,10259.144C906.584,10249.23 913.005,10236.991 918.204,10224.721C912.928,10232.662 908.142,10239.475 904.254,10245.012C877.451,10283.186 825.884,10289.786 802.877,10290.767L802.876,10290.832C802.876,10290.832 800.768,10290.947 797.089,10290.917C793.41,10290.947 791.303,10290.832 791.303,10290.832L791.301,10290.767C768.294,10289.786 716.727,10283.186 689.924,10245.012C686.037,10239.475 681.251,10232.662 675.975,10224.721Z" style="stroke:black;stroke-width:20.83px;"/>
            </g>
            <g>
                <g transform="matrix(1,0,0,1,746.227236,22.89338)">
                    <path d="M791.301,10290.767C768.294,10289.786 716.727,10283.186 689.924,10245.012C654.76,10194.929 546.07,10040.419 666.481,9891.238L783.932,9868.617L783.843,9863.532L797.089,9866.083L810.335,9863.532L810.246,9868.617L927.697,9891.238C1048.108,10040.419 939.419,10194.929 904.254,10245.012C877.451,10283.186 825.884,10289.786 802.877,10290.767L802.876,10290.832C802.876,10290.832 800.768,10290.947 797.089,10290.917C793.41,10290.947 791.303,10290.832 791.303,10290.832L791.301,10290.767Z" style="fill:rgb(242,206,159);"/>
                </g>
                <g transform="matrix(0.795758,0,0,0.795758,877.483606,2121.926391)">
                    <path d="M869.238,10077.419C869.238,10077.419 900.336,10003.766 970.715,10006.494C970.715,10006.494 910.702,10028.862 869.238,10077.419Z" style="fill:rgb(140,111,43);"/>
                </g>
                <g transform="matrix(-0.795758,0,0,0.795758,2209.149414,2121.926391)">
                    <path d="M869.238,10077.419C869.238,10077.419 900.336,10003.766 970.715,10006.494C970.715,10006.494 910.702,10028.862 869.238,10077.419Z" style="fill:rgb(140,111,43);"/>
                </g>
                <g transform="matrix(0.773366,0,0,0.773366,902.502652,2312.70651)">
                    <path d="M956.212,9915.733C955.633,9916.469 955.317,9916.855 955.317,9916.855C955.317,9916.855 941.678,9979.085 943.383,10000.396C943.383,10000.396 916.956,9968.003 900.759,9931.347C900.759,9931.347 893.087,9980.79 903.317,10010.626C903.317,10010.626 835.12,9968.855 790.791,9901.51C790.791,9901.51 768.722,9980.79 771.658,10015.741C771.658,10015.741 723.446,9980.79 702.987,9914.297C702.987,9914.297 696.167,9991.019 720.036,10072.856C720.036,10072.856 668.036,10059.217 631.38,9976.527C631.38,9976.527 650.987,10114.627 733.676,10222.038C733.676,10222.038 690.2,10216.923 649.282,10186.234C649.282,10186.234 663.774,10262.104 697.02,10304.727C697.02,10304.727 679.548,10299.612 630.105,10243.35C630.105,10243.35 586.629,10269.776 552.531,10301.317C552.531,10301.317 555.395,10260.808 564.67,10250.442C564.67,10250.442 540.119,10261.354 528.116,10274.993C528.116,10274.993 524.297,10250.442 534.663,10232.438C545.029,10214.434 530.162,10134.984 535.277,10068.492C540.392,10001.999 543.705,9723.882 828.603,9723.882C833.335,9723.882 837.946,9723.935 842.436,9724.04L842.353,9723.882C842.353,9723.882 1126.106,9704.557 1122.909,10083.905L1122.77,10083.864C1124.928,10146.72 1112.966,10215.804 1122.543,10232.438C1132.909,10250.442 1129.09,10274.993 1129.09,10274.993C1117.087,10261.354 1092.536,10250.442 1092.536,10250.442C1101.811,10260.808 1104.675,10301.317 1104.675,10301.317C1070.577,10269.776 1027.101,10243.35 1027.101,10243.35C977.658,10299.612 960.186,10304.727 960.186,10304.727C993.433,10262.104 1007.925,10186.234 1007.925,10186.234C967.006,10216.923 923.53,10222.038 923.53,10222.038C1000.597,10121.931 1022.868,9995.168 1025.541,9978.39C1011.781,9960.06 990.084,9938.892 956.212,9915.733Z" style="fill:rgb(150,116,35);"/>
                </g>
            </g>
        </g>
    </g>
</svg>
