<?xml version="1.0" encoding="UTF-8" standalone="no"?>
<!DOCTYPE svg PUBLIC "-//W3C//DTD SVG 1.1//EN" "http://www.w3.org/Graphics/SVG/1.1/DTD/svg11.dtd">
<svg width="100%" height="100%" viewBox="0 0 162 223" version="1.1" xmlns="http://www.w3.org/2000/svg" xmlns:xlink="http://www.w3.org/1999/xlink" xml:space="preserve" xmlns:serif="http://www.serif.com/" style="fill-rule:evenodd;clip-rule:evenodd;stroke-linecap:round;stroke-linejoin:round;stroke-miterlimit:1.5;">
    <g transform="matrix(1,0,0,1,-1519.398443,-13155.990814)">
        <g transform="matrix(0.585276,0,0,0.585276,950.989369,6653.588068)">
            <g transform="matrix(1,0,0,1,376.347029,70.938521)">
                <path d="M657.407,11333.251C657.544,11347.732 657.964,11362.695 658.837,11376.921C658.837,11376.921 591.498,11299.602 603.353,11228.93C614.635,11161.679 611.96,11048.431 755.72,11046.189L755.711,11046.155C826.059,11046.475 868.269,11130.232 858.59,11195.484C841.586,11310.116 824.921,11353.855 864.491,11411.276C864.491,11411.276 835.698,11405.083 806.865,11357.309C806.865,11357.309 811.569,11386.022 819.157,11397.329C819.157,11397.329 790.039,11380.584 774.484,11354.789C774.484,11354.789 774.866,11354.532 775.551,11354.007C772.72,11355.766 770.215,11357.499 768.16,11359.327C748.196,11377.082 736.388,11379.109 733.011,11379.292C733.011,11379.292 732.842,11379.311 732.505,11379.308C732.168,11379.311 731.999,11379.292 731.999,11379.292C728.623,11379.109 716.815,11377.082 696.85,11359.327C688.428,11351.837 672.46,11345.944 657.407,11333.251Z" style="stroke:black;stroke-width:14.24px;"/>
            </g>
            <g>
                <g transform="matrix(1,0,0,1,376.347029,70.938521)">
                    <path d="M731.999,11379.292C728.623,11379.109 716.815,11377.082 696.85,11359.327C672.901,11338.027 587.928,11329.65 636.518,11141.04L710.14,11104.358L708.295,11081.152L732.505,11093.215L756.715,11081.152L754.87,11104.358L828.493,11141.04C877.083,11329.65 792.109,11338.027 768.16,11359.327C748.196,11377.082 736.388,11379.109 733.011,11379.292C733.011,11379.292 732.842,11379.311 732.505,11379.308C732.168,11379.311 731.999,11379.292 731.999,11379.292Z" style="fill:rgb(225,177,137);"/>
                </g>
                <g transform="matrix(0.784748,0,0,0.784748,531.405928,2514.620408)">
                    <path d="M767.664,11229.585C767.664,11229.585 786.38,11194.948 836.381,11178.467C836.381,11178.467 774.927,11173.998 767.664,11229.585Z" style="fill:rgb(97,55,31);"/>
                </g>
                <g transform="matrix(-0.784748,0,0,0.784748,1686.298796,2514.620408)">
                    <path d="M767.664,11229.585C767.664,11229.585 786.38,11194.948 836.381,11178.467C836.381,11178.467 774.927,11173.998 767.664,11229.585Z" style="fill:rgb(97,55,31);"/>
                </g>
                <g transform="matrix(0.869213,0,0,0.809602,468.935346,2238.502491)">
                    <path d="M797.016,11098.621C795.343,11113.766 782.347,11165.459 685.084,11216.844C685.084,11216.844 667.189,11246.523 665.007,11274.456C665.007,11274.456 651.913,11235.611 651.913,11216.844C651.913,11216.844 647.358,11303.563 651.45,11375.17C651.45,11375.17 573.978,11279.667 587.617,11192.375C600.596,11109.308 597.519,10969.426 762.91,10966.657L762.899,10966.616C843.833,10967.011 892.394,11070.465 881.258,11151.062C861.695,11292.653 842.523,11346.679 888.047,11417.603C888.047,11417.603 854.922,11409.954 821.751,11350.945C821.751,11350.945 827.163,11386.41 835.892,11400.377C835.892,11400.377 802.392,11379.694 784.498,11347.833C784.498,11347.833 820.091,11322.039 826.058,11261.514C832.025,11200.989 860.519,11082.497 797.256,11099.547L797.016,11098.621Z" style="fill:rgb(114,66,39);"/>
                </g>
            </g>
        </g>
    </g>
</svg>
