<?xml version="1.0" encoding="UTF-8" standalone="no"?>
<!DOCTYPE svg PUBLIC "-//W3C//DTD SVG 1.1//EN" "http://www.w3.org/Graphics/SVG/1.1/DTD/svg11.dtd">
<svg width="100%" height="100%" viewBox="0 0 207 233" version="1.1" xmlns="http://www.w3.org/2000/svg" xmlns:xlink="http://www.w3.org/1999/xlink" xml:space="preserve" xmlns:serif="http://www.serif.com/" style="fill-rule:evenodd;clip-rule:evenodd;stroke-linecap:round;stroke-linejoin:round;stroke-miterlimit:1.5;">
    <g transform="matrix(1,0,0,1,-2703.58,-13565)">
        <g transform="matrix(0.513933,0,0,0.513933,345.124,8444.26)">
            <path d="M4806.49,9973.77C4810.66,9970.42 4827.45,9971.51 4846.64,9976.63C4866.98,9982.06 4882.73,9990.09 4883.08,9995.03C4885.57,9996.79 4886.78,9997.9 4886.78,9997.9C4886.78,9997.9 4884.76,10018.3 4895.09,10035C4895.65,10035.9 4896.19,10036.8 4896.71,10037.7C4901.14,10035.7 4906.05,10034.6 4911.22,10034.6C4923.9,10034.6 4935.04,10041.4 4941.36,10051.6C4951.74,10058.1 4964.42,10070.5 4966.63,10093.4C4966.63,10093.4 4982.3,10106.7 4980.9,10215.5C4979.51,10324.2 4974.55,10365.9 4981.95,10407.3C4981.95,10407.3 4956.94,10355.3 4952.59,10300.9C4952.59,10300.9 4936.53,10352.3 4943.31,10382.3C4943.91,10384.5 4944.25,10385.8 4944.25,10385.8C4943.9,10384.6 4943.59,10383.5 4943.31,10382.3C4939.57,10367.9 4926.04,10312.2 4927.92,10266.4C4929.89,10218.4 4936.72,10155.5 4918.95,10139.9C4918.65,10146.1 4918.21,10151.9 4917.77,10157.2C4916.83,10168.4 4913.53,10179 4910.27,10187C4914.81,10192.5 4919.03,10202.8 4910.86,10218.7C4899.45,10240.9 4891.31,10258.6 4872.82,10251.6C4861.1,10276.6 4846.93,10279.4 4831.56,10291.3C4809.14,10308.5 4788.01,10308.5 4788.01,10308.5L4787.73,10308.5C4787.73,10308.5 4766.59,10308.5 4744.18,10291.3C4728.8,10279.4 4714.63,10276.6 4702.91,10251.6C4684.42,10258.6 4676.28,10240.9 4664.87,10218.7C4655.26,10200 4662.81,10189.1 4667.83,10184.4C4664.92,10176.8 4662.17,10167.3 4661.33,10157.2C4660.89,10151.9 4660.44,10146.1 4660.14,10139.9C4642.37,10155.5 4649.21,10218.4 4651.18,10266.4C4653.05,10312.2 4639.53,10367.9 4635.78,10382.3C4635.51,10383.5 4635.19,10384.6 4634.84,10385.8C4634.84,10385.8 4635.19,10384.5 4635.78,10382.3C4642.57,10352.3 4626.51,10300.9 4626.51,10300.9C4622.15,10355.3 4597.15,10407.3 4597.15,10407.3C4604.55,10365.9 4599.58,10324.2 4598.19,10215.5C4596.8,10106.7 4612.47,10093.4 4612.47,10093.4C4614.67,10070.5 4627.36,10058.1 4637.74,10051.6C4644.06,10041.4 4655.2,10034.6 4667.88,10034.6C4673.04,10034.6 4677.95,10035.7 4682.39,10037.7C4682.91,10036.8 4683.44,10035.9 4684.01,10035C4694.34,10018.3 4692.32,9997.9 4692.32,9997.9C4692.32,9997.9 4693.68,9996.65 4696.48,9994.71C4697.46,9989.74 4712.97,9981.94 4732.87,9976.63C4752.04,9971.51 4768.82,9970.43 4773.01,9973.76C4774.25,9973.73 4775.51,9973.72 4776.78,9973.71C4776.78,9973.71 4777.43,9978.41 4779.41,9983.78C4783.63,9984.53 4790.84,9985.37 4799.39,9984.55C4801.6,9978.86 4802.32,9973.71 4802.32,9973.71C4803.73,9973.72 4805.12,9973.74 4806.49,9973.77ZM4890.77,10188.1L4888.79,10192L4889.39,10188.8C4890.23,10187.7 4890.89,10186.5 4891.24,10185.4C4891.24,10185.4 4891.07,10186.4 4890.77,10188.1ZM4796.7,9991.78C4794.37,9991.76 4791.98,9991.77 4789.55,9991.84C4787.11,9991.77 4784.73,9991.76 4782.4,9991.78C4782.87,9991.49 4783.12,9991.33 4783.12,9991.33C4782.89,9990.99 4782.68,9990.64 4782.47,9990.29C4788.53,9989.69 4793.46,9990.06 4796.52,9990.47C4796.34,9990.76 4796.16,9991.05 4795.98,9991.33C4795.98,9991.33 4796.23,9991.49 4796.7,9991.78Z" style="stroke:black;stroke-width:16.21px;"/>
            <g>
                <g transform="matrix(0.546967,0,0,1,2227.72,-7.80648)">
                    <path d="M4935.49,10053.1C4935.49,10053.1 5000.43,10061.5 5007.44,10101.2C5007.44,10101.2 5036.09,10114.5 5033.54,10223.3C5030.99,10332 5021.92,10373.7 5035.45,10415.1C5035.45,10415.1 4989.73,10363.1 4981.77,10308.7C4981.77,10308.7 4949.97,10364.4 4966.53,10393.6C4966.53,10393.6 4932.69,10327.3 4936.67,10274.2C4940.65,10221.2 4955.49,10149.9 4908.48,10144.5L4901.13,10095.6L4935.49,10053.1Z" style="fill:rgb(219,128,180);"/>
                </g>
                <g transform="matrix(-0.546967,0,0,1,7351.37,-7.80648)">
                    <path d="M4935.49,10053.1C4935.49,10053.1 5000.43,10061.5 5007.44,10101.2C5007.44,10101.2 5036.09,10114.5 5033.54,10223.3C5030.99,10332 5021.92,10373.7 5035.45,10415.1C5035.45,10415.1 4989.73,10363.1 4981.77,10308.7C4981.77,10308.7 4949.97,10364.4 4966.53,10393.6C4966.53,10393.6 4932.69,10327.3 4936.67,10274.2C4940.65,10221.2 4955.49,10149.9 4908.48,10144.5L4901.13,10095.6L4935.49,10053.1Z" style="fill:rgb(219,128,180);"/>
                </g>
                <g transform="matrix(1,0,0,1,-0.354568,0)">
                    <path d="M4904.71,10181.7C4904.71,10181.7 4924.61,10192.6 4911.22,10218.7C4897.83,10244.8 4888.95,10264.5 4862.59,10245.6L4897.52,10175.1L4904.71,10181.7Z" style="fill:rgb(243,203,162);"/>
                </g>
                <g transform="matrix(-1,0,0,1,9576.09,0)">
                    <path d="M4904.71,10181.7C4904.71,10181.7 4924.61,10192.6 4911.22,10218.7C4897.83,10244.8 4888.95,10264.5 4862.59,10245.6L4897.52,10175.1L4904.71,10181.7Z" style="fill:rgb(243,203,162);"/>
                </g>
                <path d="M4788.36,10034.1L4873.82,10056.9L4897.52,10144.6L4887.27,10200.3C4873.82,10275.9 4853.97,10274 4831.56,10291.3C4809.14,10308.5 4788.01,10308.5 4788.01,10308.5L4787.73,10308.5C4787.73,10308.5 4766.59,10308.5 4744.18,10291.3C4721.76,10274 4701.91,10275.9 4688.46,10200.3L4678.21,10144.6L4701.91,10056.9L4787.37,10034.1L4787.37,10033.8L4787.87,10033.9L4788.37,10033.8L4788.36,10034.1Z" style="fill:rgb(247,209,170);"/>
                <g transform="matrix(1.02577,0,0,1.0571,-127.798,-577.121)">
                    <ellipse cx="4912.41" cy="10073" rx="34.74" ry="34.499" style="fill:rgb(113,165,57);"/>
                </g>
                <g transform="matrix(1.02577,0,0,1.0571,-371.139,-577.121)">
                    <ellipse cx="4912.41" cy="10073" rx="34.74" ry="34.499" style="fill:rgb(113,165,57);"/>
                </g>
                <path d="M4789.55,9991.84C4877.82,9989.47 4899.47,10050.1 4910.61,10074.1C4921.78,10098.2 4919.77,10133.1 4917.77,10157.2C4915.76,10181.3 4902.93,10201.9 4902.93,10201.9C4903.15,10209.3 4901.32,10218.2 4901.32,10218.2C4900.63,10214.3 4897.88,10209.7 4897.88,10209.7C4893.3,10217.8 4880.46,10223.3 4880.46,10223.3C4886.42,10213.9 4891.24,10185.4 4891.24,10185.4C4889.4,10191.2 4878.86,10198.3 4878.86,10198.3C4887.34,10167.1 4884.94,10147.9 4884.94,10147.9C4884.47,10149.7 4881.48,10153 4881.48,10153C4882.19,10103.2 4865.95,10070.7 4865.95,10070.7C4855.42,10069.2 4831.35,10063 4831.35,10063C4836.08,10063.2 4845.97,10060.4 4845.97,10060.4C4838.02,10057 4817.6,10058.7 4817.6,10058.7C4820.82,10056.3 4823.83,10053.1 4823.83,10053.1C4820.18,10052.4 4812.66,10054.6 4806.99,10058C4801.33,10061.5 4797.71,10062.2 4797.71,10062.2C4800.32,10059.9 4800.88,10055.5 4800.88,10055.5C4799.22,10057.8 4794.69,10061.1 4794.69,10061.1C4796.89,10058.5 4797.85,10051.8 4797.85,10051.8C4795.57,10054.8 4791.22,10059.8 4789.78,10061.4L4789.55,10061.6L4789.31,10061.4C4787.88,10059.8 4783.52,10054.8 4781.25,10051.8C4781.25,10051.8 4782.21,10058.5 4784.41,10061.1C4784.41,10061.1 4779.87,10057.8 4778.22,10055.5C4778.22,10055.5 4778.77,10059.9 4781.38,10062.2C4781.38,10062.2 4777.76,10061.5 4772.1,10058C4766.44,10054.6 4758.91,10052.4 4755.26,10053.1C4755.26,10053.1 4758.27,10056.3 4761.49,10058.7C4761.49,10058.7 4741.08,10057 4733.13,10060.4C4733.13,10060.4 4743.01,10063.2 4747.74,10063C4747.74,10063 4723.67,10069.2 4713.14,10070.7C4713.14,10070.7 4696.9,10103.2 4697.62,10153C4697.62,10153 4694.63,10149.7 4694.16,10147.9C4694.16,10147.9 4691.76,10167.1 4700.24,10198.3C4700.24,10198.3 4689.69,10191.2 4687.86,10185.4C4687.86,10185.4 4692.67,10213.9 4698.63,10223.3C4698.63,10223.3 4685.8,10217.8 4681.21,10209.7C4681.21,10209.7 4678.46,10214.3 4677.77,10218.2C4677.77,10218.2 4675.94,10209.3 4676.17,10201.9C4676.17,10201.9 4663.33,10181.3 4661.33,10157.2C4659.32,10133.1 4657.32,10098.2 4668.49,10074.1C4679.62,10050.1 4701.28,9989.47 4789.55,9991.84Z" style="fill:rgb(233,136,191);"/>
                <g transform="matrix(1,0,0,1,0.0572502,-0.358158)">
                    <path d="M4873.44,10107.5C4873.44,10107.5 4840.2,10092.7 4812.7,10129.9C4812.7,10129.9 4827.02,10086 4873.44,10107.5Z" style="fill:rgb(233,136,191);"/>
                </g>
                <g transform="matrix(-1,0,0,1,9579.04,-0.358158)">
                    <path d="M4873.44,10107.5C4873.44,10107.5 4840.2,10092.7 4812.7,10129.9C4812.7,10129.9 4827.02,10086 4873.44,10107.5Z" style="fill:rgb(233,136,191);"/>
                </g>
                <g transform="matrix(0.960622,0,0,0.960622,190.424,396.303)">
                    <path d="M4797.9,9981.28C4800.2,9975.37 4800.94,9970 4800.94,9970C4861.82,9970.25 4888.86,9995.19 4888.86,9995.19C4888.86,9995.19 4886.76,10016.5 4897.52,10033.8C4908.28,10051.1 4911.46,10072.4 4911.46,10072.4C4894.34,10020.9 4849.35,10011.1 4830.28,10005.2C4811.21,9999.34 4794.34,9988.34 4794.34,9988.34C4794.53,9988.05 4794.72,9987.75 4794.9,9987.45C4791.72,9987.02 4786.59,9986.64 4780.28,9987.26C4780.5,9987.62 4780.72,9987.99 4780.96,9988.34C4780.96,9988.34 4764.09,9999.34 4745.02,10005.2C4725.94,10011.1 4680.96,10020.9 4663.84,10072.4C4663.84,10072.4 4667.03,10051.1 4677.78,10033.8C4688.54,10016.5 4686.44,9995.19 4686.44,9995.19C4686.44,9995.19 4713.48,9970.25 4774.36,9970C4774.36,9970 4775.04,9974.9 4777.1,9980.49C4781.49,9981.27 4788.99,9982.14 4797.9,9981.28Z" style="fill:rgb(186,201,225);"/>
                </g>
                <g transform="matrix(0.928115,-0.247786,0.247786,0.928115,-2143.69,1948.82)">
                    <path d="M4760.59,9920.56C4783.62,9920.56 4802.31,9924.81 4802.31,9930.03C4802.31,9935.26 4718.88,9935.26 4718.88,9930.03C4718.88,9924.81 4737.57,9920.56 4760.59,9920.56Z" style="fill:rgb(201,201,201);"/>
                </g>
                <g transform="matrix(-0.928115,-0.247786,-0.247786,0.928115,11723.2,1948.82)">
                    <path d="M4760.59,9920.56C4783.62,9920.56 4802.31,9924.81 4802.31,9930.03C4802.31,9935.26 4718.88,9935.26 4718.88,9930.03C4718.88,9924.81 4737.57,9920.56 4760.59,9920.56Z" style="fill:rgb(201,201,201);"/>
                </g>
            </g>
        </g>
    </g>
</svg>
