<?xml version="1.0" encoding="UTF-8" standalone="no"?>
<!DOCTYPE svg PUBLIC "-//W3C//DTD SVG 1.1//EN" "http://www.w3.org/Graphics/SVG/1.1/DTD/svg11.dtd">
<svg width="100%" height="100%" viewBox="0 0 155 269" version="1.1" xmlns="http://www.w3.org/2000/svg" xmlns:xlink="http://www.w3.org/1999/xlink" xml:space="preserve" xmlns:serif="http://www.serif.com/" style="fill-rule:evenodd;clip-rule:evenodd;stroke-linecap:round;stroke-linejoin:round;stroke-miterlimit:1.5;">
    <g transform="matrix(1,0,0,1,-7145.38,-13093.1)">
        <g transform="matrix(0.946184,0,0,0.946184,2500.89,2219.07)">
            <path d="M4964.78,11531.3C4966.73,11523.8 4969.84,11515.3 4974.67,11509.7C4984.88,11497.8 4999.36,11491.5 5024.38,11502.9C5049.41,11514.3 5054.05,11536.3 5062.35,11547.1C5070.65,11558 5067.88,11586.3 5056.39,11604.1C5056.39,11604.1 5072.77,11573.7 5055.75,11543.7C5055.75,11543.7 5058.52,11560.1 5054.47,11580.5C5053.23,11586.8 5052,11593.4 5050.93,11599.9C5057.76,11610 5061.98,11622 5061.98,11635.3C5061.98,11646.7 5060.45,11658.2 5058.25,11668.9C5059.48,11669.5 5060.39,11671.1 5060.39,11674C5060.39,11682.4 5059,11709.9 5046.2,11708.9L5046.1,11709.1L5046.01,11709.4C5042.75,11724.2 5034.67,11731.8 5030.67,11747.2C5024.92,11769.3 5010.7,11771.4 5010.7,11771.4C5025.11,11761.2 5024.52,11752.9 5024.52,11752.9C5022.02,11755.9 5016.58,11755.9 5016.58,11755.9C5020.4,11752.3 5022.36,11747.5 5023.35,11743.1C5010.6,11767.7 4988.57,11769.9 4987.1,11770L4987.03,11770L4986.95,11770C4985.53,11769.9 4965.07,11767.8 4952.18,11745.7C4952.08,11747.5 4951.9,11749.6 4951.61,11751.9C4951.61,11751.9 4951.23,11747 4950.06,11741.8C4949.24,11740.1 4948.46,11738.4 4947.74,11736.5L4947.37,11733.7C4946.57,11732.2 4945.64,11730.9 4944.54,11730.2C4944.54,11730.2 4937.2,11745.9 4949.69,11754.9C4949.69,11754.9 4945.27,11753.9 4941.32,11746.7C4941.32,11746.7 4939.29,11756.1 4949.03,11766.8C4949.03,11766.8 4929.14,11754.9 4920.42,11709.9C4920.42,11709.9 4916.97,11717.7 4918.35,11731C4918.35,11731 4911,11719.5 4914.44,11701.4C4915.37,11696.5 4916.08,11691.8 4916.89,11687.1C4913.99,11670.6 4909.47,11635.9 4917.98,11613.6C4925.87,11592.9 4939.79,11577.2 4958.52,11569.4C4955.11,11561.3 4949.52,11542.6 4964.78,11531.3ZM4944.37,11711.3L4944.51,11712.4C4944.46,11712 4944.42,11711.7 4944.37,11711.3Z" style="stroke:black;stroke-width:8.81px;"/>
            <g>
                <g transform="matrix(1,0,0,1,-3.67449,2.586)">
                    <path d="M5054.94,11667.2C5054.94,11667.2 5064.06,11662 5064.06,11671.4C5064.06,11680.8 5062.3,11714.6 5044.42,11704.5L5054.94,11667.2Z" style="fill:rgb(235,195,175);"/>
                </g>
                <g transform="matrix(0.873323,0,0,1,637.541,0)">
                    <path d="M4977.57,11598L5028.84,11636.6L5032.79,11688.1L5025.37,11736.5C5011.73,11767.3 4982.3,11769.9 4980.48,11770L4980.39,11770L4980.3,11770C4978.47,11769.9 4949.04,11767.3 4935.4,11736.5L4927.98,11688.1L4931.94,11636.6L4971.71,11598.9L4971.44,11593.4L4974.81,11596L4977.49,11593.4L4977.57,11598Z" style="fill:rgb(235,195,175);"/>
                </g>
                <g transform="matrix(1,0,0,1,368.863,24.5264)">
                    <path d="M4629.86,11660.9C4629.86,11660.9 4641.15,11647.7 4658.09,11650L4657.15,11644.5C4657.15,11644.5 4633.98,11644.7 4629.86,11660.9Z" style="fill:rgb(60,27,16);"/>
                </g>
                <g transform="matrix(-1,0,0,1,9605.19,24.5264)">
                    <path d="M4629.86,11660.9C4629.86,11660.9 4641.15,11647.7 4658.09,11650L4657.15,11644.5C4657.15,11644.5 4633.98,11644.7 4629.86,11660.9Z" style="fill:rgb(60,27,16);"/>
                </g>
                <g transform="matrix(0.593045,0,0,0.593045,2020.58,4703.55)">
                    <path d="M4959.7,11538.6C4959.7,11538.6 4964,11496.7 4981.23,11476.6C4998.45,11456.5 5022.85,11445.9 5065.05,11465.1C5107.25,11484.4 5115.07,11521.4 5129.07,11539.7C5143.06,11558 5138.4,11605.7 5119.02,11635.9C5119.02,11635.9 5146.65,11584.5 5117.94,11534C5117.94,11534 5122.61,11561.6 5115.79,11596C5108.97,11630.5 5102.51,11670.3 5103.59,11691.1C5103.59,11691.1 5100.86,11688.8 5098.51,11683.7C5098.51,11683.7 5091.9,11703.1 5091.31,11712.8C5090.72,11722.5 5080.88,11720.8 5080.88,11720.8C5080.88,11720.8 5075.29,11721.3 5074.41,11707.9C5074.41,11707.9 5069.12,11716.9 5071.03,11722C5071.03,11722 5064.27,11718.3 5064.27,11708.2C5064.27,11708.2 5056.62,11713.6 5057.36,11719.2C5057.36,11719.2 5055.3,11709.8 5045.01,11707.8L4987.03,11595.6L4966.53,11570.8L4962.94,11564.2L4958.53,11550L4959.7,11538.6Z" style="fill:rgb(52,28,20);"/>
                </g>
                <g transform="matrix(1,0,0,1,-0.496149,3.23996)">
                    <path d="M4975.63,11565.6C4975.63,11565.6 4976.01,11554.3 4987.52,11554.4L4987.59,11554.4C4999.03,11554.4 4999.41,11565.6 4999.41,11565.6L4987.52,11567.5L4975.63,11565.6Z" style="fill:rgb(215,215,215);"/>
                </g>
                <path d="M4972.33,11527.1L4971.78,11539.2C4971.78,11539.2 4955.41,11547 4966.53,11564.2C4977.66,11581.4 4987.03,11578.1 4987.03,11578.1L4984.27,11585.3L4960.39,11573.4C4960.39,11573.4 4941.46,11539.9 4972.33,11527.1" style="fill:rgb(215,215,215);"/>
                <g transform="matrix(-1,0,0,1,9974.55,0)">
                    <path d="M4972.33,11527.1L4971.78,11539.2C4971.78,11539.2 4955.41,11547 4966.53,11564.2C4977.66,11581.4 4987.03,11578.1 4987.03,11578.1L4984.27,11585.3L4960.39,11573.4C4960.39,11573.4 4941.46,11539.9 4972.33,11527.1" style="fill:rgb(215,215,215);"/>
                </g>
                <path d="M4918.72,11696.3C4918.72,11696.3 4906.5,11643.7 4917.98,11613.6C4929.47,11583.5 4953.73,11563.8 4987.03,11564.2C5020.32,11564.7 5061.98,11593.6 5061.98,11635.3C5061.98,11676.9 5041.83,11719.2 5041.83,11719.2L4996.81,11632.7C4986.99,11626.2 4977.12,11621.9 4966.53,11631.2L4918.72,11696.3Z" style="fill:rgb(60,27,16);"/>
                <g transform="matrix(1,0,0,1,-2.66596,-1.35214)">
                    <path d="M4980.45,11624.6C4980.45,11624.6 4979.33,11633.5 4986.88,11640C4995.05,11647.1 5016.5,11673.2 5020.87,11689.7C5025.23,11706.3 5028.8,11723 5018.22,11738.5C5018.22,11738.5 5024.25,11736.4 5026.89,11733C5026.89,11733 5028.36,11748.6 5019.25,11757.3C5019.25,11757.3 5024.69,11757.3 5027.19,11754.2C5027.19,11754.2 5027.77,11762.6 5013.37,11772.7C5013.37,11772.7 5027.59,11770.6 5033.33,11748.6C5039.07,11726.5 5053.16,11720.5 5049.49,11686.2C5045.81,11651.9 5035.29,11623.9 5005.9,11613.8C4976.5,11603.7 4980.53,11603.9 4980.45,11624.6Z" style="fill:rgb(59,22,9);"/>
                </g>
                <path d="M4975.46,11634.5C4972.7,11640.9 4967.76,11638.2 4960.58,11650.4C4953.4,11662.6 4941.2,11682.3 4944.07,11708.8C4946.95,11735.4 4954.48,11728.6 4951.61,11751.9C4951.61,11751.9 4950.19,11733.8 4944.54,11730.2C4944.54,11730.2 4937.2,11745.9 4949.69,11754.9C4949.69,11754.9 4945.27,11753.9 4941.32,11746.7C4941.32,11746.7 4939.29,11756.1 4949.03,11766.8C4949.03,11766.8 4929.14,11754.9 4920.42,11709.9C4920.42,11709.9 4916.97,11717.7 4918.35,11731C4918.35,11731 4911,11719.5 4914.44,11701.4C4917.89,11683.3 4918.35,11667.4 4932.13,11643.1C4945.91,11618.7 4977.14,11593.5 4977.14,11612.1C4977.14,11630.7 4978.22,11628.1 4975.46,11634.5Z" style="fill:rgb(59,22,9);"/>
            </g>
        </g>
    </g>
</svg>
