<?xml version="1.0" encoding="UTF-8" standalone="no"?>
<!DOCTYPE svg PUBLIC "-//W3C//DTD SVG 1.1//EN" "http://www.w3.org/Graphics/SVG/1.1/DTD/svg11.dtd">
<svg width="100%" height="100%" viewBox="0 0 206 200" version="1.1" xmlns="http://www.w3.org/2000/svg" xmlns:xlink="http://www.w3.org/1999/xlink" xml:space="preserve" xmlns:serif="http://www.serif.com/" style="fill-rule:evenodd;clip-rule:evenodd;stroke-linecap:round;stroke-linejoin:round;stroke-miterlimit:1.5;">
    <g transform="matrix(1,0,0,1,-1698.62,-13562.3)">
        <g transform="matrix(0.689965,0,0,0.689965,-1420.07,6044.3)">
            <path d="M4569.97,11131.7C4570.11,11144.9 4570.75,11154.7 4570.75,11154.7C4565.61,11149.6 4564.14,11139.1 4564.14,11139.1C4560.65,11141.5 4556.79,11144.3 4556.79,11144.3C4556.79,11118.5 4549.07,11109.2 4549.07,11109.2C4542.46,11114.7 4536.03,11122.4 4536.03,11122.4C4537.86,11113.2 4534.19,11109.3 4534.19,11109.3C4539.7,11102 4540.25,11093.5 4540.25,11093.5C4535.66,11099.2 4526.11,11100.3 4526.11,11100.3C4554.71,11073.4 4556.95,11033.1 4567.05,10987.6C4577.14,10942.2 4613.58,10901.9 4671.89,10902.2C4730.2,10902.5 4757.12,10932.1 4770.57,10969.1C4784.03,11006.2 4793.47,11060.4 4797.51,11071.8C4800.9,11081.4 4808.32,11094.1 4810.63,11098C4810.89,11098.4 4811.12,11098.8 4811.33,11099.2C4811.33,11099.2 4811.07,11098.8 4810.63,11098C4808.3,11094.7 4804.13,11093.3 4804.13,11093.3C4802.07,11097.1 4803.39,11104 4803.39,11104C4797.95,11095.9 4789.87,11094 4789.87,11094C4797.07,11115.2 4794.43,11131.3 4794.43,11131.3C4792.22,11117 4782.67,11106.5 4782.67,11106.5C4780.61,11110.3 4780.76,11136.9 4780.76,11136.9C4780.76,11136.9 4776.05,11130.3 4771.35,11135.8C4766.65,11141.4 4760.06,11154.3 4760.06,11154.3C4760.78,11151.8 4761.33,11149 4761.75,11146.1C4761.06,11143.2 4759.51,11136.5 4758.83,11132.4C4758.83,11132.4 4750.45,11148.9 4742.66,11153.9C4742.66,11153.9 4745.46,11139.6 4743.4,11134.7C4743.4,11134.7 4732.96,11146.5 4728.55,11158.1C4728.55,11158.1 4725.91,11155.7 4726.2,11150.2C4726.2,11150.2 4717.97,11160.9 4707.09,11166.3C4707.09,11166.3 4710.99,11157.7 4709.72,11153C4692.39,11169.3 4670.19,11179.5 4670.04,11179.6L4670.04,11179.6C4669.9,11179.5 4648.81,11169.8 4631.7,11154.2C4631.26,11159 4634.54,11166.3 4634.54,11166.3C4623.66,11160.9 4615.43,11150.2 4615.43,11150.2C4615.72,11155.7 4613.08,11158.1 4613.08,11158.1C4608.67,11146.5 4598.23,11134.7 4598.23,11134.7C4596.17,11139.6 4598.97,11153.9 4598.97,11153.9C4591.18,11148.9 4582.8,11132.4 4582.8,11132.4C4581.92,11137.8 4579.54,11147.5 4579.54,11147.5C4577.71,11141.6 4573.09,11135.4 4569.97,11131.7Z" style="stroke:black;stroke-width:12.08px;"/>
            <g>
                <g transform="matrix(1,0,0,1,-0.246387,-0.86121)">
                    <path d="M4671.06,11055.2L4671.31,11044.7L4769.27,11041.5L4775.51,11097.8L4774.97,11129.1C4774.97,11129.1 4765.2,11139.1 4762.33,11148.3C4762.33,11148.3 4759.96,11138.7 4759.08,11133.2C4759.08,11133.2 4750.7,11149.8 4742.91,11154.7C4742.91,11154.7 4745.7,11140.4 4743.65,11135.6C4743.65,11135.6 4733.21,11147.3 4728.8,11159C4728.8,11159 4726.15,11156.6 4726.45,11151C4726.45,11151 4718.22,11161.7 4707.34,11167.2C4707.34,11167.2 4711.9,11157 4709.55,11152.8L4673.4,11154.5L4673.4,11154.7L4671.06,11154.6L4668.72,11154.7L4668.73,11154.5L4632.58,11152.8C4630.23,11157 4634.78,11167.2 4634.78,11167.2C4623.91,11161.7 4615.68,11151 4615.68,11151C4615.97,11156.6 4613.32,11159 4613.32,11159C4608.91,11147.3 4598.48,11135.6 4598.48,11135.6C4596.42,11140.4 4599.21,11154.7 4599.21,11154.7C4591.42,11149.8 4583.05,11133.2 4583.05,11133.2C4582.16,11138.7 4579.79,11148.3 4579.79,11148.3C4576.92,11139.1 4567.16,11129.1 4567.16,11129.1L4566.61,11097.8L4572.85,11041.5L4670.82,11044.7L4671.06,11055.2Z" style="fill:rgb(44,34,28);"/>
                </g>
                <g transform="matrix(1,0,0,1,318.241,-0.472369)">
                    <path d="M4295.78,11118.1C4295.78,11118.1 4274.2,11116.5 4266.16,11097.9C4258.12,11079.3 4257.43,11063.9 4279.02,11065.8L4310.71,11088.5L4295.78,11118.1Z" style="fill:rgb(243,222,196);"/>
                </g>
                <g transform="matrix(-1,0,0,1,9023.39,-0.472369)">
                    <path d="M4295.78,11118.1C4295.78,11118.1 4274.2,11116.5 4266.16,11097.9C4258.12,11079.3 4257.43,11063.9 4279.02,11065.8L4310.71,11088.5L4295.78,11118.1Z" style="fill:rgb(243,222,196);"/>
                </g>
                <g transform="matrix(1.03386,0,0,1,-160.908,0)">
                    <path d="M4675.8,10955.9L4749.88,11015.9C4759.3,11074.2 4738.22,11116.3 4722.07,11140.1C4705.97,11163.8 4672.91,11179.5 4672.73,11179.6L4672.73,11179.6L4672.73,11179.6L4672.73,11179.6L4672.73,11179.6C4672.55,11179.5 4639.5,11163.8 4623.39,11140.1C4607.24,11116.3 4586.16,11074.2 4595.58,11015.9L4669.66,10955.9L4669.59,10950.8L4672.73,10953.4L4675.87,10950.8L4675.8,10955.9Z" style="fill:rgb(245,228,207);"/>
                </g>
                <path d="M4671.65,10985.5C4671.65,10985.5 4682.56,11014.5 4677.39,11036.6C4677.39,11036.6 4682.56,11036 4684.85,11030.5C4684.85,11030.5 4684.85,11041.7 4686.86,11047.5C4686.86,11047.5 4692.23,11040.2 4694.73,11036.3C4694.73,11036.3 4697.37,11038.3 4699.28,11043.2C4699.28,11043.2 4704.28,11029.8 4704.28,11018.8C4704.28,11018.8 4708.98,11025.8 4709.72,11037C4709.72,11037 4711.78,11034.1 4713.1,11031.9C4713.1,11031.9 4715.3,11034.9 4714.86,11038.5C4714.86,11038.5 4717.95,11031.4 4720.15,11029.5C4720.15,11029.5 4722.51,11031.3 4722.95,11035.2C4722.95,11035.2 4725.59,11025.2 4728.24,11021.3C4728.24,11021.3 4733.53,11029.5 4732.79,11038.3C4732.79,11038.3 4737.5,11036.1 4738.67,11032C4738.67,11032 4759.73,11058.6 4736.21,11086.6C4736.21,11086.6 4738.78,11089.5 4742.27,11088.4C4742.27,11088.4 4743.38,11091.5 4742.09,11097.8C4742.09,11097.8 4755.13,11079.8 4758.99,11066.4C4758.99,11066.4 4763.22,11076.8 4762.93,11095.8C4762.64,11114.7 4764.36,11139.4 4760.06,11154.3C4760.06,11154.3 4766.65,11141.4 4771.35,11135.8C4776.05,11130.3 4780.76,11136.9 4780.76,11136.9C4780.76,11136.9 4780.61,11110.3 4782.67,11106.5C4782.67,11106.5 4792.22,11117 4794.43,11131.3C4794.43,11131.3 4797.07,11115.2 4789.87,11094C4789.87,11094 4797.95,11095.9 4803.39,11104C4803.39,11104 4802.07,11097.1 4804.13,11093.3C4804.13,11093.3 4809.27,11095.1 4811.33,11099.2C4811.33,11099.2 4801.55,11083.2 4797.51,11071.8C4793.47,11060.4 4784.03,11006.2 4770.57,10969.1C4757.12,10932.1 4730.2,10902.5 4671.89,10902.2C4613.58,10901.9 4577.14,10942.2 4567.05,10987.6C4556.95,11033.1 4554.71,11073.4 4526.11,11100.3C4526.11,11100.3 4535.66,11099.2 4540.25,11093.5C4540.25,11093.5 4539.7,11102 4534.19,11109.3C4534.19,11109.3 4537.86,11113.2 4536.03,11122.4C4536.03,11122.4 4542.46,11114.7 4549.07,11109.2C4549.07,11109.2 4556.79,11118.5 4556.79,11144.3C4556.79,11144.3 4560.65,11141.5 4564.14,11139.1C4564.14,11139.1 4565.61,11149.6 4570.75,11154.7C4570.75,11154.7 4566.79,11093.6 4576.48,11072.8C4576.48,11072.8 4590.53,11078.1 4600.27,11090.6C4600.27,11090.6 4599.35,11088.1 4601.01,11082.4C4601.01,11082.4 4603.21,11086.2 4607.81,11088.2C4607.81,11088.2 4594.03,11057.9 4600.46,11027.2C4600.46,11027.2 4601.01,11028.7 4606.89,11034.2C4606.89,11034.2 4612.03,11031.6 4615.15,11037.9C4615.15,11037.9 4615.71,11013.8 4622.14,11005.2C4622.14,11005.2 4626.55,11023.2 4628.38,11034.2C4628.38,11034.2 4630.04,11030.7 4632.06,11028.7C4632.06,11028.7 4637.02,11034 4639.04,11038.4C4639.04,11038.4 4639.77,11033.7 4643.27,11031.3C4643.27,11031.3 4645.29,11035.1 4648.96,11042.1C4648.96,11042.1 4646.2,11020.3 4652.82,11012.9C4652.82,11012.9 4656.31,11038.4 4662.92,11045.1C4662.92,11045.1 4655.02,11008.5 4671.65,10985.5Z" style="fill:rgb(74,60,47);"/>
                <clipPath id="_clip1">
                    <path d="M4671.65,10985.5C4671.65,10985.5 4682.56,11014.5 4677.39,11036.6C4677.39,11036.6 4682.56,11036 4684.85,11030.5C4684.85,11030.5 4684.85,11041.7 4686.86,11047.5C4686.86,11047.5 4692.23,11040.2 4694.73,11036.3C4694.73,11036.3 4697.37,11038.3 4699.28,11043.2C4699.28,11043.2 4704.28,11029.8 4704.28,11018.8C4704.28,11018.8 4708.98,11025.8 4709.72,11037C4709.72,11037 4711.78,11034.1 4713.1,11031.9C4713.1,11031.9 4715.3,11034.9 4714.86,11038.5C4714.86,11038.5 4717.95,11031.4 4720.15,11029.5C4720.15,11029.5 4722.51,11031.3 4722.95,11035.2C4722.95,11035.2 4725.59,11025.2 4728.24,11021.3C4728.24,11021.3 4733.53,11029.5 4732.79,11038.3C4732.79,11038.3 4737.5,11036.1 4738.67,11032C4738.67,11032 4759.73,11058.6 4736.21,11086.6C4736.21,11086.6 4738.78,11089.5 4742.27,11088.4C4742.27,11088.4 4743.38,11091.5 4742.09,11097.8C4742.09,11097.8 4755.13,11079.8 4758.99,11066.4C4758.99,11066.4 4763.22,11076.8 4762.93,11095.8C4762.64,11114.7 4764.36,11139.4 4760.06,11154.3C4760.06,11154.3 4766.65,11141.4 4771.35,11135.8C4776.05,11130.3 4780.76,11136.9 4780.76,11136.9C4780.76,11136.9 4780.61,11110.3 4782.67,11106.5C4782.67,11106.5 4792.22,11117 4794.43,11131.3C4794.43,11131.3 4797.07,11115.2 4789.87,11094C4789.87,11094 4797.95,11095.9 4803.39,11104C4803.39,11104 4802.07,11097.1 4804.13,11093.3C4804.13,11093.3 4809.27,11095.1 4811.33,11099.2C4811.33,11099.2 4801.55,11083.2 4797.51,11071.8C4793.47,11060.4 4784.03,11006.2 4770.57,10969.1C4757.12,10932.1 4730.2,10902.5 4671.89,10902.2C4613.58,10901.9 4577.14,10942.2 4567.05,10987.6C4556.95,11033.1 4554.71,11073.4 4526.11,11100.3C4526.11,11100.3 4535.66,11099.2 4540.25,11093.5C4540.25,11093.5 4539.7,11102 4534.19,11109.3C4534.19,11109.3 4537.86,11113.2 4536.03,11122.4C4536.03,11122.4 4542.46,11114.7 4549.07,11109.2C4549.07,11109.2 4556.79,11118.5 4556.79,11144.3C4556.79,11144.3 4560.65,11141.5 4564.14,11139.1C4564.14,11139.1 4565.61,11149.6 4570.75,11154.7C4570.75,11154.7 4566.79,11093.6 4576.48,11072.8C4576.48,11072.8 4590.53,11078.1 4600.27,11090.6C4600.27,11090.6 4599.35,11088.1 4601.01,11082.4C4601.01,11082.4 4603.21,11086.2 4607.81,11088.2C4607.81,11088.2 4594.03,11057.9 4600.46,11027.2C4600.46,11027.2 4601.01,11028.7 4606.89,11034.2C4606.89,11034.2 4612.03,11031.6 4615.15,11037.9C4615.15,11037.9 4615.71,11013.8 4622.14,11005.2C4622.14,11005.2 4626.55,11023.2 4628.38,11034.2C4628.38,11034.2 4630.04,11030.7 4632.06,11028.7C4632.06,11028.7 4637.02,11034 4639.04,11038.4C4639.04,11038.4 4639.77,11033.7 4643.27,11031.3C4643.27,11031.3 4645.29,11035.1 4648.96,11042.1C4648.96,11042.1 4646.2,11020.3 4652.82,11012.9C4652.82,11012.9 4656.31,11038.4 4662.92,11045.1C4662.92,11045.1 4655.02,11008.5 4671.65,10985.5Z"/>
                </clipPath>
                <g clip-path="url(#_clip1)">
                    <path d="M4579.99,11080.8C4579.99,11080.8 4572.41,11054.8 4572.87,11041.7C4573.33,11028.6 4570.35,10982.7 4610.31,10949.6C4650.27,10916.6 4708.37,10919.1 4736.85,10953.5C4765.32,10988 4792.6,11046.1 4734.47,11107.1L4615.33,11104.6L4579.99,11080.8Z" style="fill:rgb(70,59,48);"/>
                </g>
                <g transform="matrix(1,0,0,1,309.981,9.11112)">
                    <path d="M4343.09,11056.7C4343.09,11056.7 4318.25,11043.3 4296.05,11040.7C4296.05,11040.7 4322.51,11036.3 4343.09,11056.7Z" style="fill:rgb(74,60,47);"/>
                </g>
                <g transform="matrix(-1,0,0,1,9027.46,9.11112)">
                    <path d="M4343.09,11056.7C4343.09,11056.7 4318.25,11043.3 4296.05,11040.7C4296.05,11040.7 4322.51,11036.3 4343.09,11056.7Z" style="fill:rgb(74,60,47);"/>
                </g>
            </g>
        </g>
    </g>
</svg>
