<?xml version="1.0" encoding="UTF-8" standalone="no"?>
<!DOCTYPE svg PUBLIC "-//W3C//DTD SVG 1.1//EN" "http://www.w3.org/Graphics/SVG/1.1/DTD/svg11.dtd">
<svg width="100%" height="100%" viewBox="0 0 277 308" version="1.1" xmlns="http://www.w3.org/2000/svg" xmlns:xlink="http://www.w3.org/1999/xlink" xml:space="preserve" xmlns:serif="http://www.serif.com/" style="fill-rule:evenodd;clip-rule:evenodd;stroke-linecap:round;stroke-linejoin:round;stroke-miterlimit:1.5;">
    <g transform="matrix(1,0,0,1,-9240.6,-13739.8)">
        <g transform="matrix(0.444811,0,0,0.444811,5901.12,13224.6)">
            <path d="M7952.7,1298.93C7951.63,1298.98 7950.55,1299.01 7949.47,1299.01C7913.14,1299.01 7883.65,1269.55 7883.65,1233.27C7883.65,1196.98 7913.14,1167.52 7949.47,1167.52C7985.79,1167.52 8015.28,1196.98 8015.28,1233.27C8015.28,1248.55 8010.05,1262.63 8001.27,1273.8C8018.75,1287.68 8048.11,1311.05 8055.59,1317.15C8066.41,1325.99 8103,1361.58 8109.49,1433.76C8114.28,1487.03 8101.44,1519.79 8094.38,1533.31C8099.07,1536.95 8102.29,1540.07 8104.17,1542.09C8108.94,1547.21 8110.53,1570.02 8109.65,1578.32C8108.77,1586.63 8116.37,1606.78 8120.08,1617.74C8123.79,1628.7 8107.97,1639.52 8107.97,1639.52C8107.94,1639.39 8107.9,1639.27 8107.86,1639.14L8107.96,1639.89C8107.96,1639.89 8129.81,1763.87 8008.59,1798.97C8008.43,1817.86 8005.23,1836.38 7998.97,1839.82C7992.72,1843.25 7974.31,1833.31 7957.05,1822.21C7951.4,1827.19 7944.01,1830.21 7935.94,1830.21C7927.87,1830.21 7920.49,1827.19 7914.83,1822.21C7897.58,1833.31 7879.16,1843.25 7872.91,1839.82C7866.66,1836.38 7863.45,1817.86 7863.3,1798.97C7742.08,1763.87 7763.92,1639.89 7763.92,1639.89L7763.96,1639.63C7762.97,1638.97 7747.51,1628.35 7751.1,1617.74C7754.81,1606.78 7762.41,1586.63 7761.53,1578.32C7760.65,1570.02 7762.24,1547.21 7767.01,1542.09C7768.69,1540.28 7771.45,1537.6 7775.37,1534.44C7773.33,1530.7 7761.18,1506.92 7753.86,1457.96C7753.86,1457.96 7715.24,1418.66 7648.16,1408.82C7644.24,1441.38 7616.46,1466.64 7582.82,1466.64C7546.49,1466.64 7517.01,1437.18 7517.01,1400.9C7517.01,1364.62 7546.49,1335.16 7582.82,1335.16C7608.81,1335.16 7631.31,1350.24 7642,1372.12C7653.5,1364.67 7698.68,1337.43 7750.56,1333.26C7810.76,1328.43 7884.37,1347.65 7935.6,1421.82L7935.6,1422.76C7935.6,1422.76 7947.98,1393.38 7957.93,1381.67C7967.87,1369.96 7960.8,1347.86 7955.72,1329.52C7953.2,1320.44 7952.63,1309.13 7952.7,1298.93Z" style="stroke:black;stroke-width:18.73px;"/>
            <g>
                <g transform="matrix(1.03379,0,0,1.00789,-262.321,-12.3441)">
                    <path d="M7933.28,1566.52L8090.73,1593.54L8096.66,1639.31C8096.66,1639.31 8125.36,1806.36 7930.27,1806.23C7735.17,1806.36 7763.87,1639.31 7763.87,1639.31L7769.81,1593.54L7927.25,1566.52L7927.28,1565.49L7930.27,1566.01L7933.26,1565.49L7933.28,1566.52Z" style="fill:rgb(164,138,227);"/>
                </g>
                <g transform="matrix(1,0,0,1,0,3.3715)">
                    <ellipse cx="7949.47" cy="1229.89" rx="65.813" ry="65.744" style="fill:rgb(193,210,227);"/>
                </g>
                <g transform="matrix(1,0,0,1,-366.649,171.005)">
                    <ellipse cx="7949.47" cy="1229.89" rx="65.813" ry="65.744" style="fill:rgb(193,210,227);"/>
                </g>
                <path d="M7935.6,1422.76C7935.6,1422.76 7947.98,1393.38 7957.93,1381.67C7967.87,1369.96 7960.8,1347.86 7955.72,1329.52C7950.63,1311.18 7953.51,1283.78 7953.51,1274.72C7953.51,1274.72 7967.87,1255.28 7987.98,1263.24C7987.98,1263.24 8044.76,1308.31 8055.59,1317.15C8066.41,1325.99 8103,1361.58 8109.49,1433.76C8115.98,1505.95 8090.09,1540.48 8090.09,1540.48L7920.03,1511.56L7925.67,1448.56L7935.6,1422.76Z" style="fill:rgb(231,88,95);"/>
                <clipPath id="_clip1">
                    <path d="M7935.6,1422.76C7935.6,1422.76 7947.98,1393.38 7957.93,1381.67C7967.87,1369.96 7960.8,1347.86 7955.72,1329.52C7950.63,1311.18 7953.51,1283.78 7953.51,1274.72C7953.51,1274.72 7967.87,1255.28 7987.98,1263.24C7987.98,1263.24 8044.76,1308.31 8055.59,1317.15C8066.41,1325.99 8103,1361.58 8109.49,1433.76C8115.98,1505.95 8090.09,1540.48 8090.09,1540.48L7920.03,1511.56L7925.67,1448.56L7935.6,1422.76Z"/>
                </clipPath>
                <g clip-path="url(#_clip1)">
                    <g transform="matrix(1,0,0,1,562.229,-26.3387)">
                        <path d="M7454.55,1328.37L7490.42,1364.81L7418.68,1364.81L7454.55,1328.37Z" style="fill:rgb(166,176,186);"/>
                    </g>
                    <g transform="matrix(1.15935,0.206123,0.169396,-0.952778,-849.593,1127.82)">
                        <path d="M7444.89,1328.37L7490.42,1364.81L7418.68,1364.81L7444.89,1328.37Z" style="fill:rgb(166,176,186);"/>
                    </g>
                    <g transform="matrix(1,0,0,1,556.295,-13.9695)">
                        <path d="M7502.07,1415.54L7542.64,1475.96L7496.36,1475.96L7502.07,1415.54Z" style="fill:rgb(166,176,186);"/>
                    </g>
                    <g transform="matrix(0.744883,-0.667196,-0.667196,-0.744883,3318.78,7209.93)">
                        <path d="M7426.8,1278.74L7451.58,1311.54L7383.4,1311.54L7426.8,1278.74Z" style="fill:rgb(166,176,186);"/>
                    </g>
                    <g transform="matrix(1.0951,0.305355,-0.268592,0.963254,255.719,-2228.56)">
                        <path d="M7453.85,1467.33L7483.09,1509.62L7424.61,1509.62L7453.85,1467.33Z" style="fill:rgb(166,176,186);"/>
                    </g>
                    <g transform="matrix(1,0,0,1,556.295,-13.9695)">
                        <path d="M7542.42,1499.71L7559.47,1549.32L7525.38,1549.32L7542.42,1499.71Z" style="fill:rgb(166,176,186);"/>
                    </g>
                    <g transform="matrix(1,0,0,1,556.295,-13.9695)">
                        <path d="M7414.41,1415.54L7431.3,1461.71L7363.73,1461.71L7414.41,1415.54Z" style="fill:rgb(166,176,186);"/>
                    </g>
                </g>
                <path d="M7775.67,1534.97C7775.67,1534.97 7761.88,1511.54 7753.86,1457.96C7753.86,1457.96 7714.44,1417.85 7646.08,1408.52C7646.08,1408.52 7632.62,1393.68 7639.18,1374C7639.18,1374 7690.36,1338.1 7750.56,1333.26C7810.76,1328.43 7884.37,1347.65 7935.6,1421.82L7935.6,1493.91L7800.05,1534.77L7775.67,1534.97Z" style="fill:rgb(73,143,207);"/>
                <clipPath id="_clip2">
                    <path d="M7775.67,1534.97C7775.67,1534.97 7761.88,1511.54 7753.86,1457.96C7753.86,1457.96 7714.44,1417.85 7646.08,1408.52C7646.08,1408.52 7632.62,1393.68 7639.18,1374C7639.18,1374 7690.36,1338.1 7750.56,1333.26C7810.76,1328.43 7884.37,1347.65 7935.6,1421.82L7935.6,1493.91L7800.05,1534.77L7775.67,1534.97Z"/>
                </clipPath>
                <g clip-path="url(#_clip2)">
                    <g transform="matrix(1,5.55112e-17,-5.55112e-17,1,556.504,-6.24025)">
                        <ellipse cx="7203.48" cy="1487.66" rx="10.219" ry="27.619" style="fill:rgb(166,176,186);"/>
                    </g>
                    <g transform="matrix(0.967039,0.254629,-0.254629,0.967039,1150.91,-1792.16)">
                        <ellipse cx="7186.64" cy="1415.34" rx="16.572" ry="27.575" style="fill:rgb(166,176,186);"/>
                    </g>
                    <g transform="matrix(0.793153,0.609022,-0.609022,0.793153,2872.16,-4081.46)">
                        <ellipse cx="7146.45" cy="1374.14" rx="16.986" ry="22.648" style="fill:rgb(166,176,186);"/>
                    </g>
                    <g transform="matrix(0.993261,0.115897,-0.115897,0.993261,762.976,-839.916)">
                        <ellipse cx="7272.26" cy="1358.68" rx="32.038" ry="11.876" style="fill:rgb(166,176,186);"/>
                    </g>
                    <g transform="matrix(0.718313,-0.69572,0.69572,0.718313,1654.95,5506.16)">
                        <ellipse cx="7348.96" cy="1410.4" rx="9.59" ry="27.819" style="fill:rgb(166,176,186);"/>
                    </g>
                    <g transform="matrix(0.632448,0.774603,-0.774603,0.632448,4329.76,-5092.11)">
                        <ellipse cx="7228.48" cy="1414.88" rx="21.957" ry="30.243" style="fill:rgb(166,176,186);"/>
                    </g>
                    <g transform="matrix(0.555214,1.1225,-0.896347,0.443353,5140.2,-7285.69)">
                        <ellipse cx="7228.48" cy="1414.88" rx="21.957" ry="30.243" style="fill:rgb(166,176,186);"/>
                    </g>
                    <g transform="matrix(0.987868,0.155293,-0.155293,0.987868,873.088,-1114.85)">
                        <ellipse cx="7249.47" cy="1507.86" rx="19.195" ry="27.106" style="fill:rgb(166,176,186);"/>
                    </g>
                </g>
                <path d="M7935.59,1493.93C7991.72,1493.29 8037.57,1504.63 8061.75,1514.69C8085.96,1524.77 8099.4,1536.96 8104.17,1542.09C8108.94,1547.21 8110.53,1570.02 8109.65,1578.32C8108.77,1586.63 8116.37,1606.78 8120.08,1617.74C8123.79,1628.7 8107.97,1639.52 8107.97,1639.52C8093.13,1587.72 7948.98,1583.81 7935.59,1583.54C7922.2,1583.81 7778.85,1587.86 7764.01,1639.66C7764.01,1639.66 7747.39,1628.7 7751.1,1617.74C7754.81,1606.78 7762.41,1586.63 7761.53,1578.32C7760.65,1570.02 7762.24,1547.21 7767.01,1542.09C7771.78,1536.96 7785.22,1524.77 7809.43,1514.69C7833.61,1504.63 7879.46,1493.29 7935.59,1493.93Z" style="fill:rgb(193,210,227);"/>
                <g transform="matrix(4.88662e-17,-0.798046,0.835206,5.11416e-17,6432.56,7775.87)">
                    <path d="M7491.24,1783.3C7491.24,1783.3 7553.06,1860.12 7544.23,1875.48C7535.4,1890.84 7447.07,1890.84 7438.24,1875.48C7429.41,1860.12 7491.24,1783.3 7491.24,1783.3Z" style="fill:rgb(204,71,72);"/>
                </g>
                <g transform="matrix(-4.88662e-17,-0.798046,-0.835206,5.11416e-17,9439.32,7775.87)">
                    <path d="M7491.24,1783.3C7491.24,1783.3 7553.06,1860.12 7544.23,1875.48C7535.4,1890.84 7447.07,1890.84 7438.24,1875.48C7429.41,1860.12 7491.24,1783.3 7491.24,1783.3Z" style="fill:rgb(204,71,72);"/>
                </g>
                <g transform="matrix(0.872445,0,0,0.872445,1473,204.497)">
                    <ellipse cx="7407.86" cy="1825.94" rx="36.941" ry="37.459" style="fill:rgb(213,70,71);"/>
                </g>
            </g>
        </g>
    </g>
</svg>
