<?xml version="1.0" encoding="UTF-8" standalone="no"?>
<!DOCTYPE svg PUBLIC "-//W3C//DTD SVG 1.1//EN" "http://www.w3.org/Graphics/SVG/1.1/DTD/svg11.dtd">
<svg width="100%" height="100%" viewBox="0 0 194 200" version="1.1" xmlns="http://www.w3.org/2000/svg" xmlns:xlink="http://www.w3.org/1999/xlink" xml:space="preserve" xmlns:serif="http://www.serif.com/" style="fill-rule:evenodd;clip-rule:evenodd;stroke-linecap:round;stroke-linejoin:round;stroke-miterlimit:1.5;">
    <g transform="matrix(1,0,0,1,-3310.64,-13160.8)">
        <g transform="matrix(0.611007,0,0,0.523282,2103.25,6707.15)">
            <path d="M2120.92,12697C2120.92,12697 2120.45,12697 2119.68,12697C2116.33,12697 2108.9,12698 2108.42,12706.4C2108.42,12706.4 2108.3,12706.3 2108.06,12706.1C2108.05,12706.2 2108.05,12706.3 2108.04,12706.4C2108.04,12706.4 2089.57,12694 2080.82,12683.3C2072.05,12672.6 2066.54,12672.2 2055.83,12664.8C2045.12,12657.3 2023.44,12637.9 2017.21,12628.9C2016.65,12628.2 2016.1,12627.3 2015.57,12626.4C2008.53,12619.5 1990.03,12601.3 1985.85,12595.6C1985.85,12595.6 1981.57,12568.8 1983.3,12548.3C1983.3,12548.3 1984.52,12542.5 1993.27,12535.9L1993.27,12463.4L1989.35,12463.4C1989.35,12463.4 1990,12444.6 1997.32,12433.3C1997.32,12433.3 2011.19,12426.3 2018.62,12418.7C2018.62,12418.7 2033.65,12381.2 2038.44,12362.3C2038.44,12362.3 2074.78,12346 2096.18,12341L2105.43,12341L2105.46,12341.6L2163.67,12341.6L2163.7,12341L2172.95,12341L2173.2,12341C2194.64,12346.2 2230.69,12362.3 2230.69,12362.3C2235.48,12381.2 2250.52,12418.7 2250.52,12418.7C2257.95,12426.3 2271.81,12433.3 2271.81,12433.3C2279.14,12444.6 2279.79,12463.4 2279.79,12463.4L2275.87,12463.4L2275.87,12535.9C2284.62,12542.5 2285.84,12548.3 2285.84,12548.3C2287.57,12568.8 2283.28,12595.6 2283.28,12595.6C2279.1,12601.3 2260.6,12619.5 2253.57,12626.4C2253.03,12627.3 2252.48,12628.2 2251.93,12628.9C2245.7,12637.9 2224.01,12657.3 2213.3,12664.8C2202.6,12672.2 2197.08,12672.6 2188.32,12683.3C2179.56,12694 2161.09,12706.4 2161.09,12706.4C2161.09,12706.3 2161.08,12706.2 2161.07,12706.1C2160.84,12706.3 2160.71,12706.4 2160.71,12706.4C2160.23,12698 2152.8,12697 2149.45,12697C2148.69,12697 2148.22,12697 2148.22,12697L2120.92,12697Z" style="stroke:black;stroke-width:14.65px;"/>
            <g>
                <rect x="2008.07" y="12441.5" width="247.401" height="165.031" style="fill:rgb(239,155,57);"/>
                <g transform="matrix(1,0,0,1,-1.13743,2.61644)">
                    <path d="M2223.99,12568.7C2223.99,12568.7 2245.99,12527.2 2239.65,12455.4L2270.28,12455.4L2268.47,12575.6L2223.99,12568.7Z" style="fill:rgb(35,40,38);"/>
                </g>
                <g transform="matrix(-1,0,0,1,4269.9,2.61644)">
                    <path d="M2223.99,12568.7C2223.99,12568.7 2245.99,12527.2 2239.65,12455.4L2270.28,12455.4L2268.47,12575.6L2223.99,12568.7Z" style="fill:rgb(35,40,38);"/>
                </g>
                <path d="M2261.07,12530.4L2261.07,12460.8L2275.87,12462.4L2275.87,12536.6L2261.07,12530.4Z" style="fill:rgb(119,137,61);"/>
                <path d="M2250.84,12629.1C2250.84,12629.1 2278.09,12602.7 2283.28,12595.6C2283.28,12595.6 2287.57,12568.8 2285.84,12548.3C2285.84,12548.3 2283.37,12536.6 2260.22,12527.4L2250.52,12534.1L2250.84,12629.1Z" style="fill:rgb(109,126,53);"/>
                <clipPath id="_clip1">
                    <path d="M2250.84,12629.1C2250.84,12629.1 2278.09,12602.7 2283.28,12595.6C2283.28,12595.6 2287.57,12568.8 2285.84,12548.3C2285.84,12548.3 2283.37,12536.6 2260.22,12527.4L2250.52,12534.1L2250.84,12629.1Z"/>
                </clipPath>
                <g clip-path="url(#_clip1)">
                    <path d="M2255.87,12612C2255.87,12612 2272.1,12599.2 2277.51,12590.6C2277.51,12590.6 2281.56,12567.6 2278.86,12550C2278.86,12550 2269.66,12537.3 2251.82,12544.6L2242.35,12591.9L2255.87,12612Z" style="fill:rgb(35,40,38);"/>
                </g>
                <g transform="matrix(1,0,0,2.08553,-1.16184,-13400.6)">
                    <rect x="2100.48" y="12343.2" width="70.121" height="23.974" style="fill:rgb(109,126,53);"/>
                </g>
                <g transform="matrix(1,-2.87712e-17,4.60393e-17,-1.97613,-1.16184,36806.4)">
                    <rect x="2100.48" y="12343.2" width="70.121" height="23.974" style="fill:rgb(104,120,49);"/>
                </g>
                <g transform="matrix(1,3.01456e-16,-4.09566e-16,2.05428,-1.16184,-12950.4)">
                    <rect x="2100.48" y="12343.2" width="70.121" height="23.974" style="fill:rgb(96,110,47);"/>
                </g>
                <g transform="matrix(1,-9.77939e-17,-4.09566e-16,-0.66642,-1.16184,20689.1)">
                    <rect x="2100.48" y="12343.2" width="70.121" height="23.974" style="fill:rgb(86,97,49);"/>
                </g>
                <g transform="matrix(-1,0,0,1,4269.13,-1.81899e-12)">
                    <path d="M2261.07,12530.4L2261.07,12460.8L2275.87,12462.4L2275.87,12536.6L2261.07,12530.4Z" style="fill:rgb(119,137,61);"/>
                </g>
                <g transform="matrix(-1,0,0,1,4269.13,0)">
                    <path d="M2250.84,12629.1C2250.84,12629.1 2278.09,12602.7 2283.28,12595.6C2283.28,12595.6 2287.57,12568.8 2285.84,12548.3C2285.84,12548.3 2283.37,12536.6 2260.22,12527.4L2250.52,12534.1L2250.84,12629.1Z" style="fill:rgb(109,126,53);"/>
                    <clipPath id="_clip2">
                        <path d="M2250.84,12629.1C2250.84,12629.1 2278.09,12602.7 2283.28,12595.6C2283.28,12595.6 2287.57,12568.8 2285.84,12548.3C2285.84,12548.3 2283.37,12536.6 2260.22,12527.4L2250.52,12534.1L2250.84,12629.1Z"/>
                    </clipPath>
                    <g clip-path="url(#_clip2)">
                        <path d="M2255.87,12612C2255.87,12612 2272.1,12599.2 2277.51,12590.6C2277.51,12590.6 2281.56,12567.6 2278.86,12550C2278.86,12550 2269.66,12537.3 2251.82,12544.6L2242.35,12591.9L2255.87,12612Z" style="fill:rgb(35,40,38);"/>
                    </g>
                </g>
                <path d="M2121.3,12697C2121.3,12697 2109.04,12695.6 2108.42,12706.4C2108.42,12706.4 2089.95,12694 2081.19,12683.3C2072.43,12672.6 2066.92,12672.2 2056.21,12664.8C2045.5,12657.3 2023.81,12637.9 2017.59,12628.9C2011.36,12620 2005.75,12605.3 2018,12593.4L2009.29,12555L2018.97,12534.1C2018.97,12534.1 2041.69,12581.2 2091.57,12594.6L2134.76,12592.9L2177.94,12594.6C2227.83,12581.2 2250.54,12534.1 2250.54,12534.1L2260.22,12555L2251.51,12593.4C2263.76,12605.3 2258.16,12620 2251.93,12628.9C2245.7,12637.9 2224.01,12657.3 2213.3,12664.8C2202.6,12672.2 2197.08,12672.6 2188.32,12683.3C2179.56,12694 2161.09,12706.4 2161.09,12706.4C2160.47,12695.6 2148.22,12697 2148.22,12697L2121.3,12697Z" style="fill:rgb(119,137,61);"/>
                <clipPath id="_clip3">
                    <path d="M2121.3,12697C2121.3,12697 2109.04,12695.6 2108.42,12706.4C2108.42,12706.4 2089.95,12694 2081.19,12683.3C2072.43,12672.6 2066.92,12672.2 2056.21,12664.8C2045.5,12657.3 2023.81,12637.9 2017.59,12628.9C2011.36,12620 2005.75,12605.3 2018,12593.4L2009.29,12555L2018.97,12534.1C2018.97,12534.1 2041.69,12581.2 2091.57,12594.6L2134.76,12592.9L2177.94,12594.6C2227.83,12581.2 2250.54,12534.1 2250.54,12534.1L2260.22,12555L2251.51,12593.4C2263.76,12605.3 2258.16,12620 2251.93,12628.9C2245.7,12637.9 2224.01,12657.3 2213.3,12664.8C2202.6,12672.2 2197.08,12672.6 2188.32,12683.3C2179.56,12694 2161.09,12706.4 2161.09,12706.4C2160.47,12695.6 2148.22,12697 2148.22,12697L2121.3,12697Z"/>
                </clipPath>
                <g clip-path="url(#_clip3)">
                    <g transform="matrix(1.05364,0,0,1,-112.671,1.58431)">
                        <rect x="2099.14" y="12600.6" width="67.748" height="124.335" style="fill:rgb(104,120,52);"/>
                    </g>
                </g>
                <g transform="matrix(-1,0,0,1,4269.13,0)">
                    <path d="M2121.3,12697C2121.3,12697 2109.04,12695.6 2108.42,12706.4C2108.42,12706.4 2089.95,12694 2081.19,12683.3C2072.43,12672.6 2066.92,12672.2 2056.21,12664.8C2045.5,12657.3 2023.81,12637.9 2017.59,12628.9C2011.36,12620 2005.75,12605.3 2018,12593.4L2009.29,12555L2018.97,12534.1C2018.97,12534.1 2041.69,12581.2 2091.57,12594.6L2134.76,12592.9L2177.94,12594.6C2227.83,12581.2 2250.54,12534.1 2250.54,12534.1L2260.22,12555L2251.51,12593.4C2263.76,12605.3 2258.16,12620 2251.93,12628.9C2245.7,12637.9 2224.01,12657.3 2213.3,12664.8C2202.6,12672.2 2197.08,12672.6 2188.32,12683.3C2179.56,12694 2161.09,12706.4 2161.09,12706.4C2160.47,12695.6 2148.22,12697 2148.22,12697L2121.3,12697Z" style="fill:rgb(119,137,61);"/>
                    <clipPath id="_clip4">
                        <path d="M2121.3,12697C2121.3,12697 2109.04,12695.6 2108.42,12706.4C2108.42,12706.4 2089.95,12694 2081.19,12683.3C2072.43,12672.6 2066.92,12672.2 2056.21,12664.8C2045.5,12657.3 2023.81,12637.9 2017.59,12628.9C2011.36,12620 2005.75,12605.3 2018,12593.4L2009.29,12555L2018.97,12534.1C2018.97,12534.1 2041.69,12581.2 2091.57,12594.6L2134.76,12592.9L2177.94,12594.6C2227.83,12581.2 2250.54,12534.1 2250.54,12534.1L2260.22,12555L2251.51,12593.4C2263.76,12605.3 2258.16,12620 2251.93,12628.9C2245.7,12637.9 2224.01,12657.3 2213.3,12664.8C2202.6,12672.2 2197.08,12672.6 2188.32,12683.3C2179.56,12694 2161.09,12706.4 2161.09,12706.4C2160.47,12695.6 2148.22,12697 2148.22,12697L2121.3,12697Z"/>
                    </clipPath>
                    <g clip-path="url(#_clip4)">
                        <g transform="matrix(1.05364,0,0,1,-112.671,1.58431)">
                            <rect x="2099.14" y="12600.6" width="67.748" height="124.335" style="fill:rgb(104,120,52);"/>
                        </g>
                    </g>
                </g>
                <path d="M2249.99,12600C2249.99,12600 2255.76,12606.2 2252.59,12621.5C2252.59,12621.5 2230.82,12652.1 2216.83,12652.1C2216.83,12652.1 2212.07,12637.8 2220.29,12626.3C2220.29,12626.3 2228.36,12628.7 2249.99,12600Z" style="fill:rgb(35,40,38);"/>
                <path d="M2172.95,12341L2163.7,12341L2162.47,12366.4L2164.13,12366.8L2163.55,12406.2L2165.86,12406.6L2165.72,12463.4L2192.68,12463.4L2199.72,12389.2L2172.95,12341Z" style="fill:rgb(113,128,66);"/>
                <path d="M2187.88,12463.4L2279.79,12463.4C2279.79,12463.4 2279.14,12444.6 2271.81,12433.3C2271.81,12433.3 2257.95,12426.3 2250.52,12418.7C2250.52,12418.7 2235.48,12381.2 2230.69,12362.3C2230.69,12362.3 2194.36,12346 2172.95,12341L2173.52,12366.7C2173.52,12366.7 2181.97,12388.4 2182.81,12399.7C2182.81,12399.7 2187.88,12425.9 2187.32,12438.3L2187.88,12463.4Z" style="fill:rgb(109,126,53);"/>
                <g transform="matrix(1,0,0,1,2.36433,2.24999)">
                    <path d="M2158.97,12574.6L2177.66,12593.3L2153.52,12618L2111.26,12618L2087.12,12593.3L2105.81,12574.6L2158.97,12574.6Z" style="fill:rgb(35,40,38);"/>
                </g>
                <g transform="matrix(-1,0,0,1,4269.13,0)">
                    <path d="M2249.99,12600C2249.99,12600 2255.76,12606.2 2252.59,12621.5C2252.59,12621.5 2230.82,12652.1 2216.83,12652.1C2216.83,12652.1 2212.07,12637.8 2220.29,12626.3C2220.29,12626.3 2228.36,12628.7 2249.99,12600Z" style="fill:rgb(35,40,38);"/>
                </g>
                <g transform="matrix(-1,0,0,1,4269.13,0)">
                    <path d="M2172.95,12341L2163.7,12341L2162.47,12366.4L2164.13,12366.8L2163.55,12406.2L2165.86,12406.6L2165.72,12463.4L2192.68,12463.4L2199.72,12389.2L2172.95,12341Z" style="fill:rgb(113,128,66);"/>
                </g>
                <g transform="matrix(-1,0,0,1,4269.13,0)">
                    <path d="M2187.88,12463.4L2279.79,12463.4C2279.79,12463.4 2279.14,12444.6 2271.81,12433.3C2271.81,12433.3 2257.95,12426.3 2250.52,12418.7C2250.52,12418.7 2235.48,12381.2 2230.69,12362.3C2230.69,12362.3 2194.36,12346 2172.95,12341L2173.52,12366.7C2173.52,12366.7 2181.97,12388.4 2182.81,12399.7C2182.81,12399.7 2187.88,12425.9 2187.32,12438.3L2187.88,12463.4Z" style="fill:rgb(109,126,53);"/>
                </g>
            </g>
        </g>
    </g>
</svg>
