<?xml version="1.0" encoding="UTF-8" standalone="no"?>
<!DOCTYPE svg PUBLIC "-//W3C//DTD SVG 1.1//EN" "http://www.w3.org/Graphics/SVG/1.1/DTD/svg11.dtd">
<svg width="100%" height="100%" viewBox="0 0 163 206" version="1.1" xmlns="http://www.w3.org/2000/svg" xmlns:xlink="http://www.w3.org/1999/xlink" xml:space="preserve" xmlns:serif="http://www.serif.com/" style="fill-rule:evenodd;clip-rule:evenodd;stroke-linecap:round;stroke-linejoin:round;stroke-miterlimit:1.5;">
    <g transform="matrix(1,0,0,1,-1117.49072,-13155.990814)">
        <g transform="matrix(0.368797,0,0,0.368797,627.603779,10311.088076)">
            <g transform="matrix(1,0,0,1,595.292764,188.101379)">
                <path d="M762.351,7811.61C763.29,7786.459 769.19,7766.823 776.97,7747.983C787.799,7721.762 799.075,7686.155 835.464,7661.587C835.355,7659.512 835.3,7657.424 835.3,7655.322C835.3,7590.135 888.295,7537.212 953.569,7537.212C1018.844,7537.212 1071.839,7590.135 1071.839,7655.322C1071.839,7657.441 1071.783,7659.546 1071.673,7661.637C1108.213,7686.173 1119.316,7721.704 1130.168,7747.983C1137.949,7766.823 1143.849,7786.459 1144.788,7811.61C1151.646,7814.581 1156.933,7820.298 1159.279,7830.041C1167.788,7865.389 1164.58,7952.197 1106.824,7972.289C1059.712,8073.041 955.885,8071.454 955.885,8071.454L951.254,8071.454C951.254,8071.454 847.427,8073.041 800.315,7972.289C742.559,7952.197 739.35,7865.389 747.86,7830.041C750.206,7820.298 755.493,7814.581 762.351,7811.61Z" style="stroke:black;stroke-width:22.6px;"/>
            </g>
            <g>
                <g transform="matrix(1,0,0,1,595.292764,188.101379)">
                    <path d="M833.645,7826.676C833.645,7826.676 758.794,7784.625 747.86,7830.041C736.927,7875.456 745.337,8005.816 863.922,7970.492L833.645,7826.676Z" style="fill:rgb(240,197,169);"/>
                </g>
                <g transform="matrix(-1,0,0,1,2502.431586,188.101379)">
                    <path d="M833.645,7826.676C833.645,7826.676 758.794,7784.625 747.86,7830.041C736.927,7875.456 745.337,8005.816 863.922,7970.492L833.645,7826.676Z" style="fill:rgb(240,197,169);"/>
                </g>
                <g transform="matrix(1,0,0,1.03906,-12.756102,-209.469651)">
                    <ellipse cx="1561.618" cy="7750.174" rx="118.27" ry="113.67" style="fill:rgb(138,138,138);"/>
                </g>
                <g transform="matrix(1,0,0,0.847522,510.531003,1362.14361)">
                    <path d="M1040.647,8138.329L1036.016,8138.329C1036.016,8138.329 922.181,8140.382 878.816,8003.715C835.45,7867.047 843.335,7809.226 861.732,7756.662C879.98,7704.525 899.5,7620.936 1038.331,7621.231C1177.726,7621.527 1196.682,7704.525 1214.93,7756.662C1233.328,7809.226 1241.212,7867.047 1197.847,8003.715C1154.481,8140.382 1040.647,8138.329 1040.647,8138.329Z" style="fill:rgb(247,204,175);"/>
                    <clipPath id="_clip1">
                        <path d="M1040.647,8138.329L1036.016,8138.329C1036.016,8138.329 922.181,8140.382 878.816,8003.715C835.45,7867.047 843.335,7809.226 861.732,7756.662C879.98,7704.525 899.5,7620.936 1038.331,7621.231C1177.726,7621.527 1196.682,7704.525 1214.93,7756.662C1233.328,7809.226 1241.212,7867.047 1197.847,8003.715C1154.481,8140.382 1040.647,8138.329 1040.647,8138.329Z"/>
                    </clipPath>
                    <g clip-path="url(#_clip1)">
                        <g transform="matrix(1.081476,0,0,1.040139,-635.304716,-477.739875)">
                            <path d="M1547.548,7691.284L1775.963,7812.182L1791.697,8050.824L1716.174,8080.818C1716.174,8080.818 1720.76,7847.926 1547.548,7846.874C1374.336,7847.926 1378.922,8080.818 1378.922,8080.818L1303.399,8050.824L1319.133,7812.182L1547.548,7691.284Z" style="fill:rgb(144,150,153);"/>
                        </g>
                    </g>
                </g>
                <g transform="matrix(0.633129,0,0,0.633129,853.103382,3068.971972)">
                    <path d="M1060.323,7862.972C1060.323,7862.972 1051.576,7790.98 927.104,7788.289C927.104,7788.289 1003.133,7805.109 1060.323,7862.972Z" style="fill:rgb(138,138,138);"/>
                </g>
                <g transform="matrix(-0.633129,0,0,0.633129,2244.620969,3068.971972)">
                    <path d="M1060.323,7862.972C1060.323,7862.972 1051.576,7790.98 927.104,7788.289C927.104,7788.289 1003.133,7805.109 1060.323,7862.972Z" style="fill:rgb(138,138,138);"/>
                </g>
                <g transform="matrix(0.934516,0,0,0.911471,519.532412,866.870864)">
                    <path d="M1089.345,7948.191C1084.985,7986.785 1052.962,8016.788 1014.159,8016.788C972.383,8016.788 938.466,7982.014 938.466,7939.181C938.466,7896.349 972.383,7861.575 1014.159,7861.575C1055.326,7861.575 1088.862,7895.344 1089.83,7937.316C1095.425,7935.926 1104.263,7934.669 1113.087,7937.243C1114.092,7895.305 1147.613,7861.575 1188.757,7861.575C1230.532,7861.575 1264.449,7896.349 1264.449,7939.181C1264.449,7982.014 1230.532,8016.788 1188.757,8016.788C1150.24,8016.788 1118.405,7987.228 1113.671,7949.048C1109.539,7946.917 1101.735,7944.753 1089.345,7948.191Z" style="fill:rgb(178,93,187);"/>
                    <clipPath id="_clip2">
                        <path d="M1089.345,7948.191C1084.985,7986.785 1052.962,8016.788 1014.159,8016.788C972.383,8016.788 938.466,7982.014 938.466,7939.181C938.466,7896.349 972.383,7861.575 1014.159,7861.575C1055.326,7861.575 1088.862,7895.344 1089.83,7937.316C1095.425,7935.926 1104.263,7934.669 1113.087,7937.243C1114.092,7895.305 1147.613,7861.575 1188.757,7861.575C1230.532,7861.575 1264.449,7896.349 1264.449,7939.181C1264.449,7982.014 1230.532,8016.788 1188.757,8016.788C1150.24,8016.788 1118.405,7987.228 1113.671,7949.048C1109.539,7946.917 1101.735,7944.753 1089.345,7948.191Z"/>
                    </clipPath>
                    <g clip-path="url(#_clip2)">
                        <g transform="matrix(0.883878,0,0,0.883878,117.766408,921.915913)">
                            <ellipse cx="1014.159" cy="7939.181" rx="75.693" ry="77.606" style="fill:rgb(198,116,182);"/>
                        </g>
                        <g transform="matrix(0.883878,0,0,0.883878,292.364391,921.915913)">
                            <ellipse cx="1014.159" cy="7939.181" rx="75.693" ry="77.606" style="fill:rgb(198,116,182);"/>
                        </g>
                    </g>
                </g>
            </g>
        </g>
    </g>
</svg>
