<?xml version="1.0" encoding="UTF-8" standalone="no"?>
<!DOCTYPE svg PUBLIC "-//W3C//DTD SVG 1.1//EN" "http://www.w3.org/Graphics/SVG/1.1/DTD/svg11.dtd">
<svg width="100%" height="100%" viewBox="0 0 154 228" version="1.1" xmlns="http://www.w3.org/2000/svg" xmlns:xlink="http://www.w3.org/1999/xlink" xml:space="preserve" xmlns:serif="http://www.serif.com/" style="fill-rule:evenodd;clip-rule:evenodd;stroke-linecap:round;stroke-linejoin:round;stroke-miterlimit:1.5;">
    <g transform="matrix(1,0,0,1,-7746.82,-13441.3)">
        <g transform="matrix(0.724575,0,0,0.724575,2384.38,4946.02)">
            <path d="M7458.34,12000.6C7427.47,11983.4 7406.57,11950.5 7406.57,11912.7L7406.57,11830.8C7406.57,11775.3 7451.58,11730.3 7507.03,11730.3C7562.49,11730.3 7607.5,11775.3 7607.5,11830.8L7607.5,11912.7C7607.5,11951.8 7585.05,11985.8 7552.32,12002.4L7536.4,12023.9L7530.82,12019L7521.51,12028.3L7514.69,12023.3L7506,12032.2L7497.31,12023.3L7490.49,12028.3L7481.18,12019L7475.6,12023.9L7458.34,12000.6Z" style="stroke:black;stroke-width:11.5px;"/>
            <g>
                <g transform="matrix(1.07466,0,0,1.02147,-558.284,-236.401)">
                    <path d="M7598.48,11813.5C7598.48,11759.2 7556.58,11715.1 7504.99,11715.1C7453.39,11715.1 7411.5,11759.2 7411.5,11813.5L7411.5,11893.7C7411.5,11948 7453.39,11992.1 7504.99,11992.1C7556.58,11992.1 7598.48,11948 7598.48,11893.7L7598.48,11813.5Z" style="fill:rgb(219,91,44);"/>
                    <clipPath id="_clip1">
                        <path d="M7598.48,11813.5C7598.48,11759.2 7556.58,11715.1 7504.99,11715.1C7453.39,11715.1 7411.5,11759.2 7411.5,11813.5L7411.5,11893.7C7411.5,11948 7453.39,11992.1 7504.99,11992.1C7556.58,11992.1 7598.48,11948 7598.48,11893.7L7598.48,11813.5Z"/>
                    </clipPath>
                    <g clip-path="url(#_clip1)">
                        <g transform="matrix(0.930526,0,0,0.978979,519.498,231.432)">
                            <path d="M7389.93,12009.9L7391.74,11928.2L7411.38,11926.1L7426.27,11926.1C7426.27,11926.1 7419.14,11980.3 7454.92,11980.8L7470.21,11984.2C7470.21,11984.2 7479.97,11984.8 7482.95,11977.2L7506,11976.9L7529.05,11977.2C7532.03,11984.8 7541.79,11984.2 7541.79,11984.2L7557.08,11980.8C7592.86,11980.3 7585.73,11926.1 7585.73,11926.1L7600.62,11926.1L7620.26,11928.2L7622.07,12009.9L7389.93,12009.9Z" style="fill:rgb(202,84,38);"/>
                        </g>
                    </g>
                </g>
                <path d="M7497.31,12023.3L7490.49,12028.3L7481.18,12019L7475.6,12023.9L7454.5,11995.4L7460.91,11991.7L7467.12,11998.9L7479.53,11988.6L7492.97,11998.1L7506,11987.5L7519.03,11998.1L7532.47,11988.6L7544.88,11998.9L7551.09,11991.7L7557.5,11995.4L7536.4,12023.9L7530.82,12019L7521.51,12028.3L7514.69,12023.3L7506,12032.2L7497.31,12023.3Z" style="fill:rgb(22,22,22);"/>
                <path d="M7505.97,11942C7504.64,11941.8 7462.11,11936.9 7472.08,12008C7472.08,12008 7454.92,12001.6 7454.92,11974.7C7454.92,11947.8 7475.6,11928.8 7506,11928.2L7506.36,11928.2C7536.56,11928.9 7557.08,11947.9 7557.08,11974.7C7557.08,12001.6 7539.92,12008 7539.92,12008C7550.05,11935.8 7506,11942 7506,11942L7505.97,11942Z" style="fill:rgb(26,26,26);"/>
                <g transform="matrix(1,0,0,1,-0.242967,0.403946)">
                    <path d="M7488.04,11882L7490.85,11874.4C7490.85,11874.4 7452.76,11851.8 7423.64,11879.1L7432.57,11889.3C7432.57,11889.3 7447.87,11867.9 7488.04,11882Z" style="fill:rgb(26,26,26);"/>
                </g>
                <g transform="matrix(-1,0,0,1,15012.2,0.403946)">
                    <path d="M7488.04,11882L7490.85,11874.4C7490.85,11874.4 7452.76,11851.8 7423.64,11879.1L7432.57,11889.3C7432.57,11889.3 7447.87,11867.9 7488.04,11882Z" style="fill:rgb(26,26,26);"/>
                </g>
            </g>
        </g>
    </g>
</svg>
