<?xml version="1.0" encoding="UTF-8" standalone="no"?>
<!DOCTYPE svg PUBLIC "-//W3C//DTD SVG 1.1//EN" "http://www.w3.org/Graphics/SVG/1.1/DTD/svg11.dtd">
<svg width="100%" height="100%" viewBox="0 0 159 200" version="1.1" xmlns="http://www.w3.org/2000/svg" xmlns:xlink="http://www.w3.org/1999/xlink" xml:space="preserve" xmlns:serif="http://www.serif.com/" style="fill-rule:evenodd;clip-rule:evenodd;stroke-linecap:round;stroke-linejoin:round;stroke-miterlimit:1.5;">
    <g transform="matrix(1,0,0,1,-115.522,-13240.8)">
        <g transform="matrix(0.296509,0,0,0.296509,-1348.57,10324.7)">
            <path d="M5012.78,10098.3C4951,10071.6 4951.82,10014.2 4951.82,10014.2C4967.46,10002.6 4992.98,9967.27 5049.68,9907.22C5096.87,9857.25 5176.15,9850.02 5201.42,9849L5201.42,9848.84C5201.42,9848.84 5202.83,9848.82 5205.42,9848.88C5208,9848.82 5209.42,9848.84 5209.42,9848.84L5209.41,9849C5234.69,9850.02 5313.96,9857.25 5361.15,9907.22C5417.86,9967.27 5443.37,10002.6 5459.01,10014.2C5459.01,10014.2 5459.84,10071.6 5398.05,10098.3C5399.27,10102.9 5402.63,10119.1 5394.42,10132.4C5394.42,10132.4 5393.54,10132.2 5391.85,10131.7L5392.1,10133.2C5405.35,10137.6 5419.06,10160.9 5405.77,10214.6C5392.07,10270 5383.83,10291.1 5363.66,10298.1C5362.74,10305.8 5362.09,10313.8 5361.86,10321.9C5360.23,10380.3 5322.39,10417.4 5279.62,10468.4C5247.69,10506.5 5218.05,10492.3 5205.06,10482.7C5192.07,10492.3 5162.43,10506.5 5130.5,10468.4C5087.73,10417.4 5049.89,10380.3 5048.26,10321.9C5048.03,10313.8 5047.38,10305.8 5046.46,10298.1C5026.29,10291.1 5018.05,10270 5004.35,10214.6C4990.93,10160.4 5005.03,10137.2 5018.4,10133.1L5018.61,10131.8C5017.16,10132.2 5016.41,10132.4 5016.41,10132.4C5008.21,10119.1 5011.56,10102.9 5012.78,10098.3Z" style="stroke:black;stroke-width:28.1px;"/>
            <g>
                <path d="M5197.82,10223L5024.23,10157.3L5017.94,10135.9L5019.84,10124.3L5205.42,10084.3L5197.82,10223Z" style="fill:rgb(115,88,67);"/>
                <g transform="matrix(-1,0,0,1,10410.5,0)">
                    <path d="M5197.82,10223L5024.23,10157.3L5017.94,10135.9L5019.84,10124.3L5205.42,10084.3L5197.82,10223Z" style="fill:rgb(115,88,67);"/>
                </g>
                <g transform="matrix(1,0,0,1,-0.785282,-0.525989)">
                    <path d="M5360.2,10154.6C5360.2,10154.6 5374.41,10132.4 5388.63,10133C5402.85,10133.5 5421.29,10155.6 5406.56,10215.1C5391.83,10274.6 5383.41,10294.6 5359.71,10299.9L5360.2,10154.6Z" style="fill:rgb(243,201,146);"/>
                </g>
                <g transform="matrix(-1,0,0,1,10410.9,-0.525989)">
                    <path d="M5360.2,10154.6C5360.2,10154.6 5374.41,10132.4 5388.63,10133C5402.85,10133.5 5421.29,10155.6 5406.56,10215.1C5391.83,10274.6 5383.41,10294.6 5359.71,10299.9L5360.2,10154.6Z" style="fill:rgb(243,201,146);"/>
                </g>
                <path d="M5203.86,10029.4L5206.26,10029.4L5322.28,10022C5322.28,10022 5357.69,10133.1 5372.51,10173.4C5387.34,10213.7 5363.49,10263.5 5361.86,10321.9C5360.23,10380.3 5322.39,10417.4 5279.62,10468.4C5247.69,10506.5 5218.05,10492.3 5205.06,10482.7C5192.07,10492.3 5162.43,10506.5 5130.5,10468.4C5087.73,10417.4 5049.89,10380.3 5048.26,10321.9C5046.63,10263.5 5022.78,10213.7 5037.61,10173.4C5052.43,10133.1 5087.84,10022 5087.84,10022L5203.86,10029.4Z" style="fill:rgb(250,204,144);"/>
                <g transform="matrix(1,0,0,1,2.22024,4.6074)">
                    <path d="M5203.2,9844.27C5205.78,9844.22 5207.2,9844.24 5207.2,9844.24L5207.19,9844.4C5232.47,9845.41 5311.74,9852.64 5358.93,9902.61C5415.63,9962.66 5441.15,9998.04 5456.79,10009.6C5456.79,10009.6 5457.63,10068 5394.28,10094.3L5203.2,10075.7L5012.11,10094.3C4948.76,10068 4949.6,10009.6 4949.6,10009.6C4965.24,9998.04 4990.76,9962.66 5047.46,9902.61C5094.65,9852.64 5173.92,9845.41 5199.2,9844.4L5199.2,9844.24C5199.2,9844.24 5200.61,9844.22 5203.2,9844.27Z" style="fill:rgb(170,40,38);"/>
                    <clipPath id="_clip1">
                        <path d="M5203.2,9844.27C5205.78,9844.22 5207.2,9844.24 5207.2,9844.24L5207.19,9844.4C5232.47,9845.41 5311.74,9852.64 5358.93,9902.61C5415.63,9962.66 5441.15,9998.04 5456.79,10009.6C5456.79,10009.6 5457.63,10068 5394.28,10094.3L5203.2,10075.7L5012.11,10094.3C4948.76,10068 4949.6,10009.6 4949.6,10009.6C4965.24,9998.04 4990.76,9962.66 5047.46,9902.61C5094.65,9852.64 5173.92,9845.41 5199.2,9844.4L5199.2,9844.24C5199.2,9844.24 5200.61,9844.22 5203.2,9844.27Z"/>
                    </clipPath>
                    <g clip-path="url(#_clip1)">
                        <g transform="matrix(1,0,0,1,-1.97232,8.55798)">
                            <path d="M5032.74,10095.4L5026.15,10081.2C5026.15,10081.2 5039.75,9973.44 5205.42,10034.5L5206.39,10034.2C5371.14,9973.88 5384.68,10081.2 5384.68,10081.2L5378.1,10095.4L5205.42,10106.5L5032.74,10095.4Z" style="fill:rgb(15,62,150);"/>
                        </g>
                    </g>
                </g>
                <g transform="matrix(1,0,0,1,-1.42502,0.000470582)">
                    <path d="M5238.85,9994.06C5238.85,9994.06 5245.86,9996.21 5246.66,9987.58C5247.47,9978.95 5253.94,9970.86 5268.23,9971.67C5282.52,9972.47 5327.54,9963.29 5345.34,9951.16C5345.34,9951.16 5357.47,9950.61 5343.99,9966.93C5330.52,9983.25 5309.49,10017.6 5294.94,10024C5280.38,10030.4 5259.08,10035.8 5236.43,10034.2L5226.18,10024L5238.85,9994.06Z" style="fill:rgb(143,105,37);"/>
                </g>
                <g transform="matrix(-1,0,0,1,10412.3,0.000470582)">
                    <path d="M5238.85,9994.06C5238.85,9994.06 5245.86,9996.21 5246.66,9987.58C5247.47,9978.95 5253.94,9970.86 5268.23,9971.67C5282.52,9972.47 5327.54,9963.29 5345.34,9951.16C5345.34,9951.16 5357.47,9950.61 5343.99,9966.93C5330.52,9983.25 5309.49,10017.6 5294.94,10024C5280.38,10030.4 5259.08,10035.8 5236.43,10034.2L5226.18,10024L5238.85,9994.06Z" style="fill:rgb(143,105,37);"/>
                </g>
                <path d="M5177.45,10029.6C5171.11,10022.9 5167.23,10014 5167.23,10004.2C5167.23,9983.64 5184.34,9966.93 5205.42,9966.93C5226.49,9966.93 5243.6,9983.64 5243.6,10004.2C5243.6,10014 5239.72,10022.9 5233.38,10029.6C5239.72,10032.7 5243.6,10036.9 5243.6,10041.5C5243.6,10051.2 5226.49,10059 5205.42,10059C5184.34,10059 5167.23,10051.2 5167.23,10041.5C5167.23,10036.9 5171.11,10032.7 5177.45,10029.6Z" style="fill:rgb(158,113,32);"/>
                <path d="M5204.74,10179.1C5090.23,10180.5 5037.69,10118.5 5037.69,10118.5L5056.64,10086L5205.42,10084.3L5354.19,10086L5373.14,10118.5C5373.14,10118.5 5320.39,10180.8 5205.42,10179.1L5204.74,10179.1Z" style="fill:rgb(44,44,44);"/>
                <path d="M5204.27,10107.3C5106.81,10105.8 5016.41,10132.4 5016.41,10132.4C5006.73,10116.7 5013.16,10097 5013.16,10097C5083.2,10067 5205.42,10065.4 5205.42,10065.4L5205.77,10065.4C5212.99,10065.6 5329.82,10067.9 5397.68,10097C5397.68,10097 5404.11,10116.7 5394.42,10132.4C5394.42,10132.4 5303.31,10105.6 5205.42,10107.3L5204.27,10107.3Z" style="fill:rgb(36,45,86);"/>
            </g>
        </g>
    </g>
</svg>
