<?xml version="1.0" encoding="UTF-8" standalone="no"?>
<!DOCTYPE svg PUBLIC "-//W3C//DTD SVG 1.1//EN" "http://www.w3.org/Graphics/SVG/1.1/DTD/svg11.dtd">
<svg width="100%" height="100%" viewBox="0 0 202 193" version="1.1" xmlns="http://www.w3.org/2000/svg" xmlns:xlink="http://www.w3.org/1999/xlink" xml:space="preserve" xmlns:serif="http://www.serif.com/" style="fill-rule:evenodd;clip-rule:evenodd;stroke-linecap:round;stroke-linejoin:round;stroke-miterlimit:1.5;">
    <g transform="matrix(1,0,0,1,-9129.52,-13646.1)">
        <g transform="matrix(0.534107,0,0,0.534107,4287.26,12762.2)">
            <path d="M9157.09,1916.98C9092.39,1735.65 9093.78,1662.62 9093.78,1662.62C9202.75,1733.93 9254.51,1815.71 9254.51,1815.71L9254.66,1815.48C9257.79,1810.62 9309.66,1731.7 9415.23,1662.62C9415.23,1662.62 9416.62,1735.65 9351.93,1916.98L9377.92,1838.97C9399.32,1852.09 9456.64,1896.97 9427.73,1988.53C9427.73,1988.53 9409.2,1964.54 9375.46,1961.88C9383.34,1978.06 9390.85,1995.16 9393.74,2006.74C9393.74,2006.74 9355.59,1993.55 9316.5,1977.93C9303.4,1995.25 9280.52,2006.74 9254.51,2006.74C9228.45,2006.74 9205.54,1995.22 9192.45,1977.85C9153.36,1993.48 9115.27,2006.74 9115.27,2006.74C9118.16,1995.17 9125.66,1978.09 9133.52,1961.93C9100.18,1964.83 9081.87,1988.53 9081.87,1988.53C9053.18,1897.67 9109.41,1852.78 9131.19,1839.28L9157.09,1916.98Z" style="stroke:black;stroke-width:15.6px;"/>
            <g>
                <g transform="matrix(1.23379,0,0,1.23379,-2159.91,-469.16)">
                    <ellipse cx="9251.49" cy="1956.08" rx="59.658" ry="50.656" style="fill:rgb(238,255,224);"/>
                </g>
                <g transform="matrix(0.979164,0.203073,-0.203073,0.979164,1299.38,-1584.06)">
                    <path d="M8370.83,1755.52C8370.83,1755.52 8288.73,1815.73 8345.83,1917.72C8345.83,1917.72 8362.39,1883.73 8403.8,1878.5L8418.62,1806.58L8370.83,1755.52Z" style="fill:rgb(238,255,224);"/>
                </g>
                <g transform="matrix(-0.979164,0.203073,0.203073,0.979164,17210.2,-1584.06)">
                    <path d="M8370.83,1755.52C8370.83,1755.52 8288.73,1815.73 8345.83,1917.72C8345.83,1917.72 8362.39,1883.73 8403.8,1878.5L8418.62,1806.58L8370.83,1755.52Z" style="fill:rgb(238,255,224);"/>
                </g>
                <path d="M9254.51,1950.25C9210.69,1973.53 9115.27,2006.74 9115.27,2006.74C9122.35,1978.4 9157.09,1916.98 9157.09,1916.98C9092.39,1735.65 9093.78,1662.62 9093.78,1662.62C9202.75,1733.93 9254.51,1815.71 9254.51,1815.71L9254.66,1815.48C9257.79,1810.62 9309.66,1731.7 9415.23,1662.62C9415.23,1662.62 9416.62,1735.65 9351.93,1916.98C9351.93,1916.98 9386.66,1978.4 9393.74,2006.74C9393.74,2006.74 9298.09,1973.68 9254.51,1950.25Z" style="fill:rgb(44,69,57);"/>
                <g transform="matrix(0.995596,0.0937425,-0.0937425,0.995596,986.6,-675.619)">
                    <path d="M8478.29,1847.68C8478.29,1847.68 8472.43,1844.11 8470.01,1840.54C8470.01,1840.54 8476.29,1836.68 8486,1839.11C8486,1839.11 8481.58,1844.96 8478.29,1847.68Z" style="fill:rgb(217,81,130);"/>
                </g>
                <g transform="matrix(1.19972,0,0,1.19972,-1849.67,-359.057)">
                    <path d="M9255.65,1828.54L9275.18,1866.76L9255.65,1892.7L9236.13,1866.76L9255.65,1828.54Z" style="fill:rgb(42,132,76);"/>
                </g>
                <g transform="matrix(1,0,0,1,765.949,98.3487)">
                    <path d="M8416.42,1820.95C8416.42,1820.95 8427.7,1783.71 8439.41,1769.71C8439.41,1769.71 8445.27,1792.5 8450.69,1822.98C8450.69,1822.98 8435.84,1819.99 8416.42,1820.95Z" style="fill:rgb(42,132,76);"/>
                </g>
                <g transform="matrix(1,0,0,1,765.949,98.3487)">
                    <path d="M8424.99,1834.77C8424.99,1834.77 8424.84,1849.04 8426.99,1856.89L8441.7,1838.04C8441.7,1838.04 8431.7,1840.22 8424.99,1834.77Z" style="fill:rgb(42,132,76);"/>
                </g>
                <g transform="matrix(-1,0,0,1,17743.1,98.3487)">
                    <path d="M8416.42,1820.95C8416.42,1820.95 8427.7,1783.71 8439.41,1769.71C8439.41,1769.71 8445.27,1792.5 8450.69,1822.98C8450.69,1822.98 8435.84,1819.99 8416.42,1820.95Z" style="fill:rgb(42,132,76);"/>
                </g>
                <g transform="matrix(-1,0,0,1,17743.1,98.3487)">
                    <path d="M8424.99,1834.77C8424.99,1834.77 8424.84,1849.04 8426.99,1856.89L8441.7,1838.04C8441.7,1838.04 8431.7,1840.22 8424.99,1834.77Z" style="fill:rgb(42,132,76);"/>
                </g>
            </g>
        </g>
    </g>
</svg>
