<?xml version="1.0" encoding="UTF-8" standalone="no"?>
<!DOCTYPE svg PUBLIC "-//W3C//DTD SVG 1.1//EN" "http://www.w3.org/Graphics/SVG/1.1/DTD/svg11.dtd">
<svg width="100%" height="100%" viewBox="0 0 222 236" version="1.1" xmlns="http://www.w3.org/2000/svg" xmlns:xlink="http://www.w3.org/1999/xlink" xml:space="preserve" xmlns:serif="http://www.serif.com/" style="fill-rule:evenodd;clip-rule:evenodd;stroke-linecap:round;stroke-linejoin:round;stroke-miterlimit:1.5;">
    <g transform="matrix(1,0,0,1,-3096.13,-13546.3)">
        <g transform="matrix(0.284009,0,0,0.288592,2178.7,10581.4)">
            <path d="M3689.42,10467.6C3671.19,10428.5 3670.07,10385.5 3690.39,10349.9C3727.54,10284.8 3822.38,10268.8 3902.06,10314.3C3981.74,10359.7 4016.26,10449.5 3979.12,10514.6C3951.02,10563.9 3889.92,10585 3827.34,10572.7C3833.66,10585 3839.29,10598.6 3844,10613.7C3897.66,10785.6 3872.89,10845.5 3833.64,10878C3794.39,10910.5 3782.06,10957 3753.35,10969.6C3736.61,10977 3718.8,10979 3706.86,10979.4C3697.93,10983 3674.13,10994 3668,11010.8C3660.97,11030.1 3642.46,11071.2 3621.96,11074.6L3621.96,11074.6C3621.14,11074.8 3620.33,11074.8 3619.51,11074.8C3618.69,11074.8 3617.87,11074.8 3617.05,11074.6L3617.06,11074.6C3596.56,11071.2 3578.05,11030.1 3571.02,11010.8C3564.89,10994 3541.09,10983 3532.16,10979.4C3520.22,10979 3502.41,10977 3485.67,10969.6C3456.96,10957 3444.63,10910.5 3405.38,10878C3366.13,10845.5 3341.36,10785.6 3395.02,10613.7C3399.73,10598.6 3405.36,10585 3411.68,10572.7C3349.1,10585 3288,10563.9 3259.9,10514.6C3222.76,10449.5 3257.28,10359.7 3336.96,10314.3C3416.63,10268.8 3511.48,10284.8 3548.63,10349.9C3568.95,10385.5 3567.83,10428.5 3549.6,10467.6C3588.94,10458.8 3619.51,10462.6 3619.51,10462.6C3619.51,10462.6 3650.08,10458.8 3689.42,10467.6Z" style="stroke:black;stroke-width:29.11px;"/>
            <g>
                <path d="M3596.44,11048.8L3591.53,11020.8L3563.57,10993.4L3532.59,10974.5L3477.47,10944.9L3454.8,10920.2L3448.19,10898.7L3619.51,10910.2L3790.83,10898.7L3784.22,10920.2L3761.54,10944.9L3706.43,10974.5L3675.45,10993.4L3647.48,11020.8L3642.58,11048.8L3619.51,11068.4L3596.44,11048.8Z" style="fill:rgb(59,56,50);"/>
                <g transform="matrix(1,0,0,1,0.701953,-0.560697)">
                    <path d="M3627.63,10694.9L3844.88,10758L3863.27,10781.3L3853.4,10838.2L3827.83,10870.1L3783.87,10912.3C3757.41,10924.4 3715.69,10933.3 3684.74,10961.1C3656.34,10986.7 3623.95,10986.9 3618.81,10986.7C3613.67,10986.9 3581.27,10986.7 3552.87,10961.1C3521.92,10933.3 3480.21,10924.4 3453.74,10912.3L3409.78,10870.1L3384.22,10838.2L3374.35,10781.3L3392.74,10758L3609.98,10694.9L3609.84,10689.7L3618.81,10692.3L3627.78,10689.7L3627.63,10694.9Z" style="fill:rgb(231,176,133);"/>
                    <clipPath id="_clip1">
                        <path d="M3627.63,10694.9L3844.88,10758L3863.27,10781.3L3853.4,10838.2L3827.83,10870.1L3783.87,10912.3C3757.41,10924.4 3715.69,10933.3 3684.74,10961.1C3656.34,10986.7 3623.95,10986.9 3618.81,10986.7C3613.67,10986.9 3581.27,10986.7 3552.87,10961.1C3521.92,10933.3 3480.21,10924.4 3453.74,10912.3L3409.78,10870.1L3384.22,10838.2L3374.35,10781.3L3392.74,10758L3609.98,10694.9L3609.84,10689.7L3618.81,10692.3L3627.78,10689.7L3627.63,10694.9Z"/>
                    </clipPath>
                    <g clip-path="url(#_clip1)">
                        <g transform="matrix(0.978113,0,0,1,70.2672,3.36412)">
                            <path d="M3627.95,10689.3L3719.9,10679.4L3858.5,10758.6C3858.5,10758.6 3817.68,10785.5 3800.64,10798C3800.64,10798 3804.22,10769.3 3810.95,10749.6L3673.7,10705.9C3673.7,10705.9 3652.78,10756.1 3628.23,10757.4L3627.95,10757.4C3603.28,10756.5 3582.19,10705.9 3582.19,10705.9L3444.94,10749.6C3451.67,10769.3 3455.26,10798 3455.26,10798C3438.21,10785.5 3397.39,10758.6 3397.39,10758.6L3535.99,10679.4L3627.95,10689.3Z" style="fill:rgb(37,35,31);"/>
                        </g>
                    </g>
                </g>
                <g transform="matrix(0.787033,-0.449054,0.449054,0.787033,-3899.36,3782.23)">
                    <ellipse cx="3363.88" cy="10368.8" rx="183.427" ry="149.89" style="fill:rgb(62,61,57);"/>
                </g>
                <g transform="matrix(-0.787033,-0.449054,-0.449054,0.787033,11138.4,3782.23)">
                    <ellipse cx="3363.88" cy="10368.8" rx="183.427" ry="149.89" style="fill:rgb(62,61,57);"/>
                </g>
                <path d="M3619.51,10462.6C3619.51,10462.6 3790.34,10441.8 3844,10613.7C3897.66,10785.6 3872.89,10845.5 3833.64,10878C3794.39,10910.5 3782.06,10957 3753.35,10969.6C3724.64,10982.3 3692.79,10979.1 3692.79,10979.1C3692.79,10979.1 3708.49,10960.3 3725.54,10953.6C3742.58,10946.8 3768.51,10918.5 3789.54,10898.8C3810.57,10879.2 3863.83,10840 3851.22,10791.6C3838.6,10743.2 3762.21,10790.2 3723.66,10762.2C3685.11,10734.1 3670.45,10726.6 3619.01,10726.3L3619.01,10726.3L3619.01,10726.3C3567.84,10726.5 3553.91,10734.1 3515.36,10762.2C3476.81,10790.2 3400.42,10743.2 3387.8,10791.6C3375.19,10840 3428.45,10879.2 3449.48,10898.8C3470.5,10918.5 3496.43,10946.8 3513.48,10953.6C3530.53,10960.3 3546.22,10979.1 3546.22,10979.1C3546.22,10979.1 3514.38,10982.3 3485.67,10969.6C3456.96,10957 3444.63,10910.5 3405.38,10878C3366.13,10845.5 3341.36,10785.6 3395.02,10613.7C3448.68,10441.8 3619.51,10462.6 3619.51,10462.6Z" style="fill:rgb(67,65,61);"/>
                <clipPath id="_clip2">
                    <path d="M3619.51,10462.6C3619.51,10462.6 3790.34,10441.8 3844,10613.7C3897.66,10785.6 3872.89,10845.5 3833.64,10878C3794.39,10910.5 3782.06,10957 3753.35,10969.6C3724.64,10982.3 3692.79,10979.1 3692.79,10979.1C3692.79,10979.1 3708.49,10960.3 3725.54,10953.6C3742.58,10946.8 3768.51,10918.5 3789.54,10898.8C3810.57,10879.2 3863.83,10840 3851.22,10791.6C3838.6,10743.2 3762.21,10790.2 3723.66,10762.2C3685.11,10734.1 3670.45,10726.6 3619.01,10726.3L3619.01,10726.3L3619.01,10726.3C3567.84,10726.5 3553.91,10734.1 3515.36,10762.2C3476.81,10790.2 3400.42,10743.2 3387.8,10791.6C3375.19,10840 3428.45,10879.2 3449.48,10898.8C3470.5,10918.5 3496.43,10946.8 3513.48,10953.6C3530.53,10960.3 3546.22,10979.1 3546.22,10979.1C3546.22,10979.1 3514.38,10982.3 3485.67,10969.6C3456.96,10957 3444.63,10910.5 3405.38,10878C3366.13,10845.5 3341.36,10785.6 3395.02,10613.7C3448.68,10441.8 3619.51,10462.6 3619.51,10462.6Z"/>
                </clipPath>
                <g clip-path="url(#_clip2)">
                    <g transform="matrix(1.06399,0,0,1,-239.573,1.12137)">
                        <rect x="3574.43" y="10454.4" width="105.153" height="280.342" style="fill:rgb(62,61,57);"/>
                    </g>
                    <g transform="matrix(0.724098,0,0,1,993.2,1.12137)">
                        <rect x="3574.43" y="10454.4" width="105.153" height="280.342" style="fill:rgb(59,56,50);"/>
                    </g>
                </g>
                <g transform="matrix(1.00687,0,0,1,-30.7296,-3.59993)">
                    <path d="M3627.42,11061.2C3629.12,11060.3 3631.26,11058.2 3633.67,11053.7C3639.77,11042.2 3659.51,11001.6 3675.65,10992.7C3691.8,10983.7 3688.21,10979.4 3715.49,10981.7C3715.49,10981.7 3681.04,10993.6 3673.5,11014.4C3666.52,11033.7 3648.14,11074.8 3627.78,11078.2L3627.78,11078.2C3626.97,11078.4 3626.16,11078.4 3625.34,11078.4C3624.53,11078.4 3623.72,11078.4 3622.91,11078.2L3622.91,11078.2C3602.55,11074.8 3584.17,11033.7 3577.18,11014.4C3569.65,10993.6 3535.2,10981.7 3535.2,10981.7C3562.47,10979.4 3558.88,10983.7 3575.03,10992.7C3591.18,11001.6 3610.92,11042.2 3617.02,11053.7C3619.43,11058.2 3621.57,11060.3 3623.26,11061.2L3623.26,11061.2C3623.26,11061.2 3623.34,11061.3 3623.49,11061.4C3624.19,11061.7 3624.81,11061.8 3625.34,11061.9C3625.87,11061.8 3626.49,11061.7 3627.2,11061.4C3627.35,11061.3 3627.42,11061.2 3627.42,11061.2L3627.42,11061.2Z" style="fill:rgb(133,131,130);"/>
                </g>
                <g transform="matrix(1,0,0,1,-12.0218,1.34564)">
                    <ellipse cx="3631.53" cy="10846.9" rx="45.079" ry="53.826" style="fill:rgb(37,35,31);"/>
                </g>
            </g>
        </g>
    </g>
</svg>
