<?xml version="1.0" encoding="UTF-8" standalone="no"?>
<!DOCTYPE svg PUBLIC "-//W3C//DTD SVG 1.1//EN" "http://www.w3.org/Graphics/SVG/1.1/DTD/svg11.dtd">
<svg width="100%" height="100%" viewBox="0 0 201 201" version="1.1" xmlns="http://www.w3.org/2000/svg" xmlns:xlink="http://www.w3.org/1999/xlink" xml:space="preserve" xmlns:serif="http://www.serif.com/" style="fill-rule:evenodd;clip-rule:evenodd;stroke-linecap:round;stroke-linejoin:round;stroke-miterlimit:1.5;">
    <g transform="matrix(1,0,0,1,-5917.97,-13160.5)">
        <g transform="matrix(1.04815,0,0,1.04982,-290.654,-669.692)">
            <g transform="matrix(0.396937,0,0,0.349969,5022.8,8984.16)">
                <ellipse cx="2509.68" cy="12244.6" rx="230.706" ry="261.668" style="stroke:black;stroke-width:21.23px;"/>
            </g>
            <g transform="matrix(0.568418,0,0,0.568418,4167.71,6228.14)">
                <g transform="matrix(0.698319,0,0,0.615689,1504.34,4848.57)">
                    <ellipse cx="2509.68" cy="12244.6" rx="230.706" ry="261.668" style="fill:rgb(210,210,210);"/>
                    <clipPath id="_clip1">
                        <ellipse cx="2509.68" cy="12244.6" rx="230.706" ry="261.668"/>
                    </clipPath>
                    <g clip-path="url(#_clip1)">
                        <g transform="matrix(1.0017,0,0,1.13613,-134.901,-1821.79)">
                            <path d="M2669.76,12129.7L2595.9,12188.8L2661.18,12233.5L2595.9,12270.6L2669.76,12310.1L2606.6,12338.1L2669.76,12366.1L2616.46,12401.6L2655.11,12429.1L2623.28,12465.1L2650.57,12491.5L2609.64,12528.6L2661.18,12542.7L2626.31,12572.4L2669.76,12601.9L2627.83,12619.3L2386.84,12594.1L2360.19,12243.3L2426.81,12041.9L2640.1,12052.3L2669.76,12129.7Z" style="fill:rgb(155,57,47);"/>
                        </g>
                    </g>
                </g>
                <g transform="matrix(1,0,0,1,616.794,-39.7932)">
                    <path d="M2581.28,12447.3L2582.25,12448.4C2582.25,12448.4 2627.04,12413.3 2640.02,12433.4L2640.1,12433.5C2652.98,12413.2 2697.95,12448.4 2697.95,12448.4L2698.93,12447.3C2715.65,12486.8 2685.95,12543.2 2678.07,12556.4C2669.51,12570.8 2649.2,12572.4 2640.1,12572.4C2631.01,12572.4 2610.69,12570.8 2602.13,12556.4C2594.25,12543.2 2564.55,12486.8 2581.28,12447.3Z" style="fill:rgb(206,166,131);"/>
                </g>
                <g transform="matrix(1,0,0,1,3.07081,-12.6636)">
                    <rect x="3317.07" y="12472.7" width="2.255" height="30.202" style="fill:rgb(175,156,94);"/>
                </g>
                <g transform="matrix(1,0,0,1,-7.35503,-4.71573)">
                    <ellipse cx="3328.75" cy="12501" rx="8.001" ry="8.072" style="fill:rgb(217,188,88);"/>
                </g>
                <g transform="matrix(1,0,0,1,-125.929,-12.6636)">
                    <rect x="3317.07" y="12472.7" width="2.255" height="30.202" style="fill:rgb(175,156,94);"/>
                </g>
                <g transform="matrix(1,0,0,1,-136.355,-4.71573)">
                    <ellipse cx="3328.75" cy="12501" rx="8.001" ry="8.072" style="fill:rgb(217,188,88);"/>
                </g>
                <g transform="matrix(1,0,0,1,-6.42436,0)">
                    <path d="M3208.37,12439.8C3208.37,12439.8 3183.53,12430.4 3190.24,12457.2C3196.94,12484 3212.69,12488.8 3212.69,12488.8L3208.37,12439.8Z" style="fill:rgb(206,166,131);"/>
                </g>
                <g transform="matrix(-1,0,0,1,6520.21,0)">
                    <path d="M3208.37,12439.8C3208.37,12439.8 3183.53,12430.4 3190.24,12457.2C3196.94,12484 3212.69,12488.8 3212.69,12488.8L3208.37,12439.8Z" style="fill:rgb(206,166,131);"/>
                </g>
                <g transform="matrix(1,0,0,0.877256,620.514,1499.66)">
                    <path d="M2698.52,12517.6C2698.52,12517.6 2693.99,12530.5 2688.03,12525.7C2682.07,12520.9 2676.82,12508.3 2684.21,12498.5C2691.6,12488.7 2690.17,12465.6 2683.97,12448.9C2677.77,12432.2 2704.95,12381.9 2704.95,12381.9C2704.95,12381.9 2714.73,12466.8 2698.52,12517.6Z" style="fill:rgb(210,210,210);"/>
                </g>
                <g transform="matrix(-1,0,0,0.877256,5893.27,1499.66)">
                    <path d="M2698.52,12517.6C2698.52,12517.6 2693.99,12530.5 2688.03,12525.7C2682.07,12520.9 2676.82,12508.3 2684.21,12498.5C2691.6,12488.7 2690.17,12465.6 2683.97,12448.9C2677.77,12432.2 2704.95,12381.9 2704.95,12381.9C2704.95,12381.9 2714.73,12466.8 2698.52,12517.6Z" style="fill:rgb(155,57,47);"/>
                </g>
                <g transform="matrix(0.910638,0,0,0.910638,868.042,1078.52)">
                    <path d="M2655.04,12460C2655.04,12460 2641.75,12459.2 2633.03,12465.4C2624.3,12471.7 2624.7,12485.7 2640.71,12491.6C2656.73,12497.5 2674.44,12493.5 2678.47,12482.1C2682.51,12470.6 2681.47,12461 2655.04,12460Z" style="fill:rgb(140,137,99);"/>
                </g>
                <g transform="matrix(0.816951,0,0,0.816951,1116.67,2247.46)">
                    <path d="M2655.04,12460C2655.04,12460 2641.75,12459.2 2633.03,12465.4C2624.3,12471.7 2624.7,12485.7 2640.71,12491.6C2656.73,12497.5 2674.44,12493.5 2678.47,12482.1C2682.51,12470.6 2681.47,12461 2655.04,12460Z" style="fill:rgb(126,141,157);"/>
                </g>
                <g transform="matrix(-0.910638,0,0,0.910638,5645.75,1078.52)">
                    <path d="M2655.04,12460C2655.04,12460 2641.75,12459.2 2633.03,12465.4C2624.3,12471.7 2624.7,12485.7 2640.71,12491.6C2656.73,12497.5 2674.44,12493.5 2678.47,12482.1C2682.51,12470.6 2681.47,12461 2655.04,12460Z" style="fill:rgb(140,137,99);"/>
                </g>
                <g transform="matrix(-0.816951,0,0,0.816951,5397.12,2247.46)">
                    <path d="M2655.04,12460C2655.04,12460 2641.75,12459.2 2633.03,12465.4C2624.3,12471.7 2624.7,12485.7 2640.71,12491.6C2656.73,12497.5 2674.44,12493.5 2678.47,12482.1C2682.51,12470.6 2681.47,12461 2655.04,12460Z" style="fill:rgb(126,141,157);"/>
                </g>
                <g transform="matrix(0.816951,0,0,0.816951,1116.67,2247.46)">
                    <path d="M2612.2,12469.5C2612.2,12469.5 2619.91,12465 2627.34,12469.7L2626.02,12471.6C2626.02,12471.6 2619.32,12467.8 2612.2,12472L2612.2,12469.5Z" style="fill:rgb(140,137,99);"/>
                </g>
            </g>
        </g>
    </g>
</svg>
