<?xml version="1.0" encoding="UTF-8" standalone="no"?>
<!DOCTYPE svg PUBLIC "-//W3C//DTD SVG 1.1//EN" "http://www.w3.org/Graphics/SVG/1.1/DTD/svg11.dtd">
<svg width="100%" height="100%" viewBox="0 0 193 200" version="1.1" xmlns="http://www.w3.org/2000/svg" xmlns:xlink="http://www.w3.org/1999/xlink" xml:space="preserve" xmlns:serif="http://www.serif.com/" style="fill-rule:evenodd;clip-rule:evenodd;stroke-linecap:round;stroke-linejoin:round;stroke-miterlimit:1.5;">
    <g transform="matrix(1,0,0,1,-7736.47,-13241.4)">
        <g transform="matrix(0.951109,0,0,0.951109,193.036,1083.6)">
            <path d="M8066.65,12797.4L8076.09,12787.2L8085.49,12808.4C8091.22,12806.8 8097.62,12808.1 8102.3,12812.5C8106.98,12816.8 8108.8,12823 8107.66,12828.9L8129.62,12836.5L8116.07,12851.2C8120.45,12862.5 8122.86,12874.8 8122.86,12887.6C8122.86,12943 8077.87,12988 8022.47,12988C7986.63,12988 7953.52,12968.9 7935.57,12937.8L8022.47,12887.6L7935.57,12837.3C7953.52,12806.3 7986.63,12787.2 8022.47,12787.2C8038.32,12787.2 8053.32,12790.9 8066.65,12797.4Z" style="stroke:black;stroke-width:8.76px;"/>
            <g>
                <g transform="matrix(-1,0,0,1,15443.1,14.6427)">
                    <path d="M7507.49,12822.6C7489.55,12791.6 7456.43,12772.5 7420.6,12772.5C7365.19,12772.5 7320.21,12817.5 7320.21,12872.9C7320.21,12928.3 7365.19,12973.3 7420.6,12973.3C7456.43,12973.3 7489.55,12954.2 7507.49,12923.2L7420.6,12872.9L7507.49,12822.6Z" style="fill:rgb(249,220,81);"/>
                    <clipPath id="_clip1">
                        <path d="M7507.49,12822.6C7489.55,12791.6 7456.43,12772.5 7420.6,12772.5C7365.19,12772.5 7320.21,12817.5 7320.21,12872.9C7320.21,12928.3 7365.19,12973.3 7420.6,12973.3C7456.43,12973.3 7489.55,12954.2 7507.49,12923.2L7420.6,12872.9L7507.49,12822.6Z"/>
                    </clipPath>
                    <g clip-path="url(#_clip1)">
                        <g transform="matrix(0.956564,-0.291521,0.291521,0.956564,-3674.14,2788.95)">
                            <path d="M7759.96,12862C7759.96,12862 7754.45,12853.9 7763.99,12855C7763.99,12855 7764.51,12850.7 7772.27,12853.1L7774.05,12860.1L7763.38,12862L7759.96,12862" style="fill:rgb(250,28,33);"/>
                        </g>
                        <g transform="matrix(-1,0,0,1,15443.1,-14.6427)">
                            <path d="M7933.55,12939C7933.55,12939 7944.87,12946.3 7941.75,12932.5L7933.55,12939Z" style="fill:rgb(250,28,33);"/>
                        </g>
                    </g>
                </g>
                <g transform="matrix(0.735185,0.677866,-0.677866,0.735185,11033.4,-1878.1)">
                    <path d="M7818.41,12795.6L7839.74,12786.3L7839.74,12823.6L7818.41,12814.3C7815.28,12819.4 7809.7,12822.7 7803.33,12822.7C7796.96,12822.7 7791.38,12819.4 7788.25,12814.3L7766.92,12823.6L7766.92,12786.3L7788.25,12795.6C7791.38,12790.5 7796.96,12787.2 7803.33,12787.2C7809.7,12787.2 7815.28,12790.5 7818.41,12795.6Z" style="fill:rgb(250,28,33);"/>
                </g>
                <g transform="matrix(0.719747,0,0,1.10079,2264.64,-1302.69)">
                    <ellipse cx="8088.9" cy="12929.9" rx="8.205" ry="5.365" style="fill:rgb(35,35,35);"/>
                </g>
            </g>
        </g>
    </g>
</svg>
