<?xml version="1.0" encoding="UTF-8" standalone="no"?>
<!DOCTYPE svg PUBLIC "-//W3C//DTD SVG 1.1//EN" "http://www.w3.org/Graphics/SVG/1.1/DTD/svg11.dtd">
<svg width="100%" height="100%" viewBox="0 0 149 201" version="1.1" xmlns="http://www.w3.org/2000/svg" xmlns:xlink="http://www.w3.org/1999/xlink" xml:space="preserve" xmlns:serif="http://www.serif.com/" style="fill-rule:evenodd;clip-rule:evenodd;stroke-linecap:round;stroke-linejoin:round;stroke-miterlimit:1.5;">
    <g transform="matrix(1,0,0,1,-5139.12,-13763.6)">
        <g transform="matrix(1,0,0,1,0,-80)">
            <g transform="matrix(2.09485,0,0,2.09485,-2211.84,-11406.9)">
                <g transform="matrix(0.477361,0,0,0.477361,1055.85,5483.4)">
                    <path d="M5161.99,13854.2C5166.02,13837.6 5182.24,13778.9 5212.7,13767.9C5212.7,13767.9 5213.03,13767.7 5213.19,13767.7C5213.35,13767.7 5213.68,13767.9 5213.68,13767.9C5244.15,13778.9 5260.37,13837.6 5264.4,13854.2C5272.32,13854.3 5279.61,13855.9 5279.61,13855.9C5285.07,13864 5282.49,13873 5282.49,13873C5275.38,13872.5 5270.19,13872.7 5266.42,13873.3C5265.79,13885.3 5263.89,13900.4 5261.47,13916.5C5258.04,13939.4 5229.29,13960.3 5213.19,13960.3C5197.1,13960.3 5168.35,13939.4 5164.92,13916.5C5162.49,13900.4 5160.6,13885.3 5159.97,13873.3C5156.19,13872.7 5151.01,13872.5 5143.9,13873C5143.9,13873 5141.32,13864 5146.78,13855.9C5146.78,13855.9 5154.06,13854.3 5161.99,13854.2Z" style="stroke:black;stroke-width:8.33px;"/>
                </g>
                <g>
                    <g transform="matrix(0.922824,0,0,0.922824,385.644,967.369)">
                        <path d="M3423.2,12015.6C3441.61,12022.3 3449.96,12062.6 3449.96,12062.6L3423.85,12072.2L3422.05,12072.2L3395.94,12062.6C3395.94,12062.6 3404.29,12022.3 3422.69,12015.6C3422.69,12015.6 3422.87,12015.5 3422.95,12015.5C3423.03,12015.5 3423.2,12015.6 3423.2,12015.6Z" style="fill:rgb(215,215,215);"/>
                        <clipPath id="_clip1">
                            <path d="M3423.2,12015.6C3441.61,12022.3 3449.96,12062.6 3449.96,12062.6L3423.85,12072.2L3422.05,12072.2L3395.94,12062.6C3395.94,12062.6 3404.29,12022.3 3422.69,12015.6C3422.69,12015.6 3422.87,12015.5 3422.95,12015.5C3423.03,12015.5 3423.2,12015.6 3423.2,12015.6Z"/>
                        </clipPath>
                        <g clip-path="url(#_clip1)">
                            <g transform="matrix(1,0,0,1,-77.4022,-8.4382)">
                                <path d="M3506,12068.4L3506,12016.3L3494.7,12016.3L3494.7,12068.4L3470.53,12062.3L3470.53,12080.7L3533.34,12080.7L3533.34,12062.3L3506,12068.4Z" style="fill:rgb(180,166,32);"/>
                            </g>
                        </g>
                    </g>
                    <g transform="matrix(1.34538,0,0,1.47116,-1050.89,-5666.35)">
                        <path d="M3415.61,12078.2L3434.52,12076.2C3434.8,12080.4 3433.96,12087.1 3432.74,12094.5C3431.52,12102 3421.32,12108.7 3415.61,12108.7C3409.9,12108.7 3399.7,12102 3398.48,12094.5C3397.26,12087.1 3396.42,12080.4 3396.7,12076.2L3415.61,12078.2Z" style="fill:rgb(32,32,32);"/>
                        <clipPath id="_clip2">
                            <path d="M3415.61,12078.2L3434.52,12076.2C3434.8,12080.4 3433.96,12087.1 3432.74,12094.5C3431.52,12102 3421.32,12108.7 3415.61,12108.7C3409.9,12108.7 3399.7,12102 3398.48,12094.5C3397.26,12087.1 3396.42,12080.4 3396.7,12076.2L3415.61,12078.2Z"/>
                        </clipPath>
                        <g clip-path="url(#_clip2)">
                            <g transform="matrix(0.743282,0,0,0.679737,781.105,3851.63)">
                                <path d="M3525.46,12115.9C3525.46,12115.9 3521.81,12115.2 3518.91,12117.4L3516.33,12104.3L3522.21,12103.1L3525.46,12107L3525.46,12115.9Z" style="fill:rgb(215,215,215);"/>
                            </g>
                            <g transform="matrix(-0.743282,0,0,0.679737,6050.11,3851.63)">
                                <path d="M3525.46,12115.9C3525.46,12115.9 3521.81,12115.2 3518.91,12117.4L3516.33,12104.3L3522.21,12103.1L3525.46,12107L3525.46,12115.9Z" style="fill:rgb(215,215,215);"/>
                            </g>
                        </g>
                    </g>
                    <g transform="matrix(1,0,0,1,128.812,35.7813)">
                        <path d="M3415.61,12087.7L3434.52,12080.2C3434.8,12084.4 3433.96,12087.1 3432.74,12094.5C3431.52,12102 3421.76,12105.9 3419.14,12108.1C3417.28,12109.7 3416.12,12110 3415.61,12110C3415.09,12110 3413.94,12109.7 3412.08,12108.1C3409.45,12105.9 3399.7,12102 3398.48,12094.5C3397.26,12087.1 3396.42,12084.4 3396.7,12080.2L3415.61,12087.7Z" style="fill:rgb(216,158,121);"/>
                    </g>
                    <g transform="matrix(0.809509,0,0,0.809509,782.339,2337.19)">
                        <path d="M3412.98,12089.2C3412.98,12089.2 3429.51,12083.4 3432.99,12081.6C3436.47,12079.7 3438.24,12078.2 3438,12075C3437.76,12071.9 3434.95,12066.2 3452.91,12067.4C3452.91,12067.4 3454.43,12062.1 3451.21,12057.3C3451.21,12057.3 3435.67,12054 3431.56,12059.7C3427.45,12065.4 3432.45,12072.5 3424.95,12074.8C3417.45,12077 3415.12,12077.8 3415.12,12077.8L3412.98,12089.2Z" style="fill:rgb(141,141,141);"/>
                    </g>
                    <g transform="matrix(-0.809509,0,0,0.809509,6306.51,2337.19)">
                        <path d="M3412.98,12089.2C3412.98,12089.2 3429.51,12083.4 3432.99,12081.6C3436.47,12079.7 3438.24,12078.2 3438,12075C3437.76,12071.9 3434.95,12066.2 3452.91,12067.4C3452.91,12067.4 3454.43,12062.1 3451.21,12057.3C3451.21,12057.3 3435.67,12054 3431.56,12059.7C3427.45,12065.4 3432.45,12072.5 3424.95,12074.8C3417.45,12077 3415.12,12077.8 3415.12,12077.8L3412.98,12089.2Z" style="fill:rgb(141,141,141);"/>
                    </g>
                </g>
            </g>
        </g>
    </g>
</svg>
