<?xml version="1.0" encoding="UTF-8" standalone="no"?>
<!DOCTYPE svg PUBLIC "-//W3C//DTD SVG 1.1//EN" "http://www.w3.org/Graphics/SVG/1.1/DTD/svg11.dtd">
<svg width="100%" height="100%" viewBox="0 0 340 197" version="1.1" xmlns="http://www.w3.org/2000/svg" xmlns:xlink="http://www.w3.org/1999/xlink" xml:space="preserve" xmlns:serif="http://www.serif.com/" style="fill-rule:evenodd;clip-rule:evenodd;stroke-linecap:round;stroke-linejoin:round;stroke-miterlimit:1.5;">
    <g transform="matrix(1,0,0,1,-225.841,-13570.4)">
        <g transform="matrix(1.16506,0,0,1.16506,-3102.78,-606.531)">
            <path d="M2979.24,12281.9L2961.77,12296.8C2944.06,12318 2918.47,12333.3 2918.47,12333.3C2934.77,12310.3 2946.22,12287.7 2945.54,12281.6C2944.86,12275.5 2953.24,12264.2 2953.24,12264.2C2950.91,12261.1 2951.91,12254 2951.91,12254C2943.44,12265 2926.67,12284.1 2926.67,12284.1C2925.84,12289.2 2921.69,12296.6 2921.69,12296.6C2918.37,12278.8 2928.15,12269.1 2928.15,12269.1C2922.05,12271.8 2915.71,12273.4 2915.7,12273.4C2910.29,12284.4 2906.9,12292.2 2906.9,12292.2C2897.2,12295 2873.43,12294.5 2873.43,12294.5C2868.12,12297.2 2860.61,12301 2860.61,12301C2864.94,12294.8 2873.43,12288.8 2873.43,12288.8C2892.16,12288.2 2907.69,12281.3 2907.69,12281.3C2908.35,12280.4 2909.72,12278 2911.43,12274.8C2904.31,12278.5 2893.2,12281.4 2893.2,12281.4C2899.98,12277.9 2916.55,12264.9 2916.59,12264.9C2921.35,12255.4 2926.07,12245.1 2925.63,12243.6C2924.83,12240.8 2926.29,12232.6 2927.09,12229.7C2927.89,12226.8 2928.15,12217.4 2928.15,12217.4C2917.39,12219.1 2909.82,12221.1 2899.46,12225.8C2889.1,12230.4 2884.45,12228.4 2884.45,12228.4C2891.36,12228.7 2911.01,12218.2 2914.73,12214.2C2918.45,12210.2 2931.74,12212.5 2931.74,12212.5C2931.74,12212.5 2945.95,12199.7 2948.74,12195.7C2951.53,12191.7 2964.81,12194.6 2964.81,12194.6C2969.46,12190.7 2969.33,12189.5 2969.33,12189.5C2962.16,12185.2 2964.41,12178.4 2943.69,12194C2922.97,12209.6 2895.34,12209.6 2895.34,12209.6C2893.48,12213.4 2885.38,12220.7 2885.38,12220.7C2885.64,12209.6 2888.83,12204.3 2904.51,12205.1C2920.18,12205.9 2934.53,12195.7 2940.24,12193.2C2945.95,12190.7 2965.45,12176.8 2972.89,12172.5C2980.33,12168.2 2999.95,12189.8 3001.31,12191.6C3001.92,12192.4 3002.43,12192.7 3002.8,12192.9C3003.18,12192.7 3003.69,12192.4 3004.3,12191.6C3005.66,12189.8 3025.28,12168.2 3032.72,12172.5C3040.16,12176.8 3059.66,12190.7 3065.37,12193.2C3071.08,12195.7 3085.43,12205.9 3101.1,12205.1C3116.78,12204.3 3119.97,12209.6 3120.23,12220.7C3120.23,12220.7 3112.13,12213.4 3110.27,12209.6C3110.27,12209.6 3082.64,12209.6 3061.92,12194C3041.19,12178.4 3043.45,12185.2 3036.28,12189.5C3036.28,12189.5 3036.15,12190.7 3040.8,12194.6C3040.8,12194.6 3054.08,12191.7 3056.87,12195.7C3059.66,12199.7 3073.87,12212.5 3073.87,12212.5C3073.87,12212.5 3087.16,12210.2 3090.87,12214.2C3094.59,12218.2 3114.25,12228.7 3121.16,12228.4C3121.16,12228.4 3116.51,12230.4 3106.15,12225.8C3095.79,12221.1 3088.22,12219.1 3077.46,12217.4C3077.46,12217.4 3077.72,12226.8 3078.52,12229.7C3079.32,12232.6 3080.78,12240.8 3079.98,12243.6C3079.54,12245.1 3084.26,12255.4 3089.02,12264.9C3089.05,12264.9 3105.62,12277.9 3112.41,12281.4C3112.41,12281.4 3101.3,12278.5 3094.18,12274.8C3095.89,12278 3097.26,12280.4 3097.91,12281.3C3097.91,12281.3 3113.45,12288.2 3132.18,12288.8C3132.18,12288.8 3140.67,12294.8 3145,12301C3145,12301 3137.49,12297.2 3132.18,12294.5C3132.18,12294.5 3108.41,12295 3098.71,12292.2C3098.71,12292.2 3095.32,12284.4 3089.91,12273.4C3089.89,12273.4 3083.56,12271.8 3077.46,12269.1C3077.46,12269.1 3087.24,12278.8 3083.92,12296.6C3083.92,12296.6 3079.77,12289.2 3078.94,12284.1C3078.94,12284.1 3062.16,12265 3053.7,12254C3053.7,12254 3054.69,12261.1 3052.37,12264.2C3052.37,12264.2 3060.75,12275.5 3060.07,12281.6C3059.39,12287.7 3070.84,12310.3 3087.14,12333.3C3087.14,12333.3 3061.55,12318 3043.84,12296.8L3026.47,12282C3022.76,12285.2 3017.98,12287.5 3013.9,12289.5C3007.11,12292.9 2998.28,12292.7 2991.91,12289.5C2987.8,12287.4 2982.96,12285.1 2979.24,12281.9ZM3084.04,12261.9L3084.04,12261.9C3086.18,12266 3088.15,12269.9 3089.91,12273.4L3089.91,12273.4L3084.04,12261.9C3077.33,12258.2 3053.41,12242.5 3054.61,12235.4C3055.81,12228.3 3054.88,12217.7 3054.88,12217.7C3065.28,12228.7 3075.87,12246.5 3084.04,12261.9ZM2921.57,12261.9L2921.57,12261.9C2919.43,12266 2917.46,12269.9 2915.7,12273.4L2915.7,12273.4L2921.57,12261.9C2928.28,12258.2 2952.19,12242.5 2951,12235.4C2949.8,12228.3 2950.73,12217.7 2950.73,12217.7C2940.33,12228.7 2929.74,12246.5 2921.57,12261.9Z" style="stroke:black;stroke-width:7.15px;"/>
            <g>
                <g transform="matrix(0.615611,0,0,0.71535,1292.74,3491.08)">
                    <path d="M2777.84,12164.4C2778.45,12164.2 2779.28,12163.8 2780.27,12162.6C2782.48,12160.2 2814.35,12129.9 2826.43,12135.9C2838.51,12142 2870.19,12161.4 2879.47,12164.8C2888.75,12168.3 2912.05,12182.5 2937.51,12181.5C2962.97,12180.4 2968.15,12187.7 2968.59,12203.3C2968.59,12203.3 2955.42,12193.1 2952.4,12187.7C2952.4,12187.7 2907.52,12187.7 2873.86,12165.9C2840.2,12144.1 2843.87,12153.6 2832.21,12159.7C2832.21,12159.7 2832,12161.4 2839.55,12166.8C2839.55,12166.8 2861.13,12162.7 2865.66,12168.3C2870.19,12173.9 2893.28,12191.9 2893.28,12191.9C2893.28,12191.9 2914.86,12188.6 2920.9,12194.2C2926.94,12199.8 2958.88,12214.5 2970.1,12214C2970.1,12214 2962.54,12216.8 2945.71,12210.4C2928.88,12203.9 2916.58,12201.1 2899.11,12198.7C2899.11,12198.7 2899.54,12211.8 2900.83,12215.9C2902.13,12220 2904.5,12231.4 2903.2,12235.3C2902.49,12237.5 2910.16,12251.8 2917.89,12265C2917.94,12265.1 2944.86,12283.3 2955.88,12288.2C2955.88,12288.2 2937.84,12284.1 2926.28,12278.9C2929.05,12283.3 2931.28,12286.7 2932.34,12287.9C2932.34,12287.9 2957.57,12297.7 2988,12298.5C2988,12298.5 3001.79,12306.9 3008.81,12315.6C3008.81,12315.6 2996.63,12310.2 2988,12306.5C2988,12306.5 2949.38,12307.2 2933.63,12303.3C2933.63,12303.3 2928.12,12292.3 2919.34,12277C2919.31,12277 2909.02,12274.8 2899.11,12270.9C2899.11,12270.9 2914.99,12284.6 2909.6,12309.4C2909.6,12309.4 2902.85,12299 2901.51,12291.9C2901.51,12291.9 2874.26,12265.1 2860.51,12249.8C2860.51,12249.8 2862.13,12259.8 2858.35,12264.1C2858.35,12264.1 2871.97,12280 2870.86,12288.4C2869.76,12296.9 2888.36,12328.6 2914.83,12360.7C2914.83,12360.7 2873.26,12339.2 2844.49,12309.6L2803.53,12279.6C2803.53,12279.6 2813.13,12264.7 2809.39,12254.1L2778.34,12181.8L2777.84,12176.5L2777.34,12181.8L2746.28,12254.1C2742.54,12264.7 2752.14,12279.6 2752.14,12279.6L2711.18,12309.6C2682.41,12339.2 2640.85,12360.7 2640.85,12360.7C2667.32,12328.6 2685.91,12296.9 2684.81,12288.4C2683.71,12280 2697.33,12264.1 2697.33,12264.1C2693.55,12259.8 2695.17,12249.8 2695.17,12249.8C2681.41,12265.1 2654.17,12291.9 2654.17,12291.9C2652.82,12299 2646.08,12309.4 2646.08,12309.4C2640.68,12284.6 2656.57,12270.9 2656.57,12270.9C2646.66,12274.8 2636.37,12277 2636.34,12277C2627.55,12292.3 2622.05,12303.3 2622.05,12303.3C2606.29,12307.2 2567.68,12306.5 2567.68,12306.5C2559.05,12310.2 2546.86,12315.6 2546.86,12315.6C2553.89,12306.9 2567.68,12298.5 2567.68,12298.5C2598.11,12297.7 2623.34,12287.9 2623.34,12287.9C2624.4,12286.7 2626.63,12283.3 2629.4,12278.9C2617.84,12284.1 2599.8,12288.2 2599.8,12288.2C2610.82,12283.3 2637.73,12265.1 2637.78,12265C2645.52,12251.8 2653.19,12237.5 2652.47,12235.3C2651.18,12231.4 2653.55,12220 2654.84,12215.9C2656.14,12211.8 2656.57,12198.7 2656.57,12198.7C2639.09,12201.1 2626.79,12203.9 2609.96,12210.4C2593.13,12216.8 2585.58,12214 2585.58,12214C2596.8,12214.5 2628.74,12199.8 2634.78,12194.2C2640.82,12188.6 2662.4,12191.9 2662.4,12191.9C2662.4,12191.9 2685.48,12173.9 2690.02,12168.3C2694.55,12162.7 2716.12,12166.8 2716.12,12166.8C2723.68,12161.4 2723.46,12159.7 2723.46,12159.7C2711.81,12153.6 2715.48,12144.1 2681.82,12165.9C2648.16,12187.7 2603.27,12187.7 2603.27,12187.7C2600.25,12193.1 2587.09,12203.3 2587.09,12203.3C2587.52,12187.7 2592.7,12180.4 2618.16,12181.5C2643.62,12182.5 2666.93,12168.3 2676.21,12164.8C2685.48,12161.4 2717.16,12142 2729.24,12135.9C2741.33,12129.9 2773.19,12160.2 2775.4,12162.6C2776.4,12163.8 2777.23,12164.2 2777.84,12164.4ZM2909.79,12260.9L2909.79,12260.9C2913.27,12266.6 2916.48,12272 2919.33,12277L2919.34,12277L2909.79,12260.9C2898.9,12255.7 2860.05,12233.8 2861.99,12223.9C2863.93,12213.9 2862.42,12199 2862.42,12199C2879.32,12214.5 2896.53,12239.4 2909.79,12260.9ZM2645.88,12260.9L2645.88,12260.9C2642.41,12266.6 2639.2,12272 2636.34,12277L2636.34,12277L2645.88,12260.9C2656.77,12255.7 2695.63,12233.8 2693.68,12223.9C2691.74,12213.9 2693.25,12199 2693.25,12199C2676.35,12214.5 2659.15,12239.4 2645.88,12260.9Z" style="fill:rgb(131,148,158);"/>
                </g>
                <g transform="matrix(0.812345,0,0,1,230.205,-72.0626)">
                    <path d="M3426.74,12361.5C3418.38,12364.9 3407.51,12364.7 3399.68,12361.5C3391.32,12358.2 3380.56,12354.1 3377.54,12346.3C3374.51,12338.5 3358.73,12330.6 3357.69,12305.3L3377.48,12263.9L3413.21,12266.4L3448.93,12263.9L3468.72,12305.3C3467.68,12330.6 3451.9,12338.5 3448.87,12346.3C3445.85,12354.1 3435.09,12358.2 3426.74,12361.5Z" style="fill:rgb(200,167,150);"/>
                </g>
                <g transform="matrix(0.998996,-0.0447941,0.0447941,0.998996,-325.674,157.838)">
                    <path d="M2789.89,12220.3C2789.89,12220.3 2794.67,12215.3 2799.79,12215.2C2804.91,12215.1 2812.88,12215.9 2814.81,12213.6C2814.81,12213.6 2810.14,12225.8 2789.89,12220.3Z" style="fill:rgb(136,33,34);"/>
                </g>
                <g transform="matrix(-0.998996,-0.0447941,-0.0447941,0.998996,6331.48,157.838)">
                    <path d="M2789.89,12220.3C2789.89,12220.3 2794.67,12215.3 2799.79,12215.2C2804.91,12215.1 2812.88,12215.9 2814.81,12213.6C2814.81,12213.6 2810.14,12225.8 2789.89,12220.3Z" style="fill:rgb(136,33,34);"/>
                </g>
                <path d="M3002.91,12193.9C3014.29,12190.3 3019.68,12188.1 3032.75,12191.9C3047.78,12215 3051.31,12239.8 3046.52,12264.9C3046.52,12264.9 3042.02,12235.8 3037.73,12228.7C3033.52,12221.8 3032.68,12201.3 3003.87,12203.5L3001.94,12203.5C2973.13,12201.3 2972.29,12221.8 2968.08,12228.7C2963.78,12235.8 2959.29,12264.9 2959.29,12264.9C2951.47,12242.1 2958.56,12217.8 2972.4,12191.9L3002.91,12193.9Z" style="fill:rgb(131,148,158);"/>
            </g>
        </g>
    </g>
</svg>
