<?xml version="1.0" encoding="UTF-8" standalone="no"?>
<!DOCTYPE svg PUBLIC "-//W3C//DTD SVG 1.1//EN" "http://www.w3.org/Graphics/SVG/1.1/DTD/svg11.dtd">
<svg width="100%" height="100%" viewBox="0 0 201 176" version="1.1" xmlns="http://www.w3.org/2000/svg" xmlns:xlink="http://www.w3.org/1999/xlink" xml:space="preserve" xmlns:serif="http://www.serif.com/" style="fill-rule:evenodd;clip-rule:evenodd;stroke-linecap:round;stroke-linejoin:round;stroke-miterlimit:1.5;">
    <g transform="matrix(1,0,0,1,-697.052674,-13775.088366)">
        <g transform="matrix(0.178625,0,0,0.178625,-313.666389,11947.272911)">
            <g transform="matrix(1,0,0,1.248885,21.744564,-2785.69766)">
                <path d="M5755.539,10766.248C5752.475,10767.659 5749.651,10769.121 5747.086,10770.637C5747.086,10770.637 5730.543,10710.553 5717.577,10678.811C5704.612,10647.068 5662.137,10569.98 5662.137,10569.98C5662.137,10569.98 5650.811,10539.371 5679.127,10531.435C5707.205,10523.566 5856.718,10447.594 6193.175,10442.78L6193.177,10442.673C6194.614,10442.688 6196.047,10442.704 6197.476,10442.722C6198.906,10442.704 6200.339,10442.688 6201.776,10442.673L6201.778,10442.78C6538.234,10447.594 6687.748,10523.566 6715.826,10531.435C6744.142,10539.371 6732.815,10569.98 6732.815,10569.98C6732.815,10569.98 6690.341,10647.068 6677.375,10678.811C6664.41,10710.553 6647.867,10770.637 6647.867,10770.637C6645.301,10769.121 6642.478,10767.659 6639.414,10766.248C6642.169,10793.29 6638.203,10821.567 6629.653,10849.973C6649.343,10855.35 6666.572,10873.878 6651.898,10928.043C6628.15,11015.703 6603.952,11074.3 6519.475,11061.234C6464.486,11131.885 6359.41,11182.297 6235.895,11191.264C6227.188,11191.976 6213.95,11192.737 6197.476,11192.692C6197.078,11192.693 6196.681,11192.694 6196.285,11192.694C6194.579,11192.694 6192.909,11192.686 6191.276,11192.671C6053.147,11191.421 5933.481,11138.542 5873.343,11061.551C5790.59,11073.305 5766.601,11014.96 5743.055,10928.043C5728.381,10873.878 5745.61,10855.35 5765.3,10849.973C5756.749,10821.567 5752.784,10793.29 5755.539,10766.248Z" style="stroke:black;stroke-width:41.24px;"/>
            </g>
            <g>
                <g transform="matrix(1,0,0,1.248885,21.744564,-2785.69766)">
                    <ellipse cx="6196.285" cy="10948.613" rx="364.254" ry="244.08" style="fill:rgb(88,80,64);"/>
                </g>
                <g transform="matrix(1,0,0,1,1070.202255,328.830989)">
                    <path d="M4754.528,10437.152C4754.528,10437.152 4666.634,10404.433 4694.597,10533.344C4722.56,10662.256 4751.148,10740.842 4878.044,10682.235L4754.528,10437.152Z" style="fill:rgb(168,128,96);"/>
                </g>
                <g transform="matrix(-1,0,0,1,11368.239663,328.830989)">
                    <path d="M4754.528,10437.152C4754.528,10437.152 4666.634,10404.433 4694.597,10533.344C4722.56,10662.256 4751.148,10740.842 4878.044,10682.235L4754.528,10437.152Z" style="fill:rgb(168,128,96);"/>
                </g>
                <g transform="matrix(1,0,0,1,1014.589718,197.71486)">
                    <path d="M5156.303,10991.979C5082.955,10983.099 4983.702,10950.924 4913.386,10850.195C4788.442,10671.211 4569.915,10279.943 5106.867,10225.832L5204.631,10235.896L5302.396,10225.832C5839.348,10279.943 5620.821,10671.211 5495.877,10850.195C5425.56,10950.924 5326.308,10983.099 5252.96,10991.979C5247.64,10992.769 5229.961,10995.064 5204.631,10994.976C5179.302,10995.064 5161.623,10992.769 5156.303,10991.979Z" style="fill:rgb(168,128,96);"/>
                    <clipPath id="_clip1">
                        <path d="M5156.303,10991.979C5082.955,10983.099 4983.702,10950.924 4913.386,10850.195C4788.442,10671.211 4569.915,10279.943 5106.867,10225.832L5204.631,10235.896L5302.396,10225.832C5839.348,10279.943 5620.821,10671.211 5495.877,10850.195C5425.56,10950.924 5326.308,10983.099 5252.96,10991.979C5247.64,10992.769 5229.961,10995.064 5204.631,10994.976C5179.302,10995.064 5161.623,10992.769 5156.303,10991.979Z"/>
                    </clipPath>
                    <g clip-path="url(#_clip1)">
                        <g transform="matrix(-1,0,0,1,11421.582514,-195.300555)">
                            <path d="M5918.256,11030.789C5918.256,11030.789 5810.366,10719.068 6046.126,10605.89L5705.141,10580.622L5918.256,11030.789Z" style="fill:rgb(88,80,64);"/>
                        </g>
                        <g transform="matrix(1,0,0,1,-1012.320032,-195.300555)">
                            <path d="M5918.256,11030.789C5918.256,11030.789 5810.366,10719.068 6046.126,10605.89L5705.141,10580.622L5918.256,11030.789Z" style="fill:rgb(88,80,64);"/>
                        </g>
                    </g>
                </g>
                <g transform="matrix(0.850352,0,0,0.850352,1817.324316,1793.412609)">
                    <path d="M5164.053,10372.22C5069.289,10370.631 4733.418,10369.694 4646.906,10433.539C4646.906,10433.539 4627.452,10345.295 4612.205,10298.676C4596.957,10252.057 4547.008,10138.839 4547.008,10138.839C4547.008,10138.839 4533.688,10093.885 4566.988,10082.23C4600.007,10070.674 4775.832,9959.095 5171.499,9952.025L5171.502,9951.867C5173.191,9951.89 5174.877,9951.914 5176.558,9951.94C5178.239,9951.914 5179.925,9951.89 5181.614,9951.867L5181.617,9952.025C5577.284,9959.095 5753.109,10070.674 5786.128,10082.23C5819.428,10093.885 5806.108,10138.839 5806.108,10138.839C5806.108,10138.839 5756.159,10252.057 5740.911,10298.676C5725.664,10345.295 5706.21,10433.539 5706.21,10433.539C5619.698,10369.694 5283.827,10370.631 5189.063,10372.22L5189.073,10372.771C5189.073,10372.771 5184.639,10372.633 5176.558,10372.458C5168.477,10372.633 5164.043,10372.771 5164.043,10372.771L5164.053,10372.22Z" style="fill:rgb(208,208,208);"/>
                    <clipPath id="_clip2">
                        <path d="M5164.053,10372.22C5069.289,10370.631 4733.418,10369.694 4646.906,10433.539C4646.906,10433.539 4627.452,10345.295 4612.205,10298.676C4596.957,10252.057 4547.008,10138.839 4547.008,10138.839C4547.008,10138.839 4533.688,10093.885 4566.988,10082.23C4600.007,10070.674 4775.832,9959.095 5171.499,9952.025L5171.502,9951.867C5173.191,9951.89 5174.877,9951.914 5176.558,9951.94C5178.239,9951.914 5179.925,9951.89 5181.614,9951.867L5181.617,9952.025C5577.284,9959.095 5753.109,10070.674 5786.128,10082.23C5819.428,10093.885 5806.108,10138.839 5806.108,10138.839C5806.108,10138.839 5756.159,10252.057 5740.911,10298.676C5725.664,10345.295 5706.21,10433.539 5706.21,10433.539C5619.698,10369.694 5283.827,10370.631 5189.063,10372.22L5189.073,10372.771C5189.073,10372.771 5184.639,10372.633 5176.558,10372.458C5168.477,10372.633 5164.043,10372.771 5164.043,10372.771L5164.053,10372.22Z"/>
                    </clipPath>
                    <g clip-path="url(#_clip2)">
                        <g transform="matrix(1,0,0,1,-2.053101,-14.602172)">
                            <path d="M5178.611,10207.31C5230.623,10207.184 5632.037,10208.754 5776.417,10285.923L5745.018,10377.931C5745.018,10377.931 5661.521,10312.008 5182.858,10312.546L5182.857,10312.562C5181.439,10312.558 5180.023,10312.555 5178.611,10312.552C5177.199,10312.555 5175.784,10312.558 5174.365,10312.562L5174.365,10312.546C4695.701,10312.008 4612.205,10377.931 4612.205,10377.931L4580.805,10285.923C4725.185,10208.754 5126.599,10207.184 5178.611,10207.31Z" style="fill:rgb(56,64,88);"/>
                        </g>
                    </g>
                </g>
                <g transform="matrix(0.683774,0,0,0.683774,2552.93841,3628.564938)">
                    <path d="M5302.895,10460.798C5302.895,10460.798 5241.892,10400.495 5096.439,10423.547C5031.044,10433.91 5032.046,10386.673 5060.476,10369.645C5101.166,10345.274 5298.899,10312.196 5302.895,10460.798Z" style="fill:rgb(88,80,64);"/>
                </g>
                <g transform="matrix(-0.683774,0,0,0.683774,9885.503508,3628.564938)">
                    <path d="M5302.895,10460.798C5302.895,10460.798 5241.892,10400.495 5096.439,10423.547C5031.044,10433.91 5032.046,10386.673 5060.476,10369.645C5101.166,10345.274 5298.899,10312.196 5302.895,10460.798Z" style="fill:rgb(88,80,64);"/>
                </g>
            </g>
        </g>
    </g>
</svg>
