<?xml version="1.0" encoding="UTF-8" standalone="no"?>
<!DOCTYPE svg PUBLIC "-//W3C//DTD SVG 1.1//EN" "http://www.w3.org/Graphics/SVG/1.1/DTD/svg11.dtd">
<svg width="100%" height="100%" viewBox="0 0 204 215" version="1.1" xmlns="http://www.w3.org/2000/svg" xmlns:xlink="http://www.w3.org/1999/xlink" xml:space="preserve" xmlns:serif="http://www.serif.com/" style="fill-rule:evenodd;clip-rule:evenodd;stroke-linecap:round;stroke-linejoin:round;stroke-miterlimit:1.5;">
    <g transform="matrix(1,0,0,1,-1495.83,-13351.1)">
        <g transform="matrix(0.407446,0,0,0.407446,-184.033,8431.53)">
            <path d="M4376.48,12159.8C4393.53,12147 4451.81,12103.1 4479.15,12084.5C4479.15,12084.5 4481.02,12122.8 4474.01,12153.7C4474.01,12153.7 4564.65,12101.3 4592.69,12085.4C4592.69,12085.4 4564.19,12170.9 4538.96,12222.3C4538.96,12222.3 4591.29,12190.1 4611.85,12178.9C4611.85,12178.9 4567.22,12276.9 4555.85,12300.5C4555.85,12300.5 4570.21,12293.2 4579.78,12290.4C4579.78,12290.4 4561.15,12331.9 4545.42,12348.7L4545.42,12349.5C4549.56,12350.9 4553.25,12352.4 4555.3,12353.9C4555.3,12353.9 4558.98,12385.5 4551.8,12413.9C4547.95,12429.1 4543.58,12443.2 4540.41,12453.9C4541.33,12453.3 4541.74,12453 4541.74,12453C4581.04,12464.3 4597.94,12490.1 4597.94,12490.1C4561.64,12489.3 4537.33,12511.9 4537.33,12511.9C4535.88,12517.5 4537.65,12524.1 4537.65,12524.1C4554.58,12539.8 4576.25,12534 4576.25,12534C4562.4,12544.4 4560.82,12546.6 4544.45,12549.8C4528.08,12552.9 4500.09,12564.1 4484.57,12569.2C4469.06,12574.2 4445.53,12579.6 4445.53,12579.6C4440.9,12584.5 4433.24,12589.7 4433.24,12589.7C4428.55,12591.6 4379.33,12591.6 4374.64,12589.7C4374.64,12589.7 4366.98,12584.5 4362.35,12579.6C4362.35,12579.6 4338.82,12574.2 4323.31,12569.2C4307.79,12564.1 4279.79,12552.9 4263.42,12549.8C4247.05,12546.6 4245.48,12544.4 4231.62,12534C4231.62,12534 4253.3,12539.8 4270.22,12524.1C4270.22,12524.1 4271.99,12517.5 4270.54,12511.9C4270.54,12511.9 4246.23,12489.3 4209.93,12490.1C4209.93,12490.1 4225.9,12465.8 4262.86,12454C4263.49,12450.8 4264.26,12447 4265.14,12442.7C4262.58,12434.1 4259.72,12424.3 4257.09,12413.9C4256.08,12409.9 4255.28,12405.8 4254.65,12401.7C4239.81,12417.8 4223.22,12435.8 4215.82,12444.1C4215.82,12444.1 4251.58,12332.5 4268.13,12302.3L4268.13,12301.9C4265.5,12302.6 4241.68,12309.2 4212.81,12310.1C4182.19,12311.1 4143.91,12314 4133.15,12314.9C4133.15,12314.9 4212.77,12249.3 4252.76,12219.7C4252.76,12219.7 4192.21,12147.6 4183.23,12116.2C4183.23,12116.2 4280.79,12159.2 4336.86,12171.5C4336.86,12171.5 4323.2,12139.9 4316.26,12129.2C4316.26,12129.2 4341.66,12137.7 4376.48,12159.8ZM4268.64,12454.4L4268.56,12454.5L4268.65,12454.6L4268.7,12454.6L4268.67,12454.5L4268.64,12454.4ZM4301.65,12410.4C4304.16,12421.2 4307.14,12433.3 4310.28,12444.7C4306.23,12445.6 4302.36,12446.5 4298.73,12447.3L4294.99,12419.4C4297.19,12416.4 4299.41,12413.4 4301.65,12410.4ZM4498.02,12442.1L4498.08,12444.8C4497.82,12444.8 4497.57,12444.7 4497.31,12444.7C4497.55,12443.8 4497.78,12442.9 4498.02,12442.1Z" style="stroke:black;stroke-width:20.45px;"/>
            <g>
                <g transform="matrix(0.885925,0,0,0.885925,505.966,1417.45)">
                    <path d="M4401.59,12432.5C4478.29,12436.4 4557.09,12460.1 4557.09,12460.1L4551.44,12480.7L4399.89,12474.4L4248.34,12480.7L4242.69,12460.1C4242.69,12460.1 4321.49,12436.4 4398.18,12432.5L4398.19,12432.3C4398.75,12432.3 4399.32,12432.4 4399.89,12432.4C4400.45,12432.4 4401.02,12432.3 4401.59,12432.3L4401.59,12432.5Z" style="fill:rgb(70,79,112);"/>
                </g>
                <g transform="matrix(0.996593,0,0,1,14.6317,37.6435)">
                    <path d="M4407.33,12255.8L4472.75,12268.8L4513.87,12339.8C4513.87,12339.8 4500.04,12408.4 4488.36,12436.7C4476.69,12465 4458.22,12466.2 4458.22,12466.2L4404.16,12463.2L4350.11,12466.2C4350.11,12466.2 4331.63,12465 4319.96,12436.7C4308.28,12408.4 4294.45,12339.8 4294.45,12339.8L4335.57,12268.8L4401,12255.8L4400.98,12254.6L4404.16,12255.2L4407.34,12254.6L4407.33,12255.8Z" style="fill:rgb(240,218,204);"/>
                </g>
                <g transform="matrix(1,0,0,1,-1.77636e-15,37.6435)">
                    <path d="M4371.69,12125.8C4371.69,12125.8 4446.91,12068.8 4479.15,12046.9C4479.15,12046.9 4481.02,12085.2 4474.01,12116C4474.01,12116 4564.65,12063.7 4592.69,12047.8C4592.69,12047.8 4564.19,12133.3 4538.96,12184.7C4538.96,12184.7 4591.29,12152.5 4611.85,12141.2C4611.85,12141.2 4567.22,12239.2 4555.85,12262.9C4555.85,12262.9 4570.21,12255.5 4579.78,12252.8C4579.78,12252.8 4557.05,12303.4 4540.6,12315.4L4449.65,12223.2L4371.69,12125.8Z" style="fill:rgb(205,166,76);"/>
                </g>
                <g transform="matrix(-1,0,0,1,8814.25,36.1125)">
                    <rect x="4506.39" y="12234.2" width="41.185" height="24.891" style="fill:rgb(176,175,191);"/>
                </g>
                <g transform="matrix(-0.964674,0,0,1.12302,8655.06,-1448.82)">
                    <rect x="4506.39" y="12234.2" width="41.185" height="24.891" style="fill:rgb(176,175,191);"/>
                </g>
                <g transform="matrix(-1.07769,0,0,1.51667,9164.33,-6240.01)">
                    <rect x="4506.39" y="12234.2" width="41.185" height="24.891" style="fill:rgb(176,175,191);"/>
                </g>
                <g transform="matrix(-1,0,0,1,8808.89,37.6435)">
                    <path d="M4524.07,12305.9C4524.07,12305.9 4548.56,12311.4 4555.3,12316.3C4555.3,12316.3 4558.98,12347.8 4551.8,12376.2C4544.62,12404.7 4535.65,12428.9 4535.95,12435.2L4506.95,12433.7L4524.07,12305.9Z" style="fill:rgb(145,149,193);"/>
                </g>
                <g transform="matrix(1,0,0,1,0,37.6435)">
                    <path d="M4287,12388.1C4287,12388.1 4295.93,12446.5 4313.54,12476.8L4316.79,12474.2C4316.79,12474.2 4298.03,12426.9 4293.44,12378.3L4287,12388.1Z" style="fill:rgb(205,166,76);"/>
                </g>
                <g transform="matrix(1,0,0,1,0,37.6435)">
                    <path d="M4387.06,12130.2C4387.06,12130.2 4466.96,12123.2 4502.47,12171.8C4537.98,12220.4 4537.51,12233 4537.51,12233L4519.34,12234.2L4383.46,12136L4387.06,12130.2Z" style="fill:rgb(145,149,193);"/>
                </g>
                <g transform="matrix(1,0,0,1,-5.35864,36.1125)">
                    <rect x="4506.39" y="12234.2" width="41.185" height="24.891" style="fill:rgb(176,175,191);"/>
                </g>
                <g transform="matrix(0.964674,0,0,1.12302,153.834,-1448.82)">
                    <rect x="4506.39" y="12234.2" width="41.185" height="24.891" style="fill:rgb(176,175,191);"/>
                </g>
                <g transform="matrix(1.07769,0,0,1.51667,-355.439,-6240.01)">
                    <rect x="4506.39" y="12234.2" width="41.185" height="24.891" style="fill:rgb(176,175,191);"/>
                </g>
                <g transform="matrix(1,0,0,1,0,37.6435)">
                    <path d="M4524.07,12305.9C4524.07,12305.9 4548.56,12311.4 4555.3,12316.3C4555.3,12316.3 4558.98,12347.8 4551.8,12376.2C4544.62,12404.7 4535.65,12428.9 4535.95,12435.2L4506.95,12433.7L4524.07,12305.9Z" style="fill:rgb(145,149,193);"/>
                </g>
                <g transform="matrix(1,0,0,1,-2.48939,37.6435)">
                    <path d="M4474.46,12315.4C4474.46,12315.4 4455.08,12329.2 4435.22,12333.5L4434.27,12324.4C4434.27,12324.4 4453.4,12325.5 4474.46,12315.4Z"/>
                </g>
                <g transform="matrix(-1,0,0,1,8810.07,37.6435)">
                    <path d="M4474.46,12315.4C4474.46,12315.4 4455.08,12329.2 4435.22,12333.5L4434.27,12324.4C4434.27,12324.4 4453.4,12325.5 4474.46,12315.4Z"/>
                </g>
                <g transform="matrix(1,0,0,1,0,37.6435)">
                    <path d="M4427.6,12285.5C4427.6,12285.5 4392.92,12374.3 4370.49,12397.6C4370.49,12397.6 4371.98,12309 4367.8,12280.4C4367.8,12280.4 4290.8,12389.9 4260.89,12426.5C4260.89,12426.5 4272.33,12364.8 4283.1,12333.4C4283.1,12333.4 4230.77,12389.7 4215.82,12406.4C4215.82,12406.4 4251.92,12293.8 4268.37,12264.2C4268.37,12264.2 4243.43,12271.5 4212.81,12272.5C4182.19,12273.5 4143.91,12276.3 4133.15,12277.3C4133.15,12277.3 4212.77,12211.6 4252.76,12182.1C4252.76,12182.1 4192.21,12110 4183.23,12078.6C4183.23,12078.6 4280.79,12121.5 4336.86,12133.9C4336.86,12133.9 4323.2,12102.3 4316.26,12091.5C4316.26,12091.5 4352.08,12103.5 4396.94,12136.1C4396.94,12136.1 4460.41,12134.6 4491.43,12173.4C4522.46,12212.3 4536.29,12235.5 4528.06,12313.2L4499.56,12476.8L4496.76,12345.5C4496.76,12345.5 4475.53,12302.8 4462.86,12287.5C4462.86,12287.5 4425.78,12352.8 4419.56,12368.1C4419.56,12368.1 4429.67,12310.6 4427.6,12285.5Z" style="fill:rgb(239,192,86);"/>
                </g>
                <g transform="matrix(0.842283,0,0,0.842283,698.118,1961.16)">
                    <path d="M4404.6,12457.3C4422.4,12457.7 4447.1,12459.3 4470.05,12464C4497.56,12469.7 4526.56,12471.1 4526.56,12471.1C4554.07,12463.6 4563.34,12456.4 4563.34,12456.4C4609.99,12469.9 4630.06,12500.5 4630.06,12500.5C4586.97,12499.5 4558.11,12526.3 4558.11,12526.3C4556.38,12533 4558.49,12540.9 4558.49,12540.9C4578.58,12559.4 4604.31,12552.6 4604.31,12552.6C4587.86,12565 4586,12567.6 4566.56,12571.3C4547.12,12575.1 4513.89,12588.4 4495.46,12594.4C4477.04,12600.4 4449.11,12606.8 4449.11,12606.8C4443.61,12612.5 4434.52,12618.7 4434.52,12618.7C4428.95,12621 4370.52,12621 4364.94,12618.7C4364.94,12618.7 4355.85,12612.5 4350.35,12606.8C4350.35,12606.8 4322.42,12600.4 4304,12594.4C4285.58,12588.4 4252.34,12575.1 4232.91,12571.3C4213.47,12567.6 4211.6,12565 4195.15,12552.6C4195.15,12552.6 4220.88,12559.4 4240.98,12540.9C4240.98,12540.9 4243.08,12533 4241.36,12526.3C4241.36,12526.3 4212.5,12499.5 4169.4,12500.5C4169.4,12500.5 4189.47,12469.9 4236.12,12456.4C4236.12,12456.4 4245.39,12463.6 4272.9,12471.1C4272.9,12471.1 4301.91,12469.7 4329.42,12464C4352.37,12459.3 4377.07,12457.7 4394.87,12457.3L4404.6,12457.3Z" style="fill:rgb(89,98,131);"/>
                    <clipPath id="_clip1">
                        <path d="M4404.6,12457.3C4422.4,12457.7 4447.1,12459.3 4470.05,12464C4497.56,12469.7 4526.56,12471.1 4526.56,12471.1C4554.07,12463.6 4563.34,12456.4 4563.34,12456.4C4609.99,12469.9 4630.06,12500.5 4630.06,12500.5C4586.97,12499.5 4558.11,12526.3 4558.11,12526.3C4556.38,12533 4558.49,12540.9 4558.49,12540.9C4578.58,12559.4 4604.31,12552.6 4604.31,12552.6C4587.86,12565 4586,12567.6 4566.56,12571.3C4547.12,12575.1 4513.89,12588.4 4495.46,12594.4C4477.04,12600.4 4449.11,12606.8 4449.11,12606.8C4443.61,12612.5 4434.52,12618.7 4434.52,12618.7C4428.95,12621 4370.52,12621 4364.94,12618.7C4364.94,12618.7 4355.85,12612.5 4350.35,12606.8C4350.35,12606.8 4322.42,12600.4 4304,12594.4C4285.58,12588.4 4252.34,12575.1 4232.91,12571.3C4213.47,12567.6 4211.6,12565 4195.15,12552.6C4195.15,12552.6 4220.88,12559.4 4240.98,12540.9C4240.98,12540.9 4243.08,12533 4241.36,12526.3C4241.36,12526.3 4212.5,12499.5 4169.4,12500.5C4169.4,12500.5 4189.47,12469.9 4236.12,12456.4C4236.12,12456.4 4245.39,12463.6 4272.9,12471.1C4272.9,12471.1 4301.91,12469.7 4329.42,12464C4352.37,12459.3 4377.07,12457.7 4394.87,12457.3L4404.6,12457.3Z"/>
                    </clipPath>
                    <g clip-path="url(#_clip1)">
                        <path d="M4489.28,12608.1C4489.28,12608.1 4487.44,12580.9 4484.99,12575.2C4484.99,12575.2 4490.81,12574.4 4493.87,12570.8C4493.87,12570.8 4497.54,12548 4490.5,12541.2C4490.5,12541.2 4502.45,12488.1 4499.82,12479C4499.82,12479 4486.43,12460.3 4477.57,12451.7L4324.23,12446.7L4318.25,12474.7C4318.25,12474.7 4309.44,12476.1 4305.76,12477.4C4305.76,12477.4 4298.11,12482.6 4298.41,12488.8C4298.72,12494.9 4297.76,12535.7 4311.54,12553.7L4316.28,12554.7C4316.28,12554.7 4311.57,12558.2 4311.18,12560.2C4310.79,12562.3 4313.88,12579.1 4315.84,12584.9C4315.84,12584.9 4326,12591.5 4334.33,12603.9L4391.62,12648.3L4446.57,12633.8L4489.28,12608.1Z" style="fill:rgb(225,224,132);"/>
                        <path d="M4480.16,12607.3C4480.16,12607.3 4477.17,12589 4475.67,12583.7C4475.67,12583.7 4482.1,12579.2 4485.35,12575.7C4485.35,12575.7 4491.28,12555.3 4481.14,12544.7C4481.14,12544.7 4494.63,12493.8 4490.09,12483.3C4490.09,12483.3 4476.45,12465.4 4468.79,12457.2L4400.38,12446L4324.06,12458.7C4324.06,12458.7 4313.93,12471.6 4309.03,12487.1C4309.03,12487.1 4308.72,12525 4315.81,12539.5C4315.81,12539.5 4316.76,12549.3 4326.71,12559C4326.71,12559 4313.51,12558.1 4330.35,12600.6L4383.55,12645.9L4426.42,12641.5L4480.16,12607.3Z" style="fill:rgb(122,115,193);"/>
                    </g>
                </g>
            </g>
        </g>
    </g>
</svg>
