<?xml version="1.0" encoding="UTF-8" standalone="no"?>
<!DOCTYPE svg PUBLIC "-//W3C//DTD SVG 1.1//EN" "http://www.w3.org/Graphics/SVG/1.1/DTD/svg11.dtd">
<svg width="100%" height="100%" viewBox="0 0 210 200" version="1.1" xmlns="http://www.w3.org/2000/svg" xmlns:xlink="http://www.w3.org/1999/xlink" xml:space="preserve" xmlns:serif="http://www.serif.com/" style="fill-rule:evenodd;clip-rule:evenodd;stroke-linecap:round;stroke-linejoin:round;stroke-miterlimit:1.5;">
    <g transform="matrix(1,0,0,1,-7318.667979,-13160.474665)">
        <g transform="matrix(0.432712,0,0,0.480204,7039.916482,8041.926205)">
            <g transform="matrix(0.660256,0,0,1,272.974219,-3.371275)">
                <path d="M718.904,11044.108C704.099,11059.695 682.08,11069.584 657.511,11069.584C612.979,11069.584 576.824,11037.095 576.824,10997.079C576.824,10964.446 600.869,10936.819 633.894,10927.736C631.866,10921.586 630.091,10915.317 629.07,10908.941C624.415,10879.855 594.96,10786.629 706.782,10721.371C818.604,10656.113 1006.003,10664.562 1075.037,10690.199C1093.021,10686.66 1109.184,10686.957 1123.483,10690.415C1131.69,10692.108 1141.757,10696.301 1154.04,10703.469C1265.862,10768.727 1229.729,10879.855 1225.074,10908.941C1224.085,10915.126 1222.384,10921.211 1220.432,10927.183C1254.539,10935.65 1279.613,10963.754 1279.613,10997.079C1279.613,11037.095 1243.459,11069.584 1198.926,11069.584C1179.562,11069.584 1161.782,11063.441 1147.87,11053.207C1146.811,11052.702 1145.78,11052.098 1144.781,11051.39C1117.434,11031.999 1110.749,11016.034 1100.974,11003.504C1092.659,10992.846 1095.458,10979.234 1096.48,10975.405C1091.544,10976.425 1079.961,10978.305 1059.275,10978.987C1050.688,10985.397 1042.348,10990.43 1034.675,10993.818C990.766,11013.209 937.995,11013.423 929.325,11013.318C920.655,11013.423 867.885,11013.209 823.976,10993.818C816.335,10990.444 808.033,10985.44 799.484,10979.068C773.234,10978.364 760.748,10975.738 757.539,10974.949C758.413,10978.007 761.858,10992.368 753.171,11003.504C744.648,11014.429 738.473,11027.966 718.904,11044.108Z" style="stroke:black;stroke-width:21.09px;"/>
            </g>
            <g>
                <g transform="matrix(0.660256,0,0,1,272.974219,-3.371275)">
                    <ellipse cx="657.511" cy="10997.079" rx="80.687" ry="72.504" style="fill:rgb(56,56,83);"/>
                </g>
                <g transform="matrix(0.660256,0,0,1,630.447102,-3.371275)">
                    <ellipse cx="657.511" cy="10997.079" rx="80.687" ry="72.504" style="fill:rgb(56,56,83);"/>
                </g>
                <path d="M723.019,10847.861L704.688,10889.758L704.688,10957.586L772.577,10971.353C772.577,10971.353 783.24,10976.159 812.374,10975.858L785.946,10847.861L723.019,10847.861Z" style="fill:rgb(220,182,145);"/>
                <g transform="matrix(-1,0,0,1,1771.417924,0)">
                    <path d="M723.019,10847.861L704.688,10889.758L704.688,10957.586L772.577,10971.353C772.577,10971.353 783.24,10976.159 812.374,10975.858L785.946,10847.861L723.019,10847.861Z" style="fill:rgb(220,182,145);"/>
                </g>
                <g transform="matrix(0.813501,0,0,1,413.652738,79.665295)">
                    <path d="M581.333,10930.282C574.296,10930.386 531.466,10930.173 495.829,10910.782C456.873,10889.585 396.721,10804.07 399.013,10719.442L580.936,10606.099L581.729,10606.099L763.652,10719.442C765.944,10804.07 705.792,10889.585 666.837,10910.782C631.199,10930.173 588.369,10930.386 581.333,10930.282Z" style="fill:rgb(232,192,152);"/>
                </g>
                <g transform="matrix(0.496531,0,0,0.496531,568.698226,5546.78144)">
                    <path d="M466.219,10723.287C466.219,10723.287 491.884,10704.039 516.632,10709.538C541.38,10715.038 563.378,10746.202 574.378,10742.536C585.377,10738.87 558.246,10696.569 513.882,10700.602C469.519,10704.635 466.219,10723.287 466.219,10723.287Z" style="fill:rgb(47,47,72);"/>
                </g>
                <g transform="matrix(-0.496531,0,0,0.496531,1202.974708,5546.78144)">
                    <path d="M466.219,10723.287C466.219,10723.287 491.884,10704.039 516.632,10709.538C541.38,10715.038 563.378,10746.202 574.378,10742.536C585.377,10738.87 558.246,10696.569 513.882,10700.602C469.519,10704.635 466.219,10723.287 466.219,10723.287Z" style="fill:rgb(47,47,72);"/>
                </g>
                <g transform="matrix(0.838234,0,0,0.813665,426.526218,2144.465682)">
                    <path d="M683.609,10742.835C681.115,10702.443 677.266,10666.97 663.594,10608.283C663.594,10608.283 621.279,10608.741 586.448,10631.656C551.617,10654.571 465.938,10726.894 410.484,10742.835C410.484,10742.835 405.744,10799.786 434.616,10831.867C434.616,10831.867 396.87,10793.485 391.37,10759.387C385.871,10725.29 363.872,10735.189 356.906,10747.288C349.94,10759.387 327.575,10820.843 413.369,10847.861C413.369,10847.861 417.768,10868.279 410.069,10883.678C402.369,10899.077 397.103,10918.698 375.563,10942.529C354.023,10966.361 313.693,10893.95 322.859,10865.077C332.025,10836.204 315.984,10803.206 312.318,10767.459C308.651,10731.712 285.45,10617.137 373.529,10536.935C461.609,10456.732 609.219,10467.116 663.594,10498.624C677.761,10494.274 690.491,10494.639 701.755,10498.889C708.219,10500.97 716.148,10506.123 725.823,10514.932C813.902,10595.135 785.442,10731.712 781.775,10767.459C778.109,10803.206 762.069,10836.204 771.234,10865.077C780.4,10893.95 740.07,10966.361 718.53,10942.529C696.99,10918.698 691.724,10899.077 684.024,10883.678C676.325,10868.279 680.725,10847.861 680.725,10847.861C766.518,10820.843 744.153,10759.387 737.187,10747.288C730.221,10735.189 708.223,10725.29 702.723,10759.387C697.223,10793.485 659.477,10831.867 659.477,10831.867C688.35,10799.786 683.609,10742.835 683.609,10742.835Z" style="fill:rgb(56,56,83);"/>
                </g>
                <ellipse cx="817.746" cy="10909.923" rx="4.4" ry="4.216" style="fill:rgb(67,67,67);"/>
            </g>
        </g>
    </g>
</svg>
