<?xml version="1.0" encoding="UTF-8" standalone="no"?>
<!DOCTYPE svg PUBLIC "-//W3C//DTD SVG 1.1//EN" "http://www.w3.org/Graphics/SVG/1.1/DTD/svg11.dtd">
<svg width="100%" height="100%" viewBox="0 0 232 288" version="1.1" xmlns="http://www.w3.org/2000/svg" xmlns:xlink="http://www.w3.org/1999/xlink" xml:space="preserve" xmlns:serif="http://www.serif.com/" style="fill-rule:evenodd;clip-rule:evenodd;stroke-linecap:round;stroke-linejoin:round;stroke-miterlimit:1.5;">
    <g transform="matrix(1,0,0,1,-6705.02,-13475)">
        <g transform="matrix(0.537997,0,0,0.537997,4679.59,8327.31)">
            <path d="M3937.53,9721.49C3943.25,9703.16 3950.2,9680.98 3952.59,9673.81C3956.9,9660.89 3982.97,9604.43 3992.54,9592.23C4002.11,9580.03 4011.92,9561.13 4021.01,9596.06C4028.73,9625.73 4032.86,9678.75 4034.62,9732.54C4034.62,9732.4 4034.61,9732.33 4034.61,9732.33C4059.57,9730.09 4068.7,9755.85 4068.7,9755.85C4067.31,9755.58 4065.99,9755.34 4064.73,9755.15C4079.04,9758.09 4100.95,9762.91 4120.55,9768.54C4153.07,9777.88 4203.91,9792.46 4182.6,9802.55C4165.81,9810.51 4141.36,9829.6 4097.53,9837.52C4096.05,9840.37 4094.28,9843.17 4092.29,9845.89C4095.02,9858.85 4095.91,9871.88 4095.8,9883.87C4102.02,9885.63 4108.52,9889.64 4111.02,9898.48C4116.38,9917.43 4117.14,9933.5 4112.93,9956.85C4108.95,9978.96 4114.1,10008.9 4065.51,10017.9C4064.64,10019.7 4063.83,10021.4 4063.07,10023C4061.79,10025.7 4060.46,10028.4 4059.07,10031C4058.3,10032.6 4057.85,10033.4 4057.85,10033.4L4057.84,10033.3C4048.1,10051.1 4036.22,10065.4 4025.66,10076C4008.25,10093.5 3986.57,10095.6 3974.35,10095.2C3962.13,10095.6 3940.44,10093.5 3923.04,10076C3912.41,10065.3 3900.44,10050.9 3890.67,10033C3890.64,10033.1 3890.62,10033.2 3890.59,10033.4C3890.59,10033.4 3887.32,10027.2 3882.94,10017.9C3834.35,10008.9 3839.5,9978.96 3835.51,9956.85C3831.3,9933.5 3832.07,9917.43 3837.43,9898.48C3839.94,9889.58 3846.51,9885.58 3852.78,9883.84C3852.66,9871.9 3853.55,9858.93 3856.25,9846.03C3849.73,9837.09 3845.45,9827.42 3846.21,9817.82C3846.3,9816.7 3846.42,9815.57 3846.58,9814.43C3833.43,9808.81 3798.2,9793.14 3786.81,9781.94C3772.7,9768.06 3763.84,9766.63 3785.61,9760.17C3803.01,9755.01 3865.32,9740.22 3904.78,9741.69C3903.59,9740.95 3902.27,9740.56 3900.89,9740.82C3900.89,9740.82 3896.61,9733.78 3903.19,9729.65C3909.55,9725.66 3923.61,9715.95 3937.53,9721.49Z" style="stroke:black;stroke-width:15.49px;"/>
            <g>
                <g transform="matrix(1,0,0,1,909.943,62.7383)">
                    <path d="M2956.57,9820.05C2956.57,9820.05 2932.84,9816.8 2927.48,9835.74C2922.12,9854.69 2921.36,9870.76 2925.57,9894.11C2929.78,9917.46 2923.8,9949.52 2981.69,9956.45L2956.57,9820.05Z" style="fill:rgb(196,196,196);"/>
                </g>
                <g transform="matrix(-1,0,0,1,7038.5,62.7383)">
                    <path d="M2956.57,9820.05C2956.57,9820.05 2932.84,9816.8 2927.48,9835.74C2922.12,9854.69 2921.36,9870.76 2925.57,9894.11C2929.78,9917.46 2923.8,9949.52 2981.69,9956.45L2956.57,9820.05Z" style="fill:rgb(196,196,196);"/>
                </g>
                <path d="M3851.59,9816.55C3851.59,9816.55 3800.92,9795.81 3786.81,9781.94C3772.7,9768.06 3763.84,9766.63 3785.61,9760.17C3807.38,9753.71 3899.48,9732.18 3929.15,9746.29L3851.59,9816.55Z" style="fill:rgb(60,212,136);"/>
                <path d="M3929.15,9748.44C3929.15,9748.44 3948.28,9686.73 3952.59,9673.81C3956.9,9660.89 3982.97,9604.43 3992.54,9592.23C4002.11,9580.03 4011.92,9561.13 4021.01,9596.06C4030.1,9630.99 4034.21,9698.27 4035.33,9761.06L3929.15,9748.44" style="fill:rgb(60,212,136);"/>
                <path d="M4049.16,9752.09C4049.16,9752.09 4088.04,9759.19 4120.55,9768.54C4153.07,9777.88 4203.91,9792.46 4182.6,9802.55C4161.3,9812.65 4127.66,9840.68 4057.76,9841.05L4049.16,9752.09Z" style="fill:rgb(60,212,136);"/>
                <path d="M3910.85,9749.24C3910.85,9749.24 3906.39,9742.11 3900.89,9741.59C3900.89,9741.59 3896.61,9733.78 3903.19,9729.65C3909.77,9725.51 3923.21,9714.86 3937.61,9721.75C3937.61,9721.75 3933.03,9729.76 3944.22,9738.22L3933.05,9750.93L3910.85,9749.24Z" style="fill:rgb(196,196,196);"/>
                <path d="M4068.68,9755.98C4068.68,9755.98 4059.57,9730.09 4034.61,9732.33C4034.61,9732.33 4035.21,9740.98 4022.92,9746.05L4044.51,9755.39C4044.51,9755.39 4051.37,9752.61 4068.68,9755.98Z" style="fill:rgb(196,196,196);"/>
                <path d="M3974.35,9829.19L4092.11,9845.02C4101.97,9890.47 4088.97,9937.09 4088.97,9937.09L3974.35,9941.6L3974.35,9941.61L3974.29,9941.61L3974.22,9941.61L3974.22,9941.6L3859.6,9937.09C3859.6,9937.09 3846.6,9890.47 3856.47,9845.02L3974.22,9829.19L3974.22,9829.17L3974.29,9829.18L3974.35,9829.17L3974.35,9829.19Z" style="fill:rgb(45,230,137);"/>
                <path d="M3903.33,9886.3C3903.33,9886.3 3843.52,9851.61 3846.21,9817.82C3848.91,9784.03 3879.78,9746.45 3930.71,9744.58C3930.71,9744.58 3949.99,9731.03 3974.22,9732.43C3998.19,9731.27 4017.74,9744.58 4017.74,9744.58C4068.67,9746.45 4099.54,9784.03 4102.23,9817.82C4104.92,9851.61 4045.12,9886.3 4045.12,9886.3L3974.22,9925.63L3903.33,9886.3Z" style="fill:rgb(53,223,138);"/>
                <g transform="matrix(1.06842,0,0,0.956325,-261.296,437.454)">
                    <path d="M3964.41,9948.26L4059.88,9933.47C4067.91,10001.4 4036.52,10051.7 4012.43,10078.8C3996.14,10097 3975.84,10099.3 3964.41,10098.8C3952.97,10099.3 3932.67,10097 3916.38,10078.8C3892.29,10051.7 3860.9,10001.4 3868.93,9933.47L3964.41,9948.26Z" style="fill:rgb(28,23,30);"/>
                </g>
                <g transform="matrix(0.966343,0,0,0.956325,138.385,438.026)">
                    <path d="M3973.21,9972.08L4010.45,9976.33C4053.81,9998.46 4028.4,10038.8 4020.92,10065.1C4013.99,10089.5 3975.18,10079.6 3969.57,10079.3C3963.95,10079.6 3925.14,10089.5 3918.21,10065.1C3910.74,10038.8 3885.32,9998.46 3928.68,9976.33L3965.92,9972.08L3965.9,9971.25L3969.57,9971.67L3973.24,9971.25L3973.21,9972.08Z" style="fill:rgb(220,185,157);"/>
                </g>
                <path d="M3974.13,9978.45C3973.2,9978.58 3965.67,9979.71 3963.02,9982.89C3960.18,9986.28 3952.84,9993.67 3942.68,9995.85C3932.52,9998.04 3909.26,10005.3 3898.22,10010.8C3898.22,10010.8 3892.96,10019.8 3890.59,10033.4C3890.59,10033.4 3865.62,9986.12 3861.3,9956.45C3856.97,9926.77 3862.26,9879.19 3862.26,9879.19C3862.26,9879.19 3926.28,9883.7 3945.77,9883.84C3945.77,9883.84 3964.09,9902.49 3974.22,9908.15C3984.36,9902.49 4002.67,9883.84 4002.67,9883.84C4022.17,9883.7 4086.18,9879.19 4086.18,9879.19C4086.18,9879.19 4091.47,9926.77 4087.15,9956.45C4082.82,9986.12 4057.85,10033.4 4057.85,10033.4C4055.49,10019.8 4050.23,10010.8 4050.23,10010.8C4039.19,10005.3 4015.92,9998.04 4005.76,9995.85C3995.6,9993.67 3988.26,9986.28 3985.43,9982.89C3982.6,9979.5 3974.22,9978.44 3974.22,9978.44L3974.13,9978.45Z" style="fill:rgb(41,87,149);"/>
            </g>
        </g>
    </g>
</svg>
