<?xml version="1.0" encoding="UTF-8" standalone="no"?>
<!DOCTYPE svg PUBLIC "-//W3C//DTD SVG 1.1//EN" "http://www.w3.org/Graphics/SVG/1.1/DTD/svg11.dtd">
<svg width="100%" height="100%" viewBox="0 0 201 152" version="1.1" xmlns="http://www.w3.org/2000/svg" xmlns:xlink="http://www.w3.org/1999/xlink" xml:space="preserve" xmlns:serif="http://www.serif.com/" style="fill-rule:evenodd;clip-rule:evenodd;stroke-linecap:round;stroke-linejoin:round;stroke-miterlimit:1.5;">
    <g transform="matrix(1,0,0,1,-9129.75,-13266.1)">
        <g transform="matrix(0.220276,0,0,0.220276,7405.78,10727.9)">
            <path d="M8138.09,11589.5C8209.46,11526 8355.46,11526 8426.82,11589.5C8426.95,11589.4 8427.08,11589.2 8427.22,11589C8448.2,11565.6 8479.68,11538.2 8539.41,11589C8599.14,11639.9 8606.25,11658.9 8630.78,11660.9C8655.32,11662.8 8750.24,11726.7 8709.56,11784.2C8687.32,11815.6 8654.66,11834.9 8609.74,11818.1C8624.45,11838.4 8637.27,11857.9 8646.93,11876.1C8688.55,11954.3 8687.29,12138.4 8547.3,12154.8C8407.31,12171.2 8374.52,12193.9 8282.45,12193.9L8281.38,12193.9C8190.13,12193.7 8157.05,12171.2 8017.61,12154.8C7877.62,12138.4 7876.36,11954.3 7917.97,11876.1C7927.64,11857.9 7940.45,11838.4 7955.17,11818.1C7910.24,11834.9 7877.59,11815.6 7855.35,11784.2C7814.67,11726.7 7909.59,11662.8 7934.13,11660.9C7958.66,11658.9 7965.77,11639.9 8025.5,11589C8085.23,11538.2 8116.7,11565.6 8137.69,11589C8137.83,11589.2 8137.96,11589.4 8138.09,11589.5Z" style="stroke:black;stroke-width:37.83px;"/>
            <g>
                <path d="M8281.38,12193.9C8190.13,12193.7 8157.05,12171.2 8017.61,12154.8C7877.62,12138.4 7876.36,11954.3 7917.97,11876.1C7959.59,11797.9 8059.47,11694.5 8118.5,11611.3C8184.08,11518.8 8380.83,11518.7 8446.41,11611.3C8505.41,11694.5 8605.32,11797.9 8646.93,11876.1C8688.55,11954.3 8687.29,12138.4 8547.3,12154.8C8407.31,12171.2 8374.52,12193.9 8282.45,12193.9L8281.38,12193.9Z" style="fill:rgb(255,209,51);"/>
                <g transform="matrix(1,0,0,1,11.0656,8.03528)">
                    <path d="M8082.23,11680.3C8082.23,11680.3 8147.61,11604.4 8126.62,11581C8105.64,11557.6 8074.16,11530.2 8014.43,11581C7954.7,11631.9 7947.6,11650.9 7923.06,11652.8C7898.52,11654.8 7803.6,11718.7 7844.28,11776.2C7884.96,11833.6 7960.51,11850.4 8082.23,11680.3Z" style="fill:rgb(255,184,51);"/>
                </g>
                <g transform="matrix(-1,0,0,1,16553.8,8.03528)">
                    <path d="M8082.23,11680.3C8082.23,11680.3 8147.61,11604.4 8126.62,11581C8105.64,11557.6 8074.16,11530.2 8014.43,11581C7954.7,11631.9 7947.6,11650.9 7923.06,11652.8C7898.52,11654.8 7803.6,11718.7 7844.28,11776.2C7884.96,11833.6 7960.51,11850.4 8082.23,11680.3Z" style="fill:rgb(255,184,51);"/>
                </g>
                <g transform="matrix(1,0,0,1,0,-23.6092)">
                    <ellipse cx="8282.45" cy="12101.9" rx="140.611" ry="84.347" style="fill:rgb(228,186,127);"/>
                </g>
                <g transform="matrix(1,0,0,1,7.42643,-5.04468)">
                    <path d="M8275.33,11846.8C8281.51,11847 8381.55,11850.5 8440.98,11890C8502.32,11930.7 8558.5,12009.2 8488.12,12080.5C8417.73,12151.8 8331.21,12085.3 8275.03,12083.4L8275.03,12083.2C8218.85,12085.1 8132.32,12151.8 8061.94,12080.5C7991.56,12009.2 8047.73,11930.7 8109.08,11890C8170.42,11849.3 8275.03,11846.8 8275.03,11846.8L8275.33,11846.8Z" style="fill:rgb(237,195,137);"/>
                </g>
            </g>
        </g>
    </g>
</svg>
