<?xml version="1.0" encoding="UTF-8" standalone="no"?>
<!DOCTYPE svg PUBLIC "-//W3C//DTD SVG 1.1//EN" "http://www.w3.org/Graphics/SVG/1.1/DTD/svg11.dtd">
<svg width="100%" height="100%" viewBox="0 0 248 227" version="1.1" xmlns="http://www.w3.org/2000/svg" xmlns:xlink="http://www.w3.org/1999/xlink" xml:space="preserve" xmlns:serif="http://www.serif.com/" style="fill-rule:evenodd;clip-rule:evenodd;stroke-linecap:round;stroke-linejoin:round;stroke-miterlimit:1.5;">
    <g transform="matrix(1,0,0,1,-465.916,-13637.6)">
        <g transform="matrix(0.2255,0,0,0.2255,-666.04,11409)">
            <path d="M5220.89,10190C5222.36,10175.2 5227.6,10130.2 5238.61,10109.4C5251.89,10084.2 5256.08,10080.2 5242.8,10050.8C5242.8,10050.8 5328.06,9952.82 5427.29,9901.11C5427.29,9901.11 5448.26,9908.09 5455.94,9922.77C5455.94,9922.77 5521.07,9908.72 5577.48,9944.72C5664.75,9913.33 5789.14,9952.51 5789.14,9952.51C5789.14,9952.51 5806.21,9958.42 5818.37,9954.84C5818.37,9954.84 5937.16,9997.96 5953.37,10113.1C5953.37,10113.1 5937.27,10120.9 5945.06,10133.7C5952.85,10146.5 5960.63,10160.7 5963.61,10170.4C5963.61,10170.4 5978.26,10169.2 5987.19,10170.4C5987.19,10170.4 6030.31,10231.3 6024.22,10310.8C6036.41,10318.2 6048.24,10326.9 6056.1,10336C6079.16,10362.9 6135.07,10390.2 6063.09,10437C6036.17,10454.5 6014.04,10467.3 5996.88,10476.3C5994.41,10499.1 5988.22,10524.3 5974.3,10549.7C5940.23,10611.9 5897.43,10750.8 5904.42,10772.6C5911.41,10794.4 5909.66,10819.8 5941.11,10821.5C5972.56,10823.3 5992.65,10797.1 6008.37,10774.4C6008.37,10774.4 6008.37,10883.5 5900.05,10864.3C5792.45,10845.2 5792.52,10682.8 5813.07,10571.1C5795.75,10583.6 5772.54,10597.2 5742.26,10614.6C5665.41,10658.9 5591.76,10667.8 5586.16,10668.4L5586.16,10668.5L5585.99,10668.4L5585.82,10668.5L5585.82,10668.4C5580.22,10667.8 5506.58,10658.9 5429.73,10614.6C5350.36,10568.9 5319.6,10550.1 5315.83,10504.7C5301.12,10570.6 5291.08,10630.4 5282.1,10664.6C5256.51,10761.8 5230.91,10833.5 5125.14,10838.6C5019.36,10843.7 5039.83,10729.4 5039.83,10729.4C5039.83,10729.4 5067.26,10805.2 5135.4,10772C5186.31,10747.2 5172.64,10576.1 5167.15,10472C5151.28,10463.4 5131.83,10451.9 5108.89,10437C5036.92,10390.2 5092.82,10362.9 5115.88,10336C5125.31,10325 5140.46,10314.8 5155.08,10306.5C5155.84,10243 5200.73,10191.5 5200.73,10191.5C5207.18,10193.3 5213.93,10192.6 5220.89,10190Z" style="stroke:black;stroke-width:36.95px;"/>
            <g>
                <g transform="matrix(1,0,0,1,22.4292,-0.686624)">
                    <path d="M5173.82,10287.5C5173.82,10287.5 5116.51,10309.8 5093.45,10336.7C5070.39,10363.6 5014.49,10390.9 5086.47,10437.7C5158.44,10484.5 5196.18,10497.1 5196.18,10497.1L5173.82,10287.5" style="fill:rgb(211,175,146);"/>
                </g>
                <g transform="matrix(-1,0,0,1,11149.6,-0.686624)">
                    <path d="M5173.82,10287.5C5173.82,10287.5 5116.51,10309.8 5093.45,10336.7C5070.39,10363.6 5014.49,10390.9 5086.47,10437.7C5158.44,10484.5 5196.18,10497.1 5196.18,10497.1L5173.82,10287.5" style="fill:rgb(211,175,146);"/>
                </g>
                <g transform="matrix(0.99709,0,0,1,17.1032,0)">
                    <path d="M5599,10115.9L5740.15,10121.6L5878.35,10287L5856.17,10503.7C5852.76,10549.8 5822.05,10568.6 5741.86,10614.6C5664.78,10658.9 5590.93,10667.8 5585.31,10668.4L5585.31,10668.5L5585.14,10668.4L5584.97,10668.5L5584.97,10668.4C5579.35,10667.8 5505.49,10658.9 5428.42,10614.6C5348.23,10568.6 5317.52,10549.8 5314.11,10503.7L5291.93,10287L5430.12,10121.6L5571.28,10115.9L5571.25,10114.7L5585.14,10115.3L5599.03,10114.7L5599,10115.9Z" style="fill:rgb(211,175,146);"/>
                </g>
                <path d="M5220.44,10194.8C5220.44,10194.8 5225.33,10134.5 5238.61,10109.4C5251.89,10084.2 5256.08,10080.2 5242.8,10050.8C5242.8,10050.8 5328.06,9952.82 5427.29,9901.11C5427.29,9901.11 5448.26,9908.09 5455.94,9922.77C5455.94,9922.77 5527.22,9907.4 5585.22,9950.02L5440.57,10124.7L5220.44,10194.8Z" style="fill:rgb(114,21,51);"/>
                <path d="M5437.64,10064.5C5437.64,10064.5 5487.95,9978.36 5575.31,9945.52C5662.66,9912.68 5789.14,9952.51 5789.14,9952.51C5789.14,9952.51 5806.21,9958.42 5818.37,9954.84C5818.37,9954.84 5937.16,9997.96 5953.37,10113.1C5953.37,10113.1 5937.27,10120.9 5945.06,10133.7C5952.85,10146.5 5960.63,10160.7 5963.61,10170.4C5963.61,10170.4 5978.26,10169.2 5987.19,10170.4C5987.19,10170.4 6056.2,10268 6007.28,10377.2C6007.28,10377.2 5996.71,10373.7 5996.43,10400.1C5996.14,10426.4 6008.37,10487.5 5974.3,10549.7C5940.23,10611.9 5897.43,10750.8 5904.42,10772.6C5911.41,10794.4 5909.66,10819.8 5941.11,10821.5C5972.56,10823.3 5992.65,10797.1 6008.37,10774.4C6008.37,10774.4 6008.37,10883.5 5900.05,10864.3C5791.74,10845.1 5792.53,10680.6 5813.49,10568.8C5813.49,10568.8 5856.38,10548.1 5852.01,10501.8C5847.64,10455.5 5842.4,10365.5 5814.45,10297.4C5786.49,10229.3 5615.21,10141.2 5468.06,10200.6L5410.88,10146.3L5437.64,10064.5Z" style="fill:rgb(122,19,52);"/>
                <clipPath id="_clip1">
                    <path d="M5437.64,10064.5C5437.64,10064.5 5487.95,9978.36 5575.31,9945.52C5662.66,9912.68 5789.14,9952.51 5789.14,9952.51C5789.14,9952.51 5806.21,9958.42 5818.37,9954.84C5818.37,9954.84 5937.16,9997.96 5953.37,10113.1C5953.37,10113.1 5937.27,10120.9 5945.06,10133.7C5952.85,10146.5 5960.63,10160.7 5963.61,10170.4C5963.61,10170.4 5978.26,10169.2 5987.19,10170.4C5987.19,10170.4 6056.2,10268 6007.28,10377.2C6007.28,10377.2 5996.71,10373.7 5996.43,10400.1C5996.14,10426.4 6008.37,10487.5 5974.3,10549.7C5940.23,10611.9 5897.43,10750.8 5904.42,10772.6C5911.41,10794.4 5909.66,10819.8 5941.11,10821.5C5972.56,10823.3 5992.65,10797.1 6008.37,10774.4C6008.37,10774.4 6008.37,10883.5 5900.05,10864.3C5791.74,10845.1 5792.53,10680.6 5813.49,10568.8C5813.49,10568.8 5856.38,10548.1 5852.01,10501.8C5847.64,10455.5 5842.4,10365.5 5814.45,10297.4C5786.49,10229.3 5615.21,10141.2 5468.06,10200.6L5410.88,10146.3L5437.64,10064.5Z"/>
                </clipPath>
                <g clip-path="url(#_clip1)">
                    <path d="M5468.06,10204.8C5468.06,10204.8 5506.89,10150.2 5626.38,10161.4C5745.88,10172.6 5838.76,10227.1 5863.33,10325.5C5887.89,10423.9 5896.42,10541.9 5893.01,10606.8C5889.6,10671.6 5852.25,10812.1 5929.4,10826.1C6006.55,10840.1 6000.96,10783 6006.55,10757.3L6056.72,10752.2L6037.51,10838.8L5913.47,10894.5L5719.55,10824.7L5698.58,10583.6L5468.06,10204.8Z" style="fill:rgb(227,227,227);"/>
                    <path d="M5698.81,9976.95C5698.81,9976.95 5686.23,10009.8 5741.44,10035.7C5796.64,10061.5 5831.59,10051.7 5836.48,10023.8C5841.37,9995.82 5726.06,9923.84 5698.81,9976.95Z" style="fill:rgb(227,227,227);"/>
                    <path d="M5989.39,10254.1C5989.39,10254.1 5985.1,10208 5992.25,10196.9C5999.41,10185.8 6007.28,10222.3 6010.14,10242.3C6013,10262.4 6020.52,10307.5 6015.15,10336.1C6009.78,10364.7 6004.42,10359.7 5998.69,10332.9C5992.97,10306 5990.82,10289.6 5989.39,10254.1Z" style="fill:rgb(227,227,227);"/>
                </g>
                <path d="M5039.83,10729.4C5039.83,10729.4 5019.36,10843.7 5125.14,10838.6C5230.91,10833.5 5256.51,10761.8 5282.1,10664.6C5307.69,10567.3 5341.81,10261.9 5468.06,10200.5C5468.06,10200.5 5420.29,10115.2 5439.06,10064C5439.06,10064 5392.49,10032.7 5347.77,10066.3C5303.04,10099.8 5244.9,10203.8 5200.73,10191.5C5200.73,10191.5 5128.06,10274.8 5166.07,10360.3C5166.07,10360.3 5178.37,10352 5167.19,10397.8C5156.01,10443.6 5203.53,10738.8 5135.4,10772C5067.26,10805.2 5039.83,10729.4 5039.83,10729.4Z" style="fill:rgb(131,18,54);"/>
                <clipPath id="_clip2">
                    <path d="M5039.83,10729.4C5039.83,10729.4 5019.36,10843.7 5125.14,10838.6C5230.91,10833.5 5256.51,10761.8 5282.1,10664.6C5307.69,10567.3 5341.81,10261.9 5468.06,10200.5C5468.06,10200.5 5420.29,10115.2 5439.06,10064C5439.06,10064 5392.49,10032.7 5347.77,10066.3C5303.04,10099.8 5244.9,10203.8 5200.73,10191.5C5200.73,10191.5 5128.06,10274.8 5166.07,10360.3C5166.07,10360.3 5178.37,10352 5167.19,10397.8C5156.01,10443.6 5203.53,10738.8 5135.4,10772C5067.26,10805.2 5039.83,10729.4 5039.83,10729.4Z"/>
                </clipPath>
                <g clip-path="url(#_clip2)">
                    <path d="M5481.04,10204.8C5481.04,10204.8 5350.02,10224.9 5300.22,10397C5250.43,10569.1 5202.39,10760.2 5152.16,10778.8C5101.94,10797.3 5037.51,10806 5041.88,10706.7L4981.83,10712.1L5008.03,10845.4L5164.17,10894.5L5354.16,10719.8L5496.11,10242.6L5481.04,10204.8Z" style="fill:rgb(227,227,227);"/>
                    <path d="M5192.78,10228.5C5192.78,10228.5 5151.99,10284.7 5172.75,10325.5C5172.75,10325.5 5204.59,10298.7 5192.78,10228.5Z" style="fill:rgb(227,227,227);"/>
                </g>
                <g transform="matrix(1,0,0,1,-15.7191,0.219526)">
                    <path d="M5433.9,10338.9C5433.9,10338.9 5484.91,10327.8 5528.24,10355.4C5571.57,10383 5540.12,10415.8 5510.07,10390C5480.02,10364.1 5468.14,10350.8 5433.9,10338.9Z" style="fill:rgb(122,19,52);"/>
                </g>
                <g transform="matrix(-1,0,0,1,11187.7,0.219526)">
                    <path d="M5433.9,10338.9C5433.9,10338.9 5484.91,10327.8 5528.24,10355.4C5571.57,10383 5540.12,10415.8 5510.07,10390C5480.02,10364.1 5468.14,10350.8 5433.9,10338.9Z" style="fill:rgb(122,19,52);"/>
                </g>
            </g>
        </g>
    </g>
</svg>
