<?xml version="1.0" encoding="UTF-8" standalone="no"?>
<!DOCTYPE svg PUBLIC "-//W3C//DTD SVG 1.1//EN" "http://www.w3.org/Graphics/SVG/1.1/DTD/svg11.dtd">
<svg width="100%" height="100%" viewBox="0 0 256 197" version="1.1" xmlns="http://www.w3.org/2000/svg" xmlns:xlink="http://www.w3.org/1999/xlink" xml:space="preserve" xmlns:serif="http://www.serif.com/" style="fill-rule:evenodd;clip-rule:evenodd;stroke-linecap:round;stroke-linejoin:round;stroke-miterlimit:1.5;">
    <g transform="matrix(1,0,0,1,-7897.83,-13644.3)">
        <g transform="matrix(1,0,0,1,438.466,1965.8)">
            <path d="M7622.89,11698.1C7628.61,11693.2 7642.59,11682 7651.6,11682.6C7662.73,11683.5 7669.94,11696.8 7657.08,11724.6C7663.85,11735.3 7667.82,11746.8 7670.59,11754.6C7678.21,11776.3 7696.73,11780.1 7696.73,11780.1C7693.62,11786.5 7685.48,11794.8 7685.48,11794.8C7689.29,11799.1 7704.01,11808.1 7704.01,11808.1C7698.64,11811.2 7692.23,11817.3 7692.23,11817.3C7696.56,11821.6 7710.72,11828.9 7710.72,11828.9C7701.19,11832.8 7684.53,11841.9 7673.92,11850.9C7663.31,11860 7648.6,11860.9 7634.31,11865.9C7620.02,11870.9 7587.12,11870.9 7587.12,11870.9L7586.75,11870.9C7583.08,11870.8 7553.33,11870.5 7539.94,11865.9C7525.65,11860.9 7510.93,11860 7500.33,11850.9C7489.72,11841.9 7473.06,11832.8 7463.53,11828.9C7463.53,11828.9 7477.69,11821.6 7482.02,11817.3C7482.02,11817.3 7475.61,11811.2 7470.24,11808.1C7470.24,11808.1 7484.96,11799.1 7488.77,11794.8C7488.77,11794.8 7480.63,11786.5 7477.51,11780.1C7477.51,11780.1 7496.04,11776.3 7503.66,11754.6C7506.43,11746.8 7510.4,11735.3 7517.17,11724.6C7504.31,11696.8 7511.52,11683.5 7522.65,11682.6C7531.66,11682 7545.65,11693.2 7551.36,11698.1C7561.15,11695.7 7572.91,11695.7 7587.12,11699.6L7587.81,11699.4C7601.72,11695.7 7613.27,11695.7 7622.89,11698.1Z" style="stroke:black;stroke-width:8.33px;"/>
            <g>
                <g transform="matrix(1,0,0,1,275.688,21.1376)">
                    <path d="M7344.63,11679.3C7344.63,11679.3 7364.35,11660.7 7375.91,11661.5C7387.47,11662.4 7394.79,11676.7 7379.86,11706.6L7344.63,11679.3" style="fill:rgb(212,236,244);"/>
                    <clipPath id="_clip1">
                        <path d="M7344.63,11679.3C7344.63,11679.3 7364.35,11660.7 7375.91,11661.5C7387.47,11662.4 7394.79,11676.7 7379.86,11706.6L7344.63,11679.3"/>
                    </clipPath>
                    <g clip-path="url(#_clip1)">
                        <path d="M7356.34,11684.8C7356.34,11684.8 7371.49,11668.7 7377.81,11669.4C7384.12,11670.2 7388.63,11678.1 7375.1,11700.3L7356.34,11684.8Z" style="fill:rgb(124,152,191);"/>
                    </g>
                </g>
                <g transform="matrix(-1,0,0,1,14898.6,21.1376)">
                    <path d="M7344.63,11679.3C7344.63,11679.3 7364.35,11660.7 7375.91,11661.5C7387.47,11662.4 7394.79,11676.7 7379.86,11706.6L7344.63,11679.3" style="fill:rgb(212,236,244);"/>
                    <clipPath id="_clip2">
                        <path d="M7344.63,11679.3C7344.63,11679.3 7364.35,11660.7 7375.91,11661.5C7387.47,11662.4 7394.79,11676.7 7379.86,11706.6L7344.63,11679.3"/>
                    </clipPath>
                    <g clip-path="url(#_clip2)">
                        <path d="M7356.34,11684.8C7356.34,11684.8 7371.49,11668.7 7377.81,11669.4C7384.12,11670.2 7388.63,11678.1 7375.1,11700.3L7356.34,11684.8Z" style="fill:rgb(124,152,191);"/>
                    </g>
                </g>
                <g transform="matrix(1,0,0,1,-338.876,-43.0045)">
                    <path d="M7925.63,11913.9C7921.96,11913.8 7892.21,11913.6 7878.81,11908.9C7864.53,11903.9 7849.81,11903 7839.2,11893.9C7828.6,11884.9 7811.93,11875.8 7802.41,11871.9C7802.41,11871.9 7816.56,11864.6 7820.89,11860.3C7820.89,11860.3 7814.49,11854.3 7809.12,11851.1C7809.12,11851.1 7823.84,11842.1 7827.65,11837.8C7827.65,11837.8 7819.51,11829.5 7816.39,11823.1C7816.39,11823.1 7834.92,11819.3 7842.54,11797.6C7850.16,11776 7866.95,11726.6 7926,11742.6L7926.69,11742.4C7985.18,11727 8001.87,11776.1 8009.46,11797.6C8017.08,11819.3 8035.61,11823.1 8035.61,11823.1C8032.49,11829.5 8024.35,11837.8 8024.35,11837.8C8028.16,11842.1 8042.88,11851.1 8042.88,11851.1C8037.52,11854.3 8031.11,11860.3 8031.11,11860.3C8035.44,11864.6 8049.59,11871.9 8049.59,11871.9C8040.07,11875.8 8023.4,11884.9 8012.8,11893.9C8002.19,11903 7987.47,11903.9 7973.19,11908.9C7958.9,11913.9 7926,11913.9 7926,11913.9L7925.63,11913.9Z" style="fill:rgb(220,246,255);"/>
                </g>
                <g transform="matrix(1,0,0,1,272.29,32.8623)">
                    <path d="M7316.36,11788.3C7316.36,11788.3 7301.39,11785.2 7295.61,11776.7C7289.84,11768.3 7296.88,11764.3 7304.63,11760.1C7312.39,11756 7315.1,11753.7 7325.92,11760.3C7336.74,11767 7339.45,11773.3 7331.87,11779.4C7324.29,11785.6 7316.36,11788.3 7316.36,11788.3Z" style="fill:rgb(53,53,53);"/>
                </g>
                <g transform="matrix(1,0,0,1,272.695,25.1316)">
                    <path d="M7312.06,11727.8L7312.06,11727.7C7312.06,11727.7 7348.13,11726.9 7377.95,11730.8C7377.95,11730.8 7382.52,11734.4 7381.56,11752.2C7380.6,11770 7365.99,11762.6 7361.18,11760.4C7356.38,11758.2 7336.31,11757.1 7333.85,11745.7C7331.76,11736.1 7325.77,11734.9 7316.93,11734.8C7305.35,11734.6 7297.47,11734.5 7295.01,11745.8C7292.55,11757.2 7272.48,11758.3 7267.68,11760.5C7262.87,11762.7 7248.26,11770 7247.3,11752.2C7246.34,11734.4 7250.91,11730.8 7250.91,11730.8C7274.2,11727.8 7301.3,11727.7 7312.06,11727.8Z" style="fill:rgb(48,56,67);"/>
                </g>
            </g>
        </g>
    </g>
</svg>
