<?xml version="1.0" encoding="UTF-8" standalone="no"?>
<!DOCTYPE svg PUBLIC "-//W3C//DTD SVG 1.1//EN" "http://www.w3.org/Graphics/SVG/1.1/DTD/svg11.dtd">
<svg width="100%" height="100%" viewBox="0 0 203 197" version="1.1" xmlns="http://www.w3.org/2000/svg" xmlns:xlink="http://www.w3.org/1999/xlink" xml:space="preserve" xmlns:serif="http://www.serif.com/" style="fill-rule:evenodd;clip-rule:evenodd;stroke-linecap:round;stroke-linejoin:round;stroke-miterlimit:1.5;">
    <g transform="matrix(1,0,0,1,-4041.795699,-11894.432126)">
        <g transform="matrix(5.15324,0,0,5.15324,-13344.812766,-55084.180847)">
            <path d="M3379.774,13007.766C3380.602,13004.181 3383.485,12997.877 3393.533,12998.199L3393.615,12998.196C3403.597,12997.913 3406.467,13004.191 3407.292,13007.766C3409.152,13005.961 3410.908,13003.988 3412.341,13001.905L3411.765,13008.954C3411.765,13008.954 3411.002,13009.772 3409.935,13010.808C3411.064,13015.779 3406.849,13018.844 3405.679,13019.588L3405.644,13023.208L3402.754,13026.625L3402.828,13031.839L3400.676,13032.107L3400.676,13029.622C3396.939,13035.093 3393.989,13034.803 3393.737,13034.767C3393.476,13034.804 3390.318,13035.114 3386.391,13029.008L3386.391,13032.107L3384.239,13031.839L3384.313,13026.625L3381.422,13023.208L3381.388,13019.588C3380.218,13018.844 3376.003,13015.78 3377.132,13010.808C3376.064,13009.772 3375.302,13008.954 3375.302,13008.954L3374.726,13001.905C3376.159,13003.988 3377.915,13005.961 3379.774,13007.766Z" style="stroke:black;stroke-width:1.62px;"/>
            <g>
                <g transform="matrix(0.953641,0,0,0.953641,54.307032,606.142397)">
                    <path d="M3489.127,13017.082C3489.127,13017.082 3482.618,13013.526 3484.497,13007.151L3486.779,13007.017C3486.779,13007.017 3486.874,12993.999 3501.556,12994.469L3501.641,12994.466C3516.237,12994.051 3516.332,13007.017 3516.332,13007.017L3518.614,13007.151C3520.493,13013.526 3513.984,13017.082 3513.984,13017.082L3501.556,13019.632L3489.127,13017.082Z" style="fill:rgb(221,221,221);"/>
                </g>
                <g transform="matrix(1,0,0,1,-108.022049,1.791837)">
                    <path d="M3501.556,13019.632L3510.649,13011.153L3512.789,13018.403L3511.063,13023.72C3506.275,13033.43 3502.063,13033.019 3501.759,13032.975C3501.456,13033.019 3497.243,13033.43 3492.455,13023.72L3490.729,13018.403L3492.869,13011.153L3501.556,13019.632Z" style="fill:rgb(242,190,144);"/>
                </g>
                <g transform="matrix(0.824387,0,0,1,506.486106,2.555765)">
                    <path d="M3493.389,13029.552L3493.389,13016.065L3487.275,13013.063L3487.362,13020.652L3490.869,13024.069L3490.779,13029.284L3493.389,13029.552Z" style="fill:rgb(29,29,29);"/>
                </g>
                <g transform="matrix(-0.824387,0,0,1,6280.580811,2.555765)">
                    <path d="M3493.389,13029.552L3493.389,13016.065L3487.275,13013.063L3487.362,13020.652L3490.869,13024.069L3490.779,13029.284L3493.389,13029.552Z" style="fill:rgb(29,29,29);"/>
                </g>
                <g transform="matrix(1,0,0,1,-108.022049,1.791837)">
                    <path d="M3501.556,13016.266C3503.123,13015.367 3514.478,13008.673 3520.363,13000.113L3519.787,13007.162C3519.787,13007.162 3516.398,13010.796 3513.912,13012.453L3513.747,13015.841L3501.592,13023.676L3501.519,13023.676L3489.364,13015.841L3489.199,13012.453C3486.713,13010.796 3483.324,13007.162 3483.324,13007.162L3482.748,13000.113C3488.633,13008.673 3499.988,13015.367 3501.556,13016.266Z" style="fill:rgb(135,135,135);"/>
                </g>
            </g>
        </g>
    </g>
</svg>
