<?xml version="1.0" encoding="UTF-8" standalone="no"?>
<!DOCTYPE svg PUBLIC "-//W3C//DTD SVG 1.1//EN" "http://www.w3.org/Graphics/SVG/1.1/DTD/svg11.dtd">
<svg width="100%" height="100%" viewBox="0 0 183 202" version="1.1" xmlns="http://www.w3.org/2000/svg" xmlns:xlink="http://www.w3.org/1999/xlink" xml:space="preserve" xmlns:serif="http://www.serif.com/" style="fill-rule:evenodd;clip-rule:evenodd;stroke-linecap:round;stroke-linejoin:round;stroke-miterlimit:1.5;">
    <g transform="matrix(1,0,0,1,-505.022662,-13762.239368)">
        <g transform="matrix(1.223729,0,0,1.223729,-1705.352246,1799.570119)">
            <g transform="matrix(5.15324,0,0,5.15324,-16164.506414,-57225.401218)">
                <path d="M3488.329,13016.011C3487.906,13015.064 3487.783,13013.997 3488.167,13012.821C3488.167,13012.821 3488.203,13008.348 3491.819,13005.258C3491.861,13004.117 3491.883,13003.333 3491.883,13003.333C3492.092,13003.699 3492.402,13004.116 3492.757,13004.546C3494.758,13003.2 3497.632,13002.273 3501.759,13002.392L3501.838,13002.39C3505.936,13002.285 3508.792,13003.215 3510.781,13004.56C3511.141,13004.125 3511.455,13003.702 3511.667,13003.333C3511.667,13003.333 3511.688,13004.13 3511.732,13005.286C3515.315,13008.375 3515.351,13012.821 3515.351,13012.821C3515.789,13014.163 3515.642,13015.362 3515.179,13016.404C3514.173,13025.247 3508.39,13028.276 3508.39,13028.276C3508.391,13028.274 3508.391,13028.271 3508.392,13028.268C3504.801,13033.286 3502.004,13033.01 3501.759,13032.975C3501.514,13033.01 3498.711,13033.286 3495.114,13028.251C3494.565,13027.942 3489.161,13024.691 3488.329,13016.011Z" style="stroke:black;stroke-width:1.32px;"/>
            </g>
            <g>
                <g transform="matrix(5.15324,0,0,5.15324,-16164.506414,-57225.401218)">
                    <path d="M3492.869,13011.153L3510.649,13011.153L3512.789,13018.403L3511.063,13023.72C3506.275,13033.43 3502.063,13033.019 3501.759,13032.975C3501.456,13033.019 3497.243,13033.43 3492.455,13023.72L3490.729,13018.403L3492.869,13011.153Z" style="fill:rgb(242,190,144);"/>
                </g>
                <g transform="matrix(4.740082,0,0,4.282948,-14716.763103,-45875.588715)">
                    <path d="M3494.191,13017.082C3494.191,13017.082 3484.9,13013.392 3486.779,13007.017C3486.779,13007.017 3486.874,12993.999 3501.556,12994.469L3501.641,12994.466C3516.237,12994.051 3516.332,13007.017 3516.332,13007.017C3518.211,13013.392 3510.186,13017.082 3510.186,13017.082L3501.556,13015.556L3494.191,13017.082Z" style="fill:rgb(87,67,105);"/>
                    <clipPath id="_clip1">
                        <path d="M3494.191,13017.082C3494.191,13017.082 3484.9,13013.392 3486.779,13007.017C3486.779,13007.017 3486.874,12993.999 3501.556,12994.469L3501.641,12994.466C3516.237,12994.051 3516.332,13007.017 3516.332,13007.017C3518.211,13013.392 3510.186,13017.082 3510.186,13017.082L3501.556,13015.556L3494.191,13017.082Z"/>
                    </clipPath>
                    <g clip-path="url(#_clip1)">
                        <g transform="matrix(0.210967,0,0,0.233484,3104.699888,10711.217497)">
                            <rect x="1876.993" y="9761.316" width="8.433" height="98.959" style="fill:rgb(63,63,62);"/>
                        </g>
                    </g>
                </g>
                <g transform="matrix(0.220504,0,0,0.220504,1673.400464,7731.665176)">
                    <path d="M941.59,9872.043L941.184,9872.043C941.184,9872.043 904.26,9814.979 856.148,9813.86C808.036,9812.741 780.063,9810.504 780.063,9810.504C780.063,9810.504 777.825,9844.071 786.777,9889.945C786.777,9889.945 645.796,9816.098 626.775,9599.033C626.775,9599.033 691.671,9649.383 728.594,9582.249L941.387,9591.922L1154.18,9582.249C1191.103,9649.383 1255.999,9599.033 1255.999,9599.033C1236.978,9816.098 1095.997,9889.945 1095.997,9889.945C1104.948,9844.071 1102.71,9810.504 1102.71,9810.504C1102.71,9810.504 1074.738,9812.741 1026.626,9813.86C978.513,9814.979 941.59,9872.043 941.59,9872.043Z" style="fill:rgb(63,63,62);"/>
                </g>
                <g transform="matrix(0.227818,-0.006577,0.006577,0.227818,1602.415961,7666.886739)">
                    <path d="M949.84,9453.517C967.847,9449.14 1030.773,9434.074 1083.747,9424.224C1083.747,9424.224 1154.487,9363.756 1177.261,9326.518C1177.261,9326.518 1177.133,9406.308 1179.516,9473.692C1181.898,9541.075 1209.359,9652.327 1134.423,9701.654C1059.547,9750.941 1030.408,9719.76 938.03,9866.427L937.811,9866.421C854.048,9714.669 823.158,9744.117 751.25,9690.593C679.285,9637.025 713.117,9527.542 719.383,9460.408C725.649,9393.275 730.124,9313.61 730.124,9313.61C750.712,9352.1 817.846,9416.548 817.846,9416.548C870.164,9429.438 932.116,9448.108 949.84,9453.517Z" style="fill:rgb(90,71,107);"/>
                </g>
            </g>
        </g>
    </g>
</svg>
