<?xml version="1.0" encoding="UTF-8" standalone="no"?>
<!DOCTYPE svg PUBLIC "-//W3C//DTD SVG 1.1//EN" "http://www.w3.org/Graphics/SVG/1.1/DTD/svg11.dtd">
<svg width="100%" height="100%" viewBox="0 0 201 201" version="1.1" xmlns="http://www.w3.org/2000/svg" xmlns:xlink="http://www.w3.org/1999/xlink" xml:space="preserve" xmlns:serif="http://www.serif.com/" style="fill-rule:evenodd;clip-rule:evenodd;stroke-linecap:round;stroke-linejoin:round;stroke-miterlimit:1.5;">
    <g transform="matrix(1,0,0,1,-7322.999205,-13562.493405)">
        <g transform="matrix(0.6582,0,0,0.6582,6795.66732,6645.089967)">
            <g transform="matrix(1,0,0,1,-876.708189,118.262649)">
                <path d="M1714.443,10553.243C1713.537,10554.239 1712.635,10555.256 1711.739,10556.295L1712.633,10488.761C1712.633,10488.761 1720.237,10446.72 1757.805,10421.675C1795.373,10396.629 1830.403,10397.646 1830.403,10397.646C1830.403,10397.646 1865.433,10396.629 1903.002,10421.675C1940.57,10446.72 1948.173,10488.761 1948.173,10488.761L1949.067,10556.295C1948.171,10555.222 1947.26,10554.164 1946.334,10553.123C1949.141,10564.815 1954.481,10584.003 1961.955,10597.551C1973.405,10618.303 1985.212,10647.284 1967.68,10660.88C1950.867,10673.919 1939.976,10687.287 1885.148,10677.316C1860.268,10687.183 1833.67,10688.954 1830.555,10689.132L1830.251,10689.132C1827.136,10688.954 1800.539,10687.183 1775.658,10677.316C1720.83,10687.287 1709.94,10673.919 1693.127,10660.88C1675.595,10647.284 1687.402,10618.303 1698.851,10597.551C1706.3,10584.05 1711.629,10564.946 1714.443,10553.243Z" style="stroke:black;stroke-width:12.66px;"/>
            </g>
            <g>
                <g transform="matrix(1,0,0,1,-876.708189,118.262649)">
                    <path d="M1830.251,10689.132C1825.191,10688.843 1758.168,10684.35 1737.192,10647.778C1715.389,10609.762 1746.696,10467.204 1746.696,10467.204L1820.768,10465.43L1820.748,10464.968L1830.403,10465.199L1840.058,10464.968L1840.039,10465.43L1914.11,10467.204C1914.11,10467.204 1945.417,10609.762 1923.614,10647.778C1902.639,10684.35 1835.616,10688.843 1830.555,10689.132L1830.251,10689.132Z" style="fill:rgb(252,227,200);"/>
                </g>
                <g transform="matrix(1,0,0,1,0.806279,-0.286231)">
                    <path d="M885.37,10663.9C885.37,10663.9 902.315,10652.68 916.284,10660.237C930.252,10667.793 928.878,10664.129 930.71,10661.382C932.542,10658.634 910.33,10634.361 885.37,10663.9Z" style="fill:rgb(85,104,149);"/>
                </g>
                <g transform="matrix(-1,0,0,1,1906.583768,-0.286231)">
                    <path d="M885.37,10663.9C885.37,10663.9 902.315,10652.68 916.284,10660.237C930.252,10667.793 928.878,10664.129 930.71,10661.382C932.542,10658.634 910.33,10634.361 885.37,10663.9Z" style="fill:rgb(85,104,149);"/>
                </g>
                <path d="M840.033,10661.071C840.033,10661.071 833.593,10695.061 822.143,10715.813C810.694,10736.565 798.887,10765.547 816.418,10779.143C833.95,10792.739 845.042,10806.693 906.225,10794.17C906.225,10794.17 892.628,10786.299 881.895,10780.574C881.895,10780.574 888.693,10777.354 894.06,10770.913C894.06,10770.913 867.941,10761.969 867.225,10742.648C866.51,10723.327 859.711,10669.206 880.106,10655.614C900.5,10642.022 953.695,10611.967 953.695,10611.967L865.794,10627.352L840.033,10661.071Z" style="fill:rgb(85,104,148);"/>
                <g transform="matrix(-1,0,0,1,1907.390047,0)">
                    <path d="M840.033,10661.071C840.033,10661.071 833.593,10695.061 822.143,10715.813C810.694,10736.565 798.887,10765.547 816.418,10779.143C833.95,10792.739 845.042,10806.693 906.225,10794.17C906.225,10794.17 892.628,10786.299 881.895,10780.574C881.895,10780.574 888.693,10777.354 894.06,10770.913C894.06,10770.913 867.941,10761.969 867.225,10742.648C866.51,10723.327 859.711,10669.206 880.106,10655.614C900.5,10642.022 953.695,10611.967 953.695,10611.967L865.794,10627.352L840.033,10661.071Z" style="fill:rgb(85,104,148);"/>
                </g>
                <g transform="matrix(1,0,0,1,0,6)">
                    <path d="M953.695,10509.909C953.695,10509.909 988.725,10508.892 1026.293,10533.938C1063.862,10558.983 1071.465,10601.024 1071.465,10601.024L1072.359,10668.557C1044.911,10635.706 1004.042,10617.953 953.695,10610.863C912.061,10620.888 869.824,10628.239 835.031,10668.557L835.925,10601.024C835.925,10601.024 843.528,10558.983 881.097,10533.938C918.665,10508.892 953.695,10509.909 953.695,10509.909Z" style="fill:rgb(118,196,189);"/>
                </g>
                <g transform="matrix(1,0,0,1,0,6)">
                    <path d="M953.695,10606.391C953.695,10606.391 1009.298,10610.416 1062.967,10655.587C1062.967,10655.587 1035.685,10656.929 1010.64,10640.381C985.594,10623.833 965.626,10622.044 953.695,10621.597C941.765,10622.044 921.796,10623.833 896.75,10640.381C871.705,10656.929 844.423,10655.587 844.423,10655.587C898.092,10610.416 953.695,10606.391 953.695,10606.391Z" style="fill:rgb(105,172,165);"/>
                </g>
                <g transform="matrix(1,0,0,1,0.920053,0)">
                    <ellipse cx="952.775" cy="10583.148" rx="55.905" ry="19.455" style="fill:rgb(235,90,48);"/>
                </g>
            </g>
        </g>
    </g>
</svg>
