<?xml version="1.0" encoding="UTF-8" standalone="no"?>
<!DOCTYPE svg PUBLIC "-//W3C//DTD SVG 1.1//EN" "http://www.w3.org/Graphics/SVG/1.1/DTD/svg11.dtd">
<svg width="100%" height="100%" viewBox="0 0 195 201" version="1.1" xmlns="http://www.w3.org/2000/svg" xmlns:xlink="http://www.w3.org/1999/xlink" xml:space="preserve" xmlns:serif="http://www.serif.com/" style="fill-rule:evenodd;clip-rule:evenodd;stroke-linecap:round;stroke-linejoin:round;stroke-miterlimit:1.5;">
    <g transform="matrix(1,0,0,1,-1904.964158,-13160.510548)">
        <g transform="matrix(0.708728,0,0,0.708728,737.148907,4411.193656)">
            <g transform="matrix(0.901209,0,0,1.320769,176.306479,-4000.268182)">
                <path d="M1908.272,12497.073C1914.394,12510.925 1920.863,12524.51 1925.71,12532.05C1938.289,12551.617 1924.313,12585.415 1867.708,12584.939C1811.104,12584.462 1855.999,12578.871 1784.634,12574.678C1713.27,12578.871 1758.164,12584.462 1701.56,12584.939C1644.956,12585.415 1630.979,12551.617 1643.558,12532.05C1648.405,12524.51 1654.875,12510.925 1660.996,12497.073C1650.481,12487.678 1643.489,12477.902 1652.34,12473.12C1658.96,12469.544 1665.812,12468.585 1672.014,12468.901C1671.778,12467.682 1671.679,12466.583 1671.696,12465.593C1663.011,12463.865 1656.218,12461.12 1652.626,12456.984C1633.24,12434.662 1652.514,12380.099 1784.634,12380.099C1916.754,12380.099 1936.028,12434.662 1916.643,12456.984C1913.05,12461.12 1906.257,12463.865 1897.573,12465.593C1897.589,12466.583 1897.49,12467.682 1897.255,12468.901C1903.456,12468.585 1910.308,12469.544 1916.928,12473.12C1925.78,12477.902 1918.787,12487.678 1908.272,12497.073Z" style="stroke:black;stroke-width:10.4px;"/>
            </g>
            <g>
                <g transform="matrix(0.901209,0,0,1.320769,176.306479,-4000.268182)">
                    <path d="M1784.634,12444.698L1889.629,12452.208C1889.629,12452.208 1913.132,12512.484 1925.71,12532.05C1938.289,12551.617 1924.313,12585.415 1867.708,12584.939C1811.104,12584.462 1855.999,12578.871 1784.634,12574.678C1713.27,12578.871 1758.164,12584.462 1701.56,12584.939C1644.956,12585.415 1630.979,12551.617 1643.558,12532.05C1656.137,12512.484 1679.639,12452.208 1679.639,12452.208L1784.634,12444.698Z" style="fill:rgb(74,92,127);"/>
                </g>
                <g transform="matrix(0.999555,-0.029823,0.029823,0.999555,-377.214926,44.528403)">
                    <path d="M1871.461,12493.603C1871.461,12493.603 1891.839,12477.055 1909.379,12491.814C1926.92,12506.573 1871.014,12552.639 1871.014,12552.639" style="fill:rgb(227,204,183);"/>
                </g>
                <g transform="matrix(-0.999555,-0.029823,-0.029823,0.999555,3946.483204,44.528403)">
                    <path d="M1871.461,12493.603C1871.461,12493.603 1891.839,12477.055 1909.379,12491.814C1926.92,12506.573 1871.014,12552.639 1871.014,12552.639" style="fill:rgb(227,204,183);"/>
                </g>
                <g transform="matrix(1,0,0,1,353.776799,11.869364)">
                    <path d="M1430.857,12593.069C1430.857,12593.069 1348.953,12576.298 1337.073,12530.874C1325.193,12485.451 1339.17,12414.172 1339.17,12414.172L1430.857,12375.038L1522.545,12414.172C1522.545,12414.172 1536.521,12485.451 1524.641,12530.874C1512.761,12576.298 1430.857,12593.069 1430.857,12593.069Z" style="fill:rgb(235,210,187);"/>
                </g>
                <g transform="matrix(1,0,0,1,-6.014417,0)">
                    <path d="M1879.582,12501.99C1879.582,12501.99 1882.166,12480.966 1879.582,12452.45C1879.582,12452.45 1908.493,12445.814 1879.582,12501.99Z" style="fill:rgb(74,92,127);"/>
                </g>
                <g transform="matrix(-1,0,0,1,3575.282694,0)">
                    <path d="M1879.582,12501.99C1879.582,12501.99 1882.166,12480.966 1879.582,12452.45C1879.582,12452.45 1908.493,12445.814 1879.582,12501.99Z" style="fill:rgb(74,92,127);"/>
                </g>
                <g transform="matrix(1,0,0,1,353.776799,14.413117)">
                    <path d="M1430.857,12443.577C1430.857,12443.577 1329.361,12467.599 1311.89,12438.117C1294.42,12408.636 1311.789,12336.57 1430.857,12336.57C1549.925,12336.57 1567.295,12408.636 1549.824,12438.117C1532.354,12467.599 1430.857,12443.577 1430.857,12443.577Z" style="fill:rgb(118,195,187);"/>
                </g>
                <g transform="matrix(1,0,0,1,353.776799,14.919773)">
                    <path d="M1430.857,12414.095C1430.857,12414.095 1521.697,12411.706 1525.61,12444.69C1529.524,12477.675 1473.632,12450.397 1430.857,12450.618C1388.083,12450.397 1332.191,12477.675 1336.104,12444.69C1340.018,12411.706 1430.857,12414.095 1430.857,12414.095Z" style="fill:rgb(110,183,175);"/>
                </g>
                <g transform="matrix(1,0,0,1,350.373278,14.360714)">
                    <ellipse cx="1434.261" cy="12380.927" rx="29.196" ry="26.906" style="fill:rgb(225,92,54);"/>
                </g>
                <g transform="matrix(1,0,0,1,1270.302746,292.81663)">
                    <path d="M536.2,12205.044C536.2,12205.044 555.664,12195.198 579.708,12203.899C579.708,12203.899 556.58,12179.626 536.2,12205.044Z" style="fill:rgb(74,92,127);"/>
                </g>
                <g transform="matrix(-1,0,0,1,2298.965531,292.81663)">
                    <path d="M536.2,12205.044C536.2,12205.044 555.664,12195.198 579.708,12203.899C579.708,12203.899 556.58,12179.626 536.2,12205.044Z" style="fill:rgb(74,92,127);"/>
                </g>
            </g>
        </g>
    </g>
</svg>
