<?xml version="1.0" encoding="UTF-8" standalone="no"?>
<!DOCTYPE svg PUBLIC "-//W3C//DTD SVG 1.1//EN" "http://www.w3.org/Graphics/SVG/1.1/DTD/svg11.dtd">
<svg width="100%" height="100%" viewBox="0 0 183 204" version="1.1" xmlns="http://www.w3.org/2000/svg" xmlns:xlink="http://www.w3.org/1999/xlink" xml:space="preserve" xmlns:serif="http://www.serif.com/" style="fill-rule:evenodd;clip-rule:evenodd;stroke-linecap:round;stroke-linejoin:round;stroke-miterlimit:1.5;">
    <g transform="matrix(1,0,0,1,-1308.222622,-13362.803314)">
        <g transform="matrix(0.312639,0,0,0.312639,501.622916,10411.397821)">
            <g transform="matrix(0.864133,0,0,1,-163.775907,445.289609)">
                <path d="M3213.811,9324.406C3212.66,9323.846 3211.573,9323.258 3210.554,9322.642C3155.717,9289.487 3200.85,9040.589 3509.597,9008.425L3509.598,9008.346C3510.569,9008.355 3511.537,9008.365 3512.503,9008.378C3513.469,9008.365 3514.437,9008.355 3515.408,9008.346L3515.408,9008.425C3838.055,9032.946 3869.289,9289.487 3814.452,9322.642C3813.433,9323.258 3812.346,9323.846 3811.195,9324.406C3829.537,9533.309 3782.399,9542.708 3754.078,9578.079C3722.386,9617.661 3629.813,9631.309 3629.813,9631.309C3665.985,9613.356 3681.661,9583.669 3688.384,9559.413C3592.654,9637.613 3435.289,9638.747 3338.686,9566.149C3346.364,9588.969 3362.309,9614.988 3395.193,9631.309C3395.193,9631.309 3302.62,9617.661 3270.928,9578.079C3242.607,9542.708 3195.469,9533.309 3213.811,9324.406Z" style="stroke:black;stroke-width:28.52px;"/>
            </g>
            <g>
                <g transform="matrix(0.864133,0,0,1,-163.775907,445.289609)">
                    <path d="M3770.447,9384.279C3762.903,9702.428 3244.696,9693 3254.623,9384.279C3260.696,9195.388 3440.896,9141.223 3502.65,9128.427L3502.59,9124.953C3502.59,9124.953 3506.182,9125.391 3512.535,9126.52C3518.887,9125.391 3522.479,9124.953 3522.479,9124.953L3522.419,9128.427C3584.173,9141.223 3774.927,9195.344 3770.447,9384.279Z" style="fill:rgb(240,200,188);"/>
                </g>
                <g transform="matrix(-0.528021,0,0,1,4662.435711,455.761795)">
                    <path d="M3583.784,9620.837C3583.784,9620.837 3735.285,9607.189 3787.15,9567.607C3839.015,9528.026 3929.442,9520.967 3865.12,9230.483L3687.514,9211.71C3687.514,9211.71 3759.852,9389.043 3617.905,9528.26C3617.905,9528.26 3662.946,9533.72 3687.514,9509.152C3687.514,9509.152 3697.068,9586.481 3583.784,9620.837Z" style="fill:rgb(101,104,147);"/>
                </g>
                <g transform="matrix(0.528021,0,0,1,1080.548818,455.761795)">
                    <path d="M3583.784,9620.837C3583.784,9620.837 3735.285,9607.189 3787.15,9567.607C3839.015,9528.026 3929.442,9520.967 3865.12,9230.483L3687.514,9211.71C3687.514,9211.71 3759.852,9389.043 3617.905,9528.26C3617.905,9528.26 3662.946,9533.72 3687.514,9509.152C3687.514,9509.152 3697.068,9586.481 3583.784,9620.837Z" style="fill:rgb(101,104,147);"/>
                </g>
                <g transform="matrix(0.735276,0,0,0.814558,270.854131,2219.651428)">
                    <path d="M3536.953,9247.616C3492.231,9256.468 3241.085,9303.978 3182.088,9266.717C3117.641,9226.013 3170.683,8920.452 3533.538,8880.965L3533.539,8880.869C3534.68,8880.879 3535.818,8880.892 3536.953,8880.908C3538.088,8880.892 3539.226,8880.879 3540.367,8880.869L3540.368,8880.965C3919.558,8911.069 3956.265,9226.013 3891.818,9266.717C3832.821,9303.978 3581.674,9256.468 3536.953,9247.616Z" style="fill:rgb(166,197,121);"/>
                </g>
                <g transform="matrix(0.718134,0.750639,-0.945278,0.904344,9809.615815,-863.280029)">
                    <path d="M2595.997,9381.949C2604.084,9339.651 2650.123,9307.194 2705.632,9307.194C2761.142,9307.194 2807.18,9339.651 2815.268,9381.949L2595.997,9381.949ZM2815.268,9408.562C2807.18,9450.86 2761.142,9483.317 2705.632,9483.317C2650.123,9483.317 2604.084,9450.86 2595.997,9408.562L2815.268,9408.562Z" style="fill:white;"/>
                </g>
                <g transform="matrix(0.375387,0.392378,-0.494121,0.472723,6498.224427,4161.228513)">
                    <ellipse cx="2705.632" cy="9395.255" rx="110.896" ry="88.062" style="fill:rgb(166,197,121);"/>
                </g>
                <g transform="matrix(0.292685,0.305933,-0.385261,0.368578,5699.220327,5373.035087)">
                    <ellipse cx="2705.632" cy="9395.255" rx="110.896" ry="88.062" style="fill:white;"/>
                </g>
                <g transform="matrix(1,0,0,1,30.626029,-30.831307)">
                    <path d="M2972.863,9862.828C2972.863,9862.828 2943.833,9839.068 2894.916,9834.177C2894.916,9834.177 2968.35,9827.887 2972.863,9862.828Z" style="fill:rgb(101,104,147);"/>
                </g>
                <g transform="matrix(-1,0,0,1,5713.918615,-30.831307)">
                    <path d="M2972.863,9862.828C2972.863,9862.828 2943.833,9839.068 2894.916,9834.177C2894.916,9834.177 2968.35,9827.887 2972.863,9862.828Z" style="fill:rgb(101,104,147);"/>
                </g>
                <g transform="matrix(0.864133,0,0,-0.868576,-92.412416,17801.359669)">
                    <path d="M3427.554,9191.955L3432.284,9191.955C3461.034,9193.215 3613.256,9200.941 3675.419,9225.609C3742.64,9252.284 3596.115,9323.793 3435.546,9331.117L3424.292,9331.117C3263.723,9323.793 3117.198,9252.284 3184.419,9225.609C3246.582,9200.941 3398.804,9193.215 3427.554,9191.955Z" style="fill:rgb(152,182,110);"/>
                </g>
            </g>
        </g>
    </g>
</svg>
