<?xml version="1.0" encoding="UTF-8" standalone="no"?>
<!DOCTYPE svg PUBLIC "-//W3C//DTD SVG 1.1//EN" "http://www.w3.org/Graphics/SVG/1.1/DTD/svg11.dtd">
<svg width="100%" height="100%" viewBox="0 0 201 192" version="1.1" xmlns="http://www.w3.org/2000/svg" xmlns:xlink="http://www.w3.org/1999/xlink" xml:space="preserve" xmlns:serif="http://www.serif.com/" style="fill-rule:evenodd;clip-rule:evenodd;stroke-linecap:round;stroke-linejoin:round;stroke-miterlimit:1.5;">
    <g transform="matrix(1,0,0,1,-4311.856955,-13165.012291)">
        <g transform="matrix(0.225686,0,0,0.225686,3821.757017,10806.615231)">
            <g transform="matrix(0.906951,0.100331,-0.108098,0.977158,-0.349468,-117.329397)">
                <path d="M4521.075,10723.835C4588.618,10821.894 4665.261,10963.818 4675.726,11113.82C4675.726,11113.82 4648.002,11125.559 4562.698,11069.573C4562.698,11069.573 4534.661,11112.872 4477.081,11159.79C4477.081,11159.79 4420.827,11169.82 4361.115,11212.472C4361.115,11212.472 4260.902,11207.708 4102.576,11243.37C4102.576,11243.37 3976.967,11207.476 3865.005,11234.133C3865.005,11234.133 3853.617,11194.062 3827.685,11140.832C3827.685,11140.832 3774.455,11139.467 3748.522,11187.237C3748.522,11187.237 3763.537,11002.141 3835.689,10845.569C3833.541,10844.39 3831.4,10842.99 3829.276,10841.343C3781.575,10804.347 3732.182,10751.848 3796.682,10677.425C3861.182,10603.002 4124.832,10271.235 4380.349,10457.661C4575.528,10600.064 4578.994,10695.919 4521.075,10723.835Z" style="stroke:black;stroke-width:38.93px;"/>
            </g>
            <g>
                <g transform="matrix(0.906951,0.100331,-0.108098,0.977158,-0.349468,-117.329397)">
                    <path d="M4414.742,10590.781C4414.742,10590.781 4656.533,10838.714 4675.726,11113.82C4675.726,11113.82 4648.002,11125.559 4562.698,11069.573C4562.698,11069.573 4534.661,11112.872 4477.081,11159.79C4477.081,11159.79 4420.827,11169.82 4361.115,11212.472C4361.115,11212.472 4260.902,11207.708 4102.576,11243.37C4102.576,11243.37 3976.967,11207.476 3865.005,11234.133C3865.005,11234.133 3853.617,11194.062 3827.685,11140.832C3827.685,11140.832 3774.455,11139.467 3748.522,11187.237C3748.522,11187.237 3771.517,10903.765 3897.34,10741.687" style="fill:rgb(123,74,41);"/>
                </g>
                <g transform="matrix(0.876507,-0,0,0.876507,1169.901901,1102.802807)">
                    <path d="M1909.369,11237.559C1909.369,11237.559 1978.977,11137.96 2036.302,11181.636C2093.626,11225.312 2056.775,11419.123 1877.977,11428.677L1909.369,11237.559Z" style="fill:rgb(250,199,148);"/>
                </g>
                <g transform="matrix(-0.876507,0,0,0.876507,4087.652913,1102.802807)">
                    <path d="M1909.369,11237.559C1909.369,11237.559 1978.977,11137.96 2036.302,11181.636C2093.626,11225.312 2056.775,11419.123 1877.977,11428.677L1909.369,11237.559Z" style="fill:rgb(250,199,148);"/>
                </g>
                <g transform="matrix(-0.992887,0.119057,0.119057,0.992887,4959.305474,-290.132177)">
                    <path d="M3686.405,11168.218C3713.09,11164.588 3837.921,11143.182 3885.414,11061.388C3934.549,10976.767 3986.585,10837.209 3847.965,10566.368L3666.694,10564.235L3562.764,10576.697L3387.136,10621.626C3316.479,10917.561 3400.033,11040.86 3467.782,11111.467C3533.267,11179.713 3660.872,11171.691 3686.405,11168.218Z" style="fill:rgb(255,206,156);"/>
                </g>
                <g transform="matrix(1,0,0,1,-7.267617,5.590495)">
                    <path d="M2776.961,10799.758C2776.961,10799.758 2902.992,10862.053 2924.795,10909.013L2942.684,10859.258L2921.999,10769.251" style="fill:rgb(123,74,41);"/>
                </g>
                <g transform="matrix(0.65393,-0.058458,0.058458,0.65393,271.031427,3973.690294)">
                    <path d="M3002.767,10760.148C3002.767,10760.148 2700.714,10677.121 2220.872,10740.469L2313.834,10543.712L3057.687,10584.658C3149.764,10669.26 3106.898,10805.21 3002.767,10760.148Z" style="fill:rgb(140,90,41);"/>
                </g>
                <g transform="matrix(0.654821,-0.047445,0.047445,0.654821,-407.758166,3693.440169)">
                    <path d="M3421.902,11192.96C3421.902,11192.96 3363.128,11231.313 3325.675,11186.136C3270.533,11119.624 3217.292,11029.857 3325.675,10936.535C3434.057,10843.213 3884.57,10421.17 4183.135,10760.148C4481.699,11099.126 4352.871,11237.745 4209.356,11179.098C4065.841,11120.452 3734.97,11025.551 3421.902,11192.96Z" style="fill:rgb(165,123,57);"/>
                </g>
                <g transform="matrix(1.744322,0,0,1.05861,-4691.113347,-446.838225)">
                    <path d="M4240.338,10791.97C4240.338,10791.97 4267.246,10724.184 4311.411,10716.566C4311.411,10716.566 4232.437,10693.86 4240.338,10791.97Z" style="fill:rgb(123,74,41);"/>
                </g>
                <g transform="matrix(-1.744322,0,0,1.05861,9948.668161,-446.838225)">
                    <path d="M4240.338,10791.97C4240.338,10791.97 4267.246,10724.184 4311.411,10716.566C4311.411,10716.566 4232.437,10693.86 4240.338,10791.97Z" style="fill:rgb(123,74,41);"/>
                </g>
            </g>
        </g>
    </g>
</svg>
