<?xml version="1.0" encoding="UTF-8" standalone="no"?>
<!DOCTYPE svg PUBLIC "-//W3C//DTD SVG 1.1//EN" "http://www.w3.org/Graphics/SVG/1.1/DTD/svg11.dtd">
<svg width="100%" height="100%" viewBox="0 0 191 200" version="1.1" xmlns="http://www.w3.org/2000/svg" xmlns:xlink="http://www.w3.org/1999/xlink" xml:space="preserve" xmlns:serif="http://www.serif.com/" style="fill-rule:evenodd;clip-rule:evenodd;stroke-linecap:round;stroke-linejoin:round;stroke-miterlimit:1.5;">
    <g transform="matrix(1,0,0,1,-1103.503656,-13361.53318)">
        <g transform="matrix(0.622579,0,0,0.622579,-202.422838,7307.138989)">
            <g transform="matrix(1.00818,0,0,1.598757,451.467178,-10095.814882)">
                <path d="M1906.503,12493.04C1913.123,12508.233 1920.393,12523.779 1925.71,12532.05C1938.289,12551.617 1923.167,12573.6 1867.708,12584.939C1810.014,12596.734 1757.068,12596.807 1701.56,12584.939C1646.205,12573.103 1630.979,12551.617 1643.558,12532.05C1648.878,12523.774 1656.153,12508.215 1662.777,12493.015C1662.768,12491.709 1663.239,12490.524 1664.298,12489.505C1665.462,12486.805 1666.598,12484.135 1667.692,12481.54C1658.078,12473.362 1653.223,12463.212 1671.597,12451.676C1694.676,12437.186 1790.048,12372.067 1863.433,12417.517C1917.557,12451.037 1917.089,12471.361 1899.651,12476.948C1901.311,12480.931 1903.102,12485.17 1904.962,12489.487C1906.042,12490.517 1906.518,12491.716 1906.503,12493.04Z" style="stroke:black;stroke-width:10.02px;"/>
            </g>
            <g>
                <g transform="matrix(1.00818,0,0,1.598757,451.467178,-10095.814882)">
                    <path d="M1784.634,12444.698L1889.629,12452.208C1889.629,12452.208 1913.132,12512.484 1925.71,12532.05C1938.289,12551.617 1923.167,12573.6 1867.708,12584.939C1810.014,12596.734 1757.068,12596.807 1701.56,12584.939C1646.205,12573.103 1630.979,12551.617 1643.558,12532.05C1656.137,12512.484 1679.639,12452.208 1679.639,12452.208L1784.634,12444.698Z" style="fill:rgb(40,56,88);"/>
                </g>
                <g transform="matrix(0.999555,-0.029823,0.029823,0.999555,88.856901,-2559.718159)">
                    <path d="M1871.461,12493.603C1871.461,12493.603 1891.839,12477.055 1909.379,12491.814C1926.92,12506.573 1871.014,12552.639 1871.014,12552.639" style="fill:rgb(242,199,177);"/>
                </g>
                <g transform="matrix(-0.999555,-0.029823,-0.029823,0.999555,4412.555031,-2559.718159)">
                    <path d="M1871.461,12493.603C1871.461,12493.603 1891.839,12477.055 1909.379,12491.814C1926.92,12506.573 1871.014,12552.639 1871.014,12552.639" style="fill:rgb(242,199,177);"/>
                </g>
                <g transform="matrix(1,0,0,1,819.848626,-2592.377198)">
                    <path d="M1430.857,12593.069C1430.857,12593.069 1348.953,12576.298 1337.073,12530.874C1325.193,12485.451 1339.17,12414.172 1339.17,12414.172L1430.857,12375.038L1522.545,12414.172C1522.545,12414.172 1536.521,12485.451 1524.641,12530.874C1512.761,12576.298 1430.857,12593.069 1430.857,12593.069Z" style="fill:rgb(255,209,186);"/>
                </g>
                <g transform="matrix(1,0,0,1,460.057411,-2604.246562)">
                    <path d="M1879.582,12501.99C1879.582,12501.99 1882.166,12480.966 1879.582,12452.45C1879.582,12452.45 1908.493,12445.814 1879.582,12501.99Z" style="fill:rgb(40,56,88);"/>
                </g>
                <g transform="matrix(-1,0,0,1,4041.354522,-2604.246562)">
                    <path d="M1879.582,12501.99C1879.582,12501.99 1882.166,12480.966 1879.582,12452.45C1879.582,12452.45 1908.493,12445.814 1879.582,12501.99Z" style="fill:rgb(40,56,88);"/>
                </g>
                <g transform="matrix(1,0,0,1,1736.374574,-2311.429932)">
                    <path d="M536.2,12205.044C536.2,12205.044 555.664,12195.198 579.708,12203.899C579.708,12203.899 556.58,12179.626 536.2,12205.044Z" style="fill:rgb(40,56,88);"/>
                </g>
                <g transform="matrix(-1,0,0,1,2765.037359,-2311.429932)">
                    <path d="M536.2,12205.044C536.2,12205.044 555.664,12195.198 579.708,12203.899C579.708,12203.899 556.58,12179.626 536.2,12205.044Z" style="fill:rgb(40,56,88);"/>
                </g>
                <g transform="matrix(0.228657,-0.020441,0.020441,0.228657,1431.175096,7460.428363)">
                    <path d="M3002.767,10760.148C3002.767,10760.148 2700.714,10677.121 2220.872,10740.469L2313.834,10543.712L3057.687,10584.658C3149.764,10669.26 3106.898,10805.21 3002.767,10760.148Z" style="fill:rgb(88,138,53);"/>
                </g>
                <g transform="matrix(0.228969,-0.01659,0.01659,0.228969,1193.824984,7362.434229)">
                    <path d="M3421.902,11192.96C3421.902,11192.96 3363.128,11231.313 3325.675,11186.136C3270.533,11119.624 3217.292,11029.857 3325.675,10936.535C3434.057,10843.213 3884.57,10421.17 4183.135,10760.148C4481.699,11099.126 4352.871,11237.745 4209.356,11179.098C4065.841,11120.452 3734.97,11025.551 3421.902,11192.96Z" style="fill:rgb(104,160,64);"/>
                </g>
                <g transform="matrix(0.907209,0,0,0.907209,894.796562,-1418.889143)">
                    <path d="M1434.261,12354.021C1450.375,12354.021 1463.457,12366.077 1463.457,12380.927C1463.457,12395.777 1450.375,12407.833 1434.261,12407.833C1418.147,12407.833 1405.065,12395.777 1405.065,12380.927C1405.065,12366.077 1418.147,12354.021 1434.261,12354.021ZM1434.261,12360.484C1422.018,12360.484 1412.078,12369.644 1412.078,12380.927C1412.078,12392.209 1422.018,12401.369 1434.261,12401.369C1446.504,12401.369 1456.443,12392.209 1456.443,12380.927C1456.443,12369.644 1446.504,12360.484 1434.261,12360.484Z" style="fill:rgb(248,248,248);"/>
                </g>
            </g>
        </g>
    </g>
</svg>
