<?xml version="1.0" encoding="UTF-8" standalone="no"?>
<!DOCTYPE svg PUBLIC "-//W3C//DTD SVG 1.1//EN" "http://www.w3.org/Graphics/SVG/1.1/DTD/svg11.dtd">
<svg width="100%" height="100%" viewBox="0 0 185 202" version="1.1" xmlns="http://www.w3.org/2000/svg" xmlns:xlink="http://www.w3.org/1999/xlink" xml:space="preserve" xmlns:serif="http://www.serif.com/" style="fill-rule:evenodd;clip-rule:evenodd;stroke-linecap:round;stroke-linejoin:round;stroke-miterlimit:1.5;">
    <g transform="matrix(1,0,0,1,-5724.438764,-13561.299571)">
        <g transform="matrix(0.603284,0,0,0.603284,4956.052016,7508.425157)">
            <g transform="matrix(1.00818,0,0,1.598757,-372.253556,-9773.881944)">
                <path d="M1895.277,12466.326C1903.029,12485.377 1916.993,12518.49 1925.71,12532.05C1938.289,12551.617 1923.167,12573.6 1867.708,12584.939C1810.014,12596.734 1757.068,12596.807 1701.56,12584.939C1646.205,12573.103 1630.979,12551.617 1643.558,12532.05C1652.276,12518.488 1666.243,12485.37 1673.994,12466.319C1650.172,12448.3 1672.722,12421.301 1703.991,12407.498C1739.036,12392.029 1784.64,12393.41 1784.64,12393.41C1784.64,12393.41 1830.244,12392.029 1865.288,12407.498C1896.561,12421.303 1919.113,12448.306 1895.277,12466.326Z" style="stroke:black;stroke-width:10.34px;"/>
            </g>
            <g>
                <g transform="matrix(1.00818,0,0,1.598757,-372.253556,-9773.881944)">
                    <path d="M1784.634,12444.698L1889.629,12452.208C1889.629,12452.208 1913.132,12512.484 1925.71,12532.05C1938.289,12551.617 1923.167,12573.6 1867.708,12584.939C1810.014,12596.734 1757.068,12596.807 1701.56,12584.939C1646.205,12573.103 1630.979,12551.617 1643.558,12532.05C1656.137,12512.484 1679.639,12452.208 1679.639,12452.208L1784.634,12444.698Z" style="fill:rgb(58,29,81);"/>
                </g>
                <g transform="matrix(1,0,0,1,-3.872108,-2295.941612)">
                    <path d="M1430.857,12593.069C1430.857,12593.069 1348.953,12576.298 1337.073,12530.874C1325.193,12485.451 1339.17,12414.172 1339.17,12414.172L1430.857,12375.038L1522.545,12414.172C1522.545,12414.172 1536.521,12485.451 1524.641,12530.874C1512.761,12576.298 1430.857,12593.069 1430.857,12593.069Z" style="fill:rgb(248,216,200);"/>
                </g>
                <g transform="matrix(0.830452,0,0,0.830452,-613.422903,1751.965037)">
                    <path d="M2456.986,10093.953L2525.526,10140.773C2525.526,10140.773 2549.286,10169.063 2559.768,10188.112C2559.768,10188.112 2602.395,10152.321 2585.624,10079.096L2456.986,10093.953Z" style="fill:rgb(66,42,85);"/>
                </g>
                <g transform="matrix(-0.830452,0,0,0.830452,3467.393366,1751.965037)">
                    <path d="M2456.986,10093.953L2525.526,10140.773C2525.526,10140.773 2549.286,10169.063 2559.768,10188.112C2559.768,10188.112 2602.395,10152.321 2585.624,10079.096L2456.986,10093.953Z" style="fill:rgb(66,42,85);"/>
                </g>
                <g transform="matrix(1.928656,0,0,1.928656,-1850.315686,-8857.736893)">
                    <path d="M1699.267,9798.486C1699.267,9798.486 1723.106,9797.341 1741.425,9810.164C1759.744,9822.988 1772.338,9849.551 1751.5,9863.977C1751.5,9863.977 1722.142,9851.153 1699.267,9850.466C1676.392,9851.153 1647.033,9863.977 1647.033,9863.977C1626.196,9849.551 1638.79,9822.988 1657.109,9810.164C1675.428,9797.341 1699.267,9798.486 1699.267,9798.486Z" style="fill:rgb(186,241,144);"/>
                </g>
                <g transform="matrix(1.928656,0,0,1.928656,-1850.315686,-8857.736893)">
                    <path d="M1699.267,9855.46C1699.267,9855.46 1686.108,9856.164 1677.667,9859.095C1669.225,9862.026 1657.97,9869.529 1646.715,9864.371C1646.715,9864.371 1662.012,9844.557 1699.267,9845.026C1736.522,9844.557 1751.819,9864.371 1751.819,9864.371C1740.564,9869.529 1729.309,9862.026 1720.867,9859.095C1712.426,9856.164 1699.267,9855.46 1699.267,9855.46Z" style="fill:rgb(158,213,118);"/>
                </g>
                <g transform="matrix(1,0,0,1,-15.433672,-9.778118)">
                    <ellipse cx="1442.419" cy="10113.076" rx="48.114" ry="18.868" style="fill:rgb(255,185,118);"/>
                </g>
                <g transform="matrix(1.476995,0,0,1.476995,-643.859045,-4863.677158)">
                    <path d="M1362.287,10188.112C1362.287,10188.112 1376.796,10181.866 1389.399,10185.09C1389.399,10185.09 1378.848,10175.307 1362.287,10188.112Z" style="fill:rgb(58,29,81);"/>
                </g>
                <g transform="matrix(-1.476995,0,0,1.476995,3497.829508,-4863.677158)">
                    <path d="M1362.287,10188.112C1362.287,10188.112 1376.796,10181.866 1389.399,10185.09C1389.399,10185.09 1378.848,10175.307 1362.287,10188.112Z" style="fill:rgb(58,29,81);"/>
                </g>
            </g>
        </g>
    </g>
</svg>
