<?xml version="1.0" encoding="UTF-8" standalone="no"?>
<!DOCTYPE svg PUBLIC "-//W3C//DTD SVG 1.1//EN" "http://www.w3.org/Graphics/SVG/1.1/DTD/svg11.dtd">
<svg width="100%" height="100%" viewBox="0 0 199 245" version="1.1" xmlns="http://www.w3.org/2000/svg" xmlns:xlink="http://www.w3.org/1999/xlink" xml:space="preserve" xmlns:serif="http://www.serif.com/" style="fill-rule:evenodd;clip-rule:evenodd;stroke-linecap:round;stroke-linejoin:round;stroke-miterlimit:1.5;">
    <g transform="matrix(1,0,0,1,-3309.377303,-13764.319211)">
        <g transform="matrix(1.506045,0,0,1.506045,849.30713,-988.439306)">
            <g transform="matrix(1,0,0,1,6.228766,-15.861004)">
                <path d="M1640.168,9879.386C1620.228,9864.863 1632.751,9838.716 1650.88,9826.026C1669.199,9813.202 1693.038,9814.347 1693.038,9814.347C1693.038,9814.347 1716.877,9813.202 1735.196,9826.026C1753.361,9838.741 1765.897,9864.964 1745.792,9879.47C1747.158,9884.098 1747.523,9890.342 1747.598,9894.705C1747.642,9897.237 1746.011,9900.045 1743.947,9902.572C1745.63,9903.981 1747.415,9906.433 1746.462,9910.151C1746.188,9911.219 1745.94,9912.515 1745.641,9913.915C1746.978,9916.341 1748.242,9919.267 1749.314,9922.793C1754.737,9940.619 1749.901,9964.209 1725.133,9970.809C1725.133,9970.809 1720.297,9955.134 1716.193,9948.832C1714.878,9946.812 1713.157,9944.657 1711.448,9942.188C1701.754,9945.282 1692.612,9945.608 1692.612,9945.608C1692.612,9945.608 1683.471,9945.282 1673.777,9942.188C1672.068,9944.657 1670.347,9946.812 1669.031,9948.832C1664.928,9955.134 1660.092,9970.809 1660.092,9970.809C1635.324,9964.209 1630.488,9940.619 1635.911,9922.793C1637.148,9918.724 1638.641,9915.452 1640.207,9912.827C1640.004,9911.845 1639.816,9910.936 1639.615,9910.151C1638.418,9905.481 1641.541,9902.809 1643.353,9901.691C1639.989,9894.032 1639.898,9884.551 1640.168,9879.386Z" style="stroke:black;stroke-width:5.53px;"/>
            </g>
            <g>
                <g transform="matrix(1,0,0,1,6.228766,-15.861004)">
                    <path d="M1651.643,9902.461C1651.643,9902.461 1641.333,9904.967 1635.911,9922.793C1630.488,9940.619 1635.324,9964.209 1660.092,9970.809C1660.092,9970.809 1664.928,9955.134 1669.031,9948.832C1673.135,9942.53 1681.195,9934.909 1680.463,9920.547L1651.643,9902.461Z" style="fill:rgb(81,91,168);"/>
                </g>
                <g transform="matrix(-1,0,0,1,3391.453722,-15.861004)">
                    <path d="M1651.643,9902.461C1651.643,9902.461 1641.333,9904.967 1635.911,9922.793C1630.488,9940.619 1635.324,9964.209 1660.092,9970.809C1660.092,9970.809 1664.928,9955.134 1669.031,9948.832C1673.135,9942.53 1681.195,9934.909 1680.463,9920.547L1651.643,9902.461Z" style="fill:rgb(81,91,168);"/>
                </g>
                <g transform="matrix(1,0,0,1,-0.871027,-0.146553)">
                    <path d="M1651.643,9885.351C1651.643,9885.351 1645.062,9887.989 1646.715,9894.437C1648.368,9900.885 1649.1,9915.687 1665.514,9911.29L1651.643,9885.351Z" style="fill:rgb(244,201,175);"/>
                </g>
                <g transform="matrix(-1,0,0,1,3399.404973,-0.146553)">
                    <path d="M1651.643,9885.351C1651.643,9885.351 1645.062,9887.989 1646.715,9894.437C1648.368,9900.885 1649.1,9915.687 1665.514,9911.29L1651.643,9885.351Z" style="fill:rgb(244,201,175);"/>
                </g>
                <g transform="matrix(1.070443,0,0,1.070443,-120.12728,-698.259795)">
                    <path d="M1699.267,9928.606C1699.267,9928.606 1669.243,9927.533 1662.087,9910.358C1654.932,9893.184 1640.558,9833.433 1699.267,9830.212C1757.976,9833.433 1743.602,9893.184 1736.447,9910.358C1729.291,9927.533 1699.267,9928.606 1699.267,9928.606Z" style="fill:rgb(254,215,189);"/>
                </g>
                <path d="M1656.281,9894.437C1656.281,9894.437 1649.95,9874.389 1656.985,9861.844L1646.715,9859.733C1646.715,9859.733 1643.268,9885.292 1656.281,9894.437Z" style="fill:rgb(81,91,168);"/>
                <path d="M1695.089,9853.754C1695.089,9853.754 1704.351,9863.133 1717.833,9867.471C1731.316,9871.809 1740.355,9874.271 1744.805,9878.257C1744.805,9878.257 1743.392,9890.568 1741.985,9894.437C1741.985,9894.437 1753.944,9885.644 1753.827,9878.844C1753.71,9872.044 1752.889,9860.671 1748.668,9857.975L1707.868,9852.23L1695.089,9853.754Z" style="fill:rgb(81,91,168);"/>
                <path d="M1699.267,9798.486C1699.267,9798.486 1723.106,9797.341 1741.425,9810.164C1759.744,9822.988 1772.338,9849.551 1751.5,9863.977C1751.5,9863.977 1722.142,9851.153 1699.267,9850.466C1676.392,9851.153 1647.033,9863.977 1647.033,9863.977C1626.196,9849.551 1638.79,9822.988 1657.109,9810.164C1675.428,9797.341 1699.267,9798.486 1699.267,9798.486Z" style="fill:rgb(77,152,140);"/>
                <path d="M1699.267,9855.46C1699.267,9855.46 1686.108,9856.164 1677.667,9859.095C1669.225,9862.026 1657.97,9869.529 1646.715,9864.371C1646.715,9864.371 1662.012,9844.557 1699.267,9845.026C1736.522,9844.557 1751.819,9864.371 1751.819,9864.371C1740.564,9869.529 1729.309,9862.026 1720.867,9859.095C1712.426,9856.164 1699.267,9855.46 1699.267,9855.46Z" style="fill:rgb(80,146,135);"/>
                <g transform="matrix(0.903416,-0.202949,0.210062,0.935079,-1897.004141,993.208426)">
                    <ellipse cx="1745.469" cy="9830.066" rx="11.079" ry="14.948" style="fill:rgb(196,84,63);"/>
                </g>
                <path d="M1660.859,9870.53C1660.859,9870.53 1668.673,9859.978 1681.004,9867.482C1681.004,9867.482 1668.246,9854.468 1660.859,9870.53Z" style="fill:rgb(33,33,33);"/>
            </g>
        </g>
    </g>
</svg>
