<?xml version="1.0" encoding="UTF-8" standalone="no"?>
<!DOCTYPE svg PUBLIC "-//W3C//DTD SVG 1.1//EN" "http://www.w3.org/Graphics/SVG/1.1/DTD/svg11.dtd">
<svg width="100%" height="100%" viewBox="0 0 264 222" version="1.1" xmlns="http://www.w3.org/2000/svg" xmlns:xlink="http://www.w3.org/1999/xlink" xml:space="preserve" xmlns:serif="http://www.serif.com/" style="fill-rule:evenodd;clip-rule:evenodd;stroke-linecap:round;stroke-linejoin:round;stroke-miterlimit:1.5;">
    <g transform="matrix(1,0,0,1,-8897.99,-13843.9)">
        <g transform="matrix(0.554434,0,0,0.554434,3722.85,13303.1)">
            <path d="M9401.42,1128.5C9401.41,1127.82 9401.4,1127.13 9401.4,1126.44C9401.4,1047.3 9477.55,983.039 9571.35,983.039C9665.14,983.039 9741.29,1047.3 9741.29,1126.44C9741.29,1127.13 9741.28,1127.82 9741.27,1128.5C9773.13,1135.21 9808.66,1158.79 9799.67,1205.77C9791.51,1248.36 9741.41,1277.66 9681.41,1292.77C9671.7,1327.91 9648.18,1357.99 9614.88,1364.53C9557.48,1375.81 9521.39,1343.62 9492.5,1310.5C9489.07,1306.57 9486.19,1302.26 9483.77,1297.7C9414.23,1284.65 9352.18,1253.59 9343.03,1205.77C9334.03,1158.79 9369.56,1135.21 9401.42,1128.5Z" style="stroke:black;stroke-width:15.03px;"/>
            <g>
                <g transform="matrix(1,0,0,1,-37.4294,76.1147)">
                    <ellipse cx="9608.78" cy="1050.33" rx="169.944" ry="143.403" style="fill:rgb(244,235,223);"/>
                    <clipPath id="_clip1">
                        <ellipse cx="9608.78" cy="1050.33" rx="169.944" ry="143.403"/>
                    </clipPath>
                    <g clip-path="url(#_clip1)">
                        <g transform="matrix(0.814143,0,0,0.814143,1771.5,101.239)">
                            <ellipse cx="9538.18" cy="1053.54" rx="136.772" ry="112.212" style="fill:rgb(247,201,124);"/>
                        </g>
                    </g>
                </g>
                <g transform="matrix(1,0,0,1,250.794,-72.023)">
                    <path d="M9320.55,1209.34C9320.55,1209.34 9358.12,1208.72 9383.67,1209.33C9409.22,1209.94 9426.84,1210.9 9454.54,1200.94C9482.24,1190.97 9561.84,1210.05 9548.87,1277.79C9535.91,1345.54 9416.76,1379.66 9320.55,1376.55C9224.35,1379.66 9105.2,1345.54 9092.23,1277.79C9079.27,1210.05 9158.86,1190.97 9186.57,1200.94C9214.27,1210.9 9231.89,1209.94 9257.44,1209.33C9282.99,1208.72 9320.55,1209.34 9320.55,1209.34Z" style="fill:rgb(235,211,95);"/>
                    <clipPath id="_clip2">
                        <path d="M9320.55,1209.34C9320.55,1209.34 9358.12,1208.72 9383.67,1209.33C9409.22,1209.94 9426.84,1210.9 9454.54,1200.94C9482.24,1190.97 9561.84,1210.05 9548.87,1277.79C9535.91,1345.54 9416.76,1379.66 9320.55,1376.55C9224.35,1379.66 9105.2,1345.54 9092.23,1277.79C9079.27,1210.05 9158.86,1190.97 9186.57,1200.94C9214.27,1210.9 9231.89,1209.94 9257.44,1209.33C9282.99,1208.72 9320.55,1209.34 9320.55,1209.34Z"/>
                    </clipPath>
                    <g clip-path="url(#_clip2)">
                        <g transform="matrix(1,0,0,1,-250.794,100.503)">
                            <path d="M9577.66,1215.55C9325.63,1210.47 9341.61,1145.32 9341.61,1145.32L9341.61,1065.13L9579.14,1058.96L9816.68,1065.13L9816.68,1145.32C9816.68,1145.32 9832.73,1210.74 9579.14,1215.58L9577.66,1215.55Z" style="fill:rgb(243,217,95);"/>
                        </g>
                    </g>
                </g>
                <path d="M9471.96,1236.98C9500.54,1240.63 9535.32,1243.18 9577.66,1244.03L9579.14,1244.06C9621.47,1243.25 9656.28,1240.76 9684.9,1237.16C9693.29,1290.79 9665.28,1354.63 9614.88,1364.53C9557.48,1375.81 9521.39,1343.62 9492.5,1310.5C9474.25,1289.59 9471.51,1257.67 9471.96,1236.98Z" style="fill:rgb(246,133,109);"/>
            </g>
        </g>
    </g>
</svg>
