<?xml version="1.0" encoding="UTF-8" standalone="no"?>
<!DOCTYPE svg PUBLIC "-//W3C//DTD SVG 1.1//EN" "http://www.w3.org/Graphics/SVG/1.1/DTD/svg11.dtd">
<svg width="100%" height="100%" viewBox="0 0 210 193" version="1.1" xmlns="http://www.w3.org/2000/svg" xmlns:xlink="http://www.w3.org/1999/xlink" xml:space="preserve" xmlns:serif="http://www.serif.com/" style="fill-rule:evenodd;clip-rule:evenodd;stroke-linecap:round;stroke-linejoin:round;stroke-miterlimit:1.5;">
    <g transform="matrix(1,0,0,1,-9527.33,-13645.7)">
        <g transform="matrix(0.916949,0,0,0.916949,1668.8,12508.1)">
            <path d="M8582.5,1352.56L8582.48,1352.56C8574.97,1316.19 8585.32,1296.44 8610.49,1269.66C8634.24,1244.39 8679.33,1245.05 8684.33,1245.2C8689.33,1245.05 8734.41,1244.39 8758.16,1269.66C8783.33,1296.44 8793.68,1316.19 8786.17,1352.56L8786.15,1352.56C8792.59,1356.64 8797.05,1369.24 8790.84,1381.21C8783.35,1395.68 8771.7,1398.41 8769.96,1398.75C8765.14,1421.62 8745.63,1446.06 8684.33,1446.34L8683.65,1446.33C8622.89,1445.88 8603.5,1421.54 8598.7,1398.75C8596.95,1398.41 8585.31,1395.68 8577.81,1381.21C8571.61,1369.24 8576.07,1356.64 8582.5,1352.56Z" style="stroke:black;stroke-width:9.09px;"/>
            <g>
                <g transform="matrix(0.909561,0,0,1,1111.68,56.7134)">
                    <path d="M8231.71,1342.07C8231.71,1342.07 8217.42,1340.18 8208.5,1324.5C8199.57,1308.82 8210.73,1292.09 8220.55,1294.76L8246.66,1324.5L8231.71,1342.07Z" style="fill:rgb(184,130,159);"/>
                </g>
                <g transform="matrix(-0.909561,0,0,1,16257,56.7134)">
                    <path d="M8231.71,1342.07C8231.71,1342.07 8217.42,1340.18 8208.5,1324.5C8199.57,1308.82 8210.73,1292.09 8220.55,1294.76L8246.66,1324.5L8231.71,1342.07Z" style="fill:rgb(184,130,159);"/>
                </g>
                <g transform="matrix(0.870152,0,0,0.954076,1118.17,45.212)">
                    <path d="M8694.44,1468.56C8562.61,1467.66 8600.23,1377.55 8600.23,1377.55L8695.21,1290.41L8790.19,1377.55C8790.19,1377.55 8827.96,1468.02 8695.21,1468.57L8694.44,1468.56Z" style="fill:rgb(192,139,167);"/>
                </g>
                <g transform="matrix(0.909561,0,0,0.36252,775.501,871.266)">
                    <path d="M8694.67,1351.87C8648.93,1352.33 8628.28,1324.5 8628.28,1324.5L8695.21,1110.85L8762.15,1324.5C8762.15,1324.5 8741.33,1352.54 8695.21,1351.86L8694.67,1351.87Z" style="fill:rgb(173,123,149);"/>
                </g>
                <g transform="matrix(0.909561,0,0,1,1111.48,57.206)">
                    <path d="M8325.83,1188C8331.32,1187.84 8380.89,1187.18 8407,1212.45C8434.67,1239.23 8446.05,1258.98 8437.8,1295.36L8435.19,1294.8C8435.19,1294.8 8432.61,1313.09 8421.06,1320.35C8421.06,1320.35 8404.55,1308.74 8394.5,1304.5C8384.51,1300.28 8329.86,1274.84 8325.83,1238.73C8321.79,1274.84 8267.14,1300.28 8257.15,1304.5C8247.1,1308.74 8230.59,1320.35 8230.59,1320.35C8219.04,1313.09 8216.46,1294.8 8216.46,1294.8L8213.85,1295.36C8205.6,1258.98 8216.98,1239.23 8244.65,1212.45C8270.76,1187.18 8320.33,1187.84 8325.83,1188Z" style="fill:rgb(203,191,180);"/>
                </g>
                <g transform="matrix(0.714179,0,0,0.785191,2737.85,360.528)">
                    <path d="M8317.07,1322.01C8317.07,1322.01 8321.57,1321.09 8320.87,1317.66C8320.18,1314.23 8313.61,1314.92 8305.31,1319.94C8297.01,1324.95 8289.91,1332.91 8288.01,1338.62C8288.01,1338.62 8291.47,1335.5 8295.1,1333.43C8295.1,1333.43 8287.84,1352.97 8292.16,1363.87C8292.16,1363.87 8293.55,1356.78 8295.97,1353.32C8295.97,1353.32 8296.83,1371.35 8300.47,1377.55C8300.47,1377.55 8296.31,1330.83 8317.07,1322.01Z" style="fill:rgb(203,191,180);"/>
                </g>
                <g transform="matrix(-0.714179,0,0,0.785191,14630.8,360.528)">
                    <path d="M8317.07,1322.01C8317.07,1322.01 8321.57,1321.09 8320.87,1317.66C8320.18,1314.23 8313.61,1314.92 8305.31,1319.94C8297.01,1324.95 8289.91,1332.91 8288.01,1338.62C8288.01,1338.62 8291.47,1335.5 8295.1,1333.43C8295.1,1333.43 8287.84,1352.97 8292.16,1363.87C8292.16,1363.87 8293.55,1356.78 8295.97,1353.32C8295.97,1353.32 8296.83,1371.35 8300.47,1377.55C8300.47,1377.55 8296.31,1330.83 8317.07,1322.01Z" style="fill:rgb(203,191,180);"/>
                </g>
            </g>
        </g>
    </g>
</svg>
