<?xml version="1.0" encoding="UTF-8" standalone="no"?>
<!DOCTYPE svg PUBLIC "-//W3C//DTD SVG 1.1//EN" "http://www.w3.org/Graphics/SVG/1.1/DTD/svg11.dtd">
<svg width="100%" height="100%" viewBox="0 0 189 198" version="1.1" xmlns="http://www.w3.org/2000/svg" xmlns:xlink="http://www.w3.org/1999/xlink" xml:space="preserve" xmlns:serif="http://www.serif.com/" style="fill-rule:evenodd;clip-rule:evenodd;stroke-linecap:round;stroke-linejoin:round;stroke-miterlimit:1.5;">
    <g transform="matrix(1,0,0,1,-9672.47,-230.086)">
        <g transform="matrix(1.37437,0,0,1.37437,8946.76,-5938.04)">
            <path d="M532.463,4553L531.065,4553L531.065,4502L596.565,4491L662.065,4502L662.065,4553L660.666,4553C661.582,4557.19 662.065,4561.54 662.065,4566C662.065,4600.77 632.715,4629 596.565,4629C560.414,4629 531.065,4600.77 531.065,4566C531.065,4561.54 531.547,4557.19 532.463,4553Z" style="stroke:black;stroke-width:6.06px;"/>
            <g>
                <g transform="matrix(0.909722,0,0,0.875,53.8565,573.375)">
                    <circle cx="596.565" cy="4563" r="72" style="fill:rgb(52,49,71);"/>
                    <clipPath id="_clip1">
                        <circle cx="596.565" cy="4563" r="72"/>
                    </clipPath>
                    <g clip-path="url(#_clip1)">
                        <g transform="matrix(1.09924,0,0,1.09653,-64.0767,-414.266)">
                            <path d="M584,4540.69C584,4538.1 581.984,4536 579.5,4536C577.016,4536 575,4538.1 575,4540.69L575,4568.31C575,4570.9 577.016,4573 579.5,4573C581.984,4573 584,4570.9 584,4568.31L584,4540.69Z" style="fill:rgb(244,38,42);"/>
                        </g>
                        <g transform="matrix(1.09924,0,0,1.09653,-16.8095,-414.266)">
                            <path d="M584,4540.69C584,4538.1 581.984,4536 579.5,4536C577.016,4536 575,4538.1 575,4540.69L575,4568.31C575,4570.9 577.016,4573 579.5,4573C581.984,4573 584,4570.9 584,4568.31L584,4540.69Z" style="fill:rgb(244,38,42);"/>
                        </g>
                    </g>
                </g>
                <path d="M531.065,4502L596.565,4491L662.065,4502L662.065,4553L531.065,4553L531.065,4502Z" style="fill:rgb(125,152,112);"/>
            </g>
        </g>
    </g>
</svg>
