<?xml version="1.0" encoding="UTF-8" standalone="no"?>
<!DOCTYPE svg PUBLIC "-//W3C//DTD SVG 1.1//EN" "http://www.w3.org/Graphics/SVG/1.1/DTD/svg11.dtd">
<svg width="100%" height="100%" viewBox="0 0 186 201" version="1.1" xmlns="http://www.w3.org/2000/svg" xmlns:xlink="http://www.w3.org/1999/xlink" xml:space="preserve" xmlns:serif="http://www.serif.com/" style="fill-rule:evenodd;clip-rule:evenodd;stroke-linecap:round;stroke-linejoin:round;stroke-miterlimit:1.5;">
    <g transform="matrix(1,0,0,1,-8936.68,-13240.6)">
        <g transform="matrix(1.93115,0,0,1.93115,-8663.98,-10296.9)">
            <path d="M9128.75,12207.8C9138.32,12189.9 9162,12190.5 9162,12190.5L9162.08,12190.5C9163.59,12190.5 9186.01,12190.5 9195.25,12207.8C9195.36,12207.3 9196.57,12203.1 9200.72,12206.4C9205.08,12209.8 9206.33,12222.7 9207.44,12231.9C9208.55,12241.2 9206.82,12248.6 9203.42,12244.8C9203.42,12244.8 9202.95,12247.3 9201.79,12249.3C9202,12249.9 9202.25,12250.5 9202.54,12251.2C9204.59,12255.7 9203.18,12263.1 9198.63,12270.3C9201.51,12280 9193.45,12286.2 9186.29,12282.6C9179.87,12286.9 9171.72,12289.8 9162,12290L9161.64,12290C9152.08,12289.7 9144.06,12286.8 9137.71,12282.6C9130.55,12286.2 9122.5,12280 9125.37,12270.3C9120.82,12263.1 9119.41,12255.7 9121.46,12251.2C9121.75,12250.5 9122,12249.9 9122.21,12249.3C9121.05,12247.3 9120.58,12244.8 9120.58,12244.8C9117.18,12248.6 9115.45,12241.2 9116.56,12231.9C9117.67,12222.7 9118.92,12209.8 9123.28,12206.4C9127.43,12203.1 9128.64,12207.3 9128.75,12207.8Z" style="stroke:black;stroke-width:4.32px;"/>
            <g>
                <path d="M9161.64,12290C9131.41,12289.1 9116.57,12262.1 9121.46,12251.2C9126.37,12240.1 9119.17,12235.8 9126.62,12212.8C9134.07,12189.8 9162,12190.5 9162,12190.5L9162.08,12190.5C9163.72,12190.5 9190.16,12190.5 9197.38,12212.8C9204.83,12235.8 9197.63,12240.1 9202.54,12251.2C9207.45,12262.2 9192.47,12289.3 9162,12290L9161.64,12290Z" style="fill:rgb(254,212,172);"/>
                <g transform="matrix(1,0,0,1,103.488,36.5982)">
                    <path d="M9058.83,12221.6L9075.64,12222C9075.64,12222 9091.25,12221.6 9095.02,12233.3C9098.8,12245 9086.77,12251.8 9079.08,12243.1C9079.08,12243.1 9068.14,12244.9 9066.51,12240.2C9066.51,12240.2 9060.68,12243.4 9058.51,12241.4C9056.35,12243.4 9050.51,12240.2 9050.51,12240.2C9048.89,12244.9 9037.94,12243.1 9037.94,12243.1C9030.25,12251.8 9018.23,12245 9022,12233.3C9025.77,12221.6 9041.38,12222 9041.38,12222L9058.2,12221.6L9058.2,12221.6L9058.51,12221.6L9058.83,12221.6L9058.83,12221.6Z" style="fill:rgb(240,240,240);"/>
                </g>
                <g transform="matrix(1,0,0,1,101.966,34.9124)">
                    <ellipse cx="9060.03" cy="12223.6" rx="13.271" ry="12.391" style="fill:rgb(249,186,155);"/>
                </g>
                <g transform="matrix(1,0,0,1,118.22,32.5613)">
                    <path d="M9016.37,12186.6C9016.37,12186.6 9019.56,12184.5 9019.56,12180.6C9019.56,12176.7 9014.56,12174 9010.54,12175.3C9010.54,12175.3 9009.43,12170.3 9005.06,12173.8C9000.7,12177.3 8999.45,12190.1 8998.34,12199.4C8997.23,12208.7 8998.96,12216 9002.36,12212.3C9002.36,12212.3 9004.23,12222.1 9009.71,12217.9C9015.19,12213.7 9013.52,12208.6 9012.27,12206.9C9012.27,12206.9 9018.51,12210.7 9017.61,12205.1C9016.71,12199.4 9010.33,12195.8 9016.37,12186.6Z" style="fill:rgb(240,240,240);"/>
                </g>
                <g transform="matrix(-1,0,0,1,18205.8,32.5613)">
                    <path d="M9016.37,12186.6C9016.37,12186.6 9019.56,12184.5 9019.56,12180.6C9019.56,12176.7 9014.56,12174 9010.54,12175.3C9010.54,12175.3 9009.43,12170.3 9005.06,12173.8C9000.7,12177.3 8999.45,12190.1 8998.34,12199.4C8997.23,12208.7 8998.96,12216 9002.36,12212.3C9002.36,12212.3 9004.23,12222.1 9009.71,12217.9C9015.19,12213.7 9013.52,12208.6 9012.27,12206.9C9012.27,12206.9 9018.51,12210.7 9017.61,12205.1C9016.71,12199.4 9010.33,12195.8 9016.37,12186.6Z" style="fill:rgb(240,240,240);"/>
                </g>
                <g transform="matrix(0.740205,0.284078,-0.284078,0.740205,5922.73,638.24)">
                    <path d="M9015.61,12198.9C9015.61,12198.9 9013.27,12198 9013.88,12195.5C9014.49,12192.9 9019.08,12186.4 9027.4,12186C9035.72,12185.7 9045.93,12186.8 9045.93,12191.6C9045.93,12191.6 9040.99,12188.8 9033.01,12192.3C9025.04,12195.9 9019.32,12204.4 9019.32,12204.4C9019.32,12204.4 9018.02,12206.2 9015.77,12204.3C9013.51,12202.4 9015.61,12198.9 9015.61,12198.9Z" style="fill:rgb(232,232,232);"/>
                </g>
                <g transform="matrix(-0.740205,0.284078,0.284078,0.740205,12401.3,638.24)">
                    <path d="M9015.61,12198.9C9015.61,12198.9 9013.27,12198 9013.88,12195.5C9014.49,12192.9 9019.08,12186.4 9027.4,12186C9035.72,12185.7 9045.93,12186.8 9045.93,12191.6C9045.93,12191.6 9040.99,12188.8 9033.01,12192.3C9025.04,12195.9 9019.32,12204.4 9019.32,12204.4C9019.32,12204.4 9018.02,12206.2 9015.77,12204.3C9013.51,12202.4 9015.61,12198.9 9015.61,12198.9Z" style="fill:rgb(232,232,232);"/>
                </g>
            </g>
        </g>
    </g>
</svg>
