<?xml version="1.0" encoding="UTF-8" standalone="no"?>
<!DOCTYPE svg PUBLIC "-//W3C//DTD SVG 1.1//EN" "http://www.w3.org/Graphics/SVG/1.1/DTD/svg11.dtd">
<svg width="100%" height="100%" viewBox="0 0 259 203" version="1.1" xmlns="http://www.w3.org/2000/svg" xmlns:xlink="http://www.w3.org/1999/xlink" xml:space="preserve" xmlns:serif="http://www.serif.com/" style="fill-rule:evenodd;clip-rule:evenodd;stroke-linecap:round;stroke-linejoin:round;stroke-miterlimit:1.5;">
    <g transform="matrix(1,0,0,1,-8281.49,-13440.1)">
        <g transform="matrix(0.581348,0,0,0.581348,3672.45,6136.3)">
            <path d="M8121.03,12866.9L8120.36,12869.2C8112.26,12877.3 8101.91,12903.8 8101.91,12903.8C8098.74,12887 8098.46,12875.6 8098.46,12875.6C8089.47,12886.1 8073.44,12883.5 8073.44,12883.5C8085.25,12882.7 8089.47,12868.6 8089.47,12868.6C8074.56,12878.2 8032.95,12891.5 8032.95,12891.5C8063.31,12877.5 8075.12,12853.2 8075.12,12853.2C8055.16,12857.7 8022.26,12884.9 8022.26,12884.9C8026.76,12857.6 8064.72,12819.7 8064.72,12819.7C8027.6,12845.6 7984.86,12832.9 7984.86,12832.9C8015.51,12831.8 8021.98,12814.7 8021.98,12814.7C7993.3,12812 7970.8,12784.5 7970.8,12784.5C7984.3,12796.6 8010.17,12800.8 8010.17,12800.8C7983.17,12770.6 7951.4,12780.6 7951.4,12780.6C7960.68,12770.7 7968.27,12766 7968.27,12766C7955.62,12757.3 7935.37,12757.3 7935.37,12757.3C7935.37,12757.3 7953.93,12747.4 7969.68,12750.2C7985.42,12753 8013.82,12746.4 8013.82,12746.4C8008.2,12741.7 7998.36,12740.1 7998.36,12740.1C8018.6,12734.2 8030.98,12727.7 8030.98,12727.7C7996.67,12731.4 7973.61,12714.4 7973.61,12714.4C7979.52,12715.8 7992.17,12719.2 8015.51,12710.4C8038.85,12701.7 8069.22,12662.9 8069.22,12662.9C8069.22,12662.9 8046.16,12677.5 8039.13,12685.7C8032.1,12693.9 8006.51,12703.1 8006.51,12703.1C8016.92,12691.3 8043.63,12670.5 8043.63,12670.5C8027.32,12677.8 8012.7,12690.5 8012.7,12690.5C8023.95,12673.3 8063.88,12652.5 8063.88,12652.5C8031.82,12663.2 7995.55,12653.4 7995.55,12653.4C8026.2,12655.6 8048.13,12647.5 8067.53,12638.5C8086.94,12629.5 8098.18,12612.3 8098.18,12612.3C8051.5,12619.9 8027.88,12604.4 8027.88,12604.4C8049.82,12611.2 8064.16,12607.2 8086.37,12601.1C8108.59,12594.9 8147.11,12585.6 8147.11,12585.6C8147.11,12585.6 8127.15,12586.7 8085.81,12596C8044.47,12605.3 8016.64,12596.6 8016.64,12596.6C8079.34,12596.6 8034.63,12592.3 8134.46,12574.6C8230.48,12557.6 8276,12601 8279.33,12604.3L8279.53,12603.7C8297.75,12602.7 8290.86,12605.9 8320.39,12625.6C8349.92,12645.3 8349.92,12675.5 8353.63,12684.3C8357.34,12693.1 8365.27,12701.3 8365.27,12701.3C8365.27,12701.3 8364.87,12701.2 8364.11,12700.8C8364.83,12701.6 8365.27,12702.1 8365.27,12702.1C8365.27,12702.1 8357.84,12699.7 8346.71,12683.5C8338.23,12671.2 8328.88,12664.2 8324.89,12661.5C8333.74,12671 8347.23,12693.4 8347.04,12711C8347.06,12713.1 8346.9,12715 8346.54,12716.9C8344.99,12725.1 8344.52,12732.3 8344.5,12738C8344.52,12745.5 8345.31,12750.1 8345.31,12750.1C8345.27,12750.1 8345.22,12750 8345.17,12749.9C8345.26,12750.5 8345.31,12750.9 8345.31,12750.9C8342.34,12746.8 8341.67,12743.3 8341.67,12743.3C8340.72,12745.3 8337.89,12746.4 8337.89,12746.4C8338.02,12746.1 8338.14,12745.8 8338.25,12745.5C8338.03,12745.6 8337.89,12745.7 8337.89,12745.7C8339.16,12742.6 8339.63,12740.6 8339.81,12739.6C8338.16,12742.3 8335.19,12744.1 8335.19,12744.1C8335.27,12743.8 8335.35,12743.5 8335.42,12743.2C8335.27,12743.3 8335.19,12743.4 8335.19,12743.4C8336.14,12739.9 8336.52,12736.8 8336.56,12734.1C8336.45,12725.2 8332.62,12720.6 8332.62,12720.6C8330.3,12727.8 8329.57,12734.8 8329.54,12740.7C8329.58,12749.4 8331.14,12755.4 8331.14,12755.4C8335.86,12762.7 8345.58,12765.5 8345.58,12765.5C8345.1,12765.6 8344.61,12765.7 8344.1,12765.7C8345.02,12766.1 8345.58,12766.3 8345.58,12766.3C8340.63,12767.4 8333.62,12765.2 8331.19,12764.4C8335.12,12769.4 8336.14,12774.3 8336.07,12778.1C8336.17,12783.2 8334.24,12786.6 8334.24,12786.6C8333.7,12768.6 8317.64,12759.8 8317.64,12759.8C8307.65,12769.2 8304.42,12798.9 8304.42,12798.9C8303.67,12796.6 8303.3,12792.8 8303.32,12788.4C8303.29,12781.7 8304.22,12773.4 8306.17,12767.1C8308.82,12758.6 8309.59,12747.6 8309.76,12744.6C8308.43,12746.2 8307.19,12747.9 8306.02,12749.5C8307.86,12767.6 8297.08,12781.3 8291.67,12786.9C8291.46,12789.1 8291.36,12791.2 8291.34,12793.2C8291.44,12811.8 8298.91,12824.4 8298.91,12824.4C8298.61,12824 8298.32,12823.7 8298.03,12823.4C8298.57,12824.5 8298.91,12825.1 8298.91,12825.1C8284.57,12810.4 8281.09,12800.7 8279.09,12792.2L8257.62,12814.2L8257.62,12814.3L8250.68,12842.8L8243.33,12856.4L8245.99,12856.7L8247.87,12864L8218.43,12904.7L8216.44,12885.3C8201.28,12900.3 8188.5,12901.4 8183.62,12901.2C8179.11,12901.5 8166,12900.8 8150.36,12885.3L8148.37,12904.7L8121.03,12866.9Z" style="stroke:black;stroke-width:14.33px;"/>
            <g>
                <g transform="matrix(1,0,0,1,444.079,63.5071)">
                    <path d="M7814.83,12621.5C7814.83,12621.5 7816.67,12637.8 7820.63,12647.3C7820.63,12647.3 7813.36,12660.5 7813.49,12666C7813.49,12666 7817,12657.8 7821.73,12653.4C7821.73,12653.4 7818.62,12665 7819.57,12671C7819.57,12671 7805.63,12686.6 7819.34,12710.6C7819.34,12710.6 7811.57,12679.7 7827.49,12667.4C7827.49,12667.4 7824.8,12687.3 7825.34,12693.9C7825.34,12693.9 7827.09,12686.8 7830.33,12684.3C7830.33,12684.3 7827.49,12704.2 7831.88,12716.3C7836.27,12728.5 7833.23,12739.5 7854.83,12761.6C7854.83,12761.6 7831.98,12723.2 7865.72,12681C7865.72,12681 7865.2,12694.4 7862.09,12704.4C7858.99,12714.4 7858.45,12729.5 7860.34,12735.4C7860.34,12735.4 7863.57,12705.7 7873.56,12696.3C7873.56,12696.3 7889.62,12705 7890.16,12723.1C7890.16,12723.1 7896.24,12712.2 7886.25,12700.6C7886.25,12700.6 7895.43,12704.1 7901.5,12702.7C7901.5,12702.7 7891.78,12699.9 7887.06,12692.6C7887.06,12692.6 7882.61,12675.5 7888.55,12657.1C7888.55,12657.1 7895.29,12665.2 7891.11,12680.6C7891.11,12680.6 7894.22,12678.7 7895.83,12675.9C7895.83,12675.9 7895.83,12678 7893.81,12682.9C7893.81,12682.9 7896.64,12681.8 7897.59,12679.8C7897.59,12679.8 7898.26,12683.3 7901.23,12687.4C7901.23,12687.4 7898.75,12672.8 7902.46,12653.4C7906.17,12634 7888.29,12605.5 7878.84,12596.7C7878.84,12596.7 7891.5,12603.8 7902.63,12620C7913.77,12636.2 7921.19,12638.6 7921.19,12638.6C7921.19,12638.6 7913.26,12630.3 7909.55,12621.5C7905.84,12612.8 7905.84,12582.6 7876.31,12562.8C7846.79,12543.1 7853.67,12539.9 7835.45,12541C7835.45,12541 7790.2,12493.4 7690.38,12511.1C7590.55,12528.8 7635.26,12533.1 7572.56,12533.1C7572.56,12533.1 7600.4,12541.8 7641.73,12532.5C7683.07,12523.2 7703.03,12522.1 7703.03,12522.1C7703.03,12522.1 7664.51,12531.4 7642.29,12537.6C7620.08,12543.7 7605.74,12547.7 7583.81,12540.9C7583.81,12540.9 7607.43,12556.4 7654.1,12548.8C7654.1,12548.8 7642.86,12566 7623.45,12575C7604.05,12583.9 7582.12,12592.1 7551.47,12589.9C7551.47,12589.9 7587.74,12599.7 7619.8,12589C7619.8,12589 7579.87,12609.8 7568.62,12627C7568.62,12627 7583.24,12614.3 7599.55,12607C7599.55,12607 7572.84,12627.8 7562.43,12639.6C7562.43,12639.6 7588.02,12630.3 7595.05,12622.2C7602.08,12614 7625.14,12599.4 7625.14,12599.4C7625.14,12599.4 7594.77,12638.2 7571.43,12646.9C7548.09,12655.7 7535.44,12652.3 7529.53,12650.9C7529.53,12650.9 7552.59,12667.9 7586.9,12664.2C7586.9,12664.2 7574.53,12670.7 7554.28,12676.6C7554.28,12676.6 7564.12,12678.2 7569.74,12682.9C7569.74,12682.9 7541.34,12689.5 7525.6,12686.7C7509.85,12683.9 7491.29,12693.8 7491.29,12693.8C7491.29,12693.8 7511.54,12693.8 7524.19,12702.5C7524.19,12702.5 7516.6,12707.2 7507.32,12717.1C7507.32,12717.1 7539.1,12707.1 7566.09,12737.3C7566.09,12737.3 7540.22,12733.1 7526.72,12721C7526.72,12721 7549.22,12748.5 7577.9,12751.2C7577.9,12751.2 7571.43,12768.3 7540.78,12769.4C7540.78,12769.4 7583.52,12782.1 7620.64,12756.2C7620.64,12756.2 7582.68,12794.1 7578.18,12821.4C7578.18,12821.4 7611.08,12794.2 7631.05,12789.7C7631.05,12789.7 7619.24,12814 7588.87,12828C7588.87,12828 7630.48,12814.7 7645.39,12805.1C7645.39,12805.1 7641.17,12819.2 7629.36,12820C7629.36,12820 7645.39,12822.5 7654.39,12812.1C7654.39,12812.1 7654.67,12823.5 7657.83,12840.3C7657.83,12840.3 7668.18,12813.8 7676.28,12805.7L7681.9,12786.4L7695.66,12732.7L7670.65,12663.2L7677.68,12594.7L7814.83,12621.5Z" style="fill:rgb(134,132,109);"/>
                </g>
                <path d="M8181.5,12861L8133.29,12847.5L8112.49,12817.2L8102.99,12787.3L8091.5,12763.4L8083.1,12727.2L8091.5,12682.9C8091.5,12682.9 8091.82,12611.9 8181.5,12611L8181.5,12612.2C8271.18,12613.2 8271.5,12684.1 8271.5,12684.1L8279.9,12728.4L8271.5,12764.6L8260.01,12788.6L8250.51,12818.4L8229.71,12848.7L8181.5,12862.3L8181.5,12861Z" style="fill:rgb(151,136,128);"/>
                <g transform="matrix(1,0,0,1,424.354,17.5016)">
                    <path d="M7681.73,12712.1C7681.73,12712.1 7684.54,12708.6 7688.02,12711.1C7691.49,12713.5 7717.12,12729.7 7733.15,12731.4L7733.32,12720.6C7733.32,12720.6 7719.27,12718.8 7704.72,12713C7690.17,12707.3 7683.72,12706.1 7681.73,12712.1Z" style="fill:rgb(97,77,72);"/>
                </g>
                <path d="M8183.37,12852.9L8208.14,12843C8213.04,12843 8232.12,12839.8 8232.12,12839.8L8232.12,12842.8L8238.4,12848.7L8238.4,12865.5L8219.18,12882.4C8202.84,12900.2 8188.79,12901.4 8183.62,12901.2C8178.84,12901.5 8164.45,12900.8 8147.62,12882.4L8128.4,12865.6L8128.4,12848.7L8134.68,12842.8L8134.68,12839.8C8134.68,12839.8 8153.76,12843 8158.66,12843L8183.37,12852.9Z" style="fill:rgb(54,55,56);"/>
                <g transform="matrix(1,0,0,1,7.90794,0)">
                    <path d="M8050.65,12737.3C8050.65,12737.3 8046.35,12710.2 8048.69,12702.3C8051.04,12694.4 8051.17,12679.6 8083.59,12683.5L8083.59,12751.2L8064.58,12751.2L8050.65,12737.3" style="fill:rgb(28,28,26);"/>
                </g>
                <g transform="matrix(1,0,0,1,7.90794,0)">
                    <path d="M8054.68,12758.1C8054.68,12758.1 8051.04,12741.9 8050.65,12737.3C8050.65,12737.3 8057.29,12748.6 8083.59,12745.1L8083.46,12759.5L8083.46,12767.7L8067.97,12771.6L8054.68,12758.1Z" style="fill:rgb(68,68,63);"/>
                </g>
                <g transform="matrix(1,0,0,1,7.90794,0)">
                    <path d="M8083.54,12762C8083.54,12762 8072,12774.8 8054.68,12758.1C8054.68,12758.1 8065.62,12790.1 8069.53,12796.2L8089.19,12775.5L8083.54,12762Z" style="fill:rgb(135,136,131);"/>
                </g>
                <g transform="matrix(-1,0,0,1,16355.1,0)">
                    <path d="M8050.65,12737.3C8050.65,12737.3 8046.35,12710.2 8048.69,12702.3C8051.04,12694.4 8051.17,12679.6 8083.59,12683.5L8083.59,12751.2L8064.58,12751.2L8050.65,12737.3" style="fill:rgb(28,28,26);"/>
                </g>
                <g transform="matrix(-1,0,0,1,16355.1,0)">
                    <path d="M8054.68,12758.1C8054.68,12758.1 8051.04,12741.9 8050.65,12737.3C8050.65,12737.3 8057.29,12748.6 8083.59,12745.1L8083.46,12759.5L8083.46,12767.7L8067.97,12771.6L8054.68,12758.1Z" style="fill:rgb(68,68,63);"/>
                </g>
                <g transform="matrix(-1,0,0,1,16355.1,0)">
                    <path d="M8083.54,12762C8083.54,12762 8072,12774.8 8054.68,12758.1C8054.68,12758.1 8065.62,12790.1 8069.53,12796.2L8089.19,12775.5L8083.54,12762Z" style="fill:rgb(135,136,131);"/>
                </g>
                <path d="M8109.18,12814.3L8109.18,12814.2L8079.56,12783.9L8080.87,12754.8L8089.87,12751.2L8094.93,12753.1L8114.43,12786.7L8115.18,12810.6L8114.93,12810.7L8147.62,12850.1L8133.64,12855.1L8134.68,12855C8140.12,12862.1 8140.87,12871.1 8140.87,12871.1L8150.43,12884.6L8148.37,12904.7L8118.93,12864L8120.81,12856.7L8123.47,12856.4L8116.12,12842.8L8109.18,12814.3Z" style="fill:rgb(56,63,67);"/>
                <g transform="matrix(1,0,0,1,1.4,0)">
                    <path d="M8183.66,12856.8L8183.42,12847.3C8183.42,12847.3 8179.5,12842.7 8175.18,12844.8L8175.1,12854.1C8175.1,12854.1 8178.38,12858.1 8183.66,12856.8Z" style="fill:rgb(61,61,61);"/>
                </g>
                <g transform="matrix(1,0,0,1,1.4,0)">
                    <path d="M8175.1,12845.2C8175.1,12845.2 8169.78,12842.1 8167.15,12844.2L8166.83,12853.7C8166.83,12853.7 8171.47,12857.7 8175.1,12853.9L8175.1,12845.2Z" style="fill:rgb(61,61,61);"/>
                </g>
                <g transform="matrix(1,0,0,1,1.4,0)">
                    <path d="M8167.47,12844.2C8167.47,12844.2 8161.78,12841.5 8159.34,12843.5L8159.15,12849.5C8159.15,12849.5 8162.48,12853.3 8166.83,12852L8167.47,12844.2" style="fill:rgb(61,61,61);"/>
                </g>
                <path d="M8251.87,12810.7L8251.62,12810.5L8252.37,12786.6L8271.87,12753.1L8276.93,12751.2L8285.93,12754.8L8287.24,12783.8L8257.62,12814.2L8257.62,12814.3L8250.68,12842.8L8243.33,12856.4L8245.99,12856.7L8247.87,12864L8218.43,12904.7L8216.37,12884.6L8225.93,12871.1C8225.93,12871.1 8226.68,12862.1 8232.12,12855L8233.16,12855.1L8219.18,12850.1L8251.87,12810.7Z" style="fill:rgb(56,63,67);"/>
                <g transform="matrix(-1,0,0,1,16365.4,-0.0270082)">
                    <path d="M8183.66,12856.8L8183.42,12847.3C8183.42,12847.3 8179.5,12842.7 8175.18,12844.8L8175.1,12854.1C8175.1,12854.1 8178.38,12858.1 8183.66,12856.8Z" style="fill:rgb(61,61,61);"/>
                </g>
                <g transform="matrix(-1,0,0,1,16365.4,-0.0270082)">
                    <path d="M8175.1,12845.2C8175.1,12845.2 8169.78,12842.1 8167.15,12844.2L8166.83,12853.7C8166.83,12853.7 8171.47,12857.7 8175.1,12853.9L8175.1,12845.2Z" style="fill:rgb(61,61,61);"/>
                </g>
                <g transform="matrix(-1,0,0,1,16365.4,-0.0270082)">
                    <path d="M8167.47,12844.2C8167.47,12844.2 8161.78,12841.5 8159.34,12843.5L8159.15,12849.5C8159.15,12849.5 8162.48,12853.3 8166.83,12852L8167.47,12844.2" style="fill:rgb(61,61,61);"/>
                </g>
                <g transform="matrix(1,0,0,1,15.5422,11.4747)">
                    <ellipse cx="8226.26" cy="12674" rx="4.074" ry="4.148" style="fill:rgb(28,28,26);"/>
                </g>
                <g transform="matrix(1,0,0,1,23.6904,-1.41417)">
                    <ellipse cx="8226.26" cy="12674" rx="4.074" ry="4.148" style="fill:rgb(28,28,26);"/>
                </g>
                <path d="M8288.71,12789.7C8288.71,12789.7 8313.65,12769.2 8304.02,12740.3C8304.02,12740.3 8192.3,12717.6 8095.55,12643L8081.54,12687.3C8081.54,12687.3 8124.49,12741.6 8288.71,12789.7Z" style="fill:rgb(60,65,63);"/>
                <g transform="matrix(1,0,0,1,444.079,62.761)">
                    <path d="M7814.83,12621.5C7814.83,12621.5 7816.67,12637.8 7820.63,12647.3C7820.63,12647.3 7813.36,12660.5 7813.49,12666C7813.49,12666 7817,12657.8 7821.73,12653.4C7821.73,12653.4 7818.62,12665 7819.57,12671C7819.57,12671 7805.63,12686.6 7819.34,12710.6C7819.34,12710.6 7811.57,12679.7 7827.49,12667.4C7827.49,12667.4 7824.8,12687.3 7825.34,12693.9C7825.34,12693.9 7827.09,12686.8 7830.33,12684.3C7830.33,12684.3 7827.49,12704.2 7831.88,12716.3C7836.27,12728.5 7833.23,12739.5 7854.83,12761.6C7854.83,12761.6 7831.98,12723.2 7865.72,12681C7865.72,12681 7865.2,12694.4 7862.09,12704.4C7858.99,12714.4 7858.45,12729.5 7860.34,12735.4C7860.34,12735.4 7863.57,12705.7 7873.56,12696.3C7873.56,12696.3 7889.62,12705 7890.16,12723.1C7890.16,12723.1 7896.24,12712.2 7886.25,12700.6C7886.25,12700.6 7895.43,12704.1 7901.5,12702.7C7901.5,12702.7 7891.78,12699.9 7887.06,12692.6C7887.06,12692.6 7882.61,12675.5 7888.55,12657.1C7888.55,12657.1 7895.29,12665.2 7891.11,12680.6C7891.11,12680.6 7894.22,12678.7 7895.83,12675.9C7895.83,12675.9 7895.83,12678 7893.81,12682.9C7893.81,12682.9 7896.64,12681.8 7897.59,12679.8C7897.59,12679.8 7898.26,12683.3 7901.23,12687.4C7901.23,12687.4 7898.75,12672.8 7902.46,12653.4C7906.17,12634 7888.29,12605.5 7878.84,12596.7C7878.84,12596.7 7891.5,12603.8 7902.63,12620C7913.77,12636.2 7921.19,12638.6 7921.19,12638.6C7921.19,12638.6 7913.26,12630.3 7909.55,12621.5C7905.84,12612.8 7905.84,12582.6 7876.31,12562.8C7846.79,12543.1 7853.67,12539.9 7835.45,12541L7816.43,12593.5L7814.83,12621.5Z" style="fill:rgb(134,132,109);"/>
                </g>
                <g transform="matrix(1,0,0,1,420.76,46.6116)">
                    <path d="M7845.86,12610.6C7845.86,12610.6 7822.98,12609.8 7809.8,12630.2C7796.62,12650.6 7736.61,12684 7732.21,12737C7732.21,12737 7727.2,12707 7748.09,12679.5C7768.98,12652 7778.34,12634.9 7781.55,12617.6C7781.55,12617.6 7710.99,12703.6 7628.64,12708.9C7628.64,12708.9 7679.86,12698.9 7721.79,12656.4C7721.79,12656.4 7687.14,12690 7637.68,12682.9C7637.68,12682.9 7680.86,12685.8 7714.76,12654.2C7714.76,12654.2 7682.37,12671.8 7650.99,12671.3C7619.6,12670.8 7610.31,12671.3 7600.77,12674.8C7600.77,12674.8 7618.1,12663.2 7637.68,12660L7662.34,12597.1L7737.77,12540.6L7804.72,12545.8L7845.86,12610.6Z" style="fill:rgb(134,132,109);"/>
                </g>
            </g>
        </g>
    </g>
</svg>
