<?xml version="1.0" encoding="UTF-8" standalone="no"?>
<!DOCTYPE svg PUBLIC "-//W3C//DTD SVG 1.1//EN" "http://www.w3.org/Graphics/SVG/1.1/DTD/svg11.dtd">
<svg width="100%" height="100%" viewBox="0 0 160 275" version="1.1" xmlns="http://www.w3.org/2000/svg" xmlns:xlink="http://www.w3.org/1999/xlink" xml:space="preserve" xmlns:serif="http://www.serif.com/" style="fill-rule:evenodd;clip-rule:evenodd;stroke-linecap:round;stroke-linejoin:round;stroke-miterlimit:1.5;">
    <g transform="matrix(1,0,0,1,-9451.51,-153.404)">
        <g transform="matrix(0.223664,0,0,0.223664,8841.65,-706.889)">
            <g transform="matrix(1.25419,0,0,1.25419,-631.095,-2345.16)">
                <path d="M2969.7,5169.52C2969.57,5169.83 2969.5,5170 2969.5,5170C2960.33,5062.11 2968.84,5019.67 3063.42,4966.15C3121.41,4933.33 3208.62,4956.93 3222.75,5025C3252.62,5168.87 3191.02,5205 3191.02,5205C3195.66,5192.28 3197.04,5179.42 3196.67,5167.57C3187.01,5206.71 3181.01,5251.68 3177.28,5293.26C3187.93,5277.41 3199.37,5258.79 3207.35,5241.5C3207.35,5241.5 3206.24,5310.4 3179.08,5358.97C3179.08,5358.97 3228.63,5386.31 3209.18,5414.94C3209.18,5414.94 3196.02,5399.8 3172.56,5400.41C3176.63,5438.45 3175.24,5468 3175.24,5468L3175.24,5554.12C3208.98,5590.39 3229,5635.56 3229,5684.5C3229,5803.99 3109.64,5901 2962.63,5901C2815.62,5901 2696.27,5803.99 2696.27,5684.5C2696.27,5635.58 2716.27,5590.43 2750,5554.15L2750,5468C2750,5468 2749.3,5453.1 2750.35,5430.83L2749.77,5431C2749.77,5431 2749.88,5419.44 2749.49,5400.4C2727.31,5400.67 2714.9,5414.94 2714.9,5414.94C2695.45,5386.31 2745,5358.97 2745,5358.97C2717.84,5310.4 2716.73,5241.5 2716.73,5241.5C2723.83,5256.88 2733.67,5273.31 2743.24,5287.91C2739.78,5250.9 2734.48,5211.54 2726.4,5176.2C2726.82,5185.55 2728.47,5195.32 2732,5205C2732,5205 2670.4,5168.87 2700.27,5025C2714.4,4956.93 2801.61,4933.33 2859.6,4966.15C2954.18,5019.67 2962.69,5062.11 2953.52,5170C2953.52,5170 2952.32,5167.07 2950.17,5162.45C2954.43,5187.85 2958.2,5218.78 2960.51,5255.84C2962.61,5222.14 2965.91,5193.52 2969.7,5169.52Z" style="stroke:black;stroke-width:29.71px;"/>
            </g>
            <g transform="matrix(1.25419,0,0,1.25419,-631.095,-2345.16)">
                <g transform="matrix(0.935838,0.111789,-0.11861,0.992941,835.507,-338.216)">
                    <path d="M3151,5356C3151,5356 3186.03,5302.51 3201,5259C3201,5259 3208.51,5327.55 3186,5379C3186,5379 3241.64,5400.26 3224.75,5431C3224.75,5431 3188.96,5400.42 3141,5443L3151,5356Z" style="fill:rgb(156,103,16);"/>
                </g>
                <g transform="matrix(-0.935838,0.111789,0.11861,0.992941,5088.57,-338.216)">
                    <path d="M3151,5356C3151,5356 3186.03,5302.51 3201,5259C3201,5259 3208.51,5327.55 3186,5379C3186,5379 3241.64,5400.26 3224.75,5431C3224.75,5431 3188.96,5400.42 3141,5443L3151,5356Z" style="fill:rgb(156,103,16);"/>
                </g>
                <g transform="matrix(1,0,0,1.31707,0,-1722.02)">
                    <path d="M2749.77,5431C2749.77,5431 2752.18,5243.2 2696.27,5175C2696.27,5175 2810.43,5115.67 2923.52,5153.56C2923.52,5153.56 2966.98,5215.15 2962.62,5383L2749.77,5431Z" style="fill:rgb(194,120,0);"/>
                </g>
                <g transform="matrix(1,0,0,1,4,20)">
                    <path d="M2829.67,5193C2829.67,5193 2747.74,5158.28 2735,5095C2735,5095 2711.89,5140.84 2728,5185C2728,5185 2666.4,5148.87 2696.27,5005C2710.4,4936.93 2797.61,4913.33 2855.6,4946.15C2950.18,4999.67 2958.69,5042.11 2949.52,5150C2949.52,5150 2922.79,5084.64 2895.45,5086C2895.45,5086 2896.63,5115.64 2829.67,5193Z" style="fill:rgb(232,160,42);"/>
                </g>
                <g transform="matrix(-1,0,0,1.31707,5921.02,-1722.02)">
                    <path d="M2749.77,5431C2749.77,5431 2752.18,5243.2 2696.27,5175C2696.27,5175 2810.43,5115.67 2923.52,5153.56C2923.52,5153.56 2966.98,5215.15 2962.62,5383L2749.77,5431Z" style="fill:rgb(194,120,0);"/>
                </g>
                <g transform="matrix(-1,0,0,1,5919.02,20)">
                    <path d="M2829.67,5193C2829.67,5193 2747.74,5158.28 2735,5095C2735,5095 2711.89,5140.84 2728,5185C2728,5185 2666.4,5148.87 2696.27,5005C2710.4,4936.93 2797.61,4913.33 2855.6,4946.15C2950.18,4999.67 2958.69,5042.11 2949.52,5150C2949.52,5150 2922.79,5084.64 2895.45,5086C2895.45,5086 2896.63,5115.64 2829.67,5193Z" style="fill:rgb(232,160,42);"/>
                </g>
                <path d="M2962.62,5283.41C2962.66,5283.27 2962.58,5283.55 2962.62,5283.41C2980.55,5221.97 3055.46,5235 3055.46,5235C3186.29,5234.05 3175.24,5468 3175.24,5468L3175.24,5658L2962.74,5684.5C2962.74,5684.5 2962.7,5683.71 2962.62,5682.2C2962.54,5683.71 2962.5,5684.5 2962.5,5684.5L2750,5658L2750,5468C2750,5468 2738.95,5234.05 2869.78,5235C2869.78,5235 2944.69,5221.97 2962.62,5283.41C2962.66,5283.55 2962.58,5283.27 2962.62,5283.41Z" style="fill:rgb(231,180,97);"/>
                <clipPath id="_clip1">
                    <path d="M2962.62,5283.41C2962.66,5283.27 2962.58,5283.55 2962.62,5283.41C2980.55,5221.97 3055.46,5235 3055.46,5235C3186.29,5234.05 3175.24,5468 3175.24,5468L3175.24,5658L2962.74,5684.5C2962.74,5684.5 2962.7,5683.71 2962.62,5682.2C2962.54,5683.71 2962.5,5684.5 2962.5,5684.5L2750,5658L2750,5468C2750,5468 2738.95,5234.05 2869.78,5235C2869.78,5235 2944.69,5221.97 2962.62,5283.41C2962.66,5283.55 2962.58,5283.27 2962.62,5283.41Z"/>
                </clipPath>
                <g clip-path="url(#_clip1)">
                    <g transform="matrix(0.956431,0,0,0.829502,74.6893,1087.63)">
                        <ellipse cx="3019.5" cy="5514" rx="278.5" ry="261" style="fill:rgb(215,166,86);"/>
                    </g>
                    <g transform="matrix(-0.978434,0.20656,0.20656,0.978434,4740.98,-485.198)">
                        <path d="M2785.85,5353.23C2798.64,5325.38 2811.3,5310.04 2825.86,5301.54C2846.8,5289.33 2873.21,5291.4 2916.14,5296C2924.65,5296.91 2930.82,5304.56 2929.91,5313.07C2928.99,5321.58 2921.34,5327.75 2912.83,5326.84C2894.31,5324.85 2879.34,5323.02 2866.74,5323.05C2856.78,5323.07 2848.62,5324.17 2841.49,5328.33C2831.07,5334.41 2823.18,5346.25 2814.04,5366.17C2810.47,5373.95 2801.26,5377.36 2793.48,5373.79C2785.7,5370.22 2782.28,5361.01 2785.85,5353.23Z" style="fill:rgb(130,84,0);"/>
                    </g>
                    <g transform="matrix(0.978434,0.20656,-0.20656,0.978434,1184.02,-485.198)">
                        <path d="M2814.04,5366.17C2823.18,5346.25 2831.07,5334.41 2841.49,5328.33C2848.62,5324.17 2856.78,5323.07 2866.74,5323.05C2879.34,5323.02 2894.31,5324.85 2912.83,5326.84C2921.34,5327.75 2928.99,5321.58 2929.91,5313.07C2930.82,5304.56 2924.65,5296.91 2916.14,5296C2873.21,5291.4 2846.8,5289.33 2825.86,5301.54C2811.3,5310.04 2798.64,5325.38 2785.85,5353.23C2782.28,5361.01 2785.7,5370.22 2793.48,5373.79C2801.26,5377.36 2810.47,5373.95 2814.04,5366.17Z" style="fill:rgb(130,84,0);"/>
                    </g>
                </g>
                <g transform="matrix(0.956431,0,0,0.829502,74.6893,1110.63)">
                    <ellipse cx="3019.5" cy="5514" rx="278.5" ry="261" style="fill:rgb(231,180,97);"/>
                </g>
            </g>
        </g>
    </g>
</svg>
