<?xml version="1.0" encoding="UTF-8" standalone="no"?>
<!DOCTYPE svg PUBLIC "-//W3C//DTD SVG 1.1//EN" "http://www.w3.org/Graphics/SVG/1.1/DTD/svg11.dtd">
<svg width="100%" height="100%" viewBox="0 0 181 206" version="1.1" xmlns="http://www.w3.org/2000/svg" xmlns:xlink="http://www.w3.org/1999/xlink" xml:space="preserve" xmlns:serif="http://www.serif.com/" style="fill-rule:evenodd;clip-rule:evenodd;stroke-linecap:round;stroke-linejoin:round;stroke-miterlimit:1.5;">
    <g transform="matrix(1,0,0,1,-6128.083949,-13360.748187)">
        <g transform="matrix(1.238035,0,0,1.238035,2523.710344,-121.363412)">
            <g transform="matrix(0.752865,-0.062478,0.062478,0.752865,-473.656284,2058.177085)">
                <path d="M3526.093,12186.338C3530.126,12205.752 3536.215,12220.447 3536.215,12220.447C3532.558,12217.381 3530.861,12213.439 3530.861,12213.439C3527.602,12215.799 3526.105,12239.109 3526.105,12239.109C3522.252,12232.811 3520.629,12215.46 3520.629,12215.46C3513.143,12221.295 3507.83,12227.31 3507.83,12227.31C3508.874,12212.093 3505.862,12193.792 3505.862,12193.792C3489.297,12171.976 3487.299,12123.956 3509.283,12080.478C3511.557,12075.982 3514.285,12072.032 3517.349,12068.563L3515.251,12067.03L3517.448,12040.557L3540.238,12029.121L3578.113,12044.229C3583.73,12043.959 3588.417,12044.08 3591.549,12044.25L3591.551,12044.225C3591.551,12044.225 3592.305,12044.262 3593.668,12044.386C3595.033,12044.489 3595.783,12044.577 3595.783,12044.577L3595.781,12044.601C3598.898,12044.95 3603.541,12045.603 3609.037,12046.795L3648.884,12038.137L3669.477,12053.174L3667.28,12079.647L3664.958,12080.812C3667.408,12084.739 3669.448,12089.085 3670.949,12093.894C3685.466,12140.402 3675.58,12187.435 3655.645,12206.222C3655.645,12206.222 3649.657,12223.776 3648.179,12238.957C3648.179,12238.957 3643.93,12232.148 3637.509,12225.159C3637.509,12225.159 3633.047,12242.006 3628.209,12247.582C3628.209,12247.582 3630.575,12224.345 3627.749,12221.48C3627.749,12221.48 3625.426,12225.088 3621.314,12227.509C3621.314,12227.509 3629.742,12214.019 3636.919,12195.535C3623.081,12214.139 3607.22,12226.056 3602.287,12229.771C3594.24,12235.83 3581.869,12235.83 3578.294,12235.69L3578.292,12235.718C3578.292,12235.718 3578.117,12235.703 3577.794,12235.667C3577.47,12235.65 3577.295,12235.635 3577.295,12235.635L3577.298,12235.607C3573.749,12235.156 3561.546,12233.117 3554.608,12225.814C3550.355,12221.337 3536.676,12206.968 3526.093,12186.338Z" style="stroke:black;stroke-width:8.91px;"/>
            </g>
            <g>
                <g transform="matrix(0.752865,-0.062478,0.062478,0.752865,-473.656284,2058.177085)">
                    <path d="M3577.298,12235.607C3573.749,12235.156 3561.546,12233.117 3554.608,12225.814C3546.427,12217.202 3503.366,12171.988 3514.562,12116.009L3528.626,12081.769L3651.658,12091.979L3659.886,12128.069C3661.701,12185.128 3611.776,12222.625 3602.287,12229.771C3594.24,12235.83 3581.869,12235.83 3578.294,12235.69L3578.292,12235.718C3578.292,12235.718 3578.117,12235.703 3577.794,12235.667C3577.47,12235.65 3577.295,12235.635 3577.295,12235.635L3577.298,12235.607Z" style="fill:rgb(230,180,139);"/>
                </g>
                <g transform="matrix(0.221806,0,0,0.221806,2533.93194,8333.127475)">
                    <path d="M2072.194,11952.14C2072.194,11952.14 2115.403,11895.222 2153.757,11886.063C2153.757,11886.063 2125.73,11906.015 2072.194,11952.14Z" style="fill:rgb(104,34,41);"/>
                </g>
                <g transform="matrix(-0.221806,0,0,0.221806,3434.871977,8333.127475)">
                    <path d="M2072.194,11952.14C2072.194,11952.14 2115.403,11895.222 2153.757,11886.063C2153.757,11886.063 2125.73,11906.015 2072.194,11952.14Z" style="fill:rgb(104,34,41);"/>
                </g>
                <g transform="matrix(0.18403,0,-0,0.201124,2584.544926,8808.287139)">
                    <path d="M2164.067,10407.469L2164.069,10407.377C2164.069,10407.377 2167.165,10407.281 2172.784,10407.32C2178.403,10407.281 2181.499,10407.377 2181.499,10407.377L2181.501,10407.469C2241.932,10409.059 2442.201,10425.284 2505.749,10568.637C2580.924,10738.218 2556.449,10917.349 2481.273,10993.869C2481.273,10993.869 2462.739,11061.437 2461.844,11118.724C2461.844,11118.724 2442.151,11094.556 2413.508,11070.388C2413.508,11070.388 2400.976,11134.836 2383.074,11157.214C2383.074,11157.214 2384.864,11069.493 2372.333,11059.647C2372.333,11059.647 2364.053,11073.874 2348.053,11084.215C2348.053,11084.215 2471.763,10864.443 2410.224,10717.869L2172.784,10634.129L1935.344,10717.869C1873.805,10864.443 1997.515,11084.215 1997.515,11084.215C1981.515,11073.874 1973.235,11059.647 1973.235,11059.647C1960.704,11069.493 1962.494,11157.214 1962.494,11157.214C1944.592,11134.836 1932.06,11070.388 1932.06,11070.388C1903.417,11094.556 1883.724,11118.724 1883.724,11118.724C1882.829,11061.437 1864.295,10993.869 1864.295,10993.869C1789.119,10917.349 1764.644,10738.218 1839.819,10568.637C1903.367,10425.284 2103.637,10409.059 2164.067,10407.469Z" style="fill:rgb(104,34,41);"/>
                </g>
                <g transform="matrix(-0,-0.233096,-0.226254,0,5698.986165,11530.454975)">
                    <path d="M2561.278,11815.956L2604.324,11743.281L2690.416,11743.281L2733.462,11815.956L2690.416,11960.992L2604.324,11960.992L2561.278,11815.956Z" style="fill:rgb(108,108,108);"/>
                </g>
                <g transform="matrix(0.18021,-0,0,0.18273,2459.044464,8760.543007)">
                    <path d="M2915.128,11910.976L2687.934,11890.976L2868.833,11726.517L2915.128,11779.618L2961.422,11726.517L3142.322,11890.976L2915.128,11910.976Z" style="fill:rgb(108,108,108);"/>
                </g>
                <g transform="matrix(0,-0.233096,0.226254,0,269.817752,11530.454975)">
                    <path d="M2561.278,11815.956L2604.324,11743.281L2690.416,11743.281L2733.462,11815.956L2690.416,11960.992L2604.324,11960.992L2561.278,11815.956Z" style="fill:rgb(108,108,108);"/>
                </g>
                <g transform="matrix(-0,0.163375,0.151796,0,1221.900007,10459.396905)">
                    <path d="M2873.635,11865.711L2683.707,11865.711L2731.189,11693.526L2826.153,11693.526L2873.635,11865.711Z" style="fill:rgb(154,182,183);"/>
                </g>
                <g transform="matrix(0,-0.18021,0.18021,0,813.321492,11390.445067)">
                    <path d="M2733.462,11815.956L2561.278,11815.956L2604.324,11743.281L2690.416,11743.281L2733.462,11815.956Z" style="fill:rgb(154,182,183);"/>
                </g>
                <g transform="matrix(0,0.163375,-0.151796,0,4746.90391,10459.396905)">
                    <path d="M2873.635,11865.711L2683.707,11865.711L2731.189,11693.526L2826.153,11693.526L2873.635,11865.711Z" style="fill:rgb(154,182,183);"/>
                </g>
                <g transform="matrix(-0,-0.18021,-0.18021,0,5155.482424,11390.445067)">
                    <path d="M2733.462,11815.956L2561.278,11815.956L2604.324,11743.281L2690.416,11743.281L2733.462,11815.956Z" style="fill:rgb(154,182,183);"/>
                </g>
                <g transform="matrix(0.182945,0,0,0.21967,2586.487256,8599.996914)">
                    <path d="M2175.05,10729.403C2161.9,10759.223 2124.936,10839.524 2089.823,10883.271C2089.823,10883.271 2061.896,10793.76 2065.476,10720.003C2065.476,10720.003 1965.045,10834.756 2012.486,11002.142C2012.486,11002.142 1906.863,10882.197 1897.016,10812.379C1887.17,10742.56 1953.408,10599.342 2076.038,10587.706C2076.038,10587.706 2091.255,10526.839 2173.605,10531.314L2176.495,10531.314C2258.845,10526.839 2274.062,10587.706 2274.062,10587.706C2396.692,10599.342 2462.93,10742.56 2453.084,10812.379C2443.238,10882.197 2337.615,11002.142 2337.615,11002.142C2385.056,10834.756 2284.624,10720.003 2284.624,10720.003C2288.205,10793.76 2260.277,10883.271 2260.277,10883.271C2225.164,10839.524 2188.201,10759.223 2175.05,10729.403Z" style="fill:rgb(118,40,48);"/>
                </g>
            </g>
        </g>
    </g>
</svg>
