<?xml version="1.0" encoding="UTF-8" standalone="no"?>
<!DOCTYPE svg PUBLIC "-//W3C//DTD SVG 1.1//EN" "http://www.w3.org/Graphics/SVG/1.1/DTD/svg11.dtd">
<svg width="100%" height="100%" viewBox="0 0 191 201" version="1.1" xmlns="http://www.w3.org/2000/svg" xmlns:xlink="http://www.w3.org/1999/xlink" xml:space="preserve" xmlns:serif="http://www.serif.com/" style="fill-rule:evenodd;clip-rule:evenodd;stroke-linecap:round;stroke-linejoin:round;stroke-miterlimit:1.5;">
    <g transform="matrix(1,0,0,1,-99.664377,-13361.209755)">
        <g transform="matrix(0.174477,0,0,0.174477,-206.063757,11844.80693)">
            <g transform="matrix(1,0,0,1,10.002234,15.60928)">
                <path d="M1807.354,9342.016C1614.299,8772.353 2178.631,8702.723 2178.631,8702.723C2181.081,8705.543 2183.421,8708.497 2185.656,8711.573C2189.441,8711.029 2193.255,8710.51 2197.095,8710.017C2195.635,8707.538 2194.127,8705.106 2192.571,8702.723C2192.571,8702.723 2254.424,8695.15 2337.749,8702.853C2342.54,8702.923 2347.361,8703.02 2352.214,8703.144L2352.151,8704.318C2395.935,8709.182 2444.732,8718.378 2493.146,8734.96C2531.211,8747.392 2565.385,8763.558 2595.559,8783.694C2724.425,8866.294 2818.182,9027.463 2750.367,9338.754L2750.808,9337.865C2750.808,9337.865 2840.368,9347.174 2798.844,9431.724C2763.824,9503.031 2719.48,9551.209 2667.433,9562.99C2550.579,9753.768 2354.412,9797.483 2296.326,9799.392L2279.636,9799.392C2221.55,9797.483 2025.383,9753.768 1908.529,9562.99C1856.482,9551.209 1812.138,9503.031 1777.118,9431.724C1747.878,9372.186 1783.638,9349.957 1807.354,9342.016Z" style="stroke:black;stroke-width:47.76px;"/>
            </g>
            <g>
                <g transform="matrix(1,0,0,1,10.002234,15.60928)">
                    <path d="M1825.154,9337.865C1825.154,9337.865 1735.594,9347.174 1777.118,9431.724C1818.642,9516.274 1873.274,9568.305 1938.313,9565.704L1825.154,9337.865Z" style="fill:rgb(199,154,118);"/>
                </g>
                <g transform="matrix(-1,0,0,1,4585.96426,15.60928)">
                    <path d="M1825.154,9337.865C1825.154,9337.865 1735.594,9347.174 1777.118,9431.724C1818.642,9516.274 1873.274,9568.305 1938.313,9565.704L1825.154,9337.865Z" style="fill:rgb(199,154,118);"/>
                </g>
                <g transform="matrix(1,0,0,1,948.898922,92.09567)">
                    <path d="M1340.74,9722.906C1263.369,9720.362 941.017,9643.648 887.427,9244.017C833.444,8841.448 976.563,8659.865 1285.057,8630.537L1284.852,8626.658C1306.902,8626.092 1328.316,8626.093 1349.084,8626.677C1369.853,8626.093 1413.111,8630.537 1413.111,8630.537C1721.605,8659.865 1864.725,8841.448 1810.741,9244.017C1757.152,9643.648 1434.799,9720.362 1357.429,9722.906L1340.74,9722.906Z" style="fill:rgb(208,160,120);"/>
                </g>
                <path d="M1891.319,9528.696C1891.319,9528.696 1886.452,8959.608 2238.247,8995.176C2238.247,8995.176 2259.769,8800.217 2188.633,8718.332C2188.633,8718.332 1515.187,8801.425 1891.319,9528.696Z" style="fill:rgb(96,88,80);"/>
                <path d="M2249.193,8994.397C2249.193,8994.397 2265.843,8815.224 2202.573,8718.332C2202.573,8718.332 3027.812,8617.301 2710.386,9528.696C2710.386,9528.696 2702.606,9301.019 2659.416,9140.515C2659.416,9140.515 2651.953,9082.46 2249.193,8994.397Z" style="fill:rgb(96,88,80);"/>
                <g transform="matrix(-0.873288,0,0,0.873288,3535.468621,1375.654658)">
                    <path d="M1132.052,9040.885C1132.052,9040.885 1240.277,9008.626 1353.704,9109.566L1305.835,9105.404C1305.835,9105.404 1279.82,9065.86 1132.052,9040.885Z" style="fill:rgb(96,88,80);"/>
                </g>
                <g transform="matrix(0.873288,0,0,0.873288,1060.497873,1375.654658)">
                    <path d="M1132.052,9040.885C1132.052,9040.885 1240.277,9008.626 1353.704,9109.566L1305.835,9105.404C1305.835,9105.404 1279.82,9065.86 1132.052,9040.885Z" style="fill:rgb(96,88,80);"/>
                </g>
                <g transform="matrix(1.184888,0,0,1.574501,-389.478616,-5337.654102)">
                    <path d="M2238.247,9306.87L2561.688,9306.87C2561.688,9306.87 2539.119,9418.216 2467.317,9418.216C2403.972,9418.216 2320.828,9426.316 2301.921,9344.629C2270.768,9338.995 2244.826,9342.851 2234.22,9345.012C2215.142,9426.29 2132.159,9418.216 2068.914,9418.216C1997.111,9418.216 1974.543,9306.87 1974.543,9306.87L2238.247,9306.87Z" style="fill:rgb(112,120,136);"/>
                </g>
            </g>
        </g>
    </g>
</svg>
