<?xml version="1.0" encoding="UTF-8" standalone="no"?>
<!DOCTYPE svg PUBLIC "-//W3C//DTD SVG 1.1//EN" "http://www.w3.org/Graphics/SVG/1.1/DTD/svg11.dtd">
<svg width="100%" height="100%" viewBox="0 0 173 203" version="1.1" xmlns="http://www.w3.org/2000/svg" xmlns:xlink="http://www.w3.org/1999/xlink" xml:space="preserve" xmlns:serif="http://www.serif.com/" style="fill-rule:evenodd;clip-rule:evenodd;stroke-linecap:round;stroke-linejoin:round;stroke-miterlimit:1.5;">
    <g transform="matrix(1,0,0,1,-1315.09,-13239.1)">
        <g transform="matrix(0.138274,0,0,0.138274,452.826,11838.4)">
            <path d="M6415.15,11028.6C6402.64,11027.2 6365.52,11017.1 6377.35,10946.5C6377.35,10946.5 6349.04,10969.9 6356.32,11013.2C6356.32,11013.2 6289.08,10956.5 6344.9,10880.4C6344.9,10880.4 6272.22,10781.5 6370.17,10700.6C6370.17,10700.6 6300.48,10711 6268.13,10783.8C6268.13,10783.8 6246.29,10712.9 6343.36,10666C6343.36,10666 6335.1,10660.6 6331.22,10650.2C6331.22,10650.2 6279.34,10606.6 6317.76,10550.8C6317.76,10550.8 6259.12,10456.3 6323.83,10364.6C6323.83,10364.6 6321.4,10436.3 6334.34,10458.6C6334.34,10458.6 6371.25,10375.4 6453.35,10327.6C6453.35,10327.6 6458.18,10319.6 6466.98,10314.2C6466.98,10314.2 6428.83,10397.4 6480.06,10444.3C6480.06,10444.3 6429.07,10280.2 6591.69,10187C6591.69,10187 6585.12,10195.1 6573.49,10218.8C6561.87,10242.6 6567.93,10272.9 6563.89,10307.8C6563.89,10307.8 6612.93,10233 6697.86,10206.2C6697.86,10206.2 6676.62,10220.3 6662.98,10246.1C6662.98,10246.1 6768.51,10162.7 6870.63,10160.2C6870.63,10160.2 6821.09,10169.3 6799.35,10194C6777.61,10218.8 6764.97,10249.1 6764.97,10249.1C6764.97,10249.1 6857.11,10198.1 6978.44,10192C6978.44,10192 6931.93,10224.9 6915.75,10241.1C6915.75,10241.1 7007.38,10190 7136.29,10244.6C7136.29,10244.6 7068.05,10259.3 7030.64,10285C7030.64,10285 7067.03,10282.5 7102.42,10286.1C7137.81,10289.6 7263.19,10288.6 7296.05,10241.6C7296.05,10241.6 7298.57,10282 7226.28,10331.6C7226.28,10331.6 7333.84,10366.9 7352.54,10496.9C7352.54,10496.9 7406,10520.6 7451.5,10510C7451.5,10510 7435.83,10552.4 7351.4,10570C7351.4,10570 7351.21,10576.5 7347.84,10585.8C7347.84,10585.8 7388.74,10585.8 7409.96,10559.2C7409.96,10559.2 7408.41,10572.9 7398.06,10585.3C7398.06,10585.3 7399.09,10607.2 7377.09,10640.3C7377.09,10640.3 7413.13,10657.8 7428.92,10695.8C7428.92,10695.8 7400.26,10680.8 7370.23,10683.7C7340.21,10686.5 7325.97,10682.4 7325.97,10682.4C7325.97,10682.4 7342.53,10698.2 7347.45,10709C7347.45,10709 7357.55,10711.6 7371.78,10709.5C7371.78,10709.5 7365.31,10725.9 7354.96,10731.1C7354.96,10731.1 7375.93,10764.9 7372.3,10806.4C7372.3,10806.4 7352.69,10763.3 7298.08,10747C7298.08,10747 7361.17,10807.7 7328.82,10876.5C7328.82,10876.5 7315.07,10835.2 7294.44,10813.8C7294.44,10813.8 7284.73,10883.2 7324.77,10924.1C7326.17,10928.1 7299.28,10934 7297.92,10930.1C7294.59,10913 7288.18,10898.3 7274.79,10888.9C7274.79,10888.8 7274.76,10888.8 7274.68,10888.8L7274.79,10888.9C7274.74,10890 7266.34,10901.9 7256.44,10919.6L7287.09,10913C7319.74,11011.8 7226.21,11109.4 7208.1,11131.3C7196.41,11145.5 7179.65,11144.2 7169.21,11141.5C7154.94,11194.6 7140.49,11240.3 7129.76,11270.8C7202.05,11288.7 7246.79,11313.4 7246.79,11340.6L7246.79,11463.5C7246.79,11499.6 7167.95,11531.3 7050.47,11548.5L7048.54,11550C6915.35,11572.1 6783.76,11573.4 6654.25,11548L6654.25,11550C6530.93,11533.2 6447.33,11500.7 6447.33,11463.5L6447.33,11340.6L6447.33,11340.3C6447.69,11313.2 6492.36,11288.6 6564.36,11270.8C6553.61,11240.3 6539.12,11194.4 6524.82,11141.1C6514.52,11144 6496.84,11146 6484.67,11131.3C6473.96,11118.4 6436.92,11079 6415.15,11028.6ZM6477.14,10901.5C6478.15,10910.7 6479.29,10919.9 6480.55,10929.1L6478.61,10928.7C6477.87,10918.4 6477.42,10908.9 6477.14,10901.5Z" style="stroke:black;stroke-width:60.27px;"/>
            <g>
                <g transform="matrix(0.857933,0,0,0.857933,972.739,1647.08)">
                    <path d="M6621.35,11540.2C6772.64,11570 6926.33,11568.6 7081.9,11542.7L7279.65,11388.9L7279.65,11291.6L7153.09,11230.3L6612.71,11183.6L6526.33,11232.3L6437.94,11291.6L6449.99,11364.9L6621.35,11540.2Z" style="fill:rgb(37,54,108);"/>
                </g>
                <g transform="matrix(0.857933,0,0,0.857933,972.739,1621.34)">
                    <path d="M6622.32,11572.7C6478.59,11553.1 6381.14,11515.3 6381.14,11471.9L6381.14,11328.7L6463.32,11328.7C6463.32,11354.9 6526.01,11378 6622.32,11392.3L6622.32,11572.7ZM7071.8,11392.3C7168.12,11378 7230.81,11354.9 7230.81,11328.7L7312.98,11328.7L7312.98,11471.9C7312.98,11515.3 7215.54,11553.1 7071.8,11572.7L7071.8,11392.3Z" style="fill:rgb(218,184,108);"/>
                </g>
                <g transform="matrix(0.857933,0,0,0.857933,972.739,1621.34)">
                    <path d="M6622.32,11429.5C6478.59,11409.9 6381.14,11372.1 6381.14,11328.7C6381.14,11265.2 6589.91,11213.6 6847.06,11213.6C7104.21,11213.6 7312.98,11265.2 7312.98,11328.7C7312.98,11372.1 7215.54,11409.9 7071.8,11429.5L7071.8,11392.3C7168.12,11378 7230.81,11354.9 7230.81,11328.7C7230.81,11302.6 7168.12,11279.4 7071.8,11265.1L7071.8,11261L7040.89,11261C6983.98,11254.2 6917.74,11250.2 6847.06,11250.2C6776.39,11250.2 6710.15,11254.2 6653.23,11261L6622.32,11261L6622.32,11265.1C6526.01,11279.4 6463.32,11302.6 6463.32,11328.7C6463.32,11354.9 6526.01,11378 6622.32,11392.3L6622.32,11429.5Z" style="fill:rgb(212,176,96);"/>
                </g>
                <path d="M6533.12,11138.1C6533.12,11138.1 6502.78,11153.2 6484.67,11131.3C6466.55,11109.4 6373.03,11011.8 6405.68,10913L6545.76,10943.2L6533.12,11138.1Z" style="fill:rgb(236,218,182);"/>
                <g transform="matrix(-1,0,0,1,13692.8,0)">
                    <path d="M6533.12,11138.1C6533.12,11138.1 6502.78,11153.2 6484.67,11131.3C6466.55,11109.4 6373.03,11011.8 6405.68,10913L6545.76,10943.2L6533.12,11138.1Z" style="fill:rgb(236,218,182);"/>
                </g>
                <g transform="matrix(1.04972,0,0,1,-359.068,0)">
                    <path d="M6864.56,11471.7C6862.14,11471.9 6842.27,11473.1 6826.74,11466C6810.18,11458.5 6626.45,11347.9 6607.5,11303.7C6588.54,11259.5 6513.5,11014.8 6507.97,10838.8L6515.69,10537.3L6864.8,10543.5L7213.91,10537.3L7221.64,10838.8C7216.11,11014.8 7141.07,11259.5 7122.11,11303.7C7103.15,11347.9 6919.43,11458.5 6902.86,11466C6886.3,11473.5 6864.8,11471.7 6864.8,11471.7L6864.56,11471.7Z" style="fill:rgb(237,218,175);"/>
                </g>
                <path d="M6591.69,10187C6591.69,10187 6585.12,10195.1 6573.49,10218.8C6561.87,10242.6 6567.93,10272.9 6563.89,10307.8C6563.89,10307.8 6612.93,10233 6697.86,10206.2C6697.86,10206.2 6676.62,10220.3 6662.98,10246.1C6662.98,10246.1 6768.51,10162.7 6870.63,10160.2C6870.63,10160.2 6821.09,10169.3 6799.35,10194C6777.61,10218.8 6764.97,10249.1 6764.97,10249.1C6764.97,10249.1 6857.11,10198.1 6978.44,10192C6978.44,10192 6931.93,10224.9 6915.75,10241.1C6915.75,10241.1 7007.38,10190 7136.29,10244.6C7136.29,10244.6 7068.05,10259.3 7030.64,10285C7030.64,10285 7067.03,10282.5 7102.42,10286.1C7137.81,10289.6 7263.19,10288.6 7296.05,10241.6C7296.05,10241.6 7298.57,10282 7226.28,10331.6C7226.28,10331.6 7333.84,10366.9 7352.54,10496.9C7352.54,10496.9 7406,10520.6 7451.5,10510C7451.5,10510 7435.83,10552.4 7351.4,10570C7351.4,10570 7351.21,10576.5 7347.84,10585.8C7347.84,10585.8 7388.74,10585.8 7409.96,10559.2C7409.96,10559.2 7408.41,10572.9 7398.06,10585.3C7398.06,10585.3 7399.09,10607.2 7377.09,10640.3C7377.09,10640.3 7413.13,10657.8 7428.92,10695.8C7428.92,10695.8 7400.26,10680.8 7370.23,10683.7C7340.21,10686.5 7325.97,10682.4 7325.97,10682.4C7325.97,10682.4 7342.53,10698.2 7347.45,10709C7347.45,10709 7357.55,10711.6 7371.78,10709.5C7371.78,10709.5 7365.31,10725.9 7354.96,10731.1C7354.96,10731.1 7375.93,10764.9 7372.3,10806.4C7372.3,10806.4 7352.69,10763.3 7298.08,10747C7298.08,10747 7361.17,10807.7 7328.82,10876.5C7328.82,10876.5 7315.07,10835.2 7294.44,10813.8C7294.44,10813.8 7284.73,10883.2 7324.77,10924.1C7326.17,10928.1 7299.28,10934 7297.92,10930.1C7294.58,10912.9 7288.15,10898.2 7274.68,10888.8C7276.25,10888.3 7261.21,10908.6 7247.23,10937.1C7224.46,10983.7 7198.14,11040.9 7187.67,11057.7C7187.67,11057.7 7219.77,10919.9 7212.82,10840.9C7212.82,10840.9 7210.81,10836 7203.56,10830.2C7203.56,10830.2 7188.45,10843 7174.37,10848C7174.37,10848 7192.38,10836 7195.9,10820.1C7199.42,10804.1 7223.3,10737 7156.65,10679.4C7156.65,10679.4 7179.62,10740.3 7137.56,10821.4C7137.56,10821.4 7160.37,10721.3 7065.57,10676.6C7065.57,10676.6 6979.99,10690 6898.78,10646.6C6898.78,10646.6 6918.19,10685 6962.19,10705.3C7006.2,10725.7 7045.35,10738 7069.94,10727.3C7069.94,10727.3 7017.52,10767.1 6902.34,10707.9C6902.34,10707.9 6961.55,10768 7046.64,10792.3C7046.64,10792.3 6994.95,10796.8 6955.16,10779C6955.16,10779 6867.4,10788.6 6775.18,10699.1C6775.18,10699.1 6844.1,10801.7 6857.85,10862.8C6857.85,10862.8 6828.73,10831 6804.87,10816.1C6781.01,10801.1 6752.29,10787.3 6736.11,10771.6C6736.11,10771.6 6671.1,10761.2 6639.96,10702.9C6639.96,10702.9 6654.11,10794.3 6748.75,10830.7C6748.75,10830.7 6664.93,10835.6 6614.38,10757.5C6614.38,10757.5 6592.94,10748.6 6578.79,10719.1C6578.79,10719.1 6563.82,10793.9 6649.97,10850.1C6649.97,10850.1 6565.21,10825.9 6534.88,10755.8C6534.88,10755.8 6549.54,10822.5 6476.74,10887.2C6476.74,10887.2 6477.55,10950 6486.05,10983.2C6486.05,10983.2 6491.71,10989.6 6499.8,10994.5C6499.8,10994.5 6495.35,10997.3 6487.66,10995.7C6487.66,10995.7 6491.3,11035.4 6502.63,11074.7C6502.63,11074.7 6454.7,11026.3 6444.19,10976.6C6444.19,10976.6 6424.77,10968.9 6408.19,10946.3C6408.19,10946.3 6392.01,10991.6 6419.11,11028.8C6419.11,11028.8 6363.2,11031 6377.35,10946.5C6377.35,10946.5 6349.04,10969.9 6356.32,11013.2C6356.32,11013.2 6289.08,10956.5 6344.9,10880.4C6344.9,10880.4 6272.22,10781.5 6370.17,10700.6C6370.17,10700.6 6300.48,10711 6268.13,10783.8C6268.13,10783.8 6246.29,10712.9 6343.36,10666C6343.36,10666 6335.1,10660.6 6331.22,10650.2C6331.22,10650.2 6279.34,10606.6 6317.76,10550.8C6317.76,10550.8 6259.12,10456.3 6323.83,10364.6C6323.83,10364.6 6321.4,10436.3 6334.34,10458.6C6334.34,10458.6 6371.25,10375.4 6453.35,10327.6C6453.35,10327.6 6458.18,10319.6 6466.98,10314.2C6466.98,10314.2 6428.83,10397.4 6480.06,10444.3C6480.06,10444.3 6429.07,10280.2 6591.69,10187Z" style="fill:rgb(136,123,107);"/>
                <g transform="matrix(1,0,0,1,-22.3821,-9.17125)">
                    <path d="M6904.72,10971.2C6904.72,10971.2 6918.47,10978.7 6953.52,10960.4C6988.57,10942 7028.83,10921 7062.11,10897C7095.39,10872.9 7120.25,10866.2 7193.13,10856.5C7193.13,10856.5 7142.58,10874.2 7123.2,10891.1C7103.82,10907.9 7057.9,10937.8 7009.87,10966.5C6961.84,10995.1 6955.45,10993.1 6904.72,10971.2Z" style="fill:rgb(136,123,107);"/>
                </g>
                <g transform="matrix(-1,0,0,1,13716.5,-9.17125)">
                    <path d="M6904.72,10971.2C6904.72,10971.2 6918.47,10978.7 6953.52,10960.4C6988.57,10942 7028.83,10921 7062.11,10897C7095.39,10872.9 7120.25,10866.2 7193.13,10856.5C7193.13,10856.5 7142.58,10874.2 7123.2,10891.1C7103.82,10907.9 7057.9,10937.8 7009.87,10966.5C6961.84,10995.1 6955.45,10993.1 6904.72,10971.2Z" style="fill:rgb(136,123,107);"/>
                </g>
            </g>
        </g>
    </g>
</svg>
