<?xml version="1.0" encoding="UTF-8" standalone="no"?>
<!DOCTYPE svg PUBLIC "-//W3C//DTD SVG 1.1//EN" "http://www.w3.org/Graphics/SVG/1.1/DTD/svg11.dtd">
<svg width="100%" height="100%" viewBox="0 0 202 174" version="1.1" xmlns="http://www.w3.org/2000/svg" xmlns:xlink="http://www.w3.org/1999/xlink" xml:space="preserve" xmlns:serif="http://www.serif.com/" style="fill-rule:evenodd;clip-rule:evenodd;stroke-linecap:round;stroke-linejoin:round;stroke-miterlimit:1.5;">
    <g transform="matrix(1,0,0,1,-6720.310392,-13776.433786)">
        <g transform="matrix(0.867459,0,0,0.867459,5554.894728,3650.164625)">
            <g transform="matrix(0.555661,0,0,0.555661,1172.67702,5061.066094)">
                <path d="M411.609,12198.598C404.924,12194.379 387.691,12181.264 371.901,12150.487C371.901,12150.487 352.68,12148.978 330.978,12127.491C330.978,12127.491 354.727,12092.851 355.197,12055.31C355.197,12055.31 341.184,12065.684 316.036,12063.127C316.036,12063.127 351.901,12033.656 357.48,11974.143C359.958,11947.714 436.802,11885.526 516.008,11917.848C595.214,11885.526 672.059,11947.714 674.536,11974.143C680.116,12033.656 715.98,12063.127 715.98,12063.127C690.832,12065.684 676.82,12055.31 676.82,12055.31C677.29,12092.851 701.038,12127.491 701.038,12127.491C679.337,12148.978 660.116,12150.487 660.116,12150.487C644.326,12181.264 627.093,12194.379 620.408,12198.598C579.594,12245.484 516.008,12252.209 516.008,12252.209C516.008,12252.209 452.422,12245.484 411.609,12198.598Z" style="stroke:black;stroke-width:17.29px;"/>
            </g>
            <g>
                <g transform="matrix(0.555661,0,0,0.555661,1172.67702,5061.066094)">
                    <path d="M516.008,12252.209C516.008,12252.209 385.04,12238.357 378.381,12111.818L412.513,11959.472L514.077,11954.477L517.94,11954.477L619.504,11959.472L653.636,12111.818C646.976,12238.357 516.008,12252.209 516.008,12252.209Z" style="fill:rgb(239,188,137);"/>
                </g>
                <g transform="matrix(0.4275,0.354968,0.177484,-0.21375,-921.759316,14185.07631)">
                    <path d="M518.42,12107.268C518.42,12107.268 482.616,12089.534 454.996,12058.335L443.743,12075.215C443.743,12075.215 469.658,12105.904 518.42,12107.268Z" style="fill:rgb(154,124,43);"/>
                </g>
                <g transform="matrix(-0.4275,0.354968,-0.177484,-0.21375,3840.564343,14185.07631)">
                    <path d="M518.42,12107.268C518.42,12107.268 482.616,12089.534 454.996,12058.335L443.743,12075.215C443.743,12075.215 469.658,12105.904 518.42,12107.268Z" style="fill:rgb(154,124,43);"/>
                </g>
                <g transform="matrix(0.555661,0,0,0.555661,1165.645266,5070.505741)">
                    <path d="M528.663,11976.554L471.153,11980.811L449.983,12063.213C449.983,12063.213 447.852,12111.164 461.172,12129.812C461.172,12129.812 441.78,12118.197 432.444,12093.646C432.444,12093.646 401.029,12139.032 427.136,12183.254C427.136,12183.254 404.674,12172.713 384.556,12133.499C384.556,12133.499 365.334,12131.99 343.633,12110.503C343.633,12110.503 367.381,12075.863 367.851,12038.322C367.851,12038.322 353.839,12048.696 328.691,12046.139C328.691,12046.139 364.556,12016.668 370.135,11957.155C372.613,11930.726 449.457,11868.538 528.663,11900.86C607.869,11868.538 684.713,11930.726 687.191,11957.155C692.77,12016.668 728.635,12046.139 728.635,12046.139C703.487,12048.696 689.475,12038.322 689.475,12038.322C689.945,12075.863 713.693,12110.503 713.693,12110.503C691.992,12131.99 672.77,12133.499 672.77,12133.499C652.652,12172.713 630.191,12183.254 630.191,12183.254C656.297,12139.032 624.882,12093.646 624.882,12093.646C615.546,12118.197 596.154,12129.812 596.154,12129.812C609.474,12111.164 607.343,12063.213 607.343,12063.213L586.173,11980.811L528.663,11976.554Z" style="fill:rgb(154,124,43);"/>
                </g>
                <g transform="matrix(0.555661,0,0,0.555661,1165.601926,5070.78034)">
                    <path d="M593.518,12101.678C593.518,12101.678 599.059,12051.984 591.813,12032.377C584.567,12012.77 567.518,11965.032 529.156,11980.376C529.156,11980.376 520.205,11901.523 585.419,11940.737C650.634,11979.95 622.076,12054.616 593.518,12101.678Z" style="fill:rgb(169,141,66);"/>
                </g>
                <g transform="matrix(-0.555661,0,0,0.555661,1753.203101,5070.78034)">
                    <path d="M593.518,12101.678C593.518,12101.678 599.059,12051.984 591.813,12032.377C584.567,12012.77 567.518,11965.032 529.156,11980.376C529.156,11980.376 520.205,11901.523 585.419,11940.737C650.634,11979.95 622.076,12054.616 593.518,12101.678Z" style="fill:rgb(169,141,66);"/>
                </g>
            </g>
        </g>
    </g>
</svg>
