<?xml version="1.0" encoding="UTF-8" standalone="no"?>
<!DOCTYPE svg PUBLIC "-//W3C//DTD SVG 1.1//EN" "http://www.w3.org/Graphics/SVG/1.1/DTD/svg11.dtd">
<svg width="100%" height="100%" viewBox="0 0 166 268" version="1.1" xmlns="http://www.w3.org/2000/svg" xmlns:xlink="http://www.w3.org/1999/xlink" xml:space="preserve" xmlns:serif="http://www.serif.com/" style="fill-rule:evenodd;clip-rule:evenodd;stroke-linecap:round;stroke-linejoin:round;stroke-miterlimit:1.5;">
    <g transform="matrix(1,0,0,1,-3123.816555,-13362.225087)">
        <g transform="matrix(0.96719,0,0,0.96719,1541.721988,2196.475756)">
            <g transform="matrix(0.540936,0,0,0.543939,-229.619179,5054.394666)">
                <path d="M3494.833,12095.527C3446.476,12071.497 3457.472,12031.225 3457.472,12031.225L3472.708,12036.905C3480.293,12039.062 3491.057,12041.472 3505.753,12043.44C3508.576,12023.192 3515.956,11977.788 3528.449,11951.029C3588.216,11932.879 3639.131,11939.132 3685.23,11951.029C3697.752,11977.85 3705.138,12023.402 3707.945,12043.579C3720.787,12041.9 3730.687,12039.88 3738.132,12037.964L3756.207,12031.225C3756.207,12031.225 3756.255,12031.398 3756.33,12031.729C3756.978,12031.406 3757.282,12031.225 3757.282,12031.225C3757.004,12031.578 3756.726,12031.93 3756.448,12032.28C3757.727,12038.577 3762.282,12071.643 3722.79,12093.46C3723.218,12098.028 3723.468,12102.821 3723.53,12107.871C3724.812,12108.213 3726.019,12108.92 3727.109,12110.082C3733.767,12117.184 3732.413,12142.823 3719.379,12157.422C3718.011,12166.078 3716.293,12175.313 3714.204,12185.197C3699.384,12255.332 3716.759,12278.71 3725.958,12308.696C3735.157,12338.681 3729.024,12422.538 3729.024,12422.538C3718.804,12398.651 3694.273,12281.76 3691.207,12256.348C3690.156,12247.64 3690.09,12236.999 3690.752,12225.364C3688.095,12227.745 3684.701,12230.595 3680.79,12233.46C3683.097,12262.677 3621.232,12279.857 3621.232,12279.857C3625.74,12288.133 3641.692,12291.582 3641.692,12291.582C3595.918,12312.274 3579.966,12283.65 3579.966,12283.65C3570.525,12281.837 3563.981,12278.443 3559.58,12274.127C3555.768,12304.384 3552.5,12339.679 3550.321,12380.543C3550.321,12380.543 3539.84,12365.749 3535.357,12333.952C3535.357,12333.952 3508.773,12397.472 3483.381,12432.434C3483.381,12432.434 3484.694,12386.431 3489.948,12363.737C3489.948,12363.737 3479.879,12382.138 3471.56,12396.245C3471.56,12396.245 3478.729,12295.749 3492.739,12263.241C3492.739,12263.241 3490.949,12211.107 3492.177,12154.812C3481.137,12139.949 3480.293,12116.777 3486.571,12110.082C3488.704,12107.806 3491.289,12107.276 3494.011,12107.817C3494.259,12103.661 3494.533,12099.557 3494.833,12095.527Z" style="stroke:black;stroke-width:15.88px;"/>
            </g>
            <g>
                <g transform="matrix(0.540936,0,0,0.543939,-229.619179,5054.394666)">
                    <path d="M3514.164,12123.953C3514.164,12123.953 3495.977,12100.048 3486.571,12110.082C3477.164,12120.116 3483.749,12167.149 3516.672,12167.776L3514.164,12123.953Z" style="fill:rgb(221,180,126);"/>
                </g>
                <g transform="matrix(-0.540936,0,0,0.543939,3672.521412,5054.394666)">
                    <path d="M3514.164,12123.953C3514.164,12123.953 3495.977,12100.048 3486.571,12110.082C3477.164,12120.116 3483.749,12167.149 3516.672,12167.776L3514.164,12123.953Z" style="fill:rgb(221,180,126);"/>
                </g>
                <path d="M1770.226,11700.969C1770.226,11700.969 1752.077,11720.607 1736.836,11715.917L1738.008,11684.555L1777.619,11662.573L1770.226,11700.969Z" style="fill:rgb(143,123,74);"/>
                <path d="M1696.972,11701.058C1696.972,11701.058 1679.715,11730.696 1706.914,11735.948C1706.914,11735.948 1715.543,11751.518 1740.304,11740.263C1740.304,11740.263 1731.675,11738.387 1729.237,11733.885C1729.237,11733.885 1778.946,11720.004 1754.936,11697.306" style="fill:rgb(95,58,106);"/>
                <g transform="matrix(0.790069,-0.065566,0.065566,0.790069,-1907.492447,2289.911202)">
                    <path d="M3577.298,12235.607C3573.749,12235.156 3561.546,12233.117 3554.608,12225.814C3546.427,12217.202 3503.366,12171.988 3514.562,12116.009L3528,12089.312L3589.443,12095.294L3651.033,12099.522L3659.886,12128.069C3661.701,12185.128 3611.776,12222.625 3602.287,12229.771C3594.24,12235.83 3581.869,12235.83 3578.294,12235.69L3578.292,12235.718C3578.292,12235.718 3578.117,12235.703 3577.794,12235.667C3577.47,12235.65 3577.295,12235.635 3577.295,12235.635L3577.298,12235.607Z" style="fill:rgb(221,180,126);"/>
                </g>
                <g transform="matrix(0.440463,0,0,0.440463,1529.391725,6490.57367)">
                    <path d="M472.785,11726.049C472.785,11726.049 501.509,11688.533 523.784,11674.757C523.784,11674.757 507.664,11656.585 472.785,11726.049" style="fill:rgb(125,94,126);"/>
                </g>
                <g transform="matrix(0.413693,0,0,0.582806,1341.881883,4785.173951)">
                    <path d="M900.857,11712.126C900.857,11712.126 907.154,11761.357 892.27,11792.27C877.386,11823.183 852.913,11892.308 843.611,12016.818C843.611,12016.818 829.906,12003.01 824.044,11973.334C824.044,11973.334 789.284,12032.618 756.082,12065.248C756.082,12065.248 757.799,12022.313 764.669,12001.132C764.669,12001.132 751.502,12018.306 740.625,12031.473C740.625,12031.473 749.999,11937.679 768.318,11907.338C768.318,11907.338 761.592,11767.515 778.765,11705.976L900.857,11712.126Z" style="fill:rgb(162,138,77);"/>
                </g>
                <g transform="matrix(0.60363,0,0,0.60363,1226.435627,4561.369098)">
                    <path d="M899.883,11687.647C899.883,11687.647 910.874,11737.474 904.28,11768.983C897.685,11800.491 892.922,11838.227 895.67,11861.126C898.418,11884.024 920.4,11989.357 929.559,12010.881C929.559,12010.881 935.055,11935.316 926.812,11908.296C918.568,11881.276 902.997,11860.21 916.278,11797.01C929.559,11733.811 926.125,11700.074 912.386,11672.92L899.883,11687.647Z" style="fill:rgb(162,138,77);"/>
                </g>
                <g transform="matrix(0.398248,0,0,0.398248,1406.574256,6984.339421)">
                    <path d="M790.655,11662.573L993.54,11586.514C993.54,11586.514 1025.469,11704.102 790.655,11698.012C555.842,11704.102 587.771,11586.514 587.771,11586.514L790.655,11662.573Z" style="fill:rgb(76,52,77);"/>
                </g>
                <g transform="matrix(0.299989,0,0,0.398248,1464.327772,6984.339421)">
                    <path d="M858.077,11697.931C821.109,11698.887 698.527,11693.145 587.771,11586.514C587.771,11586.514 647.242,11613.331 850.851,11607.921L850.87,11607.491C853.292,11607.571 855.694,11607.647 858.077,11607.718C860.46,11607.647 862.863,11607.571 865.284,11607.491L865.303,11607.921C1068.912,11613.331 1128.384,11586.514 1128.384,11586.514C1017.628,11693.145 895.046,11698.887 858.077,11697.931Z" style="fill:rgb(125,94,126);"/>
                </g>
                <g transform="matrix(0.398248,0,0,0.398248,1393.622393,6984.339421)">
                    <path d="M823.178,11670.057C797.841,11670.551 741.113,11665.346 684.07,11617.232C684.07,11617.232 694.374,11525.066 716.7,11476.98C797.881,11452.19 867.038,11460.731 929.655,11476.98C951.981,11525.066 962.285,11617.232 962.285,11617.232C905.242,11665.346 848.514,11670.551 823.178,11670.057Z" style="fill:rgb(103,76,104);"/>
                </g>
                <g transform="matrix(0.398248,0,0,0.398248,1393.622393,6984.339421)">
                    <path d="M823.178,11670.057C797.841,11670.551 741.113,11665.346 684.07,11617.232C684.07,11617.232 694.374,11525.066 716.7,11476.98C784.74,11515.267 855.753,11514.898 929.655,11476.98C951.981,11525.066 962.285,11617.232 962.285,11617.232C905.242,11665.346 848.514,11670.551 823.178,11670.057Z" style="fill:rgb(116,85,117);"/>
                </g>
            </g>
        </g>
    </g>
</svg>
