<?xml version="1.0" encoding="UTF-8" standalone="no"?>
<!DOCTYPE svg PUBLIC "-//W3C//DTD SVG 1.1//EN" "http://www.w3.org/Graphics/SVG/1.1/DTD/svg11.dtd">
<svg width="100%" height="100%" viewBox="0 0 209 200" version="1.1" xmlns="http://www.w3.org/2000/svg" xmlns:xlink="http://www.w3.org/1999/xlink" xml:space="preserve" xmlns:serif="http://www.serif.com/" style="fill-rule:evenodd;clip-rule:evenodd;stroke-linecap:round;stroke-linejoin:round;stroke-miterlimit:1.5;">
    <g transform="matrix(1,0,0,1,-2500.663744,-13762.931513)">
        <g transform="matrix(0.792785,0,0,0.792785,-406.996932,4347.041066)">
            <g transform="matrix(0.682324,0,0,0.686111,1337.946742,3713.140024)">
                <path d="M3495.699,12108.279C3495.701,12108.002 3495.704,12107.728 3495.707,12107.456C3496.035,12082.036 3469.484,12096.13 3440.587,12085.573C3440.587,12085.573 3452.248,12080.305 3472.272,12062.417C3472.272,12062.417 3458.798,12058.628 3445.9,12050.285C3445.9,12050.285 3452.483,12050.057 3465.081,12044.066C3465.081,12044.066 3440.396,12002.455 3422.073,11980.186C3422.073,11980.186 3439.794,11977.149 3479.804,11985.102C3479.804,11985.102 3484.916,11971.444 3483.912,11959.334C3483.912,11959.334 3507.318,11971.516 3524.657,11988.195C3524.657,11988.195 3533.972,11988.099 3541.489,11990.512C3541.489,11990.512 3551.93,11953.132 3552.299,11918.486C3552.299,11918.486 3562.67,11930.087 3566.644,11938.784C3566.644,11938.784 3572.226,11923.083 3573.073,11906.369C3573.073,11906.369 3588.748,11922.839 3599.159,11947.481L3602.691,11943.414L3602.407,11933.531L3606.84,11938.636L3611.272,11933.531L3610.988,11943.414L3614.52,11947.481C3624.931,11922.839 3640.606,11906.369 3640.606,11906.369C3641.454,11923.083 3647.036,11938.784 3647.036,11938.784C3651.009,11930.087 3661.38,11918.486 3661.38,11918.486C3661.749,11953.132 3672.19,11990.512 3672.19,11990.512C3679.707,11988.099 3689.022,11988.195 3689.022,11988.195C3706.361,11971.516 3729.767,11959.334 3729.767,11959.334C3728.763,11971.444 3733.875,11985.102 3733.875,11985.102C3773.885,11977.149 3791.606,11980.186 3791.606,11980.186C3773.283,12002.455 3748.598,12044.066 3748.598,12044.066C3761.196,12050.057 3767.779,12050.285 3767.779,12050.285C3754.881,12058.628 3741.407,12062.417 3741.407,12062.417C3761.431,12080.305 3773.092,12085.573 3773.092,12085.573C3744.195,12096.13 3717.644,12082.036 3717.972,12107.456C3717.975,12107.728 3717.978,12108.002 3717.98,12108.279C3721.311,12107.132 3724.538,12107.34 3727.109,12110.082C3735.013,12118.513 3731.626,12153.07 3710.808,12164.265C3708.012,12175.457 3704.548,12185.014 3700.693,12190.355C3695.869,12197.038 3690.159,12198.239 3685.488,12197.656C3668.145,12223.9 3648.3,12241.462 3641.898,12247.139C3630.88,12256.911 3612.811,12258.402 3607.572,12258.629L3607.572,12258.67C3607.572,12258.67 3607.315,12258.67 3606.84,12258.656C3606.364,12258.67 3606.107,12258.67 3606.107,12258.67L3606.107,12258.629C3600.869,12258.402 3582.799,12256.911 3571.781,12247.139C3565.379,12241.462 3545.534,12223.9 3528.191,12197.656C3523.521,12198.239 3517.81,12197.038 3512.986,12190.355C3509.131,12185.014 3505.667,12175.457 3502.871,12164.265C3482.053,12153.07 3478.666,12118.513 3486.571,12110.082C3489.141,12107.34 3492.368,12107.132 3495.699,12108.279Z" style="stroke:black;stroke-width:15.36px;"/>
            </g>
            <g>
                <g transform="matrix(0.682324,0,0,0.686111,1337.946742,3713.140024)">
                    <path d="M3514.164,12123.953C3514.164,12123.953 3495.977,12100.048 3486.571,12110.082C3477.164,12120.116 3483.749,12167.149 3516.672,12167.776L3514.164,12123.953Z" style="fill:rgb(213,154,99);"/>
                </g>
                <g transform="matrix(-0.682324,0,0,0.686111,6260.013656,3713.140024)">
                    <path d="M3514.164,12123.953C3514.164,12123.953 3495.977,12100.048 3486.571,12110.082C3477.164,12120.116 3483.749,12167.149 3516.672,12167.776L3514.164,12123.953Z" style="fill:rgb(213,154,99);"/>
                </g>
                <g transform="matrix(0.996574,-0.082703,0.082703,0.996574,-778.482511,226.086631)">
                    <path d="M3577.298,12235.607C3573.749,12235.156 3561.546,12233.117 3554.608,12225.814C3546.427,12217.202 3503.366,12171.988 3514.562,12116.009L3528,12089.312L3589.443,12095.294L3651.033,12099.522L3659.886,12128.069C3661.701,12185.128 3611.776,12222.625 3602.287,12229.771C3594.24,12235.83 3581.869,12235.83 3578.294,12235.69L3578.292,12235.718C3578.292,12235.718 3578.117,12235.703 3577.794,12235.667C3577.47,12235.65 3577.295,12235.635 3577.295,12235.635L3577.298,12235.607Z" style="fill:rgb(213,154,99);"/>
                </g>
                <g transform="matrix(0.884564,0.111368,-0.111368,0.884564,1972.812753,893.128912)">
                    <path d="M3589.421,12112.118L3589.521,12113.151C3589.521,12113.151 3582.446,12104.211 3570.104,12101.502C3570.104,12101.502 3571.158,12105.114 3573.115,12106.619C3573.115,12106.619 3566.492,12105.566 3557.01,12098.04C3557.01,12098.04 3546.324,12102.556 3539.401,12095.03C3539.401,12095.03 3531.772,12103.948 3523.306,12119.469C3514.84,12134.99 3514.134,12141.104 3522.835,12153.333C3531.537,12165.562 3536.281,12162.835 3539.672,12169C3543.062,12175.164 3537.437,12179.017 3533.507,12180.173C3533.507,12180.173 3538.034,12184.566 3548.148,12179.942C3548.148,12179.942 3547.185,12188.804 3538.42,12192.753C3538.42,12192.753 3540.25,12197.088 3546.8,12199.881C3546.8,12199.881 3537.074,12209.068 3528,12199.285C3518.926,12189.502 3509.105,12157.081 3506.91,12137.64C3504.715,12118.199 3485.909,12131.499 3462.952,12126.201C3462.952,12126.201 3471.3,12121.064 3484.786,12105.491C3484.786,12105.491 3474.19,12103.886 3463.594,12098.749C3463.594,12098.749 3468.571,12097.946 3477.561,12092.166C3477.561,12092.166 3454.817,12062.755 3438.763,12047.503C3438.763,12047.503 3451.927,12043.49 3483.072,12045.737C3483.072,12045.737 3485.641,12034.82 3483.714,12025.67C3483.714,12025.67 3502.658,12032.733 3517.428,12043.811C3517.428,12043.811 3524.492,12042.848 3530.432,12043.971C3530.432,12043.971 3534.767,12014.432 3531.716,11987.942C3531.716,11987.942 3540.707,11995.809 3544.56,12002.07C3544.56,12002.07 3547.289,11989.548 3546.326,11976.704C3546.326,11976.704 3559.811,11987.782 3570.086,12005.602L3572.377,12002.158L3571.211,11994.639L3575.068,11998.113L3577.942,11993.792L3578.677,12001.365L3581.75,12004.133C3587.287,11984.322 3597.606,11970.248 3597.606,11970.248C3599.856,11982.929 3605.604,11994.384 3605.604,11994.384C3607.785,11987.364 3614.545,11977.514 3614.545,11977.514C3618.156,12003.933 3629.677,12031.476 3629.677,12031.476C3635.153,12028.915 3642.235,12028.097 3642.235,12028.097C3653.798,12013.705 3670.4,12002.165 3670.4,12002.165C3670.802,12011.508 3675.997,12021.448 3675.997,12021.448C3705.613,12011.55 3719.361,12012.175 3719.361,12012.175C3707.588,12030.93 3692.844,12065.062 3692.844,12065.062C3702.987,12068.433 3708.007,12067.977 3708.007,12067.977C3699.015,12075.58 3689.148,12079.762 3689.148,12079.762C3706.073,12091.506 3715.434,12094.413 3715.434,12094.413C3694.506,12105.236 3672.99,12097.013 3675.683,12116.391C3678.375,12135.769 3676.898,12169.614 3670.532,12181.34C3664.166,12193.067 3652.466,12186.578 3652.466,12186.578C3658.12,12182.248 3658.818,12177.595 3658.818,12177.595C3649.347,12175.942 3646.217,12167.595 3646.217,12167.595C3657.162,12169.567 3660.459,12164.19 3660.459,12164.19C3656.365,12164.044 3649.96,12161.706 3651.717,12154.893C3653.474,12148.08 3658.746,12149.546 3664.145,12135.542C3669.543,12121.538 3667.344,12115.789 3655.295,12102.851C3643.246,12089.913 3633.644,12083.165 3633.644,12083.165C3628.803,12092.171 3617.331,12090.446 3617.331,12090.446C3610.01,12100.087 3603.855,12102.749 3603.855,12102.749C3605.378,12100.806 3605.503,12097.045 3605.503,12097.045C3594.218,12102.729 3589.58,12113.144 3589.58,12113.144L3589.421,12112.118Z" style="fill:rgb(110,99,32);"/>
                </g>
                <g transform="matrix(0.801357,0,0,0.801357,921.371629,2300.77968)">
                    <path d="M3583.473,12163.5C3583.473,12163.5 3568.501,12151.34 3564.263,12144.79C3560.024,12138.24 3540.374,12123.084 3536.264,12131.176C3532.154,12139.267 3564.795,12155.239 3583.473,12163.5Z" style="fill:rgb(110,99,32);"/>
                </g>
                <g transform="matrix(-0.801357,0,0,0.801357,6676.588769,2300.77968)">
                    <path d="M3583.473,12163.5C3583.473,12163.5 3568.501,12151.34 3564.263,12144.79C3560.024,12138.24 3540.374,12123.084 3536.264,12131.176C3532.154,12139.267 3564.795,12155.239 3583.473,12163.5Z" style="fill:rgb(110,99,32);"/>
                </g>
            </g>
        </g>
    </g>
</svg>
