<?xml version="1.0" encoding="UTF-8" standalone="no"?>
<!DOCTYPE svg PUBLIC "-//W3C//DTD SVG 1.1//EN" "http://www.w3.org/Graphics/SVG/1.1/DTD/svg11.dtd">
<svg width="100%" height="100%" viewBox="0 0 203 205" version="1.1" xmlns="http://www.w3.org/2000/svg" xmlns:xlink="http://www.w3.org/1999/xlink" xml:space="preserve" xmlns:serif="http://www.serif.com/" style="fill-rule:evenodd;clip-rule:evenodd;stroke-linecap:round;stroke-linejoin:round;stroke-miterlimit:1.5;">
    <g transform="matrix(1,0,0,1,-3506.83,-13161.1)">
        <g transform="matrix(1.42973,0,0,1.42973,-1588.79,-4135.77)">
            <path d="M3584.59,12205.3C3579.15,12216 3571.82,12230.1 3566.95,12237.7C3566.95,12237.7 3573.05,12209 3571.49,12203C3571.49,12203 3569.81,12203.8 3568.38,12206C3568.38,12206 3577.21,12175.6 3577.21,12169C3577.21,12169 3575.52,12171 3573.7,12174.1C3573.7,12174.1 3581.1,12157.6 3583.96,12149.2C3586.8,12141 3593.24,12100.8 3634.98,12100.9C3676.72,12100.8 3683.16,12141 3686,12149.2C3688.85,12157.6 3696.26,12174.1 3696.26,12174.1C3694.44,12171 3692.75,12169 3692.75,12169C3692.75,12175.6 3701.58,12206 3701.58,12206C3700.15,12203.8 3698.47,12203 3698.47,12203C3696.91,12209 3703.01,12237.7 3703.01,12237.7C3698.71,12231 3692.48,12219.2 3687.34,12209.2C3686.15,12217.7 3685.06,12227.2 3685.34,12231.8C3685.34,12231.8 3682.47,12216.9 3679.31,12211.8C3679.31,12211.8 3677.02,12225.2 3672.42,12236C3672.42,12236 3667.83,12225 3666.11,12221C3666.11,12221 3660.08,12230.3 3658.93,12234.4C3658.93,12234.4 3653.19,12227.8 3651.47,12222.3C3651.47,12222.3 3648.6,12231.6 3650.61,12234.7C3650.61,12234.7 3645.44,12228.5 3639.12,12218.6C3639.12,12218.6 3633.96,12228.1 3629.94,12234.9C3629.94,12234.9 3627.35,12230.7 3625.92,12223.4C3625.92,12223.4 3618.17,12224.4 3617.88,12227.8C3617.88,12227.8 3613.29,12223.2 3614.15,12219.1C3614.15,12219.1 3606.97,12223.5 3606.68,12227.8C3606.68,12227.8 3605.82,12222.1 3604.68,12219.1C3604.68,12219.1 3602.38,12223.7 3600.94,12227.8C3600.94,12227.8 3596.93,12218.2 3594.92,12213.3C3594.92,12213.3 3591.18,12224.3 3590.9,12231.6C3590.9,12231.6 3587.68,12217.2 3584.59,12205.3Z" style="stroke:black;stroke-width:5.83px;"/>
            <g>
                <g transform="matrix(1,0,0,0.76534,0,2862.87)">
                    <path d="M3689.94,12190.1C3689.94,12190.1 3684.77,12229.2 3685.34,12241.5C3685.34,12241.5 3682.47,12222 3679.31,12215.4C3679.31,12215.4 3677.02,12232.9 3672.42,12247C3672.42,12247 3667.83,12232.6 3666.11,12227.5C3666.11,12227.5 3660.08,12239.5 3658.93,12245C3658.93,12245 3653.19,12236.4 3651.47,12229.2C3651.47,12229.2 3648.6,12241.2 3650.61,12245.3C3650.61,12245.3 3645.44,12237.2 3639.12,12224.3C3639.12,12224.3 3633.96,12236.6 3629.94,12245.5C3629.94,12245.5 3627.35,12240.1 3625.92,12230.6C3625.92,12230.6 3618.17,12231.9 3617.88,12236.3C3617.88,12236.3 3613.29,12230.3 3614.15,12224.9C3614.15,12224.9 3606.97,12230.7 3606.68,12236.3C3606.68,12236.3 3605.82,12228.9 3604.68,12224.9C3604.68,12224.9 3602.38,12231 3600.94,12236.3C3600.94,12236.3 3596.93,12223.7 3594.92,12217.4C3594.92,12217.4 3591.18,12231.8 3590.9,12241.2C3590.9,12241.2 3584.58,12204.5 3581.14,12191L3586.02,12181.2L3688.79,12179.2L3689.94,12190.1Z" style="fill:rgb(181,178,211);"/>
                </g>
                <g transform="matrix(0.965558,0,0,0.815338,126.081,2247.59)">
                    <path d="M3633.55,12112.7L3634.58,12112.7L3680.74,12124.2C3680.74,12124.2 3676.37,12168.5 3674.46,12187.6C3672.55,12206.7 3651.83,12215.4 3645.21,12220.4C3639.58,12224.6 3635.23,12225 3634.06,12225C3632.89,12225 3628.54,12224.6 3622.91,12220.4C3616.29,12215.4 3595.57,12206.7 3593.66,12187.6C3591.75,12168.5 3587.39,12124.2 3587.39,12124.2L3633.55,12112.7Z" style="fill:rgb(242,190,144);"/>
                </g>
                <g transform="matrix(1,0,0,1,169.584,-47.5318)">
                    <path d="M3471.72,12215.1C3471.72,12215.1 3492.29,12204.3 3501.99,12203.7L3501.85,12199.9C3501.85,12199.9 3478.77,12208.2 3471.72,12215.1" style="fill:rgb(181,178,211);"/>
                </g>
                <g transform="matrix(-1,0,0,1,7100.37,-47.5318)">
                    <path d="M3471.72,12215.1C3471.72,12215.1 3492.29,12204.3 3501.99,12203.7L3501.85,12199.9C3501.85,12199.9 3478.77,12208.2 3471.72,12215.1" style="fill:rgb(181,178,211);"/>
                </g>
                <g transform="matrix(0.883601,0,0,0.913751,423.617,1056.84)">
                    <path d="M3634.4,12086.5C3681.64,12086.4 3688.93,12130.3 3692.14,12139.4C3695.38,12148.5 3703.75,12166.6 3703.75,12166.6C3701.7,12163.2 3699.79,12161 3699.79,12161C3699.79,12168.2 3709.78,12201.6 3709.78,12201.6C3708.16,12199.1 3706.25,12198.2 3706.25,12198.2C3704.49,12204.8 3711.4,12236.3 3711.4,12236.3C3701.7,12221.6 3683.32,12185 3683.32,12185C3681.85,12190.7 3673.18,12207.2 3673.18,12207.2C3674.95,12197.3 3676.12,12182 3677.3,12171.3C3678.47,12160.6 3675.09,12150.1 3675.09,12150.1C3674.21,12156 3672.45,12162 3672.45,12162C3669.21,12150.6 3660.84,12137.5 3660.84,12137.5C3662.45,12149.1 3661.87,12160.7 3661.87,12160.7C3659.51,12151.6 3654.22,12139.8 3654.22,12139.8C3652.16,12147.5 3653.19,12162.5 3653.19,12162.5C3649.08,12155.6 3642.46,12140.9 3642.46,12140.9C3642.17,12150 3636.29,12175 3636.29,12175C3636.54,12170.8 3635.42,12155.2 3634.4,12148.5C3633.39,12155.2 3632.27,12170.8 3632.52,12175C3632.52,12175 3626.64,12150 3626.34,12140.9C3626.34,12140.9 3619.73,12155.6 3615.61,12162.5C3615.61,12162.5 3616.64,12147.5 3614.59,12139.8C3614.59,12139.8 3609.29,12151.6 3606.94,12160.7C3606.94,12160.7 3606.36,12149.1 3607.97,12137.5C3607.97,12137.5 3599.59,12150.6 3596.36,12162C3596.36,12162 3594.6,12156 3593.71,12150.1C3593.71,12150.1 3590.33,12160.6 3591.51,12171.3C3592.69,12182 3593.86,12197.3 3595.62,12207.2C3595.62,12207.2 3586.95,12190.7 3585.48,12185C3585.48,12185 3567.11,12221.6 3557.41,12236.3C3557.41,12236.3 3564.32,12204.8 3562.56,12198.2C3562.56,12198.2 3560.64,12199.1 3559.03,12201.6C3559.03,12201.6 3569.02,12168.2 3569.02,12161C3569.02,12161 3567.11,12163.2 3565.05,12166.6C3565.05,12166.6 3573.43,12148.5 3576.66,12139.4C3579.88,12130.3 3587.17,12086.4 3634.4,12086.5Z" style="fill:rgb(192,189,220);"/>
                </g>
            </g>
        </g>
    </g>
</svg>
