<?xml version="1.0" encoding="UTF-8" standalone="no"?>
<!DOCTYPE svg PUBLIC "-//W3C//DTD SVG 1.1//EN" "http://www.w3.org/Graphics/SVG/1.1/DTD/svg11.dtd">
<svg width="100%" height="100%" viewBox="0 0 214 440" version="1.1" xmlns="http://www.w3.org/2000/svg" xmlns:xlink="http://www.w3.org/1999/xlink" xml:space="preserve" xmlns:serif="http://www.serif.com/" style="fill-rule:evenodd;clip-rule:evenodd;stroke-linecap:round;stroke-linejoin:round;stroke-miterlimit:1.5;">
    <g transform="matrix(1,0,0,1,-7944.7,-12998.2)">
        <g transform="matrix(1.59458,0,0,1.59458,-2950.5,-6315.58)">
            <path d="M6866.73,12269.8C6859.54,12264.3 6845.98,12250.2 6855.91,12228.6C6869.03,12200 6878.07,12199.8 6878.07,12199.8C6878.07,12199.8 6877.11,12206.6 6885.45,12208C6893.78,12209.5 6909.21,12217.6 6918.53,12223.7C6918.53,12223.7 6931.66,12205.5 6942.66,12205.3C6953.66,12205.1 6943.93,12168.3 6912.51,12178.2C6912.51,12178.2 6895.48,12146.4 6923.83,12123.9C6952.18,12101.5 6958.49,12126.3 6950.11,12132.5C6950.11,12132.5 6953.64,12115.6 6939.75,12122.5C6925.86,12129.4 6917.51,12149.6 6921.52,12162.2C6921.52,12162.2 6981.74,12167.1 6958.27,12227C6958.27,12227 6940.74,12232.3 6932.48,12247.5C6932.48,12247.5 6913.96,12251.3 6912.51,12260.8C6912.51,12260.8 6910.95,12267.2 6894.21,12270.6C6896.25,12272.1 6897.41,12273.3 6897.41,12273.3C6901.57,12273.3 6905.09,12275 6908.03,12277.6C6914.1,12270.1 6922.34,12263.4 6933.35,12260.8C6933.35,12260.8 6932.76,12279.4 6946.31,12290.8C6946.31,12290.8 6948,12306.7 6943.98,12322.8C6943.98,12322.8 6945.88,12333.1 6950.11,12339.7C6950.11,12339.7 6939.75,12335.7 6936.78,12329.7C6936.78,12329.7 6933.19,12315.4 6932.55,12308.4C6932.55,12308.4 6926.84,12301.4 6920.49,12292.9C6920.49,12292.9 6919.34,12293.5 6917.53,12294.6C6919.14,12300.4 6918.51,12306.1 6917.66,12309.9C6919.09,12311 6919.93,12312.6 6919.37,12314.7C6917.86,12320.4 6918.82,12327.2 6915.36,12329C6915.27,12330.4 6915.17,12331.8 6915.07,12333.2C6917.37,12330.9 6921.62,12326.7 6923.99,12325.1C6927.35,12322.9 6929.62,12325.3 6929.08,12330.2C6928.54,12335.2 6930.73,12341.9 6923.03,12344C6919.28,12345 6915.93,12346.5 6913.47,12347.7C6913.1,12348.9 6912.24,12349.7 6911.2,12350.2C6911.1,12351.2 6911,12352.1 6910.89,12353.1C6909.28,12367 6902.23,12372.6 6894.44,12378.9C6886.94,12385.1 6882.44,12385.3 6882.12,12385.3L6882.11,12385.3C6881.79,12385.3 6877.29,12385.1 6869.78,12378.9C6862,12372.6 6854.95,12367 6853.34,12353.1C6853.2,12351.9 6853.09,12350.8 6852.98,12349.6C6852.48,12349.3 6852.02,12348.7 6851.59,12348.1C6849.09,12346.7 6845.47,12345.1 6841.39,12344C6833.68,12341.9 6835.88,12335.2 6835.34,12330.2C6834.79,12325.3 6837.07,12322.9 6840.43,12325.1C6842.1,12326.3 6844.72,12328.7 6846.92,12330.8C6846.82,12330 6846.74,12329.4 6846.7,12329C6844.52,12328 6844.83,12325.2 6843.21,12318.4C6843.21,12318.4 6839.53,12310.2 6846.24,12309.1L6846.31,12309.1C6842.42,12302.6 6849.76,12289.6 6849.76,12289.6C6845.25,12274.3 6863.24,12272.7 6863.24,12272.7C6864.41,12271.6 6865.58,12270.6 6866.73,12269.8Z" style="stroke:black;stroke-width:5.23px;"/>
            <g>
                <path d="M6870.7,12272.5C6870.7,12272.5 6842.79,12257.1 6855.91,12228.6C6869.03,12200 6878.07,12199.8 6878.07,12199.8C6878.07,12199.8 6877.11,12206.6 6885.45,12208C6893.78,12209.5 6909.21,12217.6 6918.53,12223.7C6918.53,12223.7 6931.66,12205.5 6942.66,12205.3C6953.66,12205.1 6943.93,12168.3 6912.51,12178.2C6912.51,12178.2 6895.48,12146.4 6923.83,12123.9C6952.18,12101.5 6958.49,12126.3 6950.11,12132.5C6950.11,12132.5 6953.64,12115.6 6939.75,12122.5C6925.86,12129.4 6917.51,12149.6 6921.52,12162.2C6921.52,12162.2 6981.74,12167.1 6958.27,12227C6958.27,12227 6940.74,12232.3 6932.48,12247.5C6932.48,12247.5 6913.96,12251.3 6912.51,12260.8C6912.51,12260.8 6909.68,12272.5 6870.7,12272.5Z" style="fill:rgb(255,133,31);"/>
                <path d="M6870.71,12268.8C6870.71,12268.8 6870.17,12262.1 6874.94,12260.8C6879.71,12259.5 6884.04,12258 6885.45,12269L6870.71,12268.8Z" style="fill:rgb(60,45,41);"/>
                <g transform="matrix(1,0,0,1,0.564215,-1.13402)">
                    <path d="M6850.37,12335.9C6850.37,12335.9 6843.22,12328.6 6839.86,12326.3C6836.5,12324 6834.23,12326.4 6834.77,12331.4C6835.31,12336.4 6833.12,12343.1 6840.82,12345.1C6848.53,12347.2 6854.6,12351.3 6854.6,12351.3L6850.37,12335.9Z" style="fill:rgb(252,185,121);"/>
                </g>
                <g transform="matrix(-1,0,0,1,13763.9,-1.13402)">
                    <path d="M6850.37,12335.9C6850.37,12335.9 6843.22,12328.6 6839.86,12326.3C6836.5,12324 6834.23,12326.4 6834.77,12331.4C6835.31,12336.4 6833.12,12343.1 6840.82,12345.1C6848.53,12347.2 6854.6,12351.3 6854.6,12351.3L6850.37,12335.9Z" style="fill:rgb(252,185,121);"/>
                </g>
                <path d="M6904.28,12351.2C6904.28,12351.2 6912.25,12351.9 6913.5,12347.6C6914.74,12343.3 6916.22,12314.7 6916.22,12314.7C6916.22,12314.7 6920.55,12304.5 6917.35,12294C6914.14,12283.4 6907.73,12273.3 6897.41,12273.3C6897.41,12273.3 6881.27,12255.8 6863.24,12272.7C6863.24,12272.7 6845.25,12274.3 6849.76,12289.6C6849.76,12289.6 6842.13,12303.1 6846.55,12309.4L6846.64,12328.4C6846.64,12328.4 6848.72,12349.6 6854.27,12350.2L6904.28,12351.2Z" style="fill:rgb(255,94,0);"/>
                <g transform="matrix(1.08457,0,0,1,-583.273,-0.169268)">
                    <path d="M6884.52,12321L6911.32,12322C6911.32,12322 6911.32,12339.3 6909.83,12353.2C6908.34,12367.2 6901.84,12372.7 6894.67,12379.1C6887.74,12385.2 6883.6,12385.5 6883.31,12385.5L6883.31,12385.5L6883.3,12385.5L6883.29,12385.5L6883.29,12385.5C6883,12385.5 6878.85,12385.2 6871.93,12379.1C6864.76,12372.7 6858.25,12367.2 6856.77,12353.2C6855.28,12339.3 6855.28,12322 6855.28,12322L6882.07,12321L6882.07,12320.9L6883.3,12321L6884.53,12320.9L6884.52,12321Z" style="fill:rgb(252,185,121);"/>
                </g>
                <path d="M6892.93,12308.8C6892.93,12308.8 6901.82,12268.4 6933.35,12260.8C6933.35,12260.8 6932.76,12279.4 6946.31,12290.8C6946.31,12290.8 6948,12306.7 6943.98,12322.8C6943.98,12322.8 6945.88,12333.1 6950.11,12339.7C6950.11,12339.7 6939.75,12335.7 6936.78,12329.7C6936.78,12329.7 6933.19,12315.4 6932.55,12308.4C6932.55,12308.4 6926.84,12301.4 6920.49,12292.9C6920.49,12292.9 6904.62,12301.4 6898.49,12309.2L6892.93,12308.8Z" style="fill:rgb(255,114,0);"/>
                <path d="M6843.21,12318.4C6843.21,12318.4 6839.53,12310.2 6846.24,12309.1C6852.96,12308 6881.02,12304.1 6908.05,12306.9C6908.05,12306.9 6921.21,12307.8 6919.37,12314.7C6917.53,12321.6 6919.37,12330.3 6912.32,12329.4C6905.28,12328.6 6875.49,12327.9 6859.13,12328.9C6842.78,12329.9 6846.13,12330.7 6843.21,12318.4Z" style="fill:rgb(60,45,41);"/>
                <clipPath id="_clip1">
                    <path d="M6843.21,12318.4C6843.21,12318.4 6839.53,12310.2 6846.24,12309.1C6852.96,12308 6881.02,12304.1 6908.05,12306.9C6908.05,12306.9 6921.21,12307.8 6919.37,12314.7C6917.53,12321.6 6919.37,12330.3 6912.32,12329.4C6905.28,12328.6 6875.49,12327.9 6859.13,12328.9C6842.78,12329.9 6846.13,12330.7 6843.21,12318.4Z"/>
                </clipPath>
                <g clip-path="url(#_clip1)">
                    <path d="M6840.82,12322.7C6840.82,12322.7 6858.36,12313.2 6923.59,12321.9L6921.87,12326.2C6921.87,12326.2 6883.25,12316.1 6842.44,12326.3L6840.82,12322.7Z" style="fill:rgb(64,134,152);"/>
                </g>
            </g>
        </g>
    </g>
</svg>
