<?xml version="1.0" encoding="UTF-8" standalone="no"?>
<!DOCTYPE svg PUBLIC "-//W3C//DTD SVG 1.1//EN" "http://www.w3.org/Graphics/SVG/1.1/DTD/svg11.dtd">
<svg width="100%" height="100%" viewBox="0 0 195 200" version="1.1" xmlns="http://www.w3.org/2000/svg" xmlns:xlink="http://www.w3.org/1999/xlink" xml:space="preserve" xmlns:serif="http://www.serif.com/" style="fill-rule:evenodd;clip-rule:evenodd;stroke-linecap:round;stroke-linejoin:round;stroke-miterlimit:1.5;">
    <g transform="matrix(1,0,0,1,-1503.081287,-13562.670843)">
        <g transform="matrix(1.012106,0,0,1.012106,-3074.35415,2821.416216)">
            <g transform="matrix(1,0,0,1.193949,0,-2095.79484)">
                <path d="M4543.458,10721.639C4543.594,10715.067 4544.317,10708.218 4545.914,10701.453C4546.637,10697.161 4547.923,10693.033 4549.902,10689.191C4553.13,10681.602 4557.78,10674.43 4564.301,10668.245L4564.104,10656.717C4565.955,10654.213 4575.066,10647.893 4575.066,10647.893C4583.034,10647.579 4593.922,10647.575 4600.43,10647.609C4608.095,10647.553 4614.953,10647.676 4619.003,10647.776C4619.849,10647.755 4620.818,10647.733 4621.89,10647.712C4622.224,10647.698 4622.559,10647.685 4622.895,10647.673C4625.031,10647.595 4627.11,10647.576 4629.134,10647.613C4631.749,10647.592 4634.602,10647.587 4637.577,10647.609C4644.084,10647.575 4654.972,10647.579 4662.94,10647.893C4662.94,10647.893 4672.051,10654.213 4673.902,10656.717L4673.813,10661.918C4694.312,10678.086 4700.417,10704.582 4702.105,10723.389C4707.595,10725.309 4713.109,10729.167 4709.927,10736.797C4708.296,10740.71 4705.612,10743.684 4702.614,10745.936C4702.89,10763.358 4707.256,10782.206 4707.256,10782.206C4701.796,10775.011 4694.933,10768.363 4690.153,10764.066C4689.755,10787.186 4686.553,10805.907 4686.553,10805.907C4680.379,10791.445 4671.384,10779.836 4671.384,10779.836C4666.269,10792.038 4655.158,10803.438 4655.158,10803.438C4654.152,10799.163 4649.681,10792.618 4645.265,10786.926C4631.652,10790.396 4619,10790.059 4619,10790.059C4619,10790.059 4596.619,10790.476 4579.231,10781.726C4575.94,10791.213 4575.366,10800.651 4575.366,10800.651C4568.311,10794.725 4561.538,10775.677 4561.538,10775.677C4555.753,10779.628 4545.17,10800.43 4545.17,10800.43C4544.191,10785.185 4544.631,10773.265 4545.387,10764.856C4537.134,10772.565 4530.75,10780.191 4530.75,10780.191C4533.247,10770.704 4538.887,10757.561 4542.302,10749.996C4536.883,10747.758 4530.641,10743.767 4527.735,10736.797C4522.677,10724.667 4539.595,10722.07 4543.458,10721.639Z" style="stroke:black;stroke-width:7.48px;"/>
            </g>
            <g>
                <g transform="matrix(1,0,0,1.193949,0,-2095.79484)">
                    <path d="M4547.569,10750.057C4547.569,10750.057 4543.054,10767.474 4545.17,10800.43C4545.17,10800.43 4555.753,10779.628 4561.538,10775.677C4561.538,10775.677 4568.311,10794.725 4575.366,10800.651C4575.366,10800.651 4576.636,10779.769 4586.23,10768.904L4635.58,10775.395C4635.58,10775.395 4653.041,10794.443 4655.158,10803.438C4655.158,10803.438 4666.269,10792.038 4671.384,10779.836C4671.384,10779.836 4680.379,10791.445 4686.553,10805.907C4686.553,10805.907 4690.957,10780.157 4690.078,10751.76L4578.258,10737.121L4547.569,10750.057Z" style="fill:rgb(49,72,0);"/>
                </g>
                <path d="M4619,10786.985C4619,10786.985 4577.354,10787.912 4563.545,10760.718C4547.851,10729.811 4512.641,10630.245 4619,10637.135C4725.359,10630.245 4689.313,10729.401 4674.455,10760.718C4661.352,10788.335 4619,10786.985 4619,10786.985Z" style="fill:rgb(137,109,83);"/>
                <g transform="matrix(1,0,0,1,-0.94857,5.198775)">
                    <path d="M4545.175,10700.008C4545.175,10700.008 4522.986,10701.88 4528.684,10718.194C4534.381,10734.509 4552.901,10737.155 4552.901,10737.155" style="fill:rgb(137,109,83);"/>
                </g>
                <g transform="matrix(-1,0,0,1,9238.610722,5.198775)">
                    <path d="M4545.175,10700.008C4545.175,10700.008 4522.986,10701.88 4528.684,10718.194C4534.381,10734.509 4552.901,10737.155 4552.901,10737.155" style="fill:rgb(137,109,83);"/>
                </g>
                <g transform="matrix(0.977116,0,0,0.977116,105.702199,244.461424)">
                    <path d="M4528.684,10777.373C4528.684,10777.373 4546.442,10752.042 4561.258,10742.694C4561.258,10742.694 4573.604,10767.386 4577.837,10772.148C4577.837,10772.148 4561.258,10722.058 4557.554,10698.071C4557.554,10698.071 4561.611,10709.712 4566.549,10718.354C4566.549,10718.354 4569.371,10691.545 4573.428,10675.671C4573.428,10675.671 4578.366,10697.718 4587.009,10711.299C4587.009,10711.299 4593.711,10679.551 4602.882,10654.506C4602.882,10654.506 4600.589,10685.725 4602.882,10713.239C4602.882,10713.239 4619.462,10675.495 4633.042,10650.979C4633.042,10650.979 4635.512,10689.428 4634.101,10713.063C4634.101,10713.063 4667.612,10683.961 4670.258,10658.034C4670.258,10658.034 4667.612,10687.312 4661.968,10706.36C4661.968,10706.36 4679.782,10694.896 4684.897,10685.548C4684.897,10685.548 4687.542,10707.771 4687.542,10722.763C4687.542,10722.763 4683.263,10746.177 4670.035,10777.043C4670.035,10777.043 4683.925,10758.107 4685.9,10751.616C4685.9,10751.616 4699.728,10764.738 4709.323,10779.836C4709.323,10779.836 4704.067,10752.745 4704.596,10730.169C4705.125,10707.593 4704.56,10611.92 4622.986,10615.448C4541.413,10618.975 4537.844,10692.888 4543.356,10733.123C4543.356,10733.123 4532.476,10760.168 4528.684,10777.373Z" style="fill:rgb(59,85,5);"/>
                </g>
                <g transform="matrix(0.80716,0,0,0.80716,880.994055,2063.985926)">
                    <path d="M4631.061,10596.557C4640.556,10596.277 4662.505,10595.873 4680.116,10597.383L4696.871,10610.39L4697.312,10642.799L4691.139,10652.279C4691.139,10652.279 4660.053,10656.689 4632.274,10656.909L4629.849,10656.909C4602.07,10656.689 4570.983,10652.279 4570.983,10652.279L4564.81,10642.799L4565.251,10610.39L4582.007,10597.383C4599.618,10595.873 4621.567,10596.277 4631.061,10596.557Z" style="fill:rgb(18,23,29);"/>
                </g>
                <g transform="matrix(0.80716,0,0,0.80716,879.019875,2064.606295)">
                    <path d="M4617.4,10595.609C4617.4,10595.609 4594.065,10595.256 4579.073,10595.962C4579.073,10595.962 4567.785,10605.309 4565.492,10609.013L4565.845,10633.706C4565.845,10633.706 4573.253,10637.233 4579.073,10638.115L4617.4,10637.939C4617.4,10637.939 4625.989,10632.295 4628.106,10628.238L4627.929,10603.369C4627.929,10603.369 4623.45,10599.665 4617.4,10595.609Z" style="fill:rgb(129,81,0);"/>
                </g>
                <g transform="matrix(-0.80716,0,0,0.80716,8358.986234,2064.606295)">
                    <path d="M4617.4,10595.609C4617.4,10595.609 4594.065,10595.256 4579.073,10595.962C4579.073,10595.962 4567.785,10605.309 4565.492,10609.013L4565.845,10633.706C4565.845,10633.706 4573.253,10637.233 4579.073,10638.115L4617.4,10637.939C4617.4,10637.939 4625.989,10632.295 4628.106,10628.238L4627.929,10603.369C4627.929,10603.369 4623.45,10599.665 4617.4,10595.609Z" style="fill:rgb(129,81,0);"/>
                </g>
                <g transform="matrix(1,0,0,1,-4.563669,14.085208)">
                    <path d="M4572.683,10690.242C4572.683,10690.242 4589.967,10682.305 4598.786,10687.949C4607.605,10693.593 4616.6,10706.469 4613.602,10709.467C4610.603,10712.466 4610.956,10684.775 4572.683,10690.242Z" style="fill:rgb(49,72,0);"/>
                </g>
                <g transform="matrix(-1,0,0,1,9253.372754,14.085208)">
                    <path d="M4572.683,10690.242C4572.683,10690.242 4589.967,10682.305 4598.786,10687.949C4607.605,10693.593 4616.6,10706.469 4613.602,10709.467C4610.603,10712.466 4610.956,10684.775 4572.683,10690.242Z" style="fill:rgb(49,72,0);"/>
                </g>
            </g>
        </g>
    </g>
</svg>
