<?xml version="1.0" encoding="UTF-8" standalone="no"?>
<!DOCTYPE svg PUBLIC "-//W3C//DTD SVG 1.1//EN" "http://www.w3.org/Graphics/SVG/1.1/DTD/svg11.dtd">
<svg width="100%" height="100%" viewBox="0 0 173 201" version="1.1" xmlns="http://www.w3.org/2000/svg" xmlns:xlink="http://www.w3.org/1999/xlink" xml:space="preserve" xmlns:serif="http://www.serif.com/" style="fill-rule:evenodd;clip-rule:evenodd;stroke-linecap:round;stroke-linejoin:round;stroke-miterlimit:1.5;">
    <g transform="matrix(1,0,0,1,-6727.298368,-13160.449092)">
        <g transform="matrix(1,0,0,1,5565.2612,1202.631008)">
            <g transform="matrix(0.592201,0,0,0.595488,-878.805051,4853.958923)">
                <path d="M3488.717,12052.445C3497.052,12014.716 3522.835,11962.109 3606.84,11936.463C3742.51,11972.302 3727.507,12079.255 3729.616,12093.936C3730.823,12102.342 3725.711,12105.605 3721.102,12106.858C3721.103,12107.115 3721.103,12107.374 3721.103,12107.634C3723.294,12107.519 3725.354,12108.21 3727.109,12110.082C3733.402,12116.795 3732.537,12140.073 3721.414,12154.931C3721.558,12164.805 3721.764,12172.998 3722.058,12177.304C3723.238,12194.574 3731.027,12228.815 3731.027,12228.815C3718.518,12212.141 3709.549,12207.675 3709.549,12207.675C3707.661,12236.259 3700.344,12255.315 3700.344,12255.315C3699.164,12239.832 3688.469,12201.134 3688.469,12201.134C3685.057,12203.604 3681.773,12205.659 3678.689,12207.367C3663.251,12228.231 3647.475,12242.194 3641.898,12247.139C3630.88,12256.911 3612.811,12258.402 3607.572,12258.629L3607.572,12258.67C3607.572,12258.67 3607.315,12258.67 3606.84,12258.656C3606.364,12258.67 3606.107,12258.67 3606.107,12258.67L3606.107,12258.629C3600.869,12258.402 3582.799,12256.911 3571.781,12247.139C3566.205,12242.194 3550.428,12228.231 3534.99,12207.367C3531.907,12205.659 3528.622,12203.604 3525.21,12201.134C3525.21,12201.134 3514.515,12239.832 3513.335,12255.315C3513.335,12255.315 3506.018,12236.259 3504.13,12207.675C3504.13,12207.675 3495.161,12212.141 3482.652,12228.815C3482.652,12228.815 3490.441,12194.574 3491.621,12177.304C3491.915,12172.998 3492.121,12164.805 3492.265,12154.931C3481.142,12140.073 3480.277,12116.795 3486.571,12110.082C3488.325,12108.21 3490.385,12107.519 3492.576,12107.634C3492.576,12107.374 3492.576,12107.115 3492.577,12106.858C3490.497,12106.292 3488.315,12105.317 3486.657,12103.645C3477.885,12109.983 3466.838,12114.713 3453.232,12115.136C3453.232,12115.136 3455.142,12091.4 3474.319,12077.271C3455.142,12063.142 3453.232,12039.406 3453.232,12039.406C3467.926,12039.862 3479.635,12045.342 3488.717,12052.445Z" style="stroke:black;stroke-width:14.03px;"/>
            </g>
            <g>
                <g transform="matrix(0.592201,0,0,0.595488,-878.805051,4853.958923)">
                    <path d="M3514.164,12123.953C3514.164,12123.953 3495.977,12100.048 3486.571,12110.082C3477.164,12120.116 3483.749,12167.149 3516.672,12167.776L3514.164,12123.953Z" style="fill:rgb(213,154,99);"/>
                </g>
                <g transform="matrix(-0.592201,0,0,0.595488,3393.145824,4853.958923)">
                    <path d="M3514.164,12123.953C3514.164,12123.953 3495.977,12100.048 3486.571,12110.082C3477.164,12120.116 3483.749,12167.149 3516.672,12167.776L3514.164,12123.953Z" style="fill:rgb(213,154,99);"/>
                </g>
                <g transform="matrix(0.864945,-0.071779,0.071779,0.864945,-2715.692269,1827.48223)">
                    <path d="M3577.298,12235.607C3573.749,12235.156 3561.546,12233.117 3554.608,12225.814C3546.427,12217.202 3503.366,12171.988 3514.562,12116.009L3528,12089.312L3589.443,12095.294L3651.033,12099.522L3659.886,12128.069C3661.701,12185.128 3611.776,12222.625 3602.287,12229.771C3594.24,12235.83 3581.869,12235.83 3578.294,12235.69L3578.292,12235.718C3578.292,12235.718 3578.117,12235.703 3577.794,12235.667C3577.47,12235.65 3577.295,12235.635 3577.295,12235.635L3577.298,12235.607Z" style="fill:rgb(213,154,99);"/>
                </g>
                <g transform="matrix(2.226722,0,0,-2.226722,-6862.601574,39250.084628)">
                    <path d="M3621.965,12219.87C3621.965,12219.87 3617.385,12207.414 3605.661,12207.047C3605.661,12207.047 3606.76,12220.786 3621.965,12219.87Z" style="fill:rgb(216,216,205);"/>
                </g>
                <g transform="matrix(2.226722,0,0,2.226722,-6862.601574,-15158.415928)">
                    <path d="M3621.965,12219.87C3621.965,12219.87 3617.385,12207.414 3605.661,12207.047C3605.661,12207.047 3606.76,12220.786 3621.965,12219.87Z" style="fill:rgb(216,216,205);"/>
                </g>
                <g transform="matrix(0.312523,0,0,0.396451,363.572848,7205.404236)">
                    <path d="M2674.434,12218.798C2674.434,12218.798 2685.056,12287.561 2699.591,12313.836C2714.126,12340.111 2745.992,12404.402 2766.117,12417.26C2766.117,12417.26 2738.724,12415.024 2704.622,12395.457C2704.622,12395.457 2684.357,12453.584 2682.121,12476.84C2682.121,12476.84 2668.256,12448.217 2664.678,12405.282C2664.678,12405.282 2647.683,12411.991 2623.98,12437.036C2623.98,12437.036 2638.739,12385.604 2640.975,12359.664C2643.211,12333.724 2642.764,12213.865 2642.764,12213.865L2674.434,12218.798Z" style="fill:rgb(159,139,61);"/>
                </g>
                <g transform="matrix(-0.312523,0,0,0.396451,2150.767925,7205.404236)">
                    <path d="M2674.434,12218.798C2674.434,12218.798 2685.056,12287.561 2699.591,12313.836C2714.126,12340.111 2745.992,12404.402 2766.117,12417.26C2766.117,12417.26 2738.724,12415.024 2704.622,12395.457C2704.622,12395.457 2684.357,12453.584 2682.121,12476.84C2682.121,12476.84 2668.256,12448.217 2664.678,12405.282C2664.678,12405.282 2647.683,12411.991 2623.98,12437.036C2623.98,12437.036 2638.739,12385.604 2640.975,12359.664C2643.211,12333.724 2642.764,12213.865 2642.764,12213.865L2674.434,12218.798Z" style="fill:rgb(159,139,61);"/>
                </g>
                <g transform="matrix(0.37334,0,0,0.37334,209.362538,7502.036553)">
                    <path d="M2977.288,12219.045L2635.864,12219.045C2635.864,12219.045 2608.471,12220.722 2611.825,12197.242C2615.17,12173.825 2601.505,12009.022 2806.576,11946.067C3021.78,12003.232 2997.981,12173.825 3001.327,12197.242C3004.681,12220.722 2977.288,12219.045 2977.288,12219.045Z" style="fill:rgb(235,235,221);"/>
                    <clipPath id="_clip1">
                        <path d="M2977.288,12219.045L2635.864,12219.045C2635.864,12219.045 2608.471,12220.722 2611.825,12197.242C2615.17,12173.825 2601.505,12009.022 2806.576,11946.067C3021.78,12003.232 2997.981,12173.825 3001.327,12197.242C3004.681,12220.722 2977.288,12219.045 2977.288,12219.045Z"/>
                    </clipPath>
                    <g clip-path="url(#_clip1)">
                        <g transform="matrix(1.467827,0,0,1.467827,1437.438818,-5267.620101)">
                            <path d="M932.743,11844.327L932.786,11844.327C932.786,11844.327 949.95,11876.186 969.149,11891.573C969.149,11891.573 999.301,11852.005 1023.299,11830.206C1023.299,11830.206 1048.396,11861.347 1050.228,11886.444C1050.228,11886.444 1062.135,11865.744 1078.072,11851.272L1076.423,11874.72C1076.423,11874.72 1060.926,11894.688 1045.593,11903.847C1045.593,11903.847 1035.573,11865.744 1024.581,11851.639C1024.581,11851.639 990.691,11911.358 967.61,11908.06C949.194,11905.43 936.959,11884.49 932.764,11876.133C928.57,11884.49 916.335,11905.43 897.919,11908.06C874.837,11911.358 840.948,11851.639 840.948,11851.639C829.956,11865.744 819.936,11903.847 819.936,11903.847C804.602,11894.688 789.105,11874.72 789.105,11874.72L787.457,11851.272C803.394,11865.744 815.301,11886.444 815.301,11886.444C817.133,11861.347 842.23,11830.206 842.23,11830.206C866.228,11852.005 896.38,11891.573 896.38,11891.573C915.578,11876.186 932.743,11844.327 932.743,11844.327Z" style="fill:rgb(192,151,23);"/>
                        </g>
                        <g transform="matrix(1.316899,0,0,1.316899,2069.617701,-3673.067603)">
                            <path d="M559.616,11895.565L559.668,11895.411C559.668,11895.411 587.718,11909.722 606.323,11924.606C606.323,11924.606 630.653,11922.03 609.186,11891.69C609.186,11891.69 626.073,11887.945 658.99,11931.762C658.99,11931.762 664.428,11916.329 658.704,11901.732L680.171,11922.054C680.171,11922.054 676.164,11940.945 669.867,11952.967C669.867,11952.967 644.392,11920.337 633.229,11913.181C633.229,11913.181 624.356,11944.953 605.178,11942.09C586.738,11939.338 588.94,11926.793 559.616,11908.783C530.292,11926.793 532.495,11939.338 514.054,11942.09C494.877,11944.953 486.003,11913.181 486.003,11913.181C474.84,11920.337 449.366,11952.967 449.366,11952.967C443.069,11940.945 439.062,11922.054 439.062,11922.054L460.529,11901.732C454.804,11916.329 460.243,11931.762 460.243,11931.762C493.159,11887.945 510.047,11891.69 510.047,11891.69C488.58,11922.03 512.909,11924.606 512.909,11924.606C531.514,11909.722 559.565,11895.411 559.565,11895.411L559.616,11895.565Z" style="fill:rgb(192,151,23);"/>
                        </g>
                    </g>
                </g>
                <g transform="matrix(0.708812,0,0,0.708812,862.366843,3541.083499)">
                    <path d="M478.999,11996.978L485.868,11982.781L492.967,11997.207L478.999,11996.978" style="fill:rgb(104,19,13);"/>
                </g>
                <g transform="matrix(0.708812,0,0,0.708812,963.222992,3541.083499)">
                    <path d="M478.999,11996.978L485.868,11982.781L492.967,11997.207L478.999,11996.978" style="fill:rgb(104,19,13);"/>
                </g>
                <g transform="matrix(0.563214,0.195745,0.195745,-0.563214,-1808.914266,18492.002497)">
                    <path d="M1240.066,11974.852L1246.368,11986.576L1233.764,11986.576L1240.066,11974.852Z" style="fill:rgb(104,19,13);"/>
                </g>
                <g transform="matrix(-0.563214,0.195745,-0.195745,-0.563214,4323.255039,18492.002497)">
                    <path d="M1240.066,11974.852L1246.368,11986.576L1233.764,11986.576L1240.066,11974.852Z" style="fill:rgb(104,19,13);"/>
                </g>
            </g>
        </g>
    </g>
</svg>
