<?xml version="1.0" encoding="UTF-8" standalone="no"?>
<!DOCTYPE svg PUBLIC "-//W3C//DTD SVG 1.1//EN" "http://www.w3.org/Graphics/SVG/1.1/DTD/svg11.dtd">
<svg width="100%" height="100%" viewBox="0 0 159 201" version="1.1" xmlns="http://www.w3.org/2000/svg" xmlns:xlink="http://www.w3.org/1999/xlink" xml:space="preserve" xmlns:serif="http://www.serif.com/" style="fill-rule:evenodd;clip-rule:evenodd;stroke-linecap:round;stroke-linejoin:round;stroke-miterlimit:1.5;">
    <g transform="matrix(1,0,0,1,-6541.07,-13240.3)">
        <g transform="matrix(3.12774,0,0,3.12774,-2677.89,-22051.4)">
            <path d="M2952.21,11312.9C2951.82,11305.3 2952.34,11297.8 2956.99,11293.7C2964.51,11287 2965.74,11284.9 2972.75,11284.8L2972.91,11284.8C2979.77,11284.9 2981.04,11287 2988.51,11293.7C2993.16,11297.8 2993.68,11305.3 2993.29,11312.9C2994.07,11312.7 2995.35,11312.6 2996.2,11314C2997.27,11315.8 2996.78,11321.3 2992.3,11325.9C2992.29,11326 2992.28,11326.2 2992.27,11326.4C2991.8,11336.8 2989.54,11336.7 2984.56,11341.6C2979.57,11346.6 2972.75,11346.2 2972.75,11346.2L2972.73,11346.2C2972.32,11346.3 2965.77,11346.5 2960.94,11341.6C2955.95,11336.7 2953.7,11336.8 2953.22,11326.4C2953.22,11326.2 2953.21,11326 2953.2,11325.9C2948.71,11321.3 2948.23,11315.8 2949.3,11314C2950.15,11312.6 2951.43,11312.7 2952.21,11312.9Z" style="stroke:black;stroke-width:2.66px;"/>
            <g>
                <g transform="matrix(1,0,0,1,-83.7446,-65.7592)">
                    <path d="M3036.66,11379C3036.66,11379 3034.35,11377.6 3033.05,11379.8C3031.74,11381.9 3032.74,11389.6 3040.42,11394.4L3040.23,11379.5L3036.66,11379Z" style="fill:rgb(73,52,39);"/>
                </g>
                <g transform="matrix(-1,0,0,1,6029.24,-65.7592)">
                    <path d="M3036.66,11379C3036.66,11379 3034.35,11377.6 3033.05,11379.8C3031.74,11381.9 3032.74,11389.6 3040.42,11394.4L3040.23,11379.5L3036.66,11379Z" style="fill:rgb(73,52,39);"/>
                </g>
                <g transform="matrix(1,0,0,1,-83.5122,-65.8342)">
                    <path d="M3056.24,11412.1C3055.84,11412.1 3049.28,11412.3 3044.45,11407.5C3039.47,11402.5 3037.21,11402.7 3036.74,11392.2C3036.27,11381.8 3032.97,11366.2 3040.5,11359.5C3048.03,11352.8 3049.26,11350.7 3056.26,11350.6L3056.42,11350.6C3063.28,11350.7 3064.56,11352.9 3072.02,11359.5C3079.55,11366.2 3076.25,11381.8 3075.78,11392.2C3075.31,11402.7 3073.06,11402.5 3068.07,11407.5C3063.09,11412.5 3056.26,11412.1 3056.26,11412.1L3056.24,11412.1Z" style="fill:rgb(75,53,40);"/>
                    <clipPath id="_clip1">
                        <path d="M3056.24,11412.1C3055.84,11412.1 3049.28,11412.3 3044.45,11407.5C3039.47,11402.5 3037.21,11402.7 3036.74,11392.2C3036.27,11381.8 3032.97,11366.2 3040.5,11359.5C3048.03,11352.8 3049.26,11350.7 3056.26,11350.6L3056.42,11350.6C3063.28,11350.7 3064.56,11352.9 3072.02,11359.5C3079.55,11366.2 3076.25,11381.8 3075.78,11392.2C3075.31,11402.7 3073.06,11402.5 3068.07,11407.5C3063.09,11412.5 3056.26,11412.1 3056.26,11412.1L3056.24,11412.1Z"/>
                    </clipPath>
                    <g clip-path="url(#_clip1)">
                        <path d="M3063.4,11356.7C3063.4,11356.7 3043.33,11360 3047.46,11353.1L3040.33,11350.6L3040.8,11356.9C3040.8,11356.9 3054.96,11365.1 3063.4,11356.7" style="fill:rgb(52,52,52);"/>
                        <path d="M3040.33,11367.7C3040.33,11367.7 3042.76,11375.9 3052.67,11378.6L3045.54,11380.7L3040.33,11379.2C3040.33,11379.2 3038.57,11372.9 3040.33,11367.7Z" style="fill:rgb(52,52,52);"/>
                        <path d="M3069.55,11355.6C3069.55,11355.6 3071.43,11359.1 3067.97,11361.5C3064.52,11363.8 3057.47,11366.5 3058.07,11374.2C3058.07,11374.2 3060.33,11368.7 3063.4,11367.7C3066.47,11366.6 3073.45,11364.2 3076.3,11361.8L3069.55,11355.6Z" style="fill:rgb(52,52,52);"/>
                        <path d="M3060.6,11377C3060.6,11377 3063.23,11370.8 3069.08,11369.5C3069.08,11369.5 3070,11371.7 3067.17,11374.2C3067.17,11374.2 3072.4,11371.5 3071.46,11374.2C3070.53,11376.8 3062.65,11375.1 3061.8,11379.2L3073.43,11379.5C3073.43,11379.5 3075.5,11376.3 3073.24,11371.2C3073.24,11371.2 3070.53,11368.2 3071.56,11366.2C3071.56,11366.2 3060.9,11368.2 3060.6,11377" style="fill:rgb(52,52,52);"/>
                        <path d="M3076.3,11387C3076.3,11387 3071.44,11388 3071.92,11395.7C3071.92,11395.7 3073.36,11391.7 3076.3,11392.5L3082.07,11391.3L3076.3,11387Z" style="fill:rgb(52,52,52);"/>
                        <path d="M3032.3,11378.5C3032.3,11378.5 3044.19,11387.5 3044.61,11397.1C3044.61,11397.1 3041.91,11390.2 3033.57,11389.9L3032.3,11378.5Z" style="fill:rgb(52,52,52);"/>
                        <path d="M3045.21,11398.7C3045.21,11398.7 3045.39,11401.8 3047.97,11402.8C3047.97,11402.8 3046.53,11396.5 3049.29,11394.9C3052.05,11393.3 3056.66,11392.5 3060.6,11392.8C3064.54,11393.1 3070.42,11395.4 3069.22,11398.9C3068.02,11402.4 3071.51,11402.1 3074.3,11401.9L3070,11407.2C3070,11407.2 3067.28,11406.9 3067.17,11403C3067.06,11399.1 3065.98,11394.9 3059.32,11394.9C3052.65,11394.9 3048.87,11397 3049.59,11400.3C3050.31,11403.6 3049.65,11406.6 3049.65,11406.6C3049.65,11406.6 3043.11,11405.2 3045.21,11398.7Z" style="fill:rgb(52,52,52);"/>
                        <path d="M3055.49,11402.1C3055.49,11402.1 3054.97,11403.8 3052.61,11405.6C3052.61,11405.6 3056.74,11405.8 3055.74,11408.4C3054.73,11411 3048.4,11411.6 3055.64,11413.7L3063.69,11413.1C3063.69,11413.1 3063.08,11408.7 3059.55,11405.3C3059.55,11405.3 3064.51,11405.5 3063.4,11402.3C3063.4,11402.3 3058.1,11403.9 3055.49,11402.1Z" style="fill:rgb(52,52,52);"/>
                    </g>
                </g>
                <g transform="matrix(1,0,0,1,-83.5122,-65.8342)">
                    <path d="M3059.97,11379.8C3063.01,11376.4 3074.81,11377.8 3074.81,11377.8C3074.81,11377.8 3076.91,11381.3 3071.57,11385.1C3067.07,11388.3 3060.31,11386 3059.33,11382.6C3058.41,11382.3 3056.89,11382 3054.92,11382.4C3054.15,11385.9 3047.22,11388.3 3042.63,11385.1C3037.29,11381.3 3039.39,11377.8 3039.39,11377.8C3039.39,11377.8 3050.85,11376.5 3054.1,11379.6C3055.4,11379.2 3057.58,11378.8 3059.97,11379.8Z" style="fill:rgb(17,17,17);"/>
                </g>
            </g>
        </g>
    </g>
</svg>
