<?xml version="1.0" encoding="UTF-8" standalone="no"?>
<!DOCTYPE svg PUBLIC "-//W3C//DTD SVG 1.1//EN" "http://www.w3.org/Graphics/SVG/1.1/DTD/svg11.dtd">
<svg width="100%" height="100%" viewBox="0 0 200 216" version="1.1" xmlns="http://www.w3.org/2000/svg" xmlns:xlink="http://www.w3.org/1999/xlink" xml:space="preserve" xmlns:serif="http://www.serif.com/" style="fill-rule:evenodd;clip-rule:evenodd;stroke-linecap:round;stroke-linejoin:round;stroke-miterlimit:1.5;">
    <g transform="matrix(1,0,0,1,-9732.92,-13222.4)">
        <g transform="matrix(1,0,0,1,1164.19,562.281)">
            <path d="M8679.97,12680.5L8679.97,12680.5C8679.97,12671.5 8687.23,12664.2 8696.18,12664.2C8705.14,12664.2 8712.4,12671.5 8712.4,12680.5C8712.4,12689.4 8705.14,12696.7 8696.18,12696.7C8689.53,12696.7 8683.8,12692.7 8681.3,12686.9C8672.16,12690.9 8672.13,12699.9 8672.23,12701.8C8674.01,12702 8675.79,12702.3 8677.58,12702.7C8679.4,12705.7 8680.22,12708.8 8680.24,12712C8679.17,12711.9 8678.1,12711.8 8677.03,12711.7C8725.79,12715.3 8764.07,12749.6 8764.07,12791.3C8764.07,12835.4 8721.24,12871.2 8668.48,12871.2C8615.73,12871.2 8572.89,12835.4 8572.89,12791.3C8572.89,12750.5 8609.51,12716.8 8656.73,12712C8656.74,12708.9 8657.68,12705.8 8659.42,12702.7C8661.04,12702.3 8662.66,12702 8664.27,12701.8C8663.8,12689.5 8673.21,12683.3 8679.97,12680.5Z" style="stroke:black;stroke-width:8.33px;"/>
            <g>
                <g transform="matrix(0.274606,0,0,0.274606,6457.58,9553.79)">
                    <path d="M8064.91,11464.9C8064.91,11464.9 8059.16,11411.8 8119.8,11403.6L8117.28,11378.4C8117.28,11378.4 8032.32,11394 8035.9,11464.9L8064.91,11464.9Z" style="fill:rgb(171,171,171);"/>
                </g>
                <g transform="matrix(0.230936,0,0,0.273045,6801.25,9587.04)">
                    <ellipse cx="8205.46" cy="11329.3" rx="70.223" ry="59.393" style="fill:rgb(255,29,0);"/>
                </g>
                <g transform="matrix(0.291777,0,0,0.282565,6319.79,9462.28)">
                    <ellipse cx="8049.62" cy="11781.5" rx="327.612" ry="282.851" style="fill:white;fill-opacity:0.95;"/>
                </g>
                <g transform="matrix(0.523043,0,0,0.53694,4385.87,5988.19)">
                    <path d="M8087.21,12767.7C8087.21,12767.7 8076.13,12772.8 8072.66,12764.6C8069.2,12756.3 8056.06,12744.3 8044.82,12736.5C8033.58,12728.6 8031.96,12698.4 8057.96,12677.4L8067.28,12664.1C8067.28,12664.1 8072.78,12640 8086.74,12624.8C8100.71,12609.5 8128.06,12593.3 8177.36,12588C8226.66,12582.7 8265.61,12607.5 8287.03,12629.2C8308.45,12650.9 8309.65,12687.4 8309.65,12687.4L8324.59,12693.2C8324.59,12693.2 8346.54,12712 8335.7,12730.8C8324.85,12749.6 8307.92,12748.8 8299.99,12763.1C8292.06,12777.3 8289.41,12771.9 8282,12767.7L8087.21,12767.7" style="fill:rgb(162,12,40);"/>
                </g>
                <g transform="matrix(0.523043,0,0,0.53694,4386.11,5987.77)">
                    <path d="M8068.95,12682.5L8068.27,12668.5C8068.27,12668.5 8068.44,12661.7 8062.01,12656.1C8055.57,12650.5 8043.89,12636 8043.05,12651C8042.2,12666.1 8044.4,12714.3 8056.08,12715.5C8067.76,12716.7 8081.47,12718.1 8081.47,12718.1L8068.95,12682.5Z" style="fill:rgb(235,204,204);"/>
                </g>
                <g transform="matrix(-0.523043,0,0,0.53694,12949,5987.77)">
                    <path d="M8068.95,12682.5L8068.27,12668.5C8068.27,12668.5 8068.44,12661.7 8062.01,12656.1C8055.57,12650.5 8043.89,12636 8043.05,12651C8042.2,12666.1 8044.4,12714.3 8056.08,12715.5C8067.76,12716.7 8081.47,12718.1 8081.47,12718.1L8068.95,12682.5Z" style="fill:rgb(235,204,204);"/>
                </g>
                <g transform="matrix(0.523043,0,0,0.53694,4385.87,5988.19)">
                    <path d="M8185.98,12805C8182.46,12804.9 8125.65,12803.3 8099.13,12781.7C8071.75,12759.5 8041.27,12700.6 8081.57,12653.1C8121.86,12605.6 8186.15,12617.5 8186.15,12617.5L8186.34,12617.4C8190.14,12616.8 8251.71,12607.1 8290.74,12653.1C8331.04,12700.6 8300.56,12759.5 8273.18,12781.7C8245.8,12804 8186.15,12805 8186.15,12805L8185.98,12805Z" style="fill:rgb(242,209,209);"/>
                </g>
                <g transform="matrix(0.523043,0,0,0.53694,4385.87,5988.19)">
                    <path d="M8211.44,12654.2C8211.44,12654.2 8201.52,12636.6 8207.47,12622.4C8213.42,12608.2 8224.33,12595.6 8209.12,12585.4C8193.91,12575.1 8194.24,12563.6 8172.09,12568.9C8149.94,12574.2 8142.34,12571.8 8126.8,12603.2C8111.26,12634.7 8141.02,12653.2 8211.44,12654.2Z" style="fill:rgb(142,18,41);"/>
                </g>
                <g transform="matrix(0.274606,0,0,0.274606,6457.85,9553.81)">
                    <path d="M8007.38,11500.9C8007.39,11489.6 8010.8,11478.3 8017.17,11467C8039.21,11461.5 8061.25,11461.5 8083.29,11467C8089.95,11477.8 8092.91,11489.1 8093,11500.7C8079.31,11499.3 8065.34,11498.6 8051.18,11498.6C8036.35,11498.6 8021.74,11499.4 8007.38,11500.9Z" style="fill:rgb(197,197,197);"/>
                </g>
            </g>
        </g>
    </g>
</svg>
