<?xml version="1.0" encoding="UTF-8" standalone="no"?>
<!DOCTYPE svg PUBLIC "-//W3C//DTD SVG 1.1//EN" "http://www.w3.org/Graphics/SVG/1.1/DTD/svg11.dtd">
<svg width="100%" height="100%" viewBox="0 0 174 202" version="1.1" xmlns="http://www.w3.org/2000/svg" xmlns:xlink="http://www.w3.org/1999/xlink" xml:space="preserve" xmlns:serif="http://www.serif.com/" style="fill-rule:evenodd;clip-rule:evenodd;stroke-linecap:round;stroke-linejoin:round;stroke-miterlimit:1.5;">
    <g transform="matrix(1,0,0,1,-4525.645682,-13360.778215)">
        <g transform="matrix(0.176475,0,0,0.176475,3693.639181,11439.001967)">
            <g transform="matrix(1,0,0,1,1500.659426,329.191936)">
                <path d="M3311.479,11032.759C3318.327,10945.947 3327.045,10878.656 3348.201,10828.613L3343.78,10828.613L3343.78,10734.959L3345.555,10734.959C3345.555,10734.959 3315.821,10701.091 3291.214,10656.298C3291.214,10656.298 3545.486,10597.302 3704.406,10584.192C3863.325,10597.302 4117.597,10656.298 4117.597,10656.298C4092.99,10701.091 4063.257,10734.959 4063.257,10734.959L4065.031,10734.959L4065.031,10828.613L4060.611,10828.613C4081.766,10878.656 4090.484,10945.947 4097.333,11032.759C4112.397,11029.037 4130.246,11028.218 4145.747,11037.292C4180.698,11057.751 4170.469,11085.882 4167.911,11148.964C4165.608,11205.766 4178.512,11263.26 4115.755,11281.613C4115.84,11282.56 4115.925,11283.509 4116.01,11284.46C4139.409,11544.714 3897.235,11604.947 3836.399,11643.574C3800.434,11666.41 3754.433,11673.683 3722.831,11675.814L3722.803,11676.301C3722.803,11676.301 3715.81,11676.762 3704.406,11676.583C3693.001,11676.762 3686.009,11676.301 3686.009,11676.301L3685.98,11675.814C3654.378,11673.683 3608.377,11666.41 3572.413,11643.574C3511.577,11604.947 3269.403,11544.714 3292.801,11284.46C3292.887,11283.509 3292.972,11282.56 3293.056,11281.613C3230.3,11263.26 3243.203,11205.766 3240.9,11148.964C3238.343,11085.882 3228.113,11057.751 3263.064,11037.292C3278.565,11028.218 3296.414,11029.037 3311.479,11032.759Z" style="stroke:black;stroke-width:47.22px;"/>
            </g>
            <g>
                <g transform="matrix(1,0,0,1,1500.659426,329.191936)">
                    <path d="M3344.901,11046.669C3344.901,11046.669 3298.015,11016.832 3263.064,11037.292C3228.113,11057.751 3238.343,11085.882 3240.9,11148.964C3243.458,11212.047 3227.261,11275.982 3316.769,11286.211L3344.901,11046.669Z" style="fill:rgb(184,135,94);"/>
                </g>
                <g transform="matrix(-1,0,0,1,8909.470809,329.191936)">
                    <path d="M3344.901,11046.669C3344.901,11046.669 3298.015,11016.832 3263.064,11037.292C3228.113,11057.751 3238.343,11085.882 3240.9,11148.964C3243.458,11212.047 3227.261,11275.982 3316.769,11286.211L3344.901,11046.669Z" style="fill:rgb(184,135,94);"/>
                </g>
                <g transform="matrix(0.878337,0,0,1,939.455323,320.700066)">
                    <path d="M4835.485,11684.306C4799.505,11682.175 4747.132,11674.902 4706.186,11652.066C4636.923,11613.439 4361.204,11553.206 4387.844,11292.952C4414.484,11032.698 4405.16,10872.86 4482.414,10790.278L5230.51,10790.278C5307.765,10872.86 5298.441,11032.698 5325.08,11292.952C5351.72,11553.206 5076.001,11613.439 5006.738,11652.066C4965.792,11674.902 4913.419,11682.175 4877.44,11684.306L4877.408,11684.793C4877.408,11684.793 4869.446,11685.254 4856.462,11685.075C4843.478,11685.254 4835.517,11684.793 4835.517,11684.793L4835.485,11684.306Z" style="fill:rgb(192,144,104);"/>
                    <clipPath id="_clip1">
                        <path d="M4835.485,11684.306C4799.505,11682.175 4747.132,11674.902 4706.186,11652.066C4636.923,11613.439 4361.204,11553.206 4387.844,11292.952C4414.484,11032.698 4405.16,10872.86 4482.414,10790.278L5230.51,10790.278C5307.765,10872.86 5298.441,11032.698 5325.08,11292.952C5351.72,11553.206 5076.001,11613.439 5006.738,11652.066C4965.792,11674.902 4913.419,11682.175 4877.44,11684.306L4877.408,11684.793C4877.408,11684.793 4869.446,11685.254 4856.462,11685.075C4843.478,11685.254 4835.517,11684.793 4835.517,11684.793L4835.485,11684.306Z"/>
                    </clipPath>
                    <g clip-path="url(#_clip1)">
                        <g transform="matrix(1.138515,0,0,1,-1069.584288,-320.700066)">
                            <path d="M5205.065,12106.306L5126.651,12005.816C5126.651,12005.816 5122.388,11972.576 5154.356,11952.33C5154.356,11952.33 5156.487,11919.297 5180.995,11893.723C5180.995,11893.723 5182.25,11909.707 5205.065,11908.641C5227.881,11909.707 5229.135,11893.723 5229.135,11893.723C5253.643,11919.297 5255.775,11952.33 5255.775,11952.33C5287.742,11972.576 5283.48,12005.816 5283.48,12005.816L5205.065,12106.306Z" style="fill:rgb(75,51,31);"/>
                        </g>
                    </g>
                </g>
                <g transform="matrix(1.019275,0,0,1,-105.280167,15.554866)">
                    <rect x="4856.117" y="11048.596" width="707.612" height="93.655" style="fill:rgb(24,48,64);"/>
                </g>
                <g transform="matrix(1.202735,0,0,1.281596,78.269698,-2755.849808)">
                    <path d="M4560.977,10783.431L3964.252,10783.431C3964.252,10783.431 3939.531,10757.005 3919.072,10722.054C3919.072,10722.054 4130.483,10676.021 4262.615,10665.791C4394.747,10676.021 4606.158,10722.054 4606.158,10722.054C4585.699,10757.005 4560.977,10783.431 4560.977,10783.431Z" style="fill:rgb(184,176,168);"/>
                </g>
                <g transform="matrix(1,0,0,1,837.781051,324.668962)">
                    <path d="M4035.665,11110.978C4035.665,11110.978 4196.834,11123.443 4195.502,11157.805C4194.17,11192.168 4176.854,11290.734 4176.854,11290.734C4176.854,11290.734 4183.514,11131.018 4035.665,11110.978Z" style="fill:rgb(172,131,97);"/>
                </g>
                <g transform="matrix(-1,0,0,1,9572.349183,324.668962)">
                    <path d="M4035.665,11110.978C4035.665,11110.978 4196.834,11123.443 4195.502,11157.805C4194.17,11192.168 4176.854,11290.734 4176.854,11290.734C4176.854,11290.734 4183.514,11131.018 4035.665,11110.978Z" style="fill:rgb(172,131,97);"/>
                </g>
            </g>
        </g>
    </g>
</svg>
