<?xml version="1.0" encoding="UTF-8" standalone="no"?>
<!DOCTYPE svg PUBLIC "-//W3C//DTD SVG 1.1//EN" "http://www.w3.org/Graphics/SVG/1.1/DTD/svg11.dtd">
<svg width="100%" height="100%" viewBox="0 0 273 201" version="1.1" xmlns="http://www.w3.org/2000/svg" xmlns:xlink="http://www.w3.org/1999/xlink" xml:space="preserve" xmlns:serif="http://www.serif.com/" style="fill-rule:evenodd;clip-rule:evenodd;stroke-linecap:round;stroke-linejoin:round;stroke-miterlimit:1.5;">
    <g transform="matrix(1,0,0,1,-8090.18,-13440)">
        <g transform="matrix(0.190746,0,0,0.190746,7171.55,11603.5)">
            <path d="M5294.57,9872.08C5298.62,9863.48 5350.61,9754.6 5412.51,9701.29C5476.99,9645.77 5530.71,9650 5530.71,9650L5530.71,9650.01C5539.62,9649.81 5589.16,9651.14 5647.49,9701.37C5709.23,9754.53 5761.11,9862.99 5765.4,9872.09C5793.9,9868.43 5823.95,9862.79 5848.19,9858.01C5896.56,9848.47 5933.35,9849.84 5940.85,9876.41C5944.86,9890.62 5935.81,9932.7 5924.02,9974.6C5938.34,9979.09 6064.95,10017.2 6136.4,9989.11C6212.22,9959.26 6236.1,9939.56 6214.61,10016C6193.12,10092.4 6154.87,10206.6 6037.35,10249.6C5919.82,10292.5 5868.51,10289.8 5920.75,10381.2C5972.98,10472.6 6022.73,10459.6 6093.47,10480.1C6164.2,10500.6 6099.37,10547 6038.74,10584.3C5985.07,10617.4 5883.87,10708.9 5699.56,10621C5629.88,10645.7 5559.17,10642.6 5540,10642.6L5539.27,10642.6C5517.99,10642.6 5441.4,10645.7 5369.07,10616.7C5179.27,10711.7 5075.76,10617.8 5021.26,10584.3C4960.63,10546.9 4895.8,10500.5 4966.53,10480C5037.27,10459.5 5087.02,10472.6 5139.25,10381.1C5191.49,10289.7 5140.18,10292.4 5022.65,10249.5C4905.13,10206.6 4866.88,10092.3 4845.39,10015.9C4823.9,9939.48 4847.78,9959.18 4923.6,9989.03C4995.02,10017.2 5121.55,9979.04 5135.96,9974.54C5124.18,9932.65 5115.15,9890.61 5119.15,9876.41C5126.65,9849.84 5163.44,9848.47 5211.81,9858.01C5236.04,9862.79 5266.07,9868.42 5294.57,9872.08Z" style="stroke:black;stroke-width:43.69px;"/>
            <g>
                <path d="M5529.9,10543.6L5436.34,10577.3C5203.15,10733.5 5081.89,10621.6 5021.26,10584.3C4960.63,10546.9 4895.8,10500.5 4966.53,10480C5037.27,10459.5 5087.02,10472.6 5139.25,10381.1C5191.49,10289.7 5140.18,10292.4 5022.65,10249.5C4905.13,10206.6 4866.88,10092.3 4845.39,10015.9C4823.9,9939.48 4847.78,9959.18 4923.6,9989.03C4999.41,10018.9 5137.31,9974.11 5137.31,9974.11L5294.31,9872.62C5294.31,9872.62 5348.04,9756.81 5412.51,9701.29C5476.99,9645.77 5530.71,9650 5530.71,9650L5530.71,9650.01C5539.62,9649.81 5589.16,9651.14 5647.49,9701.37C5711.96,9756.89 5765.69,9872.7 5765.69,9872.7L5922.69,9974.18C5922.69,9974.18 6060.59,10019 6136.4,9989.11C6212.22,9959.26 6236.1,9939.56 6214.61,10016C6193.12,10092.4 6154.87,10206.6 6037.35,10249.6C5919.82,10292.5 5868.51,10289.8 5920.75,10381.2C5972.98,10472.6 6022.73,10459.6 6093.47,10480.1C6164.2,10500.6 6099.37,10547 6038.74,10584.3C5978.11,10621.6 5856.86,10733.6 5623.66,10577.3L5529.9,10543.6Z" style="fill:rgb(38,38,42);"/>
                <clipPath id="_clip1">
                    <path d="M5529.9,10543.6L5436.34,10577.3C5203.15,10733.5 5081.89,10621.6 5021.26,10584.3C4960.63,10546.9 4895.8,10500.5 4966.53,10480C5037.27,10459.5 5087.02,10472.6 5139.25,10381.1C5191.49,10289.7 5140.18,10292.4 5022.65,10249.5C4905.13,10206.6 4866.88,10092.3 4845.39,10015.9C4823.9,9939.48 4847.78,9959.18 4923.6,9989.03C4999.41,10018.9 5137.31,9974.11 5137.31,9974.11L5294.31,9872.62C5294.31,9872.62 5348.04,9756.81 5412.51,9701.29C5476.99,9645.77 5530.71,9650 5530.71,9650L5530.71,9650.01C5539.62,9649.81 5589.16,9651.14 5647.49,9701.37C5711.96,9756.89 5765.69,9872.7 5765.69,9872.7L5922.69,9974.18C5922.69,9974.18 6060.59,10019 6136.4,9989.11C6212.22,9959.26 6236.1,9939.56 6214.61,10016C6193.12,10092.4 6154.87,10206.6 6037.35,10249.6C5919.82,10292.5 5868.51,10289.8 5920.75,10381.2C5972.98,10472.6 6022.73,10459.6 6093.47,10480.1C6164.2,10500.6 6099.37,10547 6038.74,10584.3C5978.11,10621.6 5856.86,10733.6 5623.66,10577.3L5529.9,10543.6Z"/>
                </clipPath>
                <g clip-path="url(#_clip1)">
                    <g transform="matrix(1,0,0,1,-9.99999,2.12913)">
                        <path d="M5539.81,10179C5532.02,10169.6 5283.8,9865.46 5478.56,9600.17L5540,9617.23L5601.44,9600.17C5799.29,9869.66 5540,10179.2 5540,10179.2L5539.81,10179Z" style="fill:rgb(208,31,43);"/>
                    </g>
                    <g transform="matrix(1,0,0,1,-7.58486,4.2084)">
                        <path d="M4866.6,9951.96C4866.6,9951.96 4892.15,10031 4973.91,10026.9C5055.67,10022.8 5211.18,9956.9 5211.18,9956.9L4866.6,9951.96Z" style="fill:rgb(208,31,43);"/>
                    </g>
                    <g transform="matrix(1,0,0,1,-7.58486,4.2084)">
                        <path d="M4946.63,10468.5C4946.63,10468.5 5052.23,10525.1 5108.1,10412L4946.63,10468.5Z" style="fill:rgb(208,31,43);"/>
                    </g>
                    <g transform="matrix(1,0,0,1,-7.58486,4.2084)">
                        <path d="M5229.72,10274.5C5229.72,10274.5 5219.03,10224 5228.8,10198.9C5238.57,10173.8 5258.1,10172.7 5328.57,10246C5328.57,10246 5281.48,10172.4 5238.92,10150.7C5196.36,10129.1 5168.55,10112.9 5229.72,10274.5Z" style="fill:rgb(208,31,43);"/>
                    </g>
                    <g transform="matrix(-1,0,0,1,11067.6,4.2084)">
                        <path d="M4866.6,9951.96C4866.6,9951.96 4892.15,10031 4973.91,10026.9C5055.67,10022.8 5211.18,9956.9 5211.18,9956.9L4866.6,9951.96Z" style="fill:rgb(208,31,43);"/>
                    </g>
                    <g transform="matrix(-1,0,0,1,11067.6,4.2084)">
                        <path d="M4946.63,10468.5C4946.63,10468.5 5052.23,10525.1 5108.1,10412L4946.63,10468.5Z" style="fill:rgb(208,31,43);"/>
                    </g>
                    <g transform="matrix(-1,0,0,1,11067.6,4.2084)">
                        <path d="M5229.72,10274.5C5229.72,10274.5 5219.03,10224 5228.8,10198.9C5238.57,10173.8 5258.1,10172.7 5328.57,10246C5328.57,10246 5281.48,10172.4 5238.92,10150.7C5196.36,10129.1 5168.55,10112.9 5229.72,10274.5Z" style="fill:rgb(208,31,43);"/>
                    </g>
                </g>
                <g transform="matrix(1,0,0,1,1.19803,0)">
                    <path d="M5174.51,10118.3C5174.51,10118.3 5181.32,10103.3 5164.97,10065.1C5148.61,10027 5110.46,9902.98 5117.95,9876.41C5125.45,9849.84 5162.24,9848.47 5210.61,9858.01C5258.99,9867.55 5330.53,9880.5 5366.64,9874.36C5366.64,9874.36 5377.54,9945.22 5363.23,9998.37C5363.23,9998.37 5218.11,10002.5 5174.51,10118.3Z" style="fill:rgb(36,36,41);"/>
                    <clipPath id="_clip2">
                        <path d="M5174.51,10118.3C5174.51,10118.3 5181.32,10103.3 5164.97,10065.1C5148.61,10027 5110.46,9902.98 5117.95,9876.41C5125.45,9849.84 5162.24,9848.47 5210.61,9858.01C5258.99,9867.55 5330.53,9880.5 5366.64,9874.36C5366.64,9874.36 5377.54,9945.22 5363.23,9998.37C5363.23,9998.37 5218.11,10002.5 5174.51,10118.3Z"/>
                    </clipPath>
                    <g clip-path="url(#_clip2)">
                        <path d="M5169.74,9895.49C5169.74,9895.49 5147.17,9883.89 5142.98,9890.17C5138.8,9896.45 5149.26,9924.01 5153.45,9935.52C5157.64,9947.03 5182.05,10045.8 5206.12,10028C5230.19,10010.2 5231.59,9995.52 5259.5,9983.31C5287.4,9971.1 5294.03,9978.43 5268.22,9957.15C5242.4,9935.87 5202.77,9911.62 5169.74,9895.49Z" style="fill:rgb(148,97,2);"/>
                    </g>
                </g>
                <g transform="matrix(-1,0,0,1,11058.8,0)">
                    <path d="M5174.51,10118.3C5174.51,10118.3 5181.32,10103.3 5164.97,10065.1C5148.61,10027 5110.46,9902.98 5117.95,9876.41C5125.45,9849.84 5162.24,9848.47 5210.61,9858.01C5258.99,9867.55 5330.53,9880.5 5366.64,9874.36C5366.64,9874.36 5377.54,9945.22 5363.23,9998.37C5363.23,9998.37 5218.11,10002.5 5174.51,10118.3Z" style="fill:rgb(36,36,41);"/>
                    <clipPath id="_clip3">
                        <path d="M5174.51,10118.3C5174.51,10118.3 5181.32,10103.3 5164.97,10065.1C5148.61,10027 5110.46,9902.98 5117.95,9876.41C5125.45,9849.84 5162.24,9848.47 5210.61,9858.01C5258.99,9867.55 5330.53,9880.5 5366.64,9874.36C5366.64,9874.36 5377.54,9945.22 5363.23,9998.37C5363.23,9998.37 5218.11,10002.5 5174.51,10118.3Z"/>
                    </clipPath>
                    <g clip-path="url(#_clip3)">
                        <path d="M5169.74,9895.49C5169.74,9895.49 5147.17,9883.89 5142.98,9890.17C5138.8,9896.45 5149.26,9924.01 5153.45,9935.52C5157.64,9947.03 5182.05,10045.8 5206.12,10028C5230.19,10010.2 5231.59,9995.52 5259.5,9983.31C5287.4,9971.1 5294.03,9978.43 5268.22,9957.15C5242.4,9935.87 5202.77,9911.62 5169.74,9895.49Z" style="fill:rgb(148,97,2);"/>
                    </g>
                </g>
                <g transform="matrix(1,0,0,1,-21.0387,4.96593)">
                    <path d="M5560.31,10637.6C5528.61,10637.7 5374.13,10644.5 5293.83,10542C5212.9,10438.8 5356.62,10489 5404.06,10500.2C5451.5,10511.3 5480.81,10507.8 5504.53,10496.7C5528.1,10485.6 5593.83,10485.5 5617.55,10496.7C5641.27,10507.8 5670.57,10511.3 5718.02,10500.2C5765.46,10489 5909.18,10438.8 5828.25,10542C5747.32,10645.3 5591.04,10637.6 5561.04,10637.6L5560.31,10637.6Z" style="fill:rgb(179,118,2);"/>
                </g>
                <g transform="matrix(1,0,0,1,-21.0387,4.96593)">
                    <ellipse cx="5562.61" cy="10527.2" rx="40.045" ry="40.935" style="fill:rgb(28,28,28);"/>
                </g>
            </g>
        </g>
    </g>
</svg>
