<?xml version="1.0" encoding="UTF-8" standalone="no"?>
<!DOCTYPE svg PUBLIC "-//W3C//DTD SVG 1.1//EN" "http://www.w3.org/Graphics/SVG/1.1/DTD/svg11.dtd">
<svg width="100%" height="100%" viewBox="0 0 163 220" version="1.1" xmlns="http://www.w3.org/2000/svg" xmlns:xlink="http://www.w3.org/1999/xlink" xml:space="preserve" xmlns:serif="http://www.serif.com/" style="fill-rule:evenodd;clip-rule:evenodd;stroke-linecap:round;stroke-linejoin:round;stroke-miterlimit:1.5;">
    <g transform="matrix(1,0,0,1,-916.71423,-13341.979946)">
        <g transform="matrix(1.066732,0,0,1.066732,-1545.368823,3727.346792)">
            <g transform="matrix(5.15324,0,0,5.15324,-15661.114508,-57946.704061)">
                <path d="M3493.127,13025.025C3492.034,13024.246 3486.629,13019.992 3487.923,13012.911C3487.923,13012.911 3488.008,13012.722 3488.18,13012.468C3488.296,13010.264 3489.47,12998.481 3501.268,12998.503C3501.469,12997.172 3501.633,12995.837 3501.775,12994.499C3501.877,12995.84 3502.005,12997.176 3502.177,12998.503C3514.044,12998.42 3515.222,13010.259 3515.338,13012.468C3515.51,13012.722 3515.595,13012.911 3515.595,13012.911C3516.889,13019.992 3511.484,13024.246 3510.391,13025.025C3505.887,13033.392 3502.048,13033.017 3501.759,13032.975C3501.47,13033.017 3497.631,13033.392 3493.127,13025.025Z" style="stroke:black;stroke-width:1.52px;"/>
            </g>
            <g>
                <g transform="matrix(5.15324,0,0,5.15324,-15661.114508,-57946.704061)">
                    <path d="M3492.869,13011.153L3510.649,13011.153L3512.789,13018.403L3511.063,13023.72C3506.275,13033.43 3502.063,13033.019 3501.759,13032.975C3501.456,13033.019 3497.243,13033.43 3492.455,13023.72L3490.729,13018.403L3492.869,13011.153Z" style="fill:rgb(242,190,144);"/>
                </g>
                <g transform="matrix(4.740082,0,0,4.282948,-14213.371196,-46596.891558)">
                    <path d="M3494.191,13017.082C3494.191,13017.082 3484.9,13013.392 3486.779,13007.017C3486.779,13007.017 3486.874,12989.329 3501.556,12989.799L3501.641,12989.797C3516.237,12989.381 3516.332,13007.017 3516.332,13007.017C3518.211,13013.392 3510.186,13017.082 3510.186,13017.082L3501.556,13015.556L3494.191,13017.082Z" style="fill:rgb(156,162,173);"/>
                </g>
                <g transform="matrix(0.213448,-0.021323,0.021323,0.213448,1997.056002,7337.334479)">
                    <path d="M947.839,8672.244C947.839,8672.244 886.076,8660.608 816.257,8613.166C816.257,8613.166 770.606,8660.608 742.857,8683.881C742.857,8683.881 590.016,8562.928 643.163,8378.31C643.163,8378.31 691.545,8294.589 763.999,8380.52C836.453,8466.451 865.992,8488.829 964.455,8504.046C964.455,8504.046 964.664,8504.076 964.825,8504.083C1064.353,8508.645 1097.735,8492.553 1185.756,8422.653C1273.778,8352.753 1304.641,8444.391 1304.641,8444.391C1320.216,8635.874 1146.468,8724.201 1146.468,8724.201C1123.872,8695.899 1088.508,8640.364 1088.508,8640.364C1010.684,8673.056 947.839,8672.244 947.839,8672.244Z" style="fill:rgb(63,63,62);"/>
                </g>
                <g transform="matrix(1,0,0,1,4.810282,0)">
                    <path d="M2379.561,9017.069C2381.629,9044.218 2385.748,9070.958 2397.607,9096.15C2385.577,9100.869 2373.546,9100.035 2361.516,9096.15C2372.191,9070.372 2376.718,9043.825 2379.561,9017.069Z" style="fill:rgb(142,148,160);"/>
                </g>
            </g>
        </g>
    </g>
</svg>
