<?xml version="1.0" encoding="UTF-8" standalone="no"?>
<!DOCTYPE svg PUBLIC "-//W3C//DTD SVG 1.1//EN" "http://www.w3.org/Graphics/SVG/1.1/DTD/svg11.dtd">
<svg width="100%" height="100%" viewBox="0 0 233 232" version="1.1" xmlns="http://www.w3.org/2000/svg" xmlns:xlink="http://www.w3.org/1999/xlink" xml:space="preserve" xmlns:serif="http://www.serif.com/" style="fill-rule:evenodd;clip-rule:evenodd;stroke-linecap:round;stroke-linejoin:round;stroke-miterlimit:1.5;">
    <g transform="matrix(1,0,0,1,-8110.23,-13615.4)">
        <g transform="matrix(0.273872,0,0,0.273872,5735.94,13382.1)">
            <path d="M9021.35,1023.06C8974.47,943.848 8894.46,869.457 8894.46,869.457C8978.98,861.182 9049.04,875.098 9049.04,875.098C9081.99,930.553 9093.15,1040.63 9095.53,1068.87C9096.49,1068.87 9097.45,1068.88 9098.42,1068.91C9109.56,1007.15 9085.59,930.387 9085.59,930.387C9112.01,987.93 9115.21,1053.19 9115.59,1070.94C9121.09,1072.09 9126.79,1073.76 9132.67,1076.04C9138.03,1059.63 9151.09,1005.97 9133.66,909.444C9133.66,909.444 9208.72,984.057 9225.17,1040.01C9225.17,1040.01 9216.79,1100.42 9137.53,1149.57L9137.46,1150.85C9137.44,1151.33 9137.42,1151.82 9137.39,1152.31L9137.38,1152.58C9156.15,1142.84 9200.92,1118.27 9232.96,1089.94L9199.56,1126.42C9199.56,1126.42 9164.77,1148.36 9137.11,1158.35C9137.05,1159.69 9137,1161.03 9136.94,1162.36L9137.65,1162.82C9137.89,1162.98 9138.14,1163.15 9138.38,1163.31L9138.66,1163.49C9167.44,1145.57 9202.7,1130.33 9231.47,1119.36L9263.89,1041.56L9268.35,1106.24C9279.07,1102.69 9285.61,1100.77 9285.61,1100.77L9276.31,1125.15C9288.65,1132.22 9302.81,1140.28 9316.68,1148.04C9316.68,1148.04 9302.05,1176.98 9286.91,1203.04C9295.79,1207.32 9303.98,1212.38 9311.21,1218.2C9314.36,1220.73 9317.33,1223.41 9320.11,1226.24C9342.57,1205.28 9369.44,1180 9380.17,1169.11L9443.66,1238.01C9443.66,1238.01 9396.62,1262.77 9349.98,1286.37C9351.23,1293.66 9351.92,1301.23 9352.03,1309.04C9355.84,1308.06 9359.94,1306.95 9364.37,1305.71C9412.67,1292.17 9502.33,1259.98 9502.33,1259.98L9479.16,1351.15C9479.16,1351.15 9423.42,1366.02 9352.44,1360.02L9395.37,1386.17C9417.2,1388.24 9442.13,1388.94 9470.02,1387.25L9450.46,1419.73L9473.12,1433.54L9443.75,1430.88L9423.08,1465.18C9423.08,1465.18 9379.82,1462.97 9317.47,1426.98L9317.43,1427.06L9378.68,1488.39C9385.48,1492.19 9392.55,1496 9399.88,1499.79L9394.27,1504L9419.6,1529.36L9376.79,1517.15L9316.68,1562.37C9316.68,1562.37 9297.41,1541.7 9276.01,1517.5L9337.13,1610.86L9278.34,1579.22L9211.67,1604.2L9239.32,1681.03L9130.94,1592.3C9130.94,1592.3 9130.9,1592.15 9130.83,1591.87C9118.17,1599.32 9105.62,1606.36 9093.44,1612.9C9081.25,1606.36 9068.7,1599.32 9056.04,1591.87C9055.98,1592.15 9055.94,1592.3 9055.94,1592.3L8947.56,1681.03L8974.19,1607.04L8919.27,1573.44L8849.74,1610.86L8917.49,1507.39C8890.89,1538.77 8866.39,1565.34 8866.39,1565.34L8803.46,1519.04L8767.28,1529.36L8788.54,1508.07L8781.01,1502.53C8790.26,1498.23 8799.3,1493.49 8808.13,1488.39L8808.27,1488.31L8866.05,1430.46C8838.36,1445.37 8800.45,1461.74 8758.75,1468.25L8737.92,1431.35L8713.76,1433.54L8732.66,1422.03L8714.84,1390.45C8714.84,1390.45 8744.29,1393.25 8787.94,1388.34L8822.23,1367.45C8767.06,1371.44 8708.38,1362.87 8708.38,1362.87L8684.55,1263.46C8750.04,1289.86 8800.13,1303.03 8834.84,1309.56C8834.92,1302.87 8835.41,1296.35 8836.32,1290.04C8784.93,1272.22 8730.91,1247.2 8730.91,1247.2L8784.7,1164.08C8818.01,1195.21 8843.2,1216.64 8862.01,1231.39C8866.11,1226.64 8870.65,1222.23 8875.66,1218.2C8879.77,1214.89 8884.18,1211.84 8888.86,1209.03C8873.02,1186.92 8861.76,1166.54 8861.76,1166.54L8917.78,1117.04L8920.25,1081.24C8888.29,1074.94 8860.06,1072.44 8860.06,1072.44C8881.12,1056.49 8968.98,1010.47 8968.98,1010.47C9007.2,1035.32 9028.29,1076.09 9034.95,1090.76C9035.65,1090.19 9036.42,1089.6 9037.23,1088.98C9034.92,1077.12 9025.02,1036.4 8992.01,992.123C8992.01,992.123 9005.11,1002.29 9021.35,1023.06ZM9210.17,1170.48C9189.44,1173.74 9169.39,1178.05 9161.52,1179.8C9164.48,1182.06 9167.43,1184.39 9170.35,1186.77C9181.44,1185.34 9192.8,1184.73 9204.15,1184.93L9210.17,1170.48ZM8973.59,1163L8982.73,1184.93C8990.45,1184.79 8998.19,1185.03 9005.83,1185.65C9009.68,1182.7 9013.59,1179.67 9017.5,1176.58C9011.12,1168.73 8992.88,1164.85 8973.59,1163ZM8941.48,1085.93L8951.35,1109.62C8997.52,1122.88 9021.04,1142.85 9021.04,1142.85C9010.21,1114.56 8966.58,1103.13 8966.58,1103.13C8991.25,1104.63 9003.89,1113.96 9003.89,1113.96C8992.64,1101.51 8967.58,1092.4 8941.48,1085.93Z" style="stroke:black;stroke-width:30.43px;"/>
            <g>
                <g transform="matrix(0.921228,0,0,0.921228,1597,215.209)">
                    <path d="M8207.57,1047.92C8207.57,1047.92 8289.55,1028.9 8318.62,1033.14L8346.05,961.287C8346.05,961.287 8245.78,990.683 8181.11,1032.82L8207.57,1047.92Z" style="fill:rgb(100,24,21);"/>
                </g>
                <g transform="matrix(0.921228,0,0,0.921228,1597,215.209)">
                    <path d="M8175.56,1022.37C8175.56,1022.37 8243.82,989.376 8288.9,949.528L8252.64,989.131C8252.64,989.131 8202.99,1020.43 8172.29,1027.6L8175.56,1022.37Z" style="fill:rgb(100,24,21);"/>
                </g>
                <g transform="matrix(0.921228,0,0,0.921228,1597,215.209)">
                    <path d="M8177.84,940.383C8177.84,940.383 8204.26,881.845 8181.11,753.597C8181.11,753.597 8262.58,834.59 8280.44,895.321C8280.44,895.321 8269.73,972.588 8161.53,1027.6L8177.84,940.383Z" style="fill:rgb(100,24,21);"/>
                </g>
                <g transform="matrix(0.921228,0,0,0.921228,1597,215.209)">
                    <path d="M8161.53,933.958C8161.53,933.958 8162.49,849.412 8128.93,776.331C8128.93,776.331 8156.21,863.702 8141.92,931.476L8161.53,933.958Z" style="fill:rgb(100,24,21);"/>
                </g>
                <g transform="matrix(0.921228,0,0,0.921228,1597,215.209)">
                    <path d="M8140.29,933.958C8140.29,933.958 8130.49,785.721 8089.25,716.314C8089.25,716.314 8013.2,701.208 7921.45,710.19C7921.45,710.19 8064.46,843.159 8091,949.528L8140.29,933.958Z" style="fill:rgb(100,24,21);"/>
                </g>
                <g transform="matrix(0.921228,0,0,0.921228,1597,215.209)">
                    <path d="M8077.09,952.254C8077.09,952.254 8069.99,900.538 8027.34,843.346C8027.34,843.346 8068.98,875.648 8098.05,942.618L8077.09,952.254Z" style="fill:rgb(100,24,21);"/>
                </g>
                <g transform="matrix(0.921228,0,0,0.921228,1597,215.209)">
                    <path d="M8076.49,956.349C8076.49,956.349 8053.63,896.598 8002.35,863.262C8002.35,863.262 7906.98,913.215 7884.11,930.526C7884.11,930.526 8009.53,941.631 8040.24,975.6C8040.24,975.6 8026.52,965.474 7999.74,963.841C7999.74,963.841 8047.1,976.253 8058.85,1006.96C8058.85,1006.96 8024.22,977.559 7956.45,964.494L7944.86,1027.6C7944.86,1027.6 8054.61,1021.98 8057.55,1049.42L8132.67,1021.33L8076.49,956.349Z" style="fill:rgb(100,24,21);"/>
                </g>
                <g transform="matrix(0.921228,0,0,0.921228,1597,215.209)">
                    <path d="M7977.79,1099.77C7977.79,1099.77 8074.14,1035.67 8115.38,989.131C8115.38,989.131 8223.16,1037.72 8270.93,1106.71L7977.79,1099.77Z" style="fill:rgb(49,18,0);"/>
                </g>
                <g transform="matrix(0.921228,0,0,0.921228,1597,215.209)">
                    <path d="M8092.35,1087.39C8092.35,1087.39 8086.47,988.429 8067.2,956.42C8067.2,956.42 8117.5,903.181 8190.66,939.109C8190.66,939.109 8179.88,1056.04 8185.76,1087.39L8143.3,1128.55L8092.35,1087.39Z" style="fill:rgb(188,79,36);"/>
                </g>
                <g transform="matrix(0.921228,0,0,0.921228,1597,215.209)">
                    <path d="M8295.83,964.586C8295.83,964.586 8338.95,989.736 8379.77,1012.6C8379.77,1012.6 8335.68,1099.81 8318.37,1114.51L8247.82,1082.17L8295.83,964.586Z" style="fill:rgb(188,79,36);"/>
                </g>
                <g transform="matrix(0.921228,0,0,0.921228,1597,215.209)">
                    <path d="M8345.48,1132.8C8345.48,1132.8 8427.14,1057.35 8448.69,1035.46L8517.61,1110.26C8517.61,1110.26 8424.52,1159.25 8365.08,1188L8345.48,1132.8Z" style="fill:rgb(188,79,36);"/>
                </g>
                <g transform="matrix(0.921228,0,0,0.921228,1597,215.209)">
                    <path d="M8368.02,1195.51C8368.02,1195.51 8379.12,1198.45 8431.55,1183.75C8483.97,1169.05 8581.3,1134.1 8581.3,1134.1L8556.15,1233.07C8556.15,1233.07 8461.88,1258.22 8358.87,1233.07L8368.02,1195.51Z" style="fill:rgb(188,79,36);"/>
                </g>
                <g transform="matrix(0.921228,0,0,0.921228,1597,215.209)">
                    <path d="M8345.48,1240.25C8345.48,1240.25 8416.23,1280.1 8546.23,1272.26L8495.27,1356.86C8495.27,1356.86 8425.22,1353.27 8332.94,1283.69L8345.48,1240.25Z" style="fill:rgb(188,79,36);"/>
                </g>
                <g transform="matrix(0.921228,0,0,0.921228,1597,215.209)">
                    <path d="M8326.56,1298.56C8326.56,1298.56 8379.75,1347.71 8470.09,1394.42L8379.77,1462.36C8379.77,1462.36 8285.08,1360.78 8274.96,1336.93L8326.56,1298.56Z" style="fill:rgb(188,79,36);"/>
                </g>
                <g transform="matrix(0.921228,0,0,0.921228,1597,215.209)">
                    <path d="M8262.37,1356.86C8262.37,1356.86 8300.75,1435.33 8350.15,1476.16L8231.34,1520.66L8198.27,1372.45L8262.37,1356.86Z" style="fill:rgb(188,79,36);"/>
                </g>
                <g transform="matrix(0.921228,0,0,0.921228,1597,215.209)">
                    <path d="M7966.69,961.338L7885.95,1032.67C7885.95,1032.67 7926.98,1106.88 7964.34,1130.92L8037.5,1090.16C8037.5,1090.16 7970.61,978.144 7966.69,961.338Z" style="fill:rgb(188,79,36);"/>
                </g>
                <g transform="matrix(0.921228,0,0,0.921228,1597,215.209)">
                    <path d="M7802.3,1030.01L7743.92,1120.24C7743.92,1120.24 7877.02,1181.89 7932.95,1185.56L7940.71,1138.2C7940.71,1138.2 7912.13,1132.64 7802.3,1030.01Z" style="fill:rgb(188,79,36);"/>
                </g>
                <g transform="matrix(0.921228,0,0,0.921228,1597,215.209)">
                    <path d="M7693.59,1137.88L7719.46,1245.8C7719.46,1245.8 7870.52,1267.85 7926.05,1228.24L7920.74,1194.76C7920.74,1194.76 7845.22,1199.01 7693.59,1137.88Z" style="fill:rgb(188,79,36);"/>
                </g>
                <g transform="matrix(0.921228,0,0,0.921228,1597,215.209)">
                    <path d="M7774.13,1360.19L7726.47,1275.74C7726.47,1275.74 7821.07,1284.71 7926.05,1244.69L7940.71,1287.56C7940.71,1287.56 7865.91,1345.85 7774.13,1360.19Z" style="fill:rgb(188,79,36);"/>
                </g>
                <g transform="matrix(0.921228,0,0,0.921228,1597,215.209)">
                    <path d="M7798.3,1397.39L7890.98,1465.57C7890.98,1465.57 7977.94,1371.26 8008.16,1322.27L7940.71,1294.91C7940.71,1294.91 7875.06,1361.87 7798.3,1397.39Z" style="fill:rgb(188,79,36);"/>
                </g>
                <g transform="matrix(0.921228,0,0,0.921228,1597,215.209)">
                    <path d="M8014.89,1376.61C8014.89,1376.61 7973.7,1442.63 7940.71,1469.68L8026.63,1522.25C8026.63,1522.25 8058.78,1451.31 8074.09,1392.11L8014.89,1376.61Z" style="fill:rgb(188,79,36);"/>
                </g>
                <g transform="matrix(1,0,0,1,271.803,234.678)">
                    <path d="M8821.63,980.283C8876.08,939.665 8984.97,939.665 9039.41,983.521C9093.85,1027.38 9093.85,1115.09 9039.41,1202.8C9001.3,1268.58 8903.3,1334.37 8821.63,1378.22C8739.97,1334.37 8641.97,1268.58 8603.86,1202.8C8549.42,1115.09 8549.42,1027.38 8603.86,983.521C8658.3,939.665 8767.19,939.665 8821.63,980.283Z" style="fill:rgb(31,25,75);"/>
                    <clipPath id="_clip1">
                        <path d="M8821.63,980.283C8876.08,939.665 8984.97,939.665 9039.41,983.521C9093.85,1027.38 9093.85,1115.09 9039.41,1202.8C9001.3,1268.58 8903.3,1334.37 8821.63,1378.22C8739.97,1334.37 8641.97,1268.58 8603.86,1202.8C8549.42,1115.09 8549.42,1027.38 8603.86,983.521C8658.3,939.665 8767.19,939.665 8821.63,980.283Z"/>
                    </clipPath>
                    <g clip-path="url(#_clip1)">
                        <g transform="matrix(1,0,0,1,-729.606,447.459)">
                            <path d="M9551.24,722.149C9554.84,721.872 9566.91,719.652 9567.57,702.355C9568.34,682.019 9567.85,651.237 9574.32,632.529C9580.79,613.82 9590.34,600.243 9609.11,591.566C9627.88,582.888 9653.12,577.066 9678.71,584.968C9704.29,592.871 9707.16,589.825 9714.32,587.783C9721.48,585.74 9738.22,584.183 9736.73,598.924C9735.25,613.665 9731.74,623.653 9739.28,642.04C9746.83,660.427 9744.36,701.606 9728.34,730.322C9712.32,759.037 9672.64,771.338 9643.33,773.334C9614.03,775.329 9589.63,778.014 9606.77,818.16C9623.91,858.306 9623.64,850.822 9634.8,849.739C9645.97,848.656 9660.55,873.733 9660.55,873.733L9551.44,935.408L9441.94,873.733C9441.94,873.733 9456.51,848.656 9467.68,849.739C9478.84,850.822 9478.57,858.306 9495.71,818.16C9512.86,778.014 9488.45,775.329 9459.15,773.334C9429.85,771.338 9390.17,759.037 9374.14,730.322C9358.12,701.606 9355.66,660.427 9363.2,642.04C9370.74,623.653 9367.24,613.665 9365.75,598.924C9364.26,584.183 9381,585.74 9388.16,587.783C9395.32,589.825 9398.19,592.871 9423.77,584.968C9449.36,577.066 9474.6,582.888 9493.37,591.566C9512.14,600.243 9521.69,613.82 9528.16,632.529C9534.63,651.237 9534.14,682.019 9534.92,702.355C9535.58,719.652 9547.65,721.872 9551.24,722.149Z" style="fill:rgb(194,38,40);stroke:rgb(22,22,22);stroke-width:8.33px;"/>
                        </g>
                        <g transform="matrix(0.99802,0.0629043,-0.0629043,0.99802,99.6751,-534.022)">
                            <path d="M8898.25,1159.55C8898.25,1159.55 8931.53,1159.25 8948.57,1143.1C8965.61,1126.95 8972.43,1106.89 8968.54,1081.66C8964.66,1056.43 8958.34,1064.05 8961.48,1039.53C8961.48,1039.53 8953.35,1044.26 8940.15,1042.81C8926.94,1041.36 8903.17,1029.78 8878.04,1047.93C8852.9,1066.09 8853.5,1088.24 8854.86,1104.51C8856.23,1120.78 8863.4,1138.04 8861.76,1147.57C8860.11,1157.09 8859.87,1165.88 8859.87,1165.88C8859.87,1165.88 8863.88,1159.56 8898.25,1159.55Z" style="fill:rgb(176,64,0);stroke:rgb(22,22,22);stroke-width:8.33px;"/>
                        </g>
                        <g transform="matrix(-0.99802,0.0629043,0.0629043,0.99802,17543.6,-534.022)">
                            <path d="M8898.25,1159.55C8898.25,1159.55 8931.53,1159.25 8948.57,1143.1C8965.61,1126.95 8972.43,1106.89 8968.54,1081.66C8964.66,1056.43 8958.34,1064.05 8961.48,1039.53C8961.48,1039.53 8953.35,1044.26 8940.15,1042.81C8926.94,1041.36 8903.17,1029.78 8878.04,1047.93C8852.9,1066.09 8853.5,1088.24 8854.86,1104.51C8856.23,1120.78 8863.4,1138.04 8861.76,1147.57C8860.11,1157.09 8859.87,1165.88 8859.87,1165.88C8859.87,1165.88 8863.88,1159.56 8898.25,1159.55Z" style="fill:rgb(176,64,0);stroke:rgb(22,22,22);stroke-width:8.33px;"/>
                        </g>
                        <g transform="matrix(1,0,0,1,-996.158,-226.595)">
                            <path d="M9817.79,1433.97C9817.89,1434.02 9828.3,1439.41 9836.64,1448.53C9845.03,1457.7 9843.79,1458.18 9845.12,1470.85C9846.44,1483.53 9848.45,1504.78 9856.31,1514.69C9864.18,1524.59 9871.62,1536.67 9877.25,1575.49L9817.79,1624.82L9758.34,1575.49C9763.97,1536.67 9771.41,1524.59 9779.27,1514.68C9787.14,1504.78 9789.14,1483.53 9790.47,1470.85C9791.8,1458.18 9790.56,1457.7 9798.94,1448.53C9807.33,1439.36 9817.79,1433.97 9817.79,1433.97Z" style="fill:rgb(194,38,40);stroke:white;stroke-width:8.33px;"/>
                        </g>
                        <g transform="matrix(1.26117,0,0,1.26117,-3649.14,-386.437)">
                            <path d="M9888.28,1221.44C9884.09,1218.2 9882.7,1210.67 9882.7,1210.67C9882.7,1210.67 9882.42,1179.07 9882.31,1164.3C9882.2,1149.53 9879.87,1144.31 9875.74,1137.51C9871.61,1130.71 9855.63,1116.75 9851.81,1113.61C9847.99,1110.46 9841.73,1108.48 9843.95,1105.97C9846.18,1103.46 9854.14,1110.32 9866.39,1114.2C9878.64,1118.09 9858.95,1095.95 9854.14,1086.07C9849.32,1076.19 9855.11,1062.87 9855.11,1062.87L9888.28,1051.76L9921.45,1062.87C9921.45,1062.87 9927.24,1076.19 9922.42,1086.07C9917.61,1095.95 9897.92,1118.09 9910.17,1114.2C9922.42,1110.32 9930.38,1103.46 9932.6,1105.97C9934.83,1108.48 9928.57,1110.46 9924.75,1113.61C9920.93,1116.75 9904.94,1130.71 9900.82,1137.51C9896.69,1144.31 9894.35,1149.53 9894.25,1164.3C9894.14,1179.07 9893.86,1210.67 9893.86,1210.67C9893.86,1210.67 9892.47,1218.2 9888.28,1221.44Z" style="fill:rgb(31,25,75);stroke:white;stroke-width:6.61px;"/>
                        </g>
                        <g transform="matrix(0.99877,0.0495892,-0.0495892,0.99877,105.965,-442.917)">
                            <path d="M8833.71,946.03C8833.71,946.03 8842.86,971.69 8843.02,987.075C8843.02,987.075 8861.6,971.443 8904.57,974.45C8949.89,977.623 9001.89,1016.01 9001.89,1016.01L9026.08,999.551L8983.3,941.607L8833.71,946.03Z" style="fill:rgb(250,150,55);stroke:rgb(22,22,22);stroke-width:8.33px;"/>
                        </g>
                        <g transform="matrix(-0.99877,0.0495892,0.0495892,0.99877,17537.3,-442.917)">
                            <path d="M8833.71,946.03C8833.71,946.03 8842.86,971.69 8843.02,987.075C8843.02,987.075 8861.56,972.006 8904.57,974.45C8947.81,976.909 9001.89,1016.01 9001.89,1016.01L9026.08,999.551L8983.3,941.607L8833.71,946.03Z" style="fill:rgb(250,150,55);stroke:rgb(22,22,22);stroke-width:8.33px;"/>
                        </g>
                        <g transform="matrix(0.988436,0.15164,-0.15164,0.988436,308.57,-1320.38)">
                            <path d="M9022.82,1199.79C9022.82,1199.79 8985.17,1206.89 8941.49,1219.55C8897.8,1232.2 8876.57,1239.96 8974.15,1284.87L9022.82,1199.79Z" style="fill:rgb(150,196,136);stroke:rgb(22,22,22);stroke-width:8.33px;"/>
                        </g>
                        <g transform="matrix(1,0,0,1,9.98915,22.562)">
                            <path d="M8919.76,1267.66C8919.76,1267.66 8903.68,1259.06 8890.45,1237.1C8876.48,1213.9 8910.13,1211.32 8930.95,1207.24C8951.77,1203.15 8996.52,1183.72 9003.05,1167.19C9009.59,1150.65 9027.14,1110.88 9096.14,1121.9" style="fill:none;stroke:white;stroke-width:8.33px;"/>
                        </g>
                        <g transform="matrix(-0.988436,0.15164,0.15164,0.988436,17334.7,-1320.38)">
                            <path d="M9022.82,1199.79C9022.82,1199.79 8985.17,1206.89 8941.49,1219.55C8897.8,1232.2 8876.57,1239.96 8974.15,1284.87L9022.82,1199.79Z" style="fill:rgb(150,196,136);stroke:rgb(22,22,22);stroke-width:8.33px;"/>
                        </g>
                        <g transform="matrix(-1,0,0,1,17633.3,22.562)">
                            <path d="M8919.76,1267.66C8919.76,1267.66 8903.68,1259.06 8890.45,1237.1C8876.48,1213.9 8910.13,1211.32 8930.95,1207.24C8951.77,1203.15 8996.52,1183.72 9003.05,1167.19C9009.59,1150.65 9027.14,1110.88 9096.14,1121.9" style="fill:none;stroke:white;stroke-width:8.33px;"/>
                        </g>
                        <g transform="matrix(0.973093,0.230413,-0.230413,0.973093,515.449,-2009.65)">
                            <path d="M8863.87,986.94C8863.87,986.94 8874.3,978.549 8882.47,982.402C8890.64,986.255 8908.36,993.633 8896.46,996.965C8884.56,1000.3 8873.34,1000.47 8868.2,1002.1C8863.07,1003.72 8854.59,1006.72 8853.65,1002.61C8852.7,998.499 8856.8,991.991 8863.87,986.94Z" style="fill:rgb(250,150,55);"/>
                            <clipPath id="_clip2">
                                <path d="M8863.87,986.94C8863.87,986.94 8874.3,978.549 8882.47,982.402C8890.64,986.255 8908.36,993.633 8896.46,996.965C8884.56,1000.3 8873.34,1000.47 8868.2,1002.1C8863.07,1003.72 8854.59,1006.72 8853.65,1002.61C8852.7,998.499 8856.8,991.991 8863.87,986.94Z"/>
                            </clipPath>
                            <g clip-path="url(#_clip2)">
                                <path d="M8868.5,990.66C8868.5,990.66 8874.32,986.294 8878.6,988.777C8882.88,991.26 8884.59,993.058 8878.52,994.085C8872.44,995.113 8867.3,996.568 8867.3,996.568C8867.3,996.568 8862.42,998.195 8864.3,994.856C8866.19,991.517 8868.5,990.66 8868.5,990.66Z" style="fill:rgb(31,25,75);"/>
                            </g>
                        </g>
                        <g transform="matrix(0.973093,0.230413,-0.230413,0.973093,515.449,-2009.65)">
                            <path d="M8908.63,970.372C8908.63,970.372 8901.09,971.605 8897.33,973.249C8893.56,974.893 8889.52,978.181 8895.41,982.77C8901.3,987.359 8914.18,999.944 8920.89,993.035C8927.6,986.126 8939.04,979.071 8930.68,974.482C8922.33,969.892 8918.63,969.207 8908.63,970.372Z" style="fill:rgb(250,150,55);"/>
                            <clipPath id="_clip3">
                                <path d="M8908.63,970.372C8908.63,970.372 8901.09,971.605 8897.33,973.249C8893.56,974.893 8889.52,978.181 8895.41,982.77C8901.3,987.359 8914.18,999.944 8920.89,993.035C8927.6,986.126 8939.04,979.071 8930.68,974.482C8922.33,969.892 8918.63,969.207 8908.63,970.372Z"/>
                            </clipPath>
                            <g clip-path="url(#_clip3)">
                                <path d="M8920.15,982.263C8920.15,982.263 8916.75,989.113 8911.98,984.729C8907.22,980.345 8905.74,979.085 8909.19,977.002C8912.64,974.92 8915.98,974.591 8919.49,976.509C8923,978.427 8922.4,978.811 8920.15,982.263Z" style="fill:rgb(31,25,75);"/>
                            </g>
                        </g>
                        <g transform="matrix(0.973093,0.230413,-0.230413,0.973093,515.449,-2009.65)">
                            <path d="M8954.35,979.846C8954.35,979.846 8962.07,984.888 8965.18,989.359C8968.29,993.831 8971.8,998.697 8964.21,998.829C8956.63,998.96 8943.08,1000.54 8937.82,997.513C8932.56,994.489 8931.99,992.016 8935.9,986.194C8939.8,980.373 8943.13,970.334 8954.35,979.846Z" style="fill:rgb(250,150,55);"/>
                            <clipPath id="_clip4">
                                <path d="M8954.35,979.846C8954.35,979.846 8962.07,984.888 8965.18,989.359C8968.29,993.831 8971.8,998.697 8964.21,998.829C8956.63,998.96 8943.08,1000.54 8937.82,997.513C8932.56,994.489 8931.99,992.016 8935.9,986.194C8939.8,980.373 8943.13,970.334 8954.35,979.846Z"/>
                            </clipPath>
                            <g clip-path="url(#_clip4)">
                                <path d="M8945.67,986.992C8945.67,986.992 8948.83,981.381 8952.25,984.406C8955.67,987.431 8962.24,993.261 8956.5,993.524C8950.76,993.787 8939.36,995.76 8945.67,986.992Z" style="fill:rgb(31,25,75);"/>
                            </g>
                        </g>
                        <g transform="matrix(-0.973093,0.230413,0.230413,0.973093,17127.8,-2009.65)">
                            <path d="M8863.87,986.94C8863.87,986.94 8874.3,978.549 8882.47,982.402C8890.64,986.255 8908.36,993.633 8896.46,996.965C8884.56,1000.3 8873.34,1000.47 8868.2,1002.1C8863.07,1003.72 8854.59,1006.72 8853.65,1002.61C8852.7,998.499 8856.8,991.991 8863.87,986.94Z" style="fill:rgb(250,150,55);"/>
                            <clipPath id="_clip5">
                                <path d="M8863.87,986.94C8863.87,986.94 8874.3,978.549 8882.47,982.402C8890.64,986.255 8908.36,993.633 8896.46,996.965C8884.56,1000.3 8873.34,1000.47 8868.2,1002.1C8863.07,1003.72 8854.59,1006.72 8853.65,1002.61C8852.7,998.499 8856.8,991.991 8863.87,986.94Z"/>
                            </clipPath>
                            <g clip-path="url(#_clip5)">
                                <path d="M8868.5,990.66C8868.5,990.66 8874.32,986.294 8878.6,988.777C8882.88,991.26 8884.59,993.058 8878.52,994.085C8872.44,995.113 8867.3,996.568 8867.3,996.568C8867.3,996.568 8862.42,998.195 8864.3,994.856C8866.19,991.517 8868.5,990.66 8868.5,990.66Z" style="fill:rgb(31,25,75);"/>
                            </g>
                        </g>
                        <g transform="matrix(-0.973093,0.230413,0.230413,0.973093,17127.8,-2009.65)">
                            <path d="M8908.63,970.372C8908.63,970.372 8901.09,971.605 8897.33,973.249C8893.56,974.893 8889.52,978.181 8895.41,982.77C8901.3,987.359 8914.18,999.944 8920.89,993.035C8927.6,986.126 8939.04,979.071 8930.68,974.482C8922.33,969.892 8918.63,969.207 8908.63,970.372Z" style="fill:rgb(250,150,55);"/>
                            <clipPath id="_clip6">
                                <path d="M8908.63,970.372C8908.63,970.372 8901.09,971.605 8897.33,973.249C8893.56,974.893 8889.52,978.181 8895.41,982.77C8901.3,987.359 8914.18,999.944 8920.89,993.035C8927.6,986.126 8939.04,979.071 8930.68,974.482C8922.33,969.892 8918.63,969.207 8908.63,970.372Z"/>
                            </clipPath>
                            <g clip-path="url(#_clip6)">
                                <path d="M8920.15,982.263C8920.15,982.263 8916.75,989.113 8911.98,984.729C8907.22,980.345 8905.74,979.085 8909.19,977.002C8912.64,974.92 8915.98,974.591 8919.49,976.509C8923,978.427 8922.4,978.811 8920.15,982.263Z" style="fill:rgb(31,25,75);"/>
                            </g>
                        </g>
                        <g transform="matrix(-0.973093,0.230413,0.230413,0.973093,17127.8,-2009.65)">
                            <path d="M8954.35,979.846C8954.35,979.846 8962.07,984.888 8965.18,989.359C8968.29,993.831 8971.8,998.697 8964.21,998.829C8956.63,998.96 8943.08,1000.54 8937.82,997.513C8932.56,994.489 8931.99,992.016 8935.9,986.194C8939.8,980.373 8943.13,970.334 8954.35,979.846Z" style="fill:rgb(250,150,55);"/>
                            <clipPath id="_clip7">
                                <path d="M8954.35,979.846C8954.35,979.846 8962.07,984.888 8965.18,989.359C8968.29,993.831 8971.8,998.697 8964.21,998.829C8956.63,998.96 8943.08,1000.54 8937.82,997.513C8932.56,994.489 8931.99,992.016 8935.9,986.194C8939.8,980.373 8943.13,970.334 8954.35,979.846Z"/>
                            </clipPath>
                            <g clip-path="url(#_clip7)">
                                <path d="M8945.67,986.992C8945.67,986.992 8948.83,981.381 8952.25,984.406C8955.67,987.431 8962.24,993.261 8956.5,993.524C8950.76,993.787 8939.36,995.76 8945.67,986.992Z" style="fill:rgb(31,25,75);"/>
                            </g>
                        </g>
                    </g>
                </g>
                <g transform="matrix(1,0,0,1,934.986,116.082)">
                    <path d="M7985.97,1088.79L7978.62,1061.43L7988.01,925.475L8051.29,1077.35C8051.29,1077.35 8032.92,1088.38 7985.97,1088.79Z" style="fill:url(#_Linear8);"/>
                </g>
                <g transform="matrix(-1,0,0,1,17251.9,116.082)">
                    <path d="M7985.97,1088.79L7978.62,1061.43L7988.01,925.475L8051.29,1077.35C8051.29,1077.35 8032.92,1088.38 7985.97,1088.79Z" style="fill:url(#_Linear9);"/>
                </g>
                <g transform="matrix(0.996779,0.0801922,-0.0801922,0.996779,1106.2,-552.4)">
                    <path d="M8365.4,1241.12L8499.24,1308.58L8346.11,1307.02C8346.11,1307.02 8339.74,1270.19 8365.4,1241.12Z" style="fill:rgb(229,225,119);"/>
                </g>
                <g transform="matrix(0.999659,0.0261302,-0.0261302,0.999659,1007.83,-100.38)">
                    <path d="M8345.41,1308.58L8451.48,1409.38L8302.87,1371.17C8302.87,1371.17 8300.09,1313.28 8345.41,1308.58Z" style="fill:url(#_Linear10);"/>
                </g>
                <g transform="matrix(0.999229,0.0392565,-0.0392565,0.999229,1017.93,-202.521)">
                    <path d="M8251.12,1420.5C8251.12,1420.5 8255.05,1350.76 8302.84,1371.5L8383.98,1485.4L8251.12,1420.5Z" style="fill:url(#_Linear11);"/>
                </g>
                <g transform="matrix(0.996882,-0.0789103,0.0789103,0.996882,856.429,786.372)">
                    <path d="M8185.11,1456.36C8185.11,1456.36 8179.76,1426.48 8204.84,1412.26C8229.93,1398.05 8249.96,1420.77 8249.96,1420.77L8286.15,1553.37L8185.11,1456.36Z" style="fill:url(#_Linear12);"/>
                </g>
                <g transform="matrix(-0.996779,0.0801922,0.0801922,0.996779,17080.7,-552.4)">
                    <path d="M8365.4,1241.12L8499.24,1308.58L8346.11,1307.02C8346.11,1307.02 8339.74,1270.19 8365.4,1241.12Z" style="fill:rgb(229,225,119);"/>
                </g>
                <g transform="matrix(-0.999659,0.0261302,0.0261302,0.999659,17179,-100.38)">
                    <path d="M8345.41,1308.58L8451.48,1409.38L8302.87,1371.17C8302.87,1371.17 8300.09,1313.28 8345.41,1308.58Z" style="fill:url(#_Linear13);"/>
                </g>
                <g transform="matrix(-0.999229,0.0392565,0.0392565,0.999229,17168.9,-202.521)">
                    <path d="M8251.12,1420.5C8251.12,1420.5 8255.05,1350.76 8302.84,1371.5L8383.98,1485.4L8251.12,1420.5Z" style="fill:url(#_Linear14);"/>
                </g>
                <g transform="matrix(-0.996882,-0.0789103,-0.0789103,0.996882,17330.4,786.372)">
                    <path d="M8185.11,1456.36C8185.11,1456.36 8179.76,1426.48 8204.84,1412.26C8229.93,1398.05 8249.96,1420.77 8249.96,1420.77L8286.15,1553.37L8185.11,1456.36Z" style="fill:url(#_Linear15);"/>
                </g>
            </g>
        </g>
    </g>
    <defs>
        <linearGradient id="_Linear8" x1="0" y1="0" x2="1" y2="0" gradientUnits="userSpaceOnUse" gradientTransform="matrix(27.3546,163.311,-163.311,27.3546,7987.6,925.475)"><stop offset="0" style="stop-color:rgb(146,175,85);stop-opacity:1"/><stop offset="0.48" style="stop-color:rgb(202,175,83);stop-opacity:1"/><stop offset="1" style="stop-color:rgb(220,175,83);stop-opacity:1"/></linearGradient>
        <linearGradient id="_Linear9" x1="0" y1="0" x2="1" y2="0" gradientUnits="userSpaceOnUse" gradientTransform="matrix(27.3546,163.311,-163.311,27.3546,7987.6,925.475)"><stop offset="0" style="stop-color:rgb(146,175,85);stop-opacity:1"/><stop offset="0.48" style="stop-color:rgb(202,175,83);stop-opacity:1"/><stop offset="1" style="stop-color:rgb(220,175,83);stop-opacity:1"/></linearGradient>
        <linearGradient id="_Linear10" x1="0" y1="0" x2="1" y2="0" gradientUnits="userSpaceOnUse" gradientTransform="matrix(140.447,78.3892,-78.3892,140.447,8311.04,1330.99)"><stop offset="0" style="stop-color:rgb(221,218,85);stop-opacity:1"/><stop offset="0.49" style="stop-color:rgb(202,178,76);stop-opacity:1"/><stop offset="1" style="stop-color:rgb(148,62,50);stop-opacity:1"/></linearGradient>
        <linearGradient id="_Linear11" x1="0" y1="0" x2="1" y2="0" gradientUnits="userSpaceOnUse" gradientTransform="matrix(-126.99,-108.797,108.797,-126.99,8383.98,1485.4)"><stop offset="0" style="stop-color:rgb(48,105,85);stop-opacity:1"/><stop offset="0.55" style="stop-color:rgb(68,128,94);stop-opacity:1"/><stop offset="1" style="stop-color:rgb(144,215,129);stop-opacity:1"/></linearGradient>
        <linearGradient id="_Linear12" x1="0" y1="0" x2="1" y2="0" gradientUnits="userSpaceOnUse" gradientTransform="matrix(-63.3646,-118.911,118.911,-63.3646,8279.06,1540.38)"><stop offset="0" style="stop-color:rgb(106,148,179);stop-opacity:1"/><stop offset="0.57" style="stop-color:rgb(114,143,155);stop-opacity:1"/><stop offset="0.8" style="stop-color:rgb(130,133,105);stop-opacity:1"/><stop offset="1" style="stop-color:rgb(146,123,57);stop-opacity:1"/></linearGradient>
        <linearGradient id="_Linear13" x1="0" y1="0" x2="1" y2="0" gradientUnits="userSpaceOnUse" gradientTransform="matrix(140.447,78.3892,-78.3892,140.447,8311.04,1330.99)"><stop offset="0" style="stop-color:rgb(221,218,85);stop-opacity:1"/><stop offset="0.49" style="stop-color:rgb(202,178,76);stop-opacity:1"/><stop offset="1" style="stop-color:rgb(148,62,50);stop-opacity:1"/></linearGradient>
        <linearGradient id="_Linear14" x1="0" y1="0" x2="1" y2="0" gradientUnits="userSpaceOnUse" gradientTransform="matrix(-126.99,-108.797,108.797,-126.99,8383.98,1485.4)"><stop offset="0" style="stop-color:rgb(48,105,85);stop-opacity:1"/><stop offset="0.55" style="stop-color:rgb(68,128,94);stop-opacity:1"/><stop offset="1" style="stop-color:rgb(144,215,129);stop-opacity:1"/></linearGradient>
        <linearGradient id="_Linear15" x1="0" y1="0" x2="1" y2="0" gradientUnits="userSpaceOnUse" gradientTransform="matrix(-63.3646,-118.911,118.911,-63.3646,8279.06,1540.38)"><stop offset="0" style="stop-color:rgb(106,148,179);stop-opacity:1"/><stop offset="0.57" style="stop-color:rgb(114,143,155);stop-opacity:1"/><stop offset="0.8" style="stop-color:rgb(130,133,105);stop-opacity:1"/><stop offset="1" style="stop-color:rgb(146,123,57);stop-opacity:1"/></linearGradient>
    </defs>
</svg>
