<?xml version="1.0" encoding="UTF-8" standalone="no"?>
<!DOCTYPE svg PUBLIC "-//W3C//DTD SVG 1.1//EN" "http://www.w3.org/Graphics/SVG/1.1/DTD/svg11.dtd">
<svg width="100%" height="100%" viewBox="0 0 199 201" version="1.1" xmlns="http://www.w3.org/2000/svg" xmlns:xlink="http://www.w3.org/1999/xlink" xml:space="preserve" xmlns:serif="http://www.serif.com/" style="fill-rule:evenodd;clip-rule:evenodd;stroke-linecap:round;stroke-linejoin:round;stroke-miterlimit:1.5;">
    <g transform="matrix(1,0,0,1,-2103.58,-13160.2)">
        <g transform="matrix(0.158352,0,0,0.158352,1523.27,11504.4)">
            <path d="M4288.66,11699C3890.69,11703.8 3689.53,11511.6 3691,11301.6C3692.47,11091.1 3860.63,10988.4 4031.74,10855C4202.85,10721.5 4214.82,10579.5 4233.65,10531.6C4252.47,10483.7 4291,10483 4291,10483L4291.11,10483C4293.39,10483.1 4330.12,10485.2 4348.35,10531.6C4367.18,10579.5 4379.15,10721.5 4550.26,10855C4721.37,10988.4 4889.53,11091.1 4891,11301.6C4892.47,11512 4690.5,11704.6 4291,11699L4288.66,11699Z" style="stroke:black;stroke-width:52.63px;"/>
            <path d="M4288.66,11699C3890.69,11703.8 3689.53,11511.6 3691,11301.6C3692.47,11091.1 3860.63,10988.4 4031.74,10855C4202.85,10721.5 4214.82,10579.5 4233.65,10531.6C4252.47,10483.7 4291,10483 4291,10483L4291.11,10483C4293.39,10483.1 4330.12,10485.2 4348.35,10531.6C4367.18,10579.5 4379.15,10721.5 4550.26,10855C4721.37,10988.4 4889.53,11091.1 4891,11301.6C4892.47,11512 4690.5,11704.6 4291,11699L4288.66,11699Z" style="fill:rgb(0,132,235);"/>
            <clipPath id="_clip1">
                <path d="M4288.66,11699C3890.69,11703.8 3689.53,11511.6 3691,11301.6C3692.47,11091.1 3860.63,10988.4 4031.74,10855C4202.85,10721.5 4214.82,10579.5 4233.65,10531.6C4252.47,10483.7 4291,10483 4291,10483L4291.11,10483C4293.39,10483.1 4330.12,10485.2 4348.35,10531.6C4367.18,10579.5 4379.15,10721.5 4550.26,10855C4721.37,10988.4 4889.53,11091.1 4891,11301.6C4892.47,11512 4690.5,11704.6 4291,11699L4288.66,11699Z"/>
            </clipPath>
            <g clip-path="url(#_clip1)">
                <path d="M4291,11488.2C4291,11488.2 4515.89,11491.1 4583.87,11437.1C4651.85,11383.2 4686.19,11348.1 4704.42,11386C4722.64,11423.8 4699.51,11479.2 4628.02,11520.5C4556.54,11561.9 4381.5,11585.7 4291,11583.6C4200.5,11585.7 4025.46,11561.9 3953.98,11520.5C3882.49,11479.2 3859.36,11423.8 3877.58,11386C3895.81,11348.1 3930.15,11383.2 3998.13,11437.1C4066.11,11491.1 4291,11488.2 4291,11488.2Z" style="fill:rgb(191,5,2);"/>
            </g>
        </g>
    </g>
</svg>
