<?xml version="1.0" encoding="UTF-8" standalone="no"?>
<!DOCTYPE svg PUBLIC "-//W3C//DTD SVG 1.1//EN" "http://www.w3.org/Graphics/SVG/1.1/DTD/svg11.dtd">
<svg width="100%" height="100%" viewBox="0 0 201 200" version="1.1" xmlns="http://www.w3.org/2000/svg" xmlns:xlink="http://www.w3.org/1999/xlink" xml:space="preserve" xmlns:serif="http://www.serif.com/" style="fill-rule:evenodd;clip-rule:evenodd;stroke-linecap:round;stroke-linejoin:round;stroke-miterlimit:1.5;">
    <g transform="matrix(1,0,0,1,-7523.663108,-13160.957771)">
        <g transform="matrix(0.263229,0,0,0.263229,6371.805327,10200.273734)">
            <g transform="matrix(0.979264,-0.202589,0.202589,0.979264,-2180.956391,1170.420539)">
                <path d="M4406.871,11757.06C4405.143,11757.517 4403.328,11757.761 4401.457,11757.761L4359.182,11757.761C4347.516,11757.761 4338.044,11748.29 4338.044,11736.623L4338.044,11476.47C4338.044,11464.804 4347.516,11455.333 4359.182,11455.333L4401.271,11455.333C4434.719,11337.255 4528.522,11249.018 4746.212,11288.566L4752.733,11289.915C4968.245,11339.988 5019.338,11458.201 5003.19,11579.857L5041.824,11596.557C5052.533,11601.186 5057.469,11613.638 5052.84,11624.347L4949.617,11863.145C4944.988,11873.854 4932.536,11878.789 4921.828,11874.161L4883.023,11857.387C4881.306,11856.644 4879.737,11855.701 4878.332,11854.595C4873.306,11861.401 4868.378,11867.857 4863.601,11873.929C4754.47,12012.655 4608.105,11999.783 4602.665,11999.252L4602.662,11999.268L4602.587,11999.245L4602.509,11999.237L4602.512,11999.221C4597.309,11997.549 4457.851,11951.29 4412.721,11780.652C4410.745,11773.183 4408.783,11765.3 4406.871,11757.06Z" style="stroke:black;stroke-width:31.66px;"/>
            </g>
            <g>
                <g transform="matrix(0.979264,-0.202589,0.202589,0.979264,-2180.956391,1170.420539)">
                    <path d="M4422.594,11476.47L4422.594,11736.623C4422.594,11748.29 4413.123,11757.761 4401.457,11757.761L4359.182,11757.761C4347.516,11757.761 4338.044,11748.29 4338.044,11736.623L4338.044,11476.47C4338.044,11464.804 4347.516,11455.333 4359.182,11455.333L4401.457,11455.333C4413.123,11455.333 4422.594,11464.804 4422.594,11476.47Z" style="fill:rgb(82,82,96);"/>
                </g>
                <g transform="matrix(-0.979264,-0.202589,-0.202589,0.979264,11695.171968,1170.420539)">
                    <path d="M4422.594,11476.47L4422.594,11736.623C4422.594,11748.29 4413.123,11757.761 4401.457,11757.761L4359.182,11757.761C4347.516,11757.761 4338.044,11748.29 4338.044,11736.623L4338.044,11476.47C4338.044,11464.804 4347.516,11455.333 4359.182,11455.333L4401.457,11455.333C4413.123,11455.333 4422.594,11464.804 4422.594,11476.47Z" style="fill:rgb(82,82,96);"/>
                </g>
                <g transform="matrix(1,0,0,1,797.100032,169.56494)">
                    <path d="M3959.93,11818.839C3954.495,11818.257 3808.558,11801.21 3729.794,11643.252C3649.943,11483.114 3532.058,11104.124 3956.678,11093.809L3963.337,11093.809C4387.957,11104.124 4270.073,11483.114 4190.222,11643.252C4111.458,11801.21 3965.52,11818.257 3960.086,11818.839L3960.086,11818.855C3960.086,11818.855 3960.06,11818.853 3960.008,11818.848C3959.956,11818.853 3959.93,11818.855 3959.93,11818.855L3959.93,11818.839Z" style="fill:rgb(239,188,137);"/>
                </g>
                <g transform="matrix(1,0,0,1,796.527284,176.245314)">
                    <path d="M4051.108,11496.084C4051.108,11496.084 4036.787,11519.578 4023.147,11538.673C4023.147,11538.673 4010.19,11522.988 4014.963,11510.03C4014.963,11510.03 4020.206,11522.961 4023.349,11524.706C4023.349,11524.706 4040.807,11504.125 4051.108,11496.084Z" style="fill:rgb(220,171,121);"/>
                </g>
                <g transform="matrix(-1,0,0,1,8717.688293,176.245314)">
                    <path d="M4051.108,11496.084C4051.108,11496.084 4036.787,11519.578 4023.147,11538.673C4023.147,11538.673 4010.19,11522.988 4014.963,11510.03C4014.963,11510.03 4020.206,11522.961 4023.349,11524.706C4023.349,11524.706 4040.807,11504.125 4051.108,11496.084Z" style="fill:rgb(220,171,121);"/>
                </g>
            </g>
        </g>
    </g>
</svg>
