<?xml version="1.0" encoding="UTF-8" standalone="no"?>
<!DOCTYPE svg PUBLIC "-//W3C//DTD SVG 1.1//EN" "http://www.w3.org/Graphics/SVG/1.1/DTD/svg11.dtd">
<svg width="100%" height="100%" viewBox="0 0 130 264" version="1.1" xmlns="http://www.w3.org/2000/svg" xmlns:xlink="http://www.w3.org/1999/xlink" xml:space="preserve" xmlns:serif="http://www.serif.com/" style="fill-rule:evenodd;clip-rule:evenodd;stroke-linecap:round;stroke-linejoin:round;stroke-miterlimit:1.5;">
    <g transform="matrix(1,0,0,1,-1736.43,-13302.7)">
        <g transform="matrix(0.62611,0,0,0.62611,-1334.4,5589.02)">
            <path d="M4919.84,12428.1L4919.84,12414.4C4919.84,12365.9 4959.15,12326.6 5007.57,12326.6C5055.99,12326.6 5095.3,12365.9 5095.3,12414.4L5095.3,12426.1C5101.39,12438.7 5104.8,12452.9 5104.8,12467.9L5104.8,12545.6C5104.8,12560.3 5101.53,12574.2 5095.67,12586.7C5095.1,12615.6 5092.15,12644.1 5088.28,12660.4C5086.98,12665.9 5085.06,12670.9 5082.61,12675.5C5091.16,12678.5 5095.77,12679.3 5095.77,12679.3L5095.77,12698.4C5095.77,12698.4 5092.88,12695.1 5071.29,12711.2C5049.7,12727.3 5020.36,12732.6 5008.04,12733.7C5008,12733.7 5007.96,12733.7 5007.92,12733.7C4996.49,12733.2 4965.7,12726.8 4944.79,12711.2C4923.2,12695.1 4920.31,12698.4 4920.31,12698.4L4920.31,12679.3C4920.31,12679.3 4924.92,12678.5 4933.47,12675.5C4931.02,12670.9 4929.09,12665.9 4927.79,12660.4C4923.92,12644.1 4920.97,12615.6 4920.41,12586.7C4914.55,12574.2 4911.27,12560.3 4911.27,12545.6L4911.27,12467.9C4911.27,12453.7 4914.34,12440.2 4919.84,12428.1Z" style="stroke:black;stroke-width:13.31px;"/>
            <g>
                <g transform="matrix(1,0,0,0.815649,-0.463305,2299.5)">
                    <path d="M5095.77,12401C5095.77,12341.6 5056.46,12293.4 5008.04,12293.4C4959.62,12293.4 4920.31,12341.6 4920.31,12401L4920.31,12487.4C4920.31,12546.7 4959.62,12594.9 5008.04,12594.9C5056.46,12594.9 5095.77,12546.7 5095.77,12487.4L5095.77,12401Z" style="fill:rgb(252,247,244);"/>
                    <clipPath id="_clip1">
                        <path d="M5095.77,12401C5095.77,12341.6 5056.46,12293.4 5008.04,12293.4C4959.62,12293.4 4920.31,12341.6 4920.31,12401L4920.31,12487.4C4920.31,12546.7 4959.62,12594.9 5008.04,12594.9C5056.46,12594.9 5095.77,12546.7 5095.77,12487.4L5095.77,12401Z"/>
                    </clipPath>
                    <g clip-path="url(#_clip1)">
                        <g transform="matrix(0.906627,0,0,0.906627,458.704,1133.01)">
                            <rect x="5095.77" y="12275.3" width="126.274" height="342.22" style="fill:rgb(84,81,108);"/>
                        </g>
                        <g transform="matrix(0.906627,0,0,0.906627,203.809,1137.33)">
                            <rect x="5095.77" y="12275.3" width="126.274" height="342.22" style="fill:rgb(84,81,108);"/>
                        </g>
                        <g transform="matrix(1,0,0,1.22602,0.463305,-2745.67)">
                            <rect x="4795.71" y="12202.2" width="446.175" height="240.432" style="fill-opacity:0.03;"/>
                        </g>
                    </g>
                </g>
                <g transform="matrix(1.10299,0,0,0.899652,-515.777,1311.32)">
                    <path d="M5095.77,12401C5095.77,12341.6 5056.46,12293.4 5008.04,12293.4C4959.62,12293.4 4920.31,12341.6 4920.31,12401L4920.31,12487.4C4920.31,12546.7 4959.62,12594.9 5008.04,12594.9C5056.46,12594.9 5095.77,12546.7 5095.77,12487.4L5095.77,12401Z" style="fill:rgb(252,247,244);"/>
                    <clipPath id="_clip2">
                        <path d="M5095.77,12401C5095.77,12341.6 5056.46,12293.4 5008.04,12293.4C4959.62,12293.4 4920.31,12341.6 4920.31,12401L4920.31,12487.4C4920.31,12546.7 4959.62,12594.9 5008.04,12594.9C5056.46,12594.9 5095.77,12546.7 5095.77,12487.4L5095.77,12401Z"/>
                    </clipPath>
                    <g clip-path="url(#_clip2)">
                        <g transform="matrix(0.906627,0,0,0.906627,451.742,1133.01)">
                            <rect x="5095.77" y="12275.3" width="126.274" height="342.22" style="fill:rgb(84,81,108);"/>
                        </g>
                        <g transform="matrix(0.906627,0,0,0.906627,209.933,1133.01)">
                            <rect x="5095.77" y="12275.3" width="126.274" height="342.22" style="fill:rgb(84,81,108);"/>
                        </g>
                        <g transform="matrix(0.995212,0,0,0.984837,393.95,155.333)">
                            <path d="M4636.19,12424.7C4636.25,12424.7 4636.31,12424.7 4636.36,12424.7L4636.36,12424.7C4644.16,12424.8 4695.25,12426.3 4711.4,12453C4728.89,12481.9 4724.85,12600.3 4716.11,12644C4707.36,12687.8 4669.68,12710 4638.73,12707.3L4633,12707.3C4602.05,12710 4564.37,12687.8 4555.62,12644C4546.87,12600.3 4542.84,12481.9 4560.33,12453C4576.47,12426.3 4627.57,12424.8 4635.36,12424.7L4635.36,12424.7C4635.42,12424.7 4635.48,12424.7 4635.53,12424.7L4636.19,12424.7Z" style="fill:rgb(252,247,244);"/>
                        </g>
                    </g>
                </g>
                <g transform="matrix(1,0,0,0.84027,372.174,2036.01)">
                    <path d="M4636.19,12424.7C4636.25,12424.7 4636.31,12424.7 4636.36,12424.7L4636.36,12424.7C4644.16,12424.8 4695.25,12426.3 4711.4,12453C4728.89,12481.9 4724.85,12600.3 4716.11,12644C4707.36,12687.8 4669.68,12710 4638.73,12707.3L4633,12707.3C4602.05,12710 4564.37,12687.8 4555.62,12644C4546.87,12600.3 4542.84,12481.9 4560.33,12453C4576.47,12426.3 4627.57,12424.8 4635.36,12424.7L4635.36,12424.7C4635.42,12424.7 4635.48,12424.7 4635.53,12424.7L4636.19,12424.7Z" style="fill:rgb(232,188,151);"/>
                </g>
                <g transform="matrix(1,0,0,1,9.09495e-13,-15.3111)">
                    <path d="M5007.92,12749C4996.49,12748.5 4965.7,12742.1 4944.79,12726.5C4923.2,12710.5 4920.31,12713.7 4920.31,12713.7L4920.31,12694.6C4920.31,12694.6 4928.71,12693.2 4943.87,12686.8C4959.03,12680.4 4967.48,12665.7 5008.04,12664.3L5008.51,12664.3C5048.66,12665.8 5057.11,12680.4 5072.21,12686.8C5087.36,12693.2 5095.77,12694.6 5095.77,12694.6L5095.77,12713.7C5095.77,12713.7 5092.88,12710.5 5071.29,12726.5C5049.7,12742.6 5020.36,12747.9 5008.04,12749C5008,12749 5007.96,12749 5007.92,12749Z" style="fill:rgb(169,140,132);"/>
                </g>
                <g transform="matrix(1.21689,0,0,1.21689,-631.645,-2701.75)">
                    <path d="M4614.65,12570.4C4614.65,12570.4 4633.76,12562.7 4625.82,12553.9C4617.89,12545.1 4564.09,12541.2 4572.61,12558C4581.14,12574.8 4597.6,12576.8 4614.65,12570.4Z" style="fill:rgb(155,155,155);"/>
                </g>
                <g transform="matrix(-1.21689,0,0,1.21689,10647.7,-2701.75)">
                    <path d="M4614.65,12570.4C4614.65,12570.4 4633.76,12562.7 4625.82,12553.9C4617.89,12545.1 4564.09,12541.2 4572.61,12558C4581.14,12574.8 4597.6,12576.8 4614.65,12570.4Z" style="fill:rgb(155,155,155);"/>
                </g>
                <g transform="matrix(1,0,0,1,0.781506,1.81899e-12)">
                    <path d="M4995.31,12582.5C4995.31,12582.5 5006.03,12576.1 5020.71,12582.5L5021.46,12577.5C5021.46,12577.5 5003.96,12572.7 4993.05,12577.6L4995.31,12582.5Z" style="fill:rgb(155,155,155);"/>
                </g>
                <g transform="matrix(1.24045,0,0,1.24045,-1209.47,-3072.04)">
                    <ellipse cx="5012.31" cy="12707.8" rx="30.867" ry="29.397" style="fill:rgb(179,114,180);"/>
                </g>
            </g>
        </g>
    </g>
</svg>
