<?xml version="1.0" encoding="UTF-8" standalone="no"?>
<!DOCTYPE svg PUBLIC "-//W3C//DTD SVG 1.1//EN" "http://www.w3.org/Graphics/SVG/1.1/DTD/svg11.dtd">
<svg width="100%" height="100%" viewBox="0 0 192 201" version="1.1" xmlns="http://www.w3.org/2000/svg" xmlns:xlink="http://www.w3.org/1999/xlink" xml:space="preserve" xmlns:serif="http://www.serif.com/" style="fill-rule:evenodd;clip-rule:evenodd;stroke-linecap:round;stroke-linejoin:round;stroke-miterlimit:1.5;">
    <g transform="matrix(1,0,0,1,-3558.31,-11894.2)">
        <g transform="matrix(0.417938,0,0,0.417938,3061.32,7261.53)">
            <path d="M1418.53,11094.4L1418.95,11094.5C1456.76,11094.9 1485.62,11101.8 1507.6,11113C1532.14,11125 1548.14,11142.4 1558.29,11163.7C1581.99,11210.7 1575.74,11271.4 1574.23,11311.7C1580.78,11311.3 1586.84,11314.7 1591.06,11324.8C1597.94,11341.4 1598.66,11359.2 1592.76,11376.1C1606.69,11394 1619.5,11414.1 1625.95,11433.8C1625.95,11433.8 1617.11,11424.2 1585.47,11424.6C1585.47,11424.6 1611.08,11467.2 1636.7,11474C1636.7,11474 1592.25,11472.5 1559.1,11476.2C1559.1,11476.2 1562.82,11508.6 1596.75,11537.3C1596.75,11537.3 1554.15,11544 1537.41,11528.2L1517.82,11520.1C1475.65,11557.4 1420.72,11555.2 1420.72,11555.2L1415.09,11555.2C1415.09,11555.2 1360.16,11557.4 1317.99,11520.1L1298.4,11528.2C1281.66,11544 1239.07,11537.3 1239.07,11537.3C1272.99,11508.6 1276.72,11476.2 1276.72,11476.2C1243.56,11472.5 1199.11,11474 1199.11,11474C1224.73,11467.2 1250.35,11424.6 1250.35,11424.6C1218.7,11424.2 1209.86,11433.8 1209.86,11433.8C1216.31,11414.1 1229.12,11394 1243.05,11376.1C1237.15,11359.2 1237.87,11341.4 1244.75,11324.8C1248.97,11314.7 1255.04,11311.3 1261.58,11311.7C1260.07,11271.4 1253.82,11210.6 1277.59,11163.6C1287.7,11142.4 1303.59,11125.1 1327.9,11113.1C1350.01,11101.8 1379.1,11094.9 1417.28,11094.4L1417.28,11094.4L1417.45,11094.4L1417.91,11094.4L1418.36,11094.4L1418.53,11094.4L1418.53,11094.4Z" style="stroke:black;stroke-width:19.94px;"/>
            <g>
                <g transform="matrix(1,0,0,1,0.000119855,5.71846)">
                    <path d="M1537.41,11311.7C1537.41,11311.7 1607.56,11372.1 1625.95,11428.1C1625.95,11428.1 1617.11,11418.5 1585.47,11418.9C1585.47,11418.9 1611.08,11461.5 1636.7,11468.3C1636.7,11468.3 1592.25,11466.7 1559.1,11470.5C1559.1,11470.5 1562.82,11502.9 1596.75,11531.5C1596.75,11531.5 1554.15,11538.3 1537.41,11522.5L1417.91,11472.8L1537.41,11311.7Z" style="fill:rgb(152,131,71);"/>
                </g>
                <g transform="matrix(-1,0,0,1,2835.81,5.71846)">
                    <path d="M1537.41,11311.7C1537.41,11311.7 1607.56,11372.1 1625.95,11428.1C1625.95,11428.1 1617.11,11418.5 1585.47,11418.9C1585.47,11418.9 1611.08,11461.5 1636.7,11468.3C1636.7,11468.3 1592.25,11466.7 1559.1,11470.5C1559.1,11470.5 1562.82,11502.9 1596.75,11531.5C1596.75,11531.5 1554.15,11538.3 1537.41,11522.5L1417.91,11472.8L1537.41,11311.7Z" style="fill:rgb(152,131,71);"/>
                </g>
                <g transform="matrix(1,0,0,1,-2.4309,0)">
                    <path d="M1539.84,11338.8C1539.84,11338.8 1578.42,11288.5 1593.49,11324.8C1608.56,11361.1 1594.09,11403.3 1545.27,11428.1L1539.84,11338.8Z" style="fill:rgb(184,130,88);"/>
                </g>
                <g transform="matrix(-1,0,0,1,2838.24,0)">
                    <path d="M1539.84,11338.8C1539.84,11338.8 1578.42,11288.5 1593.49,11324.8C1608.56,11361.1 1594.09,11403.3 1545.27,11428.1L1539.84,11338.8Z" style="fill:rgb(184,130,88);"/>
                </g>
                <g transform="matrix(1.24642,0,0,1,-310.884,0)">
                    <path d="M1387.5,11104C1546.39,11110.2 1510.66,11252 1505.15,11406.2C1499.63,11560.7 1389.26,11555.2 1389.26,11555.2L1384.74,11555.2C1384.74,11555.2 1274.38,11560.7 1268.86,11406.2C1263.35,11252 1227.62,11110.2 1386.5,11104L1386.5,11104L1387,11104L1387.5,11104L1387.5,11104Z" style="fill:rgb(196,139,94);"/>
                </g>
                <path d="M1417.81,11212.5C1415.87,11210 1384.15,11170.2 1344.23,11180.2C1303.03,11190.5 1258.88,11224.1 1276.54,11418.9C1276.54,11418.9 1264.31,11385.7 1261.59,11312.1C1258.88,11238.5 1239.94,11096.1 1417.91,11094.4L1418.95,11094.5C1595.8,11096.6 1576.93,11238.6 1574.22,11312.1C1571.5,11385.7 1559.27,11418.9 1559.27,11418.9C1576.93,11224.1 1532.79,11190.5 1491.58,11180.2C1450.38,11169.9 1417.91,11212.6 1417.91,11212.6L1417.81,11212.5Z" style="fill:rgb(170,145,74);"/>
                <g transform="matrix(5.958,0,0,5.958,-20242.2,-60345.9)">
                    <path d="M3632.36,12030.1C3632.36,12030.1 3624.47,12024.9 3622.37,12021.7C3620.26,12018.5 3615.68,12028.1 3622.52,12028.8C3629.36,12029.6 3632.36,12030.1 3632.36,12030.1Z" style="fill:rgb(170,145,74);"/>
                </g>
                <g transform="matrix(-5.958,0,0,5.958,23078,-60345.9)">
                    <path d="M3632.36,12030.1C3632.36,12030.1 3624.47,12024.9 3622.37,12021.7C3620.26,12018.5 3615.68,12028.1 3622.52,12028.8C3629.36,12029.6 3632.36,12030.1 3632.36,12030.1Z" style="fill:rgb(170,145,74);"/>
                </g>
            </g>
        </g>
    </g>
</svg>
