<?xml version="1.0" encoding="UTF-8" standalone="no"?>
<!DOCTYPE svg PUBLIC "-//W3C//DTD SVG 1.1//EN" "http://www.w3.org/Graphics/SVG/1.1/DTD/svg11.dtd">
<svg width="100%" height="100%" viewBox="0 0 182 200" version="1.1" xmlns="http://www.w3.org/2000/svg" xmlns:xlink="http://www.w3.org/1999/xlink" xml:space="preserve" xmlns:serif="http://www.serif.com/" style="fill-rule:evenodd;clip-rule:evenodd;stroke-linecap:round;stroke-linejoin:round;stroke-miterlimit:1.5;">
    <g transform="matrix(1,0,0,1,-3910.6,-13160.2)">
        <g transform="matrix(0.736489,0,0,0.736489,1581.83,4312.11)">
            <path d="M3233.96,12120.9C3215.82,12084.1 3200.9,12081.9 3188.31,12074.2C3175.21,12066.1 3167.65,12062.6 3167.65,12062.6C3187.73,12037.2 3240.43,12059.9 3240.43,12059.9C3272.68,12011.5 3322.66,12009.9 3354.26,12037.6C3385.86,12065.4 3377.86,12106.8 3377.86,12106.8C3379.5,12112.9 3379.06,12117.4 3376.61,12123.2C3378.25,12125.6 3378.83,12127.3 3378.83,12127.3C3378.37,12128.1 3377.94,12128.9 3377.55,12129.6C3380.27,12135.8 3385.45,12149.7 3384.91,12165.4C3402.62,12170.6 3407.01,12195.8 3399.98,12205.2C3394.95,12211.8 3381.17,12224.4 3364.91,12225.9C3363.16,12238.3 3361.47,12247.9 3360.12,12250.8C3355.04,12261.9 3330.52,12272 3326.04,12275.6C3322.44,12278.5 3310.01,12279.1 3305.22,12279.2L3305.22,12279.2C3305.22,12279.2 3304.87,12279.2 3304.26,12279.2C3303.66,12279.2 3303.31,12279.2 3303.31,12279.2L3303.31,12279.2C3298.52,12279.1 3286.09,12278.5 3282.49,12275.6C3278,12272 3253.48,12261.9 3248.4,12250.8C3247.06,12247.9 3245.37,12238.3 3243.61,12225.9C3227.46,12224.3 3213.79,12211.8 3208.79,12205.2C3201.75,12195.8 3206.15,12170.6 3223.86,12165.4C3223.32,12149.8 3228.44,12135.9 3231.18,12129.7C3230.79,12129 3230.38,12128.3 3229.93,12127.5C3229.93,12127.5 3230.93,12124.6 3233.96,12120.9Z" style="stroke:black;stroke-width:11.31px;"/>
            <g>
                <g transform="matrix(0.933611,0,0,0.933611,48.1337,826.958)">
                    <path d="M3546.37,12160C3546.37,12160 3553.45,12139.5 3573.16,12144.5C3592.87,12149.4 3597.85,12177.2 3590.19,12187.3C3582.54,12197.5 3555.94,12220.4 3529.72,12203.8L3546.37,12160Z" style="fill:rgb(250,172,123);"/>
                </g>
                <g transform="matrix(0.872182,-0.0536709,0.0536709,0.872182,-380.175,1766.43)">
                    <path d="M3562.15,12097.3C3562.15,12097.3 3572.02,12118.5 3569.63,12142.8C3569.63,12142.8 3560.36,12138 3559.16,12149.6C3557.97,12161.3 3558.86,12191.4 3550.19,12207C3550.19,12207 3541.52,12209.1 3535.54,12200.5L3540.62,12115.2L3562.15,12097.3Z" style="fill:rgb(72,223,249);"/>
                </g>
                <g transform="matrix(-0.933611,0,0,0.933611,6560.63,826.958)">
                    <path d="M3546.37,12160C3546.37,12160 3553.45,12139.5 3573.16,12144.5C3592.87,12149.4 3597.85,12177.2 3590.19,12187.3C3582.54,12197.5 3555.94,12220.4 3529.72,12203.8L3546.37,12160Z" style="fill:rgb(250,172,123);"/>
                </g>
                <g transform="matrix(-0.872182,-0.0536709,-0.0536709,0.872182,6988.94,1766.43)">
                    <path d="M3562.15,12097.3C3562.15,12097.3 3572.02,12118.5 3569.63,12142.8C3569.63,12142.8 3560.36,12138 3559.16,12149.6C3557.97,12161.3 3558.86,12191.4 3550.19,12207C3550.19,12207 3541.52,12209.1 3535.54,12200.5L3540.62,12115.2L3562.15,12097.3Z" style="fill:rgb(72,223,249);"/>
                </g>
                <g transform="matrix(1,0,0,1,-164.933,23.3616)">
                    <path d="M3404.54,12170.7C3401.09,12140.8 3537.63,12137.4 3534.45,12165.5C3531.32,12193.1 3527.58,12222 3525.06,12227.5C3519.97,12238.5 3495.45,12248.7 3490.97,12252.3C3487.37,12255.1 3474.94,12255.7 3470.15,12255.8L3470.15,12255.9C3470.15,12255.9 3469.8,12255.9 3469.2,12255.9C3468.59,12255.9 3468.24,12255.9 3468.24,12255.9L3468.24,12255.8C3463.45,12255.7 3451.02,12255.1 3447.42,12252.3C3442.94,12248.7 3418.42,12238.5 3413.33,12227.5C3410.97,12222.3 3407.54,12196.7 3404.54,12170.7Z" style="fill:rgb(43,38,35);"/>
                </g>
                <g transform="matrix(1.15385,0,0,1.15385,-689.968,-1847.38)">
                    <path d="M3462.81,12169.3C3467.56,12169.6 3478.8,12170.7 3488.51,12173.7C3501.18,12177.5 3515.78,12182.8 3503.34,12203.6C3490.99,12224.2 3493.74,12233.5 3461.67,12233.5C3428.91,12233.5 3432.35,12224.2 3419.99,12203.6C3407.55,12182.8 3422.15,12177.5 3434.83,12173.7C3444.53,12170.7 3455.78,12169.6 3460.52,12169.3L3462.81,12169.3Z" style="fill:rgb(250,172,123);"/>
                </g>
                <g transform="matrix(0.954461,0,0,0.954996,-3.70825,575.421)">
                    <path d="M3464.98,12079.9L3464.98,12079.8L3517.37,12076.7C3538.9,12081.5 3543.93,12096.3 3543.93,12096.3C3537.23,12108 3537.23,12111.4 3538.18,12143.2C3539.14,12175 3530.16,12193.9 3530.16,12193.9C3523.08,12166.5 3480.77,12168.2 3480.77,12168.2C3476.85,12163.3 3469.06,12161.6 3466.39,12161.1L3466.39,12161.2C3466.39,12161.2 3455.86,12162.4 3451.08,12168.4C3451.08,12168.4 3408.76,12166.7 3401.69,12194.1C3401.69,12194.1 3392.7,12175.2 3393.66,12143.4C3394.62,12111.5 3394.62,12108.2 3387.92,12096.5C3387.92,12096.5 3392.95,12081.6 3414.47,12076.9L3464.98,12079.9Z" style="fill:rgb(248,72,108);"/>
                </g>
                <g transform="matrix(0.862667,0,0,0.862667,309.2,1712.05)">
                    <path d="M3313.5,11998.3C3313.5,11998.3 3322.26,12002.4 3337.45,12011.7C3352.63,12021.1 3370.74,12023.4 3392.93,12071.3C3415.12,12119.2 3486.31,12134.2 3529.37,12091.4C3529.37,12091.4 3539.84,12097.1 3548.51,12082.2C3557.18,12067.2 3560.17,12060.6 3557.18,12049.6C3557.18,12049.6 3566.45,12001.5 3529.82,11969.4C3493.19,11937.2 3435.25,11939.1 3397.87,11995.2C3397.87,11995.2 3336.78,11968.9 3313.5,11998.3Z" style="fill:rgb(71,223,249);"/>
                </g>
                <g transform="matrix(0.862667,0,0,0.862667,309.2,1712.05)">
                    <path d="M3450.95,12040.3C3450.95,12040.3 3447.88,12025.8 3463,12020.6C3478.12,12015.4 3490.37,12016.8 3488.26,12032.7C3486.16,12048.5 3455.54,12058.1 3450.95,12040.3Z" style="fill:rgb(71,168,215);"/>
                </g>
                <g transform="matrix(0.714722,0,0,0.714722,840.501,3504.66)">
                    <path d="M3515.28,12104.9C3515.28,12104.9 3522.76,12104.4 3527.41,12108.6C3527.41,12108.6 3520.18,12122.1 3512.47,12126.3C3504.75,12130.5 3488.95,12138.4 3480.25,12131.8C3471.56,12125.1 3481.11,12122.3 3487.36,12122.8C3493.6,12123.3 3503.89,12120 3515.28,12104.9Z" style="fill:rgb(72,222,248);"/>
                </g>
                <g transform="matrix(-0.714722,0,0,0.714722,5768.26,3504.66)">
                    <path d="M3515.28,12104.9C3515.28,12104.9 3522.76,12104.4 3527.41,12108.6C3527.41,12108.6 3520.18,12122.1 3512.47,12126.3C3504.75,12130.5 3488.95,12138.4 3480.25,12131.8C3471.56,12125.1 3481.11,12122.3 3487.36,12122.8C3493.6,12123.3 3503.89,12120 3515.28,12104.9Z" style="fill:rgb(72,222,248);"/>
                </g>
            </g>
        </g>
    </g>
</svg>
