<?xml version="1.0" encoding="UTF-8" standalone="no"?>
<!DOCTYPE svg PUBLIC "-//W3C//DTD SVG 1.1//EN" "http://www.w3.org/Graphics/SVG/1.1/DTD/svg11.dtd">
<svg width="100%" height="100%" viewBox="0 0 224 242" version="1.1" xmlns="http://www.w3.org/2000/svg" xmlns:xlink="http://www.w3.org/1999/xlink" xml:space="preserve" xmlns:serif="http://www.serif.com/" style="fill-rule:evenodd;clip-rule:evenodd;stroke-linecap:round;stroke-linejoin:round;stroke-miterlimit:1.5;">
    <g transform="matrix(1,0,0,1,-4701.265405,-13536.033007)">
        <g transform="matrix(1,0,0,1,3091.541009,1677.383076)">
            <g transform="matrix(0.912352,0,0,0.505194,147.844775,5918.330474)">
                <path d="M1653.8,12008.852C1625.311,11999.411 1606.887,11984.432 1606.887,11967.581C1606.887,11950.449 1625.931,11935.252 1655.234,11925.842C1650.498,11878.047 1655.674,11828.299 1663.153,11775.829C1703.386,11764.027 1744.479,11763.406 1786.575,11775.829C1793.431,11827.565 1799.48,11877.594 1794.683,11925.957C1823.784,11935.375 1842.673,11950.518 1842.673,11967.581C1842.673,11984.432 1824.249,11999.411 1795.76,12008.852C1791.219,12096.064 1823.057,12170.361 1823.057,12170.361C1813.577,12166.37 1807.811,12174.019 1807.811,12174.019C1812.014,12188.586 1811.134,12206.279 1811.134,12206.279C1806.248,12190.049 1796.573,12179.036 1796.573,12179.036C1794.228,12206.867 1788.576,12227.547 1788.576,12227.547C1789.912,12165.189 1781.896,12154.705 1781.896,12154.705C1780.827,12206.265 1777.604,12215.801 1777.604,12215.801C1775.764,12187.2 1772.907,12157.724 1769.646,12129.545C1759.817,12155.184 1749.147,12172.333 1745.567,12178.098C1739.034,12188.619 1728.32,12190.224 1725.215,12190.469L1725.215,12190.513C1725.215,12190.513 1725.062,12190.513 1724.78,12190.498C1724.498,12190.513 1724.346,12190.513 1724.346,12190.513L1724.346,12190.469C1721.24,12190.224 1710.527,12188.619 1703.994,12178.098C1700.414,12172.333 1689.743,12155.184 1679.914,12129.545C1676.653,12157.724 1673.796,12187.2 1671.957,12215.801C1671.957,12215.801 1668.734,12206.265 1667.665,12154.705C1667.665,12154.705 1659.648,12165.189 1660.984,12227.547C1660.984,12227.547 1655.333,12206.867 1652.987,12179.036C1652.987,12179.036 1643.313,12190.049 1638.426,12206.279C1638.426,12206.279 1637.547,12188.586 1641.749,12174.019C1641.749,12174.019 1635.983,12166.37 1626.504,12170.361C1626.504,12170.361 1658.342,12096.064 1653.8,12008.852Z" style="stroke:black;stroke-width:11.3px;"/>
            </g>
            <g>
                <g transform="matrix(0.912352,0,0,0.505194,147.844775,5918.330474)">
                    <path d="M1786.575,11775.829C1795.417,11842.556 1802.918,11906.444 1787.535,11967.581L1662.192,11967.581C1647.649,11907.113 1653.471,11843.751 1663.153,11775.829C1703.386,11764.027 1744.479,11763.406 1786.575,11775.829Z" style="fill:rgb(43,27,59);"/>
                    <clipPath id="_clip1">
                        <path d="M1786.575,11775.829C1795.417,11842.556 1802.918,11906.444 1787.535,11967.581L1662.192,11967.581C1647.649,11907.113 1653.471,11843.751 1663.153,11775.829C1703.386,11764.027 1744.479,11763.406 1786.575,11775.829Z"/>
                    </clipPath>
                    <g clip-path="url(#_clip1)">
                        <g transform="matrix(1,0,0,1,0.499349,10.952828)">
                            <path d="M1649.655,11894.505C1649.655,11894.505 1743.994,11874.755 1798.907,11897.081L1798.907,11905.668C1798.907,11905.668 1722.54,11889.834 1649.838,11904.718L1649.655,11894.505Z" style="fill:rgb(174,160,38);"/>
                        </g>
                    </g>
                </g>
                <g transform="matrix(1,0,0,0.73,-2.419485,3246.535524)">
                    <ellipse cx="1723.871" cy="11942.114" rx="107.56" ry="35.779" style="fill:rgb(29,18,40);"/>
                </g>
                <g transform="matrix(0.790069,-0.065566,0.065566,0.790069,-1907.492447,2644.453324)">
                    <path d="M3577.298,12235.607C3573.749,12235.156 3561.546,12233.117 3554.608,12225.814C3546.427,12217.202 3503.366,12171.988 3514.562,12116.009L3534.037,12098.417L3590.227,12085.849L3640.317,12108.595L3659.886,12128.069C3661.701,12185.128 3611.776,12222.625 3602.287,12229.771C3594.24,12235.83 3581.869,12235.83 3578.294,12235.69L3578.292,12235.718C3578.292,12235.718 3578.117,12235.703 3577.794,12235.667C3577.47,12235.65 3577.295,12235.635 3577.295,12235.635L3577.298,12235.607Z" style="fill:rgb(239,203,156);"/>
                </g>
                <g transform="matrix(0.249198,0,0,0.37567,1510.91453,7552.742952)">
                    <path d="M844.856,11739.709C830.909,11744.339 807.243,11747.944 767.288,11745.741C767.288,11745.741 678.758,11920.997 651.461,12076.903C651.461,12076.903 639.66,12064.079 635.747,11994.742C635.747,11994.742 606.397,12008.842 611.289,12092.698C611.289,12092.698 590.598,12064.889 582.012,12027.462C582.012,12027.462 546.591,12042.272 528.701,12064.097C528.701,12064.097 525.481,12040.305 540.866,12020.716C540.866,12020.716 519.756,12010.429 485.051,12015.796C485.051,12015.796 602.875,11914.802 584.706,11796.704C584.706,11796.704 731.566,11642.175 844.856,11712.153C958.145,11642.175 1105.005,11796.704 1105.005,11796.704C1086.836,11914.802 1204.66,12015.796 1204.66,12015.796C1169.955,12010.429 1148.845,12020.716 1148.845,12020.716C1164.23,12040.305 1161.01,12064.097 1161.01,12064.097C1143.121,12042.272 1107.7,12027.462 1107.7,12027.462C1099.113,12064.889 1078.422,12092.698 1078.422,12092.698C1083.314,12008.842 1053.964,11994.742 1053.964,11994.742C1050.051,12064.079 1038.25,12076.903 1038.25,12076.903C1010.953,11920.997 922.423,11745.741 922.423,11745.741C882.468,11747.944 858.802,11744.339 844.856,11739.709Z" style="fill:rgb(154,129,47);"/>
                </g>
            </g>
        </g>
    </g>
</svg>
