<?xml version="1.0" encoding="UTF-8" standalone="no"?>
<!DOCTYPE svg PUBLIC "-//W3C//DTD SVG 1.1//EN" "http://www.w3.org/Graphics/SVG/1.1/DTD/svg11.dtd">
<svg width="100%" height="100%" viewBox="0 0 181 248" version="1.1" xmlns="http://www.w3.org/2000/svg" xmlns:xlink="http://www.w3.org/1999/xlink" xml:space="preserve" xmlns:serif="http://www.serif.com/" style="fill-rule:evenodd;clip-rule:evenodd;stroke-linecap:round;stroke-linejoin:round;stroke-miterlimit:1.5;">
    <g transform="matrix(1,0,0,1,-2915.806825,-13762.83006)">
        <g transform="matrix(0.154321,0,0,0.154321,2693.753083,12523.744885)">
            <g transform="matrix(8.289093,0,0,8.289093,-185.413185,-84842.715713)">
                <path d="M201.806,11275.567C201.589,11258.048 203.295,11242.862 208.096,11234.25C223.961,11205.787 266.394,11207.395 266.394,11207.395C266.394,11207.395 308.827,11205.787 324.692,11234.25C329.492,11242.862 331.199,11258.048 330.982,11275.567C331.143,11275.698 331.299,11275.845 331.452,11276.009C334.562,11279.345 334.44,11290.203 329.807,11298.217C328.552,11312.824 326.42,11327.781 323.969,11341.076C325.114,11368.508 321.479,11394.147 321.479,11394.147C319.607,11387.092 319.175,11376.725 319.175,11376.725C319.031,11386.228 315.72,11394.579 315.72,11394.579C315.065,11390.979 314.596,11385.209 314.267,11379.43C313.885,11380.376 313.513,11381.213 313.153,11381.933C313.153,11381.933 312.25,11380.267 311.005,11377.788C309.883,11383.362 308.842,11387.418 308.842,11387.418C307.25,11381.048 306.618,11375.887 306.83,11368.813C305.441,11365.508 304.279,11362.241 303.933,11359.907C303.933,11359.907 303.677,11368.359 301.372,11372.457C301.372,11372.457 299.579,11368.359 297.274,11364.773C297.274,11364.773 289.079,11373.993 289.591,11381.933C289.591,11381.933 279.09,11376.042 279.346,11369.895C279.346,11369.895 277.298,11379.115 274.48,11382.445C274.48,11382.445 272.138,11373.225 266.394,11367.59C260.65,11373.225 258.308,11382.445 258.308,11382.445C255.49,11379.115 253.441,11369.895 253.441,11369.895C253.698,11376.042 243.197,11381.933 243.197,11381.933C243.709,11373.993 235.514,11364.773 235.514,11364.773C233.209,11368.359 231.416,11372.457 231.416,11372.457C229.111,11368.359 228.855,11359.907 228.855,11359.907C228.503,11362.278 227.309,11365.613 225.891,11368.972C225.654,11373.259 225.017,11377.101 223.946,11381.386C223.946,11381.386 223.401,11379.266 222.676,11375.985C220.995,11379.425 219.635,11381.933 219.635,11381.933C219.17,11381.002 218.684,11379.876 218.183,11378.572C217.891,11382.464 217.525,11386.034 217.068,11388.547C217.068,11388.547 213.757,11380.196 213.613,11370.693C213.613,11370.693 213.181,11381.06 211.309,11388.115C211.309,11388.115 208.117,11365.601 208.657,11340.195C206.274,11327.123 204.209,11312.502 202.981,11298.217C198.347,11290.203 198.225,11279.345 201.336,11276.009C201.489,11275.845 201.645,11275.698 201.806,11275.567Z" style="stroke:black;stroke-width:6.51px;"/>
            </g>
            <g transform="matrix(6.582843,0,0,6.582843,-4239.849894,-62850.870667)">
                <g transform="matrix(1.259197,0,0,1.259197,615.909711,-3340.782432)">
                    <path d="M266.394,11207.395C266.394,11207.395 308.827,11205.787 324.692,11234.25C340.557,11262.713 322.629,11362.98 313.153,11381.933C313.153,11381.933 304.958,11366.822 303.933,11359.907C303.933,11359.907 303.677,11368.359 301.372,11372.457C301.372,11372.457 299.579,11368.359 297.274,11364.773C297.274,11364.773 289.079,11373.993 289.591,11381.933C289.591,11381.933 279.09,11376.042 279.346,11369.895C279.346,11369.895 277.298,11379.115 274.48,11382.445C274.48,11382.445 272.138,11373.225 266.394,11367.59C260.65,11373.225 258.308,11382.445 258.308,11382.445C255.49,11379.115 253.441,11369.895 253.441,11369.895C253.698,11376.042 243.197,11381.933 243.197,11381.933C243.709,11373.993 235.514,11364.773 235.514,11364.773C233.209,11368.359 231.416,11372.457 231.416,11372.457C229.111,11368.359 228.855,11359.907 228.855,11359.907C227.83,11366.822 219.635,11381.933 219.635,11381.933C210.159,11362.98 192.231,11262.713 208.096,11234.25C223.961,11205.787 266.394,11207.395 266.394,11207.395Z" style="fill:rgb(84,34,42);"/>
                </g>
                <g transform="matrix(0.681145,0,0,0.684926,-1505.429041,2563.421428)">
                    <path d="M3514.164,12123.953C3514.164,12123.953 3495.977,12100.048 3486.571,12110.082C3477.164,12120.116 3483.749,12167.149 3516.672,12167.776L3514.164,12123.953Z" style="fill:rgb(212,160,123);"/>
                </g>
                <g transform="matrix(-0.681145,0,0,0.684926,3408.133076,2563.421428)">
                    <path d="M3514.164,12123.953C3514.164,12123.953 3495.977,12100.048 3486.571,12110.082C3477.164,12120.116 3483.749,12167.149 3516.672,12167.776L3514.164,12123.953Z" style="fill:rgb(212,160,123);"/>
                </g>
                <g transform="matrix(0.994852,-0.08256,0.08256,0.994852,-3618.201335,-917.606716)">
                    <path d="M3577.298,12235.607C3573.749,12235.156 3561.546,12233.117 3554.608,12225.814C3546.427,12217.202 3503.366,12171.988 3514.562,12116.009L3528,12089.312L3590.298,12084.992L3651.033,12099.522L3659.886,12128.069C3661.701,12185.128 3611.776,12222.625 3602.287,12229.771C3594.24,12235.83 3581.869,12235.83 3578.294,12235.69L3578.292,12235.718C3578.292,12235.718 3578.117,12235.703 3577.794,12235.667C3577.47,12235.65 3577.295,12235.635 3577.295,12235.635L3577.298,12235.607Z" style="fill:rgb(212,160,123);"/>
                </g>
                <g transform="matrix(1.049619,0,0,1.049619,644.194853,-618.148134)">
                    <path d="M240.016,10942.496C240.016,10942.496 254.662,10934.506 266.394,10939.423C278.125,10944.34 286.321,10953.56 283.043,10956.019C279.765,10958.478 278.945,10939.423 240.016,10942.496Z" style="fill:rgb(84,34,42);"/>
                </g>
                <g transform="matrix(-1.049619,0,0,1.049619,1258.509183,-618.148134)">
                    <path d="M240.016,10942.496C240.016,10942.496 254.662,10934.506 266.394,10939.423C278.125,10944.34 286.321,10953.56 283.043,10956.019C279.765,10958.478 278.945,10939.423 240.016,10942.496Z" style="fill:rgb(84,34,42);"/>
                </g>
                <g transform="matrix(0.15191,0,0,0.15191,849.333569,9594.364186)">
                    <path d="M501.154,8330.541C500.934,8342.555 498.603,8371.748 482.995,8406.309C482.995,8406.309 460.019,8371.112 452.687,8293.874C452.687,8293.874 434.599,8380.889 413.579,8407.775C413.579,8407.775 391.581,8385.288 398.913,8323.693C398.913,8323.693 390.603,8373.067 362.739,8420.485C362.739,8420.485 343.674,8392.621 342.207,8365.246C342.207,8365.246 334.874,8407.775 319.72,8429.285C319.72,8429.285 285.99,8372.578 285.012,8319.783C285.012,8319.783 254.445,8334.406 296.403,8663.078C338.361,8991.75 350.017,9070.12 319.713,9191.332C319.713,9191.332 287.769,9066.893 280.608,8967.835C280.608,8967.835 277.028,9171.92 262.706,9250.689C262.706,9250.689 235.256,9181.467 234.063,9102.698C234.063,9102.698 230.482,9188.628 214.967,9247.108C214.967,9247.108 182.52,9018.259 195.573,8781.429C208.627,8544.598 165.27,8590.005 146.622,8389.539C128.083,8190.25 197.085,7845.828 667.381,7841.787L667.382,7841.751C668.782,7841.751 670.178,7841.754 671.571,7841.76C672.964,7841.754 674.361,7841.751 675.761,7841.751L675.762,7841.787C1146.057,7845.828 1215.059,8190.25 1196.521,8389.539C1177.873,8590.005 1134.516,8594.598 1147.57,8831.429C1160.623,9068.259 1128.176,9297.108 1128.176,9297.108C1112.66,9238.628 1109.08,9152.698 1109.08,9152.698C1107.887,9231.467 1080.437,9300.689 1080.437,9300.689C1066.115,9221.92 1062.534,9017.835 1062.534,9017.835C1055.374,9116.893 1023.429,9241.332 1023.429,9241.332C993.126,9120.12 1004.781,9051.75 1046.739,8723.078C1088.698,8394.406 1058.131,8319.783 1058.131,8319.783C1057.153,8372.578 1023.423,8429.285 1023.423,8429.285C1008.268,8407.775 1000.936,8365.246 1000.936,8365.246C999.469,8392.621 980.404,8420.485 980.404,8420.485C952.54,8373.067 944.229,8323.693 944.229,8323.693C951.562,8385.288 929.564,8407.775 929.564,8407.775C908.543,8380.889 890.456,8293.874 890.456,8293.874C883.123,8371.112 860.147,8406.309 860.147,8406.309C844.539,8371.748 842.209,8342.555 841.989,8330.541C842.036,8328.608 842.06,8326.651 842.06,8324.671C842.06,8324.671 841.92,8326.751 841.989,8330.541C840.624,8386.832 820.062,8422.93 820.062,8422.93C800.997,8397.51 799.057,8358.722 799.057,8358.722C796.192,8385.456 780.916,8420.783 780.916,8420.783C758.001,8385.456 739.86,8311.938 739.86,8311.938C743.679,8368.27 723.629,8405.507 723.629,8405.507C697.408,8378.037 681.347,8328.615 671.571,8281.599C661.795,8328.615 645.735,8378.037 619.514,8405.507C619.514,8405.507 599.463,8368.27 603.283,8311.938C603.283,8311.938 585.142,8385.456 562.227,8420.783C562.227,8420.783 546.95,8385.456 544.086,8358.722C544.086,8358.722 542.146,8397.51 523.081,8422.93C523.081,8422.93 502.519,8386.832 501.154,8330.541C501.223,8326.751 501.083,8324.671 501.083,8324.671C501.083,8326.651 501.107,8328.608 501.154,8330.541Z" style="fill:rgb(107,41,47);"/>
                </g>
            </g>
        </g>
    </g>
</svg>
