<?xml version="1.0" encoding="UTF-8" standalone="no"?>
<!DOCTYPE svg PUBLIC "-//W3C//DTD SVG 1.1//EN" "http://www.w3.org/Graphics/SVG/1.1/DTD/svg11.dtd">
<svg width="100%" height="100%" viewBox="0 0 188 201" version="1.1" xmlns="http://www.w3.org/2000/svg" xmlns:xlink="http://www.w3.org/1999/xlink" xml:space="preserve" xmlns:serif="http://www.serif.com/" style="fill-rule:evenodd;clip-rule:evenodd;stroke-linecap:round;stroke-linejoin:round;stroke-miterlimit:1.5;">
    <g transform="matrix(1,0,0,1,-4919.915204,-13561.869567)">
        <g transform="matrix(1.335234,0,0,1.335234,3505.075229,-1058.753665)">
            <g transform="matrix(0.540936,0,0,0.543939,-821.152919,4428.94095)">
                <path d="M3497.646,12109.091C3498.573,12055.744 3519.221,12000.046 3599.514,11994.525C3694.621,11987.986 3715.367,12052.248 3715.417,12109.402C3719.621,12107.192 3723.882,12106.64 3727.109,12110.082C3735.123,12118.63 3731.53,12154.036 3709.93,12164.718C3706.691,12181.925 3703.219,12193.218 3703.219,12193.218C3703.965,12185.614 3703.371,12176.464 3702.143,12167.276C3702.091,12167.286 3702.038,12167.295 3701.986,12167.304C3683.552,12210.267 3650.523,12239.49 3641.898,12247.139C3630.88,12256.911 3612.811,12258.402 3607.572,12258.629L3607.572,12258.67C3607.572,12258.67 3607.315,12258.67 3606.84,12258.656C3606.364,12258.67 3606.107,12258.67 3606.107,12258.67L3606.107,12258.629C3600.869,12258.402 3582.799,12256.911 3571.781,12247.139C3563.471,12239.77 3532.511,12212.376 3513.773,12171.963C3512.582,12185.023 3512.172,12199.183 3514.186,12209.752C3514.186,12209.752 3507.473,12190.791 3502.592,12164.113C3482.023,12152.76 3478.702,12118.475 3486.571,12110.082C3489.64,12106.808 3493.644,12107.147 3497.646,12109.091Z" style="stroke:black;stroke-width:11.51px;"/>
            </g>
            <g>
                <g transform="matrix(0.540936,0,0,0.543939,-821.152919,4428.94095)">
                    <path d="M3514.164,12123.953C3514.164,12123.953 3495.977,12100.048 3486.571,12110.082C3477.164,12120.116 3483.749,12167.149 3516.672,12167.776L3514.164,12123.953Z" style="fill:rgb(219,174,133);"/>
                </g>
                <g transform="matrix(-0.540936,0,0,0.543939,3080.987672,4428.94095)">
                    <path d="M3514.164,12123.953C3514.164,12123.953 3495.977,12100.048 3486.571,12110.082C3477.164,12120.116 3483.749,12167.149 3516.672,12167.776L3514.164,12123.953Z" style="fill:rgb(219,174,133);"/>
                </g>
                <g transform="matrix(0.790069,-0.065566,0.065566,0.790069,-2499.026187,1664.457486)">
                    <path d="M3577.298,12235.607C3573.749,12235.156 3561.546,12233.117 3554.608,12225.814C3546.427,12217.202 3503.366,12171.988 3514.562,12116.009L3528,12089.312L3589.443,12095.294L3651.033,12099.522L3659.886,12128.069C3661.701,12185.128 3611.776,12222.625 3602.287,12229.771C3594.24,12235.83 3581.869,12235.83 3578.294,12235.69L3578.292,12235.718C3578.292,12235.718 3578.117,12235.703 3577.794,12235.667C3577.47,12235.65 3577.295,12235.635 3577.295,12235.635L3577.298,12235.607Z" style="fill:rgb(219,174,133);"/>
                </g>
                <g transform="matrix(-1,0,0,1,1932.273215,68.419497)">
                    <path d="M795.66,10969.225C795.66,10969.225 783.622,10957.7 771.329,10956.419C759.036,10955.139 755.819,10958.683 761.556,10961.142C767.293,10963.601 780.59,10961.408 795.66,10969.225Z" style="fill:rgb(51,67,99);"/>
                </g>
                <g transform="matrix(1,0,0,1,327.561538,68.419497)">
                    <path d="M795.66,10969.225C795.66,10969.225 783.622,10957.7 771.329,10956.419C759.036,10955.139 755.819,10958.683 761.556,10961.142C767.293,10963.601 780.59,10961.408 795.66,10969.225Z" style="fill:rgb(51,67,99);"/>
                </g>
                <g transform="matrix(0.684034,0.089339,-0.100198,0.767175,1674.694319,2549.994769)">
                    <path d="M811.389,10976.218C810.792,10975.268 789.865,10941.916 783.806,10923.992C783.806,10923.992 758.963,10949.603 761.524,10977.519C761.524,10977.519 754.097,10954.981 747.182,10947.554C747.182,10947.554 742.572,10970.604 753.329,10990.837C753.329,10990.837 744.354,10980.93 740.584,10967.817C740.584,10967.817 737.952,11001.779 744.434,11019.387C744.434,11019.387 667.298,10883.458 788.802,10861.621C918.519,10838.308 889.726,10990.744 889.726,10990.744C889.041,10971.994 873.716,10941.572 873.716,10941.572C875.205,10955.135 870.662,10967.706 870.662,10967.706C872.935,10944.905 859.922,10925.329 859.922,10925.329C856.343,10934.825 858.025,10958.495 858.025,10958.495C849.8,10931.695 817.096,10917.429 817.096,10917.429C818.293,10936.311 811.589,10975.111 811.397,10976.216L811.402,10976.238C811.402,10976.238 811.4,10976.235 811.395,10976.228C811.394,10976.236 811.393,10976.24 811.393,10976.24L811.389,10976.218Z" style="fill:rgb(41,57,90);"/>
                </g>
            </g>
        </g>
    </g>
</svg>
