<?xml version="1.0" encoding="UTF-8" standalone="no"?>
<!DOCTYPE svg PUBLIC "-//W3C//DTD SVG 1.1//EN" "http://www.w3.org/Graphics/SVG/1.1/DTD/svg11.dtd">
<svg width="100%" height="100%" viewBox="0 0 178 229" version="1.1" xmlns="http://www.w3.org/2000/svg" xmlns:xlink="http://www.w3.org/1999/xlink" xml:space="preserve" xmlns:serif="http://www.serif.com/" style="fill-rule:evenodd;clip-rule:evenodd;stroke-linecap:round;stroke-linejoin:round;stroke-miterlimit:1.5;">
    <g transform="matrix(1,0,0,1,-7535.259438,-13562.542906)">
        <g transform="matrix(1.259197,0,0,1.259197,7288.573442,-545.582739)">
            <g transform="matrix(0.540936,0,0,0.543939,-1684.676382,4688.865836)">
                <path d="M3487.439,12109.27C3487.038,12077.063 3490.193,12049.143 3499.067,12033.31C3528.396,11980.982 3606.84,11983.939 3606.84,11983.939C3606.84,11983.939 3685.283,11980.982 3714.612,12033.31C3723.486,12049.143 3726.641,12077.063 3726.24,12109.27C3726.537,12109.511 3726.827,12109.781 3727.109,12110.082C3732.859,12116.216 3732.633,12136.177 3724.068,12150.91C3718.443,12216 3703.304,12284.88 3693.281,12304.816C3693.281,12304.816 3678.13,12277.037 3676.236,12264.324C3676.236,12264.324 3675.763,12279.862 3671.502,12287.395C3671.502,12287.395 3668.187,12279.862 3663.926,12273.27C3663.926,12273.27 3648.776,12290.22 3649.723,12304.816C3649.723,12304.816 3630.311,12293.987 3630.784,12282.687C3630.784,12282.687 3626.996,12299.637 3621.788,12305.758C3621.788,12305.758 3617.458,12288.808 3606.84,12278.449C3596.222,12288.808 3591.891,12305.758 3591.891,12305.758C3586.683,12299.637 3582.895,12282.687 3582.895,12282.687C3583.368,12293.987 3563.957,12304.816 3563.957,12304.816C3564.903,12290.22 3549.753,12273.27 3549.753,12273.27C3545.492,12279.862 3542.177,12287.395 3542.177,12287.395C3537.916,12279.862 3537.443,12264.324 3537.443,12264.324C3535.549,12277.037 3520.398,12304.816 3520.398,12304.816C3510.375,12284.88 3495.236,12216 3489.611,12150.91C3481.046,12136.177 3480.82,12116.216 3486.571,12110.082C3486.853,12109.781 3487.142,12109.511 3487.439,12109.27Z" style="stroke:black;stroke-width:12.2px;"/>
            </g>
            <g>
                <g transform="matrix(0.540936,0,0,0.543939,-1684.676382,4688.865836)">
                    <path d="M3514.164,12123.953C3514.164,12123.953 3495.977,12100.048 3486.571,12110.082C3477.164,12120.116 3483.749,12167.149 3516.672,12167.776L3514.164,12123.953Z" style="fill:rgb(212,160,123);"/>
                </g>
                <g transform="matrix(-0.540936,0,0,0.543939,2217.464209,4688.865836)">
                    <path d="M3514.164,12123.953C3514.164,12123.953 3495.977,12100.048 3486.571,12110.082C3477.164,12120.116 3483.749,12167.149 3516.672,12167.776L3514.164,12123.953Z" style="fill:rgb(212,160,123);"/>
                </g>
                <path d="M266.394,11207.395C266.394,11207.395 308.827,11205.787 324.692,11234.25C340.557,11262.713 322.629,11362.98 313.153,11381.933C313.153,11381.933 304.958,11366.822 303.933,11359.907C303.933,11359.907 303.677,11368.359 301.372,11372.457C301.372,11372.457 299.579,11368.359 297.274,11364.773C297.274,11364.773 289.079,11373.993 289.591,11381.933C289.591,11381.933 279.09,11376.042 279.346,11369.895C279.346,11369.895 277.298,11379.115 274.48,11382.445C274.48,11382.445 272.138,11373.225 266.394,11367.59C260.65,11373.225 258.308,11382.445 258.308,11382.445C255.49,11379.115 253.441,11369.895 253.441,11369.895C253.698,11376.042 243.197,11381.933 243.197,11381.933C243.709,11373.993 235.514,11364.773 235.514,11364.773C233.209,11368.359 231.416,11372.457 231.416,11372.457C229.111,11368.359 228.855,11359.907 228.855,11359.907C227.83,11366.822 219.635,11381.933 219.635,11381.933C210.159,11362.98 192.231,11262.713 208.096,11234.25C223.961,11205.787 266.394,11207.395 266.394,11207.395Z" style="fill:rgb(150,107,73);"/>
                <g transform="matrix(0.790069,-0.065566,0.065566,0.790069,-3362.549651,1924.382372)">
                    <path d="M3577.298,12235.607C3573.749,12235.156 3561.546,12233.117 3554.608,12225.814C3546.427,12217.202 3503.366,12171.988 3514.562,12116.009L3528,12089.312L3590.298,12084.992L3651.033,12099.522L3659.886,12128.069C3661.701,12185.128 3611.776,12222.625 3602.287,12229.771C3594.24,12235.83 3581.869,12235.83 3578.294,12235.69L3578.292,12235.718C3578.292,12235.718 3578.117,12235.703 3577.794,12235.667C3577.47,12235.65 3577.295,12235.635 3577.295,12235.635L3577.298,12235.607Z" style="fill:rgb(212,160,123);"/>
                </g>
                <g transform="matrix(0.744877,0,0,0.744877,49.044465,3131.28856)">
                    <path d="M292.05,10859.222C292.05,10859.222 381.3,10857.332 369.499,10951.914C369.499,10951.914 364.581,10884.3 292.05,10883.317C219.52,10884.3 214.602,10951.914 214.602,10951.914C202.801,10857.332 292.05,10859.222 292.05,10859.222Z" style="fill:rgb(30,25,21);"/>
                </g>
                <g transform="matrix(1.00555,0,0,1.00555,-1.478496,-63.031984)">
                    <path d="M266.394,11235.004C266.394,11235.004 310.22,11231.329 324.37,11274.671C324.37,11274.671 324.518,11332.187 309.237,11356.832C309.237,11356.832 319.659,11308.456 315.169,11274.671C315.169,11274.671 306.747,11244.308 266.394,11244.458C226.041,11244.308 217.619,11274.671 217.619,11274.671C213.128,11308.456 223.551,11356.832 223.551,11356.832C208.27,11332.187 208.418,11274.671 208.418,11274.671C222.568,11231.329 266.394,11235.004 266.394,11235.004Z" style="fill:rgb(163,117,80);"/>
                </g>
                <g transform="matrix(0.833563,0,0,0.833563,22.462848,2162.199553)">
                    <path d="M240.016,10942.496C240.016,10942.496 254.662,10934.506 266.394,10939.423C278.125,10944.34 286.321,10953.56 283.043,10956.019C279.765,10958.478 278.945,10939.423 240.016,10942.496Z" style="fill:rgb(150,107,73);"/>
                </g>
                <g transform="matrix(-0.833563,0,0,0.833563,510.324978,2162.199553)">
                    <path d="M240.016,10942.496C240.016,10942.496 254.662,10934.506 266.394,10939.423C278.125,10944.34 286.321,10953.56 283.043,10956.019C279.765,10958.478 278.945,10939.423 240.016,10942.496Z" style="fill:rgb(150,107,73);"/>
                </g>
            </g>
        </g>
    </g>
</svg>
