<?xml version="1.0" encoding="UTF-8" standalone="no"?>
<!DOCTYPE svg PUBLIC "-//W3C//DTD SVG 1.1//EN" "http://www.w3.org/Graphics/SVG/1.1/DTD/svg11.dtd">
<svg width="100%" height="100%" viewBox="0 0 252 199" version="1.1" xmlns="http://www.w3.org/2000/svg" xmlns:xlink="http://www.w3.org/1999/xlink" xml:space="preserve" xmlns:serif="http://www.serif.com/" style="fill-rule:evenodd;clip-rule:evenodd;stroke-linecap:round;stroke-linejoin:round;stroke-miterlimit:1.5;">
    <g transform="matrix(1,0,0,1,-5289.661668,-13562.707519)">
        <g transform="matrix(0.555661,0,0,0.555661,4585.807013,7141.092925)">
            <g transform="matrix(1,0,0,1,976.894457,-345.149451)">
                <path d="M414.813,12202.149C402.817,12192.726 384.419,12175.534 371.823,12150.982C371.823,12150.982 354.487,12165.182 342.211,12190.824C342.211,12190.824 346.746,12156.64 345.468,12134.902C344.189,12113.164 340.353,12073.905 343.336,12033.222C343.336,12033.222 322.451,12047.523 297.303,12044.966C297.303,12044.966 348.877,11999.785 357.402,11974.637C365.927,11949.489 436.774,11885.98 516.008,11918.374C595.242,11885.98 666.09,11949.489 674.614,11974.637C683.139,11999.785 734.714,12044.966 734.714,12044.966C709.566,12047.523 688.68,12033.222 688.68,12033.222C691.664,12073.905 687.828,12113.164 686.549,12134.902C685.27,12156.64 689.805,12190.824 689.805,12190.824C677.53,12165.182 660.194,12150.982 660.194,12150.982C647.597,12175.534 629.199,12192.726 617.203,12202.149C576.354,12245.827 516.008,12252.209 516.008,12252.209C516.008,12252.209 455.663,12245.827 414.813,12202.149Z" style="stroke:black;stroke-width:15px;"/>
            </g>
            <g>
                <g transform="matrix(1,0,0,1,976.894457,-345.149451)">
                    <path d="M516.008,12252.209C516.008,12252.209 385.04,12238.357 378.381,12111.818L412.513,11959.472L514.077,11954.477L517.94,11954.477L619.504,11959.472L653.636,12111.818C646.976,12238.357 516.008,12252.209 516.008,12252.209Z" style="fill:rgb(206,156,112);"/>
                </g>
                <g transform="matrix(1,0,0,1,958.929882,-349.074801)">
                    <path d="M518.42,12107.268C518.42,12107.268 482.616,12089.534 454.996,12058.335L443.743,12075.215C443.743,12075.215 469.658,12105.904 518.42,12107.268Z" style="fill:rgb(83,57,41);"/>
                </g>
                <g transform="matrix(-1,0,0,1,2026.87555,-349.074801)">
                    <path d="M518.42,12107.268C518.42,12107.268 482.616,12089.534 454.996,12058.335L443.743,12075.215C443.743,12075.215 469.658,12105.904 518.42,12107.268Z" style="fill:rgb(83,57,41);"/>
                </g>
                <g transform="matrix(1,0,0,1,964.161696,-327.667116)">
                    <path d="M528.741,11976.548L471.153,11980.811L449.983,12063.213C449.983,12063.213 447.852,12111.164 461.172,12129.812C461.172,12129.812 441.78,12118.197 432.444,12093.646C432.444,12093.646 424.515,12120.371 450.622,12164.593C450.622,12164.593 435.704,12163.847 410.812,12149.867C410.812,12149.867 420.63,12178.465 439.59,12193.15C439.59,12193.15 404.674,12172.713 384.556,12133.499C384.556,12133.499 367.219,12147.699 354.944,12173.342C354.944,12173.342 359.479,12139.157 358.2,12117.419C356.922,12095.681 353.085,12056.422 356.069,12015.739C356.069,12015.739 335.184,12030.041 310.036,12027.484C310.036,12027.484 361.61,11982.303 370.135,11957.155C378.66,11932.007 449.507,11868.497 528.741,11900.891C607.975,11868.497 678.822,11932.007 687.347,11957.155C695.872,11982.303 747.446,12027.484 747.446,12027.484C722.298,12030.041 701.413,12015.739 701.413,12015.739C704.397,12056.422 700.56,12095.681 699.282,12117.419C698.003,12139.157 702.538,12173.342 702.538,12173.342C690.263,12147.699 672.926,12133.499 672.926,12133.499C652.808,12172.713 617.892,12193.15 617.892,12193.15C636.853,12178.465 646.67,12149.867 646.67,12149.867C621.778,12163.847 606.86,12164.593 606.86,12164.593C632.967,12120.371 625.038,12093.646 625.038,12093.646C615.702,12118.197 596.31,12129.812 596.31,12129.812C609.63,12111.164 607.499,12063.213 607.499,12063.213L586.329,11980.811L528.741,11976.548Z" style="fill:rgb(83,57,41);"/>
                </g>
                <g transform="matrix(1,0,0,1,964.161696,-327.667116)">
                    <path d="M593.518,12101.678C593.518,12101.678 599.059,12051.984 591.813,12032.377C584.567,12012.77 567.518,11965.032 529.156,11980.376C529.156,11980.376 520.205,11901.523 585.419,11940.737C650.634,11979.95 622.076,12054.616 593.518,12101.678Z" style="fill:rgb(90,66,46);"/>
                </g>
                <g transform="matrix(-1,0,0,1,2021.643736,-327.667116)">
                    <path d="M593.518,12101.678C593.518,12101.678 599.059,12051.984 591.813,12032.377C584.567,12012.77 567.518,11965.032 529.156,11980.376C529.156,11980.376 520.205,11901.523 585.419,11940.737C650.634,11979.95 622.076,12054.616 593.518,12101.678Z" style="fill:rgb(90,66,46);"/>
                </g>
            </g>
        </g>
    </g>
</svg>
