<?xml version="1.0" encoding="UTF-8" standalone="no"?>
<!DOCTYPE svg PUBLIC "-//W3C//DTD SVG 1.1//EN" "http://www.w3.org/Graphics/SVG/1.1/DTD/svg11.dtd">
<svg width="100%" height="100%" viewBox="0 0 180 234" version="1.1" xmlns="http://www.w3.org/2000/svg" xmlns:xlink="http://www.w3.org/1999/xlink" xml:space="preserve" xmlns:serif="http://www.serif.com/" style="fill-rule:evenodd;clip-rule:evenodd;stroke-linecap:round;stroke-linejoin:round;stroke-miterlimit:1.5;">
    <g transform="matrix(1,0,0,1,-5526.608181,-13763.058501)">
        <g transform="matrix(1,0,0,1,4664.789715,2995.715289)">
            <g transform="matrix(0.681145,0,0,0.684926,-1505.429041,2563.421428)">
                <path d="M3513.466,12286.017C3510.824,12296.954 3509.649,12306.936 3509.649,12306.936C3503.152,12295.138 3505.412,12262.271 3505.412,12262.271C3498.35,12276.597 3492.7,12311.993 3492.7,12311.993C3489.593,12299.913 3488.881,12283.463 3488.881,12283.463C3486.893,12292.992 3481.511,12297.846 3481.511,12297.846C3481.511,12297.846 3488.839,12244.795 3492.522,12178.558C3491.389,12169.366 3490.406,12160.1 3489.611,12150.91C3481.046,12136.177 3480.82,12116.216 3486.571,12110.082C3486.853,12109.781 3487.142,12109.511 3487.439,12109.27C3487.038,12077.063 3490.193,12049.143 3499.067,12033.31C3528.396,11980.982 3606.84,11983.939 3606.84,11983.939C3606.84,11983.939 3685.283,11980.982 3714.612,12033.31C3723.486,12049.143 3726.641,12077.063 3726.24,12109.27C3726.537,12109.511 3726.827,12109.781 3727.109,12110.082C3732.859,12116.216 3732.633,12136.177 3724.068,12150.91C3723.274,12160.1 3722.29,12169.366 3721.158,12178.558C3724.84,12244.795 3732.168,12297.846 3732.168,12297.846C3732.168,12297.846 3726.786,12292.992 3724.798,12283.463C3724.798,12283.463 3724.086,12299.913 3720.979,12311.993C3720.979,12311.993 3715.329,12276.597 3708.267,12262.271C3708.267,12262.271 3710.527,12295.138 3704.03,12306.936C3704.03,12306.936 3702.855,12296.954 3700.213,12286.017C3697.765,12294.151 3695.408,12300.586 3693.281,12304.816C3693.281,12304.816 3693.23,12304.723 3693.133,12304.544C3692.974,12304.906 3692.801,12305.236 3692.614,12305.532C3692.614,12305.532 3692.334,12304.229 3691.77,12301.978C3688.397,12295.549 3680.311,12279.597 3677.247,12268.807C3676.871,12275.65 3675.652,12287.151 3671.758,12297.174C3671.758,12297.174 3672.833,12291.285 3674.176,12280.064C3673.514,12282.781 3672.644,12285.376 3671.502,12287.395C3671.502,12287.395 3668.187,12279.862 3663.926,12273.27C3663.926,12273.27 3648.776,12290.22 3649.723,12304.816C3649.723,12304.816 3630.311,12293.987 3630.784,12282.687C3630.784,12282.687 3626.996,12299.637 3621.788,12305.758C3621.788,12305.758 3617.458,12288.808 3606.84,12278.449C3596.222,12288.808 3591.891,12305.758 3591.891,12305.758C3586.683,12299.637 3582.895,12282.687 3582.895,12282.687C3583.368,12293.987 3563.957,12304.816 3563.957,12304.816C3564.903,12290.22 3549.753,12273.27 3549.753,12273.27C3545.492,12279.862 3542.177,12287.395 3542.177,12287.395C3541.142,12285.565 3540.331,12283.263 3539.695,12280.826C3540.948,12291.474 3541.922,12297.174 3541.922,12297.174C3538.027,12287.151 3536.808,12275.65 3536.432,12268.807C3533.368,12279.597 3525.282,12295.549 3521.909,12301.978C3521.345,12304.229 3521.065,12305.532 3521.065,12305.532C3520.878,12305.236 3520.705,12304.906 3520.546,12304.544C3520.449,12304.723 3520.398,12304.816 3520.398,12304.816C3518.271,12300.586 3515.914,12294.151 3513.466,12286.017Z" style="stroke:black;stroke-width:12.2px;"/>
            </g>
            <g>
                <g transform="matrix(0.681145,0,0,0.684926,-1505.429041,2563.421428)">
                    <path d="M3514.164,12123.953C3514.164,12123.953 3495.977,12100.048 3486.571,12110.082C3477.164,12120.116 3483.749,12167.149 3516.672,12167.776L3514.164,12123.953Z" style="fill:rgb(212,160,123);"/>
                </g>
                <g transform="matrix(-0.681145,0,0,0.684926,3408.133076,2563.421428)">
                    <path d="M3514.164,12123.953C3514.164,12123.953 3495.977,12100.048 3486.571,12110.082C3477.164,12120.116 3483.749,12167.149 3516.672,12167.776L3514.164,12123.953Z" style="fill:rgb(212,160,123);"/>
                </g>
                <g transform="matrix(1.259197,0,0,1.259197,615.909711,-3340.782432)">
                    <path d="M266.394,11207.395C266.394,11207.395 308.827,11205.787 324.692,11234.25C340.557,11262.713 322.629,11362.98 313.153,11381.933C313.153,11381.933 304.958,11366.822 303.933,11359.907C303.933,11359.907 303.677,11368.359 301.372,11372.457C301.372,11372.457 299.579,11368.359 297.274,11364.773C297.274,11364.773 289.079,11373.993 289.591,11381.933C289.591,11381.933 279.09,11376.042 279.346,11369.895C279.346,11369.895 277.298,11379.115 274.48,11382.445C274.48,11382.445 272.138,11373.225 266.394,11367.59C260.65,11373.225 258.308,11382.445 258.308,11382.445C255.49,11379.115 253.441,11369.895 253.441,11369.895C253.698,11376.042 243.197,11381.933 243.197,11381.933C243.709,11373.993 235.514,11364.773 235.514,11364.773C233.209,11368.359 231.416,11372.457 231.416,11372.457C229.111,11368.359 228.855,11359.907 228.855,11359.907C227.83,11366.822 219.635,11381.933 219.635,11381.933C210.159,11362.98 192.231,11262.713 208.096,11234.25C223.961,11205.787 266.394,11207.395 266.394,11207.395Z" style="fill:rgb(95,27,20);"/>
                </g>
                <g transform="matrix(0.994852,-0.08256,0.08256,0.994852,-3618.201335,-917.606716)">
                    <path d="M3577.298,12235.607C3573.749,12235.156 3561.546,12233.117 3554.608,12225.814C3546.427,12217.202 3503.366,12171.988 3514.562,12116.009L3528,12089.312L3590.298,12084.992L3651.033,12099.522L3659.886,12128.069C3661.701,12185.128 3611.776,12222.625 3602.287,12229.771C3594.24,12235.83 3581.869,12235.83 3578.294,12235.69L3578.292,12235.718C3578.292,12235.718 3578.117,12235.703 3577.794,12235.667C3577.47,12235.65 3577.295,12235.635 3577.295,12235.635L3577.298,12235.607Z" style="fill:rgb(212,160,123);"/>
                </g>
                <g transform="matrix(1.049619,0,0,1.049619,644.194853,-618.148134)">
                    <path d="M240.016,10942.496C240.016,10942.496 254.662,10934.506 266.394,10939.423C278.125,10944.34 286.321,10953.56 283.043,10956.019C279.765,10958.478 278.945,10939.423 240.016,10942.496Z" style="fill:rgb(95,27,20);"/>
                </g>
                <g transform="matrix(-1.049619,0,0,1.049619,1258.509183,-618.148134)">
                    <path d="M240.016,10942.496C240.016,10942.496 254.662,10934.506 266.394,10939.423C278.125,10944.34 286.321,10953.56 283.043,10956.019C279.765,10958.478 278.945,10939.423 240.016,10942.496Z" style="fill:rgb(95,27,20);"/>
                </g>
                <g transform="matrix(1.173847,0,0,1.173847,601.642977,-1551.527112)">
                    <path d="M357.707,10532.261C361.106,10535.296 363.442,10543.613 363.138,10561.247C362.138,10619.272 370.641,10681.176 370.641,10681.176C370.641,10681.176 367.518,10678.343 366.365,10672.784C366.365,10672.784 365.951,10682.382 364.148,10689.43C364.148,10689.43 360.87,10668.778 356.772,10660.418C356.772,10660.418 358.084,10679.596 354.314,10686.48C354.314,10686.48 352.375,10669.925 347.69,10662.057C347.69,10662.057 350.572,10681.071 347.69,10685.66C347.69,10685.66 344.807,10672.179 338.865,10660.705C338.865,10660.705 339.07,10671.769 335.587,10680.784C335.587,10680.784 344.423,10632.113 337.139,10552.092C336.322,10547.878 335.871,10544.725 335.871,10544.725C336.816,10554.69 333.249,10569.796 333.249,10569.796C333.039,10566.544 329.577,10560.985 329.577,10560.985C328.633,10564.971 321.185,10570.426 321.185,10570.426C313.947,10565.915 307.548,10542.207 307.548,10542.207C308.072,10555.739 301.253,10570.531 301.253,10570.531C297.057,10566.125 294.959,10558.257 294.959,10558.257C293.805,10564.236 289.399,10569.377 289.399,10569.377C292.756,10560.355 287.616,10547.032 287.616,10547.032C283.525,10553.012 284.469,10570.636 284.469,10570.636C281.532,10565.705 280.692,10560.46 280.692,10560.46C277.65,10564.446 277.231,10572.943 277.231,10572.943C269.468,10568.223 266.74,10556.998 266.74,10556.998C265.377,10563.292 264.747,10575.146 264.747,10575.146C260.761,10568.642 259.281,10546.075 259.281,10546.075C250.958,10626.11 260.247,10680.784 260.247,10680.784C256.764,10671.769 256.969,10660.705 256.969,10660.705C251.027,10672.179 248.145,10685.66 248.145,10685.66C245.262,10681.071 248.145,10662.057 248.145,10662.057C243.459,10669.925 241.521,10686.48 241.521,10686.48C237.751,10679.596 239.062,10660.418 239.062,10660.418C234.964,10668.778 231.686,10689.43 231.686,10689.43C229.883,10682.382 229.47,10672.784 229.47,10672.784C228.316,10678.343 225.193,10681.176 225.193,10681.176C225.193,10681.176 233.697,10619.272 232.696,10561.247C231.696,10503.221 301.258,10503.358 301.258,10503.358C336.348,10504.955 351.406,10520.927 357.707,10532.261Z" style="fill:rgb(114,31,22);"/>
                </g>
            </g>
        </g>
    </g>
</svg>
