<?xml version="1.0" encoding="UTF-8" standalone="no"?>
<!DOCTYPE svg PUBLIC "-//W3C//DTD SVG 1.1//EN" "http://www.w3.org/Graphics/SVG/1.1/DTD/svg11.dtd">
<svg width="100%" height="100%" viewBox="0 0 166 201" version="1.1" xmlns="http://www.w3.org/2000/svg" xmlns:xlink="http://www.w3.org/1999/xlink" xml:space="preserve" xmlns:serif="http://www.serif.com/" style="fill-rule:evenodd;clip-rule:evenodd;stroke-linecap:round;stroke-linejoin:round;stroke-miterlimit:1.5;">
    <g transform="matrix(1,0,0,1,-6135.972293,-13561.785694)">
        <g transform="matrix(0.450899,0,0,0.450899,5540.773294,8719.45543)">
            <g transform="matrix(0.84618,0,0,0.84618,1070.500108,1892.575129)">
                <path d="M391.607,10870.25C377.43,10859.114 355.688,10838.797 340.801,10809.781C340.801,10809.781 320.314,10826.562 305.807,10856.866C305.807,10856.866 311.166,10816.468 309.655,10790.778C308.144,10765.089 303.611,10718.693 307.137,10670.615C307.137,10670.615 307.857,10666.27 309.187,10659.378C308.595,10459.988 511.197,10465.806 511.197,10465.806C511.197,10465.806 713.799,10459.988 713.208,10659.378C714.538,10666.27 715.258,10670.615 715.258,10670.615C718.784,10718.693 714.25,10765.089 712.739,10790.778C711.228,10816.468 716.587,10856.866 716.587,10856.866C702.08,10826.562 681.593,10809.781 681.593,10809.781C666.706,10838.797 644.964,10859.114 630.787,10870.25C622.057,10879.585 612.572,10887.479 602.892,10894.147C601.03,10900.758 597.232,10911.818 591.67,10916.453C583.487,10923.272 588.942,10931.183 582.804,10945.368C582.804,10945.368 575.576,10933.638 566.301,10933.093C566.301,10933.093 569.302,10953.825 564.664,10962.827C564.664,10962.827 556.48,10945.914 547.478,10942.913C547.478,10942.913 548.569,10951.37 541.204,10957.917C541.204,10957.917 537.658,10947.278 529.474,10944.277C529.474,10944.277 527.837,10965.282 523.2,10969.92C523.2,10969.92 516.653,10959.229 516.653,10948.616C516.653,10948.616 516.38,10949.733 511.197,10954.098C506.014,10949.733 505.741,10948.616 505.741,10948.616C505.741,10959.229 499.194,10969.92 499.194,10969.92C494.557,10965.282 492.92,10944.277 492.92,10944.277C484.736,10947.278 481.19,10957.917 481.19,10957.917C473.825,10951.37 474.916,10942.913 474.916,10942.913C465.914,10945.914 457.73,10962.827 457.73,10962.827C453.093,10953.825 456.093,10933.093 456.093,10933.093C446.818,10933.638 439.59,10945.368 439.59,10945.368C433.452,10931.183 438.908,10923.272 430.724,10916.453C425.162,10911.818 421.365,10900.758 419.502,10894.147C409.822,10887.479 400.338,10879.585 391.607,10870.25Z" style="stroke:black;stroke-width:21.84px;"/>
            </g>
            <g>
                <g transform="matrix(0.84618,0,0,0.84618,1070.500108,1892.575129)">
                    <path d="M510.205,10906.107L512.288,10901.313L604.219,10888.901C604.219,10888.901 599.854,10909.633 591.67,10916.453C583.487,10923.272 588.942,10931.183 582.804,10945.368C582.804,10945.368 575.576,10933.638 566.301,10933.093C566.301,10933.093 569.302,10953.825 564.664,10962.827C564.664,10962.827 556.48,10945.914 547.478,10942.913C547.478,10942.913 548.569,10951.37 541.204,10957.917C541.204,10957.917 537.658,10947.278 529.474,10944.277C529.474,10944.277 527.837,10965.282 523.2,10969.92C523.2,10969.92 516.653,10959.229 516.653,10948.616C516.653,10948.616 516.38,10949.733 511.197,10954.098C506.014,10949.733 505.741,10948.616 505.741,10948.616C505.741,10959.229 499.194,10969.92 499.194,10969.92C494.557,10965.282 492.92,10944.277 492.92,10944.277C484.736,10947.278 481.19,10957.917 481.19,10957.917C473.825,10951.37 474.916,10942.913 474.916,10942.913C465.914,10945.914 457.73,10962.827 457.73,10962.827C453.093,10953.825 456.093,10933.093 456.093,10933.093C446.818,10933.638 439.59,10945.368 439.59,10945.368C433.452,10931.183 438.908,10923.272 430.724,10916.453C422.54,10909.633 418.175,10888.901 418.175,10888.901L510.106,10901.313L510.205,10906.107Z" style="fill:rgb(49,25,34);"/>
                </g>
                <g transform="matrix(1,0,0,1,987.056718,-1111.383984)">
                    <path d="M516.008,12252.209C516.008,12252.209 385.04,12238.357 378.381,12111.818L412.513,11959.472L514.077,11954.477L517.94,11954.477L619.504,11959.472L653.636,12111.818C646.976,12238.357 516.008,12252.209 516.008,12252.209Z" style="fill:rgb(193,129,78);"/>
                </g>
                <g transform="matrix(1,0,0,1,969.092143,-1115.309335)">
                    <path d="M518.42,12107.268C518.42,12107.268 482.616,12089.534 454.996,12058.335L443.743,12075.215C443.743,12075.215 469.658,12105.904 518.42,12107.268Z" style="fill:rgb(64,38,48);"/>
                </g>
                <g transform="matrix(-1,0,0,1,2037.037811,-1115.309335)">
                    <path d="M518.42,12107.268C518.42,12107.268 482.616,12089.534 454.996,12058.335L443.743,12075.215C443.743,12075.215 469.658,12105.904 518.42,12107.268Z" style="fill:rgb(64,38,48);"/>
                </g>
                <g transform="matrix(1,0,0,1,974.323957,-1093.901649)">
                    <path d="M528.741,11976.548L471.153,11980.811L449.983,12063.213C449.983,12063.213 447.852,12111.164 461.172,12129.812C461.172,12129.812 441.78,12118.197 432.444,12093.646C432.444,12093.646 424.515,12120.371 450.622,12164.593C450.622,12164.593 435.704,12163.847 410.812,12149.867C410.812,12149.867 420.63,12178.465 439.59,12193.15C439.59,12193.15 404.674,12172.713 384.556,12133.499C384.556,12133.499 367.219,12147.699 354.944,12173.342C354.944,12173.342 359.479,12139.157 358.2,12117.419C356.922,12095.681 353.085,12056.422 356.069,12015.739C356.069,12015.739 361.61,11982.303 370.135,11957.155C378.66,11932.007 449.507,11868.497 528.741,11900.891C607.975,11868.497 678.822,11932.007 687.347,11957.155C695.872,11982.303 701.413,12015.739 701.413,12015.739C704.397,12056.422 700.56,12095.681 699.282,12117.419C698.003,12139.157 702.538,12173.342 702.538,12173.342C690.263,12147.699 672.926,12133.499 672.926,12133.499C652.808,12172.713 617.892,12193.15 617.892,12193.15C636.853,12178.465 646.67,12149.867 646.67,12149.867C621.778,12163.847 606.86,12164.593 606.86,12164.593C632.967,12120.371 625.038,12093.646 625.038,12093.646C615.702,12118.197 596.31,12129.812 596.31,12129.812C609.63,12111.164 607.499,12063.213 607.499,12063.213L586.329,11980.811L528.741,11976.548Z" style="fill:rgb(49,25,34);"/>
                </g>
                <g transform="matrix(1.017008,0,0,0.830871,-25.564602,1858.3871)">
                    <path d="M1503.065,10699.796C1503.065,10699.796 1688.094,10693.292 1669.883,10927.43C1669.883,10927.43 1575.588,10906.618 1503.065,10906.618C1430.542,10906.618 1336.246,10927.43 1336.246,10927.43C1318.036,10693.292 1503.065,10699.796 1503.065,10699.796Z" style="fill:rgb(138,35,3);"/>
                </g>
                <g transform="matrix(1,0,0,1,0,38.417205)">
                    <path d="M1674.003,10899.25C1553.234,10889.586 1452.896,10889.586 1332.127,10899.25C1332.127,10899.25 1374.531,10843.204 1503.065,10843.093C1631.599,10843.204 1674.003,10899.25 1674.003,10899.25Z" style="fill:rgb(183,121,2);"/>
                </g>
                <g transform="matrix(0.964591,0,0,1.043872,996.320552,-312.580396)">
                    <ellipse cx="525.346" cy="10692.505" rx="33.673" ry="31.115" style="fill:rgb(183,183,183);"/>
                    <clipPath id="_clip1">
                        <ellipse cx="525.346" cy="10692.505" rx="33.673" ry="31.115"/>
                    </clipPath>
                    <g clip-path="url(#_clip1)">
                        <g transform="matrix(0.979144,0,0,0.957972,-58.207177,449.306611)">
                            <rect x="561.593" y="10692.591" width="68.78" height="32.48" style="fill:rgb(0,108,187);"/>
                        </g>
                        <g transform="matrix(0.284015,0,0,0.284015,376.140358,7655.677731)">
                            <ellipse cx="525.346" cy="10692.505" rx="33.673" ry="31.115" style="fill:rgb(199,199,199);"/>
                        </g>
                    </g>
                </g>
                <g transform="matrix(1,0,0,1,986.557434,160.306694)">
                    <path d="M471.803,10898.466C493.579,10874.176 539.436,10874.176 561.213,10898.466C561.213,10898.466 554.628,10898.603 549.181,10896.508C549.181,10896.508 550.997,10904.609 554.489,10907.402C554.489,10907.402 546.248,10904.609 542.757,10900.698C542.757,10900.698 541.5,10906.844 538.287,10911.173C538.287,10911.173 531.583,10905.307 527.533,10903.212C527.533,10903.212 527.253,10911.453 523.762,10913.967C523.762,10913.967 518.867,10910.243 516.508,10906.416C514.148,10910.243 509.253,10913.967 509.253,10913.967C505.762,10911.453 505.482,10903.212 505.482,10903.212C501.432,10905.307 494.728,10911.173 494.728,10911.173C491.516,10906.844 490.259,10900.698 490.259,10900.698C486.767,10904.609 478.526,10907.402 478.526,10907.402C482.018,10904.609 483.834,10896.508 483.834,10896.508C478.387,10898.603 471.803,10898.466 471.803,10898.466Z" style="fill:rgb(49,25,34);"/>
                </g>
            </g>
        </g>
    </g>
</svg>
