<?xml version="1.0" encoding="UTF-8" standalone="no"?>
<!DOCTYPE svg PUBLIC "-//W3C//DTD SVG 1.1//EN" "http://www.w3.org/Graphics/SVG/1.1/DTD/svg11.dtd">
<svg width="100%" height="100%" viewBox="0 0 184 200" version="1.1" xmlns="http://www.w3.org/2000/svg" xmlns:xlink="http://www.w3.org/1999/xlink" xml:space="preserve" xmlns:serif="http://www.serif.com/" style="fill-rule:evenodd;clip-rule:evenodd;stroke-linecap:round;stroke-linejoin:round;stroke-miterlimit:1.5;">
    <g transform="matrix(1,0,0,1,-3717.5,-13362.7)">
        <g transform="matrix(0.332479,0,0,0.332479,2745.03,9668.59)">
            <path d="M3084.1,11150.9C3129.17,11129.9 3193.43,11113.4 3270.87,11130.8C3288.21,11134.7 3303.76,11141 3317.7,11149.1L3346.87,11135.5L3346.93,11135.6C3350.97,11134.7 3358.52,11140.1 3368.07,11150.1C3384.66,11158.4 3406.81,11181.7 3425.75,11212.6C3444.65,11243.4 3455.39,11273.6 3455.3,11292.2C3460.16,11305.8 3461.55,11315.2 3458.52,11318.2L3442.97,11334.6C3456.28,11366.2 3463.11,11405 3463.11,11405L3435.83,11417.4C3433.77,11439.7 3430.47,11474.3 3427.53,11501C3449.77,11526.4 3429.24,11575.5 3419.4,11592.5C3410.08,11608.6 3379.03,11606.1 3364.38,11604C3351.39,11617.6 3336.43,11630.6 3319.54,11645.5C3259.27,11698.8 3206.77,11697.5 3206.77,11697.5L3206.62,11697.5C3203.48,11697.5 3152.39,11697.1 3093.99,11645.5C3077.11,11630.6 3062.14,11617.6 3049.16,11604C3046.57,11604.3 3043.48,11604.7 3040.08,11605C3044.01,11612.8 3046.99,11618.2 3046.99,11618.2C3043.72,11614.6 3040.07,11610.2 3036.24,11605.3C3020.8,11606.2 3001.21,11604.7 2994.14,11592.5C2987.47,11581 2975.9,11554.8 2976.04,11531.1C2973.01,11528.7 2969.77,11525.5 2966.7,11521.3C2956.38,11507.4 2969.39,11479.2 2966.7,11461.2C2964.01,11443.3 2966.7,11420.4 2966.7,11420.4L2967.46,11416.7C2967.1,11417.2 2966.76,11417.7 2966.44,11418.2L2937.42,11405C2937.42,11405 2943.98,11367.8 2956.75,11336.5L2939.33,11318.2C2936.3,11315.2 2937.69,11305.8 2942.55,11292.2C2942.46,11273.6 2953.2,11243.4 2972.1,11212.6C2991.04,11181.7 3013.2,11158.4 3029.78,11150.1C3039.33,11140.1 3046.88,11134.7 3050.93,11135.6L3050.98,11135.5L3084.1,11150.9Z" style="stroke:black;stroke-width:25.06px;"/>
            <g>
                <g transform="matrix(1,0,0,1,-2.15952,-0.155442)">
                    <path d="M3059.09,11602.7C3059.09,11602.7 3008.63,11614 2996.3,11592.6C2983.96,11571.3 2954.81,11499.6 3014.24,11487.2L3059.09,11602.7Z" style="fill:rgb(224,185,119);"/>
                </g>
                <g transform="matrix(-1,0,0,1,6415.69,-0.155442)">
                    <path d="M3059.09,11602.7C3059.09,11602.7 3008.63,11614 2996.3,11592.6C2983.96,11571.3 2954.81,11499.6 3014.24,11487.2L3059.09,11602.7Z" style="fill:rgb(224,185,119);"/>
                </g>
                <path d="M3206.62,11697.5C3203.48,11697.5 3152.39,11697.1 3093.99,11645.5C3033.72,11592.2 2997.98,11564.2 2988.87,11438L3002.88,11303.5L3206.77,11286.7L3410.65,11303.5L3424.67,11438C3415.56,11564.2 3379.81,11592.2 3319.54,11645.5C3259.27,11698.8 3206.77,11697.5 3206.77,11697.5L3206.62,11697.5Z" style="fill:rgb(231,189,116);"/>
                <g transform="matrix(0.88942,0.45709,-0.45709,0.88942,6149.6,301.24)">
                    <rect x="2306.42" y="11313.8" width="159.568" height="36.968" style="fill:rgb(23,23,23);"/>
                </g>
                <g transform="matrix(-0.88942,0.45709,0.45709,0.88942,263.936,301.24)">
                    <rect x="2306.42" y="11313.8" width="159.568" height="36.968" style="fill:rgb(23,23,23);"/>
                </g>
                <path d="M3147.71,11521.3C3147.71,11521.3 3242.8,11368.5 3304.7,11343.9C3304.7,11343.9 3304.23,11478.3 3298.97,11514.2C3298.97,11514.2 3398.07,11451.7 3412.09,11429.2C3412.09,11429.2 3404.8,11536.3 3374.52,11594.6C3374.52,11594.6 3418.82,11559.9 3423.3,11534.1C3427.79,11508.3 3437.88,11395 3437.88,11395C3437.88,11395 3426.8,11165.8 3270.87,11130.8C3114.93,11095.7 3012.43,11198.2 3012.43,11198.2L2966.7,11420.4C2966.7,11420.4 2964.01,11443.3 2966.7,11461.2C2969.39,11479.2 2956.38,11507.4 2966.7,11521.3C2977.01,11535.2 2989.12,11538.4 2989.12,11538.4C2989.12,11538.4 3025.9,11594.9 3046.99,11618.2C3046.99,11618.2 3022.76,11573.8 3020.97,11558.1C3019.18,11542.4 3020.52,11524 3011.55,11517.8C3011.55,11517.8 3016.93,11432.5 3018.73,11407.4C3018.73,11407.4 3064.09,11477.3 3147.71,11521.3Z" style="fill:rgb(34,36,38);"/>
                <g transform="matrix(0.940922,0,0,0.940922,182.173,655.982)">
                    <path d="M3415.25,11402.3C3415.25,11402.3 3446.09,11421.6 3456.1,11438L3486.94,11424C3486.94,11424 3479.33,11380.7 3464.51,11346.7L3415.25,11402.3Z" style="fill:rgb(167,54,41);"/>
                </g>
                <g transform="matrix(-0.940922,0,0,0.940922,6218.36,655.982)">
                    <path d="M3415.25,11402.3C3415.25,11402.3 3446.09,11421.6 3456.1,11438L3486.94,11424C3486.94,11424 3479.33,11380.7 3464.51,11346.7L3415.25,11402.3Z" style="fill:rgb(167,54,41);"/>
                </g>
                <g transform="matrix(-0.32371,0.527456,0.459368,0.281923,-1335.66,6175.13)">
                    <path d="M3106.8,11919.4L3123.71,11750.5L3123.88,11750.5C3129.17,11732.7 3204.57,11718.5 3296.67,11718.5C3390.01,11718.5 3466.18,11733 3469.64,11751.2L3508.81,11919.4C3509.75,11921.3 3510.23,11923.2 3510.23,11925.2C3510.23,11925.3 3510.23,11925.4 3510.23,11925.5L3510.23,11925.6L3510.23,11925.6C3509.31,11952.2 3418.95,11973.7 3307.8,11973.7C3196.64,11973.7 3106.28,11952.2 3105.37,11925.6L3105.36,11925.6L3105.37,11925.5C3105.36,11925.4 3105.36,11925.3 3105.36,11925.2C3105.36,11923.2 3105.85,11921.3 3106.8,11919.4Z" style="fill:rgb(226,37,25);"/>
                </g>
                <g transform="matrix(-0.32371,0.527456,0.369744,0.226919,-262.768,6833.59)">
                    <path d="M3296.53,11635.1C3380.43,11635.1 3448.55,11666.8 3448.55,11705.9C3448.55,11745 3144.51,11745 3144.51,11705.9C3144.51,11666.8 3212.63,11635.1 3296.53,11635.1Z" style="fill:rgb(23,24,28);"/>
                </g>
                <g transform="matrix(0.32371,0.527456,-0.459368,0.281923,7733.51,6175.13)">
                    <path d="M3106.8,11919.4L3123.71,11750.5L3123.88,11750.5C3129.17,11732.7 3204.57,11718.5 3296.67,11718.5C3390.01,11718.5 3466.18,11733 3469.64,11751.2L3508.81,11919.4C3509.75,11921.3 3510.23,11923.2 3510.23,11925.2C3510.23,11925.3 3510.23,11925.4 3510.23,11925.5L3510.23,11925.6L3510.23,11925.6C3509.31,11952.2 3418.95,11973.7 3307.8,11973.7C3196.64,11973.7 3106.28,11952.2 3105.37,11925.6L3105.36,11925.6L3105.37,11925.5C3105.36,11925.4 3105.36,11925.3 3105.36,11925.2C3105.36,11923.2 3105.85,11921.3 3106.8,11919.4Z" style="fill:rgb(226,37,25);"/>
                </g>
                <g transform="matrix(0.32371,0.527456,-0.369744,0.226919,6660.62,6833.59)">
                    <path d="M3296.53,11635.1C3380.43,11635.1 3448.55,11666.8 3448.55,11705.9C3448.55,11745 3144.51,11745 3144.51,11705.9C3144.51,11666.8 3212.63,11635.1 3296.53,11635.1Z" style="fill:rgb(23,24,28);"/>
                </g>
                <g transform="matrix(0.940922,0,0,0.940922,183.42,652.106)">
                    <path d="M3084.42,11174.5C3084.42,11174.5 3189.24,11142.4 3326.9,11174.5L3330.03,11283.2C3330.03,11283.2 3215.05,11262.8 3080.51,11283.2L3084.42,11174.5Z" style="fill:rgb(48,52,53);"/>
                </g>
                <g transform="matrix(5.50788e-17,-0.899505,1.23873,7.58504e-17,-10715.1,14081.4)">
                    <text x="3143.48px" y="11282.2px" style="font-family:'Nexa-Heavy', 'Nexa';font-weight:900;font-size:137.814px;fill:rgb(233,39,17);">X</text>
                </g>
                <g transform="matrix(0.940922,0,0,-0.940922,183.42,21906.3)">
                    <path d="M3330.03,11305.6C3243.83,11321.6 3160.73,11321.2 3080.51,11305.6L3102.89,11293.2C3169.86,11300.5 3238.12,11300.4 3307.65,11293.2L3330.03,11305.6Z" style="fill:rgb(44,44,44);"/>
                </g>
            </g>
        </g>
    </g>
</svg>
