<?xml version="1.0" encoding="UTF-8" standalone="no"?>
<!DOCTYPE svg PUBLIC "-//W3C//DTD SVG 1.1//EN" "http://www.w3.org/Graphics/SVG/1.1/DTD/svg11.dtd">
<svg width="100%" height="100%" viewBox="0 0 199 201" version="1.1" xmlns="http://www.w3.org/2000/svg" xmlns:xlink="http://www.w3.org/1999/xlink" xml:space="preserve" xmlns:serif="http://www.serif.com/" style="fill-rule:evenodd;clip-rule:evenodd;stroke-linecap:round;stroke-linejoin:round;stroke-miterlimit:1.5;">
    <g transform="matrix(1,0,0,1,-7926.29,-13440.8)">
        <g transform="matrix(0.19621,0,0,0.19621,6619.34,11155.4)">
            <path d="M7195.39,11897.1C7210.72,11854 7231.84,11803.5 7257.72,11763.4C7257.72,11763.4 7367.44,11701 7500.81,11668.8C7500.81,11668.8 7392.98,11736.9 7316.36,11814.5C7316.36,11814.5 7289.1,11823.6 7240.67,11901.4C7243.75,11901.8 7246.88,11902.3 7250.07,11902.7C7255.13,11898.4 7260.97,11893.7 7267.65,11889C7404.12,11761.8 7639.28,11765.2 7639.28,11765.2C7643.29,11850.9 7633.23,11919.3 7616.1,11973.5C7617.75,11976.2 7619.37,11979.1 7620.94,11981.9C7620.94,11981.9 7619.21,11979.3 7615.66,11974.9C7596.3,12035.4 7568.11,12078.2 7540.97,12107.9C7555.53,12138.7 7568.08,12174.9 7575.54,12216.3C7575.54,12216.3 7553.07,12176 7515.8,12132.3C7504.06,12142.3 7493.2,12149.9 7484.2,12155.4C7482.01,12279.7 7462.85,12305.9 7457.32,12345.6C7458.9,12344.9 7460.47,12344.3 7462.04,12343.6C7496.85,12329.9 7587.65,12317 7633.81,12357.1C7633.81,12357.1 7579.33,12345 7505.17,12419.2C7505.17,12419.2 7603.54,12395.1 7651.97,12507.1C7651.97,12507.1 7579.33,12472.3 7475.66,12501.8C7475.66,12501.8 7550.57,12518.5 7577.06,12603.2C7577.06,12603.2 7524.85,12564.6 7427.99,12560.8C7427.99,12560.8 7466.58,12584.3 7477.17,12648.6C7477.17,12648.6 7419.66,12584.3 7269.83,12585.1C7269.83,12585.1 7227.81,12601 7167.1,12600.2L7165.68,12600.2C7105.73,12600.7 7064.36,12585.1 7064.36,12585.1C6914.53,12584.3 6857.02,12648.6 6857.02,12648.6C6867.61,12584.3 6906.21,12560.8 6906.21,12560.8C6809.35,12564.6 6757.13,12603.2 6757.13,12603.2C6783.62,12518.5 6858.53,12501.8 6858.53,12501.8C6754.86,12472.3 6682.22,12507.1 6682.22,12507.1C6730.65,12395.1 6829.02,12419.2 6829.02,12419.2C6754.86,12345 6700.38,12357.1 6700.38,12357.1C6746.54,12317 6837.35,12329.9 6872.15,12343.6C6873.72,12344.3 6875.29,12344.9 6876.87,12345.6C6871.35,12305.9 6852.19,12279.7 6849.99,12155.4C6797.74,12123.3 6682.87,12022.7 6694.91,11765.2C6694.91,11765.2 6947.31,11761.6 7080.91,11903.2C7129.86,11895.5 7167.1,11896.4 7167.1,11896.4L7167.32,11896.3C7168.96,11896.3 7179.33,11896.2 7195.39,11897.1Z" style="stroke:black;stroke-width:42.47px;"/>
            <g>
                <g transform="matrix(1,0,0,1,12.6957,2.95592)">
                    <path d="M6862.34,12165.4C6862.34,12165.4 6666.69,12094.4 6682.22,11762.2C6682.22,11762.2 6960.71,11758.2 7087.46,11922.8L6862.34,12165.4Z" style="fill:rgb(232,155,28);"/>
                    <clipPath id="_clip1">
                        <path d="M6862.34,12165.4C6862.34,12165.4 6666.69,12094.4 6682.22,11762.2C6682.22,11762.2 6960.71,11758.2 7087.46,11922.8L6862.34,12165.4Z"/>
                    </clipPath>
                    <g clip-path="url(#_clip1)">
                        <path d="M6860.45,12116.7C6860.45,12116.7 6674.11,12040.1 6731.81,11795.1C6731.81,11795.1 6925.71,11788.2 7045.84,11942.5L6860.45,12116.7Z" style="fill:rgb(237,235,223);"/>
                    </g>
                </g>
                <g transform="matrix(-1,0,0,1,14321.5,2.95592)">
                    <path d="M6862.34,12165.4C6862.34,12165.4 6666.69,12094.4 6682.22,11762.2C6682.22,11762.2 6960.71,11758.2 7087.46,11922.8L6862.34,12165.4Z" style="fill:rgb(232,155,28);"/>
                    <clipPath id="_clip2">
                        <path d="M6862.34,12165.4C6862.34,12165.4 6666.69,12094.4 6682.22,11762.2C6682.22,11762.2 6960.71,11758.2 7087.46,11922.8L6862.34,12165.4Z"/>
                    </clipPath>
                    <g clip-path="url(#_clip2)">
                        <path d="M6860.45,12116.7C6860.45,12116.7 6674.11,12040.1 6731.81,11795.1C6731.81,11795.1 6925.71,11788.2 7045.84,11942.5L6860.45,12116.7Z" style="fill:rgb(237,235,223);"/>
                    </g>
                </g>
                <path d="M6877.2,12389.5C6885.48,12305.5 6846.46,12319.7 6850.01,12104.5C6853.56,11889.3 7167.1,11896.4 7167.1,11896.4L7167.32,11896.3C7176.8,11896.2 7480.69,11892.7 7484.18,12104.5C7487.73,12319.7 7448.71,12305.5 7456.99,12389.5L7167.1,12471.1L6877.2,12389.5Z" style="fill:rgb(253,162,13);"/>
                <path d="M7165.68,12600.2C7105.73,12600.7 7064.36,12585.1 7064.36,12585.1C6914.53,12584.3 6857.02,12648.6 6857.02,12648.6C6867.61,12584.3 6906.21,12560.8 6906.21,12560.8C6809.35,12564.6 6757.13,12603.2 6757.13,12603.2C6783.62,12518.5 6858.53,12501.8 6858.53,12501.8C6754.86,12472.3 6682.22,12507.1 6682.22,12507.1C6730.65,12395.1 6829.02,12419.2 6829.02,12419.2C6754.86,12345 6700.38,12357.1 6700.38,12357.1C6746.54,12317 6837.35,12329.9 6872.15,12343.6C6906.96,12357.4 6945.56,12396.5 6986.42,12404.8C7027.28,12413.1 7040.9,12375.3 7084.03,12354.8C7127.17,12334.4 7167.1,12338.2 7167.1,12338.2L7167.21,12338.2C7169.59,12338 7208.37,12335 7250.16,12354.8C7293.29,12375.3 7306.91,12413.1 7347.77,12404.8C7388.64,12396.5 7427.23,12357.4 7462.04,12343.6C7496.85,12329.9 7587.65,12317 7633.81,12357.1C7633.81,12357.1 7579.33,12345 7505.17,12419.2C7505.17,12419.2 7603.54,12395.1 7651.97,12507.1C7651.97,12507.1 7579.33,12472.3 7475.66,12501.8C7475.66,12501.8 7550.57,12518.5 7577.06,12603.2C7577.06,12603.2 7524.85,12564.6 7427.99,12560.8C7427.99,12560.8 7466.58,12584.3 7477.17,12648.6C7477.17,12648.6 7419.66,12584.3 7269.83,12585.1C7269.83,12585.1 7227.81,12601 7167.1,12600.2L7165.68,12600.2Z" style="fill:rgb(237,235,223);"/>
                <path d="M7158.48,12352.7C7158.48,12352.7 7195.98,12351.5 7182.34,12365.7C7168.7,12380 7149.49,12382.5 7140.81,12371.9C7132.13,12361.4 7119.73,12353.3 7158.48,12352.7Z" style="fill:rgb(32,32,32);"/>
                <path d="M7167.1,11989.2C7167.1,11989.2 7200.97,11851.4 7257.72,11763.4C7257.72,11763.4 7367.44,11701 7500.81,11668.8C7500.81,11668.8 7392.98,11736.9 7316.36,11814.5C7316.36,11814.5 7282.31,11825.8 7222.72,11931.8C7222.72,11931.8 7270.02,11858 7416.63,11827.7C7416.63,11827.7 7557.57,11866.5 7620.94,11981.9C7620.94,11981.9 7550,11873.1 7386.36,11895.8C7386.36,11895.8 7294.61,11928.9 7252.99,11964.9C7252.99,11964.9 7351.36,11944.1 7438.39,11972.5C7438.39,11972.5 7546.22,12053.6 7575.54,12216.3C7575.54,12216.3 7497.98,12077.2 7392.04,12035.6C7392.04,12035.6 7298.33,11996.8 7185.33,12024.2" style="fill:rgb(255,176,45);"/>
            </g>
        </g>
    </g>
</svg>
