<?xml version="1.0" encoding="UTF-8" standalone="no"?>
<!DOCTYPE svg PUBLIC "-//W3C//DTD SVG 1.1//EN" "http://www.w3.org/Graphics/SVG/1.1/DTD/svg11.dtd">
<svg width="100%" height="100%" viewBox="0 0 167 201" version="1.1" xmlns="http://www.w3.org/2000/svg" xmlns:xlink="http://www.w3.org/1999/xlink" xml:space="preserve" xmlns:serif="http://www.serif.com/" style="fill-rule:evenodd;clip-rule:evenodd;stroke-linecap:round;stroke-linejoin:round;stroke-miterlimit:1.5;">
    <g transform="matrix(1,0,0,1,-2521.321133,-13160.44189)">
        <g transform="matrix(0.233241,0,0,0.233241,1937.917703,10782.610141)">
            <g transform="matrix(1,0,0,1,-23.335862,79.086146)">
                <path d="M2571.327,10569.281C2569.193,10565.09 2566.846,10560.899 2564.261,10556.716C2526.48,10495.546 2535.546,10284.19 2736.47,10221.298C2756.427,10170.385 2814.157,10133.539 2882.184,10133.539C2950.212,10133.539 3007.942,10170.385 3027.899,10221.298C3228.823,10284.19 3237.889,10495.546 3200.107,10556.716C3197.523,10560.899 3195.176,10565.09 3193.042,10569.281C3213.211,10572.015 3231.209,10582.62 3216.488,10615.378C3205.445,10639.951 3187.844,10662.334 3170.644,10680.384C3169.657,10707.818 3168.868,10732.049 3158.749,10750.448C3134.804,10793.983 3103.633,10879.78 3103.633,10879.78C3102.952,10854.917 3104.275,10826.669 3106.441,10799.424C3028.454,10929.578 2883.417,10956.009 2882.188,10956.231L2882.18,10956.231C2880.952,10956.009 2735.914,10929.578 2657.928,10799.424C2660.094,10826.669 2661.417,10854.917 2660.736,10879.78C2660.736,10879.78 2629.564,10793.983 2605.62,10750.448C2595.501,10732.049 2594.712,10707.818 2593.725,10680.384C2576.525,10662.334 2558.924,10639.951 2547.881,10615.378C2533.16,10582.62 2551.158,10572.015 2571.327,10569.281Z" style="stroke:black;stroke-width:35.73px;"/>
            </g>
            <g>
                <g transform="matrix(1,0,0,1,-23.335862,79.086146)">
                    <ellipse cx="2882.184" cy="10260.535" rx="153.177" ry="126.996" style="fill:rgb(66,35,72);"/>
                </g>
                <g transform="matrix(1,0,0,1,1.153995,1.065565)">
                    <path d="M2584.311,10648.644C2584.311,10648.644 2495.617,10631.595 2523.391,10693.398C2551.165,10755.202 2620.427,10803.153 2620.427,10803.153L2584.311,10648.644Z" style="fill:rgb(231,201,150);"/>
                </g>
                <g transform="matrix(-1,0,0,1,5716.543092,1.065565)">
                    <path d="M2584.311,10648.644C2584.311,10648.644 2495.617,10631.595 2523.391,10693.398C2551.165,10755.202 2620.427,10803.153 2620.427,10803.153L2584.311,10648.644Z" style="fill:rgb(231,201,150);"/>
                </g>
                <g transform="matrix(1,0,0,1,1680.93251,-294.911447)">
                    <path d="M1177.912,11330.228C1176.241,11329.927 908.663,11281.164 905.343,10989.043C902.118,10705.206 875.461,10607.258 1177.916,10610.467C1480.371,10607.258 1453.714,10705.206 1450.489,10989.043C1447.169,11281.164 1179.591,11329.927 1177.92,11330.228L1177.92,11330.23C1177.92,11330.23 1177.919,11330.229 1177.916,11330.229C1177.913,11330.229 1177.912,11330.23 1177.912,11330.23L1177.912,11330.228Z" style="fill:rgb(231,201,150);"/>
                </g>
                <g transform="matrix(0.817117,0,0,0.817117,1872.184385,1732.870695)">
                    <path d="M1207.494,10660.206C1203.799,10663.268 1199.091,10666.675 1193.093,10670.366C1166.497,10686.733 1123.532,10848.616 1145.91,10969.027C1145.91,10969.027 1038.286,10877.387 1034.023,10720.746C1034.023,10720.746 978.264,10930.083 915.661,11047.297C915.661,11047.297 939.21,11191.307 936.482,11290.911C936.482,11290.911 898.334,11185.911 869.031,11132.632C839.727,11079.353 874.359,10986.115 818.416,10895.54C762.878,10805.622 790.055,10450.525 1207.494,10463.634C1624.933,10450.525 1652.111,10805.622 1596.573,10895.54C1540.63,10986.115 1575.261,11079.353 1545.958,11132.632C1516.654,11185.911 1478.507,11290.911 1478.507,11290.911C1475.779,11191.307 1499.328,11047.297 1499.328,11047.297C1436.725,10930.083 1380.965,10720.746 1380.965,10720.746C1376.703,10877.387 1269.079,10969.027 1269.079,10969.027C1291.456,10848.616 1248.492,10686.733 1221.895,10670.366C1215.897,10666.675 1211.189,10663.268 1207.494,10660.206Z" style="fill:rgb(75,44,81);"/>
                </g>
                <g transform="matrix(0.735294,0,0,0.800893,1954.605271,1951.513616)">
                    <path d="M1190.643,10989.027C1190.643,10989.027 1107.101,10868.83 973.264,10896.961C973.264,10896.961 1065.33,10902.076 1190.643,10989.027Z" style="fill:rgb(66,35,72);"/>
                </g>
                <g transform="matrix(-0.735294,0,0,0.800893,3763.091816,1951.513616)">
                    <path d="M1190.643,10989.027C1190.643,10989.027 1107.101,10868.83 973.264,10896.961C973.264,10896.961 1065.33,10902.076 1190.643,10989.027Z" style="fill:rgb(66,35,72);"/>
                </g>
                <g transform="matrix(0.971983,-0.235051,0.235051,0.971983,-953.26029,342.469993)">
                    <path d="M1218.711,11055.948C1240.195,11054.839 1264.788,11063.619 1275.682,11068.05C1288.437,11049.041 1324.617,11035.318 1367.208,11035.318C1420.432,11035.318 1463.643,11056.748 1463.643,11083.144C1463.643,11109.54 1420.432,11130.97 1367.208,11130.97C1313.984,11130.97 1270.773,11109.54 1270.773,11083.144C1270.773,11082.689 1270.786,11082.236 1270.811,11081.784C1250.283,11070.369 1228.99,11068.46 1216.684,11068.511C1216.479,11068.981 1216.259,11069.445 1216.023,11069.904C1203.962,11093.383 1155.734,11092.701 1108.391,11068.381C1061.048,11044.062 1032.404,11005.255 1044.465,10981.776C1056.526,10958.297 1104.754,10958.979 1152.097,10983.299C1190.94,11003.252 1217.196,11032.957 1218.711,11055.948Z" style="fill:rgb(207,64,117);"/>
                    <clipPath id="_clip1">
                        <path d="M1218.711,11055.948C1240.195,11054.839 1264.788,11063.619 1275.682,11068.05C1288.437,11049.041 1324.617,11035.318 1367.208,11035.318C1420.432,11035.318 1463.643,11056.748 1463.643,11083.144C1463.643,11109.54 1420.432,11130.97 1367.208,11130.97C1313.984,11130.97 1270.773,11109.54 1270.773,11083.144C1270.773,11082.689 1270.786,11082.236 1270.811,11081.784C1250.283,11070.369 1228.99,11068.46 1216.684,11068.511C1216.479,11068.981 1216.259,11069.445 1216.023,11069.904C1203.962,11093.383 1155.734,11092.701 1108.391,11068.381C1061.048,11044.062 1032.404,11005.255 1044.465,10981.776C1056.526,10958.297 1104.754,10958.979 1152.097,10983.299C1190.94,11003.252 1217.196,11032.957 1218.711,11055.948Z"/>
                    </clipPath>
                    <g clip-path="url(#_clip1)">
                        <g transform="matrix(0.840416,0,0,0.765469,218.184858,2599.341225)">
                            <ellipse cx="1367.208" cy="11083.144" rx="96.435" ry="47.826" style="fill:rgb(238,181,228);"/>
                        </g>
                        <g transform="matrix(-0.747552,-0.384012,-0.349766,0.680886,6028.814958,4004.503429)">
                            <ellipse cx="1367.208" cy="11083.144" rx="96.435" ry="47.826" style="fill:rgb(238,181,228);"/>
                        </g>
                    </g>
                </g>
            </g>
        </g>
    </g>
</svg>
