<?xml version="1.0" encoding="UTF-8" standalone="no"?>
<!DOCTYPE svg PUBLIC "-//W3C//DTD SVG 1.1//EN" "http://www.w3.org/Graphics/SVG/1.1/DTD/svg11.dtd">
<svg width="100%" height="100%" viewBox="0 0 176 329" version="1.1" xmlns="http://www.w3.org/2000/svg" xmlns:xlink="http://www.w3.org/1999/xlink" xml:space="preserve" xmlns:serif="http://www.serif.com/" style="fill-rule:evenodd;clip-rule:evenodd;stroke-linecap:round;stroke-linejoin:round;stroke-miterlimit:1.5;">
    <g transform="matrix(1,0,0,1,-2315.81,-13637.6)">
        <g transform="matrix(1.57612,0,0,1.57612,-2004.86,-5985.91)">
            <path d="M2766.76,12554.5C2767.94,12558.8 2769.79,12561.2 2769.79,12561.2C2777.46,12572.3 2774.55,12574.5 2774.55,12574.5C2775.84,12577.1 2778.11,12580.3 2778.11,12580.3C2772.17,12577.2 2768.06,12569.9 2768.06,12569.9C2769.9,12579.8 2780.6,12593.8 2780.6,12593.8C2775.63,12590.1 2770.44,12581.3 2770.44,12581.3C2770.44,12581.3 2771.42,12588 2775.63,12596.3C2779.85,12604.6 2781.07,12612.2 2784.03,12628.9C2786.99,12645.5 2774.11,12656.5 2774.11,12656.5C2779.6,12649.6 2777.91,12639.4 2776.85,12631C2775.79,12622.5 2765.03,12607.1 2757.63,12589.6C2750.24,12572.1 2747.7,12553.3 2745.59,12539.2C2743.47,12525 2741.28,12508.9 2754.24,12483.7C2767.2,12458.6 2788.68,12453.7 2799.35,12453.2C2810.02,12452.6 2812.86,12457.6 2812.86,12457.6C2846.22,12460.2 2850.96,12509.2 2849.89,12523C2848.81,12536.8 2851.19,12548.9 2841.79,12568.4C2832.4,12587.8 2821.38,12593 2821.38,12593C2832.51,12584.1 2837.58,12564.6 2837.58,12564.6C2829.91,12581.9 2821.27,12582.3 2821.27,12582.3C2827.32,12579.6 2829.37,12575.7 2834.77,12566.5C2840.17,12557.3 2840.71,12548.3 2843.03,12540.9C2844.06,12537.6 2844.61,12534 2844.9,12530.5C2843.64,12534.7 2841.41,12538.6 2837.84,12541.2C2838.12,12543.4 2838.4,12546 2838.4,12547.6C2838.4,12548.2 2837.92,12548.7 2837.32,12548.7C2836.73,12548.7 2836.25,12548.2 2836.25,12547.6C2836.25,12546.2 2836.48,12543.9 2836.72,12541.9C2836.26,12542.1 2835.78,12542.4 2835.27,12542.6L2835.27,12542.6C2835.07,12543.1 2834.86,12543.7 2834.65,12544.2L2834.62,12544.2C2833.79,12548.9 2832.6,12552.5 2831.69,12553.6C2830.17,12555.4 2828.06,12559.2 2828.06,12559.2C2828.15,12557.3 2828.55,12555.8 2829.11,12554.2C2821.85,12564.7 2812.75,12570.4 2809.19,12573.5C2802.88,12579.2 2797,12578.3 2797,12578.3L2796.98,12578.3C2796.63,12578.3 2790.92,12579 2784.81,12573.5C2781.36,12570.5 2773.33,12564.7 2766.76,12554.5ZM2840.8,12515.3C2840.08,12515.6 2839.61,12516.2 2839.32,12517C2839.8,12516.4 2840.3,12515.8 2840.8,12515.3Z" style="stroke:black;stroke-width:5.29px;"/>
            <g>
                <g transform="matrix(0.759116,0,0,0.759116,818.641,3032.67)">
                    <path d="M2656.83,12501.5C2656.83,12501.5 2668.08,12481.5 2670.34,12492.1C2672.6,12502.7 2669.82,12525.4 2652.46,12529L2656.83,12501.5Z" style="fill:rgb(239,194,170);"/>
                </g>
                <path d="M2796.98,12578.3C2796.63,12578.3 2790.92,12579 2784.81,12573.5C2778.5,12567.9 2756.85,12553.2 2756.86,12519C2756.87,12484.9 2754.51,12485.2 2775.78,12485L2795.88,12486.2L2815.98,12485C2837.25,12485.2 2839.2,12486.2 2839.21,12520.3C2839.22,12554.5 2815.5,12567.9 2809.19,12573.5C2802.88,12579.2 2797,12578.3 2797,12578.3L2796.98,12578.3Z" style="fill:rgb(239,194,170);"/>
                <g transform="matrix(0.72896,0,0,0.72896,892.665,3412.67)">
                    <path d="M2623.9,12498.9C2623.9,12498.9 2632.54,12495.8 2639.3,12495.1C2646.05,12494.3 2651.48,12496.7 2651.48,12496.7C2651.48,12496.7 2647.93,12491 2639.96,12491.6C2631.99,12492.3 2628.11,12494.4 2623.9,12498.9" style="fill:rgb(56,39,31);"/>
                </g>
                <g transform="matrix(-0.72896,0,0,0.72896,4703.33,3412.67)">
                    <path d="M2623.9,12498.9C2623.9,12498.9 2632.54,12495.8 2639.3,12495.1C2646.05,12494.3 2651.48,12496.7 2651.48,12496.7C2651.48,12496.7 2647.93,12491 2639.96,12491.6C2631.99,12492.3 2628.11,12494.4 2623.9,12498.9" style="fill:rgb(56,39,31);"/>
                </g>
                <g transform="matrix(0.809062,0,0,0.809062,684.099,2409.31)">
                    <path d="M2633.93,12461.3C2633.93,12461.3 2635.85,12463.7 2638.6,12464.1C2641.35,12464.6 2653.32,12474.5 2654.28,12485.6C2655.24,12496.6 2658.43,12505.2 2656.52,12520.2C2654.61,12535.1 2650.3,12537.7 2649.93,12545.2C2649.93,12545.2 2652.55,12540.5 2654.42,12538.3C2656.28,12536.1 2659.09,12525.5 2659.27,12514.1C2659.45,12502.8 2660.44,12500.8 2661.19,12507.2C2661.94,12513.6 2661.19,12515.5 2661.19,12515.5C2661.19,12515.5 2664.4,12508.6 2664.29,12505.4C2664.18,12502.2 2661.3,12492.1 2666.21,12490.7C2671.12,12489.4 2671.34,12488.9 2671.23,12495.6C2671.13,12502.2 2671.31,12513.5 2668.44,12522.6C2665.58,12531.7 2664.9,12543 2658.23,12554.3C2651.55,12565.7 2649.02,12570.5 2641.54,12573.8C2641.54,12573.8 2652.22,12573.3 2661.7,12551.9C2661.7,12551.9 2655.43,12576.1 2641.68,12587C2641.68,12587 2655.3,12580.6 2666.91,12556.6C2678.52,12532.5 2675.58,12517.6 2676.91,12500.5C2678.24,12483.5 2672.38,12422.9 2631.14,12419.7C2631.14,12419.7 2627.63,12413.6 2614.45,12414.2C2601.26,12414.9 2574.71,12420.9 2558.7,12452C2542.68,12483 2545.39,12503 2548,12520.5C2550.61,12538 2553.75,12561.2 2562.89,12582.9C2572.02,12604.5 2585.33,12623.6 2586.64,12634C2587.95,12644.4 2590.04,12656.9 2583.26,12665.6C2583.26,12665.6 2599.16,12652 2595.51,12631.4C2591.85,12610.8 2590.35,12601.4 2585.13,12591.1C2579.92,12580.8 2578.72,12572.6 2578.72,12572.6C2578.72,12572.6 2585.13,12583.5 2591.28,12588C2591.28,12588 2578.05,12570.7 2575.78,12558.5C2575.78,12558.5 2580.85,12567.5 2588.2,12571.3C2588.2,12571.3 2585.39,12567.3 2583.79,12564.1C2583.79,12564.1 2587.4,12561.5 2577.91,12547.7C2577.91,12547.7 2570.83,12538.6 2573.63,12523.1C2573.63,12523.1 2574.97,12540.4 2581.65,12547.6C2581.65,12547.6 2575.5,12530.8 2575.63,12516.6C2575.63,12516.6 2577.51,12535.2 2588.33,12540.2C2588.33,12540.2 2577.5,12530.5 2579.77,12512.3C2582.03,12494.2 2593.12,12495.1 2608.61,12483.1C2608.61,12483.1 2601.93,12489.9 2597.93,12492.1C2597.93,12492.1 2608.61,12488 2612.35,12481.8C2612.35,12481.8 2611.55,12489.6 2604.43,12494.6C2604.43,12494.6 2622.8,12483.5 2633.93,12461.3Z" style="fill:rgb(59,44,37);"/>
                </g>
                <g transform="matrix(1,0,0,1,-0.81184,-2.10895)">
                    <path d="M2838.14,12539.5C2838.14,12539.5 2837.06,12546.6 2837.06,12549.7C2837.06,12550.3 2837.54,12550.8 2838.14,12550.8C2838.73,12550.8 2839.21,12550.3 2839.21,12549.7C2839.21,12546.6 2838.14,12539.5 2838.14,12539.5Z" style="fill:rgb(177,177,177);"/>
                </g>
            </g>
        </g>
    </g>
</svg>
