<?xml version="1.0" encoding="UTF-8" standalone="no"?>
<!DOCTYPE svg PUBLIC "-//W3C//DTD SVG 1.1//EN" "http://www.w3.org/Graphics/SVG/1.1/DTD/svg11.dtd">
<svg width="100%" height="100%" viewBox="0 0 193 205" version="1.1" xmlns="http://www.w3.org/2000/svg" xmlns:xlink="http://www.w3.org/1999/xlink" xml:space="preserve" xmlns:serif="http://www.serif.com/" style="fill-rule:evenodd;clip-rule:evenodd;stroke-linecap:square;stroke-miterlimit:1.5;">
    <g transform="matrix(1,0,0,1,-1905.714464,-13760.661123)">
        <g transform="matrix(0.605039,0,0,0.605039,-3594.039308,13438.206866)">
            <path d="M9173.6,799.045L9172.811,799.281C9172.811,799.281 9111.532,774.32 9103.817,717.591C9096.102,660.863 9114.623,548.086 9249,545.363L9249.786,545.38C9383.451,548.537 9401.882,660.976 9394.183,717.591C9386.468,774.32 9325.189,799.281 9325.189,799.281L9324.644,799.118C9321.298,827.781 9305.016,859.537 9249,858.511C9193.419,859.302 9177.078,827.621 9173.6,799.045Z" style="stroke:black;stroke-width:13.77px;"/>
            <g>
                <path d="M9172.811,799.281C9172.811,799.281 9111.532,774.32 9103.817,717.591C9096.102,660.863 9114.623,548.086 9249,545.363L9249.786,545.38C9383.451,548.537 9401.882,660.976 9394.183,717.591C9386.468,774.32 9325.189,799.281 9325.189,799.281L9249,776.5L9172.811,799.281Z" style="fill:rgb(235,235,235);"/>
                <clipPath id="_clip1">
                    <path d="M9172.811,799.281C9172.811,799.281 9111.532,774.32 9103.817,717.591C9096.102,660.863 9114.623,548.086 9249,545.363L9249.786,545.38C9383.451,548.537 9401.882,660.976 9394.183,717.591C9386.468,774.32 9325.189,799.281 9325.189,799.281L9249,776.5L9172.811,799.281Z"/>
                </clipPath>
                <g clip-path="url(#_clip1)">
                    <g transform="matrix(1,0,0,1,4.723419,0.907664)">
                        <ellipse cx="9389.277" cy="697.623" rx="24.507" ry="90.312" style="fill:rgb(194,71,47);"/>
                    </g>
                    <g transform="matrix(1,0,0,1,-285.276581,0.907664)">
                        <ellipse cx="9389.277" cy="697.623" rx="24.507" ry="90.312" style="fill:rgb(194,71,47);"/>
                    </g>
                    <g transform="matrix(1,0,0,1,2.995521,17.926302)">
                        <ellipse cx="9246.093" cy="603.68" rx="85.093" ry="76.244" style="fill:rgb(194,71,47);"/>
                    </g>
                </g>
                <path d="M9249,858.511C9148.22,859.945 9176.45,754.62 9176.45,754.62C9196.681,719.731 9302.438,720.426 9321.55,754.62C9321.55,754.62 9350.489,860.369 9249,858.511Z" style="fill:rgb(255,215,152);"/>
            </g>
        </g>
    </g>
</svg>
