<?xml version="1.0" encoding="UTF-8" standalone="no"?>
<!DOCTYPE svg PUBLIC "-//W3C//DTD SVG 1.1//EN" "http://www.w3.org/Graphics/SVG/1.1/DTD/svg11.dtd">
<svg width="100%" height="100%" viewBox="0 0 201 177" version="1.1" xmlns="http://www.w3.org/2000/svg" xmlns:xlink="http://www.w3.org/1999/xlink" xml:space="preserve" xmlns:serif="http://www.serif.com/" style="fill-rule:evenodd;clip-rule:evenodd;stroke-linecap:round;stroke-linejoin:round;stroke-miterlimit:1.5;">
    <g transform="matrix(1,0,0,1,-8729.18,-13251.7)">
        <g transform="matrix(1.05117,0,0,1.05117,-570.879,-208.993)">
            <path d="M8969.28,12829C8968.51,12807.7 8987.94,12808.1 8999.84,12810.7C9012.7,12813.6 9026.58,12826.1 9025.74,12840.8C9025.17,12850.6 9018.69,12854.5 9014.41,12856C9018.4,12861.2 9021.89,12867.2 9024.68,12874.3C9045.73,12927.7 9034.34,12970.3 8942.51,12969.3C8850.69,12970.3 8839.3,12927.7 8860.35,12874.3C8863.13,12867.2 8866.63,12861.2 8870.61,12856C8866.34,12854.5 8859.85,12850.6 8859.29,12840.8C8858.44,12826.1 8872.33,12813.6 8885.19,12810.7C8897.09,12808.1 8916.51,12807.7 8915.75,12829C8928.16,12826.2 8938.59,12826.4 8942.51,12826.6C8946.44,12826.4 8956.87,12826.2 8969.28,12829Z" style="stroke:black;stroke-width:7.93px;"/>
            <g>
                <g transform="matrix(1,0,0,1,0.130112,2.51461)">
                    <path d="M8874.23,12854.4C8874.23,12854.4 8860.01,12853.1 8859.16,12838.3C8858.32,12823.6 8872.19,12811.1 8885.06,12808.2C8897.92,12805.3 8919.59,12805.2 8915.02,12832.1L8874.23,12854.4Z" style="fill:rgb(76,33,20);"/>
                </g>
                <g transform="matrix(0.747461,4.16334e-17,-4.16334e-17,0.747461,2244.54,3242.76)">
                    <path d="M8874.23,12854.4C8874.23,12854.4 8860.01,12853.1 8859.16,12838.3C8858.32,12823.6 8872.19,12811.1 8885.06,12808.2C8897.92,12805.3 8919.59,12805.2 8915.02,12832.1L8874.23,12854.4Z" style="fill:rgb(249,116,122);"/>
                </g>
                <g transform="matrix(-1,0,0,1,17884.9,2.51461)">
                    <path d="M8874.23,12854.4C8874.23,12854.4 8860.01,12853.1 8859.16,12838.3C8858.32,12823.6 8872.19,12811.1 8885.06,12808.2C8897.92,12805.3 8919.59,12805.2 8915.02,12832.1L8874.23,12854.4Z" style="fill:rgb(76,33,20);"/>
                </g>
                <g transform="matrix(-0.747461,4.16334e-17,4.16334e-17,0.747461,15640.5,3242.76)">
                    <path d="M8874.23,12854.4C8874.23,12854.4 8860.01,12853.1 8859.16,12838.3C8858.32,12823.6 8872.19,12811.1 8885.06,12808.2C8897.92,12805.3 8919.59,12805.2 8915.02,12832.1L8874.23,12854.4Z" style="fill:rgb(249,116,122);"/>
                </g>
                <path d="M8942.51,12826.6C8952.6,12826.1 9005.55,12825.7 9024.68,12874.3C9045.73,12927.7 9034.34,12970.3 8942.51,12969.3C8850.69,12970.3 8839.3,12927.7 8860.35,12874.3C8879.48,12825.7 8932.43,12826.1 8942.51,12826.6Z" style="fill:rgb(219,129,42);"/>
                <path d="M8967.51,12911.4C8954.18,12903.3 8933.77,12903.6 8920.86,12911.4C8907.53,12919.4 8891.87,12930.6 8878.54,12926.8C8865.21,12923 8860.13,12908.7 8864.15,12891.4C8868.17,12874 8877.79,12840 8944.18,12840.2L8944.96,12840.2C9010.65,12840.2 9020.21,12874.1 9024.21,12891.4C9028.23,12908.7 9023.15,12923 9009.82,12926.8C8996.49,12930.6 8980.84,12919.4 8967.51,12911.4Z" style="fill:rgb(76,33,20);"/>
                <path d="M8945.74,12917.8C8955.52,12918.5 8963.23,12925.7 8963.23,12934.5C8963.23,12943.7 8954.69,12951.2 8944.18,12951.2C8933.67,12951.2 8925.14,12943.7 8925.14,12934.5C8925.14,12925.7 8932.84,12918.5 8942.63,12917.8L8944.18,12914L8945.74,12917.8Z" style="fill:rgb(76,33,20);"/>
            </g>
        </g>
    </g>
</svg>
