<?xml version="1.0" encoding="UTF-8" standalone="no"?>
<!DOCTYPE svg PUBLIC "-//W3C//DTD SVG 1.1//EN" "http://www.w3.org/Graphics/SVG/1.1/DTD/svg11.dtd">
<svg width="100%" height="100%" viewBox="0 0 201 198" version="1.1" xmlns="http://www.w3.org/2000/svg" xmlns:xlink="http://www.w3.org/1999/xlink" xml:space="preserve" xmlns:serif="http://www.serif.com/" style="fill-rule:evenodd;clip-rule:evenodd;stroke-linecap:round;stroke-linejoin:round;stroke-miterlimit:1.5;">
    <g transform="matrix(1,0,0,1,-5114.076084,-13162.025522)">
        <g transform="matrix(1.189578,0,0,1.189578,3462.556852,-267.794167)">
            <g transform="matrix(1,0,0,1,239.68872,16.040354)">
                <path d="M1219.585,11292.46C1221.971,11291.654 1226.399,11290.613 1233.028,11290.8C1239.781,11290.61 1244.249,11291.694 1246.603,11292.505C1256.967,11279.22 1271.959,11276.91 1284.565,11277.849C1294.015,11278.552 1299.301,11277.626 1301.571,11277.031L1302.305,11277.519C1302.632,11279.843 1303.82,11285.076 1308.119,11293.521C1314.172,11305.412 1317.914,11321.154 1307.776,11336.646C1307.776,11336.646 1307.735,11336.655 1307.656,11336.669C1307.106,11337.895 1304.525,11343.43 1298.797,11352.657C1297.116,11355.365 1295.461,11357.196 1293.929,11358.424C1296.109,11380.508 1309.27,11388.817 1309.27,11388.817C1305.546,11389.538 1299.779,11387.976 1299.779,11387.976C1299.9,11391.099 1297.377,11403.113 1295.695,11407.198C1294.013,11411.283 1291.25,11420.534 1291.25,11420.534C1290.409,11417.77 1287.405,11415.728 1287.405,11415.728C1286.084,11420.774 1282.599,11422.216 1282.599,11422.216C1279.716,11417.41 1280.797,11411.043 1280.797,11411.043C1278.436,11410.343 1276.839,11407.669 1276.144,11406.267C1261.1,11435.362 1234.727,11435.681 1233.148,11435.673L1233.074,11435.673C1231.493,11435.681 1205.022,11435.361 1189.993,11406.101C1189.347,11407.447 1187.717,11410.314 1185.259,11411.043C1185.259,11411.043 1186.34,11417.41 1183.457,11422.216C1183.457,11422.216 1179.973,11420.774 1178.651,11415.728C1178.651,11415.728 1175.648,11417.77 1174.807,11420.534C1174.807,11420.534 1172.043,11411.283 1170.361,11407.198C1168.679,11403.113 1166.157,11391.099 1166.277,11387.976C1166.277,11387.976 1160.51,11389.538 1156.786,11388.817C1156.786,11388.817 1169.947,11380.508 1172.127,11358.424C1170.595,11357.196 1168.94,11355.365 1167.259,11352.657C1160.725,11342.131 1158.286,11336.41 1158.286,11336.41L1158.291,11336.406C1148.347,11320.991 1152.081,11305.351 1158.103,11293.521C1162.402,11285.076 1163.59,11279.843 1163.918,11277.519L1164.652,11277.031C1166.921,11277.626 1172.207,11278.552 1181.658,11277.849C1194.249,11276.912 1209.222,11279.215 1219.585,11292.46Z" style="stroke:black;stroke-width:7.01px;"/>
            </g>
            <g>
                <g transform="matrix(1,0,0,1,239.68872,16.040354)">
                    <path d="M1233.074,11435.673C1231.491,11435.681 1204.963,11435.361 1189.942,11406.002C1174.492,11375.805 1167.45,11311.514 1233.111,11314.234C1298.773,11311.514 1291.73,11375.805 1276.28,11406.002C1261.26,11435.361 1234.732,11435.681 1233.148,11435.673C1233.124,11435.673 1233.099,11435.673 1233.074,11435.673Z" style="fill:rgb(227,186,144);"/>
                </g>
                <g transform="matrix(1,0,0,1,237.728863,16.950519)">
                    <path d="M1288.666,11356.655C1288.666,11356.655 1282.517,11396.677 1277.711,11404.486C1277.711,11404.486 1279.513,11409.171 1282.757,11410.132C1282.757,11410.132 1281.676,11416.5 1284.559,11421.305C1284.559,11421.305 1288.043,11419.864 1289.365,11414.818C1289.365,11414.818 1292.368,11416.86 1293.209,11419.623C1293.209,11419.623 1295.973,11410.373 1297.655,11406.288C1299.336,11402.203 1301.859,11390.189 1301.739,11387.066C1301.739,11387.066 1307.506,11388.627 1311.23,11387.907C1311.23,11387.907 1296.333,11378.502 1295.612,11353.109L1288.666,11356.655Z" style="fill:rgb(149,131,4);"/>
                </g>
                <g transform="matrix(-1,0,0,1,2707.70466,16.950519)">
                    <path d="M1288.666,11356.655C1288.666,11356.655 1282.517,11396.677 1277.711,11404.486C1277.711,11404.486 1279.513,11409.171 1282.757,11410.132C1282.757,11410.132 1281.676,11416.5 1284.559,11421.305C1284.559,11421.305 1288.043,11419.864 1289.365,11414.818C1289.365,11414.818 1292.368,11416.86 1293.209,11419.623C1293.209,11419.623 1295.973,11410.373 1297.655,11406.288C1299.336,11402.203 1301.859,11390.189 1301.739,11387.066C1301.739,11387.066 1307.506,11388.627 1311.23,11387.907C1311.23,11387.907 1296.333,11378.502 1295.612,11353.109L1288.666,11356.655Z" style="fill:rgb(149,131,4);"/>
                </g>
                <g transform="matrix(0.995441,-0.095377,0.095377,0.995441,-839.182868,193.232175)">
                    <path d="M1237.206,11327.014C1229.043,11327.226 1194.713,11329.225 1181.896,11347.738C1181.896,11347.738 1175.513,11349.85 1170.012,11338.748C1164.511,11327.646 1162.629,11321.718 1162.629,11321.718L1225.64,11284.49C1225.64,11284.49 1230.86,11282.137 1241.381,11283.445C1251.958,11284.159 1256.637,11287.46 1256.637,11287.46L1311.432,11335.976C1311.432,11335.976 1308.459,11341.438 1300.95,11351.294C1293.442,11361.149 1287.575,11357.864 1287.575,11357.864C1278.507,11337.254 1245.181,11328.772 1237.206,11327.014Z" style="fill:rgb(50,62,81);"/>
                </g>
                <g transform="matrix(0.885097,0.077006,-0.077006,0.885097,1242.28026,1224.516334)">
                    <path d="M1317.538,11261.015L1318.409,11261.492C1319.002,11264.065 1320.845,11269.817 1326.489,11278.868C1334.437,11291.611 1340.169,11308.897 1330.312,11327.259C1330.312,11327.259 1311.516,11332.932 1286.35,11319.712L1286.346,11319.719C1286.26,11319.671 1286.174,11319.622 1286.088,11319.574C1286.001,11319.528 1285.913,11319.481 1285.826,11319.435L1285.83,11319.428C1261.117,11305.378 1255.748,11286.493 1255.748,11286.493C1265.885,11268.285 1283.531,11263.779 1298.548,11263.592C1309.214,11263.458 1315.051,11261.905 1317.538,11261.015Z" style="fill:rgb(43,54,73);"/>
                    <clipPath id="_clip1">
                        <path d="M1317.538,11261.015L1318.409,11261.492C1319.002,11264.065 1320.845,11269.817 1326.489,11278.868C1334.437,11291.611 1340.169,11308.897 1330.312,11327.259C1330.312,11327.259 1311.516,11332.932 1286.35,11319.712L1286.346,11319.719C1286.26,11319.671 1286.174,11319.622 1286.088,11319.574C1286.001,11319.528 1285.913,11319.481 1285.826,11319.435L1285.83,11319.428C1261.117,11305.378 1255.748,11286.493 1255.748,11286.493C1265.885,11268.285 1283.531,11263.779 1298.548,11263.592C1309.214,11263.458 1315.051,11261.905 1317.538,11261.015Z"/>
                    </clipPath>
                    <g clip-path="url(#_clip1)">
                        <g transform="matrix(0.877426,0.479712,-0.479712,0.877426,5570.81644,771.699044)">
                            <path d="M1268.416,11263.402C1268.416,11263.402 1305.197,11275.31 1332.182,11262.639L1342.894,11280.003C1342.894,11280.003 1308.245,11289.448 1257.914,11279.358L1268.416,11263.402Z" style="fill:rgb(177,192,190);"/>
                        </g>
                    </g>
                </g>
                <g transform="matrix(-0.885097,0.077006,0.077006,0.885097,1703.319618,1224.516334)">
                    <path d="M1317.538,11261.015L1318.409,11261.492C1319.002,11264.065 1320.845,11269.817 1326.489,11278.868C1334.437,11291.611 1340.169,11308.897 1330.312,11327.259C1330.312,11327.259 1311.516,11332.932 1286.35,11319.712L1286.346,11319.719C1286.26,11319.671 1286.174,11319.622 1286.088,11319.574C1286.001,11319.528 1285.913,11319.481 1285.826,11319.435L1285.83,11319.428C1261.117,11305.378 1255.748,11286.493 1255.748,11286.493C1265.885,11268.285 1283.531,11263.779 1298.548,11263.592C1309.214,11263.458 1315.051,11261.905 1317.538,11261.015Z" style="fill:rgb(43,54,73);"/>
                    <clipPath id="_clip2">
                        <path d="M1317.538,11261.015L1318.409,11261.492C1319.002,11264.065 1320.845,11269.817 1326.489,11278.868C1334.437,11291.611 1340.169,11308.897 1330.312,11327.259C1330.312,11327.259 1311.516,11332.932 1286.35,11319.712L1286.346,11319.719C1286.26,11319.671 1286.174,11319.622 1286.088,11319.574C1286.001,11319.528 1285.913,11319.481 1285.826,11319.435L1285.83,11319.428C1261.117,11305.378 1255.748,11286.493 1255.748,11286.493C1265.885,11268.285 1283.531,11263.779 1298.548,11263.592C1309.214,11263.458 1315.051,11261.905 1317.538,11261.015Z"/>
                    </clipPath>
                    <g clip-path="url(#_clip2)">
                        <g transform="matrix(0.877426,0.479712,-0.479712,0.877426,5570.81644,771.699044)">
                            <path d="M1268.416,11263.402C1268.416,11263.402 1305.197,11275.31 1332.182,11262.639L1342.894,11280.003C1342.894,11280.003 1308.245,11289.448 1257.914,11279.358L1268.416,11263.402Z" style="fill:rgb(177,192,190);"/>
                        </g>
                    </g>
                </g>
                <g transform="matrix(1,0,0,1,240.115429,15.025645)">
                    <path d="M1226.353,11385.087L1226.485,11390.952L1202.082,11401.61L1177.913,11390.952L1177.913,11370.06L1201.613,11360.077L1226.016,11370.06L1226.171,11376.969C1228.465,11378.101 1233.83,11380.058 1239.196,11377.053L1239.353,11370.06L1263.756,11360.077L1287.456,11370.06L1287.456,11390.952L1263.287,11401.61L1238.884,11390.952L1238.998,11385.872C1236.597,11384.886 1231.443,11383.29 1226.353,11385.087Z" style="fill:rgb(132,130,128);"/>
                    <clipPath id="_clip3">
                        <path d="M1226.353,11385.087L1226.485,11390.952L1202.082,11401.61L1177.913,11390.952L1177.913,11370.06L1201.613,11360.077L1226.016,11370.06L1226.171,11376.969C1228.465,11378.101 1233.83,11380.058 1239.196,11377.053L1239.353,11370.06L1263.756,11360.077L1287.456,11370.06L1287.456,11390.952L1263.287,11401.61L1238.884,11390.952L1238.998,11385.872C1236.597,11384.886 1231.443,11383.29 1226.353,11385.087Z"/>
                    </clipPath>
                    <g clip-path="url(#_clip3)">
                        <g transform="matrix(0.888544,0,0,0.834708,140.787747,1881.157758)">
                            <path d="M1263.756,11360.077L1239.353,11370.06L1238.884,11390.952L1263.287,11401.61L1287.456,11390.952L1287.456,11370.06L1263.756,11360.077Z" style="fill:rgb(153,57,55);"/>
                        </g>
                        <g transform="matrix(-0.888544,0,0,0.834708,2324.581272,1881.157758)">
                            <path d="M1263.756,11360.077L1239.353,11370.06L1238.884,11390.952L1263.287,11401.61L1287.456,11390.952L1287.456,11370.06L1263.756,11360.077Z" style="fill:rgb(153,57,55);"/>
                        </g>
                    </g>
                </g>
            </g>
        </g>
    </g>
</svg>
