<?xml version="1.0" encoding="UTF-8" standalone="no"?>
<!DOCTYPE svg PUBLIC "-//W3C//DTD SVG 1.1//EN" "http://www.w3.org/Graphics/SVG/1.1/DTD/svg11.dtd">
<svg width="100%" height="100%" viewBox="0 0 165 201" version="1.1" xmlns="http://www.w3.org/2000/svg" xmlns:xlink="http://www.w3.org/1999/xlink" xml:space="preserve" xmlns:serif="http://www.serif.com/" style="fill-rule:evenodd;clip-rule:evenodd;stroke-linecap:round;stroke-linejoin:round;stroke-miterlimit:1.5;">
    <g transform="matrix(1,0,0,1,-6136.36,-13160.4)">
        <g transform="matrix(0.204548,0,0,0.204548,5923.27,11217.6)">
            <path d="M1128.09,10131.2C1126.85,10134.6 1126.07,10138.4 1126.32,10142.7C1126.32,10142.7 1112.9,10139.3 1093.27,10107.9C1073.65,10076.5 1052.34,10014.2 1066.92,9907.14C1081.5,9800.05 1148.95,9717.7 1195.39,9666.89C1241.82,9616.08 1308.4,9562.64 1342.57,9539.86C1376.73,9517.08 1398.63,9499.56 1466.09,9557.38C1466.09,9557.38 1516.03,9509.2 1556.33,9541.61C1596.62,9574.03 1704.38,9642.36 1739.42,9701.06C1774.47,9759.75 1837.54,9834.66 1822.21,9958.4C1806.88,10082.1 1790.93,10088.3 1783.28,10099.7C1778.04,10107.4 1770.02,10117 1763.09,10123.2C1764.99,10127.7 1766.39,10133.3 1766.94,10140.3C1769.81,10176.6 1741.39,10239.8 1724.57,10265.1C1724.57,10265.1 1672.14,10330.1 1621.04,10319.7L1606.02,10351.1C1606.02,10351.1 1504.2,10426.8 1479.82,10442.1C1455.44,10457.4 1454.29,10456.3 1446.85,10456.7C1446.84,10456.7 1446.83,10456.7 1446.83,10456.7C1440.92,10456.6 1437.5,10456.9 1413.88,10442.1C1389.5,10426.8 1287.68,10351.1 1287.68,10351.1L1272.66,10319.7C1221.56,10330.1 1169.13,10265.1 1169.13,10265.1C1152.31,10239.8 1123.89,10176.6 1126.76,10140.3C1127.02,10136.9 1127.48,10133.9 1128.09,10131.2Z" style="stroke:black;stroke-width:40.74px;"/>
            <g>
                <g transform="matrix(1,0,0,1,1.6302,-5.12597)">
                    <path d="M1153.84,10109.9C1153.84,10109.9 1128,10109.1 1125.13,10145.4C1122.26,10181.7 1150.68,10245 1167.5,10270.2C1167.5,10270.2 1228.05,10345.3 1282.44,10321.2L1191.05,10104.8L1153.84,10109.9Z" style="fill:rgb(250,204,174);"/>
                </g>
                <g transform="matrix(-1,0,0,1,2892.07,-5.12597)">
                    <path d="M1153.84,10109.9C1153.84,10109.9 1128,10109.1 1125.13,10145.4C1122.26,10181.7 1150.68,10245 1167.5,10270.2C1167.5,10270.2 1228.05,10345.3 1282.44,10321.2L1191.05,10104.8L1153.84,10109.9Z" style="fill:rgb(250,204,174);"/>
                </g>
                <g transform="matrix(1.0231,0,0,0.990722,-33.4275,95.9606)">
                    <path d="M1446.83,10457.7C1441.06,10457.7 1437.71,10458 1414.62,10443C1390.79,10427.6 1291.27,10351.2 1291.27,10351.2L1172.83,10095.4L1196.23,9914.05L1446.85,9904.46L1697.47,9914.05L1720.87,10095.4L1602.43,10351.2C1602.43,10351.2 1502.91,10427.6 1479.08,10443C1455.25,10458.4 1454.12,10457.4 1446.85,10457.7C1446.84,10457.7 1446.83,10457.7 1446.83,10457.7Z" style="fill:rgb(255,209,180);"/>
                </g>
                <g transform="matrix(1.11145,0,0,1,-174.762,-5.68434e-14)">
                    <rect x="1333.03" y="9850.34" width="235.037" height="92.221" style="fill:rgb(181,157,233);"/>
                </g>
                <g transform="matrix(1,0,0,1,-1.52966,-0.0206884)">
                    <path d="M1651.69,10179.4C1651.69,10179.4 1645.02,10155.2 1634.11,10145.4C1634.11,10145.4 1517.27,10193.3 1467.61,10230.5C1467.61,10230.5 1465.89,10237.8 1468.76,10242.4C1468.76,10242.4 1567.51,10195.6 1586.46,10189C1605.4,10182.4 1613.01,10171.3 1651.69,10179.4Z" style="fill:rgb(213,197,253);"/>
                </g>
                <g transform="matrix(-1,0,0,1,2895.23,-0.0206884)">
                    <path d="M1651.69,10179.4C1651.69,10179.4 1645.02,10155.2 1634.11,10145.4C1634.11,10145.4 1517.27,10193.3 1467.61,10230.5C1467.61,10230.5 1465.89,10237.8 1468.76,10242.4C1468.76,10242.4 1567.51,10195.6 1586.46,10189C1605.4,10182.4 1613.01,10171.3 1651.69,10179.4Z" style="fill:rgb(213,197,253);"/>
                </g>
                <path d="M1443.34,9920.44C1443.34,9920.44 1399.37,9974.82 1384.23,10029.8C1369.09,10084.7 1366.29,10179.5 1387.04,10230.5C1387.04,10230.5 1377.64,10034.1 1453.9,9940.62C1453.9,9940.62 1503.38,9972.47 1486.56,10210.3C1486.56,10210.3 1558.74,10024.7 1457.12,9916.82L1443.34,9920.44Z" style="fill:rgb(213,197,253);"/>
                <path d="M1446.85,9941.93C1446.85,9941.93 1423.12,9869.74 1395.79,9864.13C1368.45,9858.52 1340.42,9913.19 1325.7,9960.15C1310.98,10007.1 1306.78,10131.2 1314.49,10183C1314.49,10183 1295.56,10139.6 1289.96,10083.5C1289.96,10083.5 1289.96,10169.7 1301.87,10192.8C1301.87,10192.8 1290.81,10185.2 1287.36,10179.7C1287.36,10179.7 1271.29,10184 1257.22,10179.1C1257.22,10179.1 1246.31,10184.9 1223.06,10168.5C1223.06,10168.5 1189.47,10177.7 1172.25,10137.2C1172.25,10137.2 1172.82,10154.2 1136.94,10117.7C1136.94,10117.7 1125.46,10128 1126.32,10142.7C1126.32,10142.7 1112.9,10139.3 1093.27,10107.9C1073.65,10076.5 1052.34,10014.2 1066.92,9907.14C1081.5,9800.05 1148.95,9717.7 1195.39,9666.89C1241.82,9616.08 1308.4,9562.64 1342.57,9539.86C1376.73,9517.08 1398.63,9499.56 1466.09,9557.38C1466.09,9557.38 1516.03,9509.2 1556.33,9541.61C1596.62,9574.03 1704.38,9642.36 1739.42,9701.06C1774.47,9759.75 1837.54,9834.66 1822.21,9958.4C1806.88,10082.1 1790.93,10088.3 1783.28,10099.7C1775.64,10111 1762.12,10126.1 1754.62,10129.1C1747.13,10132 1735.37,10146 1735.22,10133.8C1735.22,10133.8 1725.96,10137 1721.55,10130.8C1721.55,10130.8 1704.85,10143.5 1696.61,10139.1C1696.61,10139.1 1670.89,10158.8 1675.74,10128.8C1675.74,10128.8 1659.87,10161.6 1644.99,10160.8C1644.99,10160.8 1658.17,10100 1655.87,10062.7C1655.87,10062.7 1635.2,10135.9 1604.78,10170.4C1604.78,10170.4 1612.53,10125.9 1612.24,10112.1C1612.24,10112.1 1591.57,10160.9 1572.62,10191.6C1572.62,10191.6 1596.74,10095.1 1595.88,10058.4C1595.88,10058.4 1563.15,10146.8 1535.02,10193.9C1535.02,10193.9 1571.75,10051.7 1562.64,9999.11C1553.53,9946.55 1537.81,9780.31 1446.85,9941.93Z" style="fill:rgb(221,208,254);"/>
            </g>
        </g>
    </g>
</svg>
