<?xml version="1.0" encoding="UTF-8" standalone="no"?>
<!DOCTYPE svg PUBLIC "-//W3C//DTD SVG 1.1//EN" "http://www.w3.org/Graphics/SVG/1.1/DTD/svg11.dtd">
<svg width="100%" height="100%" viewBox="0 0 201 207" version="1.1" xmlns="http://www.w3.org/2000/svg" xmlns:xlink="http://www.w3.org/1999/xlink" xml:space="preserve" xmlns:serif="http://www.serif.com/" style="fill-rule:evenodd;clip-rule:evenodd;stroke-linecap:round;stroke-linejoin:round;stroke-miterlimit:1.5;">
    <g transform="matrix(1,0,0,1,-6921.412381,-13557.565617)">
        <g transform="matrix(0.648323,0,0,0.648323,5516.188534,6453.102873)">
            <g transform="matrix(-1,0,0,1,4630.996213,0)">
                <path d="M2373.666,10987.662C2368.707,10979.576 2356.152,10963.1 2336.954,10964.759C2319.843,10966.238 2300.306,10964.721 2282.872,10969.455C2282.753,10969.454 2282.634,10969.453 2282.516,10969.452C2239.653,10969.139 2219.943,10991.978 2205.864,11001.364C2191.785,11010.75 2160.498,11015.756 2160.498,11015.756C2169.189,11028.792 2179.82,11039.501 2192.764,11047.765C2191.965,11052.455 2192.747,11058.068 2194.288,11062.998C2196.757,11070.899 2206.239,11083.864 2210.128,11088.982C2210.172,11089.293 2210.21,11089.601 2210.244,11089.905C2210.78,11094.726 2210.455,11100.466 2210.13,11106.631C2204.698,11108.089 2199.252,11112.481 2201.83,11124.789C2205.065,11140.238 2208.598,11153.81 2216.324,11161.98C2218.666,11169.452 2222.335,11176.081 2228.703,11180.01C2232.716,11182.486 2235.751,11184.776 2238.042,11186.797C2238.361,11188.063 2238.675,11189.304 2238.984,11190.516C2247.936,11225.713 2273.003,11240.012 2286.969,11255.045C2300.366,11269.463 2313.103,11269.714 2314.12,11269.711L2314.185,11269.711C2315.202,11269.714 2327.94,11269.463 2341.336,11255.045C2355.302,11240.012 2380.369,11225.713 2389.322,11190.516C2389.692,11189.059 2390.072,11187.56 2390.458,11186.026C2392.628,11184.2 2395.39,11182.176 2398.901,11180.01C2404.104,11176.8 2407.505,11171.788 2409.853,11165.987C2421.061,11158.839 2425.324,11143.138 2429.166,11124.789C2432.298,11109.834 2423.586,11106.567 2417.443,11106.048C2417.129,11100.104 2416.842,11094.574 2417.36,11089.905C2418.152,11082.779 2421.574,11073.399 2423.981,11067.47C2443.583,11065.766 2457.094,11055.49 2457.094,11055.49C2422.366,11038.908 2425.495,11012.314 2407.974,10993.23C2397.72,10982.06 2383.608,10984.072 2373.666,10987.662Z" style="stroke:black;stroke-width:12.85px;"/>
            </g>
            <g>
                <g transform="matrix(-1,0,0,1,4630.996213,0)">
                    <path d="M2219.038,11106.213C2219.038,11106.213 2197.137,11102.38 2201.83,11124.789C2206.523,11147.198 2211.842,11165.657 2229.675,11169.412L2219.038,11106.213Z" style="fill:rgb(225,178,132);"/>
                </g>
                <path d="M2219.038,11106.213C2219.038,11106.213 2197.137,11102.38 2201.83,11124.789C2206.523,11147.198 2211.842,11165.657 2229.675,11169.412L2219.038,11106.213Z" style="fill:rgb(225,178,132);"/>
                <g transform="matrix(0.976719,0,0,1,51.645487,0)">
                    <path d="M2319.157,11269.711C2318.115,11269.714 2305.074,11269.463 2291.359,11255.045C2277.06,11240.012 2251.395,11225.713 2242.229,11190.516C2233.063,11155.319 2218.764,11095.923 2218.764,11095.923L2218.398,11057.426L2317.696,11023.615L2317.69,11022.596L2319.19,11023.106L2320.69,11022.596L2320.684,11023.615L2419.982,11057.426L2419.616,11095.923C2419.616,11095.923 2405.317,11155.319 2396.151,11190.516C2386.985,11225.713 2361.32,11240.012 2347.021,11255.045C2333.306,11269.463 2320.265,11269.714 2319.223,11269.711C2319.201,11269.71 2319.179,11269.71 2319.157,11269.711Z" style="fill:rgb(225,178,132);"/>
                </g>
                <g transform="matrix(-1,0,0,1,4634.388162,0)">
                    <path d="M2213.52,11088.982C2213.563,11089.293 2213.602,11089.601 2213.636,11089.905C2214.887,11101.168 2211.446,11117.437 2214.261,11132.454C2217.077,11147.472 2217.39,11170.937 2232.095,11180.01C2246.799,11189.083 2248.364,11195.653 2248.364,11195.653C2248.364,11195.653 2243.671,11170.937 2236.788,11155.606C2229.905,11140.276 2233.346,11134.609 2235.223,11121.956C2237.101,11109.302 2232.721,11066.753 2227.402,11053.925L2226.65,11054.183L2230.218,11042.662L2204.563,11037.969C2194.551,11040.159 2194.551,11052.987 2197.68,11062.998C2200.148,11070.899 2209.631,11083.864 2213.52,11088.982Z" style="fill:rgb(85,36,36);"/>
                </g>
                <path d="M2204.563,11061.747C2204.563,11061.747 2212.384,11078.642 2213.636,11089.905C2214.887,11101.168 2211.446,11117.437 2214.261,11132.454C2217.077,11147.472 2217.39,11170.937 2232.095,11180.01C2246.799,11189.083 2248.364,11195.653 2248.364,11195.653C2248.364,11195.653 2243.671,11170.937 2236.788,11155.606C2229.905,11140.276 2233.346,11134.609 2235.223,11121.956C2237.101,11109.302 2232.721,11066.753 2227.402,11053.925L2204.563,11061.747Z" style="fill:rgb(85,36,36);"/>
                <path d="M2254.934,10991.978C2254.934,10991.978 2268.7,10962.569 2294.042,10964.759C2319.384,10966.949 2350.045,10962.569 2371.32,10981.654L2344.413,11000.425C2314.587,10999.566 2284.76,11000.555 2254.934,10991.978Z" style="fill:rgb(85,36,36);"/>
                <g transform="matrix(1,0,0,1,-2.32007,0)">
                    <path d="M2303.928,11136.253C2303.928,11136.253 2285.707,11119.234 2271.09,11112.225C2256.473,11105.217 2252.869,11107.42 2248.263,11111.224C2243.658,11115.029 2247.062,11119.434 2259.276,11119.033C2271.491,11118.633 2277.698,11120.635 2303.928,11136.253Z" style="fill:rgb(97,42,42);"/>
                </g>
                <g transform="matrix(-1,0,0,1,4636.00714,0)">
                    <path d="M2303.928,11136.253C2303.928,11136.253 2285.707,11119.234 2271.09,11112.225C2256.473,11105.217 2252.869,11107.42 2248.263,11111.224C2243.658,11115.029 2247.062,11119.434 2259.276,11119.033C2271.491,11118.633 2277.698,11120.635 2303.928,11136.253Z" style="fill:rgb(97,42,42);"/>
                </g>
                <path d="M2173.902,11055.49C2173.902,11055.49 2196.115,11072.384 2224.899,11066.44C2253.682,11060.496 2256.185,11062.06 2278.086,11043.288C2278.086,11043.288 2323.139,11070.82 2370.694,11067.691C2418.249,11064.563 2449.849,11046.729 2470.498,11015.756C2470.498,11015.756 2439.211,11010.75 2425.133,11001.364C2411.054,10991.978 2391.343,10969.139 2348.481,10969.452C2305.618,10969.765 2269.326,10993.542 2269.326,10993.542C2269.326,10993.542 2240.542,10974.145 2223.022,10993.23C2205.501,11012.314 2208.63,11038.908 2173.902,11055.49Z" style="fill:rgb(97,42,42);"/>
            </g>
        </g>
    </g>
</svg>
