<?xml version="1.0" encoding="UTF-8" standalone="no"?>
<!DOCTYPE svg PUBLIC "-//W3C//DTD SVG 1.1//EN" "http://www.w3.org/Graphics/SVG/1.1/DTD/svg11.dtd">
<svg width="100%" height="100%" viewBox="0 0 354 200" version="1.1" xmlns="http://www.w3.org/2000/svg" xmlns:xlink="http://www.w3.org/1999/xlink" xml:space="preserve" xmlns:serif="http://www.serif.com/" style="fill-rule:evenodd;clip-rule:evenodd;stroke-linecap:round;stroke-linejoin:round;stroke-miterlimit:1.5;">
    <g transform="matrix(1,0,0,1,-219.013,-13160.9)">
        <g transform="matrix(0.658714,0,0,0.658714,-506.68,5331.33)">
            <path d="M1324.06,11908.3L1336.02,11893.3L1369.43,11892.4L1369.43,11892.4L1369.87,11892.4L1370.3,11892.4L1370.3,11892.4L1403.71,11893.3L1415.67,11908.3C1431.65,11914.7 1441.74,11926.2 1448.03,11939.7C1474.76,11944.9 1498.01,11956.6 1498.01,11956.6C1511.8,11951.2 1552.06,11949.8 1552.06,11949.8C1566.7,11956.3 1586.96,11972.4 1586.96,11972.4C1610.61,11973.8 1631.72,11979.7 1631.72,11979.7C1612.86,11982 1578.8,11984.5 1578.8,11984.5C1563.88,11983.1 1535.73,11975.5 1535.73,11975.5C1500.26,11989.2 1467.33,11995.2 1467.33,11995.2C1464.68,11995 1461.57,11994.6 1458.09,11994.2C1458.31,12012.3 1456.67,12027.6 1457.7,12033.9C1461.13,12054.8 1458.39,12072.3 1454.62,12087.4C1450.85,12102.4 1448.1,12116.2 1458.39,12131.9C1468.68,12147.7 1473.82,12166.6 1464.91,12176.5C1455.99,12186.5 1450.85,12185.4 1434.38,12161.1C1434.23,12160.9 1434.08,12160.6 1433.93,12160.4C1426.98,12163.4 1402.57,12173.2 1372.38,12174.6L1372.38,12174.8C1371.16,12174.8 1369.94,12174.7 1368.73,12174.7C1367.52,12174.7 1366.3,12174.8 1365.08,12174.8L1365.08,12174.6C1337.06,12173.3 1314.03,12164.8 1305.3,12161.2C1288.87,12185.4 1283.73,12186.5 1274.82,12176.5C1265.9,12166.6 1271.05,12147.7 1281.34,12131.9C1291.63,12116.2 1288.88,12102.4 1285.11,12087.4C1281.34,12072.3 1278.6,12054.8 1282.02,12033.9C1283.06,12027.6 1281.42,12012.3 1281.64,11994.2C1278.16,11994.6 1275.04,11995 1272.4,11995.2C1272.4,11995.2 1239.47,11989.2 1204,11975.5C1204,11975.5 1175.85,11983.1 1160.93,11984.5C1160.93,11984.5 1126.87,11982 1108.01,11979.7C1108.01,11979.7 1129.12,11973.8 1152.77,11972.4C1152.77,11972.4 1173.03,11956.3 1187.67,11949.8C1187.67,11949.8 1227.93,11951.2 1241.72,11956.6C1241.72,11956.6 1264.97,11944.9 1291.7,11939.7C1298,11926.2 1308.08,11914.7 1324.06,11908.3ZM1422.44,12083.1C1422.34,12085 1422.25,12086.9 1422.18,12089C1421.91,12087.4 1421.65,12085.8 1421.4,12084.2C1421.75,12083.8 1422.1,12083.4 1422.44,12083.1Z" style="stroke:black;stroke-width:12.65px;"/>
            <g>
                <g transform="matrix(0.769507,0,0,0.769507,316.181,2749.33)">
                    <path d="M1369.87,11881.8L1413.28,11882.8L1459.73,11941.4C1498.88,11946.5 1535.83,11965.1 1535.83,11965.1C1553.75,11958.2 1606.06,11956.4 1606.06,11956.4C1625.09,11964.8 1651.42,11985.6 1651.42,11985.6C1682.15,11987.5 1709.59,11995.2 1709.59,11995.2C1685.08,11998.1 1640.82,12001.4 1640.82,12001.4C1621.43,11999.5 1584.85,11989.7 1584.85,11989.7C1538.75,12007.6 1495.95,12015.3 1495.95,12015.3C1463.83,12012.8 1377.12,11996.7 1369.3,11995.3C1361.47,11996.7 1274.77,12012.8 1242.64,12015.3C1242.64,12015.3 1199.84,12007.6 1153.75,11989.7C1153.75,11989.7 1117.17,11999.5 1097.78,12001.4C1097.78,12001.4 1053.51,11998.1 1029,11995.2C1029,11995.2 1056.44,11987.5 1087.17,11985.6C1087.17,11985.6 1113.51,11964.8 1132.53,11956.4C1132.53,11956.4 1184.84,11958.2 1202.77,11965.1C1202.77,11965.1 1239.72,11946.5 1278.86,11941.4L1325.32,11882.8L1368.73,11881.8L1368.73,11881.7L1369.3,11881.8L1369.87,11881.7L1369.87,11881.8Z" style="fill:rgb(164,133,32);"/>
                </g>
                <path d="M1367.56,11918.3L1405.76,11916.5L1435.91,11956L1429.41,12070.6C1421.87,12098.1 1367.68,12113.2 1367.68,12113.2L1367.44,12113.2C1367.44,12113.2 1313.25,12098.1 1305.71,12070.6L1299.21,11956L1329.36,11916.5L1367.56,11918.3Z" style="fill:rgb(248,216,186);"/>
                <path d="M1370.52,12039.4C1381.82,12041.2 1416.18,12048.8 1420.09,12075.7C1424.77,12108 1435.93,12159.5 1435.93,12159.5C1435.93,12159.5 1408.24,12172.9 1372.38,12174.6L1372.38,12174.8C1371.16,12174.8 1369.94,12174.7 1368.73,12174.7C1367.52,12174.7 1366.3,12174.8 1365.08,12174.8L1365.08,12174.6C1329.22,12172.9 1301.53,12159.5 1301.53,12159.5C1301.53,12159.5 1312.69,12108 1317.37,12075.7C1321.28,12048.8 1355.64,12041.2 1366.94,12039.4L1370.52,12039.4Z" style="fill:rgb(238,158,162);fill-opacity:0.44;"/>
                <path d="M1378.59,12015.3C1378.59,12015.3 1398.26,11995.7 1429.3,11997.9C1429.3,11997.9 1393.62,11985.1 1378.59,12015.3" style="fill:rgb(171,101,52);"/>
                <g transform="matrix(-1,0,0,1,2738.35,0)">
                    <path d="M1378.59,12015.3C1378.59,12015.3 1398.26,11995.7 1429.3,11997.9C1429.3,11997.9 1393.62,11985.1 1378.59,12015.3" style="fill:rgb(171,101,52);"/>
                </g>
                <path d="M1369.87,11903.5C1480.29,11892.4 1454.28,12013 1457.7,12033.9C1461.13,12054.8 1458.39,12072.3 1454.62,12087.4C1450.85,12102.4 1448.1,12116.2 1458.39,12131.9C1468.68,12147.7 1473.82,12166.6 1464.91,12176.5C1455.99,12186.5 1450.85,12185.4 1434.38,12161.1C1417.92,12136.7 1421.69,12080.5 1424.44,12061.3C1427.18,12042.1 1425.98,11959 1425.98,11959C1416.76,11953.1 1396.79,11934 1396.79,11934C1387.36,11935.8 1374.35,11940.1 1369.51,11941.9C1364.67,11940.1 1352.37,11935.8 1342.94,11934C1342.94,11934 1322.97,11953.1 1313.75,11959C1313.75,11959 1312.55,12042.1 1315.29,12061.3C1318.04,12080.5 1321.81,12136.7 1305.35,12161.1C1288.88,12185.4 1283.74,12186.5 1274.82,12176.5C1265.9,12166.6 1271.05,12147.7 1281.34,12131.9C1291.63,12116.2 1288.88,12102.4 1285.11,12087.4C1281.34,12072.3 1278.6,12054.8 1282.02,12033.9C1285.45,12013 1259.44,11892.4 1369.87,11903.5Z" style="fill:url(#_Linear1);"/>
            </g>
        </g>
    </g>
    <defs>
        <linearGradient id="_Linear1" x1="0" y1="0" x2="1" y2="0" gradientUnits="userSpaceOnUse" gradientTransform="matrix(-2.30524,285.214,-285.214,-2.30524,1369.86,11916.5)"><stop offset="0" style="stop-color:rgb(169,95,29);stop-opacity:1"/><stop offset="1" style="stop-color:rgb(105,51,2);stop-opacity:1"/></linearGradient>
    </defs>
</svg>
