<?xml version="1.0" encoding="UTF-8" standalone="no"?>
<!DOCTYPE svg PUBLIC "-//W3C//DTD SVG 1.1//EN" "http://www.w3.org/Graphics/SVG/1.1/DTD/svg11.dtd">
<svg width="100%" height="100%" viewBox="0 0 239 303" version="1.1" xmlns="http://www.w3.org/2000/svg" xmlns:xlink="http://www.w3.org/1999/xlink" xml:space="preserve" xmlns:serif="http://www.serif.com/" style="fill-rule:evenodd;clip-rule:evenodd;stroke-linecap:round;stroke-linejoin:round;stroke-miterlimit:1.5;">
    <g transform="matrix(1,0,0,1,-8746.12,-13424)">
        <g transform="matrix(1.44804,0,0,1.44804,-2826.24,-4300.86)">
            <path d="M8088.06,12265C8088.04,12262.6 8088.24,12260.2 8088.56,12257.5C8089.85,12246.7 8098.76,12245 8104.04,12243.7C8109.32,12242.4 8120.23,12246 8121.05,12253.2C8121.87,12260.4 8109.32,12257.5 8109.32,12257.5C8128.32,12255.7 8108.26,12245.7 8101.7,12251.4C8099.94,12253 8098.93,12255 8098.69,12257.2C8101.56,12256.4 8104.77,12256.4 8108.31,12257.7C8115.64,12260.4 8121.53,12266.2 8125.73,12274.5C8128.95,12272 8131.98,12269.7 8131.98,12269.7C8131.23,12271.7 8129.82,12276.8 8128.63,12281.4C8128.92,12282.2 8129.2,12283 8129.46,12283.9C8141.8,12282.9 8153.89,12275.4 8153.89,12275.4C8147.8,12284.7 8138.16,12288.4 8131.01,12289.8C8131.25,12290.9 8131.47,12292 8131.67,12293.2C8145.18,12295 8152.6,12289.9 8152.6,12289.9C8148.32,12299.3 8140.93,12302.5 8132.84,12302.3C8133.32,12308 8133.37,12314.2 8132.98,12320.6C8131.69,12341.8 8125.31,12375.8 8107.07,12400.3C8107.72,12425 8106.63,12446.4 8106.63,12446.4C8106.63,12446.4 8105.31,12433.6 8097.94,12410.7C8089.7,12418.6 8079.64,12424.7 8067.42,12427.9C8067.42,12427.9 8081.32,12419 8090.88,12396.8C8090.88,12396.8 8087.21,12401.7 8080.25,12408.2L8080.19,12412.9C8079.52,12417.5 8071.31,12418.4 8071.31,12418.4L8071.24,12415.8C8063.74,12421.5 8054.22,12427.5 8042.88,12431.8C8042.88,12431.8 8057.57,12422.3 8070.97,12406.4L8070.77,12399.5C8067.68,12403 8064,12406.3 8059.63,12409.5C8059.63,12409.5 8070.46,12397.3 8073.14,12363.5C8062.54,12381.2 8042.66,12385.9 8041.27,12386.2L8041.19,12386.2C8041.19,12386.2 8019.41,12381.7 8008.62,12362.5C8011.52,12376.4 8012.08,12388.7 8011.19,12396.1C8010.1,12405.2 8008.82,12414.4 8008.82,12414.4C8005.75,12412.9 8003.76,12413.4 8001.91,12408.2C8000.01,12402.9 8000.7,12388.6 8001.28,12383.4C8002.42,12373.1 7993.61,12343.6 7995.03,12325.4C7995.29,12322 7995.46,12317.5 7995.9,12312.5L7995,12313C7993.95,12311.2 7995.35,12308.6 7995.35,12308.6L7996.36,12307.9C7998.92,12286.3 8007.77,12257.9 8047.9,12257.7C8050.92,12257.7 8053.73,12257.9 8056.36,12258.2C8066.66,12258.6 8079.34,12264 8082.3,12269.9C8082.67,12270.7 8083.06,12271.4 8083.44,12272.1C8084.52,12270.1 8086.07,12267.5 8088.06,12265ZM8084.11,12374.4C8085.1,12376.7 8086.05,12378.9 8086.95,12381.1C8086.37,12382.3 8086.01,12383 8086.01,12383C8084.38,12386.6 8082.5,12390.1 8080.47,12393.3L8080.6,12384.4C8082.14,12381.1 8083.28,12377.7 8084.11,12374.4Z" style="stroke:black;stroke-width:5.75px;"/>
            <g>
                <path d="M8081.56,12276.2C8081.56,12276.2 8090.9,12251.4 8108.31,12257.7C8125.72,12264.1 8134.95,12288.3 8132.98,12320.6C8131.01,12353 8117.2,12415.1 8067.42,12427.9C8067.42,12427.9 8081.32,12419 8090.88,12396.8C8090.88,12396.8 8073.53,12420 8042.88,12431.8C8042.88,12431.8 8072.56,12412.6 8086.01,12383C8086.01,12383 8108.05,12340.7 8086.01,12306.4L8081.56,12276.2Z" style="fill:rgb(190,184,153);"/>
                <path d="M8041.19,12288.2C8041.19,12288.2 8076.77,12290.2 8076.77,12290.2L8076.99,12355.2C8068.53,12379.8 8042.86,12385.9 8041.27,12386.2L8041.19,12386.2C8041.19,12386.2 8014.12,12380.6 8005.38,12355.2L8005.6,12290.2L8041.19,12288.2Z" style="fill:rgb(201,170,163);"/>
                <clipPath id="_clip1">
                    <path d="M8041.19,12288.2C8041.19,12288.2 8076.77,12290.2 8076.77,12290.2L8076.99,12355.2C8068.53,12379.8 8042.86,12385.9 8041.27,12386.2L8041.19,12386.2C8041.19,12386.2 8014.12,12380.6 8005.38,12355.2L8005.6,12290.2L8041.19,12288.2Z"/>
                </clipPath>
                <g clip-path="url(#_clip1)">
                    <g transform="matrix(1,0,0,1,306.907,-25.6244)">
                        <path d="M7727.53,12362.9C7727.53,12362.9 7720.03,12356.1 7704.03,12352.3C7704.03,12352.3 7725.23,12354.1 7727.53,12362.9Z" style="fill:rgb(62,62,62);"/>
                    </g>
                    <g transform="matrix(-1,0,0,1,15775.5,-25.6244)">
                        <path d="M7727.53,12362.9C7727.53,12362.9 7720.03,12356.1 7704.03,12352.3C7704.03,12352.3 7725.23,12354.1 7727.53,12362.9Z" style="fill:rgb(62,62,62);"/>
                    </g>
                </g>
                <path d="M8008.82,12414.4C8008.82,12414.4 8010.1,12405.2 8011.19,12396.1C8012.28,12387 8011.19,12370.6 8006.28,12352.8C8006.28,12352.8 8011.26,12357.3 8014.87,12358.5C8014.87,12358.5 8005.67,12332.4 8010.45,12315.3L8014.99,12305.5C8014.99,12305.5 8045.26,12310.9 8058.42,12308.5L8089.97,12310.6C8089.97,12310.6 8100.78,12257.4 8047.9,12257.7C7995.03,12258 7996.45,12307.2 7995.03,12325.4C7993.61,12343.6 8002.42,12373.1 8001.28,12383.4C8000.7,12388.6 8000.01,12402.9 8001.91,12408.2C8003.76,12413.4 8005.75,12412.9 8008.82,12414.4Z" style="fill:rgb(199,193,161);"/>
                <path d="M8010.95,12310.8L8001.05,12304.8L7995.35,12308.6C7995.35,12308.6 7993.95,12311.2 7995,12313L8001.05,12309.4L8012.42,12315.5L8010.95,12310.8Z" style="fill:rgb(81,59,51);"/>
                <g transform="matrix(1.04301,0,0,1,-344.557,0)">
                    <path d="M8038.02,12310.9C8041.04,12307.2 8048.95,12297.6 8053.68,12292.2C8053.68,12292.2 8061.25,12302.1 8065.1,12310.7L8063.7,12315.5L8052.4,12320.6L8038.02,12315.8L8023.64,12320.6L8012.35,12315.5L8010.95,12310.7C8014.79,12302.1 8022.36,12292.2 8022.36,12292.2C8027.09,12297.6 8035,12307.2 8038.02,12310.9Z" style="fill:rgb(94,23,16);"/>
                </g>
                <path d="M8070.77,12399.5C8067.68,12403 8064,12406.3 8059.63,12409.5C8059.63,12409.5 8077.37,12389.6 8073.05,12329.9L8083.63,12341.1C8083.63,12341.1 8090.65,12362.3 8080.6,12384.4L8080.19,12412.9C8079.52,12417.5 8071.31,12418.4 8071.31,12418.4L8070.77,12399.5Z" style="fill:rgb(199,193,161);"/>
                <path d="M8041,12308.8C8041,12308.8 8037.1,12272.2 8043.64,12262.6C8050.18,12252.9 8077.75,12260.9 8082.3,12269.9C8086.85,12279 8092.18,12283.7 8098.22,12310.4C8104.26,12337 8103.74,12356.9 8104.81,12365.9C8108.95,12400.7 8106.63,12446.4 8106.63,12446.4C8106.63,12446.4 8102.88,12410.1 8072.82,12350.4C8058.47,12321.8 8060.55,12315.4 8054.87,12295.8L8041,12308.8Z" style="fill:rgb(214,208,176);"/>
                <g transform="matrix(0.813417,0,0,0.813417,1503.29,2286.55)">
                    <path d="M8121.33,12258.1C8121.33,12258.1 8136.76,12261.6 8135.75,12252.8C8134.74,12244 8121.33,12239.6 8114.84,12241.1C8108.35,12242.7 8097.39,12244.9 8095.81,12258.1C8094.22,12271.4 8094.96,12281.1 8107.28,12293.3C8119.6,12305.6 8160.55,12328.5 8174.54,12298C8174.54,12298 8160.84,12307.3 8136.47,12299C8136.47,12299 8163,12300.1 8176.12,12280.1C8176.12,12280.1 8145.12,12299.4 8126.95,12285.8C8108.78,12272.3 8103.88,12257.7 8111.95,12250.7C8120.03,12243.6 8144.69,12255.8 8121.33,12258.1Z" style="fill:rgb(93,24,23);"/>
                </g>
                <g transform="matrix(0.813417,0,0,0.813417,1503.29,2286.55)">
                    <path d="M8142.63,12297C8142.63,12297 8147.43,12277.7 8149.18,12273.1C8149.18,12273.1 8139.86,12280.3 8135.06,12284C8135.06,12284 8134.14,12274.3 8132.85,12269.6C8132.85,12269.6 8127.59,12275.4 8121.96,12281.7C8121.96,12281.7 8117.53,12276.6 8114.67,12273.1C8114.67,12273.1 8114.11,12283.8 8112.36,12291.1C8112.36,12291.1 8103.78,12291 8103.87,12298.3C8103.96,12305.7 8102.95,12315 8102.95,12315C8102.95,12315 8111.9,12307.7 8115.5,12306C8115.5,12306 8119.56,12323.1 8119.83,12327.3C8119.83,12327.3 8124.54,12316.4 8129.25,12312C8129.25,12312 8136.26,12310.8 8147.61,12316.5C8147.61,12316.5 8144.66,12309 8139.31,12301.9L8142.63,12297Z" style="fill:rgb(54,94,68);"/>
                </g>
                <g transform="matrix(0.813417,0,0,0.813417,1503.29,2286.55)">
                    <path d="M8120.17,12294.3C8120.17,12294.3 8119.31,12291.2 8121.33,12288C8123.35,12284.8 8124.5,12281.7 8124.5,12281.7C8124.5,12281.7 8127.38,12284.7 8130.12,12285.8C8132.86,12287 8133.01,12291.9 8133.01,12291.9C8133.01,12291.9 8137.91,12291.9 8140.65,12293.9C8143.39,12295.9 8144.54,12298 8144.54,12298C8144.54,12298 8141.66,12300 8140.51,12302.3C8139.35,12304.6 8135.46,12306.3 8135.46,12306.3C8135.46,12306.3 8135.03,12310.4 8132.72,12312.2C8130.41,12314.1 8128.68,12318.7 8128.68,12318.7C8128.68,12318.7 8126.95,12316.8 8125.08,12315C8123.2,12313.1 8121.62,12309.3 8121.62,12309.3C8121.62,12309.3 8118.44,12310.5 8115.56,12308C8112.68,12305.6 8109.65,12304.9 8109.65,12304.9C8109.65,12304.9 8112.1,12302.4 8113.97,12298.1C8115.85,12293.8 8120.17,12294.3 8120.17,12294.3Z" style="fill:rgb(95,52,137);"/>
                </g>
            </g>
        </g>
    </g>
</svg>
