<?xml version="1.0" encoding="UTF-8" standalone="no"?>
<!DOCTYPE svg PUBLIC "-//W3C//DTD SVG 1.1//EN" "http://www.w3.org/Graphics/SVG/1.1/DTD/svg11.dtd">
<svg width="100%" height="100%" viewBox="0 0 169 218" version="1.1" xmlns="http://www.w3.org/2000/svg" xmlns:xlink="http://www.w3.org/1999/xlink" xml:space="preserve" xmlns:serif="http://www.serif.com/" style="fill-rule:evenodd;clip-rule:evenodd;stroke-linecap:round;stroke-linejoin:round;stroke-miterlimit:1.5;">
    <g transform="matrix(1,0,0,1,-8744.27,-13626.2)">
        <g transform="matrix(0.239578,0,0,0.239578,7835.04,12766.2)">
            <path d="M3836.66,4036.73C3813.08,4002.69 3812.49,3933.1 3812.49,3933.1C3851.17,3595.44 4147.7,3606.93 4147.7,3606.93C4147.7,3606.93 4444.23,3595.44 4482.91,3933.1C4482.91,3933.1 4482.31,4004.49 4457.83,4038.02C4456.01,4083.28 4442.38,4126.24 4422.05,4137.93C4414.34,4142.37 4407.46,4145.33 4401.45,4149.49L4375.86,4211.85C4375.42,4215.6 4375.02,4219.58 4374.65,4223.81C4370.8,4267.49 4349.64,4280.44 4333.41,4283.83L4303.15,4405.16C4292.21,4449.03 4252.82,4479.83 4207.6,4479.86C4168.8,4479.89 4121.86,4479.92 4083.05,4479.95C4037.78,4479.98 3998.31,4449.17 3987.36,4405.24L3956.8,4282.72C3941.35,4277.96 3923.4,4263.7 3919.89,4223.81C3919.42,4218.44 3918.89,4213.46 3918.31,4208.86L3894.31,4150.36C3888.01,4145.73 3880.73,4142.67 3872.49,4137.93C3851.97,4126.13 3838.26,4082.46 3836.66,4036.73ZM4390.53,4056.67L4390.38,4056.88L4389.82,4057.62L4389.95,4057.1C4390.15,4056.95 4390.34,4056.81 4390.53,4056.67Z" style="stroke:black;stroke-width:34.78px;"/>
            <g>
                <g transform="matrix(0.596505,0,0,1,1725.25,138.934)">
                    <path d="M4340,4145.19C4340,4145.19 4430.82,4157.45 4441.53,4084.88C4452.25,4012.31 4479.37,4013.29 4521,3999C4562.63,3984.71 4587.52,3923.78 4580,3869C4572.48,3814.22 4554.19,3848.01 4481.53,3907C4408.88,3965.99 4334,4016 4334,4016L4340,4145.19Z" style="fill:rgb(250,205,155);"/>
                </g>
                <g transform="matrix(-0.596505,0,0,1,6569.29,138.934)">
                    <path d="M4340,4145.19C4340,4145.19 4430.82,4157.45 4441.53,4084.88C4452.25,4012.31 4479.37,4013.29 4521,3999C4562.63,3984.71 4587.52,3923.78 4580,3869C4572.48,3814.22 4554.19,3848.01 4481.53,3907C4408.88,3965.99 4334,4016 4334,4016L4340,4145.19Z" style="fill:rgb(250,205,155);"/>
                </g>
                <path d="M3982,3763L4326.53,3741.31L4420.37,3935.08C4420.37,3935.08 4345.8,4234.14 4307.16,4389.08C4293.86,4442.4 4245.98,4479.84 4191.03,4479.88C4161.59,4479.9 4129.09,4479.92 4099.64,4479.94C4044.62,4479.97 3996.66,4442.53 3983.34,4389.14C3945.86,4238.83 3875.03,3954.78 3875.03,3954.78L3982,3763Z" style="fill:rgb(255,216,173);"/>
                <clipPath id="_clip1">
                    <path d="M3982,3763L4326.53,3741.31L4420.37,3935.08C4420.37,3935.08 4345.8,4234.14 4307.16,4389.08C4293.86,4442.4 4245.98,4479.84 4191.03,4479.88C4161.59,4479.9 4129.09,4479.92 4099.64,4479.94C4044.62,4479.97 3996.66,4442.53 3983.34,4389.14C3945.86,4238.83 3875.03,3954.78 3875.03,3954.78L3982,3763Z"/>
                </clipPath>
                <g clip-path="url(#_clip1)">
                    <path d="M4348,4049L4332,4187L4287.09,4168L4343,4252L4420.37,4035L4348,4049Z" style="fill:rgb(82,57,46);"/>
                    <g transform="matrix(-1,0,0,1,8287.46,-2.27374e-13)">
                        <path d="M4348,4049L4332,4187L4287.09,4168L4343,4252L4420.37,4035L4348,4049Z" style="fill:rgb(82,57,46);"/>
                    </g>
                </g>
                <g transform="matrix(0.683807,0,0,0.683807,3237.01,1514.48)">
                    <path d="M1330.62,3632.95C1231.38,3628.76 1195.56,3662.74 1090.59,3714.5C985.198,3766.46 953.585,3689.81 953.585,3689.81C949.853,3702.23 931.585,3714.5 931.585,3714.5C843.197,3729.34 841.585,3537 841.585,3537C898.151,3043.2 1331.79,3060 1331.79,3060C1331.79,3060 1765.43,3043.2 1822,3537C1822,3537 1820.39,3729.34 1732,3714.5C1732,3714.5 1713.73,3702.23 1710,3689.81C1710,3689.81 1678.39,3766.46 1573,3714.5C1467.61,3662.54 1431.92,3628.49 1331.79,3633L1330.62,3632.95Z" style="fill:rgb(124,40,172);"/>
                    <clipPath id="_clip2">
                        <path d="M1330.62,3632.95C1231.38,3628.76 1195.56,3662.74 1090.59,3714.5C985.198,3766.46 953.585,3689.81 953.585,3689.81C949.853,3702.23 931.585,3714.5 931.585,3714.5C843.197,3729.34 841.585,3537 841.585,3537C898.151,3043.2 1331.79,3060 1331.79,3060C1331.79,3060 1765.43,3043.2 1822,3537C1822,3537 1820.39,3729.34 1732,3714.5C1732,3714.5 1713.73,3702.23 1710,3689.81C1710,3689.81 1678.39,3766.46 1573,3714.5C1467.61,3662.54 1431.92,3628.49 1331.79,3633L1330.62,3632.95Z"/>
                    </clipPath>
                    <g clip-path="url(#_clip2)">
                        <path d="M1177,3463C1125.94,3461.51 1128,3376 1128,3376C1124.53,3147.56 1331.79,3167.5 1331.79,3167.5C1331.79,3167.5 1539.06,3147.56 1535.59,3376C1535.59,3376 1537.64,3461.51 1486.59,3463L1177,3463Z" style="fill:white;"/>
                        <clipPath id="_clip3">
                            <path d="M1177,3463C1125.94,3461.51 1128,3376 1128,3376C1124.53,3147.56 1331.79,3167.5 1331.79,3167.5C1331.79,3167.5 1539.06,3147.56 1535.59,3376C1535.59,3376 1537.64,3461.51 1486.59,3463L1177,3463Z"/>
                        </clipPath>
                        <g clip-path="url(#_clip3)">
                            <g transform="matrix(1,0,0,-1,-25.7073,6648.8)">
                                <path d="M1250,3220L1261,3409L1465,3414L1455,3361L1309.86,3362.76L1327.4,3230.01L1250,3220Z" style="fill:rgb(238,255,0);"/>
                            </g>
                        </g>
                    </g>
                </g>
                <g transform="matrix(0.869382,-0.49414,0.49414,0.869382,-1500.37,2605.07)">
                    <path d="M4134.53,4282.2L4274.96,4285.06L4465.2,4182.69L4290.45,4319.6L4119.79,4317.87L4134.53,4282.2Z" style="fill:rgb(37,37,37);"/>
                </g>
                <g transform="matrix(-0.869382,-0.49414,-0.49414,0.869382,9795.77,2605.07)">
                    <path d="M4134.53,4282.2L4274.96,4285.06L4465.2,4182.69L4290.45,4319.6L4119.79,4317.87L4134.53,4282.2Z" style="fill:rgb(37,37,37);"/>
                </g>
                <g transform="matrix(0.669587,0,0,0.669587,1479.06,2342.49)">
                    <path d="M3933.39,2920L3920,2920C3920,2920 3865.17,2926.79 3867.09,2872C3868.51,2831.24 3920,2815 3920,2815C3917.46,2741.16 3979.3,2742.64 3985.5,2742.97C3991.7,2742.64 4053.54,2741.16 4051,2815C4051,2815 4102.49,2831.24 4103.91,2872C4105.83,2926.79 4051,2920 4051,2920L4037.61,2920C4032.48,2948.25 4018.69,2975.7 3985.5,2982L3985.07,2981.92C3952.2,2975.45 3938.51,2948.13 3933.39,2920Z" style="fill:rgb(255,124,235);"/>
                    <clipPath id="_clip4">
                        <path d="M3933.39,2920L3920,2920C3920,2920 3865.17,2926.79 3867.09,2872C3868.51,2831.24 3920,2815 3920,2815C3917.46,2741.16 3979.3,2742.64 3985.5,2742.97C3991.7,2742.64 4053.54,2741.16 4051,2815C4051,2815 4102.49,2831.24 4103.91,2872C4105.83,2926.79 4051,2920 4051,2920L4037.61,2920C4032.48,2948.25 4018.69,2975.7 3985.5,2982L3985.07,2981.92C3952.2,2975.45 3938.51,2948.13 3933.39,2920Z"/>
                    </clipPath>
                    <g clip-path="url(#_clip4)">
                        <path d="M4033,2938C4033,2938 4041.08,2919.06 4038,2893C4038,2893 4044.89,2909.25 4042,2920.27L4033,2938Z" style="fill:rgb(180,79,164);"/>
                        <g transform="matrix(-1,0,0,1,7970.71,0)">
                            <path d="M4033,2938C4033,2938 4041.08,2919.06 4038,2893C4038,2893 4044.89,2909.25 4042,2920.27L4033,2938Z" style="fill:rgb(180,79,164);"/>
                        </g>
                    </g>
                </g>
            </g>
        </g>
    </g>
</svg>
