<?xml version="1.0" encoding="UTF-8" standalone="no"?>
<!DOCTYPE svg PUBLIC "-//W3C//DTD SVG 1.1//EN" "http://www.w3.org/Graphics/SVG/1.1/DTD/svg11.dtd">
<svg width="100%" height="100%" viewBox="0 0 201 201" version="1.1" xmlns="http://www.w3.org/2000/svg" xmlns:xlink="http://www.w3.org/1999/xlink" xml:space="preserve" xmlns:serif="http://www.serif.com/" style="fill-rule:evenodd;clip-rule:evenodd;stroke-linecap:round;stroke-linejoin:round;stroke-miterlimit:1.5;">
    <g transform="matrix(1,0,0,1,-5716.5,-13360.9)">
        <g transform="matrix(0.393116,0,0,0.393116,3993.88,9287.85)">
            <g transform="matrix(1.01315,0,0,1.01315,-108.72,-664.73)">
                <path d="M4926.23,10967.2C4926.23,10926.3 4892.97,10893 4852.02,10893L4517.06,10893C4476.11,10893 4442.86,10926.3 4442.86,10967.2L4442.86,11302.2C4442.86,11343.2 4476.11,11376.4 4517.06,11376.4L4852.02,11376.4C4892.97,11376.4 4926.23,11343.2 4926.23,11302.2L4926.23,10967.2Z" style="stroke:black;stroke-width:20.92px;"/>
            </g>
            <g transform="matrix(1.01315,0,0,1.01315,-108.72,-664.73)">
                <path d="M4926.23,10967.2C4926.23,10926.3 4892.97,10893 4852.02,10893L4517.06,10893C4476.11,10893 4442.86,10926.3 4442.86,10967.2L4442.86,11302.2C4442.86,11343.2 4476.11,11376.4 4517.06,11376.4L4852.02,11376.4C4892.97,11376.4 4926.23,11343.2 4926.23,11302.2L4926.23,10967.2Z" style="fill:rgb(241,241,241);"/>
                <clipPath id="_clip1">
                    <path d="M4926.23,10967.2C4926.23,10926.3 4892.97,10893 4852.02,10893L4517.06,10893C4476.11,10893 4442.86,10926.3 4442.86,10967.2L4442.86,11302.2C4442.86,11343.2 4476.11,11376.4 4517.06,11376.4L4852.02,11376.4C4892.97,11376.4 4926.23,11343.2 4926.23,11302.2L4926.23,10967.2Z"/>
                </clipPath>
                <g clip-path="url(#_clip1)">
                    <g transform="matrix(0.987018,0,0,0.987018,107.309,656.101)">
                        <path d="M4392.57,10371.6L4392.57,10494.4L4453.99,10494.4L4453.99,10371.6L4392.57,10371.6Z" style="fill:rgb(234,234,234);"/>
                    </g>
                    <g transform="matrix(0.526169,0,0,1.10715,2824.53,-1382.74)">
                        <rect x="3877.61" y="11251.3" width="115.21" height="54.753" style="fill:rgb(234,234,234);"/>
                    </g>
                    <g transform="matrix(0.987018,0,0,0.987018,107.309,656.101)">
                        <path d="M4698.85,10371.6L4576.02,10371.6L4576.02,10433L4637.44,10433L4637.44,10555L4576.02,10555L4576.02,10616.4L4637.44,10616.4L4637.44,10677.9L4698.85,10677.9L4698.85,10371.6Z" style="fill:rgb(234,234,234);"/>
                    </g>
                    <g transform="matrix(0.987018,0,0,0.987018,107.309,656.101)">
                        <path d="M4515.41,10677.9L4515.41,10616.4L4453.99,10616.4L4453.99,10739.3L4514.6,10739.3L4514.6,10799.9L4576.02,10799.9L4576.02,10739.3C4576.02,10739.3 4637.44,10739.3 4637.44,10739.3L4637.44,10799.9L4698.85,10799.9L4698.85,10739.3L4759.46,10739.3C4759.46,10739.3 4759.46,10799.9 4759.46,10799.9L4820.88,10799.9L4820.88,10677.9L4760.27,10677.9L4760.27,10616.4L4698.85,10616.4L4698.85,10677.9L4637.44,10677.9L4637.44,10616.4L4576.02,10616.4L4576.02,10677.9L4515.41,10677.9Z" style="fill:rgb(27,27,27);"/>
                    </g>
                    <g transform="matrix(0.987018,0,0,0.987018,107.309,656.101)">
                        <path d="M4576.02,10738.5L4576.02,10861.3L4698.85,10861.3L4698.85,10799.9L4637.44,10799.9L4637.44,10738.5L4576.02,10738.5Z" style="fill:rgb(234,234,234);"/>
                    </g>
                    <g transform="matrix(0.526169,0,0,1.10715,2825.33,-1201.68)">
                        <rect x="3877.61" y="11251.3" width="115.21" height="54.753" style="fill:rgb(234,234,234);"/>
                    </g>
                </g>
            </g>
        </g>
    </g>
</svg>
