<?xml version="1.0" encoding="UTF-8" standalone="no"?>
<!DOCTYPE svg PUBLIC "-//W3C//DTD SVG 1.1//EN" "http://www.w3.org/Graphics/SVG/1.1/DTD/svg11.dtd">
<svg width="100%" height="100%" viewBox="0 0 266 219" version="1.1" xmlns="http://www.w3.org/2000/svg" xmlns:xlink="http://www.w3.org/1999/xlink" xml:space="preserve" xmlns:serif="http://www.serif.com/" style="fill-rule:evenodd;clip-rule:evenodd;stroke-linecap:round;stroke-linejoin:round;stroke-miterlimit:1.5;">
    <g transform="matrix(1,0,0,1,-2069.71,-13422.9)">
        <g transform="matrix(2.97782,0,0,2.97782,-8662.6,-21803.2)">
            <path d="M3626.61,11851.7C3626.05,11844.1 3626.35,11831.2 3634.8,11830.9C3646.76,11830.4 3641.24,11836.4 3648.9,11836.1L3648.99,11836.1C3656.49,11836.3 3651.08,11830.4 3662.99,11830.9C3671.46,11831.2 3671.74,11844.2 3671.18,11851.7C3683.52,11852.9 3691.76,11855.1 3691.76,11857.6C3691.76,11859.8 3685.43,11861.7 3675.57,11863C3675.73,11864.8 3675.57,11867 3675.26,11869.8C3678.87,11869.4 3684.43,11869.8 3682.1,11876.3C3680.05,11882 3676.28,11883.8 3673.67,11884.3C3671.38,11902.8 3648.62,11901.5 3648.62,11901.5L3648.52,11901.5C3648.52,11901.5 3625.73,11902.8 3623.47,11884.3C3620.86,11883.7 3617.16,11881.9 3615.13,11876.3C3612.82,11869.9 3618.27,11869.4 3621.88,11869.8C3621.57,11867 3621.41,11864.8 3621.57,11863C3611.76,11861.7 3605.48,11859.8 3605.48,11857.6C3605.48,11855.1 3613.96,11852.9 3626.61,11851.7Z" style="stroke:black;stroke-width:2.8px;"/>
            <g>
                <g transform="matrix(0.878394,0,0,0.878394,444.697,1448.74)">
                    <path d="M3620.31,11864.3C3620.31,11864.3 3605.54,11860.6 3609.36,11871.2C3613.17,11881.8 3622.22,11880.4 3622.22,11880.4L3620.31,11864.3" style="fill:rgb(242,188,162);"/>
                </g>
                <g transform="matrix(-0.878394,0,0,0.878394,6852.53,1448.74)">
                    <path d="M3620.31,11864.3C3620.31,11864.3 3605.54,11860.6 3609.36,11871.2C3613.17,11881.8 3622.22,11880.4 3622.22,11880.4L3620.31,11864.3" style="fill:rgb(242,188,162);"/>
                </g>
                <g transform="matrix(0.878394,0,0,0.878394,445.114,1443.69)">
                    <path d="M3646.89,11851L3646.89,11850.9L3668.65,11853.4C3681.63,11856.4 3677.48,11862.8 3675.63,11885C3673.77,11907.1 3647,11905.6 3647,11905.6L3646.89,11905.6C3646.89,11905.6 3620.12,11907.2 3618.27,11885C3616.41,11862.8 3612.26,11856.4 3625.25,11853.5L3646.89,11851Z" style="fill:rgb(45,45,45);"/>
                </g>
                <g transform="matrix(1.0475,0,0,1.0475,-171.586,-565.029)">
                    <path d="M3646.8,11883.2C3642.62,11883.3 3640.04,11884.8 3633.73,11886.7C3627.37,11888.7 3625.34,11882.2 3624.63,11872.6C3623.92,11863 3646.89,11868.2 3646.89,11868.2L3646.96,11868.2C3648.31,11867.9 3669.85,11863.3 3669.16,11872.6C3668.45,11882.2 3666.42,11888.7 3660.06,11886.7C3653.7,11884.8 3651.13,11883.3 3646.89,11883.2L3646.8,11883.2Z" style="fill:rgb(246,192,166);"/>
                </g>
                <g transform="matrix(0.218268,0,0,0.218268,2852.57,9298.45)">
                    <path d="M3646.8,11883.2C3642.62,11883.3 3640.04,11884.8 3633.73,11886.7C3627.37,11888.7 3625.34,11882.2 3624.63,11872.6C3623.92,11863 3646.89,11868.2 3646.89,11868.2L3646.96,11868.2C3648.31,11867.9 3669.85,11863.3 3669.16,11872.6C3668.45,11882.2 3666.42,11888.7 3660.06,11886.7C3653.7,11884.8 3651.13,11883.3 3646.89,11883.2L3646.8,11883.2Z" style="fill:rgb(246,192,166);"/>
                </g>
                <ellipse cx="3648.62" cy="11857.6" rx="43.14" ry="6.896" style="fill:rgb(220,122,60);"/>
                <g transform="matrix(0.924022,0,0,0.924022,277.495,900.306)">
                    <path d="M3625.15,11857.6C3625.15,11857.6 3620.42,11829.9 3633.36,11829.3C3646.31,11828.8 3640.33,11835.3 3648.62,11835L3648.71,11835C3656.83,11835.2 3650.98,11828.8 3663.87,11829.3C3676.81,11829.9 3672.08,11857.6 3672.08,11857.6C3656.44,11861.4 3640.79,11861.4 3625.15,11857.6Z" style="fill:rgb(228,120,52);"/>
                    <clipPath id="_clip1">
                        <path d="M3625.15,11857.6C3625.15,11857.6 3620.42,11829.9 3633.36,11829.3C3646.31,11828.8 3640.33,11835.3 3648.62,11835L3648.71,11835C3656.83,11835.2 3650.98,11828.8 3663.87,11829.3C3676.81,11829.9 3672.08,11857.6 3672.08,11857.6C3656.44,11861.4 3640.79,11861.4 3625.15,11857.6Z"/>
                    </clipPath>
                    <g clip-path="url(#_clip1)">
                        <path d="M3648.56,11853.7C3647.51,11853.7 3630.49,11853.8 3622.47,11850.7L3624.31,11847.5C3624.31,11847.5 3635.22,11849.4 3648.62,11849.3L3648.77,11849.3C3662.09,11849.4 3672.93,11847.5 3672.93,11847.5L3674.76,11850.7C3666.48,11853.9 3648.62,11853.7 3648.62,11853.7L3648.56,11853.7Z" style="fill:rgb(99,126,174);"/>
                    </g>
                </g>
            </g>
        </g>
    </g>
</svg>
