<?xml version="1.0" encoding="UTF-8" standalone="no"?>
<!DOCTYPE svg PUBLIC "-//W3C//DTD SVG 1.1//EN" "http://www.w3.org/Graphics/SVG/1.1/DTD/svg11.dtd">
<svg width="100%" height="100%" viewBox="0 0 194 201" version="1.1" xmlns="http://www.w3.org/2000/svg" xmlns:xlink="http://www.w3.org/1999/xlink" xml:space="preserve" xmlns:serif="http://www.serif.com/" style="fill-rule:evenodd;clip-rule:evenodd;stroke-linecap:round;stroke-linejoin:round;stroke-miterlimit:1.5;">
    <g transform="matrix(1,0,0,1,-4113.851835,-13361.078698)">
        <g transform="matrix(0.440562,0,0,0.407921,2746.207517,8683.406715)">
            <g transform="matrix(0.839255,0,0,0.518849,970.523304,5235.726845)">
                <path d="M2588.457,12645.157L2574.183,12645.157C2562.91,12645.157 2553.757,12630.352 2553.757,12612.117L2553.757,12396.781C2553.757,12382.009 2559.763,12369.489 2568.037,12365.266L2568.037,12283.904L2610.093,12283.904C2634.593,12180.259 2669.072,12118.671 2702.559,12082.165C2710.985,12050.189 2734.336,12054.003 2734.336,12054.003L2734.336,12054.063C2765.49,12032.373 2792.261,12029.613 2804.232,12029.668C2816.19,12029.613 2842.915,12032.367 2874.026,12053.993C2875.421,12053.797 2897.449,12051.22 2905.664,12081.903C2939.226,12118.376 2973.812,12180.011 2998.371,12283.904L3040.426,12283.904L3040.426,12365.266C3048.7,12369.489 3054.706,12382.009 3054.706,12396.781L3054.706,12612.117C3054.706,12630.352 3045.554,12645.157 3034.281,12645.157L3020.006,12645.157C3010.904,12715.688 2990.258,12764.971 2966.271,12764.971C2960.926,12764.971 2956.463,12754.049 2952.881,12735.81C2945.367,12759.828 2937.665,12778.617 2931.19,12790.552C2933.256,12804.757 2934.648,12820.345 2935.228,12837.448C2935.228,12837.448 2928.416,12826.13 2916.375,12810.824C2897.917,12836.253 2896.098,12866.179 2885.186,12903.414C2873.026,12944.909 2832.203,12937.129 2832.203,12937.129L2804.232,12933.108L2776.261,12937.129C2776.261,12937.129 2735.438,12944.909 2723.277,12903.414C2712.366,12866.179 2710.546,12836.253 2692.089,12810.824C2680.048,12826.13 2673.235,12837.448 2673.235,12837.448C2673.816,12820.345 2675.208,12804.757 2677.273,12790.552C2670.798,12778.617 2663.097,12759.828 2655.582,12735.81C2652.001,12754.049 2647.538,12764.971 2642.193,12764.971C2618.205,12764.971 2597.559,12715.688 2588.457,12645.157Z" style="stroke:black;stroke-width:27.66px;"/>
            </g>
            <g>
                <g transform="matrix(0.839255,0,0,0.518849,970.523304,5235.726845)">
                    <rect x="2568.037" y="12283.904" width="472.389" height="280.452" style="fill:rgb(201,123,32);"/>
                </g>
                <g transform="matrix(1.083447,0,0,1,162.73748,28.910098)">
                    <path d="M2917.774,11917.147L2896.107,11919.234C2896.107,11919.234 2864.484,11923.27 2855.065,11901.74C2845.646,11880.21 2844.973,11863.39 2825.461,11849.261C2805.949,11835.131 2751.451,11725.294 2793.502,11621.008L2904.995,11616.904L2904.958,11615.962L2917.774,11616.433L2930.589,11615.962L2930.552,11616.904L3042.045,11621.008C3084.096,11725.294 3029.598,11835.131 3010.086,11849.261C2990.574,11863.39 2989.901,11880.21 2980.482,11901.74C2971.063,11923.27 2939.44,11919.234 2939.44,11919.234L2917.774,11917.147Z" style="fill:rgb(192,160,118);"/>
                </g>
                <g transform="matrix(1.211753,0,0,1.211753,-282.080216,-2471.97926)">
                    <path d="M2975.911,11775.253C2983.955,11774.916 3062.044,11773.812 3066.638,11857.533C3066.638,11857.533 3027.737,11817.58 2975.911,11811.966C2924.084,11817.58 2885.183,11857.533 2885.183,11857.533C2889.777,11773.812 2967.867,11774.916 2975.911,11775.253Z" style="fill:rgb(88,80,72);"/>
                </g>
                <g transform="matrix(0.889995,0,0,0.889995,837.95591,685.293205)">
                    <path d="M2634.162,12341.487L2634.162,12463.941C2634.162,12475.422 2625.531,12484.744 2614.9,12484.744L2576.378,12484.744C2565.747,12484.744 2557.116,12475.422 2557.116,12463.941L2557.116,12341.487C2557.116,12330.006 2565.747,12320.684 2576.378,12320.684L2614.9,12320.684C2625.531,12320.684 2634.162,12330.006 2634.162,12341.487Z" style="fill:rgb(165,127,88);"/>
                </g>
                <g transform="matrix(0.889995,0,0,0.889995,1189.810314,685.293205)">
                    <path d="M2634.162,12341.487L2634.162,12463.941C2634.162,12475.422 2625.531,12484.744 2614.9,12484.744L2576.378,12484.744C2565.747,12484.744 2557.116,12475.422 2557.116,12463.941L2557.116,12341.487C2557.116,12330.006 2565.747,12320.684 2576.378,12320.684L2614.9,12320.684C2625.531,12320.684 2634.162,12330.006 2634.162,12341.487Z" style="fill:rgb(165,127,88);"/>
                </g>
                <g transform="matrix(1.113516,0,0,0.889995,247.959426,697.562124)">
                    <path d="M2640.32,12306.899C2664.737,12306.899 2664.737,12540.808 2640.32,12540.808C2615.903,12540.808 2596.079,12488.402 2596.079,12423.853C2596.079,12359.304 2615.903,12306.899 2640.32,12306.899Z" style="fill:rgb(221,136,35);"/>
                </g>
                <g transform="matrix(-1.113516,0,0,0.889995,6400.018837,697.562124)">
                    <path d="M2640.32,12306.899C2664.737,12306.899 2664.737,12540.808 2640.32,12540.808C2615.903,12540.808 2596.079,12488.402 2596.079,12423.853C2596.079,12359.304 2615.903,12306.899 2640.32,12306.899Z" style="fill:rgb(221,136,35);"/>
                </g>
                <g transform="matrix(0.889995,0,0,0.889995,825.429742,667.247736)">
                    <path d="M2807.386,12146.202C2839.212,12146.111 2981.968,12159.07 3015.538,12395.589L2812.642,12397.226L2812.642,12397.311L2807.386,12397.268L2802.129,12397.311L2802.129,12397.226L2599.233,12395.589C2632.803,12159.07 2775.559,12146.111 2807.386,12146.202Z" style="fill:rgb(221,136,35);"/>
                </g>
                <g transform="matrix(0.996386,0,0,0.996386,534.516132,-651.778583)">
                    <path d="M2943.801,12430.517C2885.211,12416.095 2713.968,12416.095 2655.378,12430.517C2587.046,12447.337 2580.355,12395.825 2634.162,12374.799C2681.562,12356.277 2917.617,12356.277 2965.018,12374.799C3018.824,12395.825 3012.134,12447.337 2943.801,12430.517Z" style="fill:rgb(201,123,32);"/>
                </g>
                <g transform="matrix(0.889995,0,0,0.889995,797.009978,689.230656)">
                    <path d="M2741.869,12270.653L2773.407,12270.653L2773.407,12135.689C2773.407,12135.689 2751.12,12133.439 2743.299,12152.449L2741.869,12270.653Z" style="fill:rgb(201,123,32);"/>
                </g>
                <g transform="matrix(-0.889995,0,0,0.889995,5850.824549,689.230656)">
                    <path d="M2741.869,12270.653L2773.407,12270.653L2773.407,12135.689C2773.407,12135.689 2751.12,12133.439 2743.299,12152.449L2741.869,12270.653Z" style="fill:rgb(201,123,32);"/>
                </g>
            </g>
        </g>
    </g>
</svg>
