<?xml version="1.0" encoding="UTF-8" standalone="no"?>
<!DOCTYPE svg PUBLIC "-//W3C//DTD SVG 1.1//EN" "http://www.w3.org/Graphics/SVG/1.1/DTD/svg11.dtd">
<svg width="100%" height="100%" viewBox="0 0 191 202" version="1.1" xmlns="http://www.w3.org/2000/svg" xmlns:xlink="http://www.w3.org/1999/xlink" xml:space="preserve" xmlns:serif="http://www.serif.com/" style="fill-rule:evenodd;clip-rule:evenodd;stroke-linecap:round;stroke-linejoin:round;stroke-miterlimit:1.5;">
    <g transform="matrix(1,0,0,1,-8133.02,-13240.2)">
        <g transform="matrix(1.76092,0,0,1.76092,-5276.54,-9258.74)">
            <path d="M7712.51,12779.5C7712.88,12781.2 7714.48,12788.7 7714.8,12800.2C7716.33,12799.1 7718.52,12797.2 7721.05,12793.6L7721.06,12793.6C7721.06,12793.6 7721.06,12793.6 7721.06,12793.6L7721.06,12793.6L7721.06,12793.6C7721.01,12795.1 7720.12,12816.9 7713.82,12839.2L7716.74,12841.5L7716.77,12841.5C7716.77,12841.5 7717.81,12855.4 7711.05,12863.7L7710.83,12863.1C7710.84,12863.3 7710.86,12863.6 7710.88,12863.9L7702.59,12866C7697.71,12873.9 7691.57,12880.4 7683.82,12884.1L7683.72,12880.7C7681.9,12882.5 7674.93,12888.9 7669.26,12888.8L7669.18,12888.8C7663.52,12888.8 7656.61,12882.5 7654.79,12880.7L7654.69,12884.1C7646.94,12880.4 7640.8,12873.9 7635.93,12866L7627.64,12863.9C7627.66,12863.6 7627.67,12863.3 7627.69,12863.1L7627.47,12863.7C7620.71,12855.4 7621.75,12841.5 7621.75,12841.5L7621.77,12841.5L7624.7,12839.2C7618.39,12816.9 7617.51,12795.1 7617.45,12793.6L7617.45,12793.6L7617.45,12793.6C7617.45,12793.6 7617.45,12793.6 7617.45,12793.6L7617.46,12793.6C7620,12797.2 7622.19,12799.1 7623.71,12800.2C7624.04,12788.7 7625.63,12781.1 7626.01,12779.5L7626.01,12779.2C7626.03,12779.2 7626.05,12779.2 7626.07,12779.3C7626.08,12779.2 7626.09,12779.2 7626.09,12779.2L7626.13,12779.4C7633.68,12790.4 7645.7,12798.3 7649.37,12800.5C7661.32,12794.4 7669.26,12794.7 7669.26,12794.7L7669.3,12794.6C7669.87,12794.6 7678.03,12794.8 7689.21,12800.5C7692.96,12798.2 7704.88,12790.3 7712.38,12779.4L7712.43,12779.2C7712.43,12779.2 7712.44,12779.2 7712.45,12779.3C7712.47,12779.2 7712.49,12779.2 7712.51,12779.2L7712.51,12779.5ZM7617.48,12793.8L7617.6,12794.5C7617.55,12794.3 7617.51,12794.1 7617.48,12793.8ZM7721.03,12793.8C7721,12794.1 7720.96,12794.3 7720.92,12794.5L7721.03,12793.8Z" style="stroke:black;stroke-width:4.73px;"/>
            <g>
                <path d="M7669.18,12888.8C7662.61,12888.9 7654.34,12880.3 7654.34,12880.3L7634.08,12855.5L7636.4,12831.6L7669.26,12847.4L7702.11,12831.6L7704.44,12855.5L7684.17,12880.3C7684.17,12880.3 7675.84,12888.9 7669.26,12888.8L7669.18,12888.8Z" style="fill:rgb(227,199,188);"/>
                <path d="M7688.04,12801.2C7688.04,12801.2 7703.52,12792.4 7712.51,12779.2L7712.51,12801.4C7712.51,12801.4 7716.13,12800.5 7721.06,12793.6L7718.91,12806.9L7715.08,12811.6L7706.52,12808.1L7695.5,12811.8L7688.04,12801.2Z" style="fill:rgb(186,71,67);"/>
                <g transform="matrix(-1,0,0,1,15338.5,0)">
                    <path d="M7688.04,12801.2C7688.04,12801.2 7703.52,12792.4 7712.51,12779.2L7712.51,12801.4C7712.51,12801.4 7716.13,12800.5 7721.06,12793.6L7718.91,12806.9L7715.08,12811.6L7706.52,12808.1L7695.5,12811.8L7688.04,12801.2Z" style="fill:rgb(186,71,67);"/>
                </g>
                <path d="M7652.33,12839.6L7634.08,12810.8C7654.05,12794.1 7669.26,12794.7 7669.26,12794.7L7669.3,12794.6C7670.11,12794.5 7686.14,12795 7704.44,12810.8L7686.19,12839.6L7669.26,12857.6L7652.33,12839.6Z" style="fill:rgb(116,115,146);"/>
                <clipPath id="_clip1">
                    <path d="M7652.33,12839.6L7634.08,12810.8C7654.05,12794.1 7669.26,12794.7 7669.26,12794.7L7669.3,12794.6C7670.11,12794.5 7686.14,12795 7704.44,12810.8L7686.19,12839.6L7669.26,12857.6L7652.33,12839.6Z"/>
                </clipPath>
                <g clip-path="url(#_clip1)">
                    <path d="M7648.42,12789.3C7648.42,12789.3 7645.37,12815.5 7646.73,12835.5L7669.26,12859L7689.55,12837.7C7689.55,12837.7 7691.06,12812.5 7688.01,12790.1L7648.42,12789.3Z" style="fill:rgb(191,194,203);"/>
                    <path d="M7643.17,12828.2C7643.17,12828.2 7667.55,12806.4 7692.6,12829L7687.52,12859.3L7655.02,12857L7643.17,12828.2Z" style="fill:rgb(35,136,182);"/>
                </g>
                <path d="M7669.26,12856.7C7673.55,12851.2 7704.25,12811.1 7712.43,12779.2C7712.43,12779.2 7715.31,12790.7 7714.8,12808.5C7714.8,12808.5 7720.39,12799.5 7721.06,12793.6C7721.06,12793.6 7718.69,12867.7 7683.82,12884.1L7683.48,12872.9C7683.48,12872.9 7691.27,12867.3 7695.5,12860.6C7695.5,12860.6 7699.56,12846.3 7699.23,12835.7L7669.26,12860.2L7639.29,12835.7C7638.95,12846.3 7643.01,12860.6 7643.01,12860.6C7647.25,12867.3 7655.03,12872.9 7655.03,12872.9L7654.69,12884.1C7619.82,12867.7 7617.45,12793.6 7617.45,12793.6C7618.13,12799.5 7623.72,12808.5 7623.72,12808.5C7623.21,12790.7 7626.09,12779.2 7626.09,12779.2C7634.27,12811.1 7664.96,12851.2 7669.26,12856.7Z" style="fill:rgb(233,81,76);"/>
                <g transform="matrix(1,0,0,1,1.17001,0.54167)">
                    <path d="M7715.6,12841C7715.6,12841 7716.64,12854.9 7709.88,12863.2L7707.02,12854.9L7710.57,12842.3L7715.6,12841Z" style="fill:rgb(95,87,108);"/>
                </g>
                <g transform="matrix(1,0,0,1,1.17001,0.54167)">
                    <path d="M7709.19,12835.9L7715.6,12841C7715.6,12841 7708.66,12848.1 7709.7,12863.3L7700.52,12865.7C7700.52,12865.7 7700.43,12848.2 7709.19,12835.9Z" style="fill:rgb(188,199,203);"/>
                </g>
                <g transform="matrix(-1,0,0,1,15337.3,0.54167)">
                    <path d="M7715.6,12841C7715.6,12841 7716.64,12854.9 7709.88,12863.2L7707.02,12854.9L7710.57,12842.3L7715.6,12841Z" style="fill:rgb(95,87,108);"/>
                </g>
                <g transform="matrix(-1,0,0,1,15337.3,0.54167)">
                    <path d="M7709.19,12835.9L7715.6,12841C7715.6,12841 7708.66,12848.1 7709.7,12863.3L7700.52,12865.7C7700.52,12865.7 7700.43,12848.2 7709.19,12835.9Z" style="fill:rgb(188,199,203);"/>
                </g>
            </g>
        </g>
    </g>
</svg>
