<?xml version="1.0" encoding="UTF-8" standalone="no"?>
<!DOCTYPE svg PUBLIC "-//W3C//DTD SVG 1.1//EN" "http://www.w3.org/Graphics/SVG/1.1/DTD/svg11.dtd">
<svg width="100%" height="100%" viewBox="0 0 144 202" version="1.1" xmlns="http://www.w3.org/2000/svg" xmlns:xlink="http://www.w3.org/1999/xlink" xml:space="preserve" xmlns:serif="http://www.serif.com/" style="fill-rule:evenodd;clip-rule:evenodd;stroke-linecap:round;stroke-linejoin:round;stroke-miterlimit:1.5;">
    <g transform="matrix(1,0,0,1,-3937.85058,-13761.926378)">
        <g transform="matrix(1,0,0,1,1922.442948,1361.173965)">
            <g transform="matrix(1.074351,0,0,1,-1225.332284,380.383045)">
                <path d="M3024.319,12134.779L3022.899,12134.843C3022.899,12134.843 3025.457,12086.121 3020.341,12047.216C3020.341,12047.216 3044.002,12022.491 3082.37,12024.672L3084.575,12024.672C3122.943,12022.491 3146.604,12047.216 3146.604,12047.216C3144.106,12066.212 3143.438,12087.548 3143.408,12104.411L3143.237,12104.411C3143.304,12106.58 3143.344,12108.758 3143.36,12110.94L3143.427,12110.94C3143.537,12125.142 3144.046,12134.843 3144.046,12134.843L3142.626,12134.779C3140.878,12160.927 3136.318,12184.546 3131.875,12195.211C3124.832,12212.114 3109.436,12216.986 3098.584,12218.177C3085.996,12218.069 3087.095,12216.492 3083.472,12216.462C3079.85,12216.492 3081.3,12218.154 3068.361,12218.177C3057.509,12216.986 3042.113,12212.114 3035.07,12195.211C3030.627,12184.546 3026.067,12160.927 3024.319,12134.779Z" style="stroke:black;stroke-width:8.03px;"/>
            </g>
            <g>
                <g transform="matrix(1.074351,0,0,1,-1225.332284,380.383045)">
                    <path d="M3068.361,12218.177C3057.509,12216.986 3042.113,12212.114 3035.07,12195.211C3023.588,12167.652 3011.327,12053.589 3048.837,12032.92L3072.968,12031.693L3072.942,12030.624L3083.472,12031.159L3094.003,12030.624L3093.977,12031.693L3118.108,12032.92C3155.618,12053.589 3143.357,12167.652 3131.875,12195.211C3124.832,12212.114 3109.436,12216.986 3098.584,12218.177C3098.584,12218.177 3098.605,12218.177 3098.584,12218.177C3085.996,12218.069 3087.095,12216.492 3083.472,12216.462C3079.85,12216.492 3081.3,12218.154 3068.361,12218.177C3068.34,12218.177 3068.361,12218.177 3068.361,12218.177Z" style="fill:rgb(223,161,120);"/>
                </g>
                <g transform="matrix(0.876415,0,0,0.927677,-597.64241,1287.722428)">
                    <path d="M3128.648,12070.008C3127.431,12058.684 3123.785,12051.239 3115.185,12053.819C3101.682,12057.87 3072.481,12073.55 3064.637,12077.823L3062.691,12077.823C3054.847,12073.55 3025.645,12057.87 3012.143,12053.819C2996.465,12049.116 2997.249,12077.728 2999.209,12102.421L2989.41,12102.813C2989.41,12102.813 2992.546,12050.292 2986.274,12008.354C2986.274,12008.354 3015.278,11981.701 3062.312,11984.053L3065.015,11984.053C3112.049,11981.701 3141.053,12008.354 3141.053,12008.354C3137.991,12028.831 3137.172,12051.831 3137.135,12070.008L3128.648,12070.008ZM3137.159,12077.046C3137.293,12092.355 3137.918,12102.813 3137.918,12102.813L3128.119,12102.421C3128.794,12093.921 3129.329,12084.956 3129.101,12077.046L3137.159,12077.046Z" style="fill:rgb(202,188,149);"/>
                </g>
                <g transform="matrix(0.462551,0.081113,-0.081113,0.462551,2266.091235,6588.51726)">
                    <path d="M1887.171,12565.856C1887.171,12565.856 1874.127,12541.273 1872.12,12534.751C1870.113,12528.229 1891.937,12515.185 1912.255,12509.667C1912.255,12509.667 1879.896,12525.47 1887.171,12565.856Z" style="fill:rgb(215,157,116);"/>
                </g>
                <g transform="matrix(-0.462551,0.081113,0.081113,0.462551,1908.707908,6588.51726)">
                    <path d="M1887.171,12565.856C1887.171,12565.856 1874.127,12541.273 1872.12,12534.751C1870.113,12528.229 1891.937,12515.185 1912.255,12509.667C1912.255,12509.667 1879.896,12525.47 1887.171,12565.856Z" style="fill:rgb(215,157,116);"/>
                </g>
            </g>
        </g>
    </g>
</svg>
